<?xml version="1.0" encoding="utf-8"?>
<svg fill="none" xmlns="http://www.w3.org/2000/svg" viewBox="0 0 217 100"><path d="m0 59.155.382.382 15.116-15.088a7.222 7.222 0 0 1-.538-.215L0 59.155ZM20.694 39.275l6.257-6.248c.026-.262.048-.536.052-.808l-7.011 7.002a2.5 2.5 0 0 0 .638.054h.064ZM36.352 23.639l-.38-.382-3.008 3.019c.076.18.15.357.22.534l3.168-3.171Z" fill="#F96360"></path><path d="M33.188 26.81c-.069-.181-.143-.358-.22-.534-2.006-4.673-6.45-7.889-12.348-7.889-8.216 0-13.515 6.082-13.51 13.636a13.223 13.223 0 0 0 4.006 9.737l4.67-4.663a7.89 7.89 0 0 1-1.61-5.083c.027-4.341 2.466-7.54 6.45-7.503 3.986.039 6.363 3.221 6.39 7.508v.193c.008.27-.01.54-.053.808-.37 3.671-2.686 6.198-6.255 6.248h-.064c-.215.01-.43-.009-.64-.054l-5.04 5.02c.178.076.362.15.538.215 1.648.609 3.391.923 5.149.927 8.216 0 13.515-6.136 13.505-13.314a15.06 15.06 0 0 0-.968-5.252Z" fill="#fff"></path><path d="M18.166 38.827a5.81 5.81 0 0 1-2.4-1.745l-4.671 4.66a12.73 12.73 0 0 0 2.329 1.77l4.742-4.685Z" fill="#F96360"></path><path d="M58.07 27.763c0 6.592-4.886 9.56-9.234 9.536h-3.645v7.822h-6.986l.048-26.255h10.361c5.753-.024 9.49 4.077 9.456 8.897ZM45.19 31.17h2.953c1.988 0 3.073-1.37 3.085-3.085a2.914 2.914 0 0 0-.737-2.107 2.927 2.927 0 0 0-2.362-.97h-2.96l.022 6.162ZM81.755 45.102H61.78l.05-26.255h19.59v6.11H68.81v3.965h9.047v6.062h-9.078v4.02h12.994l-.017 6.098ZM92.541 18.842l9.026 8.583v-8.583h6.981l-.048 26.255h-6.98v-8.642l-8.63-8.13-.047 16.772h-6.981l.05-26.255h6.63Z" fill="#fff"></path><path d="m59.21 57.918 3.483-3.471-.38-.381-3.593 3.58.49.272ZM54.114 62.238l-3.323 3.306.535.22 3.325-3.307h-.05s-.177-.09-.487-.22ZM46.022 71.051l-.537-.202-3.677 3.647.535.227 3.68-3.672ZM37.243 79.045l-8.123 8.081.382.38 8.188-8.16a9.137 9.137 0 0 1-.462-.301h.015Z" fill="#F96360"></path><path d="M48.433 60.85c2.15 0 4.644.954 5.681 1.388.31.129.495.22.495.22h.052l4.54-4.53-.479-.272-1.966-1.073a20.342 20.342 0 0 0-8.6-1.767c-4.616 0-10.034 2.513-10.034 7.868 0 5.042 3.925 6.913 7.344 8.181l.537.203c2.444.87 4.473 1.523 4.473 2.899 0 1.18-1.558 1.769-3.65 1.769a12.323 12.323 0 0 1-4.485-1.023l-.538-.226-1.151 1.13-3.404 3.413s.167.117.46.299a18.586 18.586 0 0 0 9.394 2.507c4.51 0 10.579-2.47 10.579-8.303 0-4.432-3.223-6.472-6.336-7.786l-.537-.22c-2.807-1.108-5.419-1.7-5.419-2.98s1.486-1.697 3.044-1.697ZM86.877 68.513c0 7.173-5.316 13.335-13.477 13.335-8.16 0-13.476-6.162-13.476-13.335 0-7.555 5.256-13.666 13.476-13.666 8.221 0 13.477 6.056 13.477 13.666Zm-7.086 0c0-4.342-2.418-7.555-6.39-7.555-3.974 0-6.451 3.213-6.451 7.555 0 4.226 2.47 7.232 6.45 7.232s6.391-3.006 6.391-7.233ZM105.831 55.208h7.034v16.501c0 6.163-5.583 10.123-11.114 10.123-5.53 0-11.114-3.96-11.114-10.123V55.207h6.979v16.176c0 2.846 1.987 4.346 4.135 4.346 2.148 0 4.08-1.555 4.08-4.346V55.208ZM125.109 73.276v8.196h-6.981V55.208h10.309c5.798 0 9.556 4.071 9.556 8.894 0 4.334-2.203 6.804-4.351 7.924l5.856 9.446h-8.161l-4.726-8.203-1.502.007Zm6.013-9.11a2.8 2.8 0 0 0-.792-1.994 2.812 2.812 0 0 0-1.972-.852 2.117 2.117 0 0 0-.239 0h-3.01v5.848h3.005a2.869 2.869 0 0 0 3.008-2.715 2.73 2.73 0 0 0 0-.287Z" fill="#fff"></path><path d="m164.881 56.96 2.523-2.513-.383-.381-2.627 2.622c.186.098.477.279.477.279l.01-.007ZM149.548 71.459c.057.183.125.362.206.536l10.201-10.18s-.301-.166-.499-.257l-9.908 9.901ZM133.824 87.126l.38.38 10.664-10.626a11.557 11.557 0 0 1-.322-.434l-10.722 10.68Z" fill="#F96360"></path><path d="M155.819 61.01c1.183.018 2.358.199 3.491.537l.141.06c.198.09.478.237.499.254l2.2-2.19 2.717-2.711s-.289-.181-.478-.28l-.069-.037-.289-.139c-.27-.16-3.546-1.657-8.484-1.657-8.216 0-13.479 6.11-13.479 13.666a13.636 13.636 0 0 0 2.482 7.933c.101.148.208.291.323.434 2.341 3.006 6.035 4.973 10.674 4.973a20.317 20.317 0 0 0 8.856-2.05l-2.2-5.674s-3.545 1.655-6.391 1.655c-3.105 0-5.117-1.5-6.068-3.75-.074-.184-.143-.37-.203-.537a9.313 9.313 0 0 1-.428-2.899c0-4.29 2.251-7.588 6.706-7.588ZM175.364 75.369v-4.017h9.076v-6.056h-9.128v-3.969h12.616v-6.103h-19.597V81.48h10.846l6.121-6.11h-9.934Z" fill="#fff"></path><path d="M189.915 75.369h-4.618l-6.12 6.11h4.618l6.12-6.11Z" fill="#F96360"></path><path d="M43.332 1.268a4.315 4.315 0 0 0-.912 4.715L12.674 35.666l2.255 2.246L44.675 8.229a4.309 4.309 0 0 0 4.4-.59 4.292 4.292 0 0 0 1.531-4.159A4.287 4.287 0 0 0 47.638.186a4.31 4.31 0 0 0-4.306 1.082Zm4.136 4.179a1.558 1.558 0 0 1-2.256 0 1.604 1.604 0 0 1 1.174-2.571c.387-.027.772.087 1.082.32a1.555 1.555 0 0 1 .052 2.198c-.017.029-.036.029-.052.053Z" fill="#fff"></path><path d="M120.844 29.334h-2.15V18.833h7.024v1.874h-4.883v2.434h3.672V25h-3.672l.009 4.333ZM127.256 18.833h2.15v10.501h-2.15V18.833ZM133.925 25.782v3.552h-2.151V18.833h3.883c2.238 0 3.693 1.547 3.693 3.407a3.284 3.284 0 0 1-2.071 3.268l2.372 3.826h-2.554l-2.04-3.552h-1.132Zm3.344-3.5a1.511 1.511 0 0 0-.403-1.088 1.522 1.522 0 0 0-1.057-.485h-1.875v3.213h1.801a1.577 1.577 0 0 0 1.429-1.007c.073-.192.108-.398.103-.604l.002-.029ZM149.575 22.149l-2.286 3.001h-1.195l-2.272-3.001h-.06v7.185h-2.15V18.833h2.122l2.979 3.857 2.931-3.857h2.117v10.501h-2.15V22.15h-.036ZM153.87 18.833h2.107l.617 8.046h.059l1.804-3.75h1.687l1.787 3.75h.059l.617-8.037h2.104l-1.127 10.502h-2.15l-2.088-4.17h-.108l-2.088 4.17H155l-1.13-10.511ZM174.985 29.334h-2.151v-3.392h-4.044v3.392h-2.15v-6.81a4.032 4.032 0 0 1 1.244-2.828 4.05 4.05 0 0 1 2.881-1.123h.041c2.105 0 4.152 1.697 4.152 3.948l.027 6.813Zm-2.151-6.541c0-1.512-.886-2.337-2.014-2.337-1.127 0-2.03.825-2.03 2.337v1.275h4.044v-1.275ZM179.371 25.782v3.552h-2.15V18.833h3.877c2.239 0 3.698 1.547 3.698 3.407a3.284 3.284 0 0 1-2.078 3.268l2.389 3.826h-2.547l-2.045-3.552h-1.144Zm3.344-3.5a1.503 1.503 0 0 0-.409-1.09 1.524 1.524 0 0 0-1.062-.482h-1.868v3.212h1.803a1.574 1.574 0 0 0 1.536-1.616v-.024ZM194.646 29.334h-7.576V18.833h7.435v1.874h-5.304v2.434h3.758V25h-3.758v2.457h5.445v1.876ZM126.784 44.52a7.359 7.359 0 0 1-3.417.734c-3.758 0-5.256-2.86-5.256-5.359 0-3.178 2.15-5.46 5.368-5.46a6.943 6.943 0 0 1 3.159.585l-.667 1.774a5.902 5.902 0 0 0-2.358-.499c-1.954 0-3.397 1.276-3.397 3.6 0 2.058 1.159 3.483 3.397 3.483a6.661 6.661 0 0 0 2.525-.615l.646 1.757ZM138.53 39.922a5.119 5.119 0 0 1-2.981 4.858 5.147 5.147 0 0 1-1.95.467h-.377c-3.275 0-5.289-2.427-5.289-5.325 0-3.028 2.014-5.46 5.289-5.46s5.308 2.43 5.308 5.46Zm-2.15 0c0-2.053-1.194-3.576-3.146-3.576s-3.142 1.532-3.142 3.576c0 2.043 1.221 3.466 3.142 3.466 1.921 0 3.106-1.41 3.106-3.466h.04ZM146.87 38.86v-4.248h2.151v10.502h-2.151v-3.51l-4.359-4.126h-.065v7.629h-2.15V34.612h1.992l4.494 4.248h.088ZM153.565 45.114h-2.15V34.612h7.016v1.874h-4.866v2.434h3.684v1.86h-3.684v4.334ZM167.526 45.114h-7.592V34.612h7.441v1.874h-5.31v2.434h3.758v1.86h-3.758v2.457h5.461v1.877ZM171.451 41.562v3.552h-2.15V34.612h3.877c2.243 0 3.698 1.547 3.698 3.407a3.295 3.295 0 0 1-2.071 3.268l2.389 3.827h-2.554l-2.047-3.552h-1.142Zm3.345-3.5a1.516 1.516 0 0 0-1.46-1.573h-1.876v3.216h1.804a1.576 1.576 0 0 0 1.428-1.008c.074-.193.109-.398.104-.604v-.031ZM186.722 45.114h-7.576V34.612h7.442v1.874h-5.306v2.434h3.758v1.86h-3.758v2.457h5.44v1.877ZM195.081 38.86v-4.248h2.15v10.502h-2.15v-3.51l-4.36-4.126h-.06v7.629h-2.15V34.612h2.005l4.493 4.248h.072ZM207.695 44.52a7.367 7.367 0 0 1-3.411.734c-3.758 0-5.256-2.86-5.256-5.359 0-3.178 2.15-5.46 5.368-5.46a6.908 6.908 0 0 1 3.158.585l-.662 1.774a5.91 5.91 0 0 0-2.36-.499c-1.956 0-3.395 1.276-3.395 3.6 0 2.057 1.154 3.483 3.395 3.483a6.635 6.635 0 0 0 2.528-.615l.635 1.757ZM217 45.114h-7.592V34.612h7.442v1.874h-5.295v2.434h3.758v1.86h-3.758v2.457h5.438l.007 1.877Z" fill="#F96360"></path><path d="m189.916 75.369-16.435 16.397a4.308 4.308 0 0 0-5.256 1.536 4.281 4.281 0 0 0 .519 5.441 4.305 4.305 0 0 0 7.168-1.828 4.284 4.284 0 0 0-.175-2.899l18.737-18.7-4.558.053Zm-19.278 19.236a1.615 1.615 0 0 1 2.768 1.103 1.607 1.607 0 0 1-.977 1.499 1.616 1.616 0 0 1-1.762-.328l-.029-.028a1.564 1.564 0 0 1-.031-2.203.13.13 0 0 0 .031-.043Z" fill="#fff"></path></svg>