<?xml version="1.0" encoding="utf-8"?>
<!-- Generator: Adobe Illustrator 19.0.0, SVG Export Plug-In . SVG Version: 6.00 Build 0)  -->
<svg version="1.1" id="Layer_1" xmlns="http://www.w3.org/2000/svg" xmlns:xlink="http://www.w3.org/1999/xlink" x="0px" y="0px"
	 viewBox="0 0 413.9 114.7" style="enable-background:new 0 0 413.9 114.7;" xml:space="preserve" height="63px">
<style type="text/css">
	.st0{fill:#4BA2DA;}
	.st1{clip-path:url(#XMLID_19_);}
	.st2{clip-path:url(#XMLID_20_);fill:none;stroke:#4BA2D9;stroke-width:2;stroke-miterlimit:10;}
</style>
<g id="XMLID_1_">
	<path id="XMLID_11_" class="st0" d="M31.8,11.1h-11c-1.9,0-3.5,0.1-5,0.2c-1.5,0.1-2.6,0.3-3.4,0.5c-1,0.2-1.7,0.3-2.2,0.4
		c-0.5,0-0.9,0.1-1.2,0.1c-1.3,0-2.3-0.3-2.9-0.8c-0.6-0.6-0.9-1.3-0.9-2.1c0-0.5,0.1-0.9,0.3-1.4c0.2-0.4,0.6-0.8,1.1-1.1
		C7.3,6.5,8.1,6.3,9,6.1c1-0.2,2.1-0.3,3.6-0.3h65.3c2,0,3.6-0.1,5.1-0.2c1.4-0.1,2.6-0.3,3.5-0.4c0.9-0.2,1.6-0.3,2.1-0.3
		c0.5,0,0.9,0,1.2,0c1.3,0,2.2,0.3,2.8,0.8c0.6,0.5,0.9,1.2,0.9,2.1c0,0.5-0.1,0.9-0.3,1.4c-0.2,0.4-0.6,0.8-1.1,1.1
		c-0.5,0.3-1.3,0.5-2.2,0.7c-0.9,0.2-2.1,0.3-3.5,0.3h-17v98.4H31.8V11.1z"/>
</g>
<g id="XMLID_9_">
	<path id="XMLID_3_" class="st0" d="M202.2,66.8c-2.7,0-5.2-0.4-7.3-1.1c-2.1-0.8-3.9-1.8-5.3-3.2c-1.4-1.4-2.5-3.1-3.3-5
		c-0.8-2-1.1-4.1-1.1-6.4c0-2,0.4-3.8,1.3-5.6c0.9-1.8,2.1-3.4,3.6-4.7c1.5-1.4,3.4-2.5,5.5-3.3s4.5-1.2,7-1.2
		c2.7,0,5.1,0.5,7.2,1.4c2.1,0.9,3.9,2.1,5.3,3.7c1.4,1.5,2.5,3.2,3.3,5.1s1.1,3.8,1.1,5.7c0,2.1-0.4,4-1.3,5.7
		c-0.9,1.8-2.1,3.3-3.7,4.7c-1.6,1.3-3.4,2.4-5.5,3.1C206.9,66.4,204.6,66.8,202.2,66.8z M185.2,94.8c0-2,0.4-3.8,1.3-5.6
		c0.9-1.8,2.1-3.4,3.6-4.7c1.5-1.4,3.4-2.5,5.5-3.3s4.5-1.2,7-1.2c2.7,0,5.1,0.5,7.2,1.4c2.1,0.9,3.9,2.1,5.3,3.7
		c1.4,1.5,2.5,3.2,3.3,5.1s1.1,3.8,1.1,5.7c0,2.1-0.4,4-1.3,5.7c-0.9,1.8-2.1,3.3-3.7,4.7c-1.6,1.3-3.4,2.4-5.5,3.1
		c-2.1,0.8-4.4,1.2-6.8,1.2c-2.7,0-5.2-0.4-7.3-1.1c-2.1-0.8-3.9-1.8-5.3-3.2c-1.4-1.4-2.5-3.1-3.3-5
		C185.6,99.3,185.2,97.2,185.2,94.8z"/>
	<path id="XMLID_6_" class="st0" d="M234.2,69.4c0-5.8,1.1-11.1,3.3-16c2.2-4.9,5.2-9,9.1-12.6s8.5-6.2,13.7-8.2
		c5.3-2,11-2.9,17.1-2.9c3.2,0,6.6,0.4,10.1,1.1c3.5,0.7,7,1.8,10.3,3.3c2.1,0.9,3.8,1.9,5.3,2.9c1.5,1.1,2.2,2.3,2.2,3.7
		c0,1-0.3,1.7-0.8,2.2c-0.6,0.5-1.2,0.8-1.9,0.8c-0.6,0-1.2-0.1-1.8-0.4c-0.6-0.3-1.3-0.7-2.1-1.3c-1-0.9-2.1-1.8-3.3-2.5
		c-1.2-0.7-2.5-1.4-4-1.9c-2.3-0.9-4.6-1.5-6.9-2c-2.2-0.4-4.9-0.7-7.8-0.7c-1.3,0-2.4,0-3.5,0.1c-1.1,0.1-2.1,0.2-3,0.4v68.9
		c1.3,0.2,2.5,0.4,3.8,0.5c1.3,0.1,2.4,0.1,3.3,0.1c2.2,0,4.4-0.2,6.6-0.5c2.2-0.4,4.2-0.9,6.2-1.6c2-0.7,3.8-1.5,5.5-2.4
		c1.7-0.9,3.2-2,4.5-3.1c1-0.9,1.8-1.5,2.5-1.8c0.6-0.3,1.3-0.5,2.1-0.5c0.4,0,0.9,0.2,1.4,0.6c0.5,0.4,0.8,1,0.8,1.9
		c0,0.9-0.4,1.8-1.1,2.7c-0.7,0.9-1.9,2-3.5,3.2c-3.8,2.5-7.7,4.3-11.8,5.4s-8.6,1.6-13.6,1.6c-6.4,0-12.3-1-17.6-3
		s-9.8-4.9-13.5-8.5s-6.6-8-8.6-13.1C235.3,80.9,234.2,75.4,234.2,69.4z"/>
	<path id="XMLID_8_" class="st0" d="M323.6,5.6h31.5v55.9l30.8-22.3c1.4-1.1,2.7-2.1,3.9-3.2c1.2-1.1,2.4-2.2,3.5-3.5
		c1.5-1.8,3-2.7,4.5-2.7c0.9,0,1.6,0.3,2.1,0.8c0.5,0.5,0.7,1.2,0.7,1.9c0,0.4-0.1,0.9-0.3,1.4c-0.2,0.5-0.5,1-1.1,1.6
		c-0.5,0.6-1.3,1.3-2.2,2.1c-1,0.8-2.2,1.8-3.8,2.9l-13.8,10.6l27,58.3h-32.7l-18.7-41.3v41.3h-31.5V5.6z"/>
</g>
<g id="XMLID_75_">
	<g id="XMLID_76_">
		<defs>
			<rect id="XMLID_77_" x="81.2" y="22.8" width="90" height="89.4"/>
		</defs>
		<clipPath id="XMLID_19_">
			<use xlink:href="#XMLID_77_"  style="overflow:visible;"/>
		</clipPath>
		<g id="XMLID_78_" class="st1">
			<defs>
				<rect id="XMLID_79_" x="81.2" y="22.8" width="90" height="89.4"/>
			</defs>
			<clipPath id="XMLID_20_">
				<use xlink:href="#XMLID_79_"  style="overflow:visible;"/>
			</clipPath>
			<path id="XMLID_81_" class="st2" d="M128.1,26.4c-0.4,0-0.8,0-1.3,0c-0.5,0-1.1,0-1.6,0v3v3.4h2.8v-3.4
				c20.6,0.7,37.1,17.6,37.1,38.3c0,21.2-17.2,38.3-38.3,38.3c-21.2,0-38.3-17.2-38.3-38.3c0-7.9,2.4-15.2,6.5-21.3l-2.5-1.6
				c-4.4,6.6-6.9,14.4-6.9,22.9c0,22.8,18.5,41.3,41.3,41.3c9.1,0,17.4-2.9,24.3-7.9c10.3-7.5,17.1-19.7,17.1-33.5
				C168.1,45.3,150.3,27,128.1,26.4"/>
			<polygon id="XMLID_80_" class="st2" points="128.1,36 125.2,36 125.2,66.5 128.1,66.5 			"/>
		</g>
	</g>
</g>
<g id="XMLID_2_">
</g>
<g id="XMLID_13_">
</g>
<g id="XMLID_14_">
</g>
<g id="XMLID_15_">
</g>
<g id="XMLID_16_">
</g>
<g id="XMLID_17_">
</g>
</svg>
