<?xml version="1.0" standalone="no"?>
<!DOCTYPE svg PUBLIC "-//W3C//DTD SVG 20010904//EN"
 "https://www.w3.org/TR/2001/REC-SVG-20010904/DTD/svg10.dtd">
<svg version="1.0" xmlns="https://www.w3.org/2000/svg"
 width="946.000000pt" height="946.000000pt" viewBox="0 0 946.000000 946.000000"
 preserveAspectRatio="xMidYMid meet">
<metadata>
Created by potrace 1.11, written by Peter Selinger 2001-2013
</metadata>
<g transform="translate(0.000000,946.000000) scale(0.100000,-0.100000)"
fill="#000000" stroke="none">
<path d="M4410 9339 c-989 -67 -1938 -453 -2695 -1099 -141 -120 -395 -374
-515 -515 -541 -635 -911 -1424 -1044 -2230 -51 -303 -60 -427 -60 -785 0
-350 9 -479 55 -760 217 -1323 1005 -2493 2154 -3197 1169 -717 2604 -878
3911 -438 1171 394 2150 1260 2690 2380 225 466 360 932 431 1490 26 202 26
848 0 1050 -71 558 -203 1015 -427 1480 -343 716 -855 1320 -1519 1794 -839
599 -1922 901 -2981 830z m545 -79 c429 -24 816 -97 1215 -230 1221 -407 2228
-1332 2738 -2515 657 -1525 433 -3294 -582 -4594 -1335 -1712 -3663 -2252
-5601 -1301 -1339 657 -2276 1932 -2499 3400 -39 258 -50 405 -50 690 0 285
11 432 50 690 171 1123 765 2151 1657 2865 743 596 1650 943 2600 994 208 12
273 12 472 1z"/>
<path d="M5682 8931 c-47 -30 -72 -77 -72 -136 0 -70 27 -116 125 -212 94 -92
125 -142 125 -205 0 -92 -72 -150 -189 -150 -78 -1 -114 14 -161 68 -46 53
-70 110 -70 172 0 44 -3 53 -16 50 -17 -3 -64 -108 -64 -142 0 -34 129 -149
215 -192 66 -32 85 -37 148 -38 87 0 155 31 210 95 41 47 52 94 42 172 -11 87
-45 147 -116 208 -96 82 -126 115 -139 154 -10 30 -9 41 7 71 10 19 30 43 45
51 23 14 34 15 82 4 98 -22 149 -74 171 -174 3 -16 11 -27 18 -24 17 5 52 118
41 134 -5 8 -54 35 -109 60 -87 40 -111 47 -180 50 -68 4 -85 1 -113 -16z"/>
<path d="M3450 8896 c-97 -29 -136 -47 -186 -84 -106 -78 -96 -221 19 -281 40
-20 68 -25 176 -31 144 -8 199 -26 243 -79 57 -67 41 -149 -46 -229 -55 -51
-82 -62 -144 -62 -61 0 -161 47 -191 89 -23 32 -51 41 -51 16 0 -17 39 -126
51 -141 14 -17 138 -25 225 -14 187 24 294 128 294 288 0 68 -21 113 -74 158
-82 71 -106 79 -256 80 -145 1 -183 11 -214 56 -18 26 -21 80 -5 109 15 30
126 79 175 79 31 0 55 -9 93 -35 28 -19 53 -35 56 -35 12 0 3 38 -20 88 -28
61 -32 61 -145 28z"/>
<path d="M4578 8829 c-43 -39 -78 -76 -78 -82 1 -7 34 -47 73 -90 l73 -77 84
78 84 79 -74 81 c-41 45 -77 82 -80 82 -3 0 -40 -32 -82 -71z"/>
<path d="M6375 8728 c-2 -7 -6 -25 -9 -40 -3 -16 -9 -39 -12 -53 -6 -22 -3
-25 20 -25 15 0 39 9 55 21 l27 20 58 -21 c31 -12 76 -36 99 -54 75 -57 77
-51 -78 -337 -75 -140 -148 -266 -162 -280 -13 -15 -38 -29 -54 -33 -47 -9
-35 -32 25 -45 30 -7 72 -23 92 -37 20 -14 42 -23 49 -20 8 3 14 30 17 73 3
65 9 78 122 288 146 270 156 285 182 285 26 0 133 -64 179 -108 31 -30 35 -40
35 -83 0 -33 4 -49 13 -49 15 0 67 101 66 128 0 28 -325 217 -549 320 -137 63
-168 72 -175 50z"/>
<path d="M2480 8454 c-227 -170 -249 -203 -250 -359 0 -85 4 -108 24 -152 25
-53 88 -122 188 -206 67 -56 113 -126 103 -157 -4 -12 -18 -26 -31 -32 -29
-13 -31 -34 -5 -43 48 -15 141 61 141 116 0 13 -18 55 -39 92 l-40 67 32 24
c53 39 78 49 90 37 6 -6 20 -11 30 -11 17 0 19 5 14 34 -6 36 11 60 61 85 33
17 45 4 78 -82 37 -96 43 -103 82 -83 17 9 47 16 67 16 52 0 54 22 6 76 -74
85 -256 369 -320 500 -34 71 -66 136 -70 144 -17 32 -48 19 -161 -66z m181
-227 c65 -99 119 -188 119 -198 0 -23 -28 -52 -69 -73 -28 -15 -31 -15 -60 10
-17 14 -35 23 -40 19 -6 -3 -7 -27 -4 -53 5 -46 3 -50 -31 -80 -45 -39 -51
-37 -129 47 -145 157 -163 327 -45 438 51 48 107 83 124 76 9 -3 69 -87 135
-186z"/>
<path d="M7374 8134 c-8 -32 -103 -176 -173 -264 -97 -120 -261 -299 -281
-305 -11 -4 -20 -12 -20 -20 0 -18 48 -55 70 -55 12 0 26 -17 40 -45 42 -86
114 -125 232 -125 52 0 77 6 124 30 69 34 163 113 222 185 104 128 112 135
151 135 20 0 47 -9 61 -20 50 -39 70 -19 40 39 -25 50 -64 71 -127 71 -73 0
-143 -46 -214 -140 -134 -179 -265 -254 -359 -205 -32 17 -80 80 -80 106 0 18
111 154 265 324 60 66 126 139 147 162 21 24 38 49 38 57 0 16 -99 96 -118 96
-6 0 -15 -12 -18 -26z"/>
<path d="M4717 8095 c-20 -12 -32 -13 -46 -5 -29 15 -92 12 -112 -6 -13 -12
-22 -13 -38 -5 -31 17 -86 13 -112 -7 -20 -17 -25 -17 -51 -4 -34 17 -74 9
-104 -19 -14 -13 -24 -17 -29 -10 -11 18 -89 13 -111 -7 -16 -15 -31 -18 -75
-14 -51 4 -58 2 -77 -23 -18 -23 -24 -25 -43 -15 -29 16 -84 4 -106 -23 -15
-18 -26 -21 -65 -19 -40 3 -52 -1 -72 -22 -20 -19 -35 -24 -72 -23 -40 0 -51
-4 -72 -28 -20 -24 -31 -29 -64 -26 -34 2 -44 -2 -72 -32 -25 -27 -38 -34 -58
-30 -34 6 -86 -22 -93 -50 -5 -19 -11 -22 -41 -19 -40 5 -81 -18 -94 -52 -6
-18 -14 -22 -33 -19 -34 7 -82 -21 -96 -55 -10 -23 -17 -28 -40 -24 -33 5 -91
-39 -91 -69 0 -15 -7 -19 -34 -19 -40 0 -81 -30 -90 -65 -5 -20 -13 -25 -37
-25 -36 0 -79 -39 -79 -72 0 -20 -5 -23 -37 -24 -39 -1 -83 -39 -83 -73 0 -12
-13 -22 -40 -30 -43 -13 -70 -43 -70 -78 0 -18 -6 -23 -25 -23 -36 0 -75 -42
-75 -80 0 -24 -4 -30 -21 -30 -11 0 -29 -5 -41 -11 -22 -12 -52 -74 -43 -90 4
-5 -8 -12 -25 -15 -38 -8 -70 -47 -70 -85 0 -22 -6 -30 -25 -35 -35 -9 -65
-50 -65 -90 0 -26 -4 -34 -18 -34 -30 0 -65 -46 -66 -85 -1 -28 -6 -37 -29
-46 -33 -14 -61 -62 -53 -94 4 -17 0 -25 -19 -33 -36 -16 -58 -56 -53 -96 3
-30 0 -36 -19 -41 -28 -7 -56 -59 -50 -93 4 -20 -3 -33 -30 -58 -30 -28 -34
-38 -32 -72 3 -33 -2 -44 -26 -65 -26 -22 -30 -32 -29 -74 1 -35 -4 -51 -17
-61 -24 -17 -42 -73 -31 -102 7 -18 2 -28 -20 -50 -29 -29 -38 -79 -19 -109 7
-10 2 -20 -14 -33 -29 -23 -39 -65 -25 -103 9 -23 8 -30 -4 -37 -25 -14 -40
-75 -26 -108 11 -25 9 -33 -9 -56 -23 -29 -27 -74 -10 -105 8 -16 7 -25 -5
-38 -24 -27 -30 -74 -13 -107 14 -27 13 -31 -4 -53 -23 -28 -24 -62 -5 -99 12
-24 12 -30 0 -47 -19 -25 -18 -85 2 -113 14 -20 14 -24 0 -44 -21 -30 -20 -66
3 -104 16 -26 17 -33 5 -49 -24 -32 -13 -96 20 -117 8 -5 7 -13 -2 -28 -19
-32 -15 -84 11 -111 20 -22 21 -28 9 -49 -16 -31 -8 -78 18 -106 17 -17 19
-26 10 -49 -13 -35 3 -91 31 -105 15 -9 17 -15 9 -30 -18 -34 -11 -70 20 -101
25 -25 28 -34 20 -55 -14 -35 -3 -70 30 -97 21 -18 25 -28 18 -41 -14 -26 0
-73 31 -99 23 -19 27 -29 23 -60 -5 -42 16 -82 47 -92 16 -5 19 -12 15 -33 -8
-38 10 -79 43 -99 21 -14 27 -25 25 -45 -4 -36 23 -86 51 -93 19 -5 22 -13 22
-47 0 -32 6 -45 28 -64 16 -13 34 -24 40 -24 8 0 12 -15 12 -39 0 -44 23 -76
61 -85 20 -5 24 -13 24 -42 0 -40 36 -84 70 -84 15 0 20 -6 20 -25 0 -51 39
-95 84 -95 8 0 13 -13 14 -31 1 -41 37 -79 74 -79 25 0 28 -3 28 -33 0 -41 35
-77 73 -77 22 0 27 -4 27 -26 0 -34 50 -84 84 -84 20 0 26 -5 26 -21 0 -32 53
-79 89 -79 26 0 31 -4 31 -23 0 -30 37 -65 78 -73 24 -5 36 -15 46 -39 15 -35
63 -61 96 -52 15 4 20 0 20 -14 0 -33 44 -69 85 -69 28 0 37 -5 45 -24 12 -33
48 -56 87 -56 26 0 36 -6 47 -29 18 -34 34 -41 87 -41 27 0 39 -4 39 -14 0
-27 50 -56 96 -56 24 0 44 -4 44 -10 0 -27 41 -50 89 -50 40 0 51 -4 56 -19 8
-25 58 -45 95 -38 23 5 35 1 59 -23 30 -30 71 -39 99 -21 9 5 23 -2 43 -22 27
-26 35 -29 76 -24 35 4 49 1 64 -14 25 -25 67 -34 100 -22 23 9 31 8 44 -8 23
-25 70 -33 105 -19 25 10 32 9 51 -9 25 -23 77 -28 111 -10 13 7 23 7 27 2 20
-32 85 -42 116 -19 16 12 23 11 49 -5 37 -23 62 -24 99 -4 26 13 31 13 50 0
27 -19 77 -19 104 0 18 13 24 13 52 -1 36 -18 92 -12 111 11 11 13 15 13 33 0
30 -21 66 -19 106 6 24 14 37 17 44 10 18 -18 82 -13 110 10 21 16 31 18 46
10 32 -17 68 -13 97 13 24 20 32 22 61 13 26 -8 41 -7 68 6 19 9 35 21 35 27
0 6 18 7 45 3 51 -6 91 9 100 38 5 14 10 15 34 6 36 -13 76 -3 102 27 17 19
28 23 54 19 37 -6 91 18 99 45 5 14 14 17 46 14 44 -4 85 15 94 46 5 14 14 17
47 14 32 -3 46 1 65 19 13 12 24 28 24 36 0 9 14 13 41 13 50 0 77 14 89 46 8
19 17 24 43 24 38 0 82 29 92 60 5 15 15 20 39 20 41 0 86 34 86 64 0 19 4 22
24 19 34 -7 86 23 98 58 6 19 17 29 29 29 38 0 77 29 89 65 10 29 16 35 39 35
35 0 81 44 81 76 0 17 6 24 20 24 49 0 90 41 90 90 0 15 7 20 28 20 35 0 69
34 78 78 4 22 12 32 24 32 44 0 80 41 80 90 0 13 7 20 19 20 33 0 71 45 71 85
0 29 4 35 20 35 34 0 70 44 70 85 0 25 4 35 16 35 8 0 29 14 46 30 25 25 29
37 26 65 -3 28 -1 35 13 35 10 0 29 14 44 32 20 24 26 40 23 65 -3 23 0 33 9
33 28 0 63 48 63 85 0 29 8 43 36 70 32 30 36 39 32 75 -3 32 0 41 14 46 31 9
50 50 46 94 -3 32 0 41 14 46 28 9 51 61 44 99 -5 26 -2 36 12 47 31 21 44 57
37 95 -5 29 -2 39 21 61 24 24 26 32 21 80 -3 30 -2 52 4 52 5 0 17 16 26 35
13 27 14 42 6 68 -9 29 -7 37 13 61 26 29 30 65 13 97 -8 15 -6 25 10 46 22
27 28 87 12 112 -6 9 -2 25 10 45 22 37 24 75 5 101 -12 17 -12 22 5 44 23 29
25 79 3 109 -15 21 -15 25 0 41 20 22 21 89 2 117 -12 17 -12 22 0 39 20 27
17 78 -5 106 -17 22 -17 27 -5 44 20 27 17 78 -7 108 -16 21 -18 31 -10 46 17
32 13 83 -9 106 -17 18 -18 25 -8 51 13 37 5 77 -22 104 -16 16 -18 25 -10 40
18 34 11 70 -19 100 -18 19 -25 33 -20 42 19 29 9 79 -19 108 -22 21 -26 32
-19 45 14 26 -1 82 -28 103 -20 16 -23 25 -18 60 5 37 2 45 -28 74 -27 27 -32
40 -31 73 2 42 -9 64 -43 82 -15 9 -19 20 -16 52 2 32 -3 46 -23 66 -14 14
-31 25 -39 25 -9 0 -12 10 -9 34 5 41 -10 71 -46 94 -21 13 -27 25 -28 54 -1
42 -17 66 -51 79 -16 6 -23 17 -23 34 0 43 -28 85 -60 92 -27 5 -30 10 -30 43
0 39 -26 72 -67 85 -17 4 -23 14 -23 34 0 35 -32 77 -64 85 -17 4 -25 15 -30
40 -7 37 -46 76 -76 76 -12 0 -20 11 -24 35 -8 39 -47 75 -82 75 -19 0 -24 5
-24 24 0 35 -36 74 -75 82 -24 4 -35 12 -35 24 0 30 -39 69 -76 76 -25 5 -36
13 -40 30 -8 33 -50 64 -85 64 -18 0 -29 5 -29 14 0 8 -12 28 -26 45 -20 25
-34 31 -64 31 -34 0 -38 3 -43 30 -7 34 -56 64 -93 57 -15 -3 -24 0 -24 9 0 7
-11 25 -24 41 -19 22 -32 28 -65 28 -30 0 -43 4 -47 17 -9 30 -54 58 -94 58
-30 0 -39 5 -48 25 -14 30 -56 49 -95 41 -22 -5 -30 -1 -39 19 -13 29 -59 49
-97 42 -23 -5 -32 -1 -49 22 -23 31 -64 44 -98 31 -17 -7 -26 -3 -44 22 -20
28 -26 30 -73 26 -44 -3 -55 0 -70 19 -21 26 -77 39 -105 24 -16 -8 -24 -6
-42 14 -18 19 -34 25 -66 25 -24 0 -45 -4 -49 -9 -3 -5 -16 1 -30 15 -25 25
-85 33 -114 15 -10 -7 -24 -2 -44 15 -32 27 -60 30 -99 10 -24 -13 -28 -12
-44 5 -19 21 -82 26 -115 8 -16 -8 -25 -7 -38 5 -23 21 -94 21 -111 1 -12 -14
-15 -14 -30 0 -26 23 -80 28 -113 10z m-65 -42 c53 -48 -10 -126 -66 -82 -31
24 -33 52 -6 79 24 24 47 25 72 3z m152 1 c32 -31 7 -94 -37 -94 -27 0 -57 28
-57 53 0 48 61 74 94 41z m148 -1 c44 -40 -5 -118 -57 -91 -39 21 -47 59 -18
90 20 22 51 23 75 1z m-443 -19 c42 -53 -20 -115 -74 -72 -30 24 -32 51 -5 78
27 27 55 25 79 -6z m591 6 c27 -27 25 -55 -6 -79 -55 -43 -115 28 -67 81 21
24 48 23 73 -2z m-734 -25 c14 -21 15 -31 6 -51 -14 -30 -33 -38 -67 -30 -62
16 -49 106 15 106 21 0 35 -8 46 -25z m891 -1 c15 -24 15 -29 2 -53 -27 -49
-101 -33 -101 22 0 59 66 80 99 31z m-1047 -14 c27 -27 25 -55 -6 -79 -55 -43
-115 28 -67 81 21 24 48 23 73 -2z m1189 -6 c42 -53 -20 -115 -74 -72 -30 24
-32 51 -5 78 27 27 55 25 79 -6z m-1337 -21 c53 -48 -10 -126 -66 -82 -31 24
-33 52 -6 79 24 24 47 25 72 3z m1476 1 c26 -18 29 -56 6 -78 -52 -53 -127 21
-77 76 20 22 42 23 71 2z m-803 -44 c26 -9 41 -8 70 4 33 14 39 14 58 1 27
-19 77 -19 102 -1 17 12 22 12 44 -5 26 -21 72 -25 102 -8 16 8 25 7 38 -5 25
-22 72 -29 101 -14 21 12 27 11 42 -4 24 -24 66 -33 98 -21 22 8 31 6 54 -14
28 -24 79 -31 105 -14 10 7 20 2 33 -14 22 -28 58 -38 92 -25 22 8 30 5 56
-22 27 -27 36 -30 71 -25 34 4 43 1 69 -25 26 -25 37 -29 68 -26 31 4 41 0 64
-25 24 -25 34 -29 73 -25 28 2 45 -1 45 -8 0 -26 49 -56 89 -56 23 0 41 -4 41
-9 0 -5 11 -21 25 -34 18 -18 35 -25 65 -25 26 0 40 -4 40 -13 0 -25 49 -60
85 -61 28 -1 37 -6 47 -30 13 -32 68 -60 99 -51 15 5 19 2 19 -15 0 -31 44
-70 79 -70 24 0 32 -5 37 -25 8 -34 50 -65 85 -65 22 0 29 -5 29 -19 0 -31 38
-70 75 -77 26 -5 35 -11 35 -26 0 -25 53 -78 78 -78 13 0 22 -9 27 -27 9 -39
44 -73 74 -73 22 0 26 -5 28 -32 3 -38 38 -78 70 -78 19 0 23 -5 23 -29 0 -35
31 -77 65 -85 19 -5 25 -13 25 -35 0 -35 32 -77 65 -85 20 -5 25 -13 25 -37 0
-42 14 -64 50 -79 25 -11 30 -18 30 -48 0 -37 31 -82 57 -82 8 0 13 -13 13
-39 0 -43 31 -91 59 -91 14 0 16 -7 13 -36 -5 -42 11 -78 42 -92 18 -8 21 -16
18 -46 -5 -40 16 -81 45 -90 15 -5 17 -15 15 -54 -3 -44 -1 -52 24 -71 24 -19
27 -28 25 -69 -2 -39 2 -51 22 -70 20 -19 24 -30 20 -65 -4 -33 0 -48 19 -72
18 -24 22 -39 20 -77 -3 -40 0 -51 21 -72 14 -14 21 -28 16 -31 -18 -12 -10
-94 11 -115 16 -16 18 -25 10 -40 -16 -30 -12 -75 11 -104 16 -20 19 -30 10
-39 -16 -16 -13 -79 6 -106 13 -19 14 -28 5 -42 -17 -26 -15 -80 3 -106 13
-19 13 -24 0 -50 -19 -35 -19 -57 0 -92 12 -25 12 -31 0 -47 -17 -22 -19 -77
-5 -105 8 -14 7 -25 -5 -41 -17 -26 -20 -80 -5 -109 8 -15 7 -23 -5 -35 -22
-23 -30 -64 -17 -98 10 -26 9 -33 -9 -53 -18 -18 -21 -31 -17 -74 4 -42 2 -55
-14 -71 -16 -16 -19 -30 -16 -71 3 -43 -1 -55 -20 -75 -20 -19 -23 -31 -20
-69 3 -39 -1 -51 -20 -70 -20 -20 -23 -32 -20 -73 1 -28 0 -50 -4 -50 -24 0
-48 -43 -48 -84 0 -36 -6 -50 -31 -75 -26 -27 -30 -37 -27 -71 2 -22 0 -40 -5
-40 -4 0 -19 -11 -32 -25 -18 -18 -25 -35 -25 -65 0 -22 -4 -40 -9 -40 -4 0
-20 -12 -35 -26 -19 -20 -26 -37 -26 -65 0 -22 -5 -39 -10 -39 -6 0 -22 -11
-35 -25 -18 -18 -25 -35 -25 -65 0 -31 -4 -40 -17 -40 -32 0 -63 -41 -63 -82
0 -29 -4 -38 -17 -38 -37 -1 -73 -48 -73 -94 0 -18 -5 -26 -18 -26 -33 0 -62
-30 -68 -70 -5 -33 -11 -40 -36 -45 -31 -7 -53 -33 -63 -77 -5 -19 -15 -29
-37 -33 -31 -7 -68 -55 -68 -87 0 -13 -8 -18 -25 -18 -33 0 -75 -42 -75 -75 0
-21 -4 -25 -30 -25 -36 0 -80 -39 -80 -70 0 -13 -7 -20 -20 -20 -38 0 -78 -28
-90 -64 -7 -21 -16 -33 -24 -30 -33 13 -95 -32 -96 -68 0 -14 -8 -18 -33 -18
-39 0 -75 -23 -87 -56 -8 -19 -17 -24 -45 -24 -38 0 -85 -35 -85 -63 0 -10 -8
-13 -25 -9 -36 6 -82 -16 -96 -47 -10 -23 -17 -26 -48 -23 -38 4 -91 -27 -91
-53 0 -10 -11 -12 -40 -8 -35 5 -43 2 -73 -28 -28 -29 -40 -33 -71 -31 -40 4
-86 -19 -86 -42 0 -10 -13 -12 -49 -8 -42 4 -53 1 -73 -20 -20 -19 -32 -23
-71 -20 -38 3 -50 0 -69 -20 -20 -19 -32 -23 -75 -20 -42 3 -55 0 -73 -18 -15
-15 -27 -19 -43 -14 -38 12 -79 6 -101 -15 -15 -14 -26 -17 -36 -11 -27 17
-85 11 -109 -11 -17 -16 -26 -18 -34 -10 -16 16 -89 13 -116 -5 -17 -12 -26
-13 -34 -5 -16 16 -89 14 -113 -3 -17 -12 -22 -12 -39 0 -24 18 -76 18 -100 0
-17 -12 -22 -12 -39 0 -24 17 -97 19 -113 3 -8 -8 -17 -7 -34 5 -26 18 -104
22 -114 6 -4 -6 -16 -3 -32 10 -27 21 -87 27 -113 10 -10 -6 -21 -3 -37 11
-21 21 -79 29 -102 15 -6 -4 -24 3 -40 15 -22 16 -39 20 -77 17 -40 -3 -52 0
-72 20 -20 21 -31 24 -68 19 -39 -4 -49 -1 -70 20 -20 19 -33 24 -67 22 -35
-2 -47 2 -70 25 -24 24 -35 27 -73 24 -35 -2 -45 0 -50 15 -8 27 -62 50 -101
44 -24 -4 -33 -2 -33 8 0 27 -52 57 -92 53 -32 -3 -38 0 -43 19 -7 30 -60 57
-96 49 -24 -4 -29 -2 -29 14 0 27 -47 60 -86 60 -19 0 -34 4 -34 9 0 5 -12 23
-26 40 -19 23 -34 31 -59 31 -27 0 -35 5 -45 30 -14 34 -62 64 -90 57 -13 -3
-20 3 -25 22 -10 39 -34 61 -77 67 -29 5 -38 11 -38 26 0 30 -45 68 -80 68
-26 0 -30 4 -30 25 0 33 -42 75 -73 75 -20 0 -26 6 -31 35 -7 36 -46 75 -76
75 -12 0 -20 11 -24 35 -7 37 -46 75 -77 75 -14 0 -19 7 -19 30 0 36 -39 80
-70 80 -16 0 -20 6 -20 35 0 40 -36 85 -68 85 -14 0 -18 8 -18 35 0 39 -36 85
-66 85 -14 0 -17 5 -13 23 9 34 -11 76 -45 95 -25 14 -30 23 -30 55 0 37 -34
87 -60 87 -5 0 -10 19 -10 42 0 42 -29 88 -55 88 -7 0 -10 11 -7 30 6 45 -6
79 -32 91 -21 10 -24 18 -22 59 1 49 -22 90 -50 90 -10 0 -11 6 -3 27 13 35 3
79 -25 100 -18 15 -21 26 -18 65 3 40 0 51 -22 73 -22 22 -24 29 -15 52 13 34
5 67 -22 94 -17 17 -19 25 -9 53 12 36 3 73 -24 95 -11 10 -13 18 -6 31 16 31
11 86 -10 113 -13 16 -16 28 -10 32 16 10 12 88 -6 114 -12 17 -13 26 -5 34
16 16 14 89 -3 112 -12 17 -12 23 0 47 18 35 18 68 -2 96 -15 21 -15 25 0 41
18 20 21 83 5 112 -8 16 -7 25 5 38 17 19 21 87 7 110 -7 10 -3 23 10 39 21
27 25 72 9 102 -7 13 -6 21 5 30 27 22 38 77 23 108 -13 26 -13 29 8 45 27 20
38 64 25 99 -8 22 -6 30 15 49 21 20 25 32 23 71 -2 39 2 53 21 73 18 19 25
38 25 70 0 32 6 50 25 70 18 19 25 37 25 68 0 32 6 48 28 69 21 22 27 36 27
73 0 25 5 45 10 45 26 0 50 41 50 85 0 32 4 45 14 45 25 0 56 50 56 90 0 32 4
39 26 44 27 7 58 63 52 94 -2 11 7 22 25 29 29 13 62 74 53 99 -3 9 4 16 20
20 33 8 64 50 64 85 0 20 5 29 16 29 28 0 74 56 74 89 0 26 4 31 24 31 30 0
76 52 76 86 0 19 5 24 24 24 28 0 76 51 76 81 0 12 7 19 19 19 29 0 81 48 81
75 0 17 7 24 32 29 41 8 78 43 78 73 0 19 5 23 31 23 33 0 89 46 89 74 0 11 9
16 29 16 35 0 77 31 85 64 4 16 11 23 20 20 25 -9 86 24 99 53 7 18 18 27 29
25 31 -6 87 25 94 52 5 22 12 26 44 26 39 0 90 31 90 55 0 9 12 14 38 13 47 0
78 15 87 42 5 16 15 20 52 20 37 0 50 5 71 28 23 24 33 28 64 24 31 -3 42 1
68 26 25 26 35 29 68 25 33 -4 44 -1 73 25 28 24 38 28 58 21 30 -12 59 -3 91
27 18 17 29 20 40 14 26 -17 68 -11 97 14 20 17 34 22 44 15 27 -17 79 -10
102 14 20 19 26 21 48 9 29 -15 76 -8 101 15 15 13 23 14 44 5 36 -17 68 -15
95 7 20 16 26 16 48 5 37 -19 75 -17 102 5 13 11 25 16 27 11 2 -5 18 -14 37
-20z m-813 3 c22 -20 23 -51 1 -75 -31 -35 -93 -10 -93 38 0 48 55 70 92 37z
m1768 2 c19 -22 15 -67 -6 -82 -28 -20 -66 -12 -83 18 -13 24 -13 29 2 53 20
30 67 36 87 11z m-1910 -45 c24 -24 25 -38 4 -68 -36 -51 -117 -8 -95 51 16
41 59 49 91 17z m2050 0 c24 -24 25 -38 4 -68 -36 -51 -122 -5 -93 50 23 43
57 50 89 18z m-2190 -50 c24 -24 25 -38 4 -68 -29 -42 -104 -17 -104 35 0 20
38 53 60 53 11 0 29 -9 40 -20z m2330 0 c24 -24 25 -38 4 -68 -35 -51 -120 -2
-92 52 22 41 57 47 88 16z m-2473 -54 c24 -21 26 -27 18 -52 -6 -18 -21 -33
-39 -39 -25 -8 -31 -6 -51 17 -27 31 -24 61 8 83 28 20 31 19 64 -9z m2593 14
c31 -17 43 -46 29 -72 -23 -43 -57 -50 -89 -18 -26 26 -25 46 5 75 27 28 29
29 55 15z m-2726 -76 c32 -31 7 -94 -37 -94 -27 0 -57 28 -57 53 0 48 61 74
94 41z m2880 0 c50 -49 -24 -124 -76 -77 -36 33 -13 93 37 93 13 0 31 -7 39
-16z m-3006 -72 c18 -23 15 -49 -8 -72 -24 -24 -38 -25 -68 -4 -30 20 -30 68
0 88 25 18 56 13 76 -12z m3129 13 c32 -22 35 -52 8 -83 -20 -23 -26 -25 -51
-17 -18 6 -33 21 -39 39 -8 25 -6 31 18 52 33 28 36 29 64 9z m-3265 -82 c34
-31 11 -93 -35 -93 -27 0 -57 28 -57 53 0 48 56 73 92 40z m3394 9 c39 -26 31
-87 -13 -98 -32 -8 -51 1 -65 30 -21 47 36 97 78 68z m-3510 -101 c16 -32 -1
-69 -34 -78 -31 -8 -54 6 -66 40 -21 59 73 94 100 38z m3646 12 c22 -20 23
-51 1 -75 -31 -35 -93 -10 -93 38 0 48 55 70 92 37z m-3784 -79 c42 -29 17
-104 -35 -104 -22 0 -53 38 -53 64 0 24 32 56 55 56 6 0 21 -7 33 -16z m3900
0 c42 -29 17 -104 -35 -104 -20 0 -53 38 -53 60 0 22 33 60 53 60 7 0 23 -7
35 -16z m-4020 -90 c42 -29 17 -104 -35 -104 -20 0 -53 38 -53 60 0 22 33 60
53 60 7 0 23 -7 35 -16z m4140 0 c12 -8 22 -26 22 -40 0 -27 -32 -64 -55 -64
-23 0 -55 37 -55 64 0 24 32 56 55 56 6 0 21 -7 33 -16z m-4242 -109 c29 -45
-7 -94 -59 -81 -31 7 -49 45 -34 72 23 42 68 47 93 9z m4371 -1 c15 -24 15
-29 2 -53 -11 -20 -22 -26 -49 -26 -27 0 -38 6 -49 26 -13 24 -13 29 2 53 12
18 26 26 47 26 21 0 35 -8 47 -26z m-4477 -106 c24 -44 -13 -87 -64 -74 -44
11 -52 71 -12 99 22 15 60 2 76 -25z m4580 12 c24 -24 25 -38 4 -68 -29 -42
-104 -17 -104 35 0 20 38 53 60 53 11 0 29 -9 40 -20z m-4702 -96 c48 -33 8
-117 -48 -99 -45 14 -51 82 -8 103 31 14 30 14 56 -4z m4803 -5 c27 -27 22
-69 -12 -88 -24 -13 -29 -13 -53 2 -32 21 -34 59 -6 87 25 25 45 25 71 -1z
m-4903 -105 c48 -33 8 -117 -48 -99 -45 14 -51 87 -7 105 30 12 30 12 55 -6z
m5000 0 c52 -36 4 -122 -54 -96 -13 7 -27 19 -30 27 -10 25 5 65 29 75 30 12
30 12 55 -6z m-5088 -124 c24 -24 25 -38 4 -68 -29 -42 -104 -17 -104 35 0 20
38 53 60 53 11 0 29 -9 40 -20z m5199 -11 c13 -24 13 -29 -2 -53 -33 -49 -99
-28 -99 31 0 55 74 71 101 22z m-5283 -114 c21 -33 6 -71 -31 -81 -34 -8 -53
0 -67 30 -16 36 11 76 52 76 21 0 35 -8 46 -25z m5371 -1 c15 -24 15 -29 2
-53 -28 -50 -101 -33 -101 24 0 55 68 75 99 29z m-5465 -111 c22 -20 23 -56 2
-77 -52 -53 -127 21 -77 76 20 22 51 23 75 1z m5540 0 c53 -48 -10 -126 -66
-82 -31 24 -33 52 -6 79 24 24 47 25 72 3z m-5618 -129 c50 -49 -24 -124 -76
-77 -36 33 -13 93 37 93 13 0 31 -7 39 -16z m5700 0 c32 -31 7 -94 -37 -94
-27 0 -57 28 -57 53 0 48 61 74 94 41z m-5768 -139 c19 -28 11 -60 -18 -76
-51 -27 -105 29 -73 77 21 33 69 33 91 -1z m5850 0 c32 -49 -22 -104 -74 -76
-29 16 -37 48 -18 76 23 34 70 34 92 0z m-5922 -127 c20 -29 20 -47 -1 -70
-18 -20 -63 -24 -81 -6 -17 17 -15 58 5 80 22 25 59 23 77 -4z m5972 14 c6 -4
16 -16 22 -28 28 -54 -57 -103 -92 -52 -21 30 -20 44 4 68 21 21 47 25 66 12z
m-6030 -157 c19 -28 11 -60 -18 -76 -29 -15 -63 -4 -77 27 -27 60 58 105 95
49z m6110 0 c19 -28 11 -60 -18 -76 -29 -15 -63 -4 -77 27 -27 60 58 105 95
49z m-6168 -133 c34 -44 -13 -107 -64 -84 -30 14 -38 33 -30 67 11 43 65 52
94 17z m6210 12 c48 -33 8 -117 -48 -99 -45 14 -51 82 -8 103 31 14 30 14 56
-4z m-6260 -152 c33 -41 -7 -103 -55 -86 -34 12 -48 35 -40 66 11 44 66 55 95
20z m6320 5 c19 -15 14 -62 -8 -82 -38 -35 -99 6 -87 57 11 41 58 53 95 25z
m-6362 -152 c14 -21 15 -31 6 -51 -14 -30 -33 -38 -67 -30 -31 8 -47 43 -32
71 22 43 68 48 93 10z m6404 5 c24 -24 25 -38 4 -68 -22 -32 -73 -27 -93 9
-13 24 -13 29 2 53 21 32 59 34 87 6z m-6452 -136 c32 -22 30 -69 -4 -91 -24
-15 -29 -15 -53 -2 -34 19 -39 61 -12 88 25 25 39 26 69 5z m6480 0 c42 -29
17 -104 -35 -104 -20 0 -53 38 -53 60 0 22 33 60 53 60 7 0 23 -7 35 -16z
m-6506 -151 c36 -33 13 -93 -37 -93 -49 0 -72 55 -38 92 20 22 51 23 75 1z
m6540 0 c20 -18 24 -63 6 -81 -28 -28 -98 -1 -98 37 0 27 30 61 52 61 12 0 30
-7 40 -17z m-6556 -158 c32 -49 -22 -104 -74 -76 -29 16 -37 48 -18 76 23 34
70 34 92 0z m6590 0 c14 -21 15 -31 6 -51 -7 -13 -19 -27 -27 -30 -27 -11 -65
6 -76 33 -23 61 61 103 97 48z m-6611 -145 c41 -46 -29 -116 -75 -75 -22 20
-27 64 -8 83 19 19 63 14 83 -8z m6631 -9 c25 -49 -26 -98 -75 -72 -30 16 -38
57 -15 82 25 28 74 22 90 -10z m-6632 -154 c15 -23 -8 -65 -39 -73 -60 -15
-90 76 -35 103 27 13 54 3 74 -30z m6631 18 c14 -13 25 -28 25 -33 0 -19 -42
-62 -61 -62 -23 0 -59 34 -59 55 0 18 44 65 60 65 6 0 22 -11 35 -25z m-6650
-150 c31 -30 31 -37 1 -72 -21 -24 -27 -26 -52 -18 -18 6 -33 21 -39 39 -8 25
-6 31 18 52 35 30 42 30 72 -1z m6660 -5 c41 -46 -29 -116 -75 -75 -22 20 -27
64 -8 83 19 19 63 14 83 -8z m-6641 -163 c15 -23 -8 -65 -39 -73 -60 -15 -90
76 -35 103 27 13 54 3 74 -30z m6642 7 c13 -18 13 -27 3 -46 -23 -43 -57 -50
-89 -18 -26 26 -25 46 4 75 28 28 60 24 82 -11z m-6661 -126 c48 -22 41 -91
-11 -104 -55 -14 -89 68 -42 100 27 19 21 19 53 4z m6640 -13 c31 -30 31 -37
1 -72 -21 -24 -27 -26 -52 -18 -18 6 -33 21 -39 39 -8 25 -6 31 18 52 35 30
42 30 72 -1z m-6611 -146 c32 -25 33 -49 2 -78 -29 -27 -58 -22 -82 14 -17 26
-8 56 24 74 24 14 26 14 56 -10z m6593 -1 c29 -28 29 -49 -1 -77 -29 -27 -58
-22 -82 14 -17 26 -8 56 24 74 25 15 33 13 59 -11z m-6569 -144 c26 -18 29
-56 6 -78 -52 -53 -127 21 -77 76 20 22 42 23 71 2z m6544 -1 c53 -48 -10
-126 -66 -82 -31 24 -33 52 -6 79 24 24 47 25 72 3z m-6510 -150 c34 -31 11
-93 -35 -93 -27 0 -57 28 -57 53 0 48 56 73 92 40z m6482 1 c32 -31 7 -94 -37
-94 -27 0 -57 28 -57 53 0 48 61 74 94 41z m-6443 -145 c26 -26 21 -57 -13
-82 -25 -19 -29 -19 -51 -4 -36 23 -40 55 -12 83 30 29 49 30 76 3z m6412 -10
c15 -21 17 -31 8 -48 -19 -34 -48 -45 -76 -27 -36 24 -41 53 -14 82 28 30 56
28 82 -7z m-6365 -137 c33 -41 -7 -103 -55 -86 -34 12 -48 35 -40 66 11 44 66
55 95 20z m6320 5 c19 -14 14 -62 -8 -82 -38 -35 -99 7 -86 59 10 39 58 51 94
23z m-6274 -143 c50 -49 -24 -124 -76 -77 -36 33 -13 93 37 93 13 0 31 -7 39
-16z m6226 -3 c14 -28 12 -52 -7 -73 -31 -34 -93 -11 -93 35 0 50 78 79 100
38z m-6175 -136 c14 -13 25 -31 25 -40 0 -21 -36 -55 -59 -55 -19 0 -61 43
-61 62 0 13 47 58 60 58 6 0 22 -11 35 -25z m6110 0 c14 -13 25 -31 25 -40 0
-21 -36 -55 -59 -55 -19 0 -61 43 -61 62 0 13 47 58 60 58 6 0 22 -11 35 -25z
m-6045 -135 c27 -27 25 -55 -6 -79 -55 -43 -115 28 -67 81 21 24 48 23 73 -2z
m5993 -12 c19 -25 19 -29 4 -51 -23 -36 -55 -40 -83 -12 -29 30 -30 49 -3 76
26 26 57 21 82 -13z m-5926 -122 c24 -21 26 -27 18 -52 -6 -18 -21 -33 -39
-39 -25 -8 -31 -6 -52 18 -30 35 -30 42 1 72 30 31 37 31 72 1z m5848 -1 c14
-13 25 -30 25 -36 0 -19 -41 -59 -61 -59 -17 0 -59 44 -59 62 0 13 47 58 60
58 6 0 22 -11 35 -25z m-5777 -121 c32 -22 30 -69 -4 -91 -24 -15 -29 -15 -53
-2 -34 19 -39 61 -12 88 25 25 39 26 69 5z m5700 0 c42 -29 17 -104 -35 -104
-20 0 -53 38 -53 60 0 22 33 60 53 60 7 0 23 -7 35 -16z m-5616 -131 c36 -33
13 -93 -37 -93 -49 0 -72 55 -38 92 20 22 51 23 75 1z m5540 0 c20 -18 24 -63
6 -81 -29 -29 -98 -1 -98 40 0 23 34 58 57 58 9 0 25 -7 35 -17z m-5453 -129
c12 -15 21 -31 21 -36 0 -13 -47 -58 -60 -58 -13 0 -60 45 -60 58 0 19 42 62
60 62 10 0 28 -12 39 -26z m5371 6 c26 -26 25 -54 -2 -80 -26 -24 -37 -25 -65
-5 -32 23 -35 54 -8 81 29 29 49 30 75 4z m-5280 -120 c11 -11 20 -27 20 -35
0 -18 -44 -65 -60 -65 -13 0 -60 45 -60 58 0 19 42 62 61 62 10 0 28 -9 39
-20z m5190 0 c27 -27 25 -55 -6 -79 -34 -27 -40 -26 -69 4 -30 29 -31 35 -4
69 24 31 52 33 79 6z m-5090 -119 c14 -28 12 -52 -7 -73 -31 -34 -93 -11 -93
35 0 50 78 79 100 38z m4994 3 c50 -49 -24 -124 -76 -77 -36 33 -13 93 37 93
13 0 31 -7 39 -16z m-4896 -106 c30 -30 1 -98 -41 -98 -27 0 -57 28 -57 53 0
45 67 76 98 45z m4796 -4 c50 -49 -24 -124 -76 -77 -36 33 -13 93 37 93 13 0
31 -7 39 -16z m-4693 -105 c26 -26 21 -57 -13 -82 -25 -19 -28 -19 -52 -3 -30
19 -35 60 -9 88 21 24 48 23 74 -3z m4588 -5 c12 -15 21 -31 21 -36 0 -13 -47
-58 -60 -58 -16 0 -60 46 -60 63 0 20 38 57 60 57 10 0 28 -12 39 -26z m-4479
-94 c32 -32 25 -66 -18 -89 -55 -29 -101 57 -50 93 30 21 44 20 68 -4z m4373
-11 c15 -21 17 -31 8 -48 -19 -34 -48 -45 -76 -27 -36 24 -41 53 -14 82 28 30
56 28 82 -7z m-4259 -85 c33 -33 9 -94 -36 -94 -28 0 -58 28 -58 53 0 48 61
74 94 41z m4138 -1 c34 -31 11 -93 -35 -93 -27 0 -57 28 -57 53 0 48 56 73 92
40z m-4020 -90 c34 -31 11 -93 -35 -93 -27 0 -57 28 -57 53 0 48 56 73 92 40z
m3902 1 c33 -33 9 -94 -36 -94 -28 0 -58 28 -58 53 0 48 61 74 94 41z m-3786
-80 c42 -29 17 -104 -35 -104 -20 0 -53 38 -53 60 0 22 33 60 53 60 7 0 23 -7
35 -16z m3662 -4 c11 -11 20 -29 20 -40 0 -22 -33 -60 -53 -60 -27 0 -57 31
-57 60 0 18 8 34 22 44 30 21 44 20 68 -4z m-3530 -80 c11 -11 20 -29 20 -40
0 -22 -33 -60 -53 -60 -27 0 -57 31 -57 60 0 18 8 34 22 44 30 21 44 20 68 -4z
m3398 4 c42 -29 17 -104 -35 -104 -20 0 -53 38 -53 60 0 22 33 60 53 60 7 0
23 -7 35 -16z m-3266 -81 c22 -20 23 -51 1 -75 -45 -50 -116 11 -83 73 13 24
57 25 82 2z m3154 -12 c25 -49 -26 -98 -75 -72 -30 16 -38 57 -15 82 25 28 74
22 90 -10z m-3028 -47 c42 -29 17 -104 -35 -104 -20 0 -53 38 -53 60 0 22 33
60 53 60 7 0 23 -7 35 -16z m2883 -5 c27 -27 22 -69 -12 -88 -24 -13 -29 -13
-53 2 -32 21 -34 59 -6 87 25 25 45 25 71 -1z m-2727 -82 c15 -23 -8 -65 -40
-73 -22 -6 -32 -2 -50 20 -27 31 -21 64 17 83 26 13 53 2 73 -30z m2601 9 c32
-48 -22 -104 -73 -77 -29 16 -37 48 -18 76 22 34 70 34 91 1z m-2475 -46 c26
-26 25 -46 -5 -75 -30 -31 -40 -31 -71 0 -18 19 -23 31 -19 48 15 47 61 61 95
27z m2330 0 c27 -27 25 -54 -5 -78 -54 -43 -116 19 -74 72 24 31 52 33 79 6z
m-2190 -50 c24 -24 25 -38 4 -68 -36 -51 -122 -5 -93 50 23 43 57 50 89 18z
m2050 0 c24 -24 25 -38 4 -68 -36 -51 -122 -5 -93 50 23 43 57 50 89 18z
m-1910 -40 c11 -11 20 -29 20 -40 0 -22 -33 -60 -53 -60 -27 0 -57 31 -57 60
0 18 8 34 22 44 30 21 44 20 68 -4z m1765 -5 c14 -13 25 -29 25 -35 0 -16 -47
-60 -65 -60 -20 0 -55 36 -55 57 0 21 38 63 57 63 8 0 25 -11 38 -25z m-1616
-41 c43 -55 -28 -115 -81 -67 -24 21 -23 48 2 73 27 27 55 25 79 -6z m1473 9
c35 -31 10 -93 -38 -93 -48 0 -70 55 -37 92 20 22 51 23 75 1z m-1330 -30 c35
-31 10 -93 -38 -93 -48 0 -70 55 -37 92 20 22 51 23 75 1z m1174 9 c6 -4 16
-16 22 -28 28 -54 -57 -103 -92 -52 -21 30 -20 44 4 68 21 21 47 25 66 12z
m-1027 -38 c12 -15 21 -31 21 -36 0 -13 -47 -58 -60 -58 -14 0 -60 46 -60 60
0 16 47 60 64 60 8 0 24 -12 35 -26z m888 4 c29 -28 29 -49 -1 -77 -29 -27
-58 -22 -82 14 -17 26 -8 56 24 74 25 15 33 13 59 -11z m-751 -6 c6 -4 16 -16
22 -28 28 -54 -57 -103 -92 -52 -21 30 -20 44 4 68 21 21 47 25 66 12z m606
-9 c37 -33 10 -93 -43 -93 -45 0 -65 56 -32 92 20 22 51 23 75 1z m-450 -10
c20 -18 24 -63 6 -81 -30 -30 -98 -1 -98 41 0 48 56 73 92 40z m146 1 c42 -29
17 -104 -35 -104 -20 0 -53 38 -53 60 0 22 33 60 53 60 7 0 23 -7 35 -16z
m154 -1 c36 -33 13 -93 -37 -93 -49 0 -72 55 -38 92 20 22 51 23 75 1z"/>
<path d="M4734 7740 c-18 -45 -21 -46 -71 -25 -53 22 -62 3 -38 -81 5 -17 -1
-23 -34 -36 -53 -21 -52 -43 2 -69 l44 -21 -16 -44 c-20 -57 -9 -70 42 -49 50
21 52 20 70 -25 11 -28 21 -40 35 -40 14 0 25 12 36 40 9 22 18 40 20 40 2 0
23 -7 47 -15 56 -20 67 -9 46 46 -9 23 -14 45 -12 50 3 4 21 13 40 19 52 17
44 34 -11 26 -26 -3 -54 -6 -63 -6 -42 -1 -45 -17 -11 -62 19 -23 38 -50 44
-57 6 -8 -15 5 -47 28 -32 24 -60 42 -63 39 -2 -3 -9 -31 -14 -63 -5 -32 -11
-60 -14 -62 -2 -3 -7 25 -11 61 -4 36 -12 66 -17 66 -6 0 -27 -13 -48 -30 -51
-41 -58 -38 -21 9 48 60 48 59 -64 79 l-50 8 73 8 c39 5 72 13 72 19 0 5 -19
35 -42 65 l-41 56 47 -34 c26 -19 50 -38 52 -42 3 -5 11 -8 19 -8 9 0 16 21
21 68 8 74 16 67 31 -26 l8 -54 47 36 c26 20 50 36 53 36 3 0 -10 -21 -30 -47
-19 -25 -32 -50 -28 -54 10 -9 143 -24 143 -15 0 3 -18 15 -40 26 l-39 20 14
40 c8 22 12 47 9 55 -7 18 -4 18 -47 0 -50 -21 -52 -20 -72 25 -12 26 -25 40
-37 40 -12 0 -24 -13 -34 -40z"/>
<path d="M3583 7543 c-8 -3 -13 -24 -13 -54 l0 -49 -49 0 c-62 0 -71 -18 -31
-63 l29 -34 -31 -37 c-17 -21 -27 -41 -22 -46 5 -5 29 -10 54 -12 l45 -3 3
-47 c4 -58 20 -65 63 -28 l34 28 31 -29 c42 -40 64 -31 64 26 0 47 9 55 65 55
47 0 52 16 17 59 l-30 38 29 30 c41 40 31 63 -26 63 l-42 0 -6 46 c-7 66 -19
72 -63 35 l-38 -31 -31 30 c-17 17 -33 30 -35 29 -3 0 -11 -3 -17 -6z m146
-80 c-10 -37 -17 -69 -14 -71 2 -3 31 2 65 11 33 8 60 13 60 11 0 -1 -22 -15
-50 -31 -27 -15 -50 -33 -50 -38 0 -6 22 -24 50 -40 27 -16 48 -31 46 -33 -2
-2 -30 4 -62 12 -32 8 -60 14 -62 12 -2 -2 4 -30 12 -62 8 -32 14 -60 12 -62
-2 -1 -18 23 -36 54 -17 31 -35 53 -40 48 -4 -5 -22 -31 -39 -59 -33 -53 -34
-49 -10 44 5 19 7 37 5 39 -2 2 -30 -4 -62 -12 -32 -8 -59 -14 -61 -12 -2 1
19 15 47 30 27 15 50 33 50 39 0 7 -23 25 -50 41 -27 17 -48 31 -47 33 2 1 29
-5 61 -13 32 -8 60 -13 63 -11 2 3 -3 31 -11 63 -8 32 -14 60 -12 62 2 2 18
-22 36 -53 17 -30 35 -53 40 -50 5 3 23 30 40 60 17 30 33 55 34 55 2 0 -5
-30 -15 -67z"/>
<path d="M5790 7540 c0 -6 -4 -9 -9 -6 -5 3 -11 -17 -15 -44 l-7 -50 -43 0
c-58 0 -67 -22 -27 -64 l30 -31 -30 -33 c-17 -19 -28 -39 -26 -45 2 -7 24 -13
49 -15 l46 -3 7 -50 c4 -27 11 -52 16 -55 5 -3 26 8 46 25 l37 31 31 -30 c43
-41 65 -32 65 25 0 47 9 55 65 55 47 0 51 14 16 57 l-31 37 30 31 c41 43 32
65 -26 65 l-43 0 -7 50 c-4 27 -10 47 -14 45 -5 -3 -10 -1 -12 5 -2 6 -20 -3
-40 -20 -20 -17 -39 -26 -43 -21 -11 19 -65 52 -65 41z m73 -122 c4 -2 23 22
42 52 39 61 41 59 20 -20 -8 -30 -12 -56 -10 -58 2 -3 31 2 65 11 33 8 60 13
60 12 0 -2 -25 -17 -56 -35 -63 -35 -63 -37 13 -81 55 -33 50 -35 -27 -14 -30
8 -56 12 -58 10 -3 -2 2 -31 11 -65 8 -33 13 -60 12 -60 -2 0 -18 25 -35 55
-17 30 -33 55 -35 55 -2 0 -20 -26 -39 -57 -40 -64 -42 -62 -21 17 8 30 13 56
11 58 -2 2 -30 -4 -62 -12 -32 -8 -59 -14 -61 -13 -1 2 20 16 47 32 28 16 50
34 50 40 0 5 -23 23 -51 38 -28 16 -49 31 -47 33 2 2 30 -4 62 -12 32 -8 60
-14 62 -12 2 2 -3 28 -11 58 -21 78 -19 81 18 23 17 -28 36 -53 40 -55z"/>
<path d="M3589 7087 c-182 -52 -303 -230 -285 -422 7 -73 55 -195 77 -195 7 0
8 7 4 18 -57 137 -47 301 25 400 38 53 97 96 169 123 77 29 195 24 265 -10
145 -71 223 -250 180 -408 -9 -32 10 -29 25 5 73 160 -21 391 -191 467 -73 33
-195 43 -269 22z"/>
<path d="M5840 7084 c-72 -20 -127 -53 -179 -109 -67 -72 -85 -122 -85 -240
-1 -89 2 -106 27 -160 29 -62 64 -108 77 -100 4 2 -3 26 -16 52 -13 27 -27 76
-30 111 -7 67 -8 66 50 62 16 -1 33 4 38 12 7 9 8 7 3 -7 -19 -58 -26 -123
-22 -197 10 -166 26 -276 47 -317 l20 -41 -22 -4 c-13 -3 -49 -7 -81 -9 -70
-5 -103 -26 -134 -87 -16 -31 -23 -61 -22 -100 0 -48 2 -52 11 -30 67 159 82
173 197 184 71 7 106 24 123 62 15 32 3 42 -23 19 -17 -16 -22 -17 -29 -5 -15
23 -28 107 -33 205 -6 102 7 95 16 -9 8 -86 41 -157 79 -170 36 -13 48 0 20
20 -12 8 -29 28 -37 43 -22 43 -54 170 -43 173 5 2 5 15 -1 31 -6 16 -11 42
-11 58 0 24 4 29 23 29 13 0 28 5 35 12 10 10 11 2 6 -35 -8 -55 6 -63 24 -14
20 54 15 75 -20 97 -18 11 -39 20 -45 20 -21 0 -15 -16 10 -28 21 -10 20 -11
-12 -11 -28 -1 -33 -4 -28 -21 3 -10 -1 -24 -9 -31 -12 -9 -14 -5 -13 27 1 39
16 102 18 75 1 -10 12 -5 34 16 17 17 42 36 54 42 27 14 57 67 47 83 -4 7 -10
5 -16 -6 -11 -19 -88 -61 -88 -47 0 5 16 23 36 41 45 39 75 37 86 -7 5 -19 29
-50 59 -77 59 -53 89 -105 89 -156 0 -41 21 -50 53 -22 16 14 17 13 17 -17 0
-30 -36 -81 -58 -81 -4 0 -13 -15 -20 -33 -21 -58 -73 -127 -113 -150 -21 -12
-39 -26 -39 -31 0 -16 72 3 96 25 l23 21 -14 -53 c-24 -97 -25 -109 -16 -109
5 0 19 29 32 65 21 61 39 84 39 50 0 -22 59 -84 100 -105 l38 -19 -6 108 c-5
116 4 244 18 236 13 -8 71 65 98 124 54 118 36 287 -43 393 -96 130 -269 187
-435 142z m88 -146 l3 -78 33 0 33 0 9 73 c9 68 10 72 36 75 38 4 122 -43 164
-92 42 -49 83 -133 86 -178 3 -32 2 -33 -39 -36 -32 -2 -43 -7 -44 -20 0 -9
-7 1 -15 22 -22 60 -62 106 -112 128 -38 17 -60 20 -132 16 -102 -6 -157 -30
-195 -85 -14 -21 -25 -33 -25 -26 0 6 -20 14 -45 17 -52 8 -54 16 -23 84 42
89 171 187 238 180 24 -3 25 -6 28 -80z m154 -154 c25 -17 52 -49 67 -79 22
-43 26 -63 26 -140 0 -49 -6 -144 -13 -210 -9 -80 -10 -136 -4 -167 5 -27 6
-48 2 -48 -4 0 -19 18 -34 39 -44 64 -56 231 -16 231 52 0 70 98 33 181 -23
51 -57 87 -135 146 -31 23 -62 52 -68 64 -12 21 -11 22 44 17 41 -3 68 -13 98
-34z m208 -149 c13 -16 -8 -88 -44 -150 -15 -25 -28 -45 -29 -45 -1 0 -2 49
-2 108 l-1 107 33 -3 c18 -2 37 -10 43 -17z m-181 -86 c-14 -27 -19 -24 -19
12 0 27 2 30 15 19 11 -9 12 -17 4 -31z"/>
<path d="M2500 4690 l0 -2260 1120 0 1120 0 0 2260 0 2260 -350 0 c-316 0
-349 -2 -343 -16 5 -14 31 -15 247 -10 133 4 283 9 334 12 l92 6 0 -254 c0
-368 -30 -4211 -33 -4213 -5 -4 -2169 -26 -2173 -22 -5 4 63 4418 68 4422 2 1
160 6 351 11 328 8 349 10 363 28 8 11 14 23 14 28 0 4 -182 8 -405 8 l-405 0
0 -2260z"/>
<path d="M4790 4697 l0 -2254 557 -6 c306 -4 805 -7 1110 -7 l553 0 0 2260 0
2260 -356 0 c-267 0 -353 -3 -348 -12 5 -8 95 -9 351 -4 l344 6 -6 -252 c-3
-139 -19 -1135 -36 -2212 -16 -1078 -31 -1961 -32 -1962 -4 -5 -2111 -63
-2115 -59 -4 4 28 4449 32 4453 2 1 174 5 384 9 305 5 382 9 386 20 4 11 -67
13 -409 13 l-415 0 0 -2253z"/>
<path d="M3614 6856 c-62 -29 -117 -92 -145 -165 -23 -62 -49 -186 -49 -235 0
-17 -18 -92 -40 -166 -21 -74 -37 -137 -34 -140 18 -18 91 157 111 265 45 249
76 327 151 379 82 58 223 44 276 -27 36 -50 41 -64 14 -39 -39 36 -94 32 -226
-14 -105 -37 -135 -54 -94 -54 9 0 65 12 123 27 66 16 116 24 133 19 39 -10
66 -60 66 -126 l0 -55 -32 0 c-23 0 -34 -5 -36 -17 -4 -21 37 -25 56 -6 19 19
-15 -89 -46 -145 -30 -56 -84 -107 -113 -107 -11 0 -34 7 -50 16 -39 20 -52 9
-20 -17 57 -47 108 -37 177 35 52 53 92 136 95 194 1 15 5 -5 9 -45 6 -54 19
-97 54 -171 25 -54 46 -108 46 -120 0 -29 17 -37 25 -12 9 29 -2 71 -42 170
-31 75 -37 104 -49 240 -15 173 -23 207 -58 260 -53 80 -195 106 -302 56z"/>
<path d="M6691 6744 c-19 -24 -21 -40 -21 -175 l0 -148 -56 -3 c-65 -3 -88
-25 -104 -94 -15 -61 -12 -260 5 -372 13 -87 34 -468 35 -652 1 -80 17 -44 31
71 13 108 6 363 -16 594 -27 273 -18 377 35 405 21 11 238 35 246 28 1 -2 -2
-21 -7 -43 -6 -22 -14 -179 -19 -350 -13 -483 -38 -626 -147 -845 -67 -132
-68 -136 -67 -210 l2 -75 -20 55 -19 55 27 85 c14 47 41 112 59 145 40 73 78
186 72 217 -3 20 -6 18 -21 -17 -10 -22 -37 -80 -61 -130 -44 -89 -75 -187
-75 -234 0 -52 -9 -12 -18 85 -6 62 -22 136 -40 190 -25 74 -31 111 -36 224
-3 74 -11 153 -16 175 -5 22 -10 72 -10 110 0 90 -14 137 -52 181 -33 37 -115
84 -145 83 -16 0 -16 -1 1 -12 52 -32 116 -102 136 -150 23 -54 32 -125 46
-392 5 -100 13 -151 35 -224 16 -52 34 -134 39 -182 11 -93 60 -256 82 -274
10 -7 13 -31 10 -92 -3 -63 0 -87 12 -105 9 -12 16 -29 15 -38 0 -10 -4 -7
-11 8 -6 12 -15 22 -20 22 -14 0 -9 -34 12 -73 21 -38 27 -83 11 -72 -5 3 -13
20 -16 37 -4 18 -17 45 -28 60 -15 20 -21 48 -25 105 -4 72 -9 87 -67 198 -78
149 -121 269 -136 382 -6 49 -22 134 -35 191 -13 57 -24 121 -24 142 0 49 -15
60 -24 18 -8 -43 -41 -76 -88 -89 -52 -14 -40 -28 19 -22 45 4 47 3 29 -11
-11 -9 -31 -16 -44 -16 -15 0 -22 -5 -19 -12 2 -8 17 -12 36 -10 34 2 43 -13
11 -21 -11 -3 -20 -10 -20 -16 0 -6 9 -11 20 -11 24 0 24 -3 3 -43 -28 -52
-21 -277 7 -277 6 0 10 37 10 84 0 57 7 106 21 152 34 112 38 109 59 -53 12
-91 40 -207 65 -268 10 -22 46 -88 82 -148 l66 -107 -23 -98 c-13 -53 -29
-100 -36 -104 -6 -4 -15 -20 -18 -34 -4 -15 -9 -24 -12 -22 -2 3 5 67 16 142
22 148 25 206 11 190 -17 -19 -62 -279 -68 -399 -7 -133 3 -159 27 -77 l14 47
3 -45 c5 -91 26 -240 33 -245 11 -7 17 42 29 280 14 256 15 258 51 190 15 -29
31 -67 35 -84 8 -37 39 -58 61 -40 16 13 18 56 5 93 -6 13 -6 26 -2 28 5 2 13
86 20 188 13 225 14 263 2 255 -6 -3 14 45 43 107 129 272 140 336 141 793 1
327 6 393 31 458 4 12 1 17 -10 17 -9 0 -16 -4 -16 -10 0 -6 -9 -6 -26 0 -14
6 -43 10 -65 10 l-39 0 0 175 c0 101 -4 175 -9 175 -5 0 -19 -12 -30 -26z"/>
<path d="M3611 6647 c-22 -28 -41 -102 -51 -204 -7 -73 -20 -136 -44 -204 -33
-98 -34 -116 -4 -81 47 53 84 173 96 309 l7 88 78 -1 c42 -1 77 2 77 6 0 4
-17 16 -37 25 -30 15 -45 16 -76 8 -37 -10 -38 -10 -33 12 3 13 9 30 12 39 7
19 -9 21 -25 3z"/>
<path d="M5930 6620 c-22 -14 -11 -18 50 -20 74 -2 74 -2 60 15 -14 17 -86 20
-110 5z"/>
<path d="M5930 6581 c0 -33 82 -41 88 -8 3 14 -4 17 -42 17 -25 0 -46 -4 -46
-9z"/>
<path d="M4400 6576 c0 -3 9 -35 21 -69 27 -78 21 -134 -22 -228 -18 -38 -34
-68 -35 -66 -10 10 -35 176 -30 201 4 16 18 45 32 63 31 41 24 55 -13 27 -37
-28 -63 -82 -63 -133 0 -47 48 -183 62 -175 4 3 8 -11 8 -31 0 -23 4 -34 11
-29 6 3 3 -8 -6 -26 -9 -17 -15 -46 -13 -63 l4 -32 18 42 c10 23 45 67 78 98
63 60 97 120 98 172 0 43 -29 113 -46 113 -11 0 -12 -4 -4 -19 13 -26 12 -100
-3 -132 -17 -37 -117 -146 -117 -128 0 9 17 42 38 75 21 32 44 74 50 93 16 46
15 134 -2 174 -12 30 -66 89 -66 73z"/>
<path d="M3822 6563 c-27 -11 -57 -103 -33 -103 5 0 14 14 21 30 15 36 46 61
66 53 8 -3 14 1 14 11 0 16 -38 21 -68 9z"/>
<path d="M3650 6540 c0 -5 11 -17 24 -25 19 -13 29 -14 45 -5 25 13 27 26 5
34 -25 9 -74 7 -74 -4z"/>
<path d="M6030 6445 l-33 -44 -33 27 c-18 15 -33 33 -33 40 -1 14 -47 16 -56
2 -7 -11 17 -40 34 -40 5 0 23 -11 40 -25 39 -33 73 -25 106 24 48 69 26 84
-25 16z"/>
<path d="M3720 6416 c0 -11 9 -16 26 -16 31 0 28 23 -4 28 -15 2 -22 -2 -22
-12z"/>
<path d="M5848 6399 c-28 -16 -21 -25 20 -24 20 0 49 -3 65 -8 37 -10 35 8 -3
28 -34 17 -58 19 -82 4z"/>
<path d="M4250 6350 c-7 -17 -10 -48 -7 -70 6 -49 93 -191 102 -167 9 23 -11
85 -42 130 -21 31 -28 52 -28 89 0 55 -7 61 -25 18z"/>
<path d="M3698 6363 c-45 -7 -32 -21 25 -28 28 -3 60 -9 70 -11 9 -3 17 -1 17
5 0 21 -64 40 -112 34z"/>
<path d="M5852 6352 c4 -20 55 -29 71 -13 14 14 9 17 -36 24 -32 5 -38 3 -35
-11z"/>
<path d="M5149 6288 c-7 -13 -14 -56 -17 -97 -4 -67 -8 -77 -35 -102 -27 -25
-29 -32 -24 -71 3 -24 26 -83 52 -133 28 -57 45 -103 45 -125 0 -49 26 -204
46 -270 19 -63 69 -166 83 -172 6 -2 0 -60 -14 -143 -21 -131 -23 -156 -10
-143 11 10 73 273 84 353 14 101 26 146 46 170 15 19 16 17 10 -25 -24 -176
-32 -467 -15 -535 9 -37 9 -37 19 103 7 99 11 117 31 135 22 21 22 21 15 2
-13 -30 -19 -485 -7 -485 18 0 23 64 22 288 l-1 222 39 45 39 45 6 -60 c7 -60
32 -125 67 -170 27 -36 35 -19 12 27 -11 21 -32 82 -46 137 -25 93 -25 101
-11 142 8 25 15 55 15 67 1 51 20 -16 50 -172 16 -90 30 -165 30 -167 0 -2 4
-4 9 -4 11 0 3 125 -15 225 -9 56 -10 81 -3 86 7 4 6 16 -5 37 -21 41 -20 46
6 28 53 -38 65 -7 15 39 -24 21 -38 47 -50 91 -23 83 -22 90 13 60 35 -29 85
-41 129 -31 42 9 39 21 -6 30 -45 8 -100 35 -141 70 -35 29 -47 32 -37 8 15
-37 9 -187 -10 -243 -25 -77 -136 -290 -151 -290 -14 0 13 250 42 398 20 95
34 178 32 184 -8 22 -70 -127 -78 -187 -5 -33 -15 -62 -22 -64 -47 -16 -87
-94 -89 -176 -1 -22 -4 -51 -8 -64 -5 -20 -11 -11 -34 55 -33 98 -43 145 -67
307 -16 109 -24 136 -54 185 -19 31 -38 68 -42 82 -6 23 -5 22 20 -7 15 -18
34 -33 41 -33 18 0 65 47 65 65 0 8 4 17 10 20 5 3 17 30 26 60 8 30 20 57 25
60 12 8 12 4 -6 -38 -8 -20 -15 -63 -15 -96 0 -33 -5 -72 -10 -87 -14 -36 -3
-44 21 -15 14 17 19 39 19 81 0 32 7 80 16 108 18 56 14 82 -14 82 -20 0 -52
-29 -52 -48 0 -7 -4 -12 -10 -12 -6 0 -10 31 -10 74 0 71 -1 76 -29 95 -37 27
-47 26 -62 -1z m48 -108 c10 23 11 22 14 -20 4 -45 3 -46 -23 -42 -25 4 -28 8
-28 42 0 21 3 53 8 71 7 32 7 31 12 -21 5 -50 7 -53 17 -30z m-9 -98 c7 -5 15
-26 18 -48 l5 -39 -13 35 c-10 28 -19 36 -43 39 -26 3 -28 4 -10 11 26 11 28
11 43 2z m-27 -51 c12 -12 20 -63 9 -56 -5 3 -10 13 -10 21 0 13 -18 19 -47
15 -7 -1 -13 7 -13 19 0 17 4 19 28 14 15 -4 30 -9 33 -13z"/>
<path d="M4560 6256 c0 -49 -23 -83 -115 -171 -76 -73 -95 -97 -100 -128 -7
-35 3 -66 12 -40 12 32 67 95 119 134 83 63 104 98 104 170 0 33 -4 59 -10 59
-5 0 -10 -11 -10 -24z"/>
<path d="M6660 6219 l0 -62 -38 7 c-38 6 -38 5 -34 -25 4 -25 8 -30 24 -26 46
13 48 6 48 -188 l0 -182 25 0 25 0 0 185 0 185 39 -6 c38 -5 40 -4 39 25 -1
26 -4 28 -27 23 -43 -9 -53 6 -50 69 4 55 4 56 -23 56 -28 0 -28 -1 -28 -61z"/>
<path d="M4215 6227 c-14 -33 4 -86 49 -151 25 -35 46 -69 46 -75 0 -6 5 -11
10 -11 14 0 13 66 -1 93 -6 12 -24 36 -40 52 -16 17 -35 48 -43 70 -11 32 -15
36 -21 22z"/>
<path d="M3756 6204 c-20 -52 18 -93 96 -103 l53 -6 -60 -23 c-107 -42 -207
-39 -364 9 -35 10 -90 19 -123 19 -57 0 -63 -2 -99 -39 -22 -21 -39 -48 -39
-61 0 -12 -9 -33 -20 -47 -11 -15 -20 -41 -20 -61 0 -20 -7 -44 -17 -54 -20
-22 -21 -71 -3 -92 20 -25 30 -19 24 13 -5 23 -1 35 19 55 17 17 25 36 25 57
-1 21 6 38 19 48 11 9 23 32 26 51 9 44 43 80 77 80 15 0 59 -11 100 -25 40
-14 110 -30 155 -37 71 -10 92 -9 151 5 38 10 96 34 129 54 38 23 78 39 110
43 49 6 49 6 24 19 -20 10 -35 10 -64 2 -71 -19 -175 31 -175 84 0 28 -15 33
-24 9z"/>
<path d="M4572 6110 c-13 -29 -40 -64 -64 -82 -128 -102 -183 -173 -176 -221
3 -20 5 -20 20 8 16 30 79 91 173 169 48 40 84 102 85 143 0 40 -15 32 -38
-17z"/>
<path d="M4202 6075 c4 -43 12 -64 37 -95 18 -23 44 -60 57 -83 l24 -42 0 43
c0 50 -8 68 -62 135 -21 27 -38 60 -38 73 0 13 -5 24 -11 24 -8 0 -10 -18 -7
-55z"/>
<path d="M5760 6090 c0 -5 6 -10 14 -10 7 0 30 -13 51 -30 35 -28 100 -41 118
-24 3 3 -24 21 -59 40 -62 33 -124 45 -124 24z"/>
<path d="M5993 6060 c-18 -11 -33 -23 -33 -26 0 -4 15 -3 33 1 17 5 64 11 102
14 39 3 70 11 70 16 0 6 -31 11 -70 13 -56 2 -77 -2 -102 -18z"/>
<path d="M4187 6014 c-4 -4 -7 -26 -7 -49 0 -31 8 -52 30 -81 17 -21 44 -60
62 -86 17 -27 33 -48 34 -48 2 0 4 20 4 44 0 39 -7 53 -49 104 -28 33 -54 74
-58 92 -5 17 -12 28 -16 24z"/>
<path d="M4578 5982 c-15 -22 -61 -66 -103 -96 -75 -56 -131 -120 -141 -163
-10 -40 1 -36 39 13 20 25 71 72 114 103 81 60 127 122 121 163 -3 19 -6 17
-30 -20z"/>
<path d="M2023 5982 c-6 -4 -13 -28 -15 -52 l-3 -45 -48 -3 c-26 -2 -45 -7
-42 -13 4 -5 1 -9 -5 -9 -6 0 4 -18 21 -40 l33 -40 -32 -33 c-39 -40 -31 -57
32 -64 l46 -6 0 -42 c0 -55 22 -66 60 -30 33 31 41 31 79 -1 35 -29 51 -25 51
16 0 46 10 60 42 60 32 0 68 16 68 30 0 5 -13 25 -30 43 l-29 34 29 28 c17 16
30 37 30 47 0 15 -8 18 -50 18 l-50 0 0 49 c0 65 -21 74 -67 29 l-33 -32 -33
32 c-36 35 -37 35 -54 24z m150 -80 c-9 -35 -13 -65 -10 -69 4 -3 27 0 53 6
25 7 48 10 51 8 2 -3 -17 -17 -42 -31 -25 -15 -45 -30 -45 -34 0 -4 24 -22 53
-40 35 -22 44 -32 27 -28 -14 3 -44 8 -67 12 l-42 6 14 -53 c21 -77 18 -81
-16 -21 -17 28 -34 52 -39 52 -5 0 -25 -26 -45 -57 -20 -32 -34 -50 -31 -39
17 53 28 107 22 113 -3 4 -29 1 -58 -5 -28 -7 -53 -10 -55 -8 -3 2 18 17 46
33 28 15 51 31 51 35 0 4 -25 22 -55 40 -30 17 -53 34 -51 36 2 2 29 -4 61
-13 31 -9 59 -14 62 -11 4 3 1 29 -5 58 -7 28 -11 52 -9 54 2 2 16 -19 32 -46
16 -28 32 -50 35 -50 3 0 22 27 40 59 19 33 36 59 37 57 1 -1 -5 -30 -14 -64z"/>
<path d="M7343 5983 c-8 -3 -13 -24 -13 -54 l0 -49 -49 0 c-65 0 -74 -21 -29
-67 l32 -33 -33 -34 c-37 -38 -34 -56 7 -56 61 0 72 -9 72 -56 0 -59 21 -67
63 -26 l31 32 31 -30 c43 -42 65 -32 65 26 l0 44 49 0 c64 0 72 19 30 67 l-31
35 32 33 c43 44 33 65 -31 65 l-49 0 0 51 c0 31 -4 48 -10 44 -5 -3 -10 -1
-10 5 0 6 -18 -4 -40 -21 l-40 -33 -33 31 c-17 17 -38 28 -44 26z m74 -124 c8
-8 21 6 44 45 18 30 35 54 37 52 2 -2 -4 -29 -13 -61 -9 -31 -14 -59 -11 -62
4 -5 39 2 121 23 11 3 -8 -12 -42 -32 -34 -21 -60 -41 -57 -45 2 -4 29 -22 59
-39 30 -17 55 -33 55 -34 0 -2 -29 4 -65 12 -35 9 -67 13 -70 10 -4 -3 1 -32
9 -64 8 -32 14 -59 13 -60 -1 -2 -16 22 -32 52 -16 30 -34 54 -40 54 -6 0 -24
-22 -40 -50 -16 -27 -30 -48 -32 -47 -1 2 5 29 13 61 8 32 14 60 12 62 -2 2
-28 -3 -58 -11 -77 -21 -82 -19 -27 14 75 44 75 45 12 81 -31 18 -55 34 -53
36 2 2 30 -4 62 -12 32 -8 60 -13 63 -11 2 3 -1 25 -7 48 -6 24 -13 53 -16 64
-3 11 8 -2 24 -28 16 -26 33 -52 39 -58z"/>
<path d="M4086 5920 c-35 -116 -201 -348 -292 -409 -56 -37 -113 -41 -159 -11
-16 10 -69 63 -116 117 -84 96 -162 163 -175 150 -4 -4 18 -30 48 -59 30 -29
74 -82 98 -117 91 -135 151 -181 236 -181 86 0 147 52 246 205 79 122 127 231
144 328 10 59 -10 43 -30 -23z"/>
<path d="M3922 5895 c-102 -105 -235 -155 -326 -125 -19 6 -69 33 -110 60 -82
53 -119 74 -153 84 -38 12 -26 -7 23 -38 26 -16 80 -61 121 -99 41 -38 90 -75
109 -83 103 -43 233 20 354 172 56 71 70 95 53 93 -5 0 -36 -29 -71 -64z"/>
<path d="M4600 5897 c0 -26 -62 -96 -116 -132 -105 -70 -154 -125 -154 -172 0
-13 12 -4 40 29 23 26 75 68 117 94 53 34 84 61 104 93 28 44 39 101 19 101
-5 0 -10 -6 -10 -13z"/>
<path d="M4172 5851 c4 -59 -10 -77 -35 -44 -30 38 -35 27 -15 -33 28 -81 18
-122 -43 -187 l-49 -52 32 78 c17 43 28 80 24 84 -8 8 -4 13 -61 -87 -102
-181 -184 -283 -259 -322 -35 -18 -44 -19 -79 -8 -52 15 -122 87 -212 215 -38
55 -85 117 -104 138 -31 35 -135 97 -161 97 -21 0 -8 -16 35 -43 52 -33 140
-127 127 -136 -5 -3 -19 -73 -31 -154 -26 -179 -72 -363 -113 -460 -61 -143
-67 -169 -68 -257 0 -79 -3 -91 -40 -165 -22 -44 -40 -71 -40 -60 0 11 7 31
16 43 9 14 14 38 12 65 -3 37 -6 42 -30 45 -23 3 -32 -4 -57 -44 -17 -26 -40
-76 -52 -111 -28 -85 -36 -74 -10 15 24 80 27 107 9 96 -12 -8 -5 4 69 116 46
71 55 101 108 365 20 99 45 221 56 270 13 58 22 139 25 230 5 173 -8 156 -31
-39 -8 -76 -28 -198 -44 -270 -16 -72 -41 -194 -55 -271 -29 -152 -59 -229
-121 -310 -34 -45 -40 -59 -47 -130 -15 -154 -16 -155 -77 -220 -75 -79 -114
-137 -166 -248 -108 -229 -132 -520 -65 -782 34 -130 116 -288 197 -375 127
-137 245 -192 404 -188 49 2 89 5 89 8 0 3 -33 17 -72 30 -40 14 -65 26 -55
28 18 4 24 22 7 22 -16 0 -11 24 8 41 12 10 31 14 55 11 36 -4 37 -6 37 -44 0
-89 58 26 92 184 20 95 21 123 17 358 -12 694 -3 993 47 1665 28 383 26 352
15 340 -17 -18 -65 -420 -98 -810 -13 -160 -17 -336 -18 -885 -1 -602 -3 -694
-18 -759 -9 -41 -18 -76 -21 -78 -9 -10 -18 685 -13 1022 8 477 31 794 101
1410 13 116 22 212 20 214 -9 9 -15 -10 -34 -105 -11 -54 -18 -79 -15 -54 2
25 7 87 11 139 8 109 3 111 91 -38 118 -200 199 -246 322 -185 62 31 134 113
189 215 20 38 44 69 52 69 8 0 39 18 67 40 50 38 53 38 63 20 7 -14 7 -20 0
-20 -13 0 -13 -80 0 -115 7 -19 7 -24 -1 -19 -8 5 -10 -12 -7 -58 3 -56 10
-74 51 -138 26 -40 47 -81 47 -91 0 -10 5 -21 10 -24 22 -13 10 82 -16 131
-60 112 -73 140 -74 154 0 19 41 -30 79 -93 16 -27 32 -44 35 -39 11 19 -11
92 -41 133 -46 64 -73 113 -73 132 0 23 65 -51 88 -100 17 -35 37 -45 29 -15
-3 9 -8 33 -11 53 -4 20 -20 54 -37 75 -37 47 -63 94 -55 102 9 8 46 -28 79
-78 l29 -45 -5 43 c-4 30 -21 67 -56 119 -68 101 -69 138 -1 53 28 -34 50 -69
50 -76 0 -8 5 -14 10 -14 20 0 10 67 -15 101 -58 79 -85 124 -85 141 0 10 -5
18 -11 18 -7 0 -10 -18 -7 -49z m-815 -633 c-3 -7 -5 -2 -5 12 0 14 2 19 5 13
2 -7 2 -19 0 -25z m-10 -60 c-3 -7 -5 -2 -5 12 0 14 2 19 5 13 2 -7 2 -19 0
-25z m-31 -225 c-14 -109 -31 -257 -38 -330 l-12 -131 -67 -4 -67 -3 31 60
c27 54 30 68 29 144 -2 80 0 88 53 213 30 71 63 158 72 193 9 35 19 63 21 61
2 -2 -8 -93 -22 -203z m-245 -411 c-12 -23 -21 -50 -21 -61 0 -13 -12 -27 -31
-36 -31 -16 -31 -16 -24 7 14 44 46 112 62 130 28 31 37 4 14 -40z m192 -69
c-7 -2 -21 -2 -30 0 -10 3 -4 5 12 5 17 0 24 -2 18 -5z m-76 -9 c-3 -3 -12 -4
-19 -1 -8 3 -5 6 6 6 11 1 17 -2 13 -5z m-47 -14 c-8 -5 -19 -10 -25 -10 -5 0
-3 5 5 10 8 5 20 10 25 10 6 0 3 -5 -5 -10z m118 -52 l-3 -62 -38 -8 c-168
-35 -327 -237 -377 -479 -22 -106 -27 -311 -10 -419 14 -85 53 -211 88 -281
27 -55 27 -56 7 -65 -25 -11 -27 -53 -3 -68 22 -13 35 -1 19 18 -14 17 -7 36
12 35 7 0 31 -24 54 -54 39 -49 40 -53 21 -58 -17 -5 -20 -12 -16 -39 5 -33 5
-32 -49 27 -30 33 -70 85 -89 116 -40 67 -72 140 -53 122 7 -7 22 -13 33 -13
18 0 18 1 2 19 -15 17 -15 20 -1 34 21 21 19 29 -7 25 -12 -2 -28 -13 -34 -26
-10 -21 -13 -18 -28 40 -10 35 -19 70 -22 79 -3 12 2 15 28 11 l33 -5 -20 23
c-19 21 -19 23 -2 35 24 17 21 25 -9 25 -18 0 -28 -7 -32 -22 -5 -19 -7 -16
-14 17 -4 22 -7 57 -7 78 -1 35 0 37 20 27 26 -15 34 -7 20 19 -10 17 -8 23 9
33 11 7 20 16 20 20 0 13 -45 9 -58 -4 -9 -9 -12 4 -12 62 0 58 3 71 12 62 22
-22 39 -14 32 14 -5 20 -2 26 15 31 35 9 24 26 -15 21 -31 -4 -35 -2 -30 16 2
12 8 42 11 69 7 47 18 60 29 32 3 -8 12 -15 21 -15 17 0 20 16 5 25 -13 8 -1
35 17 35 8 0 13 6 10 13 -2 6 -16 11 -31 10 -31 -2 -30 3 7 91 17 41 22 45 28
29 7 -20 37 -38 47 -28 3 2 -1 12 -9 21 -11 14 -10 19 9 34 30 25 28 33 -7 28
-29 -4 -29 -4 -16 21 7 14 25 41 39 60 l26 35 0 -27 c0 -16 8 -30 21 -37 25
-14 36 -6 19 15 -15 18 -6 45 15 45 8 0 15 4 15 9 0 12 -29 22 -43 15 -29 -14
91 90 129 112 38 23 137 63 157 64 4 0 7 -28 5 -62z m-234 -11 c-142 -104
-238 -265 -296 -494 -20 -77 -23 -113 -23 -288 1 -219 13 -293 73 -448 73
-189 214 -328 405 -398 l52 -19 -45 6 c-105 15 -229 83 -313 173 -216 230
-297 625 -202 979 44 164 109 285 214 396 33 35 51 61 43 64 -6 2 -12 8 -12
13 0 4 6 6 14 3 8 -3 24 4 35 15 12 12 21 16 21 11 0 -6 17 -2 38 9 60 32 58
24 -4 -22z m223 -184 c-4 -58 -7 -153 -7 -211 0 -58 -3 -103 -6 -100 -3 4 -11
88 -18 187 -7 99 -15 183 -18 186 -3 4 -19 0 -36 -9 -22 -11 -28 -21 -26 -38
17 -97 64 -400 64 -408 0 -6 -6 -10 -13 -10 -7 0 -50 77 -95 171 -63 132 -79
175 -72 189 26 49 169 148 214 150 18 0 19 -6 13 -107z m-193 -294 c62 -120
83 -168 73 -172 -7 -3 -60 31 -116 74 -57 43 -108 79 -113 79 -6 0 -7 12 -3
28 6 28 67 164 70 160 1 -2 41 -78 89 -169z m-68 -192 c49 -37 62 -52 60 -72
-1 -24 -3 -25 -76 -25 -41 0 -86 -3 -99 -7 l-24 -6 6 92 c4 51 10 97 13 103 4
5 17 -1 33 -15 14 -13 54 -45 87 -70z m244 44 c0 -11 -31 -24 -39 -16 -3 3 1
10 9 15 19 12 30 12 30 1z m-76 -66 c-4 -8 -8 -15 -10 -15 -2 0 -4 7 -4 15 0
8 4 15 10 15 5 0 7 -7 4 -15z m-24 -64 c0 -14 -6 -17 -25 -13 -31 5 -32 19 -2
25 12 2 23 5 25 6 1 0 2 -7 2 -18z m107 -111 c0 -52 -2 -72 -4 -45 -2 28 -8
66 -14 87 -13 42 -3 108 11 73 5 -11 8 -63 7 -115z m-107 30 c0 -19 -28 -28
-43 -13 -5 5 18 23 41 32 1 1 2 -8 2 -19z m-87 -7 c2 -5 7 -19 10 -33 4 -21
-3 -32 -48 -69 -30 -24 -69 -59 -88 -78 l-35 -33 -16 87 c-19 106 -20 120 -3
126 20 8 175 8 180 0z m111 -58 c3 -8 1 -15 -4 -15 -6 0 -10 7 -10 15 0 8 2
15 4 15 2 0 6 -7 10 -15z m43 -57 c-3 -8 -6 -5 -6 6 -1 11 2 17 5 13 3 -3 4
-12 1 -19z m-84 -4 c12 -4 2 -34 -50 -152 -35 -81 -65 -155 -66 -164 -1 -9 -4
-15 -8 -13 -9 6 -79 149 -79 162 0 9 175 173 184 173 3 0 11 -3 19 -6z m94
-66 c-3 -18 -9 -120 -13 -225 -7 -198 -3 -223 32 -223 11 0 14 41 15 223 l1
222 13 -145 c7 -80 16 -184 20 -232 7 -83 6 -88 -12 -88 -40 0 -139 60 -198
120 -33 34 -53 59 -45 56 11 -5 31 33 85 159 55 131 73 165 88 165 16 0 18 -5
14 -32z m-99 -431 c20 -13 50 -28 67 -34 l30 -10 -29 -7 c-25 -6 -28 -11 -24
-41 l4 -34 -37 21 c-20 11 -50 31 -65 44 -24 19 -26 23 -10 24 15 0 16 3 6 15
-10 12 -10 18 0 30 16 19 14 19 58 -8z"/>
<path d="M3198 4375 c-13 -29 3 -55 35 -55 19 0 19 1 3 19 -15 17 -15 20 -1
34 20 21 19 27 -5 27 -12 0 -25 -10 -32 -25z"/>
<path d="M3080 4345 c-18 -22 -4 -65 21 -65 16 0 18 3 10 19 -8 14 -7 22 4 31
8 7 15 16 15 21 0 15 -37 10 -50 -6z"/>
<path d="M5265 5813 c11 -81 26 -126 58 -183 30 -51 32 -53 35 -28 2 15 -3 39
-11 55 -8 15 -27 67 -42 116 -29 95 -50 117 -40 40z"/>
<path d="M4587 5741 c-27 -41 -62 -72 -164 -145 -59 -43 -121 -125 -109 -144
3 -5 32 17 64 49 33 31 78 67 99 78 55 27 131 114 139 157 9 49 1 51 -29 5z"/>
<path d="M5865 5740 c-24 -9 -50 -38 -43 -46 3 -2 18 0 34 6 16 7 49 8 76 5
32 -5 48 -3 48 4 0 6 -6 11 -14 11 -7 0 -19 7 -26 15 -14 16 -43 18 -75 5z"/>
<path d="M6232 5717 c-41 -30 -49 -32 -128 -32 -46 0 -84 -3 -84 -7 0 -13 84
-31 147 -32 57 -1 65 2 92 29 33 35 50 75 29 74 -7 0 -33 -15 -56 -32z"/>
<path d="M4600 5640 c0 -18 -74 -92 -132 -132 -77 -52 -126 -102 -148 -152
-24 -53 -15 -65 18 -23 34 42 80 81 159 136 34 24 73 59 86 79 28 42 45 102
28 102 -6 0 -11 -4 -11 -10z"/>
<path d="M5880 5575 c0 -3 16 -20 36 -37 19 -17 44 -47 54 -67 28 -56 81 -101
126 -108 l39 -6 -65 73 c-109 123 -139 150 -165 150 -14 0 -25 -2 -25 -5z"/>
<path d="M5756 5515 c-30 -28 -46 -64 -46 -106 0 -44 16 -35 29 16 8 31 22 53
46 72 19 15 35 31 35 36 0 16 -39 6 -64 -18z"/>
<path d="M5876 5502 c-25 -41 -30 -242 -7 -256 4 -3 11 48 14 113 4 65 10 126
13 135 6 16 -11 23 -20 8z"/>
<path d="M4567 5465 c-15 -19 -49 -48 -75 -66 -72 -49 -141 -119 -168 -172
-38 -74 -25 -90 19 -23 27 40 58 70 105 100 98 64 135 105 156 174 10 32 -5
27 -37 -13z"/>
<path d="M4050 5453 c0 -4 11 -75 24 -158 13 -82 29 -189 34 -237 6 -47 23
-122 38 -165 41 -117 44 -138 28 -196 -25 -94 -16 -168 27 -213 18 -19 18 -22
4 -34 -22 -18 -19 -77 4 -92 18 -11 19 -21 14 -137 -5 -115 -4 -128 14 -150
12 -15 26 -22 35 -18 13 5 17 31 20 149 l3 144 38 55 c59 87 61 180 2 229 -23
19 -29 6 -11 -29 19 -36 21 -108 4 -148 l-12 -28 -4 30 c-2 17 -7 35 -11 40
-5 6 -5 47 -1 92 10 100 38 166 109 248 57 66 128 199 138 258 7 43 -11 52
-22 10 -10 -45 -79 -153 -140 -223 -80 -90 -97 -134 -104 -255 -6 -93 -7 -98
-21 -77 -8 12 -19 22 -23 22 -11 0 2 -39 23 -70 21 -31 32 -60 22 -60 -4 0
-12 9 -17 19 -6 11 -23 36 -39 56 -32 40 -36 73 -21 210 6 56 3 86 -14 149
-11 44 -19 81 -18 83 4 4 73 -143 81 -172 3 -11 4 12 2 50 -3 54 -11 84 -34
130 -17 33 -33 76 -36 95 -5 27 3 17 34 -45 l39 -80 1 52 c0 42 -8 67 -39 127
-22 41 -43 91 -47 110 -3 20 -10 33 -15 30 -13 -8 -10 -73 5 -116 8 -21 10
-38 5 -38 -5 0 -9 -15 -10 -32 0 -18 -11 21 -24 87 -34 168 -66 294 -76 301
-5 3 -9 2 -9 -3z m227 -1053 c13 0 14 -3 5 -12 -8 -8 -12 -54 -12 -141 0 -83
-4 -126 -10 -122 -6 4 -10 63 -10 146 0 86 -4 139 -10 139 -5 0 -10 -8 -11
-17 0 -12 -2 -13 -6 -5 -3 7 -2 25 2 40 l7 27 14 -27 c8 -16 22 -28 31 -28z"/>
<path d="M4006 5403 c-26 -85 -40 -234 -39 -428 0 -189 3 -227 31 -385 53
-296 96 -675 123 -1060 13 -194 16 -598 5 -687 -10 -77 3 -82 33 -14 40 94 46
146 45 386 -1 346 -49 809 -140 1354 -51 307 -66 508 -52 720 7 121 6 152 -6
114z"/>
<path d="M4572 5358 c-13 -20 -52 -60 -87 -88 -83 -66 -147 -138 -174 -196
-35 -73 -21 -88 20 -24 35 53 76 95 172 173 54 43 100 116 95 149 -3 21 -5 20
-26 -14z"/>
<path d="M3507 5277 c-9 -34 -25 -171 -47 -402 -27 -280 -26 -695 1 -695 5 0
9 48 9 108 0 171 32 769 49 935 7 66 -1 101 -12 54z"/>
<path d="M4045 5020 c2 -157 5 -287 5 -290 1 -3 10 27 21 65 12 44 19 104 19
162 0 96 -25 306 -40 333 -5 8 -7 -106 -5 -270z"/>
<path d="M5510 5262 c0 -92 64 -288 104 -320 22 -17 23 -20 9 -47 -35 -65 12
-211 92 -284 40 -37 65 -51 65 -35 0 3 -18 32 -41 65 -68 101 -102 183 -96
232 5 34 -1 55 -29 116 -20 41 -42 101 -49 135 -27 125 -39 166 -47 166 -4 0
-8 -13 -8 -28z"/>
<path d="M4540 5216 c-16 -25 -66 -83 -109 -130 -76 -82 -141 -187 -141 -228
0 -28 14 -15 49 47 17 30 67 94 112 142 44 49 91 106 104 128 50 87 39 118
-15 41z"/>
<path d="M5880 5201 c0 -12 -6 -21 -15 -21 -8 0 -15 -5 -15 -11 0 -6 12 -9 28
-7 21 2 27 8 27 27 0 13 -6 26 -12 29 -8 2 -13 -5 -13 -17z"/>
<path d="M6264 5057 c-1 -60 -45 -136 -128 -225 -73 -76 -204 -172 -237 -172
-10 0 -19 -4 -19 -10 0 -31 101 11 206 86 70 49 159 143 182 191 21 43 32 42
32 -4 0 -56 -24 -87 -130 -167 -107 -81 -177 -165 -209 -252 -33 -88 -23 -113
16 -39 45 87 116 177 165 211 152 102 188 143 188 216 0 33 -6 54 -18 66 -13
13 -17 29 -14 59 4 39 -10 83 -26 83 -4 0 -7 -19 -8 -43z"/>
<path d="M5691 5044 c19 -99 87 -147 209 -148 65 -1 84 3 140 31 64 31 187
132 163 133 -7 0 -34 -15 -60 -34 -96 -68 -131 -81 -218 -81 -63 0 -89 5 -122
23 -40 21 -83 68 -96 105 -13 36 -24 16 -16 -29z"/>
<path d="M5653 4969 c8 -85 50 -149 120 -185 57 -30 171 -30 211 -1 16 12 10
13 -45 13 -114 -1 -235 77 -261 168 -18 66 -31 68 -25 5z"/>
<path d="M5280 5002 c0 -6 9 -13 20 -17 19 -6 70 -60 70 -74 0 -5 -11 -25 -25
-46 -37 -53 -25 -67 19 -21 32 33 37 44 34 79 -2 33 -9 44 -33 58 -40 23 -85
34 -85 21z"/>
<path d="M5285 4884 c-10 -112 -2 -128 69 -148 31 -9 56 -22 56 -29 0 -7 -16
-28 -35 -47 -19 -19 -35 -42 -35 -52 0 -22 16 -24 23 -3 4 8 24 25 46 39 50
32 60 60 34 95 -14 18 -34 28 -64 33 -59 10 -69 27 -69 120 0 43 -4 78 -9 78
-5 0 -12 -39 -16 -86z"/>
<path d="M1855 4860 c-10 -22 -19 -40 -20 -40 -1 0 -22 7 -46 15 -56 20 -66 9
-46 -48 l15 -44 -47 -23 c-58 -28 -41 -35 49 -20 48 8 68 15 63 23 -4 7 -16
26 -28 42 -40 55 -39 59 10 22 26 -20 52 -37 56 -37 4 0 11 27 15 60 3 33 10
58 14 55 4 -3 11 -30 15 -60 3 -30 10 -55 14 -55 5 0 29 16 55 35 25 20 46 33
46 30 0 -3 -16 -27 -35 -53 -41 -53 -39 -56 53 -67 72 -8 82 4 22 28 l-40 15
15 41 c12 36 12 71 -1 71 -3 0 -21 -7 -41 -15 -48 -20 -48 -20 -68 25 -11 24
-25 40 -35 40 -10 0 -24 -16 -35 -40z"/>
<path d="M7608 4856 l-21 -44 -44 15 c-56 19 -69 9 -48 -40 21 -50 20 -52 -25
-72 -24 -11 -40 -25 -40 -35 0 -10 16 -24 40 -35 22 -10 40 -21 40 -25 0 -4
-7 -25 -16 -45 -13 -31 -13 -39 -2 -46 18 -12 20 -11 62 6 l37 15 19 -45 c11
-25 22 -45 26 -45 8 0 -5 130 -15 148 -5 9 -19 3 -53 -23 -26 -19 -50 -35 -53
-35 -3 0 10 21 30 46 19 26 35 51 35 55 0 4 -27 11 -60 15 -33 4 -60 10 -60
14 0 4 27 10 60 14 33 4 60 12 60 17 0 6 -17 31 -37 56 -40 48 -29 48 37 -1
31 -24 35 -25 41 -9 10 27 22 143 15 143 -4 0 -16 -20 -28 -44z"/>
<path d="M7654 4828 c4 -40 11 -76 14 -80 4 -4 31 11 60 33 28 22 52 37 52 34
0 -3 -16 -27 -35 -52 -19 -25 -35 -49 -35 -53 0 -5 24 -11 53 -15 82 -11 87
-22 13 -29 -36 -4 -66 -12 -66 -18 0 -6 14 -27 30 -48 17 -21 30 -41 30 -44 0
-3 -22 10 -49 29 -40 29 -50 32 -55 20 -9 -25 -19 -145 -12 -145 4 0 15 20 26
45 l19 44 36 -15 c20 -8 45 -12 55 -9 17 6 18 9 4 47 -19 55 -19 54 26 72 27
10 40 22 40 34 0 12 -14 25 -40 37 -22 10 -40 21 -40 25 0 4 7 25 16 45 17 42
7 60 -31 50 -71 -19 -71 -19 -88 24 -9 23 -20 41 -23 41 -4 0 -3 -33 0 -72z"/>
<path d="M6314 4783 c-4 -20 -2 -71 5 -112 6 -42 10 -110 10 -151 l-2 -75 -7
83 c-13 148 -26 116 -33 -80 -7 -196 -18 -309 -43 -453 -8 -49 -22 -132 -29
-183 -15 -94 -32 -140 -67 -178 -22 -25 -11 -39 22 -29 31 10 59 77 87 204 42
200 53 272 64 431 5 85 16 180 24 210 22 90 26 142 15 200 -6 30 -13 81 -16
113 -8 65 -20 74 -30 20z"/>
<path d="M5590 4724 c-16 -42 -11 -105 12 -153 33 -69 150 -180 236 -225 111
-57 116 -41 12 43 -179 147 -248 241 -237 322 6 44 -9 52 -23 13z"/>
<path d="M6676 4699 c11 -31 11 -112 0 -168 -10 -55 7 -48 35 13 24 52 24 92
1 136 -23 41 -49 55 -36 19z"/>
<path d="M1674 4672 c3 -6 22 -16 42 -22 38 -13 38 -14 19 -85 -10 -38 8 -48
50 -31 20 9 41 16 45 16 4 0 15 -18 25 -40 11 -24 25 -40 35 -40 10 0 24 16
35 40 20 45 22 46 72 25 43 -18 40 -18 47 1 3 8 -1 31 -9 51 -8 19 -15 37 -15
39 0 2 18 13 40 24 22 11 40 23 40 26 0 8 -120 -5 -138 -15 -9 -5 -4 -19 23
-54 42 -55 38 -59 -15 -17 -21 17 -43 30 -48 30 -6 0 -14 -27 -18 -60 -4 -33
-10 -60 -14 -60 -4 0 -10 27 -14 60 -4 33 -11 60 -15 60 -4 0 -26 -13 -47 -28
-66 -48 -69 -47 -26 9 23 30 38 57 34 61 -13 12 -156 22 -148 10z"/>
<path d="M6200 4619 c-104 -62 -159 -114 -199 -189 -52 -97 -38 -110 24 -23
38 53 71 83 214 196 55 44 74 68 54 67 -5 -1 -46 -23 -93 -51z"/>
<path d="M5536 4477 c-95 -223 -134 -400 -120 -544 8 -87 24 -97 24 -15 0 106
28 246 89 443 65 210 65 209 54 209 -5 0 -26 -42 -47 -93z"/>
<path d="M3750 4033 c0 -507 14 -1044 30 -1173 5 -43 8 41 8 255 0 176 1 437
3 580 2 304 10 241 28 -235 25 -668 24 -659 32 -595 10 78 13 910 4 995 -4 36
-22 173 -41 305 -18 132 -36 273 -40 313 -16 176 -24 36 -24 -445z"/>
<path d="M6586 4458 c-10 -51 -107 -1754 -101 -1770 8 -21 38 -24 53 -5 6 7
18 131 27 277 49 824 85 1402 91 1453 5 49 4 56 -9 51 -9 -3 -25 -1 -36 5 -18
10 -21 8 -25 -11z"/>
<path d="M5722 4345 c-63 -71 -157 -257 -149 -294 2 -9 20 15 42 57 22 40 66
114 98 163 31 50 57 94 57 100 0 18 -18 8 -48 -26z"/>
<path d="M5973 4303 c-20 -98 7 -354 41 -385 8 -8 11 -38 8 -100 -5 -94 11
-195 34 -225 12 -15 13 1 8 117 -4 98 -2 168 10 257 9 67 16 132 16 144 0 47
-18 1 -35 -90 -11 -55 -21 -88 -25 -80 -12 21 -30 210 -30 309 0 93 -13 119
-27 53z"/>
<path d="M5766 4238 c-13 -46 -32 -110 -41 -143 -22 -81 -40 -133 -88 -245
-46 -108 -70 -190 -56 -190 5 0 15 11 21 25 6 14 14 25 18 25 10 0 30 -137 30
-200 0 -27 -9 -93 -19 -147 -36 -184 -44 -263 -38 -381 5 -94 4 -118 -9 -138
-14 -20 -14 -24 -2 -24 8 0 19 5 26 12 9 9 9 4 2 -23 -9 -32 -27 -52 -83 -91
-14 -9 -38 -42 -55 -71 -30 -53 -82 -97 -115 -97 -12 0 -10 6 8 25 23 23 33
45 19 45 -3 0 -19 -11 -36 -25 -16 -14 -35 -25 -41 -25 -12 1 12 22 43 40 13
7 13 12 0 36 -12 21 -12 28 -2 31 6 3 37 46 67 96 52 87 55 98 67 194 10 85 9
123 -5 244 -10 80 -17 218 -17 310 0 126 -4 175 -15 202 -8 20 -15 57 -15 82
0 25 -4 45 -10 45 -18 0 -23 -54 -12 -122 7 -38 12 -132 12 -211 0 -78 9 -227
20 -331 25 -240 21 -275 -51 -395 -28 -47 -62 -98 -75 -112 -31 -32 -47 -129
-21 -129 8 0 17 -7 21 -15 9 -25 68 -18 119 15 35 22 54 43 73 85 22 46 34 58
70 74 64 29 69 47 53 183 -7 62 -12 141 -11 176 3 62 7 86 52 282 29 129 25
251 -12 331 l-26 56 39 79 c21 43 50 119 64 168 16 56 36 102 56 127 49 62
112 225 80 205 -5 -4 -26 -35 -46 -71 -20 -36 -38 -65 -39 -65 -2 0 0 17 4 38
17 82 19 102 10 102 -5 0 -20 -37 -34 -82z"/>
<path d="M5493 3793 c1 -21 -3 -46 -7 -55 -13 -28 21 -22 40 7 19 30 16 53
-13 72 -20 14 -21 13 -20 -24z"/>
<path d="M2023 3783 c-8 -3 -13 -23 -13 -48 0 -46 -11 -55 -73 -55 -16 0 -26
-4 -22 -10 3 -5 1 -10 -6 -10 -7 0 1 -15 19 -33 18 -18 32 -37 32 -42 0 -5
-14 -24 -32 -42 -18 -18 -26 -33 -19 -33 7 0 10 -4 7 -9 -3 -5 16 -12 44 -16
l50 -7 0 -43 c0 -58 22 -66 67 -23 l33 32 34 -33 c39 -38 56 -34 56 12 0 45 9
54 58 62 56 9 63 28 23 69 l-31 32 30 29 c16 16 30 37 30 47 0 15 -8 18 -50
18 l-50 0 0 49 c0 65 -21 74 -67 29 l-33 -32 -33 32 c-18 18 -35 32 -37 31 -3
0 -11 -3 -17 -6z m149 -80 c-9 -34 -14 -65 -10 -68 3 -4 26 -1 49 5 24 6 53
14 64 16 11 3 -4 -10 -34 -28 -30 -18 -56 -38 -58 -43 -2 -6 19 -24 47 -40 27
-16 48 -31 46 -33 -2 -2 -30 4 -62 12 -32 8 -59 14 -61 13 -1 -2 4 -27 12 -57
21 -78 19 -82 -15 -22 -17 28 -34 52 -39 52 -5 0 -26 -26 -46 -57 -20 -32 -35
-51 -32 -43 17 59 30 120 26 124 -3 3 -31 -2 -63 -10 -32 -8 -60 -14 -62 -12
-2 2 21 17 51 34 30 16 53 33 52 39 -2 5 -28 24 -58 42 -60 37 -58 39 21 18
30 -8 56 -12 59 -10 2 3 -1 28 -7 57 -7 28 -11 52 -9 54 2 2 16 -19 32 -46 16
-28 32 -50 35 -50 3 0 22 27 40 59 19 33 36 59 36 58 1 -1 -5 -30 -14 -64z"/>
<path d="M7343 3783 c-8 -3 -13 -23 -13 -54 l0 -49 -49 0 c-62 0 -71 -18 -32
-63 l29 -33 -28 -34 c-37 -45 -30 -60 31 -60 l48 0 3 -52 c2 -28 8 -53 15 -55
6 -2 26 9 45 26 l33 30 31 -30 c42 -41 64 -31 64 27 l0 44 44 0 c65 0 76 20
37 67 l-31 37 30 31 c43 44 33 65 -31 65 l-49 0 0 51 c0 31 -4 48 -10 44 -5
-3 -10 -1 -10 5 0 7 -18 -2 -39 -19 l-40 -32 -33 29 c-18 16 -39 27 -45 25z
m69 -117 c14 -18 17 -16 52 40 20 32 35 50 32 39 -3 -11 -10 -40 -16 -64 -6
-23 -9 -45 -7 -48 3 -2 31 3 63 11 32 8 60 14 62 12 2 -2 -22 -18 -53 -36 -30
-17 -53 -35 -50 -40 3 -5 30 -23 60 -40 30 -17 55 -33 55 -35 0 -2 -30 5 -67
15 -37 10 -69 17 -72 15 -2 -3 3 -31 12 -65 8 -33 13 -60 11 -60 -1 0 -15 22
-31 50 -15 27 -33 50 -38 50 -6 0 -24 -22 -40 -50 -16 -27 -31 -48 -33 -46 -2
2 4 29 13 61 9 31 15 58 13 60 -3 3 -60 -7 -113 -21 -11 -3 3 10 32 28 28 18
51 38 50 43 0 6 -24 25 -51 43 -28 18 -42 31 -31 28 11 -3 40 -10 64 -16 23
-6 45 -9 48 -7 2 3 -1 25 -7 48 -6 24 -13 53 -16 64 -3 11 6 2 20 -20 13 -22
31 -49 38 -59z"/>
<path d="M5995 3603 c-29 -60 -32 -223 -6 -340 23 -102 27 -219 10 -273 -11
-36 -26 -101 -35 -155 -5 -27 -1 -33 40 -58 35 -22 53 -43 74 -85 22 -47 36
-62 77 -84 67 -36 112 -37 125 -2 13 32 3 72 -24 104 -36 41 -45 55 -61 94 -9
21 -11 35 -5 31 6 -4 61 -17 123 -30 62 -13 122 -27 135 -31 21 -6 23 -4 20
22 -3 28 -8 30 -93 52 -49 13 -118 24 -153 25 l-62 2 -11 38 c-11 42 -5 81 42
295 16 73 32 168 36 211 6 82 -3 191 -16 191 -5 0 -11 -48 -15 -106 -4 -59
-21 -177 -37 -263 -17 -86 -33 -199 -36 -252 -5 -94 -5 -99 28 -170 18 -39 50
-93 71 -118 44 -53 48 -68 13 -45 -30 19 -35 2 -8 -28 20 -22 5 -23 -40 -4
-40 16 -81 64 -97 110 -7 21 -25 44 -51 61 l-40 26 6 57 c4 31 13 79 21 106
16 56 18 201 4 261 -31 129 -32 271 -4 373 10 35 -11 25 -31 -15z"/>
<path d="M4090 3388 c-1 -204 -20 -567 -30 -590 -28 -61 -131 -71 -315 -33
-172 36 -305 43 -373 21 -55 -19 -89 -46 -56 -46 17 0 19 -7 16 -55 -3 -35 0
-55 7 -55 6 0 11 -9 11 -20 0 -11 7 -20 15 -20 8 0 15 -6 15 -14 0 -14 21 -26
44 -26 37 0 125 124 126 178 0 27 -2 27 128 -2 59 -13 125 -27 148 -31 32 -5
44 -13 59 -38 30 -52 57 -77 117 -108 95 -48 148 -36 148 33 0 36 -6 46 -49
85 l-49 44 28 27 27 27 5 225 c6 252 0 470 -13 470 -5 0 -9 -33 -9 -72z m-565
-665 c-20 -47 -85 -133 -102 -133 -19 0 -16 14 7 35 19 17 27 45 13 45 -4 0
-20 -12 -36 -27 -25 -24 -28 -25 -18 -6 6 12 16 25 21 28 15 9 12 25 -4 25 -8
0 -16 6 -19 13 -3 9 -8 8 -22 -3 -17 -14 -17 -14 -2 17 21 39 26 41 110 42
l67 1 -15 -37z m544 -67 c11 -10 18 -23 15 -28 -4 -5 7 -24 22 -41 l29 -32
-35 33 c-36 32 -60 41 -60 22 0 -5 12 -21 27 -35 15 -14 22 -25 15 -25 -24 0
-117 59 -157 100 l-39 40 49 1 c28 1 61 4 75 8 18 5 27 3 31 -8 4 -9 16 -24
28 -35z"/>
<path d="M5683 2893 c-32 -3 -43 -8 -43 -21 0 -36 12 -39 120 -31 58 4 124 8
148 8 38 1 42 3 42 26 l0 25 -112 -2 c-62 -1 -132 -3 -155 -5z"/>
<path d="M5278 2800 c-101 -37 -180 -80 -250 -135 -56 -43 -126 -131 -114
-142 3 -4 32 18 63 48 32 30 85 71 118 91 56 33 230 108 252 108 8 0 33 42 33
55 0 10 -27 3 -102 -25z"/>
<path d="M4183 2788 c-9 -21 -5 -24 72 -54 116 -45 189 -89 262 -157 35 -33
66 -57 69 -54 11 11 -59 99 -114 143 -51 41 -205 123 -258 138 -15 5 -23 0
-31 -16z"/>
<path d="M2828 2737 c-41 -24 -96 -61 -121 -81 -45 -37 -112 -125 -102 -134 2
-3 34 23 70 57 49 45 96 76 181 118 110 54 115 57 92 69 -33 19 -36 18 -120
-29z"/>
<path d="M6570 2756 c0 -19 10 -28 53 -46 77 -33 155 -85 215 -143 60 -60 71
-44 17 26 -38 50 -130 119 -212 161 -64 32 -73 32 -73 2z"/>
<path d="M4337 2278 c-6 -22 -11 -23 -109 -23 -113 0 -145 -10 -206 -68 -39
-38 -67 -121 -57 -170 13 -61 51 -111 106 -142 44 -24 65 -28 128 -29 120 -1
181 19 181 59 0 12 -6 12 -35 -1 -77 -32 -200 -11 -246 42 -70 79 -65 198 11
251 75 53 213 20 222 -54 2 -15 9 -28 16 -31 9 -3 12 14 12 61 0 35 3 79 6 96
5 24 3 31 -9 31 -8 0 -17 -10 -20 -22z"/>
<path d="M4768 2279 c-3 -21 -9 -22 -108 -23 -92 -1 -110 -4 -149 -26 -70 -40
-104 -89 -109 -160 -6 -76 1 -102 40 -145 53 -61 99 -79 203 -78 50 0 103 6
120 12 20 9 31 9 33 2 2 -7 34 -11 78 -11 57 0 74 3 74 14 0 8 -9 16 -20 18
-18 3 -16 9 21 68 23 36 43 67 46 70 2 2 16 -11 31 -30 61 -80 145 -160 169
-160 12 0 23 5 23 10 0 6 28 10 65 10 50 0 65 3 65 14 0 8 -9 16 -20 18 -18 3
-16 9 21 68 23 36 43 67 45 69 2 2 16 -12 31 -30 74 -91 147 -159 170 -159 12
0 23 3 23 6 0 3 -36 57 -80 119 -44 62 -81 118 -82 123 -5 15 95 133 120 143
43 16 23 29 -48 29 -72 0 -82 -4 -53 -25 14 -11 13 -16 -16 -58 -18 -26 -33
-47 -35 -47 -1 0 -17 21 -36 46 -26 37 -30 48 -19 55 8 5 17 9 22 9 4 0 7 5 7
10 0 6 -63 10 -170 10 -93 0 -170 -3 -170 -6 0 -4 7 -12 17 -19 14 -11 13 -17
-17 -60 l-33 -48 -17 23 c-10 13 -25 36 -34 51 -15 26 -15 28 4 34 46 14 14
25 -75 25 -96 0 -115 -8 -71 -28 23 -10 136 -149 136 -166 0 -20 -133 -176
-150 -176 -13 0 -17 5 -13 20 5 19 4 19 -31 5 -19 -8 -64 -15 -99 -15 -53 0
-71 5 -110 29 -54 35 -87 92 -87 152 0 79 42 133 119 150 69 16 157 -26 163
-78 2 -15 9 -28 16 -31 9 -3 12 13 12 55 0 32 3 75 6 96 5 29 3 37 -9 37 -9 0
-17 -10 -19 -21z m547 -144 c30 -41 55 -77 55 -81 0 -3 -29 -44 -66 -90 -86
-111 -92 -111 -176 9 -35 50 -67 97 -70 102 -8 13 92 133 124 150 36 18 70 -5
133 -90z"/>
<path d="M3480 2240 c0 -5 13 -13 29 -17 l28 -8 -27 -125 c-43 -196 -48 -210
-70 -210 -11 0 -20 -7 -20 -15 0 -12 16 -15 80 -15 66 0 78 2 74 15 -4 8 -17
15 -30 15 -23 0 -24 3 -18 43 10 69 35 222 37 224 2 1 29 -68 61 -152 32 -85
62 -153 66 -150 4 2 36 73 71 156 35 83 64 147 66 143 2 -5 13 -65 26 -134
l23 -125 -28 -3 c-16 -2 -28 -9 -28 -18 0 -11 19 -14 95 -14 78 0 95 3 95 15
0 9 -9 15 -25 15 -14 0 -25 2 -25 3 0 4 -56 276 -65 313 -4 17 1 23 20 28 52
13 23 26 -60 26 -80 0 -109 -11 -66 -25 18 -5 16 -13 -27 -120 -26 -63 -50
-115 -53 -115 -4 0 -23 44 -42 98 -19 53 -38 104 -42 114 -4 11 0 18 14 23 46
14 16 25 -69 25 -52 0 -90 -4 -90 -10z"/>
<path d="M5620 2244 c0 -3 16 -12 35 -20 l35 -14 -2 -163 -3 -162 -29 -5 c-16
-3 -31 -11 -34 -17 -3 -10 22 -13 103 -13 81 0 106 3 103 13 -3 6 -16 13 -30
15 -23 3 -26 8 -32 70 -8 85 -8 167 0 225 6 40 10 46 35 51 16 3 29 10 29 16
0 6 -40 10 -105 10 -58 0 -105 -2 -105 -6z"/>
<path d="M5874 2235 c11 -8 28 -15 38 -15 17 0 18 -13 18 -170 l0 -170 -29 0
c-16 0 -31 -6 -35 -15 -5 -13 10 -15 99 -15 87 0 105 3 105 15 0 10 -10 15
-30 15 l-30 0 0 169 0 169 30 6 c17 3 30 10 30 16 0 6 -41 10 -107 10 -97 -1
-106 -2 -89 -15z"/>
<path d="M1590 7728 c-191 -212 -450 -566 -450 -615 0 -15 13 -33 42 -53 59
-43 72 -40 65 13 -10 68 43 165 165 307 l37 43 38 -26 c103 -69 449 -365 463
-394 22 -48 44 -42 69 20 12 29 31 61 41 70 29 24 25 31 -25 46 -54 16 -77 32
-306 217 -98 80 -179 152 -179 161 0 18 29 59 99 141 l45 52 63 0 c48 0 63 3
63 14 0 18 -102 106 -123 106 -8 0 -57 -46 -107 -102z"/>
<path d="M8130 7426 c0 -39 -349 -306 -542 -415 -65 -37 -66 -45 -9 -102 20
-20 54 -62 75 -93 77 -110 126 -152 206 -177 147 -44 280 -10 391 101 110 109
149 245 118 403 -10 49 -23 70 -112 176 -93 112 -127 141 -127 107z m138 -215
c82 -160 7 -336 -186 -432 -58 -29 -77 -34 -143 -34 -73 0 -79 2 -135 40 -76
52 -126 103 -122 123 3 18 430 324 493 353 22 10 45 17 50 15 6 -1 25 -31 43
-65z"/>
<path d="M934 6792 c-6 -4 -14 -17 -18 -29 -4 -12 -31 -48 -61 -80 -30 -32
-55 -61 -55 -66 0 -18 30 -17 68 3 40 21 43 21 104 5 85 -22 326 -125 418
-179 41 -24 99 -65 129 -90 58 -50 74 -53 79 -15 5 43 23 76 48 90 38 20 26
44 -22 46 -25 2 -117 36 -239 89 -268 115 -362 163 -399 202 -33 34 -35 36
-52 24z"/>
<path d="M8580 6594 c-134 -87 -459 -227 -574 -247 -37 -6 -70 -17 -73 -23 -4
-12 61 -106 78 -112 4 -2 21 6 36 17 15 11 107 52 203 90 96 38 214 86 262
106 50 20 108 37 134 38 68 3 74 19 39 101 -15 36 -33 66 -39 66 -7 0 -36 -16
-66 -36z"/>
<path d="M8806 6144 c-54 -30 -395 -174 -469 -199 -40 -13 -107 -30 -147 -36
-41 -7 -77 -13 -79 -15 -9 -7 53 -134 66 -134 8 0 26 9 42 21 29 22 583 234
639 245 17 3 32 11 31 18 -2 25 -35 110 -44 112 -5 2 -23 -4 -39 -12z"/>
<path d="M575 6058 c-80 -244 -82 -343 -11 -414 80 -80 218 -43 299 79 81 122
132 170 200 188 99 27 186 -64 190 -200 1 -46 -4 -66 -26 -104 -40 -68 -134
-127 -202 -127 -55 0 -45 -27 18 -44 105 -30 104 -30 132 0 44 47 102 141 126
202 30 78 31 190 1 248 -65 128 -162 170 -296 130 -82 -25 -122 -60 -190 -164
-35 -53 -72 -105 -82 -114 -50 -44 -115 -39 -159 14 -24 29 -26 37 -20 82 8
60 35 125 61 147 10 9 41 24 67 34 51 19 56 35 16 46 -43 12 -119 10 -124 -3z"/>
<path d="M9002 5283 c-16 -11 -104 -27 -285 -49 -303 -38 -334 -40 -366 -18
-34 24 -44 6 -39 -75 4 -83 18 -104 48 -76 26 23 111 32 127 13 7 -7 19 -47
27 -88 20 -94 58 -156 120 -194 41 -26 60 -30 136 -34 52 -3 102 0 123 7 52
18 119 81 151 145 l28 56 -11 144 c-6 79 -11 153 -11 165 0 25 -16 26 -48 4z
m13 -224 c-1 -67 -4 -81 -28 -112 -33 -44 -103 -72 -179 -72 -46 0 -64 5 -99
30 -47 33 -79 86 -85 142 -8 63 -1 67 163 79 81 6 166 11 188 10 l40 -1 0 -76z"/>
<path d="M1130 5094 c-53 -104 -210 -230 -277 -222 -25 3 -29 8 -35 50 -13 96
-81 148 -205 156 -39 2 -88 1 -108 -2 -45 -9 -111 -66 -124 -109 -5 -18 -11
-135 -13 -262 -3 -208 -1 -230 14 -233 9 -2 26 7 38 20 l21 23 317 -1 c261 -1
326 -4 365 -17 73 -24 77 -19 77 84 0 49 -4 89 -9 89 -5 0 -33 -11 -63 -25
-45 -21 -67 -25 -154 -25 -118 0 -127 5 -122 77 l3 48 100 50 c176 88 205 122
224 259 14 99 14 106 -3 106 -7 0 -28 -30 -46 -66z m-446 -191 c57 -40 86
-101 86 -179 0 -96 2 -94 -104 -93 -140 0 -226 12 -241 33 -19 26 -8 162 16
203 46 75 163 92 243 36z"/>
<path d="M8350 4529 c-7 -13 -10 -46 -8 -82 5 -68 23 -89 89 -107 47 -13 61
-40 46 -85 -14 -43 -23 -49 -62 -47 -29 2 -35 -1 -35 -18 0 -13 7 -20 19 -20
38 0 51 -12 51 -44 0 -46 -10 -74 -28 -81 -17 -6 -122 34 -122 47 0 4 -4 8 -9
8 -15 0 -46 -149 -33 -162 6 -6 55 -15 109 -20 166 -15 516 -98 603 -143 39
-20 52 -6 55 61 1 33 7 70 13 84 15 35 32 156 32 233 0 175 -99 287 -242 274
-29 -3 -107 -11 -173 -17 -92 -10 -130 -10 -162 -1 -59 16 -94 49 -102 96 -7
45 -25 55 -41 24z m583 -247 c48 -28 91 -104 91 -160 -1 -57 -35 -140 -74
-177 l-28 -27 -121 21 c-66 11 -158 33 -203 48 l-83 28 2 48 c2 55 16 77 49
77 32 0 31 23 -2 45 -23 15 -25 22 -20 53 3 19 11 41 18 48 16 16 226 32 291
22 27 -4 63 -15 80 -26z"/>
<path d="M1195 4025 c-22 -7 -55 -14 -72 -14 -18 -1 -33 -3 -33 -5 0 -2 15
-20 34 -40 46 -48 74 -161 56 -227 -14 -50 -70 -110 -120 -127 -28 -10 -34 -9
-55 12 -30 30 -45 81 -52 182 -5 74 -4 83 16 103 43 43 26 47 -122 35 -43 -4
-77 -11 -77 -15 0 -5 18 -20 39 -33 45 -29 52 -46 77 -189 16 -92 16 -100 0
-115 -23 -23 -134 -22 -202 1 -92 32 -173 122 -188 210 -11 62 10 144 45 169
35 26 39 58 7 58 -36 0 -89 -49 -115 -108 -22 -47 -25 -64 -21 -131 8 -134 70
-221 203 -288 92 -47 154 -63 245 -63 188 0 345 80 405 205 30 63 32 130 10
238 -8 40 -14 90 -12 112 2 46 -7 50 -68 30z"/>
<path d="M8124 3556 c-8 -14 -14 -33 -13 -43 2 -10 -11 -52 -28 -93 -66 -159
-75 -243 -35 -345 43 -108 116 -175 239 -216 53 -17 82 -21 162 -17 85 3 106
8 162 35 37 19 85 54 115 85 52 54 64 83 138 335 6 19 3 21 -36 21 -26 -1 -93
16 -166 41 -130 44 -424 168 -478 201 -40 25 -40 25 -60 -4z m334 -246 c147
-61 277 -120 289 -133 22 -22 22 -22 4 -63 -58 -127 -196 -196 -332 -164 -116
27 -218 96 -267 178 -24 42 -26 55 -24 134 2 95 21 158 47 158 9 0 136 -50
283 -110z"/>
<path d="M1483 3126 c-31 -31 -289 -177 -406 -230 -94 -42 -177 -68 -259 -81
-49 -8 -49 -27 0 -125 26 -54 43 -76 58 -78 17 -2 23 4 27 28 8 39 74 82 304
198 204 102 231 107 288 52 113 -109 99 -151 -93 -277 -138 -92 -223 -161
-263 -215 -23 -33 -29 -51 -29 -91 0 -48 3 -54 50 -99 47 -45 93 -68 108 -54
3 4 -2 22 -12 41 -25 46 -17 90 29 159 40 60 93 100 220 164 172 86 236 188
190 299 -20 47 -37 66 -104 115 l-53 40 41 19 c23 10 41 24 41 32 0 7 -16 28
-35 47 -20 19 -35 44 -35 57 0 30 -36 30 -67 -1z"/>
<path d="M7743 2692 c-99 -35 -164 -108 -197 -219 -10 -32 -20 -64 -22 -72 -4
-11 -8 -11 -22 3 -10 9 -30 16 -44 16 -22 0 -26 -5 -32 -42 -6 -35 -4 -45 11
-55 146 -102 469 -362 538 -432 33 -34 66 -61 73 -61 16 0 112 100 112 117 0
6 -17 17 -37 24 -98 31 -253 124 -371 223 -151 125 -137 106 -134 176 5 124
64 209 150 218 71 6 129 -16 267 -104 176 -110 218 -129 290 -129 45 0 69 6
98 23 52 33 48 48 -15 56 -71 10 -214 86 -296 158 -90 80 -159 112 -247 116
-48 2 -86 -3 -122 -16z"/>
<path d="M2027 2313 c-4 -3 -7 -18 -7 -32 0 -53 -44 -114 -194 -265 -139 -142
-301 -276 -333 -276 -28 0 -11 -37 39 -85 29 -28 61 -65 70 -83 24 -45 45 -41
53 11 12 71 29 99 133 224 127 151 272 289 336 319 68 32 84 58 43 73 -13 5
-36 29 -52 52 -42 62 -69 81 -88 62z"/>
<path d="M7253 2115 c-29 -21 -63 -77 -63 -106 0 -13 21 -55 46 -92 26 -37 45
-69 43 -71 -2 -3 -22 -18 -44 -36 -34 -27 -44 -30 -78 -24 l-39 6 7 -39 c6
-37 3 -42 -30 -71 -20 -18 -39 -32 -44 -32 -14 0 -38 34 -75 108 -20 39 -37
72 -39 72 -2 0 -20 -9 -42 -20 -22 -11 -52 -20 -67 -20 -43 0 -48 -28 -11 -59
87 -74 317 -368 406 -519 33 -56 66 -107 74 -113 10 -9 22 -5 51 14 57 38 268
248 288 287 29 54 26 229 -5 293 -30 61 -89 122 -182 184 -91 62 -159 133
-159 168 0 15 9 31 25 41 14 9 25 23 25 30 0 19 -59 18 -87 -1z m135 -342 c86
-65 159 -169 177 -251 11 -54 -4 -127 -38 -178 -35 -53 -121 -126 -141 -118
-11 4 -211 245 -263 317 -32 44 -29 64 14 103 43 40 51 41 87 13 33 -26 49
-17 40 24 -4 18 -7 41 -6 51 1 22 50 76 68 76 7 0 34 -17 62 -37z"/>
<path d="M2430 1901 c0 -11 9 -22 20 -26 29 -9 70 -63 70 -92 0 -20 -20 -45
-82 -102 -166 -152 -206 -210 -229 -336 -21 -113 6 -201 81 -269 41 -37 151
-96 179 -96 9 0 11 -7 8 -22 -5 -20 3 -28 53 -55 32 -18 65 -33 72 -33 9 0 18
23 25 68 21 123 216 473 326 584 57 58 72 86 40 74 -23 -9 -80 12 -97 36 -17
24 -46 18 -46 -10 0 -42 -239 -478 -298 -544 -29 -33 -81 -16 -153 49 -133
121 -95 298 98 453 66 53 99 103 108 167 9 57 -27 122 -85 151 -56 28 -90 29
-90 3z"/>
<path d="M6444 1555 c-9 -14 -36 -37 -60 -51 -24 -14 -44 -32 -44 -39 0 -7 17
-35 38 -62 127 -161 352 -542 352 -596 0 -52 -121 -90 -208 -67 -36 11 -62 28
-113 80 -117 119 -219 361 -219 522 l0 68 -25 -16 c-14 -9 -55 -29 -92 -44
-38 -15 -68 -33 -68 -40 0 -7 14 -21 30 -30 33 -18 34 -20 110 -265 26 -82 56
-166 68 -185 34 -56 108 -130 152 -152 83 -43 239 -33 350 22 78 38 175 115
175 138 0 10 -12 29 -26 43 -30 27 -148 205 -218 326 -50 87 -148 300 -160
346 -8 34 -21 34 -42 2z"/>
<path d="M3352 1340 c-1 -31 -14 -84 -37 -146 -52 -138 -209 -447 -250 -493
-19 -21 -35 -43 -35 -49 0 -15 33 -32 62 -32 13 0 43 -16 67 -35 25 -20 49
-34 55 -32 6 2 14 45 17 98 6 101 16 130 136 397 l55 122 79 0 c90 0 131 -14
173 -58 44 -48 45 -94 1 -268 -42 -169 -43 -219 -2 -307 26 -57 88 -127 112
-127 22 0 18 15 -17 65 -52 74 -51 139 7 373 38 154 46 200 41 237 -17 112
-168 194 -308 167 -26 -5 -50 -7 -53 -4 -3 3 7 25 21 49 29 50 25 63 -19 63
-18 1 -43 7 -57 15 -41 24 -48 19 -48 -35z"/>
<path d="M5550 1185 c-14 -8 -42 -19 -63 -25 -21 -6 -37 -14 -35 -18 47 -89
97 -208 129 -305 53 -160 139 -464 139 -489 0 -18 5 -20 38 -15 64 11 142 37
142 49 0 6 -15 36 -34 67 -50 82 -83 152 -133 276 -47 116 -113 358 -113 412
0 63 -20 77 -70 48z"/>
<path d="M4577 709 c-42 -39 -77 -75 -77 -81 0 -13 129 -152 145 -156 6 -1 47
30 90 71 l79 74 -74 81 c-40 45 -77 82 -80 82 -3 0 -41 -32 -83 -71z"/>
</g>
</svg>
