<?xml version="1.0" encoding="UTF-8" standalone="no"?>
<svg
   xmlns:dc="http://purl.org/dc/elements/1.1/"
   xmlns:cc="http://creativecommons.org/ns#"
   xmlns:rdf="http://www.w3.org/1999/02/22-rdf-syntax-ns#"
   xmlns:svg="http://www.w3.org/2000/svg"
   xmlns="http://www.w3.org/2000/svg"
   xmlns:sodipodi="http://sodipodi.sourceforge.net/DTD/sodipodi-0.dtd"
   xmlns:inkscape="http://www.inkscape.org/namespaces/inkscape"
   width="47.249645mm"
   height="27.916258mm"
   viewBox="0 0 47.249645 27.916258"
   version="1.1"
   id="svg2630"
   inkscape:version="1.0.1 (3bc2e813f5, 2020-09-07)"
   sodipodi:docname="Logo IMT Atlantique.svg">
  <defs
     id="defs2624">
    <clipPath
       clipPathUnits="userSpaceOnUse"
       id="clipPath1939">
      <path
         d="M 53.859,575.197 H 187.795 V 654.33 H 53.859 Z"
         id="path1937" />
    </clipPath>
  </defs>
  <sodipodi:namedview
     id="base"
     pagecolor="#ffffff"
     bordercolor="#666666"
     borderopacity="1.0"
     inkscape:pageopacity="0.0"
     inkscape:pageshadow="2"
     inkscape:zoom="1.979899"
     inkscape:cx="-17.383975"
     inkscape:cy="101.90308"
     inkscape:document-units="mm"
     inkscape:current-layer="layer1"
     inkscape:document-rotation="0"
     showgrid="false"
     fit-margin-top="0"
     fit-margin-left="0"
     fit-margin-right="0"
     fit-margin-bottom="0"
     inkscape:window-width="1600"
     inkscape:window-height="837"
     inkscape:window-x="-8"
     inkscape:window-y="-8"
     inkscape:window-maximized="1" />
  <metadata
     id="metadata2627">
    <rdf:RDF>
      <cc:Work
         rdf:about="">
        <dc:format>image/svg+xml</dc:format>
        <dc:type
           rdf:resource="http://purl.org/dc/dcmitype/StillImage" />
        <dc:title></dc:title>
      </cc:Work>
    </rdf:RDF>
  </metadata>
  <g
     inkscape:label="Calque 1"
     inkscape:groupmode="layer"
     id="layer1"
     transform="translate(-205.42875,-85.827582)">
    <g
       id="g3822">
      <g
         id="g3716">
        <path
           d="m 205.42875,105.12805 h 0.74859 v -3.4043 h -0.74859 z"
           style="fill:#000000;fill-opacity:1;fill-rule:nonzero;stroke:none;stroke-width:0.352777"
           id="path1919" />
        <path
           d="m 207.85727,101.72347 0.79622,2.34139 h 0.01 l 0.75354,-2.34139 h 1.05374 v 3.40466 h -0.70096 v -2.413 h -0.01 l -0.83432,2.413 h -0.57714 l -0.83432,-2.38901 h -0.01 v 2.38901 h -0.70097 v -3.40466 z"
           style="fill:#000000;fill-opacity:1;fill-rule:nonzero;stroke:none;stroke-width:0.352778"
           id="path1923" />
        <path
           d="m 210.80018,102.35289 v -0.62936 h 2.78941 v 0.62936 h -1.02058 v 2.7753 h -0.7486 v -2.7753 z"
           style="fill:#000000;fill-opacity:1;fill-rule:nonzero;stroke:none;stroke-width:0.352778"
           id="path1927" />
        <path
           d="m 217.0465,103.81198 -0.42898,-1.24919 h -0.01 l -0.44308,1.24919 z m -0.043,-2.08844 1.27318,3.4043 h -0.77717 l -0.25753,-0.75812 h -1.27318 l -0.26705,0.75812 h -0.75318 l 1.28729,-3.4043 z"
           style="fill:#000000;fill-opacity:1;fill-rule:nonzero;stroke:none;stroke-width:0.352778"
           id="path1931" />
        <g
           id="g1941"
           transform="matrix(0.35277777,0,0,-0.35277777,219.7457,102.66284)">
          <path
             d="m 0,0 v -1.284 h -1.406 v -3.46 c 0,-0.325 0.054,-0.541 0.163,-0.649 0.108,-0.108 0.324,-0.162 0.648,-0.162 0.109,0 0.212,0.004 0.311,0.013 0.099,0.009 0.194,0.023 0.284,0.041 v -1.487 c -0.162,-0.027 -0.343,-0.045 -0.541,-0.054 -0.198,-0.009 -0.392,-0.014 -0.581,-0.014 -0.297,0 -0.579,0.021 -0.844,0.061 -0.267,0.041 -0.501,0.12 -0.703,0.237 -0.203,0.117 -0.363,0.284 -0.48,0.5 -0.117,0.216 -0.176,0.5 -0.176,0.851 v 4.123 H -4.487 V 0 h 1.162 v 2.095 h 1.919 V 0 Z"
             style="fill:#000000;fill-opacity:1;fill-rule:nonzero;stroke:none"
             id="path1943" />
        </g>
        <path
           d="m 220.77705,105.12805 h -0.67698 v -3.40465 h 0.67698 z"
           style="fill:#000000;fill-opacity:1;fill-rule:nonzero;stroke:none;stroke-width:0.352778"
           id="path1945" />
        <g
           id="g1947"
           transform="matrix(0.35277777,0,0,-0.35277777,222.83258,103.92166)">
          <path
             d="m 0,0 c -0.081,-0.072 -0.182,-0.128 -0.304,-0.169 -0.122,-0.04 -0.252,-0.074 -0.392,-0.102 -0.14,-0.026 -0.286,-0.049 -0.439,-0.067 -0.154,-0.018 -0.307,-0.041 -0.46,-0.067 -0.144,-0.028 -0.286,-0.064 -0.426,-0.109 -0.139,-0.045 -0.261,-0.106 -0.365,-0.182 -0.103,-0.077 -0.187,-0.174 -0.25,-0.291 -0.063,-0.117 -0.094,-0.266 -0.094,-0.446 0,-0.171 0.031,-0.315 0.094,-0.432 0.063,-0.117 0.149,-0.21 0.257,-0.277 0.108,-0.068 0.234,-0.115 0.379,-0.142 0.144,-0.027 0.292,-0.041 0.446,-0.041 0.378,0 0.671,0.063 0.878,0.19 0.207,0.125 0.361,0.277 0.46,0.452 0.099,0.176 0.16,0.354 0.182,0.534 C -0.012,-0.969 0,-0.825 0,-0.716 Z m -4.433,1.419 c 0.027,0.451 0.139,0.825 0.338,1.122 0.198,0.297 0.45,0.536 0.756,0.716 0.307,0.18 0.651,0.309 1.035,0.385 0.382,0.077 0.768,0.116 1.155,0.116 0.352,0 0.708,-0.026 1.068,-0.075 C 0.279,3.633 0.608,3.537 0.906,3.393 1.203,3.248 1.446,3.048 1.635,2.791 1.825,2.534 1.92,2.194 1.92,1.771 v -3.636 c 0,-0.316 0.017,-0.618 0.054,-0.906 0.035,-0.288 0.098,-0.505 0.189,-0.649 H 0.216 C 0.18,-3.311 0.151,-3.201 0.128,-3.088 0.106,-2.976 0.09,-2.861 0.081,-2.744 -0.225,-3.059 -0.586,-3.28 -1,-3.406 c -0.415,-0.126 -0.838,-0.189 -1.271,-0.189 -0.333,0 -0.644,0.04 -0.932,0.121 -0.289,0.081 -0.541,0.208 -0.757,0.379 -0.217,0.171 -0.385,0.387 -0.507,0.649 -0.122,0.261 -0.182,0.572 -0.182,0.932 0,0.397 0.069,0.723 0.209,0.98 0.14,0.257 0.32,0.462 0.541,0.615 0.22,0.153 0.473,0.268 0.757,0.345 0.283,0.076 0.569,0.137 0.858,0.182 0.288,0.045 0.572,0.081 0.851,0.108 0.28,0.027 0.528,0.068 0.744,0.122 0.216,0.054 0.387,0.133 0.513,0.237 C -0.05,1.178 0.009,1.329 0,1.527 0,1.735 -0.034,1.899 -0.101,2.021 -0.169,2.142 -0.259,2.237 -0.372,2.305 -0.485,2.372 -0.615,2.417 -0.764,2.44 -0.912,2.462 -1.072,2.473 -1.243,2.473 -1.622,2.473 -1.919,2.392 -2.135,2.23 -2.352,2.068 -2.478,1.798 -2.514,1.419 Z"
             style="fill:#000000;fill-opacity:1;fill-rule:nonzero;stroke:none"
             id="path1949" />
        </g>
        <g
           id="g1951"
           transform="matrix(0.35277777,0,0,-0.35277777,224.66829,102.66284)">
          <path
             d="m 0,0 v -0.973 h 0.04 c 0.244,0.405 0.559,0.7 0.947,0.885 0.387,0.185 0.784,0.277 1.189,0.277 0.514,0 0.935,-0.07 1.264,-0.209 0.329,-0.14 0.588,-0.334 0.777,-0.582 0.189,-0.247 0.322,-0.549 0.399,-0.905 0.076,-0.356 0.115,-0.75 0.115,-1.183 v -4.298 h -1.92 v 3.947 c 0,0.576 -0.09,1.007 -0.27,1.291 -0.18,0.283 -0.5,0.425 -0.96,0.425 C 1.059,-1.325 0.68,-1.48 0.446,-1.791 0.211,-2.102 0.094,-2.613 0.094,-3.325 V -6.988 H -1.825 V 0 Z"
             style="fill:#000000;fill-opacity:1;fill-rule:nonzero;stroke:none"
             id="path1953" />
        </g>
        <g
           id="g1955"
           transform="matrix(0.35277777,0,0,-0.35277777,228.17519,102.66284)">
          <path
             d="m 0,0 v -1.284 h -1.406 v -3.46 c 0,-0.325 0.054,-0.541 0.163,-0.649 0.108,-0.108 0.324,-0.162 0.648,-0.162 0.109,0 0.212,0.004 0.311,0.013 0.099,0.009 0.194,0.023 0.284,0.041 v -1.487 c -0.162,-0.027 -0.343,-0.045 -0.541,-0.054 -0.198,-0.009 -0.392,-0.014 -0.581,-0.014 -0.297,0 -0.579,0.021 -0.844,0.061 -0.267,0.041 -0.501,0.12 -0.703,0.237 -0.203,0.117 -0.363,0.284 -0.48,0.5 -0.117,0.216 -0.176,0.5 -0.176,0.851 v 4.123 H -4.487 V 0 h 1.162 v 2.095 h 1.919 V 0 Z"
             style="fill:#000000;fill-opacity:1;fill-rule:nonzero;stroke:none"
             id="path1957" />
        </g>
        <path
           d="m 229.20668,105.12805 h -0.67699 v -2.46521 h 0.67699 z m -0.67734,-3.40465 h 0.67698 v 0.55774 h -0.67698 z"
           style="fill:#000000;fill-opacity:1;fill-rule:nonzero;stroke:none;stroke-width:0.352778"
           id="path1959" />
        <g
           id="g1961"
           transform="matrix(0.35277777,0,0,-0.35277777,230.32752,104.18624)">
          <path
             d="m 0,0 c 0.054,-0.266 0.146,-0.505 0.277,-0.716 0.131,-0.212 0.302,-0.381 0.514,-0.507 0.212,-0.127 0.475,-0.19 0.79,-0.19 0.316,0 0.579,0.061 0.791,0.183 0.212,0.122 0.383,0.284 0.513,0.486 0.131,0.203 0.226,0.437 0.285,0.703 0.058,0.266 0.087,0.543 0.087,0.832 0,0.27 -0.029,0.54 -0.087,0.81 C 3.111,1.872 3.019,2.115 2.893,2.331 2.766,2.548 2.597,2.723 2.386,2.859 2.174,2.994 1.919,3.061 1.622,3.061 1.306,3.061 1.041,2.998 0.825,2.872 0.608,2.746 0.433,2.577 0.297,2.365 0.162,2.153 0.065,1.914 0.007,1.649 -0.052,1.383 -0.081,1.106 -0.081,0.818 -0.081,0.538 -0.054,0.265 0,0 m 3.19,-5.116 v 3.325 H 3.163 C 2.937,-2.169 2.622,-2.44 2.217,-2.602 1.811,-2.764 1.392,-2.845 0.96,-2.845 c -0.325,0 -0.66,0.06 -1.007,0.182 -0.347,0.122 -0.665,0.325 -0.953,0.608 -0.288,0.284 -0.527,0.658 -0.716,1.122 C -1.906,-0.469 -2,0.101 -2,0.777 c 0,0.478 0.062,0.942 0.189,1.392 0.126,0.451 0.32,0.849 0.581,1.196 0.261,0.347 0.588,0.624 0.98,0.832 0.392,0.207 0.854,0.311 1.385,0.311 0.433,0 0.84,-0.084 1.223,-0.251 C 2.741,4.091 3.041,3.814 3.257,3.426 h 0.027 v 0.892 h 1.825 v -9.434 z"
             style="fill:#000000;fill-opacity:1;fill-rule:nonzero;stroke:none"
             id="path1963" />
        </g>
        <g
           id="g1965"
           transform="matrix(0.35277777,0,0,-0.35277777,234.30026,105.12798)">
          <path
             d="M 0,0 V 0.973 H -0.04 C -0.284,0.568 -0.599,0.275 -0.987,0.094 c -0.387,-0.18 -0.783,-0.27 -1.189,-0.27 -0.513,0 -0.935,0.068 -1.263,0.203 -0.33,0.135 -0.589,0.326 -0.778,0.575 -0.189,0.247 -0.322,0.549 -0.399,0.905 -0.077,0.356 -0.115,0.75 -0.115,1.183 v 4.298 h 1.92 V 3.041 c 0,-0.577 0.09,-1.007 0.27,-1.291 0.18,-0.284 0.5,-0.426 0.96,-0.426 0.522,0 0.901,0.156 1.135,0.467 0.234,0.311 0.352,0.822 0.352,1.534 V 6.988 H 1.825 V 0 Z"
             style="fill:#000000;fill-opacity:1;fill-rule:nonzero;stroke:none"
             id="path1967" />
        </g>
        <g
           id="g1969"
           transform="matrix(0.35277777,0,0,-0.35277777,236.94281,103.23981)">
          <path
             d="m 0,0 c -0.23,0.252 -0.579,0.379 -1.047,0.379 -0.307,0 -0.561,-0.053 -0.764,-0.156 -0.203,-0.104 -0.365,-0.232 -0.487,-0.385 -0.121,-0.153 -0.207,-0.316 -0.256,-0.487 -0.05,-0.171 -0.08,-0.324 -0.088,-0.459 H 0.48 C 0.39,-0.622 0.23,-0.252 0,0 m -2.169,-3.676 c 0.288,-0.28 0.702,-0.419 1.243,-0.419 0.388,0 0.721,0.096 1,0.29 0.279,0.194 0.451,0.399 0.514,0.615 h 1.689 c -0.27,-0.838 -0.684,-1.437 -1.243,-1.798 -0.559,-0.36 -1.235,-0.54 -2.027,-0.54 -0.55,0 -1.046,0.088 -1.487,0.263 -0.442,0.176 -0.816,0.426 -1.122,0.751 -0.306,0.324 -0.543,0.711 -0.71,1.162 -0.166,0.451 -0.25,0.946 -0.25,1.487 0,0.522 0.086,1.009 0.257,1.46 0.171,0.45 0.414,0.84 0.73,1.169 0.315,0.328 0.691,0.588 1.129,0.777 0.436,0.189 0.921,0.284 1.453,0.284 0.594,0 1.112,-0.115 1.554,-0.345 C 1.002,1.25 1.365,0.941 1.649,0.554 1.933,0.167 2.137,-0.275 2.264,-0.77 2.39,-1.266 2.435,-1.784 2.399,-2.325 h -5.041 c 0.027,-0.622 0.184,-1.072 0.473,-1.351"
             style="fill:#000000;fill-opacity:1;fill-rule:nonzero;stroke:none"
             id="path1971" />
        </g>
        <g
           id="g1973"
           transform="matrix(0.35277777,0,0,-0.35277777,206.54938,109.0967)">
          <path
             d="m 0,0 c 0.622,0 1.065,0.178 1.33,0.535 0.166,0.225 0.249,0.498 0.249,0.818 0,0.538 -0.242,0.905 -0.728,1.1 -0.258,0.104 -0.6,0.156 -1.024,0.156 H -2.186 V 0 Z m -0.339,3.422 c 0.428,0 0.761,0.059 0.999,0.176 0.374,0.186 0.561,0.518 0.561,1 0,0.484 -0.199,0.81 -0.597,0.979 C 0.4,5.671 0.067,5.718 -0.375,5.718 H -2.186 V 3.422 Z M -3.17,6.556 H 0.036 C 0.91,6.556 1.531,6.297 1.9,5.779 2.117,5.472 2.225,5.119 2.225,4.719 2.225,4.251 2.092,3.867 1.827,3.568 1.689,3.41 1.49,3.265 1.231,3.134 1.611,2.989 1.896,2.826 2.084,2.645 2.417,2.321 2.584,1.876 2.584,1.307 2.584,0.83 2.433,0.397 2.132,0.01 1.682,-0.569 0.966,-0.858 -0.016,-0.858 H -3.17 Z"
             style="fill:#000000;fill-opacity:1;fill-rule:nonzero;stroke:none"
             id="path1975" />
        </g>
        <g
           id="g1977"
           transform="matrix(0.35277777,0,0,-0.35277777,207.81532,107.49255)">
          <path
             d="m 0,0 h 0.863 v -0.934 c 0.071,0.182 0.244,0.403 0.52,0.664 0.276,0.261 0.594,0.391 0.954,0.391 0.016,0 0.045,-0.002 0.085,-0.005 0.041,-0.004 0.11,-0.01 0.207,-0.02 v -0.959 c -0.054,0.01 -0.103,0.017 -0.148,0.02 -0.046,0.003 -0.095,0.005 -0.149,0.005 -0.458,0 -0.81,-0.147 -1.055,-0.442 C 1.031,-1.574 0.908,-1.913 0.908,-2.296 V -5.405 H 0 Z"
             style="fill:#000000;fill-opacity:1;fill-rule:nonzero;stroke:none"
             id="path1979" />
        </g>
        <g
           id="g1981"
           transform="matrix(0.35277777,0,0,-0.35277777,210.25782,108.2937)">
          <path
             d="M 0,0 C -0.037,0.394 -0.122,0.708 -0.255,0.944 -0.502,1.381 -0.914,1.6 -1.491,1.6 -1.905,1.6 -2.252,1.449 -2.532,1.148 -2.813,0.847 -2.961,0.464 -2.978,0 Z M -0.325,2.122 C 0.032,1.942 0.305,1.709 0.492,1.423 0.673,1.151 0.793,0.833 0.853,0.469 0.907,0.22 0.934,-0.177 0.934,-0.722 h -3.932 c 0.017,-0.55 0.145,-0.991 0.386,-1.323 0.24,-0.333 0.612,-0.499 1.117,-0.499 0.47,0 0.846,0.157 1.126,0.472 0.157,0.182 0.268,0.393 0.334,0.634 H 0.858 C 0.834,-1.637 0.756,-1.858 0.623,-2.102 0.49,-2.346 0.342,-2.546 0.178,-2.7 c -0.273,-0.27 -0.612,-0.451 -1.016,-0.545 -0.217,-0.054 -0.463,-0.081 -0.737,-0.081 -0.668,0 -1.235,0.245 -1.7,0.734 -0.465,0.49 -0.697,1.175 -0.697,2.057 0,0.868 0.234,1.573 0.702,2.115 0.468,0.541 1.08,0.812 1.836,0.812 0.382,0 0.751,-0.09 1.109,-0.27"
             style="fill:#000000;fill-opacity:1;fill-rule:nonzero;stroke:none"
             id="path1983" />
        </g>
        <g
           id="g1985"
           transform="matrix(0.35277777,0,0,-0.35277777,210.9989,106.9602)">
          <path
             d="M 0,0 H 0.918 V -1.509 H 1.782 V -2.251 H 0.918 v -3.527 c 0,-0.189 0.064,-0.316 0.192,-0.379 0.071,-0.037 0.188,-0.056 0.354,-0.056 0.043,0 0.091,0.001 0.141,0.004 0.05,0.002 0.109,0.007 0.177,0.016 V -6.914 C 1.677,-6.945 1.569,-6.966 1.456,-6.98 1.343,-6.993 1.221,-7 1.09,-7 0.666,-7 0.379,-6.891 0.227,-6.675 0.076,-6.457 0,-6.176 0,-5.829 v 3.578 h -0.732 v 0.742 H 0 Z"
             style="fill:#000000;fill-opacity:1;fill-rule:nonzero;stroke:none"
             id="path1987" />
        </g>
        <g
           id="g1989"
           transform="matrix(0.35277777,0,0,-0.35277777,212.26622,109.11116)">
          <path
             d="m 0,0 c 0.192,-0.151 0.419,-0.227 0.681,-0.227 0.32,0 0.629,0.074 0.929,0.222 C 2.115,0.24 2.367,0.642 2.367,1.2 V 1.93 C 2.256,1.859 2.114,1.8 1.939,1.753 1.764,1.705 1.593,1.672 1.425,1.652 L 0.876,1.581 C 0.547,1.537 0.3,1.469 0.134,1.375 -0.147,1.217 -0.288,0.965 -0.288,0.62 -0.288,0.358 -0.192,0.151 0,0 m 1.913,2.454 c 0.209,0.027 0.348,0.114 0.419,0.262 0.04,0.081 0.06,0.198 0.06,0.35 0,0.31 -0.11,0.536 -0.33,0.676 -0.22,0.14 -0.534,0.21 -0.944,0.21 C 0.645,3.952 0.309,3.824 0.111,3.567 0,3.425 -0.072,3.213 -0.106,2.933 h -0.848 c 0.017,0.668 0.233,1.133 0.648,1.394 0.415,0.262 0.896,0.392 1.444,0.392 0.635,0 1.151,-0.121 1.548,-0.363 C 3.079,4.114 3.275,3.737 3.275,3.225 V 0.111 c 0,-0.094 0.02,-0.169 0.058,-0.227 0.039,-0.057 0.121,-0.085 0.245,-0.085 0.04,0 0.086,0.002 0.136,0.007 0.051,0.005 0.105,0.013 0.162,0.023 V -0.843 C 3.735,-0.883 3.627,-0.908 3.553,-0.918 3.479,-0.928 3.378,-0.933 3.25,-0.933 2.937,-0.933 2.71,-0.822 2.569,-0.6 2.495,-0.483 2.443,-0.316 2.412,-0.101 2.227,-0.343 1.961,-0.553 1.615,-0.731 1.268,-0.91 0.887,-0.999 0.469,-0.999 c -0.501,0 -0.911,0.152 -1.229,0.457 -0.318,0.303 -0.476,0.684 -0.476,1.141 0,0.501 0.156,0.889 0.469,1.165 0.313,0.275 0.723,0.445 1.231,0.509 z"
             style="fill:#000000;fill-opacity:1;fill-rule:nonzero;stroke:none"
             id="path1991" />
        </g>
        <g
           id="g1993"
           transform="matrix(0.35277777,0,0,-0.35277777,214.99259,107.91274)">
          <path
             d="m 0,0 c -0.275,0.323 -0.624,0.485 -1.05,0.485 -0.636,0 -1.071,-0.3 -1.305,-0.899 -0.124,-0.32 -0.186,-0.739 -0.186,-1.257 0,-0.608 0.123,-1.072 0.369,-1.39 0.246,-0.318 0.577,-0.477 0.992,-0.477 0.649,0 1.106,0.295 1.371,0.883 0.147,0.333 0.221,0.722 0.221,1.166 C 0.412,-0.819 0.274,-0.323 0,0 M -0.111,0.974 C 0.06,0.856 0.234,0.685 0.412,0.459 v 0.682 h 0.837 v -4.916 c 0,-0.687 -0.1,-1.228 -0.301,-1.625 -0.376,-0.734 -1.085,-1.1 -2.128,-1.1 -0.58,0 -1.068,0.13 -1.464,0.391 -0.395,0.261 -0.617,0.669 -0.664,1.224 h 0.924 c 0.043,-0.243 0.13,-0.429 0.261,-0.561 0.204,-0.202 0.525,-0.302 0.964,-0.302 0.692,0 1.145,0.245 1.36,0.737 0.127,0.289 0.186,0.805 0.175,1.549 -0.181,-0.276 -0.398,-0.481 -0.653,-0.616 -0.255,-0.134 -0.592,-0.202 -1.011,-0.202 -0.583,0 -1.093,0.208 -1.53,0.624 -0.438,0.415 -0.656,1.102 -0.656,2.061 0,0.905 0.22,1.612 0.661,2.12 0.44,0.508 0.973,0.762 1.596,0.762 0.422,0 0.791,-0.105 1.106,-0.313"
             style="fill:#000000;fill-opacity:1;fill-rule:nonzero;stroke:none"
             id="path1995" />
        </g>
        <g
           id="g1997"
           transform="matrix(0.35277777,0,0,-0.35277777,215.86981,107.49255)">
          <path
             d="m 0,0 h 0.863 v -0.767 c 0.256,0.316 0.526,0.543 0.813,0.681 0.285,0.138 0.604,0.207 0.953,0.207 0.767,0 1.286,-0.267 1.555,-0.802 0.148,-0.293 0.222,-0.712 0.222,-1.257 V -5.405 H 3.482 v 3.406 c 0,0.33 -0.049,0.596 -0.146,0.798 -0.161,0.336 -0.454,0.505 -0.878,0.505 -0.216,0 -0.392,-0.023 -0.53,-0.066 C 1.679,-0.836 1.46,-0.984 1.272,-1.206 1.12,-1.384 1.022,-1.569 0.977,-1.759 0.931,-1.949 0.908,-2.221 0.908,-2.574 V -5.405 H 0 Z"
             style="fill:#000000;fill-opacity:1;fill-rule:nonzero;stroke:none"
             id="path1999" />
        </g>
        <g
           id="g2001"
           transform="matrix(0.35277777,0,0,-0.35277777,219.1487,108.2937)">
          <path
             d="M 0,0 C -0.037,0.394 -0.122,0.708 -0.255,0.944 -0.502,1.381 -0.914,1.6 -1.491,1.6 -1.905,1.6 -2.252,1.449 -2.532,1.148 -2.813,0.847 -2.961,0.464 -2.978,0 Z M -0.325,2.122 C 0.032,1.942 0.305,1.709 0.492,1.423 0.673,1.151 0.793,0.833 0.853,0.469 0.907,0.22 0.934,-0.177 0.934,-0.722 h -3.932 c 0.017,-0.55 0.145,-0.991 0.386,-1.323 0.24,-0.333 0.612,-0.499 1.117,-0.499 0.47,0 0.846,0.157 1.126,0.472 0.157,0.182 0.268,0.393 0.334,0.634 H 0.858 C 0.834,-1.637 0.756,-1.858 0.623,-2.102 0.49,-2.346 0.342,-2.546 0.178,-2.7 c -0.273,-0.27 -0.612,-0.451 -1.016,-0.545 -0.217,-0.054 -0.463,-0.081 -0.737,-0.081 -0.668,0 -1.235,0.245 -1.7,0.734 -0.465,0.49 -0.697,1.175 -0.697,2.057 0,0.868 0.234,1.573 0.702,2.115 0.468,0.541 1.08,0.812 1.836,0.812 0.381,0 0.751,-0.09 1.109,-0.27"
             style="fill:#000000;fill-opacity:1;fill-rule:nonzero;stroke:none"
             id="path2003" />
        </g>
        <path
           d="m 220.0535,108.21909 h 0.89359 v 0.3295 h -0.89359 z"
           style="fill:#000000;fill-opacity:1;fill-rule:nonzero;stroke:none;stroke-width:0.352778"
           id="path2005" />
        <g
           id="g2007"
           transform="matrix(0.35277777,0,0,-0.35277777,223.05557,107.14358)">
          <path
             d="m 0,0 c -0.221,0.104 -0.523,0.157 -0.907,0.157 h -1.984 v -2.569 h 1.984 c 0.448,0 0.811,0.096 1.09,0.287 0.279,0.192 0.418,0.53 0.418,1.015 0,0.545 -0.2,0.915 -0.601,1.11 m -3.895,1.019 h 3.317 c 0.656,0 1.185,-0.186 1.589,-0.557 0.403,-0.372 0.605,-0.894 0.605,-1.567 0,-0.579 -0.18,-1.083 -0.54,-1.512 C 0.716,-3.046 0.165,-3.26 -0.576,-3.26 h -2.315 v -3.134 h -1.004 z"
             style="fill:#000000;fill-opacity:1;fill-rule:nonzero;stroke:none"
             id="path2009" />
        </g>
        <g
           id="g2011"
           transform="matrix(0.35277777,0,0,-0.35277777,224.13602,109.11116)">
          <path
             d="m 0,0 c 0.192,-0.151 0.419,-0.227 0.681,-0.227 0.32,0 0.629,0.074 0.929,0.222 C 2.115,0.24 2.367,0.642 2.367,1.2 V 1.93 C 2.256,1.859 2.114,1.8 1.939,1.753 1.764,1.705 1.593,1.672 1.425,1.652 L 0.876,1.581 C 0.547,1.537 0.3,1.469 0.134,1.375 -0.147,1.217 -0.288,0.965 -0.288,0.62 -0.288,0.358 -0.192,0.151 0,0 m 1.913,2.454 c 0.209,0.027 0.348,0.114 0.419,0.262 0.04,0.081 0.06,0.198 0.06,0.35 0,0.31 -0.11,0.536 -0.33,0.676 -0.22,0.14 -0.534,0.21 -0.944,0.21 C 0.645,3.952 0.309,3.824 0.111,3.567 0,3.425 -0.072,3.213 -0.106,2.933 h -0.848 c 0.017,0.668 0.233,1.133 0.648,1.394 0.415,0.262 0.896,0.392 1.444,0.392 0.635,0 1.151,-0.121 1.548,-0.363 C 3.079,4.114 3.275,3.737 3.275,3.225 V 0.111 c 0,-0.094 0.02,-0.169 0.058,-0.227 0.039,-0.057 0.121,-0.085 0.245,-0.085 0.04,0 0.086,0.002 0.136,0.007 0.051,0.005 0.105,0.013 0.162,0.023 V -0.843 C 3.735,-0.883 3.627,-0.908 3.553,-0.918 3.479,-0.928 3.378,-0.933 3.25,-0.933 2.937,-0.933 2.71,-0.822 2.569,-0.6 2.495,-0.483 2.443,-0.316 2.412,-0.101 2.227,-0.343 1.961,-0.553 1.615,-0.731 1.268,-0.91 0.887,-0.999 0.469,-0.999 c -0.501,0 -0.911,0.152 -1.229,0.457 -0.318,0.303 -0.476,0.684 -0.476,1.141 0,0.501 0.156,0.889 0.469,1.165 0.313,0.275 0.723,0.445 1.231,0.509 z"
             style="fill:#000000;fill-opacity:1;fill-rule:nonzero;stroke:none"
             id="path2013" />
        </g>
        <g
           id="g2015"
           transform="matrix(0.35277777,0,0,-0.35277777,226.89058,107.49255)">
          <path
             d="M 0,0 H 1.004 C 0.876,-0.347 0.592,-1.138 0.151,-2.373 -0.178,-3.302 -0.454,-4.06 -0.676,-4.645 -1.2,-6.024 -1.57,-6.864 -1.785,-7.167 -2,-7.469 -2.37,-7.621 -2.895,-7.621 c -0.128,0 -0.226,0.005 -0.295,0.015 -0.069,0.011 -0.154,0.029 -0.255,0.056 v 0.827 c 0.158,-0.043 0.273,-0.07 0.343,-0.08 0.071,-0.01 0.133,-0.015 0.187,-0.015 0.167,0 0.291,0.027 0.37,0.083 0.079,0.055 0.145,0.123 0.199,0.204 0.017,0.027 0.077,0.164 0.181,0.413 0.104,0.248 0.18,0.433 0.227,0.554 L -3.937,0 h 1.03 l 1.449,-4.403 z"
             style="fill:#000000;fill-opacity:1;fill-rule:nonzero;stroke:none"
             id="path2017" />
        </g>
        <g
           id="g2019"
           transform="matrix(0.35277777,0,0,-0.35277777,227.64334,108.80114)">
          <path
             d="m 0,0 c 0.027,-0.303 0.105,-0.535 0.232,-0.696 0.233,-0.293 0.639,-0.44 1.215,-0.44 0.344,0 0.646,0.073 0.907,0.22 0.261,0.146 0.392,0.373 0.392,0.679 0,0.232 -0.105,0.409 -0.314,0.53 C 2.299,0.367 2.036,0.452 1.643,0.55 L 0.909,0.732 c -0.468,0.114 -0.814,0.242 -1.036,0.383 -0.396,0.246 -0.595,0.586 -0.595,1.02 0,0.511 0.187,0.925 0.56,1.241 0.374,0.317 0.876,0.475 1.507,0.475 0.825,0 1.42,-0.239 1.784,-0.717 C 3.358,2.831 3.469,2.505 3.462,2.155 H 2.604 C 2.587,2.359 2.513,2.545 2.382,2.712 2.168,2.95 1.798,3.069 1.271,3.069 0.92,3.069 0.654,3.003 0.473,2.872 0.292,2.742 0.202,2.569 0.202,2.355 0.202,2.12 0.321,1.932 0.558,1.791 0.695,1.707 0.898,1.633 1.165,1.57 L 1.777,1.423 C 2.442,1.265 2.888,1.112 3.114,0.964 3.467,0.732 3.644,0.367 3.644,-0.131 3.644,-0.612 3.459,-1.028 3.089,-1.378 2.72,-1.728 2.157,-1.903 1.401,-1.903 c -0.815,0 -1.391,0.183 -1.73,0.548 -0.339,0.365 -0.52,0.817 -0.544,1.355 z"
             style="fill:#000000;fill-opacity:1;fill-rule:nonzero;stroke:none"
             id="path2021" />
        </g>
        <g
           id="g2023"
           transform="matrix(0.35277777,0,0,-0.35277777,230.62131,108.98102)">
          <path
             d="m 0,0 c 0.244,-0.39 0.636,-0.585 1.175,-0.585 0.418,0 0.763,0.18 1.032,0.542 0.269,0.362 0.404,0.881 0.404,1.557 0,0.683 -0.139,1.189 -0.417,1.517 C 1.916,3.359 1.573,3.523 1.165,3.523 0.71,3.523 0.34,3.348 0.058,2.998 -0.225,2.648 -0.367,2.133 -0.367,1.453 -0.367,0.875 -0.244,0.39 0,0 M 2.028,4.053 C 2.189,3.952 2.371,3.775 2.576,3.523 v 2.73 H 3.449 V -1.186 H 2.631 v 0.752 C 2.42,-0.767 2.171,-1.008 1.882,-1.156 1.594,-1.304 1.264,-1.378 0.892,-1.378 c -0.6,0 -1.12,0.253 -1.559,0.76 -0.439,0.506 -0.658,1.18 -0.658,2.021 0,0.787 0.2,1.469 0.6,2.047 0.401,0.577 0.973,0.865 1.717,0.865 0.412,0 0.758,-0.087 1.036,-0.262"
             style="fill:#000000;fill-opacity:1;fill-rule:nonzero;stroke:none"
             id="path2025" />
        </g>
        <g
           id="g2027"
           transform="matrix(0.35277777,0,0,-0.35277777,233.57234,108.2937)">
          <path
             d="M 0,0 C -0.037,0.394 -0.122,0.708 -0.255,0.944 -0.502,1.381 -0.914,1.6 -1.491,1.6 -1.905,1.6 -2.252,1.449 -2.532,1.148 -2.812,0.847 -2.961,0.464 -2.978,0 Z M -0.325,2.122 C 0.032,1.942 0.305,1.709 0.492,1.423 0.673,1.151 0.793,0.833 0.853,0.469 0.907,0.22 0.933,-0.177 0.933,-0.722 h -3.931 c 0.017,-0.55 0.146,-0.991 0.386,-1.323 0.24,-0.333 0.612,-0.499 1.117,-0.499 0.47,0 0.846,0.157 1.126,0.472 0.157,0.182 0.268,0.393 0.334,0.634 H 0.858 C 0.834,-1.637 0.756,-1.858 0.623,-2.102 0.49,-2.346 0.342,-2.546 0.178,-2.7 c -0.273,-0.27 -0.612,-0.451 -1.016,-0.545 -0.217,-0.054 -0.463,-0.081 -0.737,-0.081 -0.668,0 -1.235,0.245 -1.7,0.734 -0.465,0.49 -0.697,1.175 -0.697,2.057 0,0.868 0.234,1.573 0.702,2.115 0.469,0.541 1.08,0.812 1.836,0.812 0.381,0 0.751,-0.09 1.109,-0.27"
             style="fill:#000000;fill-opacity:1;fill-rule:nonzero;stroke:none"
             id="path2029" />
        </g>
        <path
           d="m 235.32984,106.78399 h 0.32032 v 2.6155 h -0.32032 z"
           style="fill:#000000;fill-opacity:1;fill-rule:nonzero;stroke:none;stroke-width:0.352778"
           id="path2031" />
        <g
           id="g2033"
           transform="matrix(0.35277777,0,0,-0.35277777,236.42536,109.11116)">
          <path
             d="m 0,0 c 0.192,-0.151 0.419,-0.227 0.682,-0.227 0.319,0 0.628,0.074 0.928,0.222 C 2.115,0.24 2.367,0.642 2.367,1.2 V 1.93 C 2.256,1.859 2.114,1.8 1.939,1.753 1.764,1.705 1.593,1.672 1.425,1.652 L 0.876,1.581 C 0.547,1.537 0.3,1.469 0.134,1.375 -0.147,1.217 -0.288,0.965 -0.288,0.62 -0.288,0.358 -0.191,0.151 0,0 m 1.913,2.454 c 0.209,0.027 0.348,0.114 0.419,0.262 0.04,0.081 0.061,0.198 0.061,0.35 0,0.31 -0.111,0.536 -0.331,0.676 -0.22,0.14 -0.534,0.21 -0.944,0.21 C 0.645,3.952 0.309,3.824 0.111,3.567 0,3.425 -0.072,3.213 -0.106,2.933 h -0.848 c 0.017,0.668 0.233,1.133 0.648,1.394 0.415,0.262 0.896,0.392 1.444,0.392 0.635,0 1.151,-0.121 1.548,-0.363 0.393,-0.242 0.59,-0.619 0.59,-1.131 V 0.111 c 0,-0.094 0.019,-0.169 0.057,-0.227 0.039,-0.057 0.121,-0.085 0.245,-0.085 0.041,0 0.086,0.002 0.136,0.007 0.051,0.005 0.105,0.013 0.162,0.023 V -0.843 C 3.735,-0.883 3.627,-0.908 3.553,-0.918 3.479,-0.928 3.378,-0.933 3.25,-0.933 2.937,-0.933 2.71,-0.822 2.569,-0.6 2.495,-0.483 2.443,-0.316 2.413,-0.101 2.228,-0.343 1.962,-0.553 1.615,-0.731 1.269,-0.91 0.887,-0.999 0.47,-0.999 c -0.502,0 -0.912,0.152 -1.229,0.457 -0.318,0.303 -0.477,0.684 -0.477,1.141 0,0.501 0.156,0.889 0.469,1.165 0.313,0.275 0.724,0.445 1.231,0.509 z"
             style="fill:#000000;fill-opacity:1;fill-rule:nonzero;stroke:none"
             id="path2035" />
        </g>
        <g
           id="g2037"
           transform="matrix(0.35277777,0,0,-0.35277777,239.16192,106.78396)">
          <path
             d="m 0,0 h 1.004 v -6.531 h 3.72 V -7.414 H 0 Z"
             style="fill:#000000;fill-opacity:1;fill-rule:nonzero;stroke:none"
             id="path2039" />
        </g>
        <g
           id="g2041"
           transform="matrix(0.35277777,0,0,-0.35277777,242.21303,108.95008)">
          <path
             d="m 0,0 c 0.221,0.455 0.332,0.962 0.332,1.52 0,0.504 -0.08,0.914 -0.24,1.23 -0.252,0.497 -0.689,0.746 -1.307,0.746 -0.549,0 -0.948,-0.212 -1.198,-0.635 -0.249,-0.424 -0.374,-0.935 -0.374,-1.533 0,-0.574 0.125,-1.053 0.374,-1.436 0.25,-0.383 0.646,-0.575 1.188,-0.575 0.595,0 1.004,0.228 1.225,0.683 M 0.564,3.592 C 1.042,3.128 1.281,2.446 1.281,1.545 1.281,0.674 1.07,-0.045 0.649,-0.613 0.228,-1.181 -0.425,-1.465 -1.31,-1.465 c -0.739,0 -1.325,0.251 -1.759,0.754 -0.435,0.502 -0.652,1.177 -0.652,2.024 0,0.908 0.229,1.63 0.687,2.168 0.457,0.538 1.072,0.807 1.844,0.807 0.692,0 1.276,-0.232 1.754,-0.696"
             style="fill:#000000;fill-opacity:1;fill-rule:nonzero;stroke:none"
             id="path2043" />
        </g>
        <path
           d="m 243.01757,107.50154 h 0.32562 v 1.89795 h -0.32562 z m 0,-0.71755 h 0.32562 v 0.36301 h -0.32562 z"
           style="fill:#000000;fill-opacity:1;fill-rule:nonzero;stroke:none;stroke-width:0.352778"
           id="path2045" />
        <g
           id="g2047"
           transform="matrix(0.35277777,0,0,-0.35277777,243.78324,107.49255)">
          <path
             d="m 0,0 h 0.863 v -0.934 c 0.07,0.182 0.244,0.403 0.52,0.664 0.275,0.261 0.593,0.391 0.954,0.391 0.016,0 0.045,-0.002 0.085,-0.005 0.041,-0.004 0.109,-0.01 0.207,-0.02 V -0.863 C 2.575,-0.853 2.526,-0.846 2.48,-0.843 2.435,-0.84 2.385,-0.838 2.331,-0.838 1.874,-0.838 1.522,-0.985 1.277,-1.28 1.031,-1.574 0.908,-1.913 0.908,-2.296 V -5.405 H 0 Z"
             style="fill:#000000;fill-opacity:1;fill-rule:nonzero;stroke:none"
             id="path2049" />
        </g>
        <g
           id="g2051"
           transform="matrix(0.35277777,0,0,-0.35277777,246.22577,108.2937)">
          <path
             d="M 0,0 C -0.037,0.394 -0.122,0.708 -0.255,0.944 -0.502,1.381 -0.914,1.6 -1.491,1.6 -1.905,1.6 -2.252,1.449 -2.532,1.148 -2.812,0.847 -2.961,0.464 -2.978,0 Z M -0.325,2.122 C 0.032,1.942 0.305,1.709 0.492,1.423 0.673,1.151 0.793,0.833 0.853,0.469 0.907,0.22 0.933,-0.177 0.933,-0.722 h -3.931 c 0.017,-0.55 0.146,-0.991 0.386,-1.323 0.24,-0.333 0.612,-0.499 1.117,-0.499 0.47,0 0.846,0.157 1.126,0.472 0.157,0.182 0.268,0.393 0.334,0.634 H 0.858 C 0.834,-1.637 0.756,-1.858 0.623,-2.102 0.49,-2.346 0.342,-2.546 0.178,-2.7 c -0.273,-0.27 -0.612,-0.451 -1.016,-0.545 -0.217,-0.054 -0.463,-0.081 -0.737,-0.081 -0.668,0 -1.235,0.245 -1.7,0.734 -0.465,0.49 -0.697,1.175 -0.697,2.057 0,0.868 0.234,1.573 0.702,2.115 0.469,0.541 1.08,0.812 1.836,0.812 0.382,0 0.751,-0.09 1.109,-0.27"
             style="fill:#000000;fill-opacity:1;fill-rule:nonzero;stroke:none"
             id="path2053" />
        </g>
        <g
           id="g2055"
           transform="matrix(0.35277777,0,0,-0.35277777,206.79961,110.33424)">
          <path
             d="M 0,0 -1.348,-1.458 H -2.044 L -1.12,0 Z m -3.876,-2.044 h 5.38 V -2.952 H -2.897 V -5.203 H 1.171 V -6.061 H -2.897 V -8.575 H 1.58 v -0.883 h -5.456 z"
             style="fill:#000000;fill-opacity:1;fill-rule:nonzero;stroke:none"
             id="path2057" />
        </g>
        <g
           id="g2059"
           transform="matrix(0.35277777,0,0,-0.35277777,208.94453,111.8654)">
          <path
             d="m 0,0 c 0.382,-0.296 0.612,-0.806 0.689,-1.529 h -0.883 c -0.054,0.333 -0.177,0.61 -0.369,0.83 -0.192,0.22 -0.499,0.331 -0.923,0.331 -0.579,0 -0.993,-0.283 -1.242,-0.847 -0.161,-0.366 -0.242,-0.819 -0.242,-1.356 0,-0.541 0.114,-0.997 0.343,-1.366 0.229,-0.37 0.589,-0.555 1.08,-0.555 0.377,0 0.676,0.115 0.896,0.345 0.22,0.229 0.373,0.543 0.457,0.942 h 0.883 c -0.101,-0.716 -0.353,-1.241 -0.757,-1.572 -0.404,-0.331 -0.92,-0.497 -1.549,-0.497 -0.707,0 -1.271,0.258 -1.691,0.775 -0.421,0.516 -0.631,1.161 -0.631,1.935 0,0.949 0.23,1.688 0.691,2.216 0.461,0.528 1.049,0.792 1.762,0.792 C -0.877,0.444 -0.382,0.296 0,0"
             style="fill:#000000;fill-opacity:1;fill-rule:nonzero;stroke:none"
             id="path2061" />
        </g>
        <g
           id="g2063"
           transform="matrix(0.35277777,0,0,-0.35277777,210.69724,113.22145)">
          <path
             d="m 0,0 c 0.221,0.455 0.332,0.962 0.332,1.52 0,0.504 -0.08,0.914 -0.24,1.23 -0.252,0.497 -0.688,0.746 -1.307,0.746 -0.549,0 -0.948,-0.212 -1.198,-0.635 -0.249,-0.424 -0.374,-0.935 -0.374,-1.533 0,-0.574 0.125,-1.053 0.374,-1.436 0.25,-0.383 0.646,-0.575 1.188,-0.575 0.595,0 1.004,0.228 1.225,0.683 M 0.564,3.592 C 1.042,3.128 1.281,2.446 1.281,1.545 1.281,0.674 1.07,-0.045 0.649,-0.613 0.228,-1.181 -0.425,-1.465 -1.31,-1.465 c -0.739,0 -1.325,0.251 -1.759,0.754 -0.435,0.502 -0.652,1.177 -0.652,2.024 0,0.908 0.229,1.63 0.687,2.168 0.457,0.538 1.072,0.807 1.844,0.807 0.692,0 1.276,-0.232 1.754,-0.696"
             style="fill:#000000;fill-opacity:1;fill-rule:nonzero;stroke:none"
             id="path2065" />
        </g>
        <path
           d="m 211.50711,111.05543 h 0.32032 v 2.61549 h -0.32032 z"
           style="fill:#000000;fill-opacity:1;fill-rule:nonzero;stroke:none;stroke-width:0.352778"
           id="path2067" />
        <g
           id="g2069"
           transform="matrix(0.35277777,0,0,-0.35277777,213.56532,112.56503)">
          <path
             d="M 0,0 C -0.037,0.393 -0.122,0.708 -0.255,0.944 -0.502,1.381 -0.914,1.6 -1.491,1.6 -1.905,1.6 -2.252,1.449 -2.532,1.148 -2.813,0.847 -2.961,0.464 -2.978,0 Z M -0.325,2.122 C 0.032,1.942 0.305,1.709 0.492,1.423 0.673,1.151 0.793,0.832 0.853,0.469 0.907,0.22 0.934,-0.177 0.934,-0.722 h -3.932 c 0.017,-0.55 0.145,-0.991 0.386,-1.323 0.24,-0.333 0.612,-0.499 1.117,-0.499 0.47,0 0.846,0.157 1.126,0.471 0.157,0.183 0.268,0.394 0.334,0.635 H 0.858 C 0.834,-1.637 0.756,-1.858 0.623,-2.102 0.49,-2.346 0.342,-2.546 0.178,-2.7 c -0.273,-0.27 -0.612,-0.451 -1.016,-0.545 -0.217,-0.054 -0.463,-0.081 -0.737,-0.081 -0.668,0 -1.235,0.245 -1.7,0.734 -0.465,0.49 -0.697,1.175 -0.697,2.057 0,0.868 0.234,1.573 0.702,2.115 0.468,0.541 1.08,0.812 1.836,0.812 0.381,0 0.751,-0.09 1.109,-0.27"
             style="fill:#000000;fill-opacity:1;fill-rule:nonzero;stroke:none"
             id="path2071" />
        </g>
        <g
           id="g2073"
           transform="matrix(0.35277777,0,0,-0.35277777,215.34752,111.05525)">
          <path
             d="M 0,0 H 1.439 L 3.571,-6.269 5.687,0 H 7.116 V -7.414 H 6.157 v 4.376 c 0,0.151 0.004,0.401 0.01,0.752 0.007,0.349 0.01,0.725 0.01,1.125 L 4.061,-7.414 H 3.065 l -2.136,6.253 v -0.227 c 0,-0.182 0.005,-0.459 0.015,-0.83 0.01,-0.372 0.015,-0.645 0.015,-0.82 V -7.414 H 0 Z"
             style="fill:#000000;fill-opacity:1;fill-rule:nonzero;stroke:none"
             id="path2075" />
        </g>
        <path
           d="m 218.32172,111.77262 h 0.32561 v 1.89795 h -0.32561 z m 0,-0.71719 h 0.32561 v 0.363 h -0.32561 z"
           style="fill:#000000;fill-opacity:1;fill-rule:nonzero;stroke:none;stroke-width:0.352778"
           id="path2077" />
        <g
           id="g2079"
           transform="matrix(0.35277777,0,0,-0.35277777,219.08241,111.76394)">
          <path
             d="m 0,0 h 0.863 v -0.767 c 0.256,0.316 0.526,0.543 0.813,0.681 0.285,0.138 0.604,0.207 0.953,0.207 0.767,0 1.286,-0.267 1.555,-0.802 0.148,-0.293 0.222,-0.712 0.222,-1.257 V -5.405 H 3.482 v 3.406 c 0,0.33 -0.049,0.596 -0.146,0.798 -0.161,0.336 -0.454,0.505 -0.878,0.505 -0.216,0 -0.392,-0.023 -0.53,-0.066 C 1.679,-0.836 1.46,-0.984 1.272,-1.206 1.12,-1.384 1.022,-1.569 0.977,-1.759 0.931,-1.949 0.908,-2.221 0.908,-2.574 V -5.405 H 0 Z"
             style="fill:#000000;fill-opacity:1;fill-rule:nonzero;stroke:none"
             id="path2081" />
        </g>
        <g
           id="g2083"
           transform="matrix(0.35277777,0,0,-0.35277777,222.36127,112.56503)">
          <path
             d="M 0,0 C -0.037,0.393 -0.122,0.708 -0.255,0.944 -0.502,1.381 -0.914,1.6 -1.491,1.6 -1.905,1.6 -2.252,1.449 -2.532,1.148 -2.813,0.847 -2.961,0.464 -2.978,0 Z M -0.325,2.122 C 0.032,1.942 0.305,1.709 0.492,1.423 0.673,1.151 0.793,0.832 0.853,0.469 0.907,0.22 0.934,-0.177 0.934,-0.722 h -3.932 c 0.017,-0.55 0.145,-0.991 0.386,-1.323 0.24,-0.333 0.612,-0.499 1.117,-0.499 0.47,0 0.846,0.157 1.126,0.471 0.157,0.183 0.268,0.394 0.334,0.635 H 0.858 C 0.834,-1.637 0.756,-1.858 0.623,-2.102 0.49,-2.346 0.342,-2.546 0.178,-2.7 c -0.273,-0.27 -0.612,-0.451 -1.016,-0.545 -0.217,-0.054 -0.463,-0.081 -0.737,-0.081 -0.668,0 -1.235,0.245 -1.7,0.734 -0.465,0.49 -0.697,1.175 -0.697,2.057 0,0.868 0.234,1.573 0.702,2.115 0.468,0.541 1.08,0.812 1.836,0.812 0.381,0 0.751,-0.09 1.109,-0.27"
             style="fill:#000000;fill-opacity:1;fill-rule:nonzero;stroke:none"
             id="path2085" />
        </g>
        <g
           id="g2087"
           transform="matrix(0.35277777,0,0,-0.35277777,223.23316,113.0725)">
          <path
             d="m 0,0 c 0.027,-0.303 0.105,-0.535 0.232,-0.696 0.233,-0.293 0.639,-0.44 1.215,-0.44 0.344,0 0.646,0.073 0.907,0.22 0.261,0.146 0.392,0.373 0.392,0.679 0,0.232 -0.105,0.409 -0.314,0.53 C 2.299,0.366 2.036,0.452 1.643,0.55 L 0.909,0.732 c -0.468,0.114 -0.814,0.242 -1.036,0.383 -0.396,0.246 -0.595,0.586 -0.595,1.02 0,0.511 0.187,0.925 0.56,1.242 0.374,0.316 0.876,0.474 1.507,0.474 0.825,0 1.42,-0.239 1.784,-0.717 C 3.358,2.831 3.469,2.505 3.462,2.155 H 2.604 C 2.587,2.359 2.513,2.545 2.382,2.712 2.168,2.95 1.798,3.069 1.271,3.069 0.92,3.069 0.654,3.003 0.473,2.872 0.292,2.742 0.202,2.569 0.202,2.354 0.202,2.12 0.321,1.932 0.558,1.791 0.695,1.707 0.898,1.633 1.165,1.569 L 1.777,1.423 C 2.442,1.265 2.888,1.112 3.114,0.964 3.467,0.732 3.644,0.366 3.644,-0.131 3.644,-0.612 3.459,-1.028 3.089,-1.378 2.72,-1.728 2.157,-1.903 1.401,-1.903 c -0.815,0 -1.391,0.183 -1.73,0.548 -0.339,0.365 -0.52,0.817 -0.544,1.355 z"
             style="fill:#000000;fill-opacity:1;fill-rule:nonzero;stroke:none"
             id="path2089" />
        </g>
        <path
           d="m 224.92431,112.49053 h 0.89358 v 0.32914 h -0.89358 z"
           style="fill:#000000;fill-opacity:1;fill-rule:nonzero;stroke:none;stroke-width:0.352778"
           id="path2091" />
        <g
           id="g2093"
           transform="matrix(0.35277777,0,0,-0.35277777,227.73252,111.05525)">
          <path
             d="m 0,0 v -0.883 h -2.498 v -6.531 h -1.015 v 6.531 H -6.011 V 0 Z"
             style="fill:#000000;fill-opacity:1;fill-rule:nonzero;stroke:none"
             id="path2095" />
        </g>
        <g
           id="g2097"
           transform="matrix(0.35277777,0,0,-0.35277777,228.805,112.56503)">
          <path
             d="M 0,0 C -0.037,0.393 -0.122,0.708 -0.255,0.944 -0.502,1.381 -0.914,1.6 -1.491,1.6 -1.905,1.6 -2.252,1.449 -2.532,1.148 -2.813,0.847 -2.961,0.464 -2.978,0 Z M -0.325,2.122 C 0.032,1.942 0.305,1.709 0.492,1.423 0.673,1.151 0.793,0.832 0.853,0.469 0.907,0.22 0.934,-0.177 0.934,-0.722 h -3.932 c 0.017,-0.55 0.145,-0.991 0.386,-1.323 0.24,-0.333 0.612,-0.499 1.117,-0.499 0.47,0 0.846,0.157 1.126,0.471 0.157,0.183 0.268,0.394 0.334,0.635 H 0.858 C 0.834,-1.637 0.756,-1.858 0.623,-2.102 0.49,-2.346 0.342,-2.546 0.178,-2.7 c -0.273,-0.27 -0.612,-0.451 -1.016,-0.545 -0.217,-0.054 -0.463,-0.081 -0.737,-0.081 -0.668,0 -1.235,0.245 -1.7,0.734 -0.465,0.49 -0.697,1.175 -0.697,2.057 0,0.868 0.234,1.573 0.702,2.115 0.468,0.541 1.08,0.812 1.836,0.812 0.382,0 0.751,-0.09 1.109,-0.27"
             style="fill:#000000;fill-opacity:1;fill-rule:nonzero;stroke:none"
             id="path2099" />
        </g>
        <path
           d="m 229.49313,111.05543 h 0.32032 v 2.61549 h -0.32032 z"
           style="fill:#000000;fill-opacity:1;fill-rule:nonzero;stroke:none;stroke-width:0.352778"
           id="path2101" />
        <g
           id="g2103"
           transform="matrix(0.35277777,0,0,-0.35277777,231.55152,112.56503)">
          <path
             d="M 0,0 C -0.037,0.393 -0.122,0.708 -0.255,0.944 -0.502,1.381 -0.914,1.6 -1.491,1.6 -1.905,1.6 -2.252,1.449 -2.532,1.148 -2.812,0.847 -2.961,0.464 -2.978,0 Z M -0.325,2.122 C 0.032,1.942 0.305,1.709 0.492,1.423 0.673,1.151 0.793,0.832 0.853,0.469 0.907,0.22 0.933,-0.177 0.933,-0.722 h -3.931 c 0.017,-0.55 0.146,-0.991 0.386,-1.323 0.24,-0.333 0.612,-0.499 1.117,-0.499 0.47,0 0.846,0.157 1.126,0.471 0.157,0.183 0.268,0.394 0.334,0.635 H 0.858 C 0.834,-1.637 0.756,-1.858 0.623,-2.102 0.49,-2.346 0.342,-2.546 0.178,-2.7 c -0.273,-0.27 -0.612,-0.451 -1.016,-0.545 -0.217,-0.054 -0.463,-0.081 -0.737,-0.081 -0.668,0 -1.235,0.245 -1.7,0.734 -0.465,0.49 -0.697,1.175 -0.697,2.057 0,0.868 0.234,1.573 0.702,2.115 0.469,0.541 1.08,0.812 1.836,0.812 0.381,0 0.751,-0.09 1.109,-0.27"
             style="fill:#000000;fill-opacity:1;fill-rule:nonzero;stroke:none"
             id="path2105" />
        </g>
        <g
           id="g2107"
           transform="matrix(0.35277777,0,0,-0.35277777,233.51504,111.8654)">
          <path
             d="m 0,0 c 0.382,-0.296 0.611,-0.806 0.689,-1.529 h -0.883 c -0.054,0.333 -0.177,0.61 -0.369,0.83 -0.192,0.22 -0.499,0.331 -0.923,0.331 -0.579,0 -0.993,-0.283 -1.242,-0.847 -0.161,-0.366 -0.242,-0.819 -0.242,-1.356 0,-0.541 0.114,-0.997 0.343,-1.366 0.229,-0.37 0.589,-0.555 1.08,-0.555 0.377,0 0.676,0.115 0.896,0.345 0.22,0.229 0.373,0.543 0.457,0.942 h 0.883 c -0.101,-0.716 -0.353,-1.241 -0.757,-1.572 -0.404,-0.331 -0.92,-0.497 -1.55,-0.497 -0.706,0 -1.27,0.258 -1.69,0.775 -0.421,0.516 -0.631,1.161 -0.631,1.935 0,0.949 0.23,1.688 0.691,2.216 0.461,0.528 1.049,0.792 1.762,0.792 C -0.877,0.444 -0.382,0.296 0,0"
             style="fill:#000000;fill-opacity:1;fill-rule:nonzero;stroke:none"
             id="path2109" />
        </g>
        <g
           id="g2111"
           transform="matrix(0.35277777,0,0,-0.35277777,235.26768,113.22145)">
          <path
             d="m 0,0 c 0.221,0.455 0.332,0.962 0.332,1.52 0,0.504 -0.08,0.914 -0.24,1.23 -0.252,0.497 -0.689,0.746 -1.307,0.746 -0.549,0 -0.948,-0.212 -1.198,-0.635 -0.249,-0.424 -0.374,-0.935 -0.374,-1.533 0,-0.574 0.125,-1.053 0.374,-1.436 0.25,-0.383 0.646,-0.575 1.188,-0.575 0.595,0 1.004,0.228 1.225,0.683 M 0.564,3.592 C 1.042,3.128 1.281,2.446 1.281,1.545 1.281,0.674 1.07,-0.045 0.649,-0.613 0.228,-1.181 -0.425,-1.465 -1.31,-1.465 c -0.739,0 -1.325,0.251 -1.759,0.754 -0.435,0.502 -0.652,1.177 -0.652,2.024 0,0.908 0.229,1.63 0.687,2.168 0.457,0.538 1.072,0.807 1.844,0.807 0.692,0 1.276,-0.232 1.754,-0.696"
             style="fill:#000000;fill-opacity:1;fill-rule:nonzero;stroke:none"
             id="path2113" />
        </g>
        <g
           id="g2115"
           transform="matrix(0.35277777,0,0,-0.35277777,236.06817,111.76394)">
          <path
             d="m 0,0 h 0.898 v -0.767 c 0.216,0.266 0.411,0.459 0.586,0.58 0.299,0.205 0.639,0.308 1.019,0.308 0.431,0 0.777,-0.106 1.04,-0.318 0.148,-0.121 0.282,-0.299 0.404,-0.535 0.202,0.29 0.439,0.504 0.711,0.644 0.273,0.139 0.579,0.209 0.919,0.209 0.727,0 1.221,-0.262 1.483,-0.787 0.142,-0.283 0.213,-0.663 0.213,-1.14 V -5.405 H 6.329 v 3.755 c 0,0.36 -0.09,0.607 -0.27,0.742 -0.181,0.134 -0.4,0.201 -0.659,0.201 -0.357,0 -0.664,-0.119 -0.921,-0.358 C 4.222,-1.304 4.093,-1.702 4.093,-2.261 V -5.405 H 3.169 v 3.528 c 0,0.367 -0.043,0.634 -0.131,0.802 C 2.9,-0.822 2.643,-0.696 2.266,-0.696 1.923,-0.696 1.611,-0.83 1.33,-1.095 1.049,-1.361 0.908,-1.842 0.908,-2.539 V -5.405 H 0 Z"
             style="fill:#000000;fill-opacity:1;fill-rule:nonzero;stroke:none"
             id="path2117" />
        </g>
        <g
           id="g2119"
           transform="matrix(0.35277777,0,0,-0.35277777,228.67694,110.99736)">
          <path
             d="M 0,0 -1.347,-1.458 H -2.043 L -1.12,0 Z"
             style="fill:#000000;fill-opacity:1;fill-rule:nonzero;stroke:none"
             id="path2121" />
        </g>
        <g
           id="g2123"
           transform="matrix(0.35277777,0,0,-0.35277777,231.42342,110.99736)">
          <path
             d="M 0,0 -1.347,-1.458 H -2.043 L -1.12,0 Z"
             style="fill:#000000;fill-opacity:1;fill-rule:nonzero;stroke:none"
             id="path2125" />
        </g>
      </g>
      <g
         id="g2127"
         transform="matrix(0.35277777,0,0,-0.35277777,218.92807,85.827546)">
        <path
           d="M 0,0 -38.267,-38.27 V 0 Z"
           style="fill:#00b4d5;fill-opacity:1;fill-rule:nonzero;stroke:none"
           id="path2129" />
      </g>
      <g
         id="g2131"
         transform="matrix(0.35277777,0,0,-0.35277777,232.42859,85.827546)">
        <path
           d="M 0,0 V -38.27 H -38.269 V 0 l 19.135,-19.135 z"
           style="fill:#00b4d5;fill-opacity:1;fill-rule:nonzero;stroke:none"
           id="path2133" />
      </g>
      <g
         id="g2135"
         transform="matrix(0.35277777,0,0,-0.35277777,239.17889,99.328211)">
        <path
           d="M 0,0 V 19.135 H -19.135 L 0,38.27 h 38.267 z"
           style="fill:#00b4d5;fill-opacity:1;fill-rule:nonzero;stroke:none"
           id="path2137" />
      </g>
    </g>
  </g>
</svg>
