<?xml version="1.0" encoding="UTF-8" standalone="no"?>
<!-- Generator: Adobe Illustrator 16.0.0, SVG Export Plug-In . SVG Version: 6.00 Build 0)  -->

<svg
   xmlns:dc="http://purl.org/dc/elements/1.1/"
   xmlns:cc="http://creativecommons.org/ns#"
   xmlns:rdf="http://www.w3.org/1999/02/22-rdf-syntax-ns#"
   xmlns:svg="http://www.w3.org/2000/svg"
   xmlns="http://www.w3.org/2000/svg"
   xmlns:sodipodi="http://sodipodi.sourceforge.net/DTD/sodipodi-0.dtd"
   xmlns:inkscape="http://www.inkscape.org/namespaces/inkscape"
   version="1.1"
   x="0px"
   y="0px"
   width="1000"
   height="332.026"
   viewBox="0 0 999.99999 332.02601"
   enable-background="new 0 0 91.026 30.223"
   xml:space="preserve"
   id="svg2"
   inkscape:version="0.91 r13725"
   sodipodi:docname="Samsung.svg"><metadata
   id="metadata34"><rdf:RDF><cc:Work
       rdf:about=""><dc:format>image/svg+xml</dc:format><dc:type
         rdf:resource="http://purl.org/dc/dcmitype/StillImage" /><dc:title></dc:title></cc:Work></rdf:RDF></metadata><defs
   id="defs32">
	

		
		
	
			
		
				
				
				
				
				
				
				
			
			
		</defs><sodipodi:namedview
   pagecolor="#ffffff"
   bordercolor="#666666"
   borderopacity="1"
   objecttolerance="10"
   gridtolerance="10"
   guidetolerance="10"
   inkscape:pageopacity="0"
   inkscape:pageshadow="2"
   inkscape:window-width="1366"
   inkscape:window-height="705"
   id="namedview30"
   showgrid="false"
   inkscape:zoom="0.70710678"
   inkscape:cx="466.89155"
   inkscape:cy="185.27065"
   inkscape:window-x="-8"
   inkscape:window-y="-8"
   inkscape:window-maximized="1"
   inkscape:current-layer="svg2" />
<g
   id="g8882"
   transform="translate(0,115.62801)"><path
     d="M 999.37988,-36.576795 C 1013.0024,41.489166 800.47976,143.72416 524.64523,191.76559 248.84366,239.80703 14.217322,215.42927 0.61675033,137.33035 -12.972835,59.253402 199.60476,-42.94863 475.40633,-90.979081 751.21889,-139.04249 985.80128,-114.66473 999.37988,-36.576795 Z"
     id="path10"
     inkscape:connector-curvature="0"
     style="fill:#034ea2" /><g
     id="g8872"><polygon
       points="67.34,17.745 67.211,10.356 69.541,10.356 69.541,19.669 66.191,19.669 63.866,12.026 63.816,12.026 63.945,19.669 61.63,19.669 61.63,10.356 65.125,10.356 67.288,17.745 "
       id="polygon16"
       style="fill:#ffffff"
       transform="matrix(10.985922,0,0,10.985922,0.0015387,-115.63149)" /><polygon
       points="24.987,11.228 23.698,19.767 21.157,19.767 22.902,10.356 27.088,10.356 28.825,19.767 26.294,19.767 25.04,11.228 "
       id="polygon18"
       style="fill:#ffffff"
       transform="matrix(10.985922,0,0,10.985922,0.0015387,-115.63149)" /><polygon
       points="34.743,19.767 33.169,11.306 33.118,11.306 33.059,19.767 30.702,19.767 30.91,10.356 34.75,10.356 35.912,17.55 35.962,17.55 37.125,10.356 40.963,10.356 41.167,19.767 38.815,19.767 38.753,11.306 38.704,11.306 37.131,19.767 "
       id="polygon20"
       style="fill:#ffffff"
       transform="matrix(10.985922,0,0,10.985922,0.0015387,-115.63149)" /><path
       d="m 188.89348,72.359607 c 1.01071,2.50479 0.7031,5.723666 0.23071,7.668174 -0.86789,3.438593 -3.19691,6.943103 -10.07409,6.943103 -6.4817,0 -10.41466,-3.713242 -10.41466,-9.392964 l 0,-10.008175 -27.72847,0 -0.022,8.008737 c 0,23.048465 18.14875,30.002558 37.59383,30.002558 18.69804,0 34.1003,-6.393811 36.55016,-23.619737 1.2524,-8.931554 0.31859,-14.776065 -0.10986,-16.984235 -4.36141,-21.642267 -43.60312,-28.101989 -46.52538,-40.208475 -0.49437,-2.076339 -0.35155,-4.273523 -0.10986,-5.449017 0.71409,-3.295777 2.97719,-6.932117 9.44789,-6.932117 6.04226,0 9.61269,3.735214 9.61269,9.381977 0,1.900565 0,6.382821 0,6.382821 l 25.78396,0 0,-7.261694 c 0,-22.5211404 -20.2141,-26.0366354 -34.85834,-26.0366354 -18.39043,0 -33.41917,6.07521482 -36.16565,22.9056474 -0.74704,4.647045 -0.8569,8.788738 0.2307,13.974093 4.51522,21.125928 41.24116,27.245086 46.55834,40.625939 z"
       id="path22"
       inkscape:connector-curvature="0"
       style="fill:#ffffff" /><path
       d="m 525.08467,72.172847 c 1.02169,2.482818 0.69211,5.613806 0.2307,7.558314 -0.84592,3.427608 -3.15296,6.877187 -9.9862,6.877187 -6.39381,0 -10.29381,-3.713242 -10.29381,-9.261132 l -0.022,-9.920288 -27.44284,0 -0.033,7.898878 c 0,22.81776 17.98395,29.705934 37.23129,29.705934 18.50029,0 33.75973,-6.30592 36.16565,-23.378043 1.2524,-8.865639 0.36254,-14.633248 -0.0879,-16.797474 -4.33944,-21.44452 -43.18566,-27.838327 -46.07495,-39.823968 -0.49437,-2.065353 -0.35155,-4.240566 -0.0989,-5.350144 0.73606,-3.317748 2.95522,-6.866201 9.36001,-6.866201 5.98733,0 9.48085,3.647326 9.48085,9.250146 0,1.878593 0,6.316905 0,6.316905 l 25.58621,0 0,-7.184792 c 0,-22.2794503 -20.04931,-25.7729735 -34.55072,-25.7729735 -18.1817,0 -33.0896,5.9983134 -35.78115,22.7079005 -0.74704,4.58113 -0.82394,8.645921 0.24169,13.809304 4.4493,20.90621 40.8127,26.981425 46.07496,40.230447 z"
       id="path24"
       inkscape:connector-curvature="0"
       style="fill:#ffffff" /><path
       d="m 611.92838,86.059052 c 7.17381,0 9.41494,-4.965637 9.9093,-7.503385 0.20873,-1.120564 0.26366,-2.614649 0.24169,-3.954932 l 0,-76.5059605 26.1465,0 0,74.1659595 c 0.0549,1.900564 -0.13183,5.811553 -0.21972,6.7893 -1.83465,19.302265 -17.0941,25.564236 -36.08876,25.564236 -19.01663,0 -34.28706,-6.261971 -36.09974,-25.564236 -0.0879,-0.977747 -0.27464,-4.888736 -0.21971,-6.7893 l 0,-74.1659595 26.12452,0 0,76.5059605 c 0,1.340283 0.0439,2.845354 0.24169,3.954932 0.56028,2.537748 2.73549,7.503385 9.96423,7.503385 z"
       id="path26"
       inkscape:connector-curvature="0"
       style="fill:#ffffff" /><path
       d="m 827.604,84.971446 c 7.4924,0 10.10705,-4.734933 10.59043,-7.492399 0.18676,-1.18648 0.24169,-2.625635 0.2307,-3.93296 l 0,-15.00677 -10.6124,0 0,-15.094656 36.66002,0 0,27.750439 c -0.022,1.933522 -0.0659,3.361692 -0.37352,6.811271 -1.72479,18.807899 -18.03888,25.520299 -36.3634,25.520299 -18.35747,0 -34.6496,-6.7124 -36.39636,-25.520299 -0.29662,-3.449579 -0.34056,-4.877749 -0.37352,-6.811271 l 0.022,-43.537209 c 0,-1.834649 0.23071,-5.086482 0.42845,-6.811272 2.29606,-19.3242368 17.96199,-25.5422686 36.31946,-25.5422686 18.33551,0 34.38594,6.185074 36.2865,25.5422686 0.34057,3.295777 0.23071,6.811272 0.23071,6.811272 l 0,3.449579 -26.0696,0 0,-5.789581 c 0.022,0.01099 -0.033,-2.460846 -0.34056,-3.93296 -0.43944,-2.285072 -2.42789,-7.536342 -10.30479,-7.536342 -7.53635,0 -9.74452,4.965636 -10.29381,7.536342 -0.3186,1.362255 -0.43944,3.207889 -0.43944,4.87775 l 0,47.283408 c -0.022,1.307325 0.0549,2.74648 0.26366,3.93296 0.45042,2.768452 3.05409,7.492399 10.5355,7.492399 z"
       id="path28"
       inkscape:connector-curvature="0"
       style="fill:#ffffff" /></g></g>
</svg>