<svg width="573" height="471" viewBox="0 0 573 471" fill="none" xmlns="http://www.w3.org/2000/svg">
<rect width="502" height="39" transform="translate(32)" fill="var(--vscode-editorGroupHeader-tabsBackground, #252526)"/>
<g clip-path="url(#clip0_4_7625)">
<rect width="136.145" height="39.2998" transform="translate(32)" fill="var(--vscode-tab-activeBackground, #1e1e1e)"/>
<path d="M55.6541 14.0299C56.0008 14.0299 56.2941 14.1566 56.5341 14.4099C56.7875 14.6499 56.9141 14.9432 56.9141 15.2899V24.0099C56.9141 24.3566 56.7875 24.6566 56.5341 24.9099C56.2941 25.1499 56.0008 25.2699 55.6541 25.2699H49.7341C49.3875 25.2699 49.0875 25.1499 48.8341 24.9099C48.5941 24.6566 48.4741 24.3566 48.4741 24.0099V15.2899C48.4741 14.9432 48.5941 14.6499 48.8341 14.4099C49.0875 14.1566 49.3875 14.0299 49.7341 14.0299H55.6541ZM57.4741 21.3299H57.8941C58.0008 21.3299 58.0941 21.3699 58.1741 21.4499C58.2541 21.5166 58.3008 21.6032 58.3141 21.7099V22.6099C58.3141 22.7166 58.2808 22.8099 58.2141 22.8899C58.1475 22.9566 58.0608 23.0032 57.9541 23.0299H57.4741V21.3299H57.8941H57.4741ZM57.4741 19.0899H57.8941C58.0008 19.0899 58.0941 19.1232 58.1741 19.1899C58.2541 19.2566 58.3008 19.3432 58.3141 19.4499V20.3499C58.3141 20.4566 58.2808 20.5499 58.2141 20.6299C58.1475 20.7099 58.0608 20.7566 57.9541 20.7699H57.4741V19.0899H57.8941H57.4741ZM57.4741 16.8299H57.8941C58.0008 16.8299 58.0941 16.8699 58.1741 16.9499C58.2541 17.0166 58.3008 17.1032 58.3141 17.2099V18.1099C58.3141 18.2166 58.2808 18.3099 58.2141 18.3899C58.1475 18.4566 58.0608 18.5032 57.9541 18.5299H57.4741V16.8299H57.8941H57.4741ZM54.5141 15.9899H50.8741C50.7675 15.9899 50.6741 16.0299 50.5941 16.1099C50.5141 16.1766 50.4675 16.2566 50.4541 16.3499L50.4341 17.2699C50.4341 17.3632 50.4675 17.4499 50.5341 17.5299C50.6141 17.6099 50.7075 17.6566 50.8141 17.6699L54.5141 17.6899C54.6208 17.6899 54.7141 17.6566 54.7941 17.5899C54.8741 17.5099 54.9208 17.4166 54.9341 17.3099L54.9541 16.4099C54.9541 16.2899 54.9075 16.1899 54.8141 16.1099C54.7341 16.0299 54.6341 15.9899 54.5141 15.9899Z" fill="#519ABA"/>
<rect x="65.9656" y="15.7198" width="88.7052" height="7.85995" rx="3.92998" fill="var(--vscode-tab-activeForeground, #FFFFFF)" fill-opacity="0.12"/>
</g>
<g filter="url(#filter0_d_4_7625)">
<rect width="542" height="380" transform="translate(12 39)" fill="var(--vscode-quickInput-background)"/>
<rect x="29" y="111" width="4" height="90" rx="2" fill="var(--vscode-focusBorder, #007FD4)"/>
<path d="M44.7867 115.973L43.9867 116.4V128.4L44.7867 128.827L53.8 122.853V122L44.7867 115.973ZM45 127.493V117.36L52.6267 122.427L45 127.493Z" fill="var(--vscode-menu-foreground, #CCCCCC)"/>
<path d="M67 124.08L71.32 119.707L71.96 120.347L67.2667 124.987H66.68L61.9867 120.347L62.6267 119.707L67 124.08Z" fill="var(--vscode-menu-foreground, #CCCCCC)"/>
<rect x="79.5" y="111.5" width="459" height="99" fill="var(--vscode-notificationCenterHeader-background, #303031)" stroke="#424750"/>
<path d="M104.852 129.461H107.611V135.162H109.75V136H104.395V135.162H106.533V130.299H104.852V129.461ZM106.533 126.912H107.611V128.271H106.533V126.912ZM114.191 130.105C114.324 129.824 114.492 129.617 114.695 129.484C114.902 129.348 115.15 129.279 115.439 129.279C115.967 129.279 116.338 129.484 116.553 129.895C116.771 130.301 116.881 131.068 116.881 132.197V136H115.896V132.244C115.896 131.318 115.844 130.744 115.738 130.521C115.637 130.295 115.449 130.182 115.176 130.182C114.863 130.182 114.648 130.303 114.531 130.545C114.418 130.783 114.361 131.35 114.361 132.244V136H113.377V132.244C113.377 131.307 113.32 130.729 113.207 130.51C113.098 130.291 112.898 130.182 112.609 130.182C112.324 130.182 112.125 130.303 112.012 130.545C111.902 130.783 111.848 131.35 111.848 132.244V136H110.869V129.438H111.848V130C111.977 129.766 112.137 129.588 112.328 129.467C112.523 129.342 112.744 129.279 112.99 129.279C113.287 129.279 113.533 129.348 113.729 129.484C113.928 129.621 114.082 129.828 114.191 130.105ZM119.658 135.174V138.496H118.574V129.438H119.658V130.275C119.838 129.951 120.076 129.705 120.373 129.537C120.674 129.365 121.02 129.279 121.41 129.279C122.203 129.279 122.824 129.586 123.273 130.199C123.727 130.812 123.953 131.662 123.953 132.748C123.953 133.814 123.727 134.652 123.273 135.262C122.82 135.867 122.199 136.17 121.41 136.17C121.012 136.17 120.662 136.086 120.361 135.918C120.064 135.746 119.83 135.498 119.658 135.174ZM122.822 132.725C122.822 131.889 122.689 131.258 122.424 130.832C122.162 130.406 121.771 130.193 121.252 130.193C120.729 130.193 120.332 130.408 120.062 130.838C119.793 131.264 119.658 131.893 119.658 132.725C119.658 133.553 119.793 134.182 120.062 134.611C120.332 135.041 120.729 135.256 121.252 135.256C121.771 135.256 122.162 135.043 122.424 134.617C122.689 134.191 122.822 133.561 122.822 132.725ZM128.301 130.193C127.754 130.193 127.34 130.406 127.059 130.832C126.777 131.258 126.637 131.889 126.637 132.725C126.637 133.557 126.777 134.188 127.059 134.617C127.34 135.043 127.754 135.256 128.301 135.256C128.852 135.256 129.268 135.043 129.549 134.617C129.83 134.188 129.971 133.557 129.971 132.725C129.971 131.889 129.83 131.258 129.549 130.832C129.268 130.406 128.852 130.193 128.301 130.193ZM128.301 129.279C129.211 129.279 129.906 129.574 130.387 130.164C130.871 130.754 131.113 131.607 131.113 132.725C131.113 133.846 130.873 134.701 130.393 135.291C129.912 135.877 129.215 136.17 128.301 136.17C127.391 136.17 126.695 135.877 126.215 135.291C125.734 134.701 125.494 133.846 125.494 132.725C125.494 131.607 125.734 130.754 126.215 130.164C126.695 129.574 127.391 129.279 128.301 129.279ZM138.689 130.791C138.459 130.611 138.225 130.48 137.986 130.398C137.748 130.316 137.486 130.275 137.201 130.275C136.529 130.275 136.016 130.486 135.66 130.908C135.305 131.33 135.127 131.939 135.127 132.736V136H134.043V129.438H135.127V130.721C135.307 130.256 135.582 129.9 135.953 129.654C136.328 129.404 136.771 129.279 137.283 129.279C137.549 129.279 137.797 129.312 138.027 129.379C138.258 129.445 138.479 129.549 138.689 129.689V130.791ZM142.75 127.574V129.438H145.199V130.275H142.75V133.838C142.75 134.322 142.842 134.66 143.025 134.852C143.209 135.043 143.529 135.139 143.986 135.139H145.199V136H143.881C143.072 136 142.502 135.838 142.17 135.514C141.838 135.189 141.672 134.631 141.672 133.838V130.275H139.92V129.438H141.672V127.574H142.75ZM208.34 132.701H207.982C207.354 132.701 206.879 132.812 206.559 133.035C206.242 133.254 206.084 133.582 206.084 134.02C206.084 134.414 206.203 134.721 206.441 134.939C206.68 135.158 207.01 135.268 207.432 135.268C208.025 135.268 208.492 135.062 208.832 134.652C209.172 134.238 209.344 133.668 209.348 132.941V132.701H208.34ZM210.432 132.256V136H209.348V135.027C209.117 135.418 208.826 135.707 208.475 135.895C208.127 136.078 207.703 136.17 207.203 136.17C206.535 136.17 206.002 135.982 205.604 135.607C205.205 135.229 205.006 134.723 205.006 134.09C205.006 133.359 205.25 132.805 205.738 132.426C206.23 132.047 206.951 131.857 207.9 131.857H209.348V131.688C209.344 131.164 209.211 130.785 208.949 130.551C208.688 130.312 208.27 130.193 207.695 130.193C207.328 130.193 206.957 130.246 206.582 130.352C206.207 130.457 205.842 130.611 205.486 130.814V129.736C205.885 129.584 206.266 129.471 206.629 129.396C206.996 129.318 207.352 129.279 207.695 129.279C208.238 129.279 208.701 129.359 209.084 129.52C209.471 129.68 209.783 129.92 210.021 130.24C210.17 130.436 210.275 130.678 210.338 130.967C210.4 131.252 210.432 131.682 210.432 132.256ZM217.158 129.666V130.721C216.85 130.541 216.539 130.406 216.227 130.316C215.914 130.227 215.596 130.182 215.271 130.182C214.783 130.182 214.418 130.262 214.176 130.422C213.938 130.578 213.818 130.818 213.818 131.143C213.818 131.436 213.908 131.654 214.088 131.799C214.268 131.943 214.715 132.084 215.43 132.221L215.863 132.303C216.398 132.404 216.803 132.607 217.076 132.912C217.354 133.217 217.492 133.613 217.492 134.102C217.492 134.75 217.262 135.258 216.801 135.625C216.34 135.988 215.699 136.17 214.879 136.17C214.555 136.17 214.215 136.135 213.859 136.064C213.504 135.998 213.119 135.896 212.705 135.76V134.646C213.107 134.854 213.492 135.01 213.859 135.115C214.227 135.217 214.574 135.268 214.902 135.268C215.379 135.268 215.748 135.172 216.01 134.98C216.271 134.785 216.402 134.514 216.402 134.166C216.402 133.666 215.924 133.32 214.967 133.129L214.92 133.117L214.516 133.035C213.895 132.914 213.441 132.711 213.156 132.426C212.871 132.137 212.729 131.744 212.729 131.248C212.729 130.619 212.941 130.135 213.367 129.795C213.793 129.451 214.4 129.279 215.189 129.279C215.541 129.279 215.879 129.312 216.203 129.379C216.527 129.441 216.846 129.537 217.158 129.666ZM104.852 147.461H107.611V153.162H109.75V154H104.395V153.162H106.533V148.299H104.852V147.461ZM106.533 144.912H107.611V146.271H106.533V144.912ZM114.191 148.105C114.324 147.824 114.492 147.617 114.695 147.484C114.902 147.348 115.15 147.279 115.439 147.279C115.967 147.279 116.338 147.484 116.553 147.895C116.771 148.301 116.881 149.068 116.881 150.197V154H115.896V150.244C115.896 149.318 115.844 148.744 115.738 148.521C115.637 148.295 115.449 148.182 115.176 148.182C114.863 148.182 114.648 148.303 114.531 148.545C114.418 148.783 114.361 149.35 114.361 150.244V154H113.377V150.244C113.377 149.307 113.32 148.729 113.207 148.51C113.098 148.291 112.898 148.182 112.609 148.182C112.324 148.182 112.125 148.303 112.012 148.545C111.902 148.783 111.848 149.35 111.848 150.244V154H110.869V147.438H111.848V148C111.977 147.766 112.137 147.588 112.328 147.467C112.523 147.342 112.744 147.279 112.99 147.279C113.287 147.279 113.533 147.348 113.729 147.484C113.928 147.621 114.082 147.828 114.191 148.105ZM119.658 153.174V156.496H118.574V147.438H119.658V148.275C119.838 147.951 120.076 147.705 120.373 147.537C120.674 147.365 121.02 147.279 121.41 147.279C122.203 147.279 122.824 147.586 123.273 148.199C123.727 148.812 123.953 149.662 123.953 150.748C123.953 151.814 123.727 152.652 123.273 153.262C122.82 153.867 122.199 154.17 121.41 154.17C121.012 154.17 120.662 154.086 120.361 153.918C120.064 153.746 119.83 153.498 119.658 153.174ZM122.822 150.725C122.822 149.889 122.689 149.258 122.424 148.832C122.162 148.406 121.771 148.193 121.252 148.193C120.729 148.193 120.332 148.408 120.062 148.838C119.793 149.264 119.658 149.893 119.658 150.725C119.658 151.553 119.793 152.182 120.062 152.611C120.332 153.041 120.729 153.256 121.252 153.256C121.771 153.256 122.162 153.043 122.424 152.617C122.689 152.191 122.822 151.561 122.822 150.725ZM128.301 148.193C127.754 148.193 127.34 148.406 127.059 148.832C126.777 149.258 126.637 149.889 126.637 150.725C126.637 151.557 126.777 152.188 127.059 152.617C127.34 153.043 127.754 153.256 128.301 153.256C128.852 153.256 129.268 153.043 129.549 152.617C129.83 152.188 129.971 151.557 129.971 150.725C129.971 149.889 129.83 149.258 129.549 148.832C129.268 148.406 128.852 148.193 128.301 148.193ZM128.301 147.279C129.211 147.279 129.906 147.574 130.387 148.164C130.871 148.754 131.113 149.607 131.113 150.725C131.113 151.846 130.873 152.701 130.393 153.291C129.912 153.877 129.215 154.17 128.301 154.17C127.391 154.17 126.695 153.877 126.215 153.291C125.734 152.701 125.494 151.846 125.494 150.725C125.494 149.607 125.734 148.754 126.215 148.164C126.695 147.574 127.391 147.279 128.301 147.279ZM138.689 148.791C138.459 148.611 138.225 148.48 137.986 148.398C137.748 148.316 137.486 148.275 137.201 148.275C136.529 148.275 136.016 148.486 135.66 148.908C135.305 149.33 135.127 149.939 135.127 150.736V154H134.043V147.438H135.127V148.721C135.307 148.256 135.582 147.9 135.953 147.654C136.328 147.404 136.771 147.279 137.283 147.279C137.549 147.279 137.797 147.312 138.027 147.379C138.258 147.445 138.479 147.549 138.689 147.689V148.791ZM142.75 145.574V147.438H145.199V148.275H142.75V151.838C142.75 152.322 142.842 152.66 143.025 152.852C143.209 153.043 143.529 153.139 143.986 153.139H145.199V154H143.881C143.072 154 142.502 153.838 142.17 153.514C141.838 153.189 141.672 152.631 141.672 151.838V148.275H139.92V147.438H141.672V145.574H142.75ZM201.109 150.701H200.752C200.123 150.701 199.648 150.812 199.328 151.035C199.012 151.254 198.854 151.582 198.854 152.02C198.854 152.414 198.973 152.721 199.211 152.939C199.449 153.158 199.779 153.268 200.201 153.268C200.795 153.268 201.262 153.062 201.602 152.652C201.941 152.238 202.113 151.668 202.117 150.941V150.701H201.109ZM203.201 150.256V154H202.117V153.027C201.887 153.418 201.596 153.707 201.244 153.895C200.896 154.078 200.473 154.17 199.973 154.17C199.305 154.17 198.771 153.982 198.373 153.607C197.975 153.229 197.775 152.723 197.775 152.09C197.775 151.359 198.02 150.805 198.508 150.426C199 150.047 199.721 149.857 200.67 149.857H202.117V149.688C202.113 149.164 201.98 148.785 201.719 148.551C201.457 148.312 201.039 148.193 200.465 148.193C200.098 148.193 199.727 148.246 199.352 148.352C198.977 148.457 198.611 148.611 198.256 148.814V147.736C198.654 147.584 199.035 147.471 199.398 147.396C199.766 147.318 200.121 147.279 200.465 147.279C201.008 147.279 201.471 147.359 201.854 147.52C202.24 147.68 202.553 147.92 202.791 148.24C202.939 148.436 203.045 148.678 203.107 148.967C203.17 149.252 203.201 149.682 203.201 150.256ZM209.928 147.666V148.721C209.619 148.541 209.309 148.406 208.996 148.316C208.684 148.227 208.365 148.182 208.041 148.182C207.553 148.182 207.188 148.262 206.945 148.422C206.707 148.578 206.588 148.818 206.588 149.143C206.588 149.436 206.678 149.654 206.857 149.799C207.037 149.943 207.484 150.084 208.199 150.221L208.633 150.303C209.168 150.404 209.572 150.607 209.846 150.912C210.123 151.217 210.262 151.613 210.262 152.102C210.262 152.75 210.031 153.258 209.57 153.625C209.109 153.988 208.469 154.17 207.648 154.17C207.324 154.17 206.984 154.135 206.629 154.064C206.273 153.998 205.889 153.896 205.475 153.76V152.646C205.877 152.854 206.262 153.01 206.629 153.115C206.996 153.217 207.344 153.268 207.672 153.268C208.148 153.268 208.518 153.172 208.779 152.98C209.041 152.785 209.172 152.514 209.172 152.166C209.172 151.666 208.693 151.32 207.736 151.129L207.689 151.117L207.285 151.035C206.664 150.914 206.211 150.711 205.926 150.426C205.641 150.137 205.498 149.744 205.498 149.248C205.498 148.619 205.711 148.135 206.137 147.795C206.562 147.451 207.17 147.279 207.959 147.279C208.311 147.279 208.648 147.312 208.973 147.379C209.297 147.441 209.615 147.537 209.928 147.666Z" fill="#C586C0"/>
<path d="M108.027 166.275V162.883H109.105V172H108.027V171.174C107.848 171.498 107.607 171.746 107.307 171.918C107.01 172.086 106.666 172.17 106.275 172.17C105.482 172.17 104.857 171.863 104.4 171.25C103.947 170.633 103.721 169.783 103.721 168.701C103.721 167.635 103.949 166.799 104.406 166.193C104.863 165.584 105.486 165.279 106.275 165.279C106.67 165.279 107.018 165.365 107.318 165.537C107.619 165.705 107.855 165.951 108.027 166.275ZM104.857 168.725C104.857 169.561 104.99 170.191 105.256 170.617C105.521 171.043 105.914 171.256 106.434 171.256C106.953 171.256 107.348 171.041 107.617 170.611C107.891 170.182 108.027 169.553 108.027 168.725C108.027 167.893 107.891 167.264 107.617 166.838C107.348 166.408 106.953 166.193 106.434 166.193C105.914 166.193 105.521 166.406 105.256 166.832C104.99 167.258 104.857 167.889 104.857 168.725ZM114.344 168.701H113.986C113.357 168.701 112.883 168.812 112.562 169.035C112.246 169.254 112.088 169.582 112.088 170.02C112.088 170.414 112.207 170.721 112.445 170.939C112.684 171.158 113.014 171.268 113.436 171.268C114.029 171.268 114.496 171.062 114.836 170.652C115.176 170.238 115.348 169.668 115.352 168.941V168.701H114.344ZM116.436 168.256V172H115.352V171.027C115.121 171.418 114.83 171.707 114.479 171.895C114.131 172.078 113.707 172.17 113.207 172.17C112.539 172.17 112.006 171.982 111.607 171.607C111.209 171.229 111.01 170.723 111.01 170.09C111.01 169.359 111.254 168.805 111.742 168.426C112.234 168.047 112.955 167.857 113.904 167.857H115.352V167.688C115.348 167.164 115.215 166.785 114.953 166.551C114.691 166.312 114.273 166.193 113.699 166.193C113.332 166.193 112.961 166.246 112.586 166.352C112.211 166.457 111.846 166.611 111.49 166.814V165.736C111.889 165.584 112.27 165.471 112.633 165.396C113 165.318 113.355 165.279 113.699 165.279C114.242 165.279 114.705 165.359 115.088 165.52C115.475 165.68 115.787 165.92 116.025 166.24C116.174 166.436 116.279 166.678 116.342 166.967C116.404 167.252 116.436 167.682 116.436 168.256ZM121.059 163.574V165.438H123.508V166.275H121.059V169.838C121.059 170.322 121.15 170.66 121.334 170.852C121.518 171.043 121.838 171.139 122.295 171.139H123.508V172H122.189C121.381 172 120.811 171.838 120.479 171.514C120.146 171.189 119.98 170.631 119.98 169.838V166.275H118.229V165.438H119.98V163.574H121.059ZM128.805 168.701H128.447C127.818 168.701 127.344 168.812 127.023 169.035C126.707 169.254 126.549 169.582 126.549 170.02C126.549 170.414 126.668 170.721 126.906 170.939C127.145 171.158 127.475 171.268 127.896 171.268C128.49 171.268 128.957 171.062 129.297 170.652C129.637 170.238 129.809 169.668 129.812 168.941V168.701H128.805ZM130.896 168.256V172H129.812V171.027C129.582 171.418 129.291 171.707 128.939 171.895C128.592 172.078 128.168 172.17 127.668 172.17C127 172.17 126.467 171.982 126.068 171.607C125.67 171.229 125.471 170.723 125.471 170.09C125.471 169.359 125.715 168.805 126.203 168.426C126.695 168.047 127.416 167.857 128.365 167.857H129.812V167.688C129.809 167.164 129.676 166.785 129.414 166.551C129.152 166.312 128.734 166.193 128.16 166.193C127.793 166.193 127.422 166.246 127.047 166.352C126.672 166.457 126.307 166.611 125.951 166.814V165.736C126.35 165.584 126.73 165.471 127.094 165.396C127.461 165.318 127.816 165.279 128.16 165.279C128.703 165.279 129.166 165.359 129.549 165.52C129.936 165.68 130.248 165.92 130.486 166.24C130.635 166.436 130.74 166.678 130.803 166.967C130.865 167.252 130.896 167.682 130.896 168.256Z" fill="#9CDCFE"/>
<path d="M155.811 135.174V138.496H154.727V129.438H155.811V130.275C155.99 129.951 156.229 129.705 156.525 129.537C156.826 129.365 157.172 129.279 157.562 129.279C158.355 129.279 158.977 129.586 159.426 130.199C159.879 130.812 160.105 131.662 160.105 132.748C160.105 133.814 159.879 134.652 159.426 135.262C158.973 135.867 158.352 136.17 157.562 136.17C157.164 136.17 156.814 136.086 156.514 135.918C156.217 135.746 155.982 135.498 155.811 135.174ZM158.975 132.725C158.975 131.889 158.842 131.258 158.576 130.832C158.314 130.406 157.924 130.193 157.404 130.193C156.881 130.193 156.484 130.408 156.215 130.838C155.945 131.264 155.811 131.893 155.811 132.725C155.811 133.553 155.945 134.182 156.215 134.611C156.484 135.041 156.881 135.256 157.404 135.256C157.924 135.256 158.314 135.043 158.576 134.617C158.842 134.191 158.975 133.561 158.975 132.725ZM164.957 132.701H164.6C163.971 132.701 163.496 132.812 163.176 133.035C162.859 133.254 162.701 133.582 162.701 134.02C162.701 134.414 162.82 134.721 163.059 134.939C163.297 135.158 163.627 135.268 164.049 135.268C164.643 135.268 165.109 135.062 165.449 134.652C165.789 134.238 165.961 133.668 165.965 132.941V132.701H164.957ZM167.049 132.256V136H165.965V135.027C165.734 135.418 165.443 135.707 165.092 135.895C164.744 136.078 164.32 136.17 163.82 136.17C163.152 136.17 162.619 135.982 162.221 135.607C161.822 135.229 161.623 134.723 161.623 134.09C161.623 133.359 161.867 132.805 162.355 132.426C162.848 132.047 163.568 131.857 164.518 131.857H165.965V131.688C165.961 131.164 165.828 130.785 165.566 130.551C165.305 130.312 164.887 130.193 164.312 130.193C163.945 130.193 163.574 130.246 163.199 130.352C162.824 130.457 162.459 130.611 162.104 130.814V129.736C162.502 129.584 162.883 129.471 163.246 129.396C163.613 129.318 163.969 129.279 164.312 129.279C164.855 129.279 165.318 129.359 165.701 129.52C166.088 129.68 166.4 129.92 166.639 130.24C166.787 130.436 166.893 130.678 166.955 130.967C167.018 131.252 167.049 131.682 167.049 132.256ZM174.232 131.934V136H173.148V131.934C173.148 131.344 173.045 130.91 172.838 130.633C172.631 130.355 172.307 130.217 171.865 130.217C171.361 130.217 170.973 130.396 170.699 130.756C170.43 131.111 170.295 131.623 170.295 132.291V136H169.217V129.438H170.295V130.422C170.486 130.047 170.746 129.764 171.074 129.572C171.402 129.377 171.791 129.279 172.24 129.279C172.908 129.279 173.406 129.5 173.734 129.941C174.066 130.379 174.232 131.043 174.232 131.934ZM180.332 130.275V126.883H181.41V136H180.332V135.174C180.152 135.498 179.912 135.746 179.611 135.918C179.314 136.086 178.971 136.17 178.58 136.17C177.787 136.17 177.162 135.863 176.705 135.25C176.252 134.633 176.025 133.783 176.025 132.701C176.025 131.635 176.254 130.799 176.711 130.193C177.168 129.584 177.791 129.279 178.58 129.279C178.975 129.279 179.322 129.365 179.623 129.537C179.924 129.705 180.16 129.951 180.332 130.275ZM177.162 132.725C177.162 133.561 177.295 134.191 177.561 134.617C177.826 135.043 178.219 135.256 178.738 135.256C179.258 135.256 179.652 135.041 179.922 134.611C180.195 134.182 180.332 133.553 180.332 132.725C180.332 131.893 180.195 131.264 179.922 130.838C179.652 130.408 179.258 130.193 178.738 130.193C178.219 130.193 177.826 130.406 177.561 130.832C177.295 131.258 177.162 131.889 177.162 132.725ZM186.648 132.701H186.291C185.662 132.701 185.188 132.812 184.867 133.035C184.551 133.254 184.393 133.582 184.393 134.02C184.393 134.414 184.512 134.721 184.75 134.939C184.988 135.158 185.318 135.268 185.74 135.268C186.334 135.268 186.801 135.062 187.141 134.652C187.48 134.238 187.652 133.668 187.656 132.941V132.701H186.648ZM188.74 132.256V136H187.656V135.027C187.426 135.418 187.135 135.707 186.783 135.895C186.436 136.078 186.012 136.17 185.512 136.17C184.844 136.17 184.311 135.982 183.912 135.607C183.514 135.229 183.314 134.723 183.314 134.09C183.314 133.359 183.559 132.805 184.047 132.426C184.539 132.047 185.26 131.857 186.209 131.857H187.656V131.688C187.652 131.164 187.52 130.785 187.258 130.551C186.996 130.312 186.578 130.193 186.004 130.193C185.637 130.193 185.266 130.246 184.891 130.352C184.516 130.457 184.15 130.611 183.795 130.814V129.736C184.193 129.584 184.574 129.471 184.938 129.396C185.305 129.318 185.66 129.279 186.004 129.279C186.547 129.279 187.01 129.359 187.393 129.52C187.779 129.68 188.092 129.92 188.33 130.24C188.479 130.436 188.584 130.678 188.646 130.967C188.709 131.252 188.74 131.682 188.74 132.256ZM195.467 129.666V130.721C195.158 130.541 194.848 130.406 194.535 130.316C194.223 130.227 193.904 130.182 193.58 130.182C193.092 130.182 192.727 130.262 192.484 130.422C192.246 130.578 192.127 130.818 192.127 131.143C192.127 131.436 192.217 131.654 192.396 131.799C192.576 131.943 193.023 132.084 193.738 132.221L194.172 132.303C194.707 132.404 195.111 132.607 195.385 132.912C195.662 133.217 195.801 133.613 195.801 134.102C195.801 134.75 195.57 135.258 195.109 135.625C194.648 135.988 194.008 136.17 193.188 136.17C192.863 136.17 192.523 136.135 192.168 136.064C191.812 135.998 191.428 135.896 191.014 135.76V134.646C191.416 134.854 191.801 135.01 192.168 135.115C192.535 135.217 192.883 135.268 193.211 135.268C193.688 135.268 194.057 135.172 194.318 134.98C194.58 134.785 194.711 134.514 194.711 134.166C194.711 133.666 194.232 133.32 193.275 133.129L193.229 133.117L192.824 133.035C192.203 132.914 191.75 132.711 191.465 132.426C191.18 132.137 191.037 131.744 191.037 131.248C191.037 130.619 191.25 130.135 191.676 129.795C192.102 129.451 192.709 129.279 193.498 129.279C193.85 129.279 194.188 129.312 194.512 129.379C194.836 129.441 195.154 129.537 195.467 129.666ZM228.115 135.174V138.496H227.031V129.438H228.115V130.275C228.295 129.951 228.533 129.705 228.83 129.537C229.131 129.365 229.477 129.279 229.867 129.279C230.66 129.279 231.281 129.586 231.73 130.199C232.184 130.812 232.41 131.662 232.41 132.748C232.41 133.814 232.184 134.652 231.73 135.262C231.277 135.867 230.656 136.17 229.867 136.17C229.469 136.17 229.119 136.086 228.818 135.918C228.521 135.746 228.287 135.498 228.115 135.174ZM231.279 132.725C231.279 131.889 231.146 131.258 230.881 130.832C230.619 130.406 230.229 130.193 229.709 130.193C229.186 130.193 228.789 130.408 228.52 130.838C228.25 131.264 228.115 131.893 228.115 132.725C228.115 133.553 228.25 134.182 228.52 134.611C228.789 135.041 229.186 135.256 229.709 135.256C230.229 135.256 230.619 135.043 230.881 134.617C231.146 134.191 231.279 133.561 231.279 132.725ZM238.176 130.275V126.883H239.254V136H238.176V135.174C237.996 135.498 237.756 135.746 237.455 135.918C237.158 136.086 236.814 136.17 236.424 136.17C235.631 136.17 235.006 135.863 234.549 135.25C234.096 134.633 233.869 133.783 233.869 132.701C233.869 131.635 234.098 130.799 234.555 130.193C235.012 129.584 235.635 129.279 236.424 129.279C236.818 129.279 237.166 129.365 237.467 129.537C237.768 129.705 238.004 129.951 238.176 130.275ZM235.006 132.725C235.006 133.561 235.139 134.191 235.404 134.617C235.67 135.043 236.062 135.256 236.582 135.256C237.102 135.256 237.496 135.041 237.766 134.611C238.039 134.182 238.176 133.553 238.176 132.725C238.176 131.893 238.039 131.264 237.766 130.838C237.496 130.408 237.102 130.193 236.582 130.193C236.062 130.193 235.67 130.406 235.404 130.832C235.139 131.258 235.006 131.889 235.006 132.725ZM159.771 149.934V154H158.688V149.934C158.688 149.344 158.584 148.91 158.377 148.633C158.17 148.355 157.846 148.217 157.404 148.217C156.9 148.217 156.512 148.396 156.238 148.756C155.969 149.111 155.834 149.623 155.834 150.291V154H154.756V147.438H155.834V148.422C156.025 148.047 156.285 147.764 156.613 147.572C156.941 147.377 157.33 147.279 157.779 147.279C158.447 147.279 158.945 147.5 159.273 147.941C159.605 148.379 159.771 149.043 159.771 149.934ZM161.986 151.516V147.449H163.064V151.516C163.064 152.105 163.168 152.539 163.375 152.816C163.586 153.094 163.91 153.232 164.348 153.232C164.855 153.232 165.244 153.055 165.514 152.699C165.783 152.34 165.918 151.826 165.918 151.158V147.449H167.002V154H165.918V153.016C165.727 153.395 165.465 153.682 165.133 153.877C164.805 154.072 164.42 154.17 163.979 154.17C163.307 154.17 162.807 153.951 162.479 153.514C162.15 153.072 161.986 152.406 161.986 151.516ZM172.035 148.105C172.168 147.824 172.336 147.617 172.539 147.484C172.746 147.348 172.994 147.279 173.283 147.279C173.811 147.279 174.182 147.484 174.396 147.895C174.615 148.301 174.725 149.068 174.725 150.197V154H173.74V150.244C173.74 149.318 173.688 148.744 173.582 148.521C173.48 148.295 173.293 148.182 173.02 148.182C172.707 148.182 172.492 148.303 172.375 148.545C172.262 148.783 172.205 149.35 172.205 150.244V154H171.221V150.244C171.221 149.307 171.164 148.729 171.051 148.51C170.941 148.291 170.742 148.182 170.453 148.182C170.168 148.182 169.969 148.303 169.855 148.545C169.746 148.783 169.691 149.35 169.691 150.244V154H168.713V147.438H169.691V148C169.82 147.766 169.98 147.588 170.172 147.467C170.367 147.342 170.588 147.279 170.834 147.279C171.131 147.279 171.377 147.348 171.572 147.484C171.771 147.621 171.926 147.828 172.035 148.105ZM177.502 153.174V156.496H176.418V147.438H177.502V148.275C177.682 147.951 177.92 147.705 178.217 147.537C178.518 147.365 178.863 147.279 179.254 147.279C180.047 147.279 180.668 147.586 181.117 148.199C181.57 148.812 181.797 149.662 181.797 150.748C181.797 151.814 181.57 152.652 181.117 153.262C180.664 153.867 180.043 154.17 179.254 154.17C178.855 154.17 178.506 154.086 178.205 153.918C177.908 153.746 177.674 153.498 177.502 153.174ZM180.666 150.725C180.666 149.889 180.533 149.258 180.268 148.832C180.006 148.406 179.615 148.193 179.096 148.193C178.572 148.193 178.176 148.408 177.906 148.838C177.637 149.264 177.502 149.893 177.502 150.725C177.502 151.553 177.637 152.182 177.906 152.611C178.176 153.041 178.572 153.256 179.096 153.256C179.615 153.256 180.006 153.043 180.268 152.617C180.533 152.191 180.666 151.561 180.666 150.725ZM187.562 151.891C187.383 152.348 187.154 152.949 186.877 153.695C186.49 154.727 186.23 155.355 186.098 155.582C185.918 155.887 185.693 156.115 185.424 156.268C185.154 156.42 184.84 156.496 184.48 156.496H183.613V155.594H184.252C184.568 155.594 184.816 155.502 184.996 155.318C185.176 155.135 185.404 154.66 185.682 153.895L183.145 147.438H184.287L186.232 152.57L188.148 147.438H189.291L187.562 151.891ZM224.846 149.934V154H223.762V149.934C223.762 149.344 223.658 148.91 223.451 148.633C223.244 148.355 222.92 148.217 222.479 148.217C221.975 148.217 221.586 148.396 221.312 148.756C221.043 149.111 220.908 149.623 220.908 150.291V154H219.83V147.438H220.908V148.422C221.1 148.047 221.359 147.764 221.688 147.572C222.016 147.377 222.404 147.279 222.854 147.279C223.521 147.279 224.02 147.5 224.348 147.941C224.68 148.379 224.846 149.043 224.846 149.934ZM228.115 153.174V156.496H227.031V147.438H228.115V148.275C228.295 147.951 228.533 147.705 228.83 147.537C229.131 147.365 229.477 147.279 229.867 147.279C230.66 147.279 231.281 147.586 231.73 148.199C232.184 148.812 232.41 149.662 232.41 150.748C232.41 151.814 232.184 152.652 231.73 153.262C231.277 153.867 230.656 154.17 229.867 154.17C229.469 154.17 229.119 154.086 228.818 153.918C228.521 153.746 228.287 153.498 228.115 153.174ZM231.279 150.725C231.279 149.889 231.146 149.258 230.881 148.832C230.619 148.406 230.229 148.193 229.709 148.193C229.186 148.193 228.789 148.408 228.52 148.838C228.25 149.264 228.115 149.893 228.115 150.725C228.115 151.553 228.25 152.182 228.52 152.611C228.789 153.041 229.186 153.256 229.709 153.256C230.229 153.256 230.619 153.043 230.881 152.617C231.146 152.191 231.279 151.561 231.279 150.725ZM155.811 171.174V174.496H154.727V165.438H155.811V166.275C155.99 165.951 156.229 165.705 156.525 165.537C156.826 165.365 157.172 165.279 157.562 165.279C158.355 165.279 158.977 165.586 159.426 166.199C159.879 166.812 160.105 167.662 160.105 168.748C160.105 169.814 159.879 170.652 159.426 171.262C158.973 171.867 158.352 172.17 157.562 172.17C157.164 172.17 156.814 172.086 156.514 171.918C156.217 171.746 155.982 171.498 155.811 171.174ZM158.975 168.725C158.975 167.889 158.842 167.258 158.576 166.832C158.314 166.406 157.924 166.193 157.404 166.193C156.881 166.193 156.484 166.408 156.215 166.838C155.945 167.264 155.811 167.893 155.811 168.725C155.811 169.553 155.945 170.182 156.215 170.611C156.484 171.041 156.881 171.256 157.404 171.256C157.924 171.256 158.314 171.043 158.576 170.617C158.842 170.191 158.975 169.561 158.975 168.725ZM165.871 166.275V162.883H166.949V172H165.871V171.174C165.691 171.498 165.451 171.746 165.15 171.918C164.854 172.086 164.51 172.17 164.119 172.17C163.326 172.17 162.701 171.863 162.244 171.25C161.791 170.633 161.564 169.783 161.564 168.701C161.564 167.635 161.793 166.799 162.25 166.193C162.707 165.584 163.33 165.279 164.119 165.279C164.514 165.279 164.861 165.365 165.162 165.537C165.463 165.705 165.699 165.951 165.871 166.275ZM162.701 168.725C162.701 169.561 162.834 170.191 163.1 170.617C163.365 171.043 163.758 171.256 164.277 171.256C164.797 171.256 165.191 171.041 165.461 170.611C165.734 170.182 165.871 169.553 165.871 168.725C165.871 167.893 165.734 167.264 165.461 166.838C165.191 166.408 164.797 166.193 164.277 166.193C163.758 166.193 163.365 166.406 163.1 166.832C162.834 167.258 162.701 167.889 162.701 168.725Z" fill="#4EC9B0"/>
<path d="M139.668 169.07H145.861V170.061H139.668V169.07ZM139.668 166.311H145.861V167.301H139.668V166.311ZM170.354 169.633H172.416V172H170.354V169.633ZM238.158 162.309C237.639 163.199 237.25 164.088 236.992 164.975C236.738 165.857 236.611 166.748 236.611 167.646C236.611 168.541 236.738 169.432 236.992 170.318C237.25 171.205 237.639 172.098 238.158 172.996H237.221C236.631 172.066 236.191 171.162 235.902 170.283C235.613 169.4 235.469 168.521 235.469 167.646C235.469 166.775 235.613 165.898 235.902 165.016C236.191 164.133 236.631 163.23 237.221 162.309H238.158ZM314.723 162.309H315.66C316.25 163.23 316.689 164.133 316.979 165.016C317.268 165.898 317.412 166.775 317.412 167.646C317.412 168.525 317.268 169.406 316.979 170.289C316.689 171.172 316.25 172.074 315.66 172.996H314.723C315.242 172.09 315.629 171.193 315.883 170.307C316.141 169.42 316.27 168.533 316.27 167.646C316.27 166.756 316.141 165.867 315.883 164.98C315.629 164.094 315.242 163.203 314.723 162.309Z" fill="var(--vscode-menu-foreground, #D4D4D4)"/>
<path d="M182.072 166.791C181.842 166.611 181.607 166.48 181.369 166.398C181.131 166.316 180.869 166.275 180.584 166.275C179.912 166.275 179.398 166.486 179.043 166.908C178.688 167.33 178.51 167.939 178.51 168.736V172H177.426V165.438H178.51V166.721C178.689 166.256 178.965 165.9 179.336 165.654C179.711 165.404 180.154 165.279 180.666 165.279C180.932 165.279 181.18 165.312 181.41 165.379C181.641 165.445 181.861 165.549 182.072 165.689V166.791ZM189.098 168.18V168.707H184.428V168.742C184.396 169.637 184.566 170.279 184.938 170.67C185.312 171.061 185.84 171.256 186.52 171.256C186.863 171.256 187.223 171.201 187.598 171.092C187.973 170.982 188.373 170.816 188.799 170.594V171.666C188.389 171.834 187.992 171.959 187.609 172.041C187.23 172.127 186.863 172.17 186.508 172.17C185.488 172.17 184.691 171.865 184.117 171.256C183.543 170.643 183.256 169.799 183.256 168.725C183.256 167.678 183.537 166.842 184.1 166.217C184.662 165.592 185.412 165.279 186.35 165.279C187.186 165.279 187.844 165.562 188.324 166.129C188.809 166.695 189.066 167.379 189.098 168.18ZM188.02 167.863C187.973 167.41 187.807 167.02 187.521 166.691C187.24 166.359 186.834 166.193 186.303 166.193C185.783 166.193 185.355 166.365 185.02 166.709C184.684 167.053 184.5 167.439 184.469 167.869L188.02 167.863ZM193.879 168.701H193.521C192.893 168.701 192.418 168.812 192.098 169.035C191.781 169.254 191.623 169.582 191.623 170.02C191.623 170.414 191.742 170.721 191.98 170.939C192.219 171.158 192.549 171.268 192.971 171.268C193.564 171.268 194.031 171.062 194.371 170.652C194.711 170.238 194.883 169.668 194.887 168.941V168.701H193.879ZM195.971 168.256V172H194.887V171.027C194.656 171.418 194.365 171.707 194.014 171.895C193.666 172.078 193.242 172.17 192.742 172.17C192.074 172.17 191.541 171.982 191.143 171.607C190.744 171.229 190.545 170.723 190.545 170.09C190.545 169.359 190.789 168.805 191.277 168.426C191.77 168.047 192.49 167.857 193.439 167.857H194.887V167.688C194.883 167.164 194.75 166.785 194.488 166.551C194.227 166.312 193.809 166.193 193.234 166.193C192.867 166.193 192.496 166.246 192.121 166.352C191.746 166.457 191.381 166.611 191.025 166.814V165.736C191.424 165.584 191.805 165.471 192.168 165.396C192.535 165.318 192.891 165.279 193.234 165.279C193.777 165.279 194.24 165.359 194.623 165.52C195.01 165.68 195.322 165.92 195.561 166.24C195.709 166.436 195.814 166.678 195.877 166.967C195.939 167.252 195.971 167.682 195.971 168.256ZM202.023 166.275V162.883H203.102V172H202.023V171.174C201.844 171.498 201.604 171.746 201.303 171.918C201.006 172.086 200.662 172.17 200.271 172.17C199.479 172.17 198.854 171.863 198.396 171.25C197.943 170.633 197.717 169.783 197.717 168.701C197.717 167.635 197.945 166.799 198.402 166.193C198.859 165.584 199.482 165.279 200.271 165.279C200.666 165.279 201.014 165.365 201.314 165.537C201.615 165.705 201.852 165.951 202.023 166.275ZM198.854 168.725C198.854 169.561 198.986 170.191 199.252 170.617C199.518 171.043 199.91 171.256 200.43 171.256C200.949 171.256 201.344 171.041 201.613 170.611C201.887 170.182 202.023 169.553 202.023 168.725C202.023 167.893 201.887 167.264 201.613 166.838C201.344 166.408 200.949 166.193 200.43 166.193C199.91 166.193 199.518 166.406 199.252 166.832C198.986 167.258 198.854 167.889 198.854 168.725ZM211.398 173.113V174.109H204.227V173.113H211.398ZM217.674 171.666C217.385 171.834 217.086 171.959 216.777 172.041C216.473 172.127 216.16 172.17 215.84 172.17C214.824 172.17 214.029 171.865 213.455 171.256C212.885 170.646 212.6 169.803 212.6 168.725C212.6 167.646 212.885 166.803 213.455 166.193C214.029 165.584 214.824 165.279 215.84 165.279C216.156 165.279 216.465 165.32 216.766 165.402C217.066 165.484 217.369 165.611 217.674 165.783V166.914C217.389 166.66 217.102 166.477 216.812 166.363C216.527 166.25 216.203 166.193 215.84 166.193C215.164 166.193 214.645 166.412 214.281 166.85C213.918 167.287 213.736 167.912 213.736 168.725C213.736 169.533 213.918 170.158 214.281 170.6C214.648 171.037 215.168 171.256 215.84 171.256C216.215 171.256 216.551 171.199 216.848 171.086C217.145 170.969 217.42 170.789 217.674 170.547V171.666ZM224.389 165.666V166.721C224.08 166.541 223.77 166.406 223.457 166.316C223.145 166.227 222.826 166.182 222.502 166.182C222.014 166.182 221.648 166.262 221.406 166.422C221.168 166.578 221.049 166.818 221.049 167.143C221.049 167.436 221.139 167.654 221.318 167.799C221.498 167.943 221.945 168.084 222.66 168.221L223.094 168.303C223.629 168.404 224.033 168.607 224.307 168.912C224.584 169.217 224.723 169.613 224.723 170.102C224.723 170.75 224.492 171.258 224.031 171.625C223.57 171.988 222.93 172.17 222.109 172.17C221.785 172.17 221.445 172.135 221.09 172.064C220.734 171.998 220.35 171.896 219.936 171.76V170.646C220.338 170.854 220.723 171.01 221.09 171.115C221.457 171.217 221.805 171.268 222.133 171.268C222.609 171.268 222.979 171.172 223.24 170.98C223.502 170.785 223.633 170.514 223.633 170.166C223.633 169.666 223.154 169.32 222.197 169.129L222.15 169.117L221.746 169.035C221.125 168.914 220.672 168.711 220.387 168.426C220.102 168.137 219.959 167.744 219.959 167.248C219.959 166.619 220.172 166.135 220.598 165.795C221.023 165.451 221.631 165.279 222.42 165.279C222.771 165.279 223.109 165.312 223.434 165.379C223.758 165.441 224.076 165.537 224.389 165.666ZM226.504 165.438H227.623L229.527 170.945L231.438 165.438H232.557L230.225 172H228.836L226.504 165.438Z" fill="#DCDCAA"/>
<path d="M244.568 166.334H243.092V165.121L244.24 162.883H245.143L244.568 165.121V166.334ZM252.637 166.275V162.883H253.715V172H252.637V171.174C252.457 171.498 252.217 171.746 251.916 171.918C251.619 172.086 251.275 172.17 250.885 172.17C250.092 172.17 249.467 171.863 249.01 171.25C248.557 170.633 248.33 169.783 248.33 168.701C248.33 167.635 248.559 166.799 249.016 166.193C249.473 165.584 250.096 165.279 250.885 165.279C251.279 165.279 251.627 165.365 251.928 165.537C252.229 165.705 252.465 165.951 252.637 166.275ZM249.467 168.725C249.467 169.561 249.6 170.191 249.865 170.617C250.131 171.043 250.523 171.256 251.043 171.256C251.562 171.256 251.957 171.041 252.227 170.611C252.5 170.182 252.637 169.553 252.637 168.725C252.637 167.893 252.5 167.264 252.227 166.838C251.957 166.408 251.562 166.193 251.043 166.193C250.523 166.193 250.131 166.406 249.865 166.832C249.6 167.258 249.467 167.889 249.467 168.725ZM258.953 168.701H258.596C257.967 168.701 257.492 168.812 257.172 169.035C256.855 169.254 256.697 169.582 256.697 170.02C256.697 170.414 256.816 170.721 257.055 170.939C257.293 171.158 257.623 171.268 258.045 171.268C258.639 171.268 259.105 171.062 259.445 170.652C259.785 170.238 259.957 169.668 259.961 168.941V168.701H258.953ZM261.045 168.256V172H259.961V171.027C259.73 171.418 259.439 171.707 259.088 171.895C258.74 172.078 258.316 172.17 257.816 172.17C257.148 172.17 256.615 171.982 256.217 171.607C255.818 171.229 255.619 170.723 255.619 170.09C255.619 169.359 255.863 168.805 256.352 168.426C256.844 168.047 257.564 167.857 258.514 167.857H259.961V167.688C259.957 167.164 259.824 166.785 259.562 166.551C259.301 166.312 258.883 166.193 258.309 166.193C257.941 166.193 257.57 166.246 257.195 166.352C256.82 166.457 256.455 166.611 256.1 166.814V165.736C256.498 165.584 256.879 165.471 257.242 165.396C257.609 165.318 257.965 165.279 258.309 165.279C258.852 165.279 259.314 165.359 259.697 165.52C260.084 165.68 260.396 165.92 260.635 166.24C260.783 166.436 260.889 166.678 260.951 166.967C261.014 167.252 261.045 167.682 261.045 168.256ZM265.668 163.574V165.438H268.117V166.275H265.668V169.838C265.668 170.322 265.76 170.66 265.943 170.852C266.127 171.043 266.447 171.139 266.904 171.139H268.117V172H266.799C265.99 172 265.42 171.838 265.088 171.514C264.756 171.189 264.59 170.631 264.59 169.838V166.275H262.838V165.438H264.59V163.574H265.668ZM273.414 168.701H273.057C272.428 168.701 271.953 168.812 271.633 169.035C271.316 169.254 271.158 169.582 271.158 170.02C271.158 170.414 271.277 170.721 271.516 170.939C271.754 171.158 272.084 171.268 272.506 171.268C273.1 171.268 273.566 171.062 273.906 170.652C274.246 170.238 274.418 169.668 274.422 168.941V168.701H273.414ZM275.506 168.256V172H274.422V171.027C274.191 171.418 273.9 171.707 273.549 171.895C273.201 172.078 272.777 172.17 272.277 172.17C271.609 172.17 271.076 171.982 270.678 171.607C270.279 171.229 270.08 170.723 270.08 170.09C270.08 169.359 270.324 168.805 270.812 168.426C271.305 168.047 272.025 167.857 272.975 167.857H274.422V167.688C274.418 167.164 274.285 166.785 274.023 166.551C273.762 166.312 273.344 166.193 272.77 166.193C272.402 166.193 272.031 166.246 271.656 166.352C271.281 166.457 270.916 166.611 270.561 166.814V165.736C270.959 165.584 271.34 165.471 271.703 165.396C272.07 165.318 272.426 165.279 272.77 165.279C273.312 165.279 273.775 165.359 274.158 165.52C274.545 165.68 274.857 165.92 275.096 166.24C275.244 166.436 275.35 166.678 275.412 166.967C275.475 167.252 275.506 167.682 275.506 168.256ZM278.811 169.633H280.873V172H278.811V169.633ZM289.979 171.666C289.689 171.834 289.391 171.959 289.082 172.041C288.777 172.127 288.465 172.17 288.145 172.17C287.129 172.17 286.334 171.865 285.76 171.256C285.189 170.646 284.904 169.803 284.904 168.725C284.904 167.646 285.189 166.803 285.76 166.193C286.334 165.584 287.129 165.279 288.145 165.279C288.461 165.279 288.77 165.32 289.07 165.402C289.371 165.484 289.674 165.611 289.979 165.783V166.914C289.693 166.66 289.406 166.477 289.117 166.363C288.832 166.25 288.508 166.193 288.145 166.193C287.469 166.193 286.949 166.412 286.586 166.85C286.223 167.287 286.041 167.912 286.041 168.725C286.041 169.533 286.223 170.158 286.586 170.6C286.953 171.037 287.473 171.256 288.145 171.256C288.52 171.256 288.855 171.199 289.152 171.086C289.449 170.969 289.725 170.789 289.979 170.547V171.666ZM296.693 165.666V166.721C296.385 166.541 296.074 166.406 295.762 166.316C295.449 166.227 295.131 166.182 294.807 166.182C294.318 166.182 293.953 166.262 293.711 166.422C293.473 166.578 293.354 166.818 293.354 167.143C293.354 167.436 293.443 167.654 293.623 167.799C293.803 167.943 294.25 168.084 294.965 168.221L295.398 168.303C295.934 168.404 296.338 168.607 296.611 168.912C296.889 169.217 297.027 169.613 297.027 170.102C297.027 170.75 296.797 171.258 296.336 171.625C295.875 171.988 295.234 172.17 294.414 172.17C294.09 172.17 293.75 172.135 293.395 172.064C293.039 171.998 292.654 171.896 292.24 171.76V170.646C292.643 170.854 293.027 171.01 293.395 171.115C293.762 171.217 294.109 171.268 294.438 171.268C294.914 171.268 295.283 171.172 295.545 170.98C295.807 170.785 295.938 170.514 295.938 170.166C295.938 169.666 295.459 169.32 294.502 169.129L294.455 169.117L294.051 169.035C293.43 168.914 292.977 168.711 292.691 168.426C292.406 168.137 292.264 167.744 292.264 167.248C292.264 166.619 292.477 166.135 292.902 165.795C293.328 165.451 293.936 165.279 294.725 165.279C295.076 165.279 295.414 165.312 295.738 165.379C296.062 165.441 296.381 165.537 296.693 165.666ZM298.809 165.438H299.928L301.832 170.945L303.742 165.438H304.861L302.529 172H301.141L298.809 165.438ZM308.74 162.883H310.217V164.09L309.062 166.334H308.166L308.74 164.09V162.883Z" fill="#CE9178"/>
<path d="M112.582 193.01H114.422V186.4L112.219 187.461V186.324L114.41 185.281H115.594V193.01H117.41V194H112.582V193.01ZM120.51 191.633H122.572V194H120.51V191.633ZM130.008 189.318C130.582 189.471 131.021 189.742 131.326 190.133C131.631 190.52 131.783 191.004 131.783 191.586C131.783 192.391 131.512 193.023 130.969 193.484C130.43 193.941 129.682 194.17 128.725 194.17C128.322 194.17 127.912 194.133 127.494 194.059C127.076 193.984 126.666 193.877 126.264 193.736V192.559C126.662 192.766 127.055 192.92 127.441 193.021C127.828 193.123 128.213 193.174 128.596 193.174C129.244 193.174 129.742 193.027 130.09 192.734C130.438 192.441 130.611 192.02 130.611 191.469C130.611 190.961 130.438 190.559 130.09 190.262C129.742 189.961 129.271 189.811 128.678 189.811H127.775V188.838H128.678C129.221 188.838 129.645 188.719 129.949 188.48C130.254 188.242 130.406 187.91 130.406 187.484C130.406 187.035 130.264 186.691 129.979 186.453C129.697 186.211 129.295 186.09 128.771 186.09C128.424 186.09 128.064 186.129 127.693 186.207C127.322 186.285 126.934 186.402 126.527 186.559V185.469C127 185.344 127.42 185.25 127.787 185.188C128.158 185.125 128.486 185.094 128.771 185.094C129.623 185.094 130.303 185.309 130.811 185.738C131.322 186.164 131.578 186.73 131.578 187.438C131.578 187.918 131.443 188.318 131.174 188.639C130.908 188.959 130.52 189.186 130.008 189.318ZM138.393 187.666V188.721C138.084 188.541 137.773 188.406 137.461 188.316C137.148 188.227 136.83 188.182 136.506 188.182C136.018 188.182 135.652 188.262 135.41 188.422C135.172 188.578 135.053 188.818 135.053 189.143C135.053 189.436 135.143 189.654 135.322 189.799C135.502 189.943 135.949 190.084 136.664 190.221L137.098 190.303C137.633 190.404 138.037 190.607 138.311 190.912C138.588 191.217 138.727 191.613 138.727 192.102C138.727 192.75 138.496 193.258 138.035 193.625C137.574 193.988 136.934 194.17 136.113 194.17C135.789 194.17 135.449 194.135 135.094 194.064C134.738 193.998 134.354 193.896 133.939 193.76V192.646C134.342 192.854 134.727 193.01 135.094 193.115C135.461 193.217 135.809 193.268 136.137 193.268C136.613 193.268 136.982 193.172 137.244 192.98C137.506 192.785 137.637 192.514 137.637 192.166C137.637 191.666 137.158 191.32 136.201 191.129L136.154 191.117L135.75 191.035C135.129 190.914 134.676 190.711 134.391 190.426C134.105 190.137 133.963 189.744 133.963 189.248C133.963 188.619 134.176 188.135 134.602 187.795C135.027 187.451 135.635 187.279 136.424 187.279C136.775 187.279 137.113 187.312 137.438 187.379C137.762 187.441 138.08 187.537 138.393 187.666Z" fill="var(--vscode-menu-foreground, #d4d4d4)"/>
<path d="M96.0034 193.917C96.2954 193.917 96.5176 193.797 96.6826 193.556L101.297 186.338C101.418 186.154 101.462 186.002 101.462 185.85C101.462 185.469 101.196 185.202 100.809 185.202C100.536 185.202 100.377 185.297 100.212 185.564L95.978 192.318L93.7754 189.417C93.6104 189.208 93.4453 189.119 93.2041 189.119C92.8105 189.119 92.5312 189.392 92.5312 189.772C92.5312 189.944 92.5884 190.103 92.728 190.274L95.3179 193.562C95.5146 193.803 95.7178 193.917 96.0034 193.917Z" fill="var(--vscode-menu-foreground, #d4d4d4)"/>
<rect x="378.5" y="95.5" width="152" height="28" fill="var(--vscode-editor-background, #292929)" stroke="#424750"/>
<path d="M412.76 103.013L412.013 103.44V115.44L412.76 115.813L421.773 109.84V108.987L412.76 103.013ZM413.027 114.48V104.347L420.6 109.413L413.027 114.48ZM423.16 110H423.853L426.36 112.507L425.667 113.2L424.013 111.547V116.987H423V111.547L421.347 113.2L420.653 112.507L423.16 110Z" fill="var(--vscode-menu-foreground, #CCCCCC)"/>
<path d="M436.813 103.013L436.013 103.44V115.44L436.813 115.813L445.827 109.84V108.987L436.813 103.013ZM437.027 114.48V104.347L444.6 109.413L437.027 114.48ZM447.853 116.987H447.16L444.653 114.48L445.347 113.787L447 115.44V110H448.013V115.44L449.667 113.787L450.36 114.533L447.853 116.987Z" fill="var(--vscode-menu-foreground, #CCCCCC)"/>
<path d="M487 110C487 110.284 486.893 110.533 486.68 110.747C486.502 110.924 486.271 111.013 485.987 111.013C485.702 111.013 485.471 110.924 485.293 110.747C485.116 110.533 485.027 110.284 485.027 110C485.027 109.716 485.116 109.484 485.293 109.307C485.471 109.093 485.702 108.987 485.987 108.987C486.271 108.987 486.502 109.093 486.68 109.307C486.893 109.484 487 109.716 487 110ZM492.013 110C492.013 110.284 491.907 110.533 491.693 110.747C491.516 110.924 491.284 111.013 491 111.013C490.716 111.013 490.467 110.924 490.253 110.747C490.076 110.533 489.987 110.284 489.987 110C489.987 109.716 490.076 109.484 490.253 109.307C490.467 109.093 490.716 108.987 491 108.987C491.284 108.987 491.516 109.093 491.693 109.307C491.907 109.484 492.013 109.716 492.013 110ZM497.027 110C497.027 110.284 496.92 110.533 496.707 110.747C496.529 110.924 496.298 111.013 496.013 111.013C495.729 111.013 495.48 110.924 495.267 110.747C495.089 110.533 495 110.284 495 110C495 109.716 495.089 109.484 495.267 109.307C495.48 109.093 495.729 108.987 496.013 108.987C496.298 108.987 496.529 109.093 496.707 109.307C496.92 109.484 497.027 109.716 497.027 110Z" fill="var(--vscode-menu-foreground, #CCCCCC)"/>
<path d="M517.027 104.987H520.013V106H519V115.013L517.987 115.973H511L509.987 115.013V106H509.027V104.987H512.013V103.973C512.013 103.724 512.102 103.511 512.28 103.333C512.493 103.12 512.742 103.013 513.027 103.013H516.013C516.298 103.013 516.529 103.12 516.707 103.333C516.92 103.511 517.027 103.724 517.027 103.973V104.987ZM516.013 103.973H513.027V104.987H516.013V103.973ZM511 115.013H517.987V106H511V115.013ZM513.027 107.013H512.013V114H513.027V107.013ZM513.987 107.013H515V114H513.987V107.013ZM516.013 107.013H517.027V114H516.013V107.013Z" fill="var(--vscode-menu-foreground, #CCCCCC)"/>
<path d="M393.027 111.973V111.013H401.987V111.973H393.027ZM397.027 107.973H401.987V108.987H397.027V107.973ZM401.987 104.987V106H393.027V104.987H401.987ZM393.027 114V115.013H401.987V114H393.027ZM388.013 104.773L388.76 104.4L394.147 107.973V108.773L388.76 112.4L388.013 111.973V104.773ZM389.027 105.733V111.013L392.973 108.4L389.027 105.733Z" fill="var(--vscode-menu-foreground, #CCCCCC)"/>
<path d="M473.027 103.013H461.987L461.027 103.973V115.013L461.987 115.973H473.027L473.987 115.013V103.973L473.027 103.013ZM473.027 115.013H461.987V110H473.027V115.013ZM473.027 108.987H461.987V103.973H473.027V108.987Z" fill="var(--vscode-menu-foreground, #CCCCCC)"/>
<path d="M51.7166 194.818V185.727H54.8984V186.545H52.6257V194.109H54.8984V194.818H51.7166ZM57.4474 193V192.182H59.4474V186.818H59.1838C58.9777 187.182 58.7111 187.439 58.3838 187.591C58.0626 187.742 57.6899 187.782 57.2656 187.709L57.1747 186.818C57.6414 186.873 58.0687 186.809 58.4565 186.627C58.8444 186.439 59.1838 186.139 59.4747 185.727H60.3565V192.182H62.1747V193H57.4474ZM63.9964 194.818V194.109H66.2692V186.545H63.9964V185.727H67.1783V194.818H63.9964Z" fill="var(--vscode-editorOverviewRuler-bracketMatchForeground)"/>
<rect x="49" y="63" width="41" height="8" rx="4" fill="var(--vscode-tab-activeForeground, #FFFFFF)" fill-opacity="0.16"/>
<path d="M38.6 61.24C38.0667 61.0622 37.5333 60.9733 37 60.9733C36.4667 60.9733 35.9333 61.0622 35.4 61.24C34.9022 61.3467 34.4222 61.5422 33.96 61.8267C33.0711 62.36 32.36 63.0711 31.8267 63.96C31.5422 64.4222 31.3289 64.92 31.1867 65.4533C31.0444 65.9511 30.9733 66.4844 30.9733 67.0533C31.0089 67.5867 31.08 68.1022 31.1867 68.6C31.4711 69.5956 31.9867 70.4844 32.7333 71.2667C33.1244 71.6222 33.5333 71.9422 33.96 72.2267C34.4222 72.4756 34.9022 72.6711 35.4 72.8133C35.9333 72.9556 36.4667 73.0267 37 73.0267C37.5689 72.9911 38.1022 72.92 38.6 72.8133C39.0978 72.6711 39.5778 72.4578 40.04 72.1733C40.9289 71.64 41.64 70.9289 42.1733 70.04C42.4578 69.5778 42.6533 69.0978 42.76 68.6C42.9378 68.0667 43.0089 67.5333 42.9733 67C42.9733 66.4311 42.9022 65.8978 42.76 65.4C42.6533 64.9022 42.4578 64.4222 42.1733 63.96C41.9244 63.5333 41.6044 63.1422 41.2133 62.7867C40.8578 62.3956 40.4667 62.0756 40.04 61.8267C39.5778 61.5422 39.0978 61.3467 38.6 61.24ZM43.0267 70.52C42.4222 71.5867 41.5867 72.4222 40.52 73.0267C39.9867 73.3467 39.4178 73.5956 38.8133 73.7733C38.2444 73.9156 37.64 73.9867 37 73.9867C36.36 73.9867 35.7378 73.9156 35.1333 73.7733C34.5644 73.5956 34.0133 73.3644 33.48 73.08C32.9467 72.76 32.4667 72.3867 32.04 71.96C31.6133 71.5333 31.24 71.0533 30.92 70.52C30.6356 69.9867 30.4044 69.4356 30.2267 68.8667C30.0844 68.2622 30.0133 67.64 30.0133 67C30.0133 66.36 30.0844 65.7556 30.2267 65.1867C30.4044 64.5822 30.6533 64.0133 30.9733 63.48C31.5778 62.4133 32.4133 61.5778 33.48 60.9733C34.0133 60.6533 34.5644 60.4222 35.1333 60.28C35.7378 60.1022 36.36 60.0133 37 60.0133C37.64 60.0133 38.2622 60.0844 38.8667 60.2267C40.04 60.5822 41.0533 61.2044 41.9067 62.0933C42.7956 62.9467 43.4178 63.96 43.7733 65.1333C43.9156 65.7378 43.9867 66.36 43.9867 67C43.9867 67.64 43.8978 68.2622 43.72 68.8667C43.5778 69.4356 43.3467 69.9867 43.0267 70.52Z" fill="var(--vscode-menu-foreground, #CCCCCC)"/>
<rect x="122" y="63" width="41" height="8" rx="4" fill="var(--vscode-tab-activeForeground, #FFFFFF)" fill-opacity="0.16"/>
<path d="M111.6 61.24C111.067 61.0622 110.533 60.9733 110 60.9733C109.467 60.9733 108.933 61.0622 108.4 61.24C107.902 61.3467 107.422 61.5422 106.96 61.8267C106.071 62.36 105.36 63.0711 104.827 63.96C104.542 64.4222 104.329 64.92 104.187 65.4533C104.044 65.9511 103.973 66.4844 103.973 67.0533C104.009 67.5867 104.08 68.1022 104.187 68.6C104.471 69.5956 104.987 70.4844 105.733 71.2667C106.124 71.6222 106.533 71.9422 106.96 72.2267C107.422 72.4756 107.902 72.6711 108.4 72.8133C108.933 72.9556 109.467 73.0267 110 73.0267C110.569 72.9911 111.102 72.92 111.6 72.8133C112.098 72.6711 112.578 72.4578 113.04 72.1733C113.929 71.64 114.64 70.9289 115.173 70.04C115.458 69.5778 115.653 69.0978 115.76 68.6C115.938 68.0667 116.009 67.5333 115.973 67C115.973 66.4311 115.902 65.8978 115.76 65.4C115.653 64.9022 115.458 64.4222 115.173 63.96C114.924 63.5333 114.604 63.1422 114.213 62.7867C113.858 62.3956 113.467 62.0756 113.04 61.8267C112.578 61.5422 112.098 61.3467 111.6 61.24ZM116.027 70.52C115.422 71.5867 114.587 72.4222 113.52 73.0267C112.987 73.3467 112.418 73.5956 111.813 73.7733C111.244 73.9156 110.64 73.9867 110 73.9867C109.36 73.9867 108.738 73.9156 108.133 73.7733C107.564 73.5956 107.013 73.3644 106.48 73.08C105.947 72.76 105.467 72.3867 105.04 71.96C104.613 71.5333 104.24 71.0533 103.92 70.52C103.636 69.9867 103.404 69.4356 103.227 68.8667C103.084 68.2622 103.013 67.64 103.013 67C103.013 66.36 103.084 65.7556 103.227 65.1867C103.404 64.5822 103.653 64.0133 103.973 63.48C104.578 62.4133 105.413 61.5778 106.48 60.9733C107.013 60.6533 107.564 60.4222 108.133 60.28C108.738 60.1022 109.36 60.0133 110 60.0133C110.64 60.0133 111.262 60.0844 111.867 60.2267C113.04 60.5822 114.053 61.2044 114.907 62.0933C115.796 62.9467 116.418 63.96 116.773 65.1333C116.916 65.7378 116.987 66.36 116.987 67C116.987 67.64 116.898 68.2622 116.72 68.8667C116.578 69.4356 116.347 69.9867 116.027 70.52Z" fill="var(--vscode-menu-foreground, #CCCCCC)"/>
<rect x="195" y="63" width="41" height="8" rx="4" fill="var(--vscode-tab-activeForeground, #FFFFFF)" fill-opacity="0.16"/>
<path d="M184.6 61.24C184.067 61.0622 183.533 60.9733 183 60.9733C182.467 60.9733 181.933 61.0622 181.4 61.24C180.902 61.3467 180.422 61.5422 179.96 61.8267C179.071 62.36 178.36 63.0711 177.827 63.96C177.542 64.4222 177.329 64.92 177.187 65.4533C177.044 65.9511 176.973 66.4844 176.973 67.0533C177.009 67.5867 177.08 68.1022 177.187 68.6C177.471 69.5956 177.987 70.4844 178.733 71.2667C179.124 71.6222 179.533 71.9422 179.96 72.2267C180.422 72.4756 180.902 72.6711 181.4 72.8133C181.933 72.9556 182.467 73.0267 183 73.0267C183.569 72.9911 184.102 72.92 184.6 72.8133C185.098 72.6711 185.578 72.4578 186.04 72.1733C186.929 71.64 187.64 70.9289 188.173 70.04C188.458 69.5778 188.653 69.0978 188.76 68.6C188.938 68.0667 189.009 67.5333 188.973 67C188.973 66.4311 188.902 65.8978 188.76 65.4C188.653 64.9022 188.458 64.4222 188.173 63.96C187.924 63.5333 187.604 63.1422 187.213 62.7867C186.858 62.3956 186.467 62.0756 186.04 61.8267C185.578 61.5422 185.098 61.3467 184.6 61.24ZM189.027 70.52C188.422 71.5867 187.587 72.4222 186.52 73.0267C185.987 73.3467 185.418 73.5956 184.813 73.7733C184.244 73.9156 183.64 73.9867 183 73.9867C182.36 73.9867 181.738 73.9156 181.133 73.7733C180.564 73.5956 180.013 73.3644 179.48 73.08C178.947 72.76 178.467 72.3867 178.04 71.96C177.613 71.5333 177.24 71.0533 176.92 70.52C176.636 69.9867 176.404 69.4356 176.227 68.8667C176.084 68.2622 176.013 67.64 176.013 67C176.013 66.36 176.084 65.7556 176.227 65.1867C176.404 64.5822 176.653 64.0133 176.973 63.48C177.578 62.4133 178.413 61.5778 179.48 60.9733C180.013 60.6533 180.564 60.4222 181.133 60.28C181.738 60.1022 182.36 60.0133 183 60.0133C183.64 60.0133 184.262 60.0844 184.867 60.2267C186.04 60.5822 187.053 61.2044 187.907 62.0933C188.796 62.9467 189.418 63.96 189.773 65.1333C189.916 65.7378 189.987 66.36 189.987 67C189.987 67.64 189.898 68.2622 189.72 68.8667C189.578 69.4356 189.347 69.9867 189.027 70.52Z" fill="var(--vscode-menu-foreground, #CCCCCC)"/>
<path d="M246 57.5V76.5" stroke="#424750"/>
<rect x="32" y="289" width="40" height="6" rx="3" fill="var(--vscode-tab-activeForeground, #FFFFFF)" fill-opacity="0.16"/>
<rect x="96" y="289" width="50" height="6" rx="3" fill="var(--vscode-tab-activeForeground, #FFFFFF)" fill-opacity="0.16"/>
<path d="M170.675 293.034C170.675 294.334 171.636 295.188 173.038 295.188C174.531 295.188 175.434 294.302 175.434 292.76V287.25H174.23V292.755C174.23 293.641 173.795 294.114 173.027 294.114C172.34 294.114 171.873 293.679 171.856 293.034H170.675ZM178.565 287.25H177.362V292.331C177.362 294.006 178.56 295.188 180.499 295.188C182.448 295.188 183.641 294.006 183.641 292.331V287.25H182.438V292.234C182.438 293.34 181.734 294.119 180.499 294.119C179.269 294.119 178.565 293.34 178.565 292.234V287.25ZM185.58 287.25V295H186.783V292.352H188.577C190.097 292.352 191.171 291.31 191.171 289.817C191.171 288.292 190.129 287.25 188.614 287.25H185.58ZM186.783 288.265H188.297C189.355 288.265 189.941 288.812 189.941 289.817C189.941 290.789 189.334 291.342 188.297 291.342H186.783V288.265ZM195.817 295V291.826L198.551 287.25H197.213L195.264 290.628H195.172L193.223 287.25H191.885L194.614 291.826V295H195.817ZM203.079 295V288.286H205.512V287.25H199.437V288.286H201.875V295H203.079ZM211.909 293.963H208.192V291.552H211.71V290.553H208.192V288.286H211.909V287.25H206.989V295H211.909V293.963ZM214.852 292.019H216.549L218.128 295H219.52L217.779 291.831C218.725 291.514 219.283 290.666 219.283 289.618C219.283 288.173 218.279 287.25 216.716 287.25H213.649V295H214.852V292.019ZM214.852 288.259H216.549C217.479 288.259 218.048 288.78 218.048 289.645C218.048 290.531 217.511 291.031 216.582 291.031H214.852V288.259ZM221.759 291.047C222.216 291.047 222.549 290.708 222.549 290.273C222.549 289.838 222.216 289.5 221.759 289.5C221.308 289.5 220.97 289.838 220.97 290.273C220.97 290.708 221.308 291.047 221.759 291.047ZM221.759 295.081C222.216 295.081 222.549 294.742 222.549 294.307C222.549 293.872 222.216 293.534 221.759 293.534C221.308 293.534 220.97 293.872 220.97 294.307C220.97 294.742 221.308 295.081 221.759 295.081ZM230.971 295L233.726 287.25H232.448L230.369 293.561H230.278L228.188 287.25H226.878L229.649 295H230.971ZM239.398 295H240.676L237.878 287.25H236.583L233.785 295H235.021L235.735 292.905H238.689L239.398 295ZM237.169 288.619H237.26L238.383 291.938H236.041L237.169 288.619ZM243.233 292.019H244.93L246.509 295H247.9L246.16 291.831C247.105 291.514 247.664 290.666 247.664 289.618C247.664 288.173 246.66 287.25 245.097 287.25H242.03V295H243.233V292.019ZM243.233 288.259H244.93C245.859 288.259 246.429 288.78 246.429 289.645C246.429 290.531 245.892 291.031 244.962 291.031H243.233V288.259ZM250.581 295V287.25H249.377V295H250.581ZM257.542 295H258.82L256.021 287.25H254.727L251.929 295H253.164L253.878 292.905H256.833L257.542 295ZM255.312 288.619H255.404L256.526 291.938H254.185L255.312 288.619ZM263.358 295C265.013 295 266.006 294.173 266.006 292.809C266.006 291.793 265.308 291.052 264.261 290.939V290.848C265.023 290.719 265.62 289.994 265.62 289.183C265.62 287.991 264.744 287.25 263.289 287.25H260.173V295H263.358ZM261.376 288.232H263.009C263.901 288.232 264.422 288.657 264.422 289.393C264.422 290.15 263.869 290.547 262.805 290.547H261.376V288.232ZM261.376 294.017V291.466H263.047C264.18 291.466 264.776 291.896 264.776 292.733C264.776 293.571 264.202 294.017 263.117 294.017H261.376ZM272.387 293.953H268.756V287.25H267.553V295H272.387V293.953ZM278.833 293.963H275.116V291.552H278.634V290.553H275.116V288.286H278.833V287.25H273.913V295H278.833V293.963ZM280.208 292.932C280.293 294.307 281.448 295.188 283.167 295.188C285.004 295.188 286.153 294.264 286.153 292.798C286.153 291.638 285.498 290.999 283.908 290.617L283.054 290.408C282.044 290.161 281.636 289.838 281.636 289.274C281.636 288.549 282.27 288.082 283.221 288.082C284.123 288.082 284.746 288.533 284.859 289.269H286.03C285.96 287.975 284.811 287.062 283.237 287.062C281.545 287.062 280.417 287.975 280.417 289.339C280.417 290.467 281.056 291.133 282.458 291.471L283.457 291.713C284.483 291.96 284.934 292.336 284.934 292.943C284.934 293.652 284.225 294.162 283.258 294.162C282.222 294.162 281.502 293.684 281.4 292.932H280.208Z" fill="var(--vscode-tab-activeForeground)"/>
<rect x="170" y="306" width="117" height="1" fill="var(--vscode-panelTitle-activeForeground)"/>
<rect x="311" y="289" width="40" height="6" rx="3" fill="var(--vscode-tab-activeForeground, #FFFFFF)" fill-opacity="0.16"/>
<path d="M527.093 291L522.56 295.533L523.467 296.44L528 291.907L532.533 296.44L533.44 295.533L528.907 291L533.44 286.467L532.533 285.56L528 290.093L523.467 285.56L522.56 286.467L527.093 291Z" fill="var(--vscode-menu-foreground, #CCCCCC)"/>
<path d="M502 288.92L497.68 293.293L497.04 292.653L501.733 288.013H502.32L507.013 292.653L506.373 293.293L502 288.92Z" fill="var(--vscode-menu-foreground, #CCCCCC)"/>
<path d="M482.027 289.987V291H476V296.973H474.987V291H469.013V289.987H474.987V284.013H476V289.987H482.027Z" fill="var(--vscode-menu-foreground, #CCCCCC)"/>
<rect x="31" y="324" width="505" height="24" fill="var(--vscode-notificationCenterHeader-background, #303031)"/>
<rect x="66" y="333" width="48" height="6" rx="3" fill="var(--vscode-tab-activeForeground, #FFFFFF)" fill-opacity="0.16"/>
<rect x="174" y="333" width="48" height="6" rx="3" fill="var(--vscode-tab-activeForeground, #FFFFFF)" fill-opacity="0.16"/>
<rect x="282" y="333" width="48" height="6" rx="3" fill="var(--vscode-tab-activeForeground, #FFFFFF)" fill-opacity="0.16"/>
<rect x="390" y="333" width="48" height="6" rx="3" fill="var(--vscode-tab-activeForeground, #FFFFFF)" fill-opacity="0.16"/>
<path d="M39.4286 355L43.2857 355V355.857L39.8571 355.857V366.143H50.1428V362.714H51V366.571L50.5714 367H39.4286L39 366.571V355.429L39.4286 355Z" fill="var(--vscode-tab-activeForeground)"/>
<path d="M51 355.429L51 361H50.1429L50.1428 356.463L44.3509 362.255L43.7448 361.649L49.5367 355.857L45 355.857V355H50.5714L51 355.429Z" fill="var(--vscode-tab-activeForeground)"/>
<path d="M53.5714 365L50.7143 365L50.7143 364.143L53.1429 364.143L53.1429 352.857L41.8572 352.857L41.8572 355.286L41 355.286L41 352.429L41.4286 352L53.5714 352L54 352.429L54 364.571L53.5714 365Z" fill="var(--vscode-tab-activeForeground)"/>
<rect x="66" y="357" width="60" height="6" rx="3" fill="var(--vscode-tab-activeForeground, #FFFFFF)" fill-opacity="0.16"/>
<rect x="174" y="357" width="57" height="6" rx="3" fill="var(--vscode-tab-activeForeground, #FFFFFF)" fill-opacity="0.16"/>
<rect x="282" y="357" width="22" height="6" rx="3" fill="var(--vscode-tab-activeForeground, #FFFFFF)" fill-opacity="0.16"/>
<rect x="390" y="357" width="99" height="6" rx="3" fill="var(--vscode-tab-activeForeground, #FFFFFF)" fill-opacity="0.16"/>
<path d="M12 272H554" stroke="var(--vscode-terminal-border)"/>
<path d="M263.387 70.52C263.387 70.3778 263.44 70.2711 263.547 70.2C263.689 70.0933 263.831 70.0756 263.973 70.1467L264.24 70.36C264.276 70.3956 264.311 70.4133 264.347 70.4133C264.418 70.4133 264.489 70.3778 264.56 70.3067C264.667 70.2 264.773 70.0933 264.88 69.9867L265.467 69.1333L265.787 68.44L265.413 67C265.378 66.8933 265.307 66.8044 265.2 66.7333C265.129 66.6267 265.04 66.5556 264.933 66.52C264.827 66.4489 264.702 66.4133 264.56 66.4133C264.453 66.4133 264.347 66.4311 264.24 66.4667V66.2533L265.68 65.9867C265.893 66.2 266.053 66.4489 266.16 66.7333L266.427 67.5867L266.693 67.16C266.8 66.9467 266.924 66.7689 267.067 66.6267C267.244 66.4489 267.404 66.3067 267.547 66.2C267.724 66.0933 267.884 66.04 268.027 66.04C268.204 66.0044 268.347 66.0222 268.453 66.0933C268.56 66.1644 268.613 66.2711 268.613 66.4133C268.613 66.6978 268.471 66.84 268.187 66.84C268.08 66.84 267.973 66.8222 267.867 66.7867C267.796 66.7156 267.707 66.68 267.6 66.68C267.493 66.68 267.387 66.7333 267.28 66.84C267.173 66.9467 267.067 67.0711 266.96 67.2133C266.782 67.4267 266.622 67.6756 266.48 67.96L266.907 69.7733C266.942 69.9156 266.978 70.04 267.013 70.1467L267.12 70.3067C267.156 70.3422 267.209 70.36 267.28 70.36C267.351 70.36 267.404 70.3422 267.44 70.3067C267.618 70.1644 267.76 70.0044 267.867 69.8267L268.027 69.6133L268.187 69.72C268.151 69.8267 268.08 69.9511 267.973 70.0933C267.867 70.2356 267.742 70.3778 267.6 70.52C267.493 70.6267 267.369 70.7333 267.227 70.84C267.084 70.9467 266.96 71 266.853 71C266.747 71 266.64 70.9644 266.533 70.8933C266.462 70.8222 266.391 70.7333 266.32 70.6267C266.284 70.52 266.249 70.4133 266.213 70.3067L266 69.24C265.964 69.0978 265.929 68.9733 265.893 68.8667L265.413 69.6667L265.093 70.1467C264.987 70.3244 264.862 70.4667 264.72 70.5733C264.578 70.68 264.436 70.7867 264.293 70.8933C264.187 70.9644 264.062 71 263.92 71C263.778 71 263.653 70.9644 263.547 70.8933C263.44 70.7867 263.387 70.6622 263.387 70.52ZM269.52 71C269.769 70.6444 269.964 70.2533 270.107 69.8267C270.284 69.4 270.373 68.9556 270.373 68.4933C270.373 68.0311 270.284 67.5867 270.107 67.16C269.964 66.7333 269.769 66.3422 269.52 65.9867H270.213C270.853 66.7333 271.173 67.5689 271.173 68.4933C271.173 68.9911 271.084 69.4533 270.907 69.88C270.764 70.2711 270.533 70.6444 270.213 71H269.52ZM261.787 71C261.467 70.68 261.218 70.3067 261.04 69.88C260.898 69.4178 260.827 68.9556 260.827 68.4933C260.827 67.5689 261.147 66.7333 261.787 65.9867H262.48C262.196 66.3422 261.982 66.7511 261.84 67.2133C261.698 67.64 261.627 68.0667 261.627 68.4933C261.627 69.4533 261.911 70.2889 262.48 71H261.787ZM273.52 60.0133H258.48L258 60.4933V73.5067L258.48 73.9867H273.52L274 73.5067V60.4933L273.52 60.0133ZM272.987 72.9733H259.013V64.0133H272.987V72.9733ZM272.987 63H259.013V60.9733H272.987V63Z" fill="var(--vscode-tab-activeForeground)"/>
<path d="M282.514 70.5L285.27 62.7495H283.991L281.913 69.0605H281.821L279.732 62.7495H278.421L281.193 70.5H282.514ZM287.515 70.5967C288.283 70.5967 288.922 70.2637 289.271 69.6729H289.362V70.5H290.474V66.5093C290.474 65.2847 289.647 64.5542 288.181 64.5542C286.854 64.5542 285.909 65.1934 285.791 66.1763H286.908C287.037 65.752 287.482 65.5103 288.127 65.5103C288.917 65.5103 289.325 65.8701 289.325 66.5093V67.0195L287.74 67.1162C286.349 67.2021 285.565 67.8091 285.565 68.8564C285.565 69.9199 286.387 70.5967 287.515 70.5967ZM287.81 69.6675C287.182 69.6675 286.725 69.3506 286.725 68.8081C286.725 68.2764 287.09 67.9917 287.896 67.938L289.325 67.8413V68.3462C289.325 69.0981 288.68 69.6675 287.81 69.6675ZM292.118 70.5H293.272V67.0142C293.272 66.1924 293.89 65.6284 294.766 65.6284C294.97 65.6284 295.313 65.666 295.41 65.6929V64.6079C295.287 64.5811 295.066 64.5649 294.895 64.5649C294.132 64.5649 293.482 64.9785 293.315 65.5532H293.229V64.667H292.118V70.5ZM297.118 63.625C297.521 63.625 297.849 63.2974 297.849 62.8999C297.849 62.4971 297.521 62.1694 297.118 62.1694C296.715 62.1694 296.388 62.4971 296.388 62.8999C296.388 63.2974 296.715 63.625 297.118 63.625ZM296.543 70.5H297.693V64.667H296.543V70.5ZM301.007 70.5967C301.775 70.5967 302.414 70.2637 302.763 69.6729H302.854V70.5H303.966V66.5093C303.966 65.2847 303.139 64.5542 301.673 64.5542C300.346 64.5542 299.401 65.1934 299.283 66.1763H300.4C300.529 65.752 300.975 65.5103 301.619 65.5103C302.409 65.5103 302.817 65.8701 302.817 66.5093V67.0195L301.232 67.1162C299.841 67.2021 299.057 67.8091 299.057 68.8564C299.057 69.9199 299.879 70.5967 301.007 70.5967ZM301.302 69.6675C300.674 69.6675 300.217 69.3506 300.217 68.8081C300.217 68.2764 300.583 67.9917 301.388 67.938L302.817 67.8413V68.3462C302.817 69.0981 302.172 69.6675 301.302 69.6675ZM308.709 70.5967C310.186 70.5967 311.126 69.4204 311.126 67.5835C311.126 65.7305 310.191 64.5649 308.709 64.5649C307.909 64.5649 307.221 64.957 306.91 65.5908H306.818V62.3789H305.664V70.5H306.775V69.5762H306.861C307.21 70.2207 307.893 70.5967 308.709 70.5967ZM308.376 65.5532C309.354 65.5532 309.939 66.3213 309.939 67.5835C309.939 68.8457 309.354 69.6084 308.376 69.6084C307.404 69.6084 306.802 68.835 306.797 67.5835C306.802 66.332 307.409 65.5532 308.376 65.5532ZM312.571 70.5H313.726V62.3789H312.571V70.5ZM319.295 68.937C319.081 69.4097 318.603 69.6675 317.904 69.6675C316.98 69.6675 316.384 69.0015 316.347 67.9434V67.8896H320.477V67.4922C320.477 65.666 319.494 64.5542 317.867 64.5542C316.218 64.5542 315.17 65.7412 315.17 67.5942C315.17 69.458 316.196 70.6128 317.872 70.6128C319.209 70.6128 320.155 69.9683 320.407 68.937H319.295ZM317.861 65.4941C318.715 65.4941 319.274 66.1118 319.301 67.0571H316.347C316.411 66.1172 317.007 65.4941 317.861 65.4941ZM321.729 66.2998C321.729 67.1646 322.244 67.6587 323.356 67.9165L324.376 68.1582C324.962 68.2979 325.236 68.5342 325.236 68.8994C325.236 69.3774 324.726 69.7104 324.006 69.7104C323.308 69.7104 322.878 69.4258 322.733 68.9692H321.578C321.68 69.9844 322.588 70.6128 323.979 70.6128C325.375 70.6128 326.401 69.877 326.401 68.792C326.401 67.9434 325.88 67.4653 324.769 67.2075L323.796 66.9819C323.163 66.8315 322.867 66.606 322.867 66.2461C322.867 65.7734 323.356 65.4565 324 65.4565C324.656 65.4565 325.075 65.7412 325.182 66.1763H326.289C326.176 65.1665 325.316 64.5542 324 64.5542C322.679 64.5542 321.729 65.2847 321.729 66.2998Z" fill="var(--vscode-tab-activeForeground)"/>
</g>
<defs>
<filter id="filter0_d_4_7625" x="0" y="29" width="566" height="442" filterUnits="userSpaceOnUse" color-interpolation-filters="sRGB">
<feFlood flood-opacity="0" result="BackgroundImageFix"/>
<feColorMatrix in="SourceAlpha" type="matrix" values="0 0 0 0 0 0 0 0 0 0 0 0 0 0 0 0 0 0 127 0" result="hardAlpha"/>
<feOffset dy="2"/>
<feGaussianBlur stdDeviation="6"/>
<feColorMatrix type="matrix" values="0 0 0 0 0 0 0 0 0 0 0 0 0 0 0 0 0 0 0.6 0"/>
<feBlend mode="normal" in2="BackgroundImageFix" result="effect1_dropShadow_4_7625"/>
<feBlend mode="normal" in="SourceGraphic" in2="effect1_dropShadow_4_7625" result="shape"/>
</filter>
<clipPath id="clip0_4_7625">
<rect width="136.145" height="39.2998" fill="white" transform="translate(32)"/>
</clipPath>
</defs>
</svg>
