<svg width="616" height="252" viewBox="0 0 616 252" fill="none" xmlns="http://www.w3.org/2000/svg">
<rect width="615" height="39" fill="var(--vscode-editorGroupHeader-tabsBackground, #252526)" />
<g clip-path="url(#clip0_6_11353)">
<rect width="136.145" height="39.2998" fill="var(--vscode-editor-background, #1E1E1E)"/>
<path d="M23.6541 14.0299C24.0008 14.0299 24.2941 14.1566 24.5341 14.4099C24.7875 14.6499 24.9141 14.9432 24.9141 15.2899V24.0099C24.9141 24.3566 24.7875 24.6566 24.5341 24.9099C24.2941 25.1499 24.0008 25.2699 23.6541 25.2699H17.7341C17.3875 25.2699 17.0875 25.1499 16.8341 24.9099C16.5941 24.6566 16.4741 24.3566 16.4741 24.0099V15.2899C16.4741 14.9432 16.5941 14.6499 16.8341 14.4099C17.0875 14.1566 17.3875 14.0299 17.7341 14.0299H23.6541ZM25.4741 21.3299H25.8941C26.0008 21.3299 26.0941 21.3699 26.1741 21.4499C26.2541 21.5166 26.3008 21.6032 26.3141 21.7099V22.6099C26.3141 22.7166 26.2808 22.8099 26.2141 22.8899C26.1475 22.9566 26.0608 23.0032 25.9541 23.0299H25.4741V21.3299H25.8941H25.4741ZM25.4741 19.0899H25.8941C26.0008 19.0899 26.0941 19.1232 26.1741 19.1899C26.2541 19.2566 26.3008 19.3432 26.3141 19.4499V20.3499C26.3141 20.4566 26.2808 20.5499 26.2141 20.6299C26.1475 20.7099 26.0608 20.7566 25.9541 20.7699H25.4741V19.0899H25.8941H25.4741ZM25.4741 16.8299H25.8941C26.0008 16.8299 26.0941 16.8699 26.1741 16.9499C26.2541 17.0166 26.3008 17.1032 26.3141 17.2099V18.1099C26.3141 18.2166 26.2808 18.3099 26.2141 18.3899C26.1475 18.4566 26.0608 18.5032 25.9541 18.5299H25.4741V16.8299H25.8941H25.4741ZM22.5141 15.9899H18.8741C18.7675 15.9899 18.6741 16.0299 18.5941 16.1099C18.5141 16.1766 18.4675 16.2566 18.4541 16.3499L18.4341 17.2699C18.4341 17.3632 18.4675 17.4499 18.5341 17.5299C18.6141 17.6099 18.7075 17.6566 18.8141 17.6699L22.5141 17.6899C22.6208 17.6899 22.7141 17.6566 22.7941 17.5899C22.8741 17.5099 22.9208 17.4166 22.9341 17.3099L22.9541 16.4099C22.9541 16.2899 22.9075 16.1899 22.8141 16.1099C22.7341 16.0299 22.6341 15.9899 22.5141 15.9899Z" fill="#519ABA"/>
<rect x="33.9656" y="15.7198" width="88.7052" height="7.85995" rx="3.92998" fill="var(--vscode-tab-activeForeground, #FFFFFF)" fill-opacity="0.12"/>
</g>
<g opacity="0.4">
<rect x="33" y="54" width="41" height="8" rx="4" fill="var(--vscode-tab-activeForeground, #FFFFFF)" fill-opacity="0.16"/>
<path d="M22.6 52.24C22.0667 52.0622 21.5333 51.9733 21 51.9733C20.4667 51.9733 19.9333 52.0622 19.4 52.24C18.9022 52.3467 18.4222 52.5422 17.96 52.8267C17.0711 53.36 16.36 54.0711 15.8267 54.96C15.5422 55.4222 15.3289 55.92 15.1867 56.4533C15.0444 56.9511 14.9733 57.4844 14.9733 58.0533C15.0089 58.5867 15.08 59.1022 15.1867 59.6C15.4711 60.5956 15.9867 61.4844 16.7333 62.2667C17.1244 62.6222 17.5333 62.9422 17.96 63.2267C18.4222 63.4756 18.9022 63.6711 19.4 63.8133C19.9333 63.9556 20.4667 64.0267 21 64.0267C21.5689 63.9911 22.1022 63.92 22.6 63.8133C23.0978 63.6711 23.5778 63.4578 24.04 63.1733C24.9289 62.64 25.64 61.9289 26.1733 61.04C26.4578 60.5778 26.6533 60.0978 26.76 59.6C26.9378 59.0667 27.0089 58.5333 26.9733 58C26.9733 57.4311 26.9022 56.8978 26.76 56.4C26.6533 55.9022 26.4578 55.4222 26.1733 54.96C25.9244 54.5333 25.6044 54.1422 25.2133 53.7867C24.8578 53.3956 24.4667 53.0756 24.04 52.8267C23.5778 52.5422 23.0978 52.3467 22.6 52.24ZM27.0267 61.52C26.4222 62.5867 25.5867 63.4222 24.52 64.0267C23.9867 64.3467 23.4178 64.5956 22.8133 64.7733C22.2444 64.9156 21.64 64.9867 21 64.9867C20.36 64.9867 19.7378 64.9156 19.1333 64.7733C18.5644 64.5956 18.0133 64.3644 17.48 64.08C16.9467 63.76 16.4667 63.3867 16.04 62.96C15.6133 62.5333 15.24 62.0533 14.92 61.52C14.6356 60.9867 14.4044 60.4356 14.2267 59.8667C14.0844 59.2622 14.0133 58.64 14.0133 58C14.0133 57.36 14.0844 56.7556 14.2267 56.1867C14.4044 55.5822 14.6533 55.0133 14.9733 54.48C15.5778 53.4133 16.4133 52.5778 17.48 51.9733C18.0133 51.6533 18.5644 51.4222 19.1333 51.28C19.7378 51.1022 20.36 51.0133 21 51.0133C21.64 51.0133 22.2622 51.0844 22.8667 51.2267C24.04 51.5822 25.0533 52.2044 25.9067 53.0933C26.7956 53.9467 27.4178 54.96 27.7733 56.1333C27.9156 56.7378 27.9867 57.36 27.9867 58C27.9867 58.64 27.8978 59.2622 27.72 59.8667C27.5778 60.4356 27.3467 60.9867 27.0267 61.52Z" fill="var(--vscode-menu-foreground, #CCCCCC)"/>
<rect x="106" y="54" width="41" height="8" rx="4" fill="var(--vscode-tab-activeForeground, #FFFFFF)" fill-opacity="0.16"/>
<path d="M95.6 52.24C95.0667 52.0622 94.5333 51.9733 94 51.9733C93.4667 51.9733 92.9333 52.0622 92.4 52.24C91.9022 52.3467 91.4222 52.5422 90.96 52.8267C90.0711 53.36 89.36 54.0711 88.8267 54.96C88.5422 55.4222 88.3289 55.92 88.1867 56.4533C88.0444 56.9511 87.9733 57.4844 87.9733 58.0533C88.0089 58.5867 88.08 59.1022 88.1867 59.6C88.4711 60.5956 88.9867 61.4844 89.7333 62.2667C90.1244 62.6222 90.5333 62.9422 90.96 63.2267C91.4222 63.4756 91.9022 63.6711 92.4 63.8133C92.9333 63.9556 93.4667 64.0267 94 64.0267C94.5689 63.9911 95.1022 63.92 95.6 63.8133C96.0978 63.6711 96.5778 63.4578 97.04 63.1733C97.9289 62.64 98.64 61.9289 99.1733 61.04C99.4578 60.5778 99.6533 60.0978 99.76 59.6C99.9378 59.0667 100.009 58.5333 99.9733 58C99.9733 57.4311 99.9022 56.8978 99.76 56.4C99.6533 55.9022 99.4578 55.4222 99.1733 54.96C98.9244 54.5333 98.6044 54.1422 98.2133 53.7867C97.8578 53.3956 97.4667 53.0756 97.04 52.8267C96.5778 52.5422 96.0978 52.3467 95.6 52.24ZM100.027 61.52C99.4222 62.5867 98.5867 63.4222 97.52 64.0267C96.9867 64.3467 96.4178 64.5956 95.8133 64.7733C95.2444 64.9156 94.64 64.9867 94 64.9867C93.36 64.9867 92.7378 64.9156 92.1333 64.7733C91.5644 64.5956 91.0133 64.3644 90.48 64.08C89.9467 63.76 89.4667 63.3867 89.04 62.96C88.6133 62.5333 88.24 62.0533 87.92 61.52C87.6356 60.9867 87.4044 60.4356 87.2267 59.8667C87.0844 59.2622 87.0133 58.64 87.0133 58C87.0133 57.36 87.0844 56.7556 87.2267 56.1867C87.4044 55.5822 87.6533 55.0133 87.9733 54.48C88.5778 53.4133 89.4133 52.5778 90.48 51.9733C91.0133 51.6533 91.5644 51.4222 92.1333 51.28C92.7378 51.1022 93.36 51.0133 94 51.0133C94.64 51.0133 95.2622 51.0844 95.8667 51.2267C97.04 51.5822 98.0533 52.2044 98.9067 53.0933C99.7956 53.9467 100.418 54.96 100.773 56.1333C100.916 56.7378 100.987 57.36 100.987 58C100.987 58.64 100.898 59.2622 100.72 59.8667C100.578 60.4356 100.347 60.9867 100.027 61.52Z" fill="var(--vscode-menu-foreground, #CCCCCC)"/>
<rect x="179" y="54" width="41" height="8" rx="4" fill="var(--vscode-tab-activeForeground, #FFFFFF)" fill-opacity="0.16"/>
<path d="M168.6 52.24C168.067 52.0622 167.533 51.9733 167 51.9733C166.467 51.9733 165.933 52.0622 165.4 52.24C164.902 52.3467 164.422 52.5422 163.96 52.8267C163.071 53.36 162.36 54.0711 161.827 54.96C161.542 55.4222 161.329 55.92 161.187 56.4533C161.044 56.9511 160.973 57.4844 160.973 58.0533C161.009 58.5867 161.08 59.1022 161.187 59.6C161.471 60.5956 161.987 61.4844 162.733 62.2667C163.124 62.6222 163.533 62.9422 163.96 63.2267C164.422 63.4756 164.902 63.6711 165.4 63.8133C165.933 63.9556 166.467 64.0267 167 64.0267C167.569 63.9911 168.102 63.92 168.6 63.8133C169.098 63.6711 169.578 63.4578 170.04 63.1733C170.929 62.64 171.64 61.9289 172.173 61.04C172.458 60.5778 172.653 60.0978 172.76 59.6C172.938 59.0667 173.009 58.5333 172.973 58C172.973 57.4311 172.902 56.8978 172.76 56.4C172.653 55.9022 172.458 55.4222 172.173 54.96C171.924 54.5333 171.604 54.1422 171.213 53.7867C170.858 53.3956 170.467 53.0756 170.04 52.8267C169.578 52.5422 169.098 52.3467 168.6 52.24ZM173.027 61.52C172.422 62.5867 171.587 63.4222 170.52 64.0267C169.987 64.3467 169.418 64.5956 168.813 64.7733C168.244 64.9156 167.64 64.9867 167 64.9867C166.36 64.9867 165.738 64.9156 165.133 64.7733C164.564 64.5956 164.013 64.3644 163.48 64.08C162.947 63.76 162.467 63.3867 162.04 62.96C161.613 62.5333 161.24 62.0533 160.92 61.52C160.636 60.9867 160.404 60.4356 160.227 59.8667C160.084 59.2622 160.013 58.64 160.013 58C160.013 57.36 160.084 56.7556 160.227 56.1867C160.404 55.5822 160.653 55.0133 160.973 54.48C161.578 53.4133 162.413 52.5778 163.48 51.9733C164.013 51.6533 164.564 51.4222 165.133 51.28C165.738 51.1022 166.36 51.0133 167 51.0133C167.64 51.0133 168.262 51.0844 168.867 51.2267C170.04 51.5822 171.053 52.2044 171.907 53.0933C172.796 53.9467 173.418 54.96 173.773 56.1333C173.916 56.7378 173.987 57.36 173.987 58C173.987 58.64 173.898 59.2622 173.72 59.8667C173.578 60.4356 173.347 60.9867 173.027 61.52Z" fill="var(--vscode-menu-foreground, #CCCCCC)"/>
</g>
<g opacity="0.4">
<rect x="14" y="102" width="4.74951" height="65" rx="2.37475" fill="var(--vscode-focusBorder, #007FD4)"/>
<path d="M27.2857 106.973L26.4857 107.4V119.4L27.2857 119.827L36.299 113.853V113L27.2857 106.973ZM27.499 118.493V108.36L35.1257 113.427L27.499 118.493Z" fill="var(--vscode-menu-foreground, #CCCCCC)"/>
<path d="M52.8718 115.08L57.1918 110.707L57.8318 111.347L53.1385 115.987H52.5518L47.8585 111.347L48.4985 110.707L52.8718 115.08Z" fill="var(--vscode-menu-foreground, #CCCCCC)"/>
<rect x="69.5" y="102.5" width="532" height="64" fill="var(--vscode-notificationCenterHeader-background, #303031)" stroke="#424750"/>
<rect x="437.5" y="86.5" width="152" height="28" fill="var(--vscode-editor-background, #292929)" stroke="#424750"/>
<path d="M471.76 94.0133L471.013 94.44V106.44L471.76 106.813L480.773 100.84V99.9867L471.76 94.0133ZM472.027 105.48V95.3467L479.6 100.413L472.027 105.48ZM482.16 101H482.853L485.36 103.507L484.667 104.2L483.013 102.547V107.987H482V102.547L480.347 104.2L479.653 103.507L482.16 101Z" fill="var(--vscode-menu-foreground, #CCCCCC)"/>
<path d="M495.813 94.0133L495.013 94.44V106.44L495.813 106.813L504.827 100.84V99.9867L495.813 94.0133ZM496.027 105.48V95.3467L503.6 100.413L496.027 105.48ZM506.853 107.987H506.16L503.653 105.48L504.347 104.787L506 106.44V101H507.013V106.44L508.667 104.787L509.36 105.533L506.853 107.987Z" fill="var(--vscode-menu-foreground, #CCCCCC)"/>
<path d="M546 101C546 101.284 545.893 101.533 545.68 101.747C545.502 101.924 545.271 102.013 544.987 102.013C544.702 102.013 544.471 101.924 544.293 101.747C544.116 101.533 544.027 101.284 544.027 101C544.027 100.716 544.116 100.484 544.293 100.307C544.471 100.093 544.702 99.9867 544.987 99.9867C545.271 99.9867 545.502 100.093 545.68 100.307C545.893 100.484 546 100.716 546 101ZM551.013 101C551.013 101.284 550.907 101.533 550.693 101.747C550.516 101.924 550.284 102.013 550 102.013C549.716 102.013 549.467 101.924 549.253 101.747C549.076 101.533 548.987 101.284 548.987 101C548.987 100.716 549.076 100.484 549.253 100.307C549.467 100.093 549.716 99.9867 550 99.9867C550.284 99.9867 550.516 100.093 550.693 100.307C550.907 100.484 551.013 100.716 551.013 101ZM556.027 101C556.027 101.284 555.92 101.533 555.707 101.747C555.529 101.924 555.298 102.013 555.013 102.013C554.729 102.013 554.48 101.924 554.267 101.747C554.089 101.533 554 101.284 554 101C554 100.716 554.089 100.484 554.267 100.307C554.48 100.093 554.729 99.9867 555.013 99.9867C555.298 99.9867 555.529 100.093 555.707 100.307C555.92 100.484 556.027 100.716 556.027 101Z" fill="var(--vscode-menu-foreground, #CCCCCC)"/>
<path d="M576.027 95.9867H579.013V97H578V106.013L576.987 106.973H570L568.987 106.013V97H568.027V95.9867H571.013V94.9733C571.013 94.7244 571.102 94.5111 571.28 94.3333C571.493 94.12 571.742 94.0133 572.027 94.0133H575.013C575.298 94.0133 575.529 94.12 575.707 94.3333C575.92 94.5111 576.027 94.7244 576.027 94.9733V95.9867ZM575.013 94.9733H572.027V95.9867H575.013V94.9733ZM570 106.013H576.987V97H570V106.013ZM572.027 98.0133H571.013V105H572.027V98.0133ZM572.987 98.0133H574V105H572.987V98.0133ZM575.013 98.0133H576.027V105H575.013V98.0133Z" fill="var(--vscode-menu-foreground, #CCCCCC)"/>
<path d="M452.027 102.973V102.013H460.987V102.973H452.027ZM456.027 98.9733H460.987V99.9867H456.027V98.9733ZM460.987 95.9867V97H452.027V95.9867H460.987ZM452.027 105V106.013H460.987V105H452.027ZM447.013 95.7733L447.76 95.4L453.147 98.9733V99.7733L447.76 103.4L447.013 102.973V95.7733ZM448.027 96.7333V102.013L451.973 99.4L448.027 96.7333Z" fill="var(--vscode-menu-foreground, #CCCCCC)"/>
<path d="M532.027 94.0133H520.987L520.027 94.9733V106.013L520.987 106.973H532.027L532.987 106.013V94.9733L532.027 94.0133ZM532.027 106.013H520.987V101H532.027V106.013ZM532.027 99.9867H520.987V94.9733H532.027V99.9867Z" fill="var(--vscode-menu-foreground, #CCCCCC)"/>
</g>
<g filter="url(#filter0_d_6_11353)">
<rect width="401" height="198" transform="translate(86 20)" fill="var(--vscode-sideBar-background, #252526)" />
<rect x="93.5" y="27.5" width="386" height="25" fill="var(--vscode-checkbox-background, #3C3C3C)"/>
<path d="M98.7173 42.5562C98.8188 44.1812 100.184 45.2222 102.215 45.2222C104.386 45.2222 105.744 44.1304 105.744 42.3975C105.744 41.0264 104.97 40.271 103.091 39.8203L102.082 39.5728C100.888 39.2808 100.406 38.8999 100.406 38.2334C100.406 37.3765 101.155 36.8242 102.278 36.8242C103.345 36.8242 104.081 37.3574 104.214 38.2271H105.598C105.516 36.6973 104.157 35.6182 102.297 35.6182C100.298 35.6182 98.9648 36.6973 98.9648 38.3096C98.9648 39.6426 99.7202 40.4297 101.377 40.8296L102.558 41.1152C103.77 41.4072 104.303 41.8516 104.303 42.5688C104.303 43.4067 103.465 44.0098 102.323 44.0098C101.098 44.0098 100.247 43.4448 100.126 42.5562H98.7173ZM111.99 43.1528C111.736 43.7114 111.171 44.0161 110.346 44.0161C109.254 44.0161 108.55 43.229 108.505 41.9785V41.915H113.387V41.4453C113.387 39.2871 112.225 37.9731 110.302 37.9731C108.353 37.9731 107.115 39.376 107.115 41.5659C107.115 43.7686 108.328 45.1333 110.308 45.1333C111.889 45.1333 113.006 44.3716 113.304 43.1528H111.99ZM110.295 39.084C111.305 39.084 111.965 39.814 111.997 40.9312H108.505C108.582 39.8203 109.286 39.084 110.295 39.084ZM115.088 45H116.453V35.4023H115.088V45ZM123.035 43.1528C122.781 43.7114 122.216 44.0161 121.391 44.0161C120.299 44.0161 119.595 43.229 119.55 41.9785V41.915H124.432V41.4453C124.432 39.2871 123.27 37.9731 121.347 37.9731C119.398 37.9731 118.16 39.376 118.16 41.5659C118.16 43.7686 119.373 45.1333 121.353 45.1333C122.934 45.1333 124.051 44.3716 124.349 43.1528H123.035ZM121.34 39.084C122.35 39.084 123.01 39.814 123.042 40.9312H119.55C119.626 39.8203 120.331 39.084 121.34 39.084ZM131.922 40.3218C131.744 38.9824 130.697 37.9731 128.964 37.9731C126.952 37.9731 125.727 39.3379 125.727 41.5278C125.727 43.7622 126.958 45.1333 128.97 45.1333C130.678 45.1333 131.744 44.1748 131.922 42.8164H130.595C130.417 43.5654 129.827 43.9717 128.964 43.9717C127.828 43.9717 127.123 43.0513 127.123 41.5278C127.123 40.0361 127.821 39.1348 128.964 39.1348C129.878 39.1348 130.437 39.6489 130.595 40.3218H131.922ZM134.067 36.3672V38.1255H132.969V39.2173H134.067V43.1846C134.067 44.5112 134.67 45.0444 136.188 45.0444C136.454 45.0444 136.708 45.0127 136.93 44.9746V43.8892C136.74 43.9082 136.619 43.9209 136.41 43.9209C135.73 43.9209 135.432 43.5972 135.432 42.8545V39.2173H136.93V38.1255H135.432V36.3672H134.067ZM143.627 41.0137H143.519V35.4023H142.154V45H143.519V42.4927L144.122 41.915L146.496 45H148.172L145.138 41.0581L147.981 38.1064H146.369L143.627 41.0137ZM153.605 43.1528C153.352 43.7114 152.787 44.0161 151.961 44.0161C150.87 44.0161 150.165 43.229 150.121 41.9785V41.915H155.002V41.4453C155.002 39.2871 153.84 37.9731 151.917 37.9731C149.968 37.9731 148.73 39.376 148.73 41.5659C148.73 43.7686 149.943 45.1333 151.923 45.1333C153.504 45.1333 154.621 44.3716 154.919 43.1528H153.605ZM151.911 39.084C152.92 39.084 153.58 39.814 153.612 40.9312H150.121C150.197 39.8203 150.901 39.084 151.911 39.084ZM156.64 45H158.004V40.8804C158.004 39.9092 158.734 39.2427 159.769 39.2427C160.01 39.2427 160.417 39.2871 160.531 39.3188V38.0366C160.385 38.0049 160.125 37.9858 159.921 37.9858C159.02 37.9858 158.252 38.4746 158.055 39.1538H157.954V38.1064H156.64V45ZM161.946 45H163.311V40.9565C163.311 39.8457 163.952 39.1602 164.961 39.1602C165.971 39.1602 166.453 39.7188 166.453 40.8613V45H167.818V40.5376C167.818 38.8936 166.967 37.9731 165.425 37.9731C164.384 37.9731 163.698 38.4365 163.362 39.1982H163.26V38.1064H161.946V45ZM174.273 43.1528C174.02 43.7114 173.455 44.0161 172.629 44.0161C171.538 44.0161 170.833 43.229 170.789 41.9785V41.915H175.67V41.4453C175.67 39.2871 174.508 37.9731 172.585 37.9731C170.636 37.9731 169.398 39.376 169.398 41.5659C169.398 43.7686 170.611 45.1333 172.591 45.1333C174.172 45.1333 175.289 44.3716 175.587 43.1528H174.273ZM172.579 39.084C173.588 39.084 174.248 39.814 174.28 40.9312H170.789C170.865 39.8203 171.569 39.084 172.579 39.084ZM177.371 45H178.736V35.4023H177.371V45ZM184.83 45H186.194V39.2173H187.718V38.1255H186.175V37.4463C186.175 36.748 186.486 36.3989 187.248 36.3989C187.464 36.3989 187.648 36.4116 187.775 36.4307V35.4023C187.54 35.3643 187.273 35.3389 186.962 35.3389C185.528 35.3389 184.83 36.0117 184.83 37.3828V38.1255H183.693V39.2173H184.83V45ZM191.92 45.1333C193.938 45.1333 195.176 43.7812 195.176 41.5532C195.176 39.3252 193.932 37.9731 191.92 37.9731C189.901 37.9731 188.657 39.3315 188.657 41.5532C188.657 43.7812 189.895 45.1333 191.92 45.1333ZM191.92 43.9717C190.733 43.9717 190.066 43.0894 190.066 41.5532C190.066 40.0171 190.733 39.1284 191.92 39.1284C193.101 39.1284 193.773 40.0171 193.773 41.5532C193.773 43.083 193.101 43.9717 191.92 43.9717ZM196.82 45H198.185V40.8804C198.185 39.9092 198.915 39.2427 199.95 39.2427C200.191 39.2427 200.597 39.2871 200.711 39.3188V38.0366C200.565 38.0049 200.305 37.9858 200.102 37.9858C199.201 37.9858 198.433 38.4746 198.236 39.1538H198.134V38.1064H196.82V45ZM206.634 35.8403L205.453 39.4141H206.9L207.599 35.8403H206.634ZM207.713 42.6768C207.713 44.2129 208.849 45.2222 210.506 45.2222C212.271 45.2222 213.337 44.1748 213.337 42.353V35.8403H211.915V42.3467C211.915 43.394 211.401 43.9526 210.493 43.9526C209.681 43.9526 209.128 43.4385 209.109 42.6768H207.713ZM221.297 38.1064H219.932V42.1499C219.932 43.2607 219.329 43.9336 218.225 43.9336C217.222 43.9336 216.771 43.3877 216.771 42.2451V38.1064H215.406V42.5815C215.406 44.2002 216.257 45.1333 217.787 45.1333C218.834 45.1333 219.539 44.689 219.875 43.9082H219.983V45H221.297V38.1064ZM226.864 37.9858C225.924 37.9858 225.112 38.4619 224.693 39.249H224.591V38.1064H223.277V47.2979H224.642V43.959H224.75C225.112 44.689 225.893 45.1143 226.876 45.1143C228.622 45.1143 229.733 43.7305 229.733 41.5532C229.733 39.3633 228.622 37.9858 226.864 37.9858ZM226.477 43.9463C225.334 43.9463 224.617 43.0259 224.617 41.5532C224.617 40.0742 225.334 39.1538 226.483 39.1538C227.638 39.1538 228.33 40.0552 228.33 41.5532C228.33 43.0513 227.638 43.9463 226.477 43.9463ZM231.796 47.501C233.205 47.501 233.859 46.9741 234.449 45.3174L237.026 38.1064H235.579L233.853 43.6289H233.745L232.012 38.1064H230.526L233.027 45.019L232.926 45.3745C232.691 46.1045 232.323 46.3774 231.675 46.3774C231.548 46.3774 231.339 46.3711 231.231 46.3521V47.4692C231.358 47.4883 231.682 47.501 231.796 47.501ZM238.905 36.3672V38.1255H237.807V39.2173H238.905V43.1846C238.905 44.5112 239.508 45.0444 241.025 45.0444C241.292 45.0444 241.546 45.0127 241.768 44.9746V43.8892C241.578 43.9082 241.457 43.9209 241.248 43.9209C240.568 43.9209 240.27 43.5972 240.27 42.8545V39.2173H241.768V38.1255H240.27V36.3672H238.905ZM247.83 43.1528C247.576 43.7114 247.011 44.0161 246.186 44.0161C245.094 44.0161 244.39 43.229 244.345 41.9785V41.915H249.227V41.4453C249.227 39.2871 248.065 37.9731 246.142 37.9731C244.193 37.9731 242.955 39.376 242.955 41.5659C242.955 43.7686 244.167 45.1333 246.148 45.1333C247.729 45.1333 248.846 44.3716 249.144 43.1528H247.83ZM246.135 39.084C247.145 39.084 247.805 39.814 247.836 40.9312H244.345C244.421 39.8203 245.126 39.084 246.135 39.084ZM250.864 45H252.229V40.8804C252.229 39.9092 252.959 39.2427 253.994 39.2427C254.235 39.2427 254.641 39.2871 254.755 39.3188V38.0366C254.609 38.0049 254.349 37.9858 254.146 37.9858C253.245 37.9858 252.477 38.4746 252.28 39.1538H252.178V38.1064H250.864V45ZM261.167 45V38.3477H261.268L265.972 45H267.254V35.8403H265.87V42.5054H265.769L261.065 35.8403H259.783V45H261.167ZM272.319 45.1333C274.338 45.1333 275.576 43.7812 275.576 41.5532C275.576 39.3252 274.332 37.9731 272.319 37.9731C270.301 37.9731 269.057 39.3315 269.057 41.5532C269.057 43.7812 270.294 45.1333 272.319 45.1333ZM272.319 43.9717C271.132 43.9717 270.466 43.0894 270.466 41.5532C270.466 40.0171 271.132 39.1284 272.319 39.1284C273.5 39.1284 274.173 40.0171 274.173 41.5532C274.173 43.083 273.5 43.9717 272.319 43.9717ZM277.702 36.3672V38.1255H276.604V39.2173H277.702V43.1846C277.702 44.5112 278.305 45.0444 279.822 45.0444C280.089 45.0444 280.343 45.0127 280.565 44.9746V43.8892C280.375 43.9082 280.254 43.9209 280.044 43.9209C279.365 43.9209 279.067 43.5972 279.067 42.8545V39.2173H280.565V38.1255H279.067V36.3672H277.702ZM286.627 43.1528C286.373 43.7114 285.808 44.0161 284.983 44.0161C283.891 44.0161 283.187 43.229 283.142 41.9785V41.915H288.023V41.4453C288.023 39.2871 286.862 37.9731 284.938 37.9731C282.99 37.9731 281.752 39.376 281.752 41.5659C281.752 43.7686 282.964 45.1333 284.945 45.1333C286.525 45.1333 287.643 44.3716 287.941 43.1528H286.627ZM284.932 39.084C285.941 39.084 286.602 39.814 286.633 40.9312H283.142C283.218 39.8203 283.923 39.084 284.932 39.084ZM293.324 45.1143C295.069 45.1143 296.18 43.7241 296.18 41.5532C296.18 39.3633 295.076 37.9858 293.324 37.9858C292.378 37.9858 291.565 38.4492 291.197 39.1982H291.089V35.4023H289.725V45H291.039V43.9082H291.14C291.553 44.6699 292.359 45.1143 293.324 45.1143ZM292.93 39.1538C294.085 39.1538 294.777 40.0615 294.777 41.5532C294.777 43.0449 294.085 43.9463 292.93 43.9463C291.781 43.9463 291.07 43.0322 291.064 41.5532C291.07 40.0742 291.788 39.1538 292.93 39.1538ZM300.744 45.1333C302.763 45.1333 304 43.7812 304 41.5532C304 39.3252 302.756 37.9731 300.744 37.9731C298.726 37.9731 297.481 39.3315 297.481 41.5532C297.481 43.7812 298.719 45.1333 300.744 45.1333ZM300.744 43.9717C299.557 43.9717 298.891 43.0894 298.891 41.5532C298.891 40.0171 299.557 39.1284 300.744 39.1284C301.925 39.1284 302.598 40.0171 302.598 41.5532C302.598 43.083 301.925 43.9717 300.744 43.9717ZM308.564 45.1333C310.583 45.1333 311.821 43.7812 311.821 41.5532C311.821 39.3252 310.577 37.9731 308.564 37.9731C306.546 37.9731 305.302 39.3315 305.302 41.5532C305.302 43.7812 306.54 45.1333 308.564 45.1333ZM308.564 43.9717C307.377 43.9717 306.711 43.0894 306.711 41.5532C306.711 40.0171 307.377 39.1284 308.564 39.1284C309.745 39.1284 310.418 40.0171 310.418 41.5532C310.418 43.083 309.745 43.9717 308.564 43.9717ZM315.001 41.0137H314.893V35.4023H313.528V45H314.893V42.4927L315.496 41.915L317.87 45H319.546L316.512 41.0581L319.355 38.1064H317.743L315.001 41.0137ZM321.863 45.0952C322.402 45.0952 322.796 44.6953 322.796 44.1812C322.796 43.667 322.402 43.2671 321.863 43.2671C321.33 43.2671 320.93 43.667 320.93 44.1812C320.93 44.6953 321.33 45.0952 321.863 45.0952ZM325.608 36.875C326.084 36.875 326.471 36.4878 326.471 36.0181C326.471 35.542 326.084 35.1548 325.608 35.1548C325.132 35.1548 324.745 35.542 324.745 36.0181C324.745 36.4878 325.132 36.875 325.608 36.875ZM324.929 45H326.287V38.1064H324.929V45ZM331.879 37.9858C330.94 37.9858 330.127 38.4619 329.708 39.249H329.607V38.1064H328.293V47.2979H329.658V43.959H329.766C330.127 44.689 330.908 45.1143 331.892 45.1143C333.638 45.1143 334.749 43.7305 334.749 41.5532C334.749 39.3633 333.638 37.9858 331.879 37.9858ZM331.492 43.9463C330.35 43.9463 329.632 43.0259 329.632 41.5532C329.632 40.0742 330.35 39.1538 331.499 39.1538C332.654 39.1538 333.346 40.0552 333.346 41.5532C333.346 43.0513 332.654 43.9463 331.492 43.9463ZM336.812 47.501C338.221 47.501 338.875 46.9741 339.465 45.3174L342.042 38.1064H340.595L338.868 43.6289H338.76L337.027 38.1064H335.542L338.043 45.019L337.941 45.3745C337.707 46.1045 337.338 46.3774 336.691 46.3774C336.564 46.3774 336.354 46.3711 336.247 46.3521V47.4692C336.374 47.4883 336.697 47.501 336.812 47.501ZM343.438 45H344.803V40.9565C344.803 39.8457 345.444 39.1602 346.454 39.1602C347.463 39.1602 347.945 39.7188 347.945 40.8613V45H349.31V40.5376C349.31 38.8936 348.459 37.9731 346.917 37.9731C345.876 37.9731 345.19 38.4365 344.854 39.1982H344.752V38.1064H343.438V45ZM354.896 45.1143C356.642 45.1143 357.752 43.7241 357.752 41.5532C357.752 39.3633 356.648 37.9858 354.896 37.9858C353.95 37.9858 353.138 38.4492 352.77 39.1982H352.662V35.4023H351.297V45H352.611V43.9082H352.712C353.125 44.6699 353.931 45.1143 354.896 45.1143ZM354.502 39.1538C355.658 39.1538 356.35 40.0615 356.35 41.5532C356.35 43.0449 355.658 43.9463 354.502 43.9463C353.354 43.9463 352.643 43.0322 352.636 41.5532C352.643 40.0742 353.36 39.1538 354.502 39.1538ZM360.241 39.4141L361.415 35.8403H359.968L359.27 39.4141H360.241Z" fill="var(--vscode-editorOverviewRuler-bracketMatchForeground, #A0A0A0)"/>
<rect x="93.5" y="27.5" width="386" height="25" stroke="var(--vscode-focusBorder, #007FD4)"/>
<rect opacity="0.4" x="98" y="66" width="38" height="6" rx="3" fill="var(--vscode-menu-foreground, #CCCCCC)"/>
<rect opacity="0.4" x="173" y="66" width="105" height="6" rx="3" fill="var(--vscode-menu-foreground, #CCCCCC)"/>
<rect opacity="0.4" x="140" y="66" width="29" height="6" rx="3" fill="var(--vscode-menu-foreground, #CCCCCC)"/>
<rect width="401" height="40" transform="translate(86 82)" fill="var(--vscode-list-activeSelectionBackground, #062F4A)"/>
<path d="M99.1489 89.8403V99H100.571V95.8706H102.691C104.487 95.8706 105.757 94.6392 105.757 92.8745C105.757 91.0718 104.525 89.8403 102.735 89.8403H99.1489ZM100.571 91.04H102.361C103.611 91.04 104.303 91.6875 104.303 92.8745C104.303 94.0234 103.586 94.6772 102.361 94.6772H100.571V91.04ZM108.334 101.501C109.743 101.501 110.397 100.974 110.987 99.3174L113.564 92.1064H112.117L110.391 97.6289H110.283L108.55 92.1064H107.064L109.565 99.019L109.464 99.3745C109.229 100.104 108.861 100.377 108.213 100.377C108.086 100.377 107.877 100.371 107.769 100.352V101.469C107.896 101.488 108.22 101.501 108.334 101.501ZM115.443 90.3672V92.1255H114.345V93.2173H115.443V97.1846C115.443 98.5112 116.046 99.0444 117.563 99.0444C117.83 99.0444 118.084 99.0127 118.306 98.9746V97.8892C118.116 97.9082 117.995 97.9209 117.786 97.9209C117.106 97.9209 116.808 97.5972 116.808 96.8545V93.2173H118.306V92.1255H116.808V90.3672H115.443ZM119.976 99H121.34V94.9629C121.34 93.8838 121.962 93.1665 123.08 93.1665C124.044 93.1665 124.559 93.7314 124.559 94.8677V99H125.923V94.5439C125.923 92.9126 125.016 91.9795 123.543 91.9795C122.502 91.9795 121.772 92.4365 121.436 93.2046H121.328V89.4023H119.976V99ZM130.767 99.1333C132.785 99.1333 134.023 97.7812 134.023 95.5532C134.023 93.3252 132.779 91.9731 130.767 91.9731C128.748 91.9731 127.504 93.3315 127.504 95.5532C127.504 97.7812 128.742 99.1333 130.767 99.1333ZM130.767 97.9717C129.58 97.9717 128.913 97.0894 128.913 95.5532C128.913 94.0171 129.58 93.1284 130.767 93.1284C131.947 93.1284 132.62 94.0171 132.62 95.5532C132.62 97.083 131.947 97.9717 130.767 97.9717ZM135.667 99H137.032V94.9565C137.032 93.8457 137.673 93.1602 138.682 93.1602C139.691 93.1602 140.174 93.7188 140.174 94.8613V99H141.539V94.5376C141.539 92.8936 140.688 91.9731 139.146 91.9731C138.104 91.9731 137.419 92.4365 137.083 93.1982H136.981V92.1064H135.667V99ZM149.042 94.855H150.184C151.377 94.855 152.114 95.4644 152.114 96.4419C152.114 97.394 151.327 98.0288 150.203 98.0288C149.092 98.0288 148.324 97.4512 148.242 96.5498H146.877C146.953 98.1621 148.286 99.2222 150.222 99.2222C152.133 99.2222 153.574 98.0796 153.574 96.5181C153.574 95.2612 152.787 94.4487 151.568 94.2646V94.1567C152.526 93.8901 153.218 93.1602 153.225 92.0557C153.231 90.7544 152.158 89.6182 150.267 89.6182C148.337 89.6182 147.144 90.729 147.048 92.2842H148.394C148.477 91.3257 149.143 90.7861 150.184 90.7861C151.212 90.7861 151.822 91.4272 151.822 92.2334C151.822 93.1157 151.136 93.7378 150.146 93.7378H149.042V94.855ZM155.96 99.0952C156.5 99.0952 156.894 98.6953 156.894 98.1812C156.894 97.667 156.5 97.2671 155.96 97.2671C155.427 97.2671 155.027 97.667 155.027 98.1812C155.027 98.6953 155.427 99.0952 155.96 99.0952ZM159.337 99H160.829L164.815 91.0718V89.8403H158.576V91.04H163.375V91.1416L159.337 99ZM166.002 99.0952C166.542 99.0952 166.936 98.6953 166.936 98.1812C166.936 97.667 166.542 97.2671 166.002 97.2671C165.469 97.2671 165.069 97.667 165.069 98.1812C165.069 98.6953 165.469 99.0952 166.002 99.0952ZM170.706 99H172.128V89.8403H170.712L168.3 91.5542V92.9507L170.598 91.3066H170.706V99ZM178.031 99.2222C180.164 99.2222 181.408 97.4639 181.408 94.4297C181.408 91.3892 180.145 89.6182 178.031 89.6182C175.905 89.6182 174.642 91.3892 174.642 94.4106C174.642 97.4575 175.892 99.2222 178.031 99.2222ZM178.031 98.0415C176.787 98.0415 176.076 96.772 176.076 94.4106C176.076 92.0811 176.8 90.8052 178.031 90.8052C179.263 90.8052 179.974 92.0684 179.974 94.4106C179.974 96.7783 179.275 98.0415 178.031 98.0415ZM190.174 99.2158C192.117 99.2158 193.494 97.8892 193.494 96.0293C193.494 94.2646 192.225 92.9761 190.485 92.9761C189.4 92.9761 188.518 93.4839 188.08 94.3662H187.972C187.997 92.043 188.835 90.8179 190.263 90.8179C191.126 90.8179 191.755 91.2622 191.933 92.0366H193.361C193.132 90.583 191.952 89.6182 190.231 89.6182C188.003 89.6182 186.607 91.4336 186.607 94.5439C186.607 97.6606 188.111 99.2158 190.174 99.2158ZM190.162 98.0288C189.07 98.0288 188.238 97.1655 188.238 96.0356C188.238 94.9185 189.044 94.1123 190.174 94.1123C191.304 94.1123 192.085 94.9185 192.085 96.0674C192.085 97.1782 191.253 98.0288 190.162 98.0288ZM199.512 99H200.883V97.1782H202.146V95.9722H200.883V89.8403H198.858C197.595 91.7383 196.249 93.9028 195.043 95.9722V97.1782H199.512V99ZM196.408 95.9087C197.347 94.3027 198.464 92.519 199.448 91.04H199.531V95.9976H196.408V95.9087ZM208.068 95.9404V94.6772H203.904V95.9404H208.068ZM213.737 99.1143C215.482 99.1143 216.593 97.7241 216.593 95.5532C216.593 93.3633 215.489 91.9858 213.737 91.9858C212.791 91.9858 211.979 92.4492 211.61 93.1982H211.502V89.4023H210.138V99H211.452V97.9082H211.553C211.966 98.6699 212.772 99.1143 213.737 99.1143ZM213.343 93.1538C214.499 93.1538 215.19 94.0615 215.19 95.5532C215.19 97.0449 214.499 97.9463 213.343 97.9463C212.194 97.9463 211.483 97.0322 211.477 95.5532C211.483 94.0742 212.201 93.1538 213.343 93.1538ZM218.942 90.875C219.418 90.875 219.805 90.4878 219.805 90.0181C219.805 89.542 219.418 89.1548 218.942 89.1548C218.466 89.1548 218.079 89.542 218.079 90.0181C218.079 90.4878 218.466 90.875 218.942 90.875ZM218.263 99H219.621V92.1064H218.263V99ZM222.109 90.3672V92.1255H221.011V93.2173H222.109V97.1846C222.109 98.5112 222.712 99.0444 224.229 99.0444C224.496 99.0444 224.75 99.0127 224.972 98.9746V97.8892C224.782 97.9082 224.661 97.9209 224.452 97.9209C223.772 97.9209 223.474 97.5972 223.474 96.8545V93.2173H224.972V92.1255H223.474V90.3672H222.109ZM230.634 95.1787C230.634 97.4829 231.231 99.3682 232.469 100.955H233.675C232.754 99.7871 232.043 97.3496 232.043 95.1724C232.043 93.0078 232.761 90.564 233.675 89.4023H232.469C231.231 90.9829 230.634 92.8745 230.634 95.1787ZM236.379 89.8403L235.198 93.4141H236.646L237.344 89.8403H236.379ZM242.86 99.1143C244.605 99.1143 245.716 97.7241 245.716 95.5532C245.716 93.3633 244.612 91.9858 242.86 91.9858C241.914 91.9858 241.102 92.4492 240.733 93.1982H240.625V89.4023H239.261V99H240.575V97.9082H240.676C241.089 98.6699 241.895 99.1143 242.86 99.1143ZM242.466 93.1538C243.622 93.1538 244.313 94.0615 244.313 95.5532C244.313 97.0449 243.622 97.9463 242.466 97.9463C241.317 97.9463 240.606 97.0322 240.6 95.5532C240.606 94.0742 241.324 93.1538 242.466 93.1538ZM249.271 99.1143C250.179 99.1143 250.934 98.7207 251.347 98.0225H251.455V99H252.769V94.2837C252.769 92.8364 251.791 91.9731 250.058 91.9731C248.49 91.9731 247.373 92.7285 247.233 93.8901H248.554C248.706 93.3887 249.233 93.103 249.995 93.103C250.928 93.103 251.41 93.5283 251.41 94.2837V94.8867L249.538 95.001C247.894 95.1025 246.967 95.8198 246.967 97.0576C246.967 98.3145 247.938 99.1143 249.271 99.1143ZM249.62 98.0161C248.877 98.0161 248.338 97.6416 248.338 97.0005C248.338 96.3721 248.77 96.0356 249.722 95.9722L251.41 95.8579V96.4546C251.41 97.3433 250.648 98.0161 249.62 98.0161ZM254.552 94.0361C254.552 95.0581 255.162 95.6421 256.476 95.9468L257.682 96.2324C258.374 96.3975 258.697 96.6768 258.697 97.1084C258.697 97.6733 258.094 98.0669 257.244 98.0669C256.418 98.0669 255.911 97.7305 255.739 97.1909H254.375C254.495 98.3906 255.568 99.1333 257.212 99.1333C258.862 99.1333 260.075 98.2637 260.075 96.9814C260.075 95.9785 259.459 95.4136 258.145 95.1089L256.996 94.8423C256.247 94.6646 255.898 94.3979 255.898 93.9727C255.898 93.4141 256.476 93.0396 257.237 93.0396C258.012 93.0396 258.507 93.376 258.634 93.8901H259.941C259.808 92.6968 258.792 91.9731 257.237 91.9731C255.676 91.9731 254.552 92.8364 254.552 94.0361ZM266.251 97.1528C265.997 97.7114 265.432 98.0161 264.607 98.0161C263.515 98.0161 262.811 97.229 262.766 95.9785V95.915H267.647V95.4453C267.647 93.2871 266.486 91.9731 264.562 91.9731C262.614 91.9731 261.376 93.376 261.376 95.5659C261.376 97.7686 262.588 99.1333 264.569 99.1333C266.149 99.1333 267.267 98.3716 267.565 97.1528H266.251ZM264.556 93.084C265.565 93.084 266.226 93.814 266.257 94.9312H262.766C262.842 93.8203 263.547 93.084 264.556 93.084ZM270.129 93.4141L271.304 89.8403H269.856L269.158 93.4141H270.129ZM273.646 94.3281C274.186 94.3281 274.579 93.9282 274.579 93.4141C274.579 92.8999 274.186 92.5 273.646 92.5C273.113 92.5 272.713 92.8999 272.713 93.4141C272.713 93.9282 273.113 94.3281 273.646 94.3281ZM273.646 99.0952C274.186 99.0952 274.579 98.6953 274.579 98.1812C274.579 97.667 274.186 97.2671 273.646 97.2671C273.113 97.2671 272.713 97.667 272.713 98.1812C272.713 98.6953 273.113 99.0952 273.646 99.0952ZM286.094 94.3218C285.916 92.9824 284.869 91.9731 283.136 91.9731C281.124 91.9731 279.898 93.3379 279.898 95.5278C279.898 97.7622 281.13 99.1333 283.142 99.1333C284.85 99.1333 285.916 98.1748 286.094 96.8164H284.767C284.589 97.5654 283.999 97.9717 283.136 97.9717C282 97.9717 281.295 97.0513 281.295 95.5278C281.295 94.0361 281.993 93.1348 283.136 93.1348C284.05 93.1348 284.608 93.6489 284.767 94.3218H286.094ZM290.575 99.1333C292.594 99.1333 293.832 97.7812 293.832 95.5532C293.832 93.3252 292.587 91.9731 290.575 91.9731C288.557 91.9731 287.312 93.3315 287.312 95.5532C287.312 97.7812 288.55 99.1333 290.575 99.1333ZM290.575 97.9717C289.388 97.9717 288.722 97.0894 288.722 95.5532C288.722 94.0171 289.388 93.1284 290.575 93.1284C291.756 93.1284 292.429 94.0171 292.429 95.5532C292.429 97.083 291.756 97.9717 290.575 97.9717ZM295.476 99H296.84V94.9565C296.84 93.8457 297.481 93.1602 298.491 93.1602C299.5 93.1602 299.982 93.7188 299.982 94.8613V99H301.347V94.5376C301.347 92.8936 300.497 91.9731 298.954 91.9731C297.913 91.9731 297.228 92.4365 296.891 93.1982H296.79V92.1064H295.476V99ZM305.797 99.1143C306.749 99.1143 307.555 98.6636 307.968 97.9082H308.076V99H309.383V89.4023H308.019V93.1982H307.917C307.542 92.4429 306.743 91.9858 305.797 91.9858C304.051 91.9858 302.928 93.376 302.928 95.5469C302.928 97.7305 304.039 99.1143 305.797 99.1143ZM306.184 93.1538C307.327 93.1538 308.044 94.0806 308.044 95.5532C308.044 97.0386 307.333 97.9463 306.184 97.9463C305.029 97.9463 304.337 97.0513 304.337 95.5532C304.337 94.0615 305.035 93.1538 306.184 93.1538ZM313.344 99.1143C314.252 99.1143 315.007 98.7207 315.42 98.0225H315.528V99H316.842V94.2837C316.842 92.8364 315.864 91.9731 314.131 91.9731C312.563 91.9731 311.446 92.7285 311.307 93.8901H312.627C312.779 93.3887 313.306 93.103 314.068 93.103C315.001 93.103 315.483 93.5283 315.483 94.2837V94.8867L313.611 95.001C311.967 95.1025 311.04 95.8198 311.04 97.0576C311.04 98.3145 312.011 99.1143 313.344 99.1143ZM313.693 98.0161C312.951 98.0161 312.411 97.6416 312.411 97.0005C312.411 96.3721 312.843 96.0356 313.795 95.9722L315.483 95.8579V96.4546C315.483 97.3433 314.722 98.0161 313.693 98.0161ZM321.482 95.1787C321.482 92.8809 320.885 90.9893 319.654 89.4023H318.448C319.362 90.5703 320.079 93.0078 320.079 95.1851C320.079 97.356 319.362 99.7935 318.448 100.955H319.654C320.885 99.3745 321.482 97.4893 321.482 95.1787Z" fill="var(--vscode-list-activeSelectionForeground, #E3E3E3)"/>
<path opacity="0.7" d="M103.688 114.651C104.703 114.651 105.604 113.921 105.579 112.309H104.443C104.405 113.052 104.138 113.439 103.63 113.439C103.364 113.439 103.148 113.35 102.716 112.963C102.056 112.36 101.599 112.074 100.945 112.074C99.936 112.074 99.022 112.798 99.0474 114.41H100.19C100.228 113.667 100.514 113.28 101.002 113.28C101.282 113.28 101.51 113.401 101.91 113.763C102.621 114.397 103.034 114.651 103.688 114.651ZM109.965 118.955H111.216L107.883 107.402H106.633L109.965 118.955ZM118.319 117H119.83L116.522 107.84H114.993L111.686 117H113.146L113.99 114.524H117.481L118.319 117ZM115.685 109.459H115.792L117.119 113.382H114.352L115.685 109.459ZM121.271 117H122.635V112.957C122.635 111.846 123.276 111.16 124.286 111.16C125.295 111.16 125.777 111.719 125.777 112.861V117H127.142V112.538C127.142 110.894 126.292 109.973 124.749 109.973C123.708 109.973 123.022 110.437 122.686 111.198H122.584V110.106H121.271V117ZM130.976 117.114C131.884 117.114 132.639 116.721 133.052 116.022H133.16V117H134.474V112.284C134.474 110.836 133.496 109.973 131.763 109.973C130.195 109.973 129.078 110.729 128.938 111.89H130.259C130.411 111.389 130.938 111.103 131.7 111.103C132.633 111.103 133.115 111.528 133.115 112.284V112.887L131.243 113.001C129.599 113.103 128.672 113.82 128.672 115.058C128.672 116.314 129.643 117.114 130.976 117.114ZM131.325 116.016C130.583 116.016 130.043 115.642 130.043 115C130.043 114.372 130.475 114.036 131.427 113.972L133.115 113.858V114.455C133.115 115.343 132.354 116.016 131.325 116.016ZM142.269 112.322C142.091 110.982 141.043 109.973 139.311 109.973C137.298 109.973 136.073 111.338 136.073 113.528C136.073 115.762 137.305 117.133 139.317 117.133C141.024 117.133 142.091 116.175 142.269 114.816H140.942C140.764 115.565 140.174 115.972 139.311 115.972C138.174 115.972 137.47 115.051 137.47 113.528C137.47 112.036 138.168 111.135 139.311 111.135C140.225 111.135 140.783 111.649 140.942 112.322H142.269ZM146.75 117.133C148.769 117.133 150.006 115.781 150.006 113.553C150.006 111.325 148.762 109.973 146.75 109.973C144.731 109.973 143.487 111.332 143.487 113.553C143.487 115.781 144.725 117.133 146.75 117.133ZM146.75 115.972C145.563 115.972 144.896 115.089 144.896 113.553C144.896 112.017 145.563 111.128 146.75 111.128C147.931 111.128 148.604 112.017 148.604 113.553C148.604 115.083 147.931 115.972 146.75 115.972ZM151.65 117H153.015V112.957C153.015 111.846 153.656 111.16 154.666 111.16C155.675 111.16 156.157 111.719 156.157 112.861V117H157.522V112.538C157.522 110.894 156.671 109.973 155.129 109.973C154.088 109.973 153.402 110.437 153.066 111.198H152.964V110.106H151.65V117ZM161.972 117.114C162.924 117.114 163.73 116.664 164.143 115.908H164.25V117H165.558V107.402H164.193V111.198H164.092C163.717 110.443 162.917 109.986 161.972 109.986C160.226 109.986 159.103 111.376 159.103 113.547C159.103 115.73 160.213 117.114 161.972 117.114ZM162.359 111.154C163.501 111.154 164.219 112.081 164.219 113.553C164.219 115.039 163.508 115.946 162.359 115.946C161.204 115.946 160.512 115.051 160.512 113.553C160.512 112.062 161.21 111.154 162.359 111.154ZM169.519 117.114C170.427 117.114 171.182 116.721 171.595 116.022H171.703V117H173.017V112.284C173.017 110.836 172.039 109.973 170.306 109.973C168.738 109.973 167.621 110.729 167.481 111.89H168.802C168.954 111.389 169.481 111.103 170.243 111.103C171.176 111.103 171.658 111.528 171.658 112.284V112.887L169.786 113.001C168.142 113.103 167.215 113.82 167.215 115.058C167.215 116.314 168.186 117.114 169.519 117.114ZM169.868 116.016C169.125 116.016 168.586 115.642 168.586 115C168.586 114.372 169.018 114.036 169.97 113.972L171.658 113.858V114.455C171.658 115.343 170.896 116.016 169.868 116.016ZM176.984 112.855H178.126C179.32 112.855 180.056 113.464 180.056 114.442C180.056 115.394 179.269 116.029 178.146 116.029C177.035 116.029 176.267 115.451 176.184 114.55H174.819C174.896 116.162 176.229 117.222 178.165 117.222C180.075 117.222 181.516 116.08 181.516 114.518C181.516 113.261 180.729 112.449 179.51 112.265V112.157C180.469 111.89 181.161 111.16 181.167 110.056C181.173 108.754 180.101 107.618 178.209 107.618C176.279 107.618 175.086 108.729 174.991 110.284H176.336C176.419 109.326 177.085 108.786 178.126 108.786C179.155 108.786 179.764 109.427 179.764 110.233C179.764 111.116 179.079 111.738 178.088 111.738H176.984V112.855ZM185.82 118.955H187.07L183.738 107.402H182.487L185.82 118.955ZM191.672 109.986C190.733 109.986 189.92 110.462 189.501 111.249H189.4V110.106H188.086V119.298H189.451V115.959H189.559C189.92 116.689 190.701 117.114 191.685 117.114C193.431 117.114 194.542 115.73 194.542 113.553C194.542 111.363 193.431 109.986 191.672 109.986ZM191.285 115.946C190.143 115.946 189.425 115.026 189.425 113.553C189.425 112.074 190.143 111.154 191.292 111.154C192.447 111.154 193.139 112.055 193.139 113.553C193.139 115.051 192.447 115.946 191.285 115.946ZM196.604 119.501C198.014 119.501 198.667 118.974 199.258 117.317L201.835 110.106H200.388L198.661 115.629H198.553L196.82 110.106H195.335L197.836 117.019L197.734 117.375C197.5 118.104 197.131 118.377 196.484 118.377C196.357 118.377 196.147 118.371 196.04 118.352V119.469C196.167 119.488 196.49 119.501 196.604 119.501ZM203.714 108.367V110.125H202.616V111.217H203.714V115.185C203.714 116.511 204.317 117.044 205.834 117.044C206.101 117.044 206.354 117.013 206.577 116.975V115.889C206.386 115.908 206.266 115.921 206.056 115.921C205.377 115.921 205.079 115.597 205.079 114.854V111.217H206.577V110.125H205.079V108.367H203.714ZM208.246 117H209.611V112.963C209.611 111.884 210.233 111.167 211.35 111.167C212.315 111.167 212.829 111.731 212.829 112.868V117H214.194V112.544C214.194 110.913 213.286 109.979 211.813 109.979C210.772 109.979 210.042 110.437 209.706 111.205H209.598V107.402H208.246V117ZM219.037 117.133C221.056 117.133 222.293 115.781 222.293 113.553C222.293 111.325 221.049 109.973 219.037 109.973C217.019 109.973 215.774 111.332 215.774 113.553C215.774 115.781 217.012 117.133 219.037 117.133ZM219.037 115.972C217.85 115.972 217.184 115.089 217.184 113.553C217.184 112.017 217.85 111.128 219.037 111.128C220.218 111.128 220.891 112.017 220.891 113.553C220.891 115.083 220.218 115.972 219.037 115.972ZM223.938 117H225.302V112.957C225.302 111.846 225.943 111.16 226.953 111.16C227.962 111.16 228.444 111.719 228.444 112.861V117H229.809V112.538C229.809 110.894 228.958 109.973 227.416 109.973C226.375 109.973 225.689 110.437 225.353 111.198H225.251V110.106H223.938V117ZM232.792 117.095C233.332 117.095 233.726 116.695 233.726 116.181C233.726 115.667 233.332 115.267 232.792 115.267C232.259 115.267 231.859 115.667 231.859 116.181C231.859 116.695 232.259 117.095 232.792 117.095ZM240.111 115.153C239.857 115.711 239.292 116.016 238.467 116.016C237.375 116.016 236.671 115.229 236.626 113.979V113.915H241.508V113.445C241.508 111.287 240.346 109.973 238.423 109.973C236.474 109.973 235.236 111.376 235.236 113.566C235.236 115.769 236.449 117.133 238.429 117.133C240.01 117.133 241.127 116.372 241.425 115.153H240.111ZM238.417 111.084C239.426 111.084 240.086 111.814 240.118 112.931H236.626C236.703 111.82 237.407 111.084 238.417 111.084ZM245.456 114.531L246.967 117.013H248.535L246.23 113.528L248.509 110.119H246.986L245.513 112.582H245.405L243.92 110.119H242.327L244.637 113.579L242.346 117.013H243.844L245.354 114.531H245.456ZM254.152 115.153C253.898 115.711 253.333 116.016 252.508 116.016C251.417 116.016 250.712 115.229 250.667 113.979V113.915H255.549V113.445C255.549 111.287 254.387 109.973 252.464 109.973C250.515 109.973 249.277 111.376 249.277 113.566C249.277 115.769 250.49 117.133 252.47 117.133C254.051 117.133 255.168 116.372 255.466 115.153H254.152ZM252.458 111.084C253.467 111.084 254.127 111.814 254.159 112.931H250.667C250.744 111.82 251.448 111.084 252.458 111.084Z" fill="var(--vscode-list-activeSelectionForeground, #E3E3E3)"/>
<rect opacity="0.4" x="98" y="132" width="62.5" height="6" rx="3" fill="var(--vscode-menu-foreground, #CCCCCC)"/>
<rect opacity="0.4" x="164.5" y="132" width="29" height="6" rx="3" fill="var(--vscode-menu-foreground, #CCCCCC)"/>
<rect opacity="0.4" x="197.5" y="132" width="62.5" height="6" rx="3" fill="var(--vscode-menu-foreground, #CCCCCC)"/>
<rect opacity="0.4" x="98" y="154" width="41" height="6" rx="3" fill="var(--vscode-menu-foreground, #CCCCCC)"/>
<rect opacity="0.4" x="143" y="154" width="69" height="6" rx="3" fill="var(--vscode-menu-foreground, #CCCCCC)"/>
<rect opacity="0.4" x="216" y="154" width="26" height="6" rx="3" fill="var(--vscode-menu-foreground, #CCCCCC)"/>
<rect opacity="0.4" x="98" y="176" width="26" height="6" rx="3" fill="var(--vscode-menu-foreground, #CCCCCC)"/>
<rect opacity="0.4" x="128" y="176" width="164" height="6" rx="3" fill="var(--vscode-menu-foreground, #CCCCCC)"/>
<rect opacity="0.4" x="98" y="198" width="46" height="6" rx="3" fill="var(--vscode-menu-foreground, #CCCCCC)"/>
<rect opacity="0.4" x="148" y="198" width="29" height="6" rx="3" fill="var(--vscode-menu-foreground, #CCCCCC)"/>
<rect opacity="0.4" x="181" y="198" width="46" height="6" rx="3" fill="var(--vscode-menu-foreground, #CCCCCC)"/>
</g>
<path d="M506 50C506 47.7909 507.791 46 510 46H598C600.209 46 602 47.7909 602 50V64C602 66.2091 600.209 68 598 68H510C507.791 68 506 66.2091 506 64V50Z" fill="var(--vscode-notificationCenterHeader-background, #303031)"/>
<path d="M515.027 51.9867H519.027V53H515.027V51.9867ZM515.027 58.0133H519.027V58.9733H515.027V58.0133ZM515.027 59.9867H519.027V61H515.027V59.9867ZM524.147 65H509.853L511.133 59.9867H513V50.9733C513 50.8667 513.018 50.76 513.053 50.6533C513.124 50.5111 513.196 50.4044 513.267 50.3333C513.373 50.2267 513.48 50.1556 513.587 50.12C513.729 50.0489 513.871 50.0133 514.013 50.0133H519.987C520.129 50.0133 520.253 50.0489 520.36 50.12C520.502 50.1556 520.609 50.2267 520.68 50.3333C520.787 50.4044 520.858 50.5111 520.893 50.6533C520.964 50.76 521 50.8844 521 51.0267V59.9867H522.867L524.147 65ZM514.013 62.0133H519.987V50.9733H514.013V62.0133ZM522.867 63.9867L522.12 61H521V62.9733H513V61H511.88L511.133 63.9867H522.867Z" fill="var(--vscode-menu-foreground, #CCCCCC)"/>
<path d="M530.001 58.4321C530.087 59.8071 531.242 60.688 532.96 60.688C534.797 60.688 535.947 59.7642 535.947 58.2979C535.947 57.1377 535.292 56.4985 533.702 56.1172L532.848 55.9077C531.838 55.6606 531.43 55.3384 531.43 54.7744C531.43 54.0493 532.063 53.582 533.014 53.582C533.917 53.582 534.54 54.0332 534.652 54.769H535.823C535.753 53.4746 534.604 52.5615 533.03 52.5615C531.338 52.5615 530.21 53.4746 530.21 54.8389C530.21 55.9668 530.85 56.6328 532.251 56.9712L533.25 57.2129C534.276 57.46 534.728 57.8359 534.728 58.4429C534.728 59.1519 534.019 59.6621 533.052 59.6621C532.015 59.6621 531.295 59.1841 531.193 58.4321H530.001ZM541.232 58.937C541.017 59.4097 540.539 59.6675 539.841 59.6675C538.917 59.6675 538.321 59.0015 538.283 57.9434V57.8896H542.414V57.4922C542.414 55.666 541.431 54.5542 539.803 54.5542C538.154 54.5542 537.107 55.7412 537.107 57.5942C537.107 59.458 538.133 60.6128 539.809 60.6128C541.146 60.6128 542.091 59.9683 542.344 58.937H541.232ZM539.798 55.4941C540.652 55.4941 541.21 56.1118 541.237 57.0571H538.283C538.348 56.1172 538.944 55.4941 539.798 55.4941ZM543.853 60.5H545.008V52.3789H543.853V60.5ZM550.578 58.937C550.363 59.4097 549.885 59.6675 549.187 59.6675C548.263 59.6675 547.667 59.0015 547.629 57.9434V57.8896H551.759V57.4922C551.759 55.666 550.776 54.5542 549.149 54.5542C547.5 54.5542 546.453 55.7412 546.453 57.5942C546.453 59.458 547.479 60.6128 549.154 60.6128C550.492 60.6128 551.437 59.9683 551.689 58.937H550.578ZM549.144 55.4941C549.998 55.4941 550.556 56.1118 550.583 57.0571H547.629C547.693 56.1172 548.29 55.4941 549.144 55.4941ZM558.097 56.5415C557.947 55.4082 557.061 54.5542 555.594 54.5542C553.892 54.5542 552.855 55.709 552.855 57.562C552.855 59.4526 553.897 60.6128 555.6 60.6128C557.044 60.6128 557.947 59.8018 558.097 58.6523H556.975C556.824 59.2861 556.325 59.6299 555.594 59.6299C554.633 59.6299 554.037 58.8511 554.037 57.562C554.037 56.2998 554.627 55.5371 555.594 55.5371C556.368 55.5371 556.84 55.9722 556.975 56.5415H558.097ZM559.913 53.1953V54.6831H558.983V55.6069H559.913V58.9639C559.913 60.0864 560.423 60.5376 561.707 60.5376C561.932 60.5376 562.147 60.5107 562.335 60.4785V59.5601C562.174 59.5762 562.072 59.5869 561.895 59.5869C561.32 59.5869 561.067 59.313 561.067 58.6846V55.6069H562.335V54.6831H561.067V53.1953H559.913ZM568.001 57.127H567.91V52.3789H566.755V60.5H567.91V58.3784L568.42 57.8896L570.429 60.5H571.847L569.28 57.1646L571.686 54.667H570.322L568.001 57.127ZM576.445 58.937C576.23 59.4097 575.752 59.6675 575.054 59.6675C574.13 59.6675 573.534 59.0015 573.496 57.9434V57.8896H577.626V57.4922C577.626 55.666 576.644 54.5542 575.016 54.5542C573.367 54.5542 572.32 55.7412 572.32 57.5942C572.32 59.458 573.346 60.6128 575.021 60.6128C576.359 60.6128 577.304 59.9683 577.557 58.937H576.445ZM575.011 55.4941C575.865 55.4941 576.423 56.1118 576.45 57.0571H573.496C573.561 56.1172 574.157 55.4941 575.011 55.4941ZM579.012 60.5H580.167V57.0142C580.167 56.1924 580.785 55.6284 581.66 55.6284C581.864 55.6284 582.208 55.666 582.305 55.6929V54.6079C582.181 54.5811 581.961 54.5649 581.789 54.5649C581.026 54.5649 580.376 54.9785 580.21 55.5532H580.124V54.667H579.012V60.5ZM583.502 60.5H584.657V57.0786C584.657 56.1387 585.2 55.5586 586.054 55.5586C586.908 55.5586 587.316 56.0312 587.316 56.998V60.5H588.471V56.7241C588.471 55.333 587.751 54.5542 586.446 54.5542C585.565 54.5542 584.985 54.9463 584.7 55.5908H584.614V54.667H583.502V60.5ZM593.933 58.937C593.718 59.4097 593.24 59.6675 592.542 59.6675C591.618 59.6675 591.022 59.0015 590.984 57.9434V57.8896H595.115V57.4922C595.115 55.666 594.132 54.5542 592.504 54.5542C590.855 54.5542 589.808 55.7412 589.808 57.5942C589.808 59.458 590.834 60.6128 592.51 60.6128C593.847 60.6128 594.792 59.9683 595.045 58.937H593.933ZM592.499 55.4941C593.353 55.4941 593.912 56.1118 593.938 57.0571H590.984C591.049 56.1172 591.645 55.4941 592.499 55.4941ZM596.554 60.5H597.709V52.3789H596.554V60.5Z" fill="var(--vscode-menu-foreground, #CCCCCC)"/>
<g filter="url(#filter1_d_6_11353)">
<path fill-rule="evenodd" clip-rule="evenodd" d="M542.639 77.9735C542.282 77.5219 541.848 76.5985 541.076 75.4776C540.638 74.8436 539.552 73.6497 539.229 73.0434C538.948 72.5075 538.978 72.2672 539.045 71.8231C539.163 71.0331 539.974 70.4179 540.838 70.5009C541.491 70.5626 542.044 70.9941 542.542 71.4017C542.843 71.647 543.213 72.1238 543.436 72.393C543.641 72.6395 543.691 72.7414 543.91 73.0333C544.199 73.4195 544.29 73.6107 544.179 73.1855C544.09 72.5616 543.944 71.496 543.733 70.5538C543.571 69.8392 543.532 69.7273 543.379 69.1788C543.217 68.595 543.134 68.1862 542.981 67.5672C542.876 67.1295 542.686 66.235 542.634 65.7318C542.563 65.0437 542.525 63.9215 542.966 63.4057C543.312 63.0019 544.106 62.8799 544.598 63.129C545.242 63.4548 545.608 64.3908 545.776 64.7644C546.076 65.4362 546.262 66.2124 546.425 67.2314C546.631 68.5284 547.011 70.3286 547.023 70.7072C547.054 70.243 546.938 69.2656 547.018 68.8202C547.091 68.4164 547.431 67.9472 547.856 67.8201C548.216 67.7132 548.637 67.6742 549.009 67.7509C549.402 67.8314 549.818 68.1132 549.972 68.3787C550.428 69.1637 550.436 70.7676 550.455 70.6821C550.564 70.2091 550.545 69.136 550.813 68.6894C550.989 68.395 551.438 68.1296 551.677 68.0868C552.047 68.0214 552.501 68.0013 552.89 68.0767C553.203 68.1384 553.627 68.5108 553.741 68.6894C554.015 69.1221 554.171 70.3462 554.218 70.7752C554.237 70.9526 554.311 70.282 554.587 69.8493C555.097 69.0454 556.905 68.8894 556.974 70.6531C557.006 71.4759 556.999 71.4381 556.999 71.9917C556.999 72.6421 556.984 73.0333 556.949 73.5038C556.91 74.007 556.802 75.1442 556.645 75.6953C556.537 76.0739 556.178 76.9256 555.825 77.4363C555.825 77.4363 554.473 79.0089 554.326 79.7171C554.178 80.4241 554.227 80.4291 554.198 80.9311C554.169 81.4318 554.35 82.091 554.35 82.091C554.35 82.091 553.341 82.2218 552.798 82.135C552.306 82.0558 551.697 81.077 551.54 80.7776C551.323 80.365 550.862 80.4442 550.682 80.7487C550.399 81.2305 549.79 82.0948 549.36 82.1488C548.519 82.2545 546.776 82.1878 545.411 82.174C545.411 82.174 545.643 80.9022 545.125 80.4656C544.741 80.1398 544.081 79.4794 543.686 79.1321L542.639 77.9735Z" fill="white" stroke="black" stroke-width="1.5" stroke-linecap="round" stroke-linejoin="round"/>
<path d="M552.999 78.4195V74.068" stroke="black" stroke-width="1.5" stroke-linecap="round"/>
<path d="M550.463 78.4343L550.443 74.0652" stroke="black" stroke-width="1.5" stroke-linecap="round"/>
<path d="M547.952 74.1049L547.979 78.4148" stroke="black" stroke-width="1.5" stroke-linecap="round"/>
</g>
<defs>
<filter id="filter0_d_6_11353" x="74" y="10" width="425" height="222" filterUnits="userSpaceOnUse" color-interpolation-filters="sRGB">
<feFlood flood-opacity="0" result="BackgroundImageFix"/>
<feColorMatrix in="SourceAlpha" type="matrix" values="0 0 0 0 0 0 0 0 0 0 0 0 0 0 0 0 0 0 127 0" result="hardAlpha"/>
<feOffset dy="2"/>
<feGaussianBlur stdDeviation="6"/>
<feColorMatrix type="matrix" values="0 0 0 0 0 0 0 0 0 0 0 0 0 0 0 0 0 0 0.6 0"/>
<feBlend mode="normal" in2="BackgroundImageFix" result="effect1_dropShadow_6_11353"/>
<feBlend mode="normal" in="SourceGraphic" in2="effect1_dropShadow_6_11353" result="shape"/>
</filter>
<filter id="filter1_d_6_11353" x="534.25" y="60.2501" width="27.4998" height="28.7074" filterUnits="userSpaceOnUse" color-interpolation-filters="sRGB">
<feFlood flood-opacity="0" result="BackgroundImageFix"/>
<feColorMatrix in="SourceAlpha" type="matrix" values="0 0 0 0 0 0 0 0 0 0 0 0 0 0 0 0 0 0 127 0" result="hardAlpha"/>
<feOffset dy="2"/>
<feGaussianBlur stdDeviation="2"/>
<feColorMatrix type="matrix" values="0 0 0 0 0 0 0 0 0 0 0 0 0 0 0 0 0 0 0.5 0"/>
<feBlend mode="normal" in2="BackgroundImageFix" result="effect1_dropShadow_6_11353"/>
<feBlend mode="normal" in="SourceGraphic" in2="effect1_dropShadow_6_11353" result="shape"/>
</filter>
<clipPath id="clip0_6_11353">
<rect width="136.145" height="39.2998" fill="white"/>
</clipPath>
</defs>
</svg>
