<svg width="537" height="324" viewBox="0 0 537 324" fill="none" xmlns="http://www.w3.org/2000/svg">
<rect x="386" y="261" width="77" height="59" rx="2" stroke="var(--vscode-dropdown-border, #3c3c3c)" stroke-width="2" stroke-linecap="round" stroke-dasharray="5 5"/>
<rect x="1" y="1" width="379" height="267" rx="2" stroke="var(--vscode-dropdown-border, #3c3c3c)" stroke-width="2" stroke-linecap="round" stroke-dasharray="5 5"/>
<g filter="url(#filter0_d_2_8085)">
<g clip-path="url(#clip0_2_8085)">
<rect x="21" y="23" width="431" height="287" rx="4" fill="var(--vscode-editor-background, #1e1e1e)"/>
<path d="M21 27C21 24.7909 22.7909 23 25 23H448C450.209 23 452 24.7909 452 27V43H21V27Z" fill="var(--vscode-titleBar-activeBackground, #303031)"/>
<rect width="72" height="15" transform="translate(63 28)" fill="var(--vscode-tab-activeBackground, #1e1e1e)"/>
<rect x="71.4062" y="33" width="55.3408" height="4.90362" rx="2.45181" fill="var(--vscode-foreground)" fill-opacity="0.25"/>
<circle cx="50.4118" cy="33.4265" r="2.42647" fill="#40C8AE"/>
<circle cx="41.9196" cy="33.4265" r="2.42647" fill="#D7BA7D"/>
<circle cx="33.4265" cy="33.4269" r="2.42647" fill="#F14C4C"/>
<rect x="48" y="217" width="303" height="8" rx="4" fill="var(--vscode-tab-activeForeground)" fill-opacity="0.16"/>
<rect x="48" y="232" width="212.281" height="8" rx="4" fill="var(--vscode-tab-activeForeground)" fill-opacity="0.16"/>
<rect x="267.281" y="232" width="58.0599" height="8" rx="4" fill="#007ACC"/>
<rect x="48" y="272" width="99.7904" height="8" rx="4" fill="var(--vscode-tab-activeForeground)" fill-opacity="0.16"/>
<rect x="48" y="287" width="50" height="8" rx="4" fill="var(--vscode-tab-activeForeground)" fill-opacity="0.16"/>
<rect x="170" y="287" width="181" height="8" rx="4" fill="var(--vscode-tab-activeForeground)" fill-opacity="0.16"/>
<rect x="105" y="287" width="58.0599" height="8" rx="4" fill="#007ACC"/>
<rect x="48" y="132" width="160" height="8" rx="4" fill="var(--vscode-tab-activeForeground)" fill-opacity="0.16"/>
<rect x="280" y="132" width="71" height="8" rx="4" fill="var(--vscode-tab-activeForeground)" fill-opacity="0.16"/>
<rect x="215" y="132" width="58.0599" height="8" rx="4" fill="#007ACC"/>
<rect x="48" y="162" width="281.228" height="8" rx="4" fill="var(--vscode-tab-activeForeground)" fill-opacity="0.16"/>
<rect x="48" y="177" width="100" height="8" rx="4" fill="#6C6CC4"/>
<rect x="48" y="147" width="303" height="8" rx="4" fill="var(--vscode-tab-activeForeground)" fill-opacity="0.16"/>
<g filter="url(#filter1_d_2_8085)">
<mask id="mask0_2_8085" style="mask-type:alpha" maskUnits="userSpaceOnUse" x="49" y="60" width="14" height="14">
<path fill-rule="evenodd" clip-rule="evenodd" d="M58.9277 73.9043C59.1482 73.9901 59.3996 73.9846 59.6221 73.8776L62.5045 72.4906C62.8074 72.3449 63 72.0383 63 71.7021V62.2977C63 61.9614 62.8074 61.6549 62.5045 61.5092L59.6221 60.1222C59.3301 59.9816 58.9882 60.0161 58.7319 60.2024C58.6953 60.229 58.6604 60.2588 58.6277 60.2915L53.1097 65.3257L50.7062 63.5012C50.4825 63.3314 50.1695 63.3453 49.9617 63.5343L49.1908 64.2355C48.9366 64.4667 48.9364 64.8666 49.1902 65.0982L51.2746 66.9999L49.1902 68.9015C48.9364 69.1331 48.9366 69.533 49.1908 69.7642L49.9617 70.4654C50.1695 70.6544 50.4825 70.6684 50.7062 70.4985L53.1097 68.6741L58.6277 73.7082C58.7149 73.7955 58.8174 73.8613 58.9277 73.9043ZM59.5021 63.8217L55.3153 66.9999L59.5021 70.178V63.8217Z" fill="white"/>
</mask>
<g mask="url(#mask0_2_8085)">
<path d="M62.5048 61.5114L59.6202 60.1225C59.2863 59.9617 58.8872 60.0295 58.6252 60.2916L49.182 68.9016C48.928 69.1331 48.9283 69.533 49.1826 69.7642L49.954 70.4655C50.1619 70.6545 50.4751 70.6684 50.6989 70.4986L62.0707 61.8717C62.4522 61.5823 63.0002 61.8544 63.0002 62.3332V62.2998C63.0002 61.9636 62.8077 61.6572 62.5048 61.5114Z" fill="#0065A9"/>
<g filter="url(#filter2_d_2_8085)">
<path d="M62.5048 72.4884L59.6202 73.8773C59.2863 74.038 58.8872 73.9702 58.6252 73.7082L49.182 65.0982C48.928 64.8666 48.9283 64.4667 49.1826 64.2355L49.954 63.5343C50.1619 63.3452 50.4751 63.3313 50.6989 63.5012L62.0707 72.1281C62.4522 72.4175 63.0002 72.1454 63.0002 71.6665V71.7C63.0002 72.0361 62.8077 72.3425 62.5048 72.4884Z" fill="#007ACC"/>
</g>
<g filter="url(#filter3_d_2_8085)">
<path d="M59.6201 73.8776C59.2861 74.0382 58.8871 73.9703 58.625 73.7082C58.9479 74.0311 59.5 73.8024 59.5 73.3458V60.654C59.5 60.1973 58.9479 59.9686 58.625 60.2915C58.8871 60.0295 59.2861 59.9616 59.6201 60.1222L62.5042 61.5092C62.8073 61.6549 63 61.9614 63 62.2977V71.7021C63 72.0383 62.8073 72.3449 62.5042 72.4906L59.6201 73.8776Z" fill="#1F9CF0"/>
</g>
<g style="mix-blend-mode:overlay" opacity="0.25">
<path fill-rule="evenodd" clip-rule="evenodd" d="M58.9194 73.9042C59.1399 73.9901 59.3913 73.9846 59.6138 73.8776L62.4962 72.4906C62.7991 72.3449 62.9917 72.0383 62.9917 71.7021V62.2977C62.9917 61.9614 62.7991 61.6549 62.4962 61.5092L59.6138 60.1222C59.3218 59.9816 58.9799 60.0161 58.7236 60.2024C58.687 60.229 58.6521 60.2588 58.6194 60.2915L53.1014 65.3257L50.6979 63.5012C50.4742 63.3314 50.1612 63.3453 49.9534 63.5343L49.1825 64.2355C48.9283 64.4667 48.9281 64.8666 49.1819 65.0982L51.2663 66.9999L49.1819 68.9015C48.9281 69.1331 48.9283 69.533 49.1825 69.7642L49.9534 70.4654C50.1612 70.6544 50.4742 70.6684 50.6979 70.4985L53.1014 68.6741L58.6194 73.7082C58.7066 73.7955 58.8091 73.8613 58.9194 73.9042ZM59.4938 63.8217L55.307 66.9999L59.4938 70.178V63.8217Z" fill="url(#paint0_linear_2_8085)"/>
</g>
</g>
</g>
<path d="M50.2598 87.6807V106H57.1279C62.6123 106 65.748 102.636 65.748 96.7578C65.748 91.0068 62.5742 87.6807 57.1279 87.6807H50.2598ZM53.5352 90.4355H56.6963C60.2891 90.4355 62.4092 92.7715 62.4092 96.8086C62.4092 100.935 60.3398 103.245 56.6963 103.245H53.5352V90.4355ZM72.9209 106.229C74.7363 106.229 76.2598 105.441 77.0342 104.096H77.25V106H80.2842V96.5166C80.2842 93.584 78.2783 91.8574 74.7109 91.8574C71.4102 91.8574 69.1123 93.4062 68.8584 95.8311H71.8291C72.1211 94.8789 73.1113 94.3584 74.5586 94.3584C76.2598 94.3584 77.1738 95.1328 77.1738 96.5166V97.71L73.5938 97.9258C70.2168 98.1162 68.3252 99.5762 68.3252 102.064C68.3252 104.604 70.2422 106.229 72.9209 106.229ZM73.8477 103.804C72.4512 103.804 71.4482 103.105 71.4482 101.912C71.4482 100.757 72.2734 100.109 74.0381 99.9951L77.1738 99.7793V100.909C77.1738 102.56 75.752 103.804 73.8477 103.804ZM85.083 88.7217V92.2129H82.8867V94.6631H85.083V102.318C85.083 104.997 86.3525 106.063 89.5391 106.063C90.1484 106.063 90.7324 106.013 91.1895 105.924V103.512C90.8086 103.55 90.5674 103.575 90.123 103.575C88.8027 103.575 88.2188 102.953 88.2188 101.569V94.6631H91.1895V92.2129H88.2188V88.7217H85.083ZM98.1592 106.229C99.9746 106.229 101.498 105.441 102.272 104.096H102.488V106H105.522V96.5166C105.522 93.584 103.517 91.8574 99.9492 91.8574C96.6484 91.8574 94.3506 93.4062 94.0967 95.8311H97.0674C97.3594 94.8789 98.3496 94.3584 99.7969 94.3584C101.498 94.3584 102.412 95.1328 102.412 96.5166V97.71L98.832 97.9258C95.4551 98.1162 93.5635 99.5762 93.5635 102.064C93.5635 104.604 95.4805 106.229 98.1592 106.229ZM99.0859 103.804C97.6895 103.804 96.6865 103.105 96.6865 101.912C96.6865 100.757 97.5117 100.109 99.2764 99.9951L102.412 99.7793V100.909C102.412 102.56 100.99 103.804 99.0859 103.804ZM115.742 101.036C115.907 104.35 118.688 106.457 122.89 106.457C127.333 106.457 130.088 104.248 130.088 100.693C130.088 97.9131 128.526 96.3643 124.807 95.5137L122.699 95.0312C120.427 94.498 119.5 93.7744 119.5 92.5176C119.5 90.9307 120.896 89.8896 123.004 89.8896C125.01 89.8896 126.432 90.918 126.66 92.5557H129.796C129.644 89.4199 126.863 87.2236 123.017 87.2236C118.916 87.2236 116.199 89.4326 116.199 92.7334C116.199 95.4502 117.761 97.0879 121.087 97.8496L123.461 98.3955C125.81 98.9414 126.812 99.7539 126.812 101.087C126.812 102.648 125.251 103.778 123.093 103.778C120.77 103.778 119.145 102.712 118.941 101.036H115.742ZM145.437 96.7578C145.106 93.8887 142.948 91.8574 139.381 91.8574C135.204 91.8574 132.754 94.5361 132.754 99.0303C132.754 103.575 135.217 106.279 139.394 106.279C142.91 106.279 145.094 104.324 145.437 101.455H142.44C142.11 102.915 141.019 103.689 139.381 103.689C137.235 103.689 135.94 101.976 135.94 99.0303C135.94 96.1357 137.223 94.4346 139.381 94.4346C141.107 94.4346 142.148 95.4121 142.44 96.7578H145.437ZM150.045 89.8008C151.086 89.8008 151.937 88.9756 151.937 87.9346C151.937 86.9062 151.086 86.0684 150.045 86.0684C149.017 86.0684 148.166 86.9062 148.166 87.9346C148.166 88.9756 149.017 89.8008 150.045 89.8008ZM148.483 106H151.619V92.124H148.483V106ZM164.581 102.204C164.124 103.245 163.045 103.829 161.483 103.829C159.414 103.829 158.081 102.356 158.005 100.008V99.8428H167.704V98.8398C167.704 94.4854 165.33 91.8574 161.369 91.8574C157.345 91.8574 154.844 94.6631 154.844 99.1191C154.844 103.562 157.307 106.279 161.395 106.279C164.67 106.279 166.993 104.705 167.564 102.204H164.581ZM161.356 94.3076C163.248 94.3076 164.492 95.6406 164.556 97.748H158.018C158.157 95.666 159.478 94.3076 161.356 94.3076ZM170.865 106H174.014V97.9131C174.014 95.8311 175.194 94.5234 177.073 94.5234C178.99 94.5234 179.879 95.6025 179.879 97.7607V106H183.027V97.0244C183.027 93.7236 181.339 91.8574 178.241 91.8574C176.172 91.8574 174.775 92.7969 174.115 94.3457H173.899V92.124H170.865V106ZM198.757 96.7578C198.427 93.8887 196.269 91.8574 192.701 91.8574C188.524 91.8574 186.074 94.5361 186.074 99.0303C186.074 103.575 188.537 106.279 192.714 106.279C196.23 106.279 198.414 104.324 198.757 101.455H195.761C195.431 102.915 194.339 103.689 192.701 103.689C190.556 103.689 189.261 101.976 189.261 99.0303C189.261 96.1357 190.543 94.4346 192.701 94.4346C194.428 94.4346 195.469 95.4121 195.761 96.7578H198.757ZM210.817 102.204C210.36 103.245 209.281 103.829 207.72 103.829C205.65 103.829 204.317 102.356 204.241 100.008V99.8428H213.94V98.8398C213.94 94.4854 211.566 91.8574 207.605 91.8574C203.581 91.8574 201.08 94.6631 201.08 99.1191C201.08 103.562 203.543 106.279 207.631 106.279C210.906 106.279 213.229 104.705 213.801 102.204H210.817ZM207.593 94.3076C209.484 94.3076 210.729 95.6406 210.792 97.748H204.254C204.394 95.666 205.714 94.3076 207.593 94.3076ZM225.633 89.8008C226.674 89.8008 227.524 88.9756 227.524 87.9346C227.524 86.9062 226.674 86.0684 225.633 86.0684C224.604 86.0684 223.754 86.9062 223.754 87.9346C223.754 88.9756 224.604 89.8008 225.633 89.8008ZM224.071 106H227.207V92.124H224.071V106ZM231.117 106H234.266V97.9131C234.266 95.8311 235.446 94.5234 237.325 94.5234C239.242 94.5234 240.131 95.6025 240.131 97.7607V106H243.279V97.0244C243.279 93.7236 241.591 91.8574 238.493 91.8574C236.424 91.8574 235.027 92.7969 234.367 94.3457H234.151V92.124H231.117V106ZM263.084 106L269.419 87.6807H265.928L261.357 102.255H261.142L256.533 87.6807H252.915L259.313 106H263.084ZM271.564 101.036C271.729 104.35 274.51 106.457 278.712 106.457C283.155 106.457 285.91 104.248 285.91 100.693C285.91 97.9131 284.349 96.3643 280.629 95.5137L278.521 95.0312C276.249 94.498 275.322 93.7744 275.322 92.5176C275.322 90.9307 276.719 89.8896 278.826 89.8896C280.832 89.8896 282.254 90.918 282.482 92.5557H285.618C285.466 89.4199 282.686 87.2236 278.839 87.2236C274.738 87.2236 272.021 89.4326 272.021 92.7334C272.021 95.4502 273.583 97.0879 276.909 97.8496L279.283 98.3955C281.632 98.9414 282.635 99.7539 282.635 101.087C282.635 102.648 281.073 103.778 278.915 103.778C276.592 103.778 274.967 102.712 274.764 101.036H271.564ZM304.166 106.457C308.394 106.457 311.491 103.956 311.923 100.249H308.698C308.254 102.306 306.489 103.613 304.166 103.613C301.043 103.613 299.101 101.011 299.101 96.834C299.101 92.6699 301.043 90.0674 304.153 90.0674C306.464 90.0674 308.229 91.502 308.686 93.7109H311.91C311.529 89.915 308.317 87.2236 304.153 87.2236C298.961 87.2236 295.749 90.8926 295.749 96.8467C295.749 102.775 298.974 106.457 304.166 106.457ZM321.229 106.279C325.38 106.279 327.906 103.562 327.906 99.0557C327.906 94.5742 325.367 91.8574 321.229 91.8574C317.103 91.8574 314.551 94.5869 314.551 99.0557C314.551 103.562 317.064 106.279 321.229 106.279ZM321.229 103.702C319.032 103.702 317.775 102.001 317.775 99.0684C317.775 96.1357 319.032 94.4346 321.229 94.4346C323.412 94.4346 324.669 96.1357 324.669 99.0684C324.669 102.001 323.425 103.702 321.229 103.702ZM336.107 106.229C338.037 106.229 339.637 105.327 340.424 103.804H340.64V106H343.687V86.7539H340.538V94.333H340.322C339.586 92.8096 338.012 91.8955 336.107 91.8955C332.604 91.8955 330.395 94.6631 330.395 99.0557C330.395 103.461 332.591 106.229 336.107 106.229ZM337.085 94.5234C339.243 94.5234 340.576 96.2627 340.576 99.0684C340.576 101.887 339.256 103.613 337.085 103.613C334.927 103.613 333.619 101.912 333.619 99.0684C333.619 96.2373 334.939 94.5234 337.085 94.5234ZM356.712 102.204C356.255 103.245 355.176 103.829 353.614 103.829C351.545 103.829 350.212 102.356 350.136 100.008V99.8428H359.835V98.8398C359.835 94.4854 357.461 91.8574 353.5 91.8574C349.476 91.8574 346.975 94.6631 346.975 99.1191C346.975 103.562 349.438 106.279 353.525 106.279C356.801 106.279 359.124 104.705 359.695 102.204H356.712ZM353.487 94.3076C355.379 94.3076 356.623 95.6406 356.687 97.748H350.148C350.288 95.666 351.608 94.3076 353.487 94.3076Z" fill="var(--vscode-tab-activeForeground)"/>
</g>
</g>
<rect x="422" y="235" width="65" height="43" fill="var(--vscode-editor-background, #1e1e1e)"/>
<path d="M419.067 232.79L421.467 230.123H486.533L488.933 232.79V277.59L486.533 280.256H421.467L419.067 277.59V232.79ZM424.133 237.856V275.19H484.133V237.856L455.6 259.723H452.4L424.133 237.856ZM479.067 235.19H428.933L454 254.656L479.067 235.19Z" fill="var(--vscode-foreground, #CCCCCC)"/>
<path d="M529.238 159.867H464.172L461.772 162.533V207.6L464.172 210H476.705V222.533L480.972 224.4L495.372 210H529.238L531.638 207.6V162.533L529.238 159.867ZM526.838 204.933H494.305L492.438 205.733L481.772 216.4V207.6L479.105 204.933H466.838V164.933H526.838V204.933Z" fill="var(--vscode-foreground, #CCCCCC)"/>
<defs>
<filter id="filter0_d_2_8085" x="9" y="13" width="455" height="311" filterUnits="userSpaceOnUse" color-interpolation-filters="sRGB">
<feFlood flood-opacity="0" result="BackgroundImageFix"/>
<feColorMatrix in="SourceAlpha" type="matrix" values="0 0 0 0 0 0 0 0 0 0 0 0 0 0 0 0 0 0 127 0" result="hardAlpha"/>
<feOffset dy="2"/>
<feGaussianBlur stdDeviation="6"/>
<feColorMatrix type="matrix" values="0 0 0 0 0 0 0 0 0 0 0 0 0 0 0 0 0 0 0.6 0"/>
<feBlend mode="normal" in2="BackgroundImageFix" result="effect1_dropShadow_2_8085"/>
<feBlend mode="normal" in="SourceGraphic" in2="effect1_dropShadow_2_8085" result="shape"/>
</filter>
<filter id="filter1_d_2_8085" x="47.1284" y="58.7522" width="17.7432" height="17.7432" filterUnits="userSpaceOnUse" color-interpolation-filters="sRGB">
<feFlood flood-opacity="0" result="BackgroundImageFix"/>
<feColorMatrix in="SourceAlpha" type="matrix" values="0 0 0 0 0 0 0 0 0 0 0 0 0 0 0 0 0 0 127 0" result="hardAlpha"/>
<feOffset dy="0.623874"/>
<feGaussianBlur stdDeviation="0.935811"/>
<feColorMatrix type="matrix" values="0 0 0 0 0 0 0 0 0 0 0 0 0 0 0 0 0 0 0.25 0"/>
<feBlend mode="normal" in2="BackgroundImageFix" result="effect1_dropShadow_2_8085"/>
<feBlend mode="normal" in="SourceGraphic" in2="effect1_dropShadow_2_8085" result="shape"/>
</filter>
<filter id="filter2_d_2_8085" x="44.6246" y="59.0155" width="22.7425" height="19.3153" filterUnits="userSpaceOnUse" color-interpolation-filters="sRGB">
<feFlood flood-opacity="0" result="BackgroundImageFix"/>
<feColorMatrix in="SourceAlpha" type="matrix" values="0 0 0 0 0 0 0 0 0 0 0 0 0 0 0 0 0 0 127 0" result="hardAlpha"/>
<feOffset/>
<feGaussianBlur stdDeviation="2.18356"/>
<feColorMatrix type="matrix" values="0 0 0 0 0 0 0 0 0 0 0 0 0 0 0 0 0 0 0.25 0"/>
<feBlend mode="overlay" in2="BackgroundImageFix" result="effect1_dropShadow_2_8085"/>
<feBlend mode="normal" in="SourceGraphic" in2="effect1_dropShadow_2_8085" result="shape"/>
</filter>
<filter id="filter3_d_2_8085" x="54.2579" y="55.6688" width="13.1092" height="22.662" filterUnits="userSpaceOnUse" color-interpolation-filters="sRGB">
<feFlood flood-opacity="0" result="BackgroundImageFix"/>
<feColorMatrix in="SourceAlpha" type="matrix" values="0 0 0 0 0 0 0 0 0 0 0 0 0 0 0 0 0 0 127 0" result="hardAlpha"/>
<feOffset/>
<feGaussianBlur stdDeviation="2.18356"/>
<feColorMatrix type="matrix" values="0 0 0 0 0 0 0 0 0 0 0 0 0 0 0 0 0 0 0.25 0"/>
<feBlend mode="overlay" in2="BackgroundImageFix" result="effect1_dropShadow_2_8085"/>
<feBlend mode="normal" in="SourceGraphic" in2="effect1_dropShadow_2_8085" result="shape"/>
</filter>
<linearGradient id="paint0_linear_2_8085" x1="55.9917" y1="60.0359" x2="55.9917" y2="73.9638" gradientUnits="userSpaceOnUse">
<stop stop-color="white"/>
<stop offset="1" stop-color="white" stop-opacity="0"/>
</linearGradient>
<clipPath id="clip0_2_8085">
<rect x="21" y="23" width="431" height="287" rx="4" fill="white"/>
</clipPath>
</defs>
</svg>
