<?xml version="1.0" encoding="utf-8"?>
<!-- Generator: Adobe Illustrator 24.0.1, SVG Export Plug-In . SVG Version: 6.00 Build 0)  -->
<svg version="1.1" id="图层_2" xmlns="http://www.w3.org/2000/svg" xmlns:xlink="http://www.w3.org/1999/xlink" x="0px" y="0px"
	 viewBox="0 0 1649 321" style="enable-background:new 0 0 1649 321;" xml:space="preserve">
<style type="text/css">
	.st0{fill:#007BEA;}
	.st1{fill:#175DCC;}
	.st2{fill:#42424C;}
</style>
<g>
	<path class="st0" d="M85.5,75.5c-13.7-9.78-17.43-27.62-10-40c6.13-10.21,18.9-15.27,30-13c3.55,0.72,10.68,2.76,16,9
		c8.08,9.48,8.61,24.72,1,38c7.26,7.67,17.48,19.93,26,37c10.45,20.95,11.85,36.12,16,36c8.85-0.26,0.09-72.23,36-95
		c10.72-6.8,22.51-7.36,30-7c1.47-12.12,10.49-21.85,22-24c10.16-1.89,20.69,2.41,27,11c0.9,1.26,7.66,11.15,4,22
		c-2.71,8.03-9.65,12.19-11,13c-6.99,4.19-11.5,2.31-13,5c-3.09,5.52,12.93,18.8,23,30c9.86,10.97,21.81,28.58,29,57
		c1.46,0.28,14.64,3.04,21,16c6.24,12.72,0.68,24.6,0,26c-0.91,1.42-6.64,10.02-18,12c-12.1,2.11-20.81-4.99-22-6
		c-1.82-1.99-4.37-5.3-6-10c-3.01-8.66-0.91-16.26,0-19c1.1-6.98,2.08-17.92,0-31c-1.31-8.26-4.49-26.74-19-44
		c-4.46-5.3-12.43-13.4-25-20c-12.16-3.25-21.17-1.47-26,0c-21.73,6.62-37.35,30.9-39,61c-1.8,9.59-3.06,20.69-3,33
		c0.16,34.55,10.63,62.02,19,79c10.13,9.91,13.2,24.08,8,35c-4.46,9.35-13.42,13.04-16,14c-12.59,4.82-26.48,1.35-34-8
		c-9.4-11.68-7.55-30.89,6-42c3.32-5.96,22.57-41.75,8-79c-3-7.66-12.27-31.38-36-41c-7.88-3.19-15.08-3.91-20-4
		c-3.76-0.07-21.4,0.7-35,15c-10.36,10.89-12.46,23.47-13,28c6.28,12.69,3.14,27.72-7,36c-8.83,7.2-21.44,8.05-31,3
		c-9.12-4.81-12.41-13.38-13-15c-0.75-2.07-3.38-10.05,0-19c2.36-6.26,6.48-9.85,9-12c6.47-5.52,13.37-7.33,17-8
		c7.34-4.04,17.05-10.6,26-21C81.86,111.01,84.87,85.52,85.5,75.5z"/>
	<ellipse class="st1" cx="234.3" cy="168.29" rx="25.8" ry="26.29"/>
</g>
<g>
	<path class="st2" d="M482.76,202.46l42.58-92c1.8-3.9,2.71-6.93,2.71-9.07c0-3.29-2.59-5.44-7.76-6.43v-3.67h54.94v3.67
		c-3.45,0.46-5.84,1.42-7.18,2.87c-1.33,1.46-3.65,5.67-6.94,12.63L505.46,227.7c-2.35,4.98-3.53,8.23-3.53,9.76
		c0,3.9,2.47,6.2,7.41,6.89v3.67h-55.29v-3.67c4.94-0.69,7.41-3.02,7.41-7c0-1.45-1.18-4.67-3.53-9.65l-55.64-117.25
		c-3.29-6.97-5.61-11.18-6.94-12.63c-1.33-1.45-3.73-2.41-7.18-2.87v-3.67h57.01v3.67c-5.17,1-7.76,3.14-7.76,6.43
		c0,2.14,0.9,5.17,2.7,9.07L482.76,202.46z"/>
	<path class="st2" d="M686.71,248.02l-59.19-108.29v96.23c0,2.37,0.55,4.17,1.65,5.4c1.1,1.23,3.06,2.22,5.88,2.99v3.67H587.9v-3.67
		c2.82-0.76,4.78-1.76,5.88-2.99c1.1-1.22,1.65-3.02,1.65-5.4V103.22c0-2.3-0.55-4.06-1.65-5.28c-1.1-1.22-3.06-2.22-5.88-2.99
		v-3.67h61.86v3.67c-3.68,0.92-5.53,3.02-5.53,6.32c0,1.53,0.55,3.29,1.65,5.28l43.78,81.03l44.36-79.65
		c1.96-3.52,2.94-6.09,2.94-7.69c0-3.14-1.96-4.9-5.88-5.28v-3.67h60.68v3.67c-2.82,0.77-4.78,1.76-5.88,2.99
		c-1.1,1.23-1.65,2.99-1.65,5.28v132.75c0,2.37,0.55,4.17,1.65,5.4c1.1,1.23,3.06,2.22,5.88,2.99v3.67h-50.08v-3.67
		c2.74-0.69,4.68-1.67,5.82-2.93c1.14-1.26,1.71-3.08,1.71-5.46v-96.23L686.71,248.02z"/>
	<path class="st2" d="M937.15,208.06h-72.94l-10.8,22.05c-1.49,3.06-2.23,5.47-2.23,7.23c0,3.37,2.62,5.7,7.86,7v3.67h-53.08v-3.67
		c3.13-0.61,5.53-1.68,7.17-3.21c1.65-1.53,3.53-4.52,5.64-8.96l59.02-120.46c1.88-3.83,2.82-6.89,2.82-9.19
		c0-3.52-2.27-6.05-6.82-7.58v-3.67h56.9v3.67c-4.63,1.3-6.94,3.56-6.94,6.78c0,2.22,0.74,4.75,2.23,7.58l61.13,120.81
		c2.59,5.13,4.86,8.63,6.82,10.51c1.96,1.88,4.58,3.12,7.88,3.73v3.67h-59.08v-3.67c5.19-0.84,7.78-3.21,7.78-7.12
		c0-1.61-0.78-3.98-2.35-7.12L937.15,208.06z M927.07,186.59l-26.02-55.84l-26.44,55.84H927.07z"/>
	<path class="st2" d="M1121.13,198.42h-29.98c-2.51,0-4.41,0.54-5.7,1.61c-1.29,1.07-2.33,2.99-3.12,5.74h-3.17v-34.11h3.17
		c0.78,2.72,1.82,4.63,3.12,5.72c1.29,1.09,3.19,1.63,5.7,1.63h62.66v3.33c-2.75,0.77-4.68,1.88-5.82,3.33
		c-1.14,1.46-1.7,3.52-1.7,6.2v27.1c0,2.37,0.57,4.21,1.7,5.51c1.14,1.3,3.08,2.34,5.82,3.1v2.64
		c-25.39,13.71-50.71,20.56-75.95,20.56c-21.79,0-39.42-5.01-52.9-15.04c-7.29-5.51-13.17-12.33-17.63-20.44
		c-5.25-9.65-7.88-19.94-7.88-30.89c0-15.16,4.78-28.63,14.34-40.42c14.89-18.22,36.92-27.33,66.07-27.33
		c12.77,0,27.35,2.76,43.73,8.27c6.5,2.14,10.31,3.22,11.4,3.22c1.33,0,2.9-0.61,4.7-1.84l2.82,1.49l-15.69,32.38l-2.82-1.38
		c0-0.31,0-0.53,0-0.69c0-2.83-2.9-5.74-8.69-8.73c-10.73-5.59-22.25-8.38-34.54-8.38c-14.18,0-25.81,3.79-34.89,11.37
		c-9.56,7.96-14.33,18.68-14.33,32.15c0,12.63,4.35,22.74,13.05,30.32c8.93,7.73,21.47,11.6,37.62,11.6
		c15.36,0,28.33-2.79,38.91-8.38V198.42z"/>
	<path class="st2" d="M1211.04,193.36v31.35h83.59c2.43,0,4.29-0.53,5.58-1.58c1.29-1.06,2.33-2.98,3.12-5.77h3.29v38.01h-3.29
		c-0.71-2.68-1.72-4.58-3.06-5.68c-1.33-1.11-3.21-1.67-5.64-1.67h-122.62v-3.22c2.74-0.69,4.68-1.68,5.82-2.99
		c1.14-1.3,1.71-3.14,1.71-5.51V131.12c0-2.37-0.55-4.17-1.65-5.4c-1.1-1.22-3.06-2.26-5.88-3.1v-3.22h118.98
		c2.51,0,4.41-0.53,5.7-1.61c1.29-1.07,2.33-2.99,3.12-5.74h3.17v38.01h-3.17c-0.78-2.79-1.82-4.71-3.12-5.77
		c-1.29-1.06-3.19-1.58-5.7-1.58h-79.95v28.25h49.61c2.43,0,4.29-0.53,5.58-1.61c1.29-1.07,2.37-2.99,3.23-5.74h3.17v37.09h-3.17
		c-0.78-2.71-1.82-4.62-3.12-5.71c-1.29-1.09-3.2-1.64-5.7-1.64H1211.04z"/>
	<path class="st2" d="M1361.74,163.28v72.93c0,2.37,0.57,4.21,1.71,5.5c1.13,1.3,3.08,2.33,5.82,3.09v3.22h-43.73v-3.22
		c2.74-0.69,4.68-1.68,5.82-2.99c1.14-1.3,1.71-3.14,1.71-5.51V131.12c0-2.37-0.55-4.17-1.65-5.4c-1.1-1.22-3.06-2.26-5.88-3.1
		v-3.22h50.57v3.22c-3.45,0.84-5.17,2.34-5.17,4.48c0,1.84,1.25,3.98,3.76,6.43l70.64,68.44v-70.85c0-2.37-0.55-4.19-1.65-5.45
		c-1.1-1.26-3.06-2.28-5.88-3.04v-3.22h43.73v3.22c-2.82,0.76-4.78,1.78-5.88,3.04c-1.1,1.26-1.65,3.08-1.65,5.45V236.2
		c0,2.37,0.55,4.19,1.65,5.45c1.1,1.26,3.06,2.32,5.88,3.15v3.22h-47.16v-3.22c3.45-0.68,5.17-2.09,5.17-4.21
		c0-1.06-0.47-2.16-1.41-3.3s-3.1-3.38-6.47-6.72L1361.74,163.28z"/>
	<path class="st2" d="M1576.28,142.72v93.48c0,2.37,0.55,4.19,1.65,5.45c1.1,1.26,3.06,2.32,5.88,3.15v3.22h-46.56v-3.22
		c2.74-0.69,4.68-1.68,5.82-2.99c1.13-1.3,1.7-3.14,1.7-5.51v-93.59h-38.8c-2.51,0-4.41,0.55-5.7,1.64s-2.33,3-3.12,5.71h-3.17
		v-38.01h3.17c0.71,2.68,1.71,4.58,3,5.68c1.29,1.11,3.2,1.67,5.71,1.67h109.2c2.51,0,4.41-0.53,5.71-1.61
		c1.29-1.07,2.33-2.99,3.12-5.74h3.17v38.01h-3.17c-0.78-2.71-1.82-4.62-3.12-5.71c-1.29-1.09-3.19-1.64-5.7-1.64H1576.28z"/>
</g>
</svg>
