<?xml version="1.0" standalone="no"?>
<!DOCTYPE svg PUBLIC "-//W3C//DTD SVG 20010904//EN"
 "http://www.w3.org/TR/2001/REC-SVG-20010904/DTD/svg10.dtd">
<svg version="1.0" xmlns="http://www.w3.org/2000/svg"
 width="400.000000pt" height="400.000000pt" viewBox="0 0 400.000000 400.000000"
 preserveAspectRatio="xMidYMid meet">
<metadata>
Created by potrace 1.11, written by Peter Selinger 2001-2013
</metadata>
<g transform="translate(0.000000,400.000000) scale(0.100000,-0.100000)"
fill="#000000" stroke="none">
<path d="M618 3053 c-353 -3 -428 -6 -428 -17 0 -9 17 -16 49 -20 144 -19 210
-64 230 -154 14 -67 15 -1454 1 -1592 -14 -130 -35 -192 -85 -247 -38 -42 -45
-46 -98 -51 -42 -3 -63 0 -82 12 -32 21 -32 32 3 39 101 22 140 123 80 210
-56 79 -173 76 -246 -7 -27 -31 -32 -45 -32 -87 0 -136 101 -207 279 -197 154
9 313 85 417 201 95 106 88 36 94 917 5 759 5 776 26 820 31 67 79 104 162
125 100 24 171 4 239 -67 51 -53 106 -184 374 -893 416 -1104 403 -1070 423
-1070 14 0 33 32 78 130 67 148 91 212 309 835 88 250 161 455 163 457 1 1 46
-122 101 -275 179 -505 373 -1046 392 -1097 10 -27 25 -51 34 -53 23 -4 123
239 248 603 214 629 391 1135 416 1191 42 96 110 181 171 215 36 21 54 37 54
50 0 18 -11 19 -280 19 -231 0 -280 -2 -280 -14 0 -9 17 -16 48 -20 62 -8 143
-47 170 -81 31 -39 30 -143 -3 -266 -54 -208 -391 -1219 -406 -1219 -4 0 -9 8
-12 18 -3 9 -76 213 -162 452 -187 516 -314 890 -321 945 -5 31 -1 46 15 67
28 35 95 66 177 81 37 7 69 18 72 25 3 9 -101 12 -453 12 -345 0 -456 -3 -453
-12 2 -6 32 -17 65 -24 163 -33 194 -70 318 -383 l56 -144 -79 -236 c-108
-319 -281 -804 -291 -814 -7 -7 -62 132 -298 758 -158 420 -233 640 -233 687
0 53 46 103 113 123 28 8 61 15 74 15 14 0 23 6 23 15 0 13 -49 15 -382 15
-211 0 -392 1 -403 3 -11 1 -212 1 -447 0z"/>
</g>
</svg>
