<?xml version="1.0" standalone="no"?>
<!DOCTYPE svg PUBLIC "-//W3C//DTD SVG 20010904//EN"
 "http://www.w3.org/TR/2001/REC-SVG-20010904/DTD/svg10.dtd">
<svg version="1.0" xmlns="http://www.w3.org/2000/svg"
 width="420.000000pt" height="420.000000pt" viewBox="0 0 420.000000 420.000000"
 preserveAspectRatio="xMidYMid meet">
<metadata>
Created by potrace 1.14, written by Peter Selinger 2001-2017
</metadata>
<g transform="translate(0.000000,420.000000) scale(0.100000,-0.100000)"
fill="#000000" stroke="none">
<path d="M1945 3810 c-229 -34 -454 -180 -501 -323 -21 -67 -25 -70 -60 -57
-91 35 -188 -11 -267 -126 -68 -100 -104 -209 -138 -419 -33 -201 -96 -408
-169 -552 -57 -114 -89 -213 -100 -311 -10 -88 -9 -107 15 -287 8 -60 19 -149
25 -196 20 -164 86 -312 187 -420 38 -40 65 -79 69 -97 l6 -30 52 39 c28 21
83 53 123 69 75 31 288 90 327 90 13 0 42 -14 65 -30 22 -17 60 -38 82 -47 24
-9 52 -31 69 -54 l27 -38 -33 -168 c-19 -92 -34 -198 -34 -235 0 -88 -5 -98
-47 -98 -29 0 -44 -9 -83 -48 -118 -118 -136 -178 -80 -266 42 -66 119 -138
189 -175 52 -27 68 -31 138 -31 79 0 79 0 97 33 9 17 35 61 56 97 28 45 40 76
40 102 0 28 13 57 53 118 36 56 54 77 60 68 4 -7 24 -39 44 -72 30 -48 36 -69
37 -115 1 -48 8 -66 49 -132 26 -42 47 -82 47 -89 0 -9 21 -11 78 -9 97 5 180
43 269 124 115 104 130 163 67 256 -59 87 -101 126 -143 133 l-38 6 -7 82 c-4
46 -20 148 -36 227 -17 79 -30 152 -30 163 0 32 70 109 120 130 25 11 59 30
77 44 42 32 52 31 101 -11 48 -42 121 -69 237 -89 64 -11 96 -23 139 -52 l55
-36 50 36 c27 20 62 51 78 69 16 17 55 52 88 77 67 51 135 133 135 161 0 21
-3 22 -112 19 -44 -1 -78 2 -78 8 0 5 16 43 35 84 79 172 116 382 95 550 -21
175 -63 296 -185 535 l-79 152 46 41 c41 36 105 137 93 148 -2 2 -18 -6 -35
-18 -43 -31 -98 -36 -135 -12 -26 16 -36 38 -78 165 -101 308 -223 490 -422
633 -201 143 -500 219 -730 184z m392 -44 c82 -23 193 -69 193 -80 0 -3 -28 7
-62 21 -221 89 -488 96 -716 19 -96 -33 -83 -15 18 23 110 43 163 50 330 46
118 -2 162 -8 237 -29z m-142 -146 c128 -19 228 -66 336 -160 53 -46 79 -85
79 -120 0 -19 -7 -16 -52 25 -89 80 -183 138 -278 171 -44 15 -83 19 -200 19
-139 0 -145 1 -148 21 -2 17 5 22 50 32 112 25 119 25 213 12z m-74 -478 l157
-7 57 -40 c101 -69 191 -168 281 -309 l18 -29 -29 6 c-17 4 -86 -1 -155 -10
-99 -12 -129 -20 -142 -35 -23 -26 -23 -50 0 -74 18 -18 17 -20 -24 -51 -41
-31 -44 -32 -81 -19 -56 19 -142 20 -195 1 l-47 -16 -44 34 -43 33 20 27 c19
26 19 30 6 55 -15 25 -24 28 -145 45 -122 17 -132 17 -173 1 -31 -11 -54 -30
-79 -65 -19 -27 -40 -49 -46 -49 -7 0 -23 -3 -36 -7 -22 -6 -23 -4 -17 20 3
14 11 83 16 152 13 158 35 221 100 286 74 74 64 73 601 51z m-853 -125 c-1 -2
3 -12 11 -21 21 -25 12 -213 -11 -227 -28 -18 -28 -17 -29 107 -1 73 15 163
28 151 2 -3 3 -7 1 -10z m564 -425 c61 -30 98 -70 98 -106 0 -11 -6 -9 -26 9
-26 24 -90 52 -79 35 4 -6 -1 -10 -9 -10 -23 0 -20 -17 4 -23 36 -9 38 -11 90
-60 25 -23 28 -32 19 -48 -5 -11 -7 -24 -4 -29 3 -5 1 -11 -5 -15 -5 -3 -10 1
-10 9 0 21 -2 21 -63 -14 -65 -36 -178 -64 -232 -56 -22 4 -62 14 -88 23 -42
15 -49 15 -57 3 -12 -20 0 -25 99 -44 106 -20 178 -19 264 3 37 9 67 14 67 10
0 -19 -71 -97 -112 -122 -63 -39 -162 -56 -226 -38 -26 8 -55 14 -64 15 -9 0
-14 5 -11 10 4 5 -1 7 -11 3 -9 -4 -15 -3 -12 2 3 4 -10 23 -29 41 -19 19 -35
38 -35 44 0 24 71 154 101 184 29 30 46 62 33 62 -21 0 -72 -40 -114 -91 -34
-41 -50 -54 -51 -42 -5 100 21 192 64 230 48 41 102 52 239 49 86 -3 105 -7
160 -34z m868 20 c14 -5 28 -9 31 -8 8 2 64 -56 77 -80 16 -31 26 -109 23
-179 -1 -17 -4 -15 -20 10 -25 42 -111 116 -130 113 -8 -2 -16 3 -16 11 0 8
-6 16 -14 19 -8 3 -11 0 -7 -7 9 -13 -4 -14 -24 -1 -12 8 -12 10 -1 10 8 0 12
3 8 6 -3 3 -13 2 -22 -3 -14 -8 -12 -12 16 -23 80 -34 199 -193 180 -243 -5
-12 -23 -35 -40 -51 -16 -16 -28 -33 -25 -37 3 -5 -3 -6 -12 -2 -13 5 -15 3
-9 -7 5 -8 4 -11 -2 -7 -5 3 -29 -1 -54 -10 -60 -21 -157 -11 -226 22 -51 26
-117 89 -125 123 -5 17 0 17 66 -1 53 -14 92 -17 156 -14 87 6 239 38 207 45
-9 2 -15 8 -12 13 9 13 -10 11 -48 -5 -89 -37 -193 -28 -307 27 -36 18 -68 34
-72 35 -5 2 -8 -7 -9 -20 -1 -23 -1 -23 -9 2 -4 14 -8 34 -8 45 -1 18 0 18 7
2 5 -15 10 -11 24 22 13 29 27 43 53 53 18 6 34 16 34 21 0 5 6 7 13 4 8 -3
14 1 14 8 0 7 -13 15 -29 17 -30 5 -89 -28 -107 -60 -8 -14 -10 -10 -11 20 0
59 75 121 165 135 17 3 32 7 35 10 8 9 203 -4 230 -15z m-495 -86 c17 -11 24
-23 21 -34 -15 -45 1 -198 21 -211 6 -3 14 -17 18 -31 4 -13 32 -48 61 -76 69
-67 141 -96 244 -97 90 -1 136 13 195 59 25 19 46 33 46 31 3 -6 5 -86 2 -83
-2 2 -19 -11 -38 -28 -46 -43 -94 -71 -156 -91 -45 -15 -74 -17 -207 -11
l-155 7 6 -61 c4 -33 9 -73 12 -88 4 -22 4 -24 -4 -7 -8 16 -10 12 -9 -20 0
-22 3 -62 8 -90 l8 -50 -1 63 c-2 78 9 81 18 5 4 -32 20 -119 35 -193 16 -74
34 -173 40 -220 5 -47 13 -96 16 -110 4 -18 3 -21 -4 -10 -5 8 -15 45 -23 82
-7 37 -15 66 -17 64 -10 -10 22 -155 44 -198 23 -45 32 -107 17 -122 -4 -3
-12 6 -19 21 -12 28 -12 27 -13 -17 -1 -24 6 -78 13 -120 20 -104 39 -263 40
-335 1 -47 -4 -67 -22 -92 -20 -29 -29 -33 -68 -33 -48 0 -164 51 -196 86 -9
11 -21 42 -26 69 -6 31 -10 40 -11 23 -3 -68 -37 -109 -131 -155 -94 -46 -156
-29 -179 48 -11 36 -10 64 4 174 9 71 23 164 31 205 8 42 14 98 13 125 -1 49
-1 50 -11 18 -6 -18 -14 -33 -18 -33 -16 0 -19 62 -5 100 8 22 21 57 29 78 8
20 16 62 19 92 3 30 4 46 1 35 -3 -11 -12 -47 -20 -80 -8 -33 -20 -64 -26 -70
-7 -7 -8 -4 -4 10 3 11 12 74 21 140 8 66 26 174 40 240 27 136 65 369 65 403
l0 23 -142 -7 c-141 -6 -185 -1 -257 28 -14 6 -29 12 -33 12 -3 1 -10 4 -14 8
-7 8 18 4 51 -7 11 -4 5 2 -13 14 -18 12 -36 21 -40 21 -12 0 -62 47 -62 59 0
6 -4 11 -8 11 -4 0 -9 14 -10 32 l-3 32 23 -21 c23 -20 64 -45 83 -49 116 -28
217 -20 297 23 49 27 107 89 129 137 7 14 16 26 21 26 4 0 8 12 9 28 l1 27 8
-25 c7 -23 8 -22 9 11 1 20 6 50 12 68 8 22 8 35 0 44 -6 8 -12 29 -13 48 -3
30 1 36 32 52 44 23 156 19 195 -7z m1033 -7 c19 -30 8 -34 -12 -4 -9 14 -13
25 -9 25 5 0 14 -9 21 -21z m32 -59 c6 -11 8 -20 6 -20 -3 0 -10 9 -16 20 -6
11 -8 20 -6 20 3 0 10 -9 16 -20z m-1890 -375 c4 3 7 -3 5 -12 -2 -10 -4 -20
-4 -23 -1 -3 -6 2 -11 10 -5 8 -9 47 -8 85 l2 70 3 -68 c2 -37 8 -65 13 -62z
m7 43 c-3 -7 -5 -2 -5 12 0 14 2 19 5 13 2 -7 2 -19 0 -25z m189 -233 c38 -16
76 -35 85 -42 8 -7 18 -13 22 -13 3 0 34 -13 69 -29 35 -16 78 -33 97 -38 19
-5 37 -15 39 -22 3 -10 -2 -12 -17 -8 -24 6 -29 -8 -6 -17 29 -11 16 -126 -15
-126 -22 0 -93 48 -117 80 -28 36 -63 99 -63 112 0 6 -12 26 -26 45 -25 33
-27 34 -82 28 -80 -9 -103 2 -140 73 -18 33 -32 63 -32 66 0 3 27 -14 59 -37
32 -24 90 -57 127 -72z m1220 78 c-18 -33 -21 -26 -6 13 6 15 13 24 16 21 3
-3 -1 -18 -10 -34z m189 -27 c13 -19 14 -28 4 -50 -13 -28 -17 -30 -38 -17
-12 8 -13 16 -2 50 6 23 14 41 16 41 3 0 12 -11 20 -24z m-205 -15 c0 -4 -14
-22 -30 -40 -30 -31 -33 -32 -105 -29 -41 2 -75 4 -75 4 0 8 121 57 137 56 12
-1 24 2 27 6 6 10 46 13 46 3z m-245 -132 c-23 -66 -60 -123 -97 -151 -45 -35
-97 -60 -108 -53 -5 3 -12 30 -15 60 -7 50 -5 57 16 76 23 19 23 20 2 10 -14
-7 -24 -8 -28 -1 -3 5 -3 10 2 11 22 2 44 10 113 41 98 45 124 56 128 53 1 -1
-5 -22 -13 -46z m-835 -1368 c0 -10 32 -7 50 4 13 8 24 -4 20 -21 -1 -4 4 -11
12 -15 9 -6 10 -9 1 -9 -14 0 -7 -29 11 -45 21 -18 56 -73 56 -87 0 -7 -4 -19
-9 -26 -18 -29 -139 60 -178 131 -7 12 -12 36 -13 53 0 28 3 31 25 26 14 -2
25 -8 25 -11z m848 -23 c-27 -78 -96 -148 -160 -163 -41 -10 -37 20 12 79 23
27 39 55 36 62 -7 17 11 28 51 31 18 1 41 6 50 12 10 6 19 11 20 11 1 0 -3
-15 -9 -32z"/>
<path d="M1728 2533 c7 -3 16 -2 19 1 4 3 -2 6 -13 5 -11 0 -14 -3 -6 -6z"/>
<path d="M1752 2525 c-11 -12 -10 -15 3 -15 8 0 15 7 15 15 0 18 -2 18 -18 0z"/>
<path d="M1560 2480 c-8 -5 -10 -10 -5 -10 6 0 17 5 25 10 8 5 11 10 5 10 -5
0 -17 -5 -25 -10z"/>
<path d="M2448 2533 c6 -2 18 -2 25 0 6 3 1 5 -13 5 -14 0 -19 -2 -12 -5z"/>
<path d="M1936 2203 c-6 -14 -5 -15 5 -6 7 7 10 15 7 18 -3 3 -9 -2 -12 -12z"/>
<path d="M1916 2163 c-3 -10 -17 -30 -31 -45 -14 -16 -22 -28 -17 -28 5 0 18
10 29 23 27 30 46 67 34 67 -5 0 -12 -8 -15 -17z"/>
<path d="M2290 2154 c6 -16 19 -35 30 -42 16 -10 15 -6 -6 25 -34 50 -36 52
-24 17z"/>
<path d="M1961 2072 c-6 -12 -11 -32 -11 -45 0 -20 4 -24 19 -20 16 4 18 11
14 41 -7 46 -9 48 -22 24z"/>
<path d="M2220 2068 c0 -14 -3 -33 -6 -41 -3 -10 3 -20 15 -27 19 -10 21 -8
21 23 0 18 -7 42 -15 53 -14 18 -14 18 -15 -8z"/>
<path d="M1926 1799 c-11 -75 -13 -117 -6 -128 4 -7 10 25 13 70 7 84 2 118
-7 58z"/>
<path d="M2090 1656 c0 -9 5 -16 10 -16 6 0 10 4 10 9 0 6 -4 13 -10 16 -5 3
-10 -1 -10 -9z"/>
<path d="M1908 1625 c-3 -14 -1 -25 3 -25 5 0 9 11 9 25 0 14 -2 25 -4 25 -2
0 -6 -11 -8 -25z"/>
<path d="M2282 1620 c0 -14 4 -38 8 -55 7 -27 8 -27 8 -5 0 14 -4 39 -8 55 -7
27 -8 27 -8 5z"/>
<path d="M1902 1565 c0 -16 2 -22 5 -12 2 9 2 23 0 30 -3 6 -5 -1 -5 -18z"/>
<path d="M2094 1437 c-1 -56 -7 -160 -14 -232 -11 -131 -8 -221 12 -285 l11
-35 12 35 c22 64 26 146 14 276 -13 125 -14 149 -17 282 -3 101 -17 71 -18
-41z m16 -237 c0 -27 -4 -50 -10 -50 -11 0 -13 42 -4 78 10 35 14 26 14 -28z
m16 -146 c-6 -16 -32 -19 -41 -4 -3 6 -3 15 1 21 4 8 9 7 15 -2 6 -10 9 -7 9
11 1 22 2 23 11 7 6 -10 8 -25 5 -33z"/>
<path d="M1935 1473 c-3 -26 -7 -58 -9 -70 -2 -13 0 -23 4 -23 9 0 24 129 17
137 -3 3 -8 -17 -12 -44z"/>
<path d="M2263 1451 c3 -41 11 -79 18 -85 9 -8 10 -8 6 0 -4 6 -9 42 -13 80
-4 38 -9 71 -12 74 -2 3 -2 -28 1 -69z"/>
<path d="M2311 1464 c0 -11 3 -14 6 -6 3 7 2 16 -1 19 -3 4 -6 -2 -5 -13z"/>
<path d="M2322 1420 c0 -14 2 -19 5 -12 2 6 2 18 0 25 -3 6 -5 1 -5 -13z"/>
<path d="M1872 1410 c0 -14 2 -19 5 -12 2 6 2 18 0 25 -3 6 -5 1 -5 -13z"/>
<path d="M2332 1360 c0 -14 2 -19 5 -12 2 6 2 18 0 25 -3 6 -5 1 -5 -13z"/>
<path d="M1857 1350 c-3 -11 -1 -20 4 -20 5 0 9 9 9 20 0 11 -2 20 -4 20 -2 0
-6 -9 -9 -20z"/>
<path d="M1922 1345 c0 -16 2 -22 5 -12 2 9 2 23 0 30 -3 6 -5 -1 -5 -18z"/>
<path d="M2280 1331 c0 -11 4 -22 9 -25 4 -3 6 6 3 19 -5 30 -12 33 -12 6z"/>
<path d="M1912 1290 c0 -14 2 -19 5 -12 2 6 2 18 0 25 -3 6 -5 1 -5 -13z"/>
<path d="M2811 464 c0 -11 3 -14 6 -6 3 7 2 16 -1 19 -3 4 -6 -2 -5 -13z"/>
<path d="M2802 398 c-1 -20 -5 -45 -8 -55 -5 -17 -5 -17 6 0 6 9 9 34 7 55
l-4 37 -1 -37z"/>
</g>
</svg>
