<?xml version="1.0" encoding="iso-8859-1"?>
<!-- Generator: Adobe Illustrator 19.0.0, SVG Export Plug-In . SVG Version: 6.00 Build 0)  -->
<svg version="1.1" id="Capa_1" xmlns="http://www.w3.org/2000/svg" xmlns:xlink="http://www.w3.org/1999/xlink" x="0px" y="0px"
	 viewBox="0 0 508 508" style="enable-background:new 0 0 508 508;" xml:space="preserve">
<path style="fill:#F2F2F2;" d="M390.213,0h-369c-11.7,0-21.2,9.5-21.2,21.2v375.1l111.8,111.7h278.4c11.7,0,21.2-9.5,21.2-21.2V21.2
	C411.413,9.5,401.913,0,390.213,0z"/>
<rect x="62.013" y="241.1" style="fill:#CDD5DF;" width="287.3" height="25.8"/>
<rect x="62.013" y="76.7" style="fill:#FFD05C;" width="151.7" height="25.8"/>
<rect x="213.713" y="405.5" style="fill:#65C5B8;" width="135.6" height="25.8"/>
<g>
	<rect x="62.013" y="323.3" style="fill:#CDD5DF;" width="287.3" height="25.8"/>
	<rect x="62.013" y="158.9" style="fill:#CDD5DF;" width="287.3" height="25.8"/>
</g>
<rect x="393.608" y="321.101" transform="matrix(-0.7071 0.7071 -0.7071 -0.7071 934.7972 285.7962)" style="fill:#F05540;" width="29.2" height="30.8"/>
<path style="fill:#41596B;" d="M403.913,156.4c-48.5-48.5-127.3-48.5-175.8,0s-48.5,127.3,0,175.8s127.3,48.5,175.8,0
	S452.413,204.9,403.913,156.4z"/>
<path style="fill:#FFD05C;" d="M498.613,381.4l-39.2-39.2c-12.6-12.6-32.9-12.6-45.5,0s-12.6,32.9,0,45.5l39.2,39.2
	c12.6,12.6,32.9,12.6,45.5,0C511.112,414.3,511.112,393.9,498.613,381.4z"/>
<path style="fill:#FFFFFF;" d="M378.213,306.5c-34.3,34.3-90.1,34.3-124.3,0c-34.3-34.3-34.3-90.1,0-124.3
	c34.3-34.3,90.1-34.3,124.3,0C412.513,216.4,412.513,272.2,378.213,306.5z"/>
<path style="fill:#CDD5DF;" d="M111.813,417.4c0-11.7-9.5-21.2-21.2-21.2h-90.6l111.8,111.8V417.4z"/>
<g>
</g>
<g>
</g>
<g>
</g>
<g>
</g>
<g>
</g>
<g>
</g>
<g>
</g>
<g>
</g>
<g>
</g>
<g>
</g>
<g>
</g>
<g>
</g>
<g>
</g>
<g>
</g>
<g>
</g>
</svg>
