<svg width="16" height="16" viewBox="0 0 16 16" fill="none" xmlns="http://www.w3.org/2000/svg">
<path fill-rule="evenodd" clip-rule="evenodd" d="M14 9.67L14.28 9.94L15.51 11.17V11.88L13.02 14.36L12.32 13.66L13.97 12.01H9V11.01H13.93L12.33 9.41L13 8.75L13.04 8.71L14 9.67Z" fill="#424242"/>
<path fill-rule="evenodd" clip-rule="evenodd" d="M13.85 4.44L10.57 1.14L10.22 1H2.5L2 1.5V14.5L2.5 15H12.24L11.24 14H3V2H9V5.5L9.5 6H13V7.35L13.75 8.01L14 8.27V4.8L13.85 4.44ZM10 5V2L13 5H10Z" fill="#424242"/>
</svg>
