<svg width="16" height="16" viewBox="0 0 16 16" fill="none" xmlns="http://www.w3.org/2000/svg">
<path fill-rule="evenodd" clip-rule="evenodd" d="M14.5 2H9L8.65002 2.15002L8 2.79004L7.34998 2.15002L7 2H1.5L1 2.5V12.5L1.5 13H6.78998L7.65002 13.85H8.34998L9.21002 13H14.5L15 12.5V2.5L14.5 2ZM7.5 12.3199L7.32001 12.15L7 12H2V3H6.78998L7.53003 3.73999L7.5 12.3199ZM14 12H9L8.65002 12.15L8.51001 12.28V3.69995L9.21002 3H14V12ZM6 5H3V6H6V5ZM6 9H3V10H6V9ZM3 7H6V8H3V7ZM13 5H10V6H13V5ZM10 7H13V8H10V7ZM10 9H13V10H10V9Z" fill="#424242"/>
</svg>
