<?xml version="1.0" encoding="utf-8"?>
<!-- Generator: Adobe Illustrator 23.0.6, SVG Export Plug-In . SVG Version: 6.00 Build 0)  -->
<svg version="1.1" id="Layer_1" xmlns="http://www.w3.org/2000/svg" xmlns:xlink="http://www.w3.org/1999/xlink" x="0px" y="0px"
	 viewBox="0 0 1248.6 241.9" style="enable-background:new 0 0 1248.6 241.9;" xml:space="preserve">
<style type="text/css">
	.st0{fill:none;stroke:#BC030C;stroke-width:20;stroke-miterlimit:8;}
	.st1{fill:#BC030C;}
	.st2{fill:none;stroke:#000000;stroke-width:20;stroke-miterlimit:8;}
	.st3{fill:none;stroke:#008BD3;stroke-width:20;stroke-miterlimit:8;}
	.st4{fill:none;}
	.st5{fill-rule:evenodd;clip-rule:evenodd;}
	.st6{fill-rule:evenodd;clip-rule:evenodd;fill:#B3995D;}
	.st7{fill-rule:evenodd;clip-rule:evenodd;fill:#AA0000;}
	.st8{fill-rule:evenodd;clip-rule:evenodd;fill:#FFFFFF;}
</style>
<g>
	<line class="st0" x1="695.7" y1="53.97" x2="695.7" y2="80.95"/>
	<line class="st0" x1="695.7" y1="173.7" x2="695.7" y2="200.67"/>
	<path class="st1" d="M151.34,74.3c13.32-2.78,26.61-5.89,40.01-8.24c13.73-2.41,34.71-1.43,47.61-7.22
		C250.5,53.66,260.88,39,271.15,30.9c11.55-9.11,24.25-16.55,36.9-24.04c-10.28,9.51-20.91,18.32-31.5,27.47
		c-4.94,4.27-11.73,8.87-15.61,14.25c-5.42,7.52-5.05,8.89,2.85,10.99c17.88,4.75,27.81-2.38,41.26-11.66
		c11.05-7.63,23.11-13.9,34.73-20.64c0.03,5.19-16.26,12.66-20.78,15.68c-7.66,5.12-17.27,7.55-15.77,18.32
		c11.75,0.75,21.76,3.06,32.2-1.71c11.16-5.1,21.56-11.49,32.98-16.43c-7.47,5-33.55,16.95-23.23,24.4
		c6.3,4.55,24.2,7.05,31.55,9.49c41.24,13.68,82.48,27.36,123.71,41.03c20.94,6.94,54.23,11.48,74.2,0.37
		c13.79-7.67,24.69-23.08,37.88-32.42c12.46-8.82,25.09-17.79,39.33-23.52c16.43-6.61,32.57-14.35,44.94,1.24
		c8.92,11.24,15.51,29.4,18.52,43.37c5.71,26.57-1.04,62.33-20.5,82.07c-12.76,12.94-26.76,5.79-41.47-0.94
		c-15.71-7.2-30.97-14.6-46.22-22.72c-12.7-6.76-27.52-17.35-42.11-18.68c-12.54-1.14-32.01,2.1-43.74,6.18
		c-19.69,6.85-25.01,13.68-46.83,25.08c-15.05,7.86-26.25,11.64-48.67,19.2c-23.79,8.02-59.62,18.27-106.39,25.21
		c6.21,0.89,20.81,1.83,9.02,5.1c-6.67,1.85-17.22-0.66-23.94-1.43c-17.34-2.01-34.57-3.71-51.97-5.07
		c-17.5-1.36-34.96-2.29-52.29-5.08c-18.71-3.01-37.05-8.56-55.62-11.5c-16.04-2.54-31.57-3.29-47.27-8.03
		c-18.98-5.73-34.24-13.5-51.37-23.8c-12.69-7.64-30.66-17.32-36.19-31.49c-3.82-9.77-0.65-10.33,8.21-14.61
		c9.01-4.35,16.73-8.17,25.13-13.69c16.31-10.72,29.51-18.35,48.78-23.72C111.51,83.71,131.64,79.6,151.34,74.3z"/>
	<line class="st2" x1="653.14" y1="69.38" x2="653.14" y2="185.42"/>
	<line class="st2" x1="709.94" y1="53.97" x2="709.94" y2="204.23"/>
	<line class="st2" x1="804.65" y1="82.16" x2="804.65" y2="177.17"/>
	<line class="st2" x1="905.2" y1="71.64" x2="904.63" y2="181.71"/>
	<line class="st3" x1="1009.31" y1="54.53" x2="1009.31" y2="204.79"/>
	<line class="st2" x1="1056.72" y1="77.86" x2="1056.72" y2="177.73"/>
	<line class="st2" x1="1161.33" y1="77.86" x2="1161.33" y2="177.17"/>
	<path class="st0" d="M723.53,49.65c9.01,0.08,22.51,1.1,37.39,6.07c16,5.35,25.72,12.64,41.45,24.67
		c19.38,14.82,32.38,28.3,44.15,40.6c7.46,7.8,6.11,6.87,30.18,33.01c17.17,18.65,21.06,22.61,27.93,27.7
		c7.65,5.68,19.17,14.06,36.94,19.35c27.8,8.28,52.29,3.48,61.72,1.52c4.94-1.03,19.72-4.39,36.04-13.28
		c4.28-2.33,14.28-8.1,34.24-27.32c14.47-13.94,15.42-16.88,35.59-38.33c16.62-17.67,25.16-26.68,36.49-34.91
		c3.51-2.55,15.91-11.37,34.24-19.73c10.08-4.6,18.83-8.51,31.53-10.63c10.14-1.69,18.83-1.56,24.78-1.14"/>
	<path class="st0" d="M728.97,49.86c-48.76-0.05-89.23,30.98-122.73,62.33"/>
	<path class="st3" d="M725.29,207.08c4.36,0.61,10.89,1.11,18.52,0c11.42-1.66,19.26-6.03,27.38-10.85
		c18.57-11.02,27.85-16.53,38.65-25.1c16.08-12.74,26.34-23.56,38.65-36.63c20.24-21.49,20.17-24.67,37.04-41.38
		c16.76-16.6,25.15-24.9,37.85-31.2c27.37-13.59,55.11-12.05,62.81-11.53c29.4,1.97,49.43,13.33,57.98,18.31
		c11.48,6.69,15.83,11.56,48.32,46.8c32.23,34.97,39.15,42.33,52.34,52.91c24.78,19.87,39.91,25.62,49.93,28.49
		c16.77,4.81,31.82,5.2,41.87,4.75"/>
	<path class="st0" d="M729.78,207.28c-11.79,1.71-23.94,0.36-34.73-3.69c-16.19-6.74-31.03-14.84-45.86-24.28
		c-16.19-10.79-31.03-20.23-43.06-34.77"/>
	<g>
		<line class="st0" x1="755.59" y1="126.09" x2="755.59" y2="48.97"/>
		<line class="st3" x1="755.59" y1="202.94" x2="755.59" y2="125.82"/>
	</g>
	<line class="st0" x1="957.25" y1="126.32" x2="957.25" y2="203.44"/>
	<line class="st3" x1="957.25" y1="49.47" x2="957.25" y2="126.59"/>
	<g>
		<line class="st0" x1="1211.21" y1="130.09" x2="1211.21" y2="52.97"/>
		<line class="st3" x1="1211.21" y1="206.94" x2="1211.21" y2="129.82"/>
	</g>
	<line class="st0" x1="1094.01" y1="140.41" x2="1114.6" y2="118.4"/>
</g>
<g>
	<line class="st4" x1="380.44" y1="163" x2="380.53" y2="163.1"/>
	<ellipse class="st5" cx="252.14" cy="140.66" rx="123.62" ry="72.06"/>
	<ellipse class="st6" cx="252.69" cy="141.49" rx="107.82" ry="66.52"/>
	<ellipse class="st7" cx="252.97" cy="140.38" rx="99.23" ry="62.09"/>
	<path class="st5" d="M330.49,132.28h-0.27v-2.26h-39.36c-0.84-4.43-3.39-8.54-7.03-11.74c-3.58-4.12-8.78-7.21-14.7-8.39l-2.46-0.5
		c-5.68-1.19-10.17-2.14-28.22-2.05c0,0-3.47-0.12-6.84-0.57c-0.85-0.22-1.6-0.47-2.25-0.75c0.25-1.5,3-3.57,6.1-3.97
		c0.32-0.06,19.86-3.65,39.97,9.37l0.49,0.32h13.22V91.51h-2.26v-2.26h-18.14c0,0-2.15,1.64-3.06,2.33
		c-5.22-1.31-30.8-6.9-52.88,2.76c-9.28,3.84-15.04,11.08-14.63,18.43c0.21,3.71,1.98,6.94,5.05,9.45c2.26,2.82,5.8,5.01,10.42,6.34
		c6.54,1.88,12.07,2.66,17.44,2.97v9.22h2.26v2.26h6.89c2.86,0,3.59,1.58,3.77,2.17c-8.8-0.58-22.19-3.08-32.04-12.2l-0.37-0.4
		h-0.07c-0.54-0.52-1.08-1.06-1.6-1.62l-0.59-0.64h-9.92v28.79h2.26v2.26h8.09c1.19,0.08,4.95-0.34,7.54-7.91
		c4.21,1.46,14.58,4.59,27.34,4.93v17.91c-0.45,6.01-13.69,7.9-18.31,8.08l-1.91,0.07v8.9h2.26v2.26h58.16v-8.52l-1.48-0.39
		c-0.27-0.07-0.52-0.14-0.77-0.21v-1.95l-1.82-0.16c-3.27-0.29-5.79-0.86-7.74-1.55c-3.66-2.05-4.28-3.72-4.36-3.98v-9.55h17.05
		c1.8,0.27,3.34,1.06,4.65,2.09c2.46,3.02,3.57,6.48,3.59,6.54l0.44,1.4l1.46,0.01h0.05c0.2,0.51,0.31,0.84,0.31,0.85l0.44,1.4h9.16
		v-34.64h-2.26v-2.26h-9.12l-0.33,1.59c-2.39,11.51-15.7,11.34-27.53,9.61c2.32-0.63,4.65-1.39,6.97-2.32
		c6.34-2.52,11.09-5.94,14.06-9.95h25.54c1.78,0.06,3.3,0.5,4.57,1.33c2.68,3.93,2.41,9.71,2.41,9.78l-0.11,2.09h2.38l0,0.16
		l-0.11,2.1l2.1,0h8.08v-26.82L330.49,132.28L330.49,132.28z"/>
	<path class="st8" d="M289.75,139.37h21.17c12.09,0.39,11.22,15.47,11.22,15.47h6.1v-22.84h-36.54
		C291.69,132.01,291.61,137.12,289.75,139.37 M246.65,158.88v17.54c-0.63,9.19-20.21,9.95-20.21,9.95v5h54.19v-5
		c-16.1-1.39-16.18-9.6-16.18-9.6v-11.71h19.25c8.8,1.26,12.19,12.29,12.19,12.29h5.71v-30.67h-5.51
		c-3.83,18.47-32.14,10.16-34.23,10.63C261.84,157.31,254.87,159.05,246.65,158.88 M263.56,128.71c7.36,2.16,8.04,7.77,3.73,13.02
		c-5.51,5.2-13.93,5.42-13.93,5.42s-28.34,3.06-44.88-14.83h-7.06v24.81h6.19c0,0,3.77,0.58,6.19-8.51c0,0,29.1,11.84,56.78,0.85
		c26.81-10.65,16.61-33.97-1.84-37.63c-7.09-1.41-9.92-2.62-30.27-2.51c0,0-3.67-0.12-7.25-0.6c-11.22-2.8-4.84-10.06,1.74-10.91
		c0,0,20.22-3.99,41.3,9.67h10.64V91.24h-15.48l-3.29,2.51c0,0-28.7-8.01-52.52,2.42c-16.02,6.62-19.15,23.18-1.66,28.23
		c15.4,4.44,25.22,2.58,40.83,3.18C257.14,127.74,260.94,127.91,263.56,128.71 M240.44,138.77h-7.35v-6.58c5.7,0,17.32,0.05,25.55,0
		c8.28,0,9.38,4.78,5.89,8.02c-3.29,3.05-10.17,5.22-18.32,3.74C246.2,143.94,245.53,138.77,240.44,138.77"/>
</g>
</svg>
