<svg xmlns="http://www.w3.org/2000/svg" viewBox="0 0 72 72"><defs><style>.icon-canvas-transparent{fill:#f6f6f6;opacity:0;}.cls-1{fill:#064f8c;}.cls-2{fill:#249847;}.cls-3{fill:#be2128;}.cls-4{fill:#cdcdce;}.cls-5{fill:#e6e6e6;}.cls-6{fill:#505050;}.cls-7{fill:#939393;}</style></defs><title>Market_CMakeTools</title><g id="canvas"><path class="icon-canvas-transparent" d="M72,72H0V0H72Z"/></g><g id="iconBg"><path class="cls-1" d="M36.42,4.5,8.84,59,38.92,33.48Z"/><path class="cls-2" d="M63.38,60.75l-37.08-15-17.61,15Z"/><path class="cls-3" d="M65.25,60.28,37.67,5.43l4,45.35Z"/><path class="cls-4" d="M40.48,50.31,39.07,34.88,27.23,45Z"/><path class="cls-5" d="M71.91,39.17A14,14,0,0,1,68.84,47a11.75,11.75,0,0,1-4.3,3.53,13.87,13.87,0,0,1-5.94,1.39,12.85,12.85,0,0,1-4.24-.72L36.5,69l-3.35,2.7a4.74,4.74,0,0,1-1.63.29,4.82,4.82,0,0,1-3.43-1.41L26.91,69.4A4.83,4.83,0,0,1,26.54,63l.11-.14,19.69-19.7A11.66,11.66,0,0,1,46,41.89a12.94,12.94,0,0,1-.35-2.54A13.63,13.63,0,0,1,47,33a11.79,11.79,0,0,1,3.53-4.3A13.82,13.82,0,0,1,59,25.55a12.64,12.64,0,0,1,2.58.27,5.15,5.15,0,0,1,.56.16l.17.08a2.26,2.26,0,0,1,.35.17,1.18,1.18,0,0,1,.19.11l.29.2.17.15a3.2,3.2,0,0,1,.27.25l.13.14a4,4,0,0,1,.31.41l0,0a3.8,3.8,0,0,1,.45,1l0,.12s0,0,0,.06a3.45,3.45,0,0,1,.1.56v0a3.91,3.91,0,0,1-1.29,3.3l-4.24,4.24,1.6,1.61L65.08,34a4.51,4.51,0,0,1,.54-.44,4.1,4.1,0,0,1,2.24-.71h0a3.85,3.85,0,0,1,3.32,1.84,4,4,0,0,1,.5,1.25c.07.34.12.7.16,1.08,0,.22,0,.43.07.65v0L72,39.09Z"/><path class="cls-6" d="M66.45,45.15c2.44-3.21,2.82-6.06,2.29-8.58a.91.91,0,0,0-1.53-.43L61.32,42A.92.92,0,0,1,60,42l-2.28-2.28-2.28-2.28a.91.91,0,0,1,0-1.29l5.89-5.89a.92.92,0,0,0-.44-1.54c-2.52-.52-5.36-.15-8.57,2.29a8.84,8.84,0,0,0-2.63,3.2,10.15,10.15,0,0,0-.11,9,.92.92,0,0,1-.16,1.05L28.89,64.82A1.86,1.86,0,0,0,29,67.28l1.18,1.18a1.86,1.86,0,0,0,2.46.14L53.23,48.05a.9.9,0,0,1,1-.17,10.12,10.12,0,0,0,9-.1A8.78,8.78,0,0,0,66.45,45.15Z"/><path class="cls-7" d="M60.77,42.58l6.44-6.44a.91.91,0,0,1,1.53.43,10.11,10.11,0,0,1,.18,1.36l-5.76,5.76a.92.92,0,0,1-1.29,0ZM31.53,68.28a1.86,1.86,0,0,1-.14-2.46L52,45.27a.92.92,0,0,0,.16-1.05,10.15,10.15,0,0,1,.11-9A8.84,8.84,0,0,1,54.85,32a10.74,10.74,0,0,1,6.77-2.49.89.89,0,0,0-.7-.8c-2.52-.52-5.36-.15-8.57,2.29a8.84,8.84,0,0,0-2.63,3.2,10.15,10.15,0,0,0-.11,9,.92.92,0,0,1-.16,1.05L28.89,64.82A1.86,1.86,0,0,0,29,67.28l1.18,1.18a1.86,1.86,0,0,0,1.93.43Z"/></g></svg>