<svg height="155.031" width="158.52" xml:space="preserve" xmlns="http://www.w3.org/2000/svg"><path d="M145.221 38.278c-4.759-12.357-15.236-19.948-27.938-22.849-9.148-2.089-27.515-2.916-47.722-3.365-16.76-.373-33.779-1.864-47.09 8.964C10.182 31.023 7.75 49.056 6.752 63.923c-.867 12.899 1.53 51.537 7.168 63.657 8.101 17.413 22.343 23.696 41.42 24.832-.021-4.155-.069-11.879-.095-16.883-21.669 4.712-26.242-7.19-26.242-7.19-3.543-9.003-4.996-8.968-7.648-10.397-4.307-2.321-2.368-8.116-.467-7.735 8.703 1.747 11.94 8.028 11.94 8.028 6.947 11.907 18.222 8.465 22.667 6.474.699-5.034 2.717-8.471 4.945-10.416-17.301-1.969-35.489-8.649-35.489-38.494 0-8.504 3.043-15.452 8.026-20.907-.809-1.963-.949-11.438 3.755-20.614 0 0 3.541-2.092 18.425 7.985 6.214-1.726 12.877-2.592 19.496-2.622 6.62.03 13.288.896 19.513 2.622 14.867-10.078 21.398-7.985 21.398-7.985 4.24 10.73 1.573 18.651.765 20.614 4.995 5.455 8.016 12.404 8.016 20.907 0 25.55-17.082 32.681-25.86 35.525-4.047 1.311-5.694 2.36-5.707 4.908-.021 4.354 3.283 6.157 3.283 13.424 0 7.274-.043 15.989-.07 21.464 36.688-3.997 41.676-15.994 47.356-35.592 3.638-12.552 4.264-28.046 5.269-41.077.908-11.783.903-25.009-3.395-36.173z" fill="#575757"/><path d="M154.552 21.082c-2.524-7.053-7.848-13.298-14.59-16.63-4.375-2.162-8.94-2.694-13.721-2.825-7.565-.207-15.05-.246-22.607 0-6.353.206-12.71-.639-19.065-.627-8.854.018-17.719.547-26.571.774-8.864.227-17.698-.794-26.536-.405-6.937.306-13.075 1.7-18.709 6.099-5.871 4.584-9.869 11.091-11.007 18.47-.5 3.246-.269 6.651-.276 9.924-.008 4.258-.04 8.516-.017 12.774.049 8.947.28 17.892.433 26.838.291 17.043.085 34.1.712 51.136.301 8.176 2.861 16.46 9.589 21.613 6.924 5.303 14.845 4.78 23.053 5.457 14.27 1.213 28.612 1.324 42.922 1.211l1.891-.043c15.038-.345 30.075-.559 45.116-.765 8.577-.118 16.299-2.134 22.523-8.405 6.158-6.205 7.64-13.306 7.897-21.732.531-17.425.016-34.816.067-52.241.026-8.873.292-16.73.195-25.603-.052-4.757-.066-9.505.025-14.261.07-3.724-.053-7.205-1.324-10.759zM76.344 149.03c-5.065-.048-10.129-.062-15.193-.098.05-1.474.096-2.948.117-4.423l.099-6.948c.046-3.191-2.991-2.393-5.105-2.075-2.996.451-6.066.554-9.086.356-5.722-.375-10.452-4.057-12.677-9.185-2.13-4.91-5.033-10.406-10.041-12.883.301.164.139.009-.186-.262 9.197 1.087 11.236 12.183 19.581 15.181 3.808 1.368 7.614 1.223 11.52.366 1.409-.415 5.358-1.026 5.676-2.782.349-.772.407-2.019.599-2.844.531-2.546 2.332-4.625 4.278-6.223 4.276-3.51-3.194-4.565-5.067-4.85-10.162-1.544-19.742-4.672-25.487-13.749-3.977-6.284-4.745-13.983-4.807-21.259-.025-2.972.202-5.893.93-8.78a28.156 28.156 0 0 1 3.374-7.953c1.42-2.295 4.572-4.52 4.006-7.419-2.029-5.943-1.482-11.642.202-17.464 1.241.112 3.129.122 3.65.263 2.235.609 4.443 1.373 6.512 2.424 2.906 1.477 5.614 3.565 8.549 4.915 2.517 1.158 6.567-.761 9.273-1.231 5.702-.992 11.713-1.546 17.493-.964 3.138.316 6.26.635 9.356 1.26 1.575.318 3.134.746 4.697 1.119 1.639.39 3.218-1.037 4.514-1.845 4.663-2.909 10.683-6.544 16.45-6.396 2.079 5.655 3.229 11.833 1.073 17.683-.738 2.002.599 2.906 1.746 4.36 2.193 2.833 3.696 5.907 4.643 9.353.764 2.779.828 6.479.776 8.928-.467 6.955-.037 13.66-3.472 19.991-2.836 5.228-7.507 10.241-12.849 12.991a49.916 49.916 0 0 1-7.635 3.152 28.724 28.724 0 0 1-5.139 1.165c-1.699.308-4.07.087-5.631.798-2.734 1.245 1.739 5.302 2.438 6.724 1.317 2.681 1.794 5.605 1.951 8.56.356 6.708.049 13.503.019 20.221-7.038.009-14.079-.07-21.147-.177zm74.198-23.181c-.524 8.389-4.14 15.137-11.501 19.548-7.059 4.23-15.425 3.292-23.328 3.544-4.96.159-9.906.221-14.85.249.099-2.444.204-4.889.259-7.334.188-8.351 1.475-18.199-3.396-25.311 12.959-2.88 27.28-7.643 31.816-21.41 2.326-7.059 2.696-14.444 2.327-21.833-.366-7.338-3.284-13.817-7.843-19.456 1.194-3.838 1.557-7.754 1.171-11.789-.234-2.447-.966-10.192-3.967-10.746-4.304-1.38-10.627 1.097-14.316 2.861-2.833 1.355-5.453 2.912-8.067 4.613-7.552-1.533-14.944-3.007-22.71-2.331-5.629.49-11.019 1.874-16.531 2.982-6.03-4.351-15.27-10.384-23.032-8.333-2.739 1.346-3.314 8.218-3.545 10.928-.345 4.046.051 7.97 1.275 11.806-4.661 5.896-8.075 12.235-8.445 19.899-.136 2.819.088 5.628.74 8.388 1.078 4.566 1.855 9.455 3.701 13.788 2.114 4.961 5.044 9.393 9.38 12.712 6.565 5.024 13.977 6.782 21.861 7.901-1.71 2.499-2.692 5.279-3.29 8.4-5.94 2.442-13.957 2.744-18.176-2.994-1.96-2.241-3.131-5.015-5.157-7.222-2.452-2.672-5.804-4.906-9.451-5.456-1.605-.242-3.075-.271-4.674.286-4.854 1.83-1.146 6.594 1.863 8.032 3.995 2.731 5.742 6.771 7.492 11.082-.303-.776 1.026 2.126 1.153 2.348.886 1.4 1.912 2.726 3.122 3.865 3.058 2.623 6.357 4.161 10.289 4.998 4.178.889 8.505.378 12.688-.381l.286 9.419c-6.353-.061-12.704-.179-19.055-.469-5.422-.247-11.421.083-16.628-1.737-5.749-2.009-9.075-6.584-10.957-12.35-2.131-6.529-1.533-14.136-1.833-20.93-.328-7.42-.654-14.84-.911-22.263-.429-12.438-2.036-29.869-1.984-42.314.036-8.546 1.436-12.252 2.026-20.78.535-7.738 5.615-14.648 12.342-18.293 6.998-3.791 15.921-2.958 23.592-2.57 8.772.444 17.587-.642 26.369-.698 13.115-.083 25.235.477 38.349.563 4.544.03 9.093.08 13.632.302 3.741.183 7.655.148 11.243 1.344 6.622 2.207 11.985 7.732 14.311 14.275 1.442 4.056 1.388 8.242 1.733 12.482.354 4.343.453 8.66.51 13.016.114 8.761.627 16.509.723 25.269.189 17.422.482 34.696-.606 52.1z"/></svg>