<svg class="svg-icon" style="width: 1em; height: 1em;vertical-align: middle;fill: currentColor;overflow: hidden;" viewBox="0 0 1024 1024" version="1.1" xmlns="http://www.w3.org/2000/svg"><path d="M417.798203 1016.25308c28.670112 16.894887 51.196629 5.631629 51.196629-28.670112V588.76123c0-34.301741-23.038483-68.603482-51.196629-85.49837L87.579948 297.964379c-28.670112-11.263258-51.196629 0-51.196629 28.670112v398.821738c0 34.301741 23.038483 68.603482 51.196629 85.49837l330.218255 205.298481zM138.776577 172.532639c-28.670112 16.894887-28.670112 39.93337 0 56.828258l325.098592 205.298481c28.670112 16.894887 68.603482 16.894887 96.761628 5.631629L885.73539 274.925896c28.670112-16.894887 28.670112-39.93337 0-56.828258L543.229944 12.799157c-23.038483-16.894887-68.603482-16.894887-96.761629 0L138.776577 172.532639z m421.86022 815.050329c0 34.301741 23.038483 45.565 51.196629 28.670112l325.098592-165.365111c28.670112-16.894887 51.196629-51.196629 51.196629-85.49837v-399.333704c0-34.301741-23.038483-45.565-51.196629-28.670112l-325.098592 165.365111c-28.670112 16.894887-51.196629 51.196629-51.196629 85.49837v399.333704z"  /></svg>