<?xml version="1.0" encoding="UTF-8" standalone="no"?>
<svg
   xmlns:dc="http://purl.org/dc/elements/1.1/"
   xmlns:cc="http://creativecommons.org/ns#"
   xmlns:rdf="http://www.w3.org/1999/02/22-rdf-syntax-ns#"
   xmlns:svg="http://www.w3.org/2000/svg"
   xmlns="http://www.w3.org/2000/svg"
   xmlns:sodipodi="http://sodipodi.sourceforge.net/DTD/sodipodi-0.dtd"
   xmlns:inkscape="http://www.inkscape.org/namespaces/inkscape"
   version="1.1"
   id="Layer_1"
   x="0px"
   y="0px"
   viewBox="0 0 357.8 358.7"
   xml:space="preserve"
   sodipodi:docname="cornell-reduced-white.svg"
   width="357.79999"
   height="358.70001"
   inkscape:version="1.0.1 (c497b03c, 2020-09-10)"><metadata
   id="metadata96"><rdf:RDF><cc:Work
       rdf:about=""><dc:format>image/svg+xml</dc:format><dc:type
         rdf:resource="http://purl.org/dc/dcmitype/StillImage" /><dc:title></dc:title></cc:Work></rdf:RDF></metadata><defs
   id="defs94" /><sodipodi:namedview
   pagecolor="#ffffff"
   bordercolor="#666666"
   borderopacity="1"
   objecttolerance="10"
   gridtolerance="10"
   guidetolerance="10"
   inkscape:pageopacity="0"
   inkscape:pageshadow="2"
   inkscape:window-width="2260"
   inkscape:window-height="875"
   id="namedview92"
   showgrid="false"
   inkscape:pagecheckerboard="true"
   fit-margin-top="0"
   fit-margin-left="0"
   fit-margin-right="0"
   fit-margin-bottom="0"
   inkscape:zoom="0.65824842"
   inkscape:cx="799.85"
   inkscape:cy="179.35"
   inkscape:window-x="240"
   inkscape:window-y="47"
   inkscape:window-maximized="0"
   inkscape:current-layer="g89" />
<style
   type="text/css"
   id="style28">
	.st0{fill:#FFFFFF;}
</style>
<g
   id="Layer_2_1_">
</g>
<g
   id="g89">
	<path
   class="st0"
   d="M 178.9,0 C 80.1,0 0,80.2 0,178.9 c 0,98.7 80.1,179.8 178.9,179.8 98.6,0 178.9,-81.2 178.9,-179.8 C 357.8,80.1 277.7,0 178.9,0 Z m 0,338.4 C 90.9,338.4 19.5,267 19.5,179 19.5,91 91,19.6 178.9,19.6 c 87.9,0 159.3,71.2 159.4,159.4 0,88 -71.4,159.4 -159.4,159.4 z"
   id="path31" />
	<path
   class="st0"
   d="m 70.5,209.1 c 0,81.2 101.5,125.2 105.5,127.1 l 2.9,1 3.1,-1.9 c 4.9,-1.8 105.5,-46.9 105.5,-124.1 V 64.6 h -217 z m 15.6,0.1 v -43.9 h 87.8 v 11.3 c -2.2,-0.5 -7,-1.6 -12.4,-0.8 -2.9,0 -5.9,1 -8.8,1 -5,0 -8.8,1 -12.8,1 -7.8,0 -12.6,0 -16.6,0 h -5.9 v 98.8 h 5.9 c 0,0 5.9,0 13.6,0 7.7,0 12.7,-1 17.6,-1 4.7,-1 8.7,-1 14.6,-1 1,0 1.9,0.9 2.9,1.9 0.4,0.5 1,1.3 1.9,2.1 v 40.1 C 149.8,306.2 86.1,267.8 86.1,209.2 Z m 87.8,55.3 c -1.4,-0.4 -3.1,-0.7 -4.8,-0.7 -6.8,0 -10.7,0 -15.4,1 -4.8,0 -9.7,1 -16.6,1 -2,0 -5,0 -6.9,0 v -76.1 c 3,0 5.9,0 10.8,0 3.7,0 8.7,0 13.6,-1 2.9,0 5.9,-1 8.8,-1 5,-1 9.9,0 9.9,0 0.2,0.1 0.4,0.2 0.6,0.3 z m 11.7,-76.3 c 0.3,-0.2 0.8,-0.5 1.3,-0.5 0,0 5,-1 9.9,0 2.9,0 5.9,1 8.8,1 4.8,0 9.7,1 13.6,1 3.9,0 7.9,0 10.8,0 v 76.1 c -2,0 -4,0 -6.9,0 -6.7,0 -11.7,-1 -16.6,-1 -5,-1 -9.9,-1 -15.8,-1 -1.9,0 -3.6,0.3 -5.1,0.8 z m 0,-0.1 v -0.5 l 0.4,0.1 c -0.2,0.2 -0.3,0.3 -0.4,0.4 z m 0,130.6 v -40.5 c 0.8,-0.5 1.6,-1.1 2.5,-1.7 1,-1.9 1,-1.9 2.9,-1.9 5.8,0 9.7,1 14.6,1 4.8,0 9.8,1 17.6,1 7.7,0 13.6,0 13.6,0 h 5.8 v -98.8 h -5.9 c -3.9,0 -8.9,0 -16.6,0 -4,0 -7.9,0 -12.8,-1 -2.9,0 -5.9,-1 -8.8,-1 -5.4,0 -11,0.7 -12.9,0.9 v -11.4 h 88.1 v 46.8 c 0,55.1 -64.6,94.1 -88.1,106.6 z M 273.7,152.5 H 86.1 V 80.1 h 187.6 z"
   id="path33" />
	<path
   class="st0"
   d="m 112.6,136.8 c 6.8,4.9 18.6,11.8 18.6,11.8 l 1.9,1 2.9,-1 c 0.9,0 11.7,-6.9 19.5,-11.8 5.9,-4 8.8,-7.9 8.8,-12.8 0,-0.9 0,-12.6 0,-36.1 V 83 h -61.6 v 4.9 c 0,23.3 0,35.1 0,36.1 1.1,4 4,8.8 9.9,12.8 z m 36.1,-7.9 c -4.8,3 -12.6,8 -16.6,9.9 -4,-2.1 -10.9,-7 -15.8,-9.9 -3,-1.9 -4.9,-4.9 -4.9,-5.9 0,-1 0,-6 0,-12.5 h 42.2 c 0,7 0,12.4 0,13.5 0,2 -3,3.9 -4.9,4.9 z M 111.5,91.8 v 1 h 42.1 c 0,2.9 0,5.9 0,8.9 h -42.2 c 0,-3.3 0,-6.7 0.1,-9.9 z"
   id="path35" />
	<path
   class="st0"
   d="m 208.2,136.8 c 6.8,4.9 18.6,11.8 18.6,11.8 l 1.9,1 2.9,-1 c 0.9,0 11.7,-6.9 19.5,-11.8 5.9,-4 8.8,-7.9 8.8,-12.8 0,-0.9 0,-12.6 0,-36.1 V 83 h -61.6 v 4.9 c 0,23.3 0,35.1 0,36.1 1.1,4 4,8.8 9.9,12.8 z m 36.4,-7.9 c -4.9,3 -12.6,8 -16.6,9.9 -4.1,-2.1 -10.9,-7 -15.8,-9.9 -3,-1.9 -4.9,-4.9 -4.9,-5.9 0,-0.3 0,-0.9 0,-1.8 l 20.5,-14.6 21.7,14.1 c 0,1.7 0,2.9 0,3.3 0,2 -3,3.9 -4.9,4.9 z M 207.5,91.8 v 1 h 42 c 0,5.9 0,12.3 0,17.7 l -21.7,-14.7 -20.5,14.4 c 0,-5.7 0,-12.4 0,-18.4 z"
   id="path37" />
	<rect
   x="136.8"
   y="200.3"
   class="st0"
   width="25.4"
   height="8.8000002"
   id="rect39" />
	<rect
   x="136.8"
   y="220.8"
   class="st0"
   width="25.4"
   height="8.8000002"
   id="rect41" />
	<rect
   x="136.8"
   y="241.5"
   class="st0"
   width="25.4"
   height="8.8000002"
   id="rect43" />
	<rect
   x="193.5"
   y="200.3"
   class="st0"
   width="25.4"
   height="8.8000002"
   id="rect45" />
	<rect
   x="193.5"
   y="220.8"
   class="st0"
   width="25.4"
   height="8.8000002"
   id="rect47" />
	<rect
   x="193.5"
   y="241.5"
   class="st0"
   width="25.4"
   height="8.8000002"
   id="rect49" />
	<path
   class="st0"
   d="m 451.4,142.4 c 3.7,-3.7 8.1,-6.4 13,-8.1 4.9,-1.7 10.9,-2.6 17.9,-2.7 9.4,0 16.6,1.2 21.5,3.6 4.9,2.4 7.6,6 8.1,10.9 l 0.1,8.8 h 4.7 c 0.3,-5.6 0.8,-10.4 1.6,-14.7 0.5,-2.6 1.4,-5.3 2.5,-8 -1.2,-0.2 -4.6,-1.1 -10.2,-2.6 -5.5,-1.5 -10.2,-2.5 -14.1,-3 -3.8,-0.5 -8,-0.8 -12.5,-0.8 -19.1,0 -34.2,5.2 -45.2,15.6 -11,10.4 -16.6,23.5 -16.6,39.3 0,6.2 0.8,12 2.5,17.2 1.6,5.2 4,10.1 7.1,14.5 3.1,4.4 7.2,8.5 12.1,12.1 4.9,3.6 10.7,6.4 17.3,8.3 6.6,1.9 13.7,2.9 21.4,2.9 6.5,0 12.6,-0.7 18.1,-2 5.6,-1.3 11.2,-3.4 17,-6.4 l 2.9,-6.9 -1.3,-1.6 c -3.9,2.8 -7.9,4.8 -11.8,6.1 -5.8,1.9 -12.1,2.8 -18.9,2.8 -15.1,0 -27.2,-4.6 -36.4,-13.7 -9.2,-9.2 -13.8,-21.2 -13.8,-36.3 0,-8.6 1.3,-15.7 3.6,-21.4 2.6,-5.5 5.6,-10.2 9.4,-13.9 z"
   id="path51" />
	<path
   class="st0"
   d="m 565,161.7 c -11.1,0 -20.1,3.5 -27.2,10.5 -7.1,7 -10.6,16.1 -10.6,27.2 0,6.1 1.1,11.9 3.4,17.3 1.3,3.1 3.2,6.1 5.7,9 2.5,2.9 5.7,5.4 9.7,7.3 4,1.9 8.9,2.9 14.6,2.9 7.4,0 14.2,-1.7 20.3,-5.1 6.1,-3.4 10.9,-8.1 14.3,-14.1 3.4,-6 5.1,-12.6 5.1,-19.9 0,-10.4 -3.3,-18.8 -9.8,-25.4 -6.6,-6.4 -15.1,-9.7 -25.5,-9.7 z m 15.1,62.1 c -3.9,4.6 -8.7,6.8 -14.4,6.8 -4.5,0 -8.7,-1.5 -12.5,-4.4 -3.8,-2.9 -6.8,-7.5 -8.8,-13.8 -2,-6.3 -3,-12.5 -3,-18.6 0,-9.3 1.9,-16.2 5.7,-20.6 3.8,-4.4 8.7,-6.6 14.8,-6.6 4.3,0 8.3,1.2 11.8,3.5 3.6,2.4 6.5,6.4 8.8,12.1 2.3,5.7 3.5,12.5 3.5,20.4 -0.1,9.6 -2,16.7 -5.9,21.2 z"
   id="path53" />
	<path
   class="st0"
   d="m 648.7,162 c -2.1,0 -4.1,0.4 -6,1.2 -1.9,0.8 -3.6,1.8 -5.1,3.1 -0.8,0.7 -2.2,2.4 -4.1,4.9 -1.9,2.5 -3.9,5.1 -6.2,7.7 0,-6.3 0.2,-11 0.4,-14.1 0,-0.4 0.1,-0.8 0.1,-1.2 0,-0.5 -0.1,-0.9 -0.3,-1.1 -0.2,-0.2 -0.5,-0.4 -0.8,-0.4 -0.3,0 -1,0.2 -2,0.7 -4.6,2.2 -11.9,4 -21.9,5.4 v 4.2 c 5.7,0 8.9,0.1 9.7,0.3 0.8,0.3 1.4,0.7 1.7,1.2 0.3,0.5 0.5,2.3 0.6,5.2 0.1,4.6 0.2,8.8 0.2,12.8 v 8.9 c 0,0.6 -0.1,7.5 -0.4,20.8 -0.1,2.4 -0.4,4.2 -0.9,5.4 -0.2,0.6 -0.6,1.1 -1,1.4 -0.4,0.3 -1.1,0.6 -1.9,0.7 -0.4,0.1 -3.5,0.2 -9.1,0.3 v 4.2 c 6,-0.3 12.1,-0.5 18.4,-0.5 6.1,0 13.6,0.2 22.3,0.5 v -4.2 c -6.5,-0.4 -10.6,-0.9 -12,-1.3 -0.7,-0.2 -1.3,-0.6 -1.6,-0.9 -0.3,-0.4 -0.6,-1 -0.8,-1.8 -0.2,-0.8 -0.3,-2.8 -0.4,-5.9 -0.2,-8.7 -0.4,-14.7 -0.4,-17.9 v -7.7 c 0,-6.3 1.3,-11 4,-14.2 2.7,-3.1 5.9,-4.7 9.7,-4.7 2.3,0 4.2,0.5 5.7,1.6 1.5,1.1 2.8,2.8 4,5.2 h 3.3 c 0.1,-5 0.5,-10.8 1.3,-17.4 l -0.4,-1 c -2,-0.9 -4.1,-1.4 -6.1,-1.4 z"
   id="path55" />
	<path
   class="st0"
   d="m 735.9,228.2 c -0.5,-0.6 -0.9,-1.6 -1.2,-3.1 -0.3,-2.3 -0.5,-6.7 -0.5,-13.2 v -13.2 c 0,-10.2 -0.2,-16.5 -0.5,-18.7 -0.6,-3.8 -1.8,-6.9 -3.6,-9.4 -1.8,-2.5 -4.5,-4.5 -8.1,-6.2 -3.6,-1.6 -7.4,-2.5 -11.4,-2.5 -3.6,0 -7.5,0.7 -11.5,2.2 l -13.9,11.8 c 0.1,-5.8 0.3,-9.5 0.4,-11.3 0,-0.4 0.1,-0.8 0.1,-1.2 0,-0.5 -0.1,-0.9 -0.3,-1.1 -0.2,-0.2 -0.5,-0.4 -0.8,-0.4 -0.3,0 -1,0.2 -2,0.7 -4.6,2.2 -11.9,4 -21.9,5.4 v 4.2 c 5.7,0 8.9,0.1 9.7,0.3 0.8,0.3 1.4,0.7 1.7,1.2 0.3,0.5 0.6,2.3 0.7,5.2 0.1,4.6 0.2,8.8 0.2,12.8 v 8.9 c -0.3,13.6 -0.4,20.7 -0.4,21.4 -0.1,2.5 -0.5,4.3 -1,5.3 -0.3,0.5 -0.7,0.9 -1.3,1.2 -0.6,0.3 -1.4,0.5 -2.4,0.6 l -7.1,0.1 v 4.2 c 9.4,-0.3 16.2,-0.5 20.3,-0.5 4.9,0 10.4,0.2 16.4,0.5 v -4.2 c -5.2,-0.1 -7.9,-0.2 -8.2,-0.2 -0.8,-0.2 -1.5,-0.5 -1.9,-0.8 -0.4,-0.3 -0.7,-0.7 -0.9,-1.2 -0.5,-1.1 -0.8,-3 -0.9,-5.4 0,-1 -0.1,-8 -0.4,-20.9 v -9 c 0,-5.5 0.7,-9.3 2,-11.7 1.3,-2.3 3.5,-4.3 6.6,-6.1 3.1,-1.8 6.5,-2.6 10.2,-2.6 4.2,0 7.8,1 10.8,3 3,2 4.9,4.7 5.7,8 0.6,2.4 0.9,7.5 0.9,15.3 v 12.5 c 0,3.2 -0.3,11 -1,23.2 6.4,-0.3 11.1,-0.5 13.8,-0.5 3.2,0 7.3,0.2 12.1,0.5 v -4.2 l -8,-0.2 c -1,0.2 -1.8,-0.2 -2.4,-0.7 z"
   id="path57" />
	<path
   class="st0"
   d="m 797.5,165.4 c -4.5,-2.5 -9.5,-3.8 -15.1,-3.8 -4.6,0 -8.8,0.8 -12.7,2.5 -3,1.2 -6,2.8 -9,4.9 -3,2.1 -5.3,3.9 -6.7,5.5 -2,2.2 -3.8,5.6 -5.3,10.2 -1.6,4.6 -2.3,9.7 -2.3,15.4 0,7.3 1.5,13.6 4.4,19.1 2.9,5.4 7,9.5 12.3,12.2 5.3,2.7 11.2,4.1 17.8,4.1 3.3,0 6.5,-0.4 9.5,-1.1 3,-0.7 5.7,-1.6 8,-2.6 1.6,-0.7 4.1,-2.1 7.5,-4.2 l 2.4,-5.4 -1.2,-1.3 c -4.4,2.6 -8.1,4.4 -11.1,5.3 -3,1 -6,1.4 -9,1.4 -4.5,0 -8.8,-1 -12.9,-3.1 -4.1,-2.1 -7.4,-5.3 -9.7,-9.7 -2.4,-4.4 -3.6,-10.1 -3.7,-17.2 h 23.9 c 5.4,0 10.7,-0.2 16.1,-0.6 2.8,-0.2 6,-0.6 9.6,-1.3 0.2,-2 0.3,-3.7 0.3,-5.1 0,-5.5 -1,-10.4 -3.1,-14.8 -2.2,-4.4 -5.5,-7.8 -10,-10.4 z m -0.7,26.7 c -2.1,0.2 -6.4,0.4 -13,0.4 -2.8,0 -7.9,-0.1 -15.3,-0.4 -3.9,-0.1 -6.5,-0.3 -7.9,-0.4 0,-8.7 1.8,-15 5.2,-19 3.4,-4 7.9,-6 13.6,-6 5.3,0 9.6,1.8 12.7,5.5 3.2,3.7 4.8,9.4 4.8,17.2 0,0.6 -0.1,1.5 -0.1,2.7 z"
   id="path59" />
	<path
   class="st0"
   d="m 840,228.3 c -0.4,-0.3 -0.7,-0.7 -0.9,-1.2 -0.5,-1.1 -0.8,-2.9 -0.9,-5.4 0,-1 -0.2,-8 -0.4,-20.9 v -38.6 l 0.1,-11.6 c 0,-6.2 0.2,-13.8 0.4,-22.7 l 0.1,-2.5 c 0.1,-0.6 0.1,-1.1 0.1,-1.5 0,-0.4 -0.1,-0.7 -0.3,-0.9 -0.2,-0.2 -0.5,-0.3 -0.8,-0.3 -0.3,0 -0.8,0.1 -1.5,0.4 -4.4,2.1 -12.1,3.8 -23.4,5.2 v 4.4 c 6.1,0 9.5,0.2 10.3,0.5 0.5,0.2 0.9,0.5 1.2,1 0.3,0.7 0.6,4 0.8,10 0.3,8.8 0.4,17.4 0.4,25.6 v 30.8 c -0.3,13.6 -0.5,20.7 -0.5,21.3 -0.1,2.5 -0.4,4.3 -1,5.3 -0.3,0.5 -0.7,0.9 -1.3,1.2 -0.6,0.3 -1.4,0.5 -2.5,0.6 l -7,0.1 v 4.3 c 7.9,-0.4 14.3,-0.6 19.2,-0.6 5.1,0 11,0.2 17.8,0.6 v -4.3 c -5.2,-0.1 -7.9,-0.2 -8.3,-0.2 -0.6,0 -1.2,-0.3 -1.6,-0.6 z"
   id="path61" />
	<path
   class="st0"
   d="m 884.3,228.3 c -0.4,-0.3 -0.7,-0.7 -0.9,-1.2 -0.5,-1.1 -0.8,-2.9 -0.9,-5.4 0,-1 -0.2,-8 -0.4,-20.9 v -38.6 l 0.1,-11.6 c 0,-6.2 0.2,-13.8 0.4,-22.7 l 0.1,-2.5 c 0.1,-0.6 0.1,-1.1 0.1,-1.5 0,-0.4 -0.1,-0.7 -0.3,-0.9 -0.2,-0.2 -0.5,-0.3 -0.8,-0.3 -0.3,0 -0.8,0.1 -1.5,0.4 -4.4,2.1 -12.1,3.8 -23.4,5.2 v 4.4 c 6.1,0 9.5,0.2 10.3,0.5 0.5,0.2 0.9,0.5 1.2,1 0.3,0.7 0.6,4 0.8,10 0.3,8.8 0.4,17.4 0.4,25.6 v 30.8 c -0.3,13.6 -0.5,20.7 -0.5,21.3 -0.1,2.5 -0.4,4.3 -1,5.3 -0.3,0.5 -0.7,0.9 -1.3,1.2 -0.6,0.3 -1.4,0.5 -2.5,0.6 l -7,0.1 v 4.3 c 7.9,-0.4 14.3,-0.6 19.2,-0.6 5.1,0 11,0.2 17.8,0.6 v -4.3 c -5.2,-0.1 -7.9,-0.2 -8.3,-0.2 -0.6,0 -1.2,-0.3 -1.6,-0.6 z"
   id="path63" />
	<path
   class="st0"
   d="m 1042.9,127.9 c -8.9,0.4 -15.1,0.6 -18.5,0.6 -3.8,0 -9.7,-0.2 -17.9,-0.6 v 4.8 c 5.9,0.1 9.4,0.4 10.7,0.8 1.3,0.4 2.2,1.1 2.8,1.9 0.6,0.9 0.9,3.7 1,8.4 0.2,6.4 0.3,13 0.3,19.8 v 22.9 c 0,6.5 -0.2,11.9 -0.7,16.1 -0.5,4.2 -1.2,7.6 -2.3,10 -1.1,2.4 -2.7,4.6 -4.8,6.6 -2.2,2 -5.4,3.6 -9.7,5 -4.3,1.4 -9.2,2 -14.8,2 -4.8,0 -9.1,-0.5 -12.9,-1.5 -3.9,-1 -6.9,-2.4 -9.2,-4.1 -3,-2.2 -5.1,-5 -6.5,-8.4 -1.4,-3.4 -2,-10.4 -2,-21.1 v -27.5 c 0.1,-13.1 0.2,-20.1 0.3,-21.1 0.1,-3.8 0.5,-6.2 1.2,-7.2 0.4,-0.7 1.3,-1.3 2.6,-1.7 1.3,-0.4 4.9,-0.7 10.7,-0.8 V 128 c -6.9,0.4 -13.9,0.6 -21,0.6 -6.9,0 -14.5,-0.2 -22.5,-0.6 v 4.8 c 5.9,0.1 9.5,0.4 10.7,0.8 1.3,0.4 2.2,1.1 2.8,1.9 0.6,0.9 0.9,3.7 1.1,8.4 0.1,6.4 0.2,13 0.2,19.8 v 32.9 c 0,9.6 0.7,16.4 2.1,20.5 1.1,3.1 3.1,6.1 6,9 2.9,3 7.2,5.3 12.8,7.1 5.6,1.8 12.2,2.7 19.9,2.7 6.5,0 12.5,-0.8 17.9,-2.3 5.4,-1.5 9.8,-3.7 13.2,-6.5 4.6,-3.7 7.7,-8 9.4,-12.9 1.7,-4.9 2.6,-13.4 2.6,-25.7 v -24.9 c 0.1,-13.1 0.2,-20.1 0.3,-21.1 0.1,-3.8 0.5,-6.2 1.1,-7.2 0.5,-0.7 1.4,-1.3 2.6,-1.7 1.3,-0.4 4.8,-0.7 10.7,-0.8 v -4.9 z"
   id="path65" />
	<path
   class="st0"
   d="m 1111.7,228.2 c -0.5,-0.6 -0.9,-1.6 -1.2,-3.1 -0.3,-2.3 -0.5,-6.7 -0.5,-13.2 v -13.2 c 0,-10.2 -0.2,-16.5 -0.5,-18.7 -0.6,-3.8 -1.8,-6.9 -3.6,-9.4 -1.8,-2.5 -4.5,-4.5 -8.1,-6.2 -3.6,-1.6 -7.4,-2.5 -11.4,-2.5 -3.6,0 -7.5,0.7 -11.5,2.2 l -13.9,11.8 c 0.1,-5.8 0.3,-9.5 0.4,-11.3 0,-0.4 0.1,-0.8 0.1,-1.2 0,-0.5 -0.1,-0.9 -0.3,-1.1 -0.2,-0.2 -0.5,-0.4 -0.8,-0.4 -0.3,0 -1,0.2 -2,0.7 -4.6,2.2 -11.9,4 -21.9,5.4 v 4.2 c 5.7,0 8.9,0.1 9.7,0.3 0.8,0.3 1.4,0.7 1.7,1.2 0.3,0.5 0.6,2.3 0.7,5.2 0.1,4.6 0.2,8.8 0.2,12.8 v 8.9 c -0.3,13.6 -0.4,20.7 -0.4,21.4 -0.1,2.5 -0.5,4.3 -1,5.3 -0.3,0.5 -0.7,0.9 -1.3,1.2 -0.6,0.3 -1.4,0.5 -2.4,0.6 l -7.1,0.1 v 4.2 c 9.4,-0.3 16.2,-0.5 20.3,-0.5 4.9,0 10.4,0.2 16.4,0.5 v -4.2 c -5.2,-0.1 -7.9,-0.2 -8.2,-0.2 -0.8,-0.2 -1.5,-0.5 -1.9,-0.8 -0.4,-0.3 -0.7,-0.7 -0.9,-1.2 -0.5,-1.1 -0.8,-3 -0.9,-5.4 0,-1 -0.1,-8 -0.4,-20.9 v -9 c 0,-5.5 0.7,-9.3 2,-11.7 1.3,-2.4 3.5,-4.3 6.6,-6.1 3.1,-1.8 6.5,-2.6 10.2,-2.6 4.2,0 7.8,1 10.8,3 3,2 4.9,4.7 5.7,8 0.6,2.4 0.9,7.5 0.9,15.3 v 12.5 c 0,3.2 -0.3,11 -1,23.2 6.4,-0.3 11.1,-0.5 13.8,-0.5 3.2,0 7.3,0.2 12.1,0.5 v -4.2 l -8,-0.2 c -1,0.2 -1.8,-0.2 -2.4,-0.7 z"
   id="path67" />
	<path
   class="st0"
   d="m 1142.5,145.6 c 2.3,0 4.2,-0.8 5.9,-2.5 1.7,-1.7 2.5,-3.6 2.5,-5.9 0,-2.3 -0.8,-4.3 -2.4,-6 -1.6,-1.6 -3.6,-2.5 -5.9,-2.5 -2.3,0 -4.3,0.8 -6,2.5 -1.6,1.6 -2.5,3.6 -2.5,6 0,2.3 0.8,4.2 2.5,5.9 1.5,1.7 3.5,2.5 5.9,2.5 z"
   id="path69" />
	<path
   class="st0"
   d="m 1151.8,228.5 c -0.4,-0.3 -0.7,-0.7 -1,-1.2 -0.5,-1.1 -0.8,-2.9 -0.8,-5.4 -0.1,-1 -0.2,-8 -0.4,-20.9 v -13.5 c 0,-5.6 0.2,-13.7 0.6,-24.2 l -1.6,-1.2 c -6.5,3.1 -14.6,5.2 -24.2,6.2 v 4.2 c 5.9,0 9.2,0.2 9.9,0.6 0.8,0.4 1.3,0.9 1.6,1.7 0.5,1.4 0.7,5.8 0.7,13.2 v 13 c -0.3,13.6 -0.4,20.7 -0.4,21.3 -0.1,2.5 -0.5,4.3 -1,5.3 -0.3,0.5 -0.7,0.9 -1.3,1.2 -0.6,0.3 -1.4,0.5 -2.4,0.6 l -7.1,0.1 v 4.2 c 9,-0.3 15.5,-0.5 19.5,-0.5 4.5,0 10.5,0.2 18.1,0.5 v -4.2 c -5.2,-0.1 -8,-0.2 -8.3,-0.2 -0.9,-0.2 -1.5,-0.5 -1.9,-0.8 z"
   id="path71" />
	<path
   class="st0"
   d="m 1211.5,163.7 v 4.5 c 5.2,0.1 8.3,0.5 9.5,1.2 0.6,0.3 1,0.9 1,1.8 0,0.6 -0.1,1.4 -0.3,2.2 -0.8,3.1 -2.4,7.6 -4.8,13.5 -4.1,10.2 -6.3,15.7 -6.8,16.7 l -7.4,16.9 c -0.9,-2 -2.6,-5.9 -5,-11.8 l -2.2,-5.1 -9.1,-22.6 c -2,-4.9 -3,-8.1 -3,-9.6 0,-0.9 0.5,-1.7 1.4,-2.2 0.9,-0.5 4.1,-0.9 9.4,-1 v -4.5 c -7.2,0.3 -12.9,0.5 -17.1,0.5 -3.8,0 -9.8,-0.2 -18,-0.5 v 4.5 c 3,0.1 4.8,0.2 5.5,0.4 0.8,0.2 1.6,0.7 2.3,1.4 0.7,0.7 1.5,2.2 2.5,4.5 l 15.2,35.5 6.1,14.2 c 0.7,1.7 2.1,5.1 4,10.2 h 7.7 c 7.3,-17.5 11.6,-27.5 12.9,-30.3 l 7.1,-15.2 c 4.7,-9.5 7.3,-14.9 8,-16.1 1,-1.8 2,-3 3,-3.5 1,-0.6 3.1,-0.9 6.1,-1.1 v -4.5 c -7.7,0.3 -12.5,0.5 -14.2,0.5 -1.7,0 -6.4,-0.1 -13.8,-0.5 z"
   id="path73" />
	<path
   class="st0"
   d="m 1292.1,165.4 c -4.5,-2.5 -9.5,-3.8 -15.1,-3.8 -4.6,0 -8.8,0.8 -12.7,2.5 -3,1.2 -6,2.8 -9,4.9 -3,2.1 -5.3,3.9 -6.7,5.5 -2,2.2 -3.8,5.6 -5.3,10.2 -1.6,4.6 -2.3,9.7 -2.3,15.4 0,7.3 1.5,13.6 4.4,19.1 2.9,5.4 7.1,9.5 12.3,12.2 5.3,2.7 11.2,4.1 17.8,4.1 3.3,0 6.5,-0.4 9.5,-1.1 3,-0.7 5.7,-1.6 8,-2.6 1.6,-0.7 4.1,-2.1 7.5,-4.2 l 2.4,-5.4 -1.2,-1.3 c -4.4,2.6 -8.1,4.4 -11.1,5.3 -3,1 -6,1.4 -9,1.4 -4.5,0 -8.8,-1 -12.9,-3.1 -4.1,-2.1 -7.4,-5.3 -9.7,-9.7 -2.4,-4.4 -3.6,-10.1 -3.7,-17.2 h 23.9 c 5.4,0 10.7,-0.2 16.1,-0.6 2.8,-0.2 6,-0.6 9.6,-1.3 0.2,-2 0.3,-3.7 0.3,-5.1 0,-5.5 -1,-10.4 -3.1,-14.8 -2.2,-4.4 -5.5,-7.8 -10,-10.4 z m -0.7,26.7 c -2.1,0.2 -6.4,0.4 -13,0.4 -2.8,0 -7.9,-0.1 -15.3,-0.4 -3.9,-0.1 -6.5,-0.3 -7.9,-0.4 0,-8.7 1.8,-15 5.2,-19 3.4,-4 7.9,-6 13.6,-6 5.3,0 9.6,1.8 12.7,5.5 3.2,3.7 4.8,9.4 4.8,17.2 0,0.6 0,1.5 -0.1,2.7 z"
   id="path75" />
	<path
   class="st0"
   d="m 1357.8,162 c -2.1,0 -4.1,0.4 -6,1.2 -1.9,0.8 -3.6,1.8 -5.1,3.1 -0.8,0.7 -2.2,2.4 -4.1,4.9 -1.9,2.5 -3.9,5.1 -6.2,7.7 0,-6.3 0.2,-11 0.4,-14.1 0,-0.4 0.1,-0.8 0.1,-1.2 0,-0.5 -0.1,-0.9 -0.3,-1.1 -0.2,-0.2 -0.5,-0.4 -0.8,-0.4 -0.3,0 -1,0.2 -2,0.7 -4.6,2.2 -11.9,4 -21.9,5.4 v 4.2 c 5.7,0 8.9,0.1 9.7,0.3 0.8,0.3 1.4,0.7 1.7,1.2 0.3,0.5 0.5,2.3 0.6,5.2 0.1,4.6 0.2,8.8 0.2,12.8 v 8.9 c 0,0.6 -0.1,7.5 -0.4,20.8 -0.1,2.4 -0.4,4.2 -0.9,5.4 -0.2,0.6 -0.6,1.1 -1,1.4 -0.4,0.3 -1.1,0.6 -1.9,0.7 -0.4,0.1 -3.5,0.2 -9.1,0.3 v 4.2 c 6,-0.3 12.1,-0.5 18.4,-0.5 6.1,0 13.6,0.2 22.3,0.5 v -4.2 c -6.5,-0.4 -10.6,-0.9 -12.1,-1.3 -0.7,-0.2 -1.3,-0.6 -1.6,-0.9 -0.3,-0.4 -0.6,-1 -0.8,-1.8 -0.2,-0.8 -0.3,-2.8 -0.4,-5.9 -0.2,-8.7 -0.4,-14.7 -0.4,-17.9 v -7.7 c 0,-6.3 1.3,-11 4,-14.2 2.7,-3.1 5.9,-4.7 9.7,-4.7 2.3,0 4.2,0.5 5.7,1.6 1.5,1.1 2.8,2.8 4,5.2 h 3.3 c 0.1,-5 0.5,-10.8 1.3,-17.4 l -0.4,-1 c -1.9,-0.9 -4,-1.4 -6,-1.4 z"
   id="path77" />
	<path
   class="st0"
   d="m 1413.6,196.7 c -2.4,-1.1 -6.7,-2.5 -12.9,-4.1 l -12.3,-3 c -2.3,-0.7 -4.1,-1.5 -5.4,-2.3 -1.3,-0.9 -2.3,-2 -3.1,-3.4 -0.8,-1.4 -1.2,-3 -1.2,-5 0,-3.5 1.3,-6.5 4,-9.1 2.7,-2.6 6.2,-3.9 10.5,-3.9 3.1,0 5.7,0.4 7.8,1.2 2.1,0.8 3.8,1.7 5.2,2.7 1.3,1 2.3,2 2.8,2.9 0.5,0.9 1,1.9 1.3,3 0.3,1.1 0.6,3.5 0.9,7.1 h 4.2 c 0.1,-5.7 0.4,-11.3 0.7,-16.8 -2.6,-1.3 -5.9,-2.4 -10,-3.2 -4.1,-0.9 -7.7,-1.3 -10.9,-1.3 -5.2,0 -10,1 -14.4,3.1 -4.4,2.1 -7.6,4.7 -9.7,8 -2.1,3.3 -3.1,6.9 -3.1,10.8 0,2.7 0.5,5.2 1.4,7.4 1,2.3 2.3,4.2 3.9,5.7 1.6,1.5 3.8,2.8 6.6,3.8 1.8,0.6 5.9,1.7 12.2,3.1 6.3,1.4 10.4,2.6 12.3,3.5 1.9,0.9 3.4,2.1 4.4,3.7 1,1.6 1.5,3.4 1.5,5.5 0,4.7 -1.6,8.3 -4.9,11 -3.2,2.7 -7.4,4 -12.5,4 -3.1,0 -5.4,-0.1 -6.9,-0.3 -1.5,-0.2 -3,-0.6 -4.5,-1.2 -1.5,-0.6 -2.8,-1.5 -4.1,-2.6 -1.2,-1.1 -2.2,-2.5 -2.8,-4.1 -0.6,-1.6 -1,-3.3 -1.3,-4.9 -0.2,-1.7 -0.4,-4 -0.4,-6.8 h -4.5 c -0.1,6.4 -0.2,10.7 -0.4,12.7 -0.1,2 -0.4,4.1 -0.9,6.2 -0.1,0.5 -0.1,0.9 -0.1,1.3 0,0.3 0.1,0.6 0.3,0.7 0.3,0.3 2.4,0.8 6.3,1.6 7.1,1.3 12.8,1.9 17,1.9 9.3,0 16.7,-2.5 22.2,-7.5 5.5,-5 8.3,-10.8 8.3,-17.5 0,-3.4 -0.7,-6.3 -2.2,-8.7 -1,-2.3 -2.9,-4.1 -5.3,-5.2 z"
   id="path79" />
	<path
   class="st0"
   d="m 1447.9,145.6 c 2.3,0 4.2,-0.8 5.9,-2.5 1.7,-1.7 2.5,-3.6 2.5,-5.9 0,-2.3 -0.8,-4.3 -2.4,-6 -1.6,-1.6 -3.6,-2.5 -5.9,-2.5 -2.3,0 -4.3,0.8 -6,2.5 -1.6,1.6 -2.5,3.6 -2.5,6 0,2.3 0.8,4.2 2.5,5.9 1.5,1.7 3.5,2.5 5.9,2.5 z"
   id="path81" />
	<path
   class="st0"
   d="m 1457.2,228.5 c -0.4,-0.3 -0.7,-0.7 -1,-1.2 -0.5,-1.1 -0.8,-2.9 -0.8,-5.4 0,-1 -0.2,-8 -0.4,-20.9 v -13.5 c 0,-5.6 0.2,-13.7 0.6,-24.2 l -1.6,-1.2 c -6.5,3.1 -14.6,5.2 -24.2,6.2 v 4.2 c 5.9,0 9.2,0.2 9.9,0.6 0.8,0.4 1.3,0.9 1.6,1.7 0.5,1.4 0.7,5.8 0.7,13.2 v 13 c -0.3,13.6 -0.4,20.7 -0.4,21.3 -0.1,2.5 -0.5,4.3 -1,5.3 -0.3,0.5 -0.7,0.9 -1.3,1.2 -0.6,0.3 -1.4,0.5 -2.4,0.6 l -7.1,0.1 v 4.2 c 9,-0.3 15.5,-0.5 19.5,-0.5 4.5,0 10.5,0.2 18.1,0.5 v -4.2 c -5.2,-0.1 -8,-0.2 -8.3,-0.2 -0.9,-0.2 -1.5,-0.5 -1.9,-0.8 z"
   id="path83" />
	<path
   class="st0"
   d="m 1494.1,174.6 c 4.7,0 8.3,-0.1 10.9,-0.1 2.6,0 5.5,0 8.6,0.1 l 1.6,-6.9 -0.5,-0.5 c -1.3,0.1 -3.2,0.2 -5.8,0.3 -4.7,0.1 -7.2,0.1 -7.7,0.1 -0.8,0 -3.2,0 -7.1,-0.1 0.6,-14 1.2,-23.1 1.8,-27.2 l -1.8,-1.5 c -3.2,2 -7.4,3.9 -12.6,5.7 0.3,3.3 0.4,10.8 0.4,22.6 -2.9,1.5 -6.9,3.2 -11.8,5.1 v 3.1 c 3.1,-0.2 5.9,-0.4 8.3,-0.4 h 3 v 30.9 c 0,0.9 0,1.8 -0.1,2.6 -0.1,4 -0.2,7.7 -0.3,11.1 0.2,3.5 0.8,6.1 1.6,7.7 0.8,1.6 1.9,3 3.2,4.1 1.3,1.1 2.7,1.9 4.3,2.5 1.6,0.6 3.7,0.9 6.3,0.9 2.1,0 4,-0.1 5.7,-0.3 1.6,-0.2 3.4,-0.7 5.3,-1.4 2.2,-2 4.4,-3.9 6.8,-5.7 l -0.9,-2.9 c -1.9,0.7 -3.5,1.1 -4.8,1.3 -1.3,0.2 -2.9,0.3 -4.9,0.3 -2.7,-0.3 -4.6,-0.8 -5.7,-1.5 -1.1,-0.6 -2,-1.5 -2.7,-2.6 -0.7,-1.1 -1.2,-2.3 -1.4,-3.8 -0.2,-1.4 -0.3,-5.9 -0.1,-13.2 z"
   id="path85" />
	<path
   class="st0"
   d="m 1585.5,164.2 c -4.4,0 -9.5,-0.2 -15.2,-0.5 v 4.5 c 5.2,0.5 8.2,1 9,1.5 0.8,0.5 1.2,1.3 1.2,2.2 0,0.6 -0.1,1.3 -0.3,2.1 -0.6,2.3 -2.9,8.3 -6.8,18 -3.9,9.7 -6.6,16.3 -8.1,19.8 l -3.9,8.8 c -1.9,-4.3 -4.3,-9.9 -7.1,-16.9 l -4.7,-11.6 c -1.7,-4.3 -3.6,-9.5 -5.5,-15.6 -0.8,-2.5 -1.3,-4.1 -1.3,-4.9 0,-1.3 0.6,-2.2 1.9,-2.7 0.7,-0.3 3.7,-0.6 8.8,-1 v -4.2 c -5.4,0.3 -11,0.5 -16.9,0.5 -6,0 -12.1,-0.2 -18.2,-0.5 v 4.2 c 3.5,0.4 5.8,0.9 6.8,1.5 1,0.6 2,1.8 2.9,3.7 2.2,4.7 5.1,11.3 8.6,20.1 l 11.8,29.3 c 2.2,5.6 4.1,10.6 5.7,15 -2.1,5.5 -4.4,10.9 -7.1,16.2 -1.7,3.5 -3.2,6 -4.5,7.4 -1.3,1.4 -2.6,2.5 -4.1,3.2 -1.5,0.7 -3,1 -4.5,1 -1.5,0 -2.6,-0.1 -3.4,-0.4 -0.8,-0.2 -1.5,-0.6 -2.2,-1.1 -0.7,-0.5 -1.5,-1.1 -2.4,-1.9 h -1.8 l -3.8,11.5 c 1.6,0.9 3.1,1.5 4.4,1.9 1.3,0.4 2.8,0.6 4.4,0.6 3.4,0 6.5,-0.7 9.3,-2.2 2.8,-1.4 5.3,-3.5 7.3,-6.3 2,-2.8 4.4,-7.4 7.2,-13.9 l 17.2,-40.1 c 7.6,-16.6 12.8,-27.8 15.6,-33.5 2.8,-5.7 4.9,-9 6.3,-10 1.4,-1 3.3,-1.5 5.9,-1.6 l 0.7,-4.5 c -4.4,0.3 -8.8,0.4 -13.2,0.4 z"
   id="path87" />
</g>
</svg>
