<?xml version="1.0" encoding="utf-8" standalone="no"?>
<!DOCTYPE svg PUBLIC "-//W3C//DTD SVG 1.1//EN"
  "http://www.w3.org/Graphics/SVG/1.1/DTD/svg11.dtd">
<!-- Created with matplotlib (https://matplotlib.org/) -->
<svg height="264.131875pt" version="1.1" viewBox="0 0 569.303437 264.131875" width="569.303437pt" xmlns="http://www.w3.org/2000/svg" xmlns:xlink="http://www.w3.org/1999/xlink">
 <defs>
  <style type="text/css">
*{stroke-linecap:butt;stroke-linejoin:round;}
  </style>
 </defs>
 <g id="figure_1">
  <g id="patch_1">
   <path d="M 0 264.131875 
L 569.303437 264.131875 
L 569.303437 0 
L 0 0 
z
" style="fill:none;"/>
  </g>
  <g id="axes_1">
   <g id="patch_2">
    <path d="M 59.903438 224.64 
L 562.103438 224.64 
L 562.103438 7.2 
L 59.903438 7.2 
z
" style="fill:#ffffff;"/>
   </g>
   <g id="PolyCollection_1">
    <defs>
     <path d="M 82.73071 -116.40579 
L 82.73071 -98.349507 
L 92.047964 -98.349507 
L 101.365219 -98.349507 
L 110.682473 -98.33843 
L 119.999727 -98.328282 
L 129.316981 -98.324802 
L 138.634235 -98.324802 
L 147.951489 -98.328282 
L 157.268744 -98.324802 
L 166.585998 -201.051016 
L 175.903252 -201.051016 
L 185.220506 -201.051016 
L 194.53776 -201.051016 
L 203.855014 -201.051016 
L 213.172269 -201.051016 
L 222.489523 -201.051016 
L 231.806777 -201.051016 
L 241.124031 -201.051016 
L 250.441285 -201.051016 
L 259.75854 -201.051016 
L 269.075794 -201.051016 
L 278.393048 -201.051016 
L 287.710302 -80.863456 
L 297.027556 -80.892625 
L 306.34481 -80.892625 
L 315.662065 -80.892625 
L 324.979319 -80.892625 
L 334.296573 -80.890195 
L 343.613827 -80.752557 
L 352.931081 -80.655789 
L 362.248335 -80.647354 
L 371.56559 -80.439771 
L 380.882844 -80.093415 
L 390.200098 -79.865364 
L 399.517352 -76.552029 
L 408.834606 -75.636979 
L 418.151861 -73.866548 
L 427.469115 -136.714502 
L 436.786369 -136.714502 
L 446.103623 -136.714502 
L 455.420877 -136.714502 
L 464.738131 -136.714502 
L 474.055386 -136.714502 
L 483.37264 -136.714502 
L 492.689894 -136.714502 
L 502.007148 -136.714502 
L 511.324402 -136.714502 
L 520.641656 -136.714502 
L 529.958911 -136.714502 
L 539.276165 -136.714502 
L 539.276165 -156.527012 
L 539.276165 -156.527012 
L 529.958911 -156.527012 
L 520.641656 -156.527012 
L 511.324402 -156.527012 
L 502.007148 -156.527012 
L 492.689894 -156.527012 
L 483.37264 -156.527012 
L 474.055386 -156.527012 
L 464.738131 -156.527012 
L 455.420877 -156.527012 
L 446.103623 -156.527012 
L 436.786369 -156.527012 
L 427.469115 -156.527012 
L 418.151861 -101.952772 
L 408.834606 -101.952772 
L 399.517352 -101.952772 
L 390.200098 -101.952772 
L 380.882844 -101.952772 
L 371.56559 -101.952772 
L 362.248335 -101.952772 
L 352.931081 -101.952772 
L 343.613827 -101.952772 
L 334.296573 -101.952772 
L 324.979319 -101.952772 
L 315.662065 -101.952772 
L 306.34481 -101.952772 
L 297.027556 -101.952772 
L 287.710302 -101.952772 
L 278.393048 -219.070985 
L 269.075794 -219.039142 
L 259.75854 -219.039142 
L 250.441285 -219.028011 
L 241.124031 -218.848719 
L 231.806777 -218.732115 
L 222.489523 -218.644901 
L 213.172269 -218.644901 
L 203.855014 -218.644901 
L 194.53776 -218.580264 
L 185.220506 -218.580264 
L 175.903252 -218.595123 
L 166.585998 -218.578816 
L 157.268744 -116.40579 
L 147.951489 -116.40579 
L 138.634235 -116.40579 
L 129.316981 -116.40579 
L 119.999727 -116.40579 
L 110.682473 -116.40579 
L 101.365219 -116.40579 
L 92.047964 -116.40579 
L 82.73071 -116.40579 
z
" id="m0e41438d37" style="stroke:#ffa500;stroke-opacity:0.2;"/>
    </defs>
    <g clip-path="url(#p70332fd9ce)">
     <use style="fill:#ffa500;fill-opacity:0.2;stroke:#ffa500;stroke-opacity:0.2;" x="0" xlink:href="#m0e41438d37" y="264.131875"/>
    </g>
   </g>
   <g id="matplotlib.axis_1">
    <g id="xtick_1">
     <g id="line2d_1">
      <defs>
       <path d="M 0 0 
L 0 3.5 
" id="m56589323b0" style="stroke:#000000;stroke-width:0.8;"/>
      </defs>
      <g>
       <use style="stroke:#000000;stroke-width:0.8;" x="82.73071" xlink:href="#m56589323b0" y="224.64"/>
      </g>
     </g>
     <g id="text_1">
      <!-- 0 -->
      <defs>
       <path d="M 31.78125 66.40625 
Q 24.171875 66.40625 20.328125 58.90625 
Q 16.5 51.421875 16.5 36.375 
Q 16.5 21.390625 20.328125 13.890625 
Q 24.171875 6.390625 31.78125 6.390625 
Q 39.453125 6.390625 43.28125 13.890625 
Q 47.125 21.390625 47.125 36.375 
Q 47.125 51.421875 43.28125 58.90625 
Q 39.453125 66.40625 31.78125 66.40625 
z
M 31.78125 74.21875 
Q 44.046875 74.21875 50.515625 64.515625 
Q 56.984375 54.828125 56.984375 36.375 
Q 56.984375 17.96875 50.515625 8.265625 
Q 44.046875 -1.421875 31.78125 -1.421875 
Q 19.53125 -1.421875 13.0625 8.265625 
Q 6.59375 17.96875 6.59375 36.375 
Q 6.59375 54.828125 13.0625 64.515625 
Q 19.53125 74.21875 31.78125 74.21875 
z
" id="DejaVuSans-48"/>
      </defs>
      <g transform="translate(79.54946 239.238438)scale(0.1 -0.1)">
       <use xlink:href="#DejaVuSans-48"/>
      </g>
     </g>
    </g>
    <g id="xtick_2">
     <g id="line2d_2">
      <g>
       <use style="stroke:#000000;stroke-width:0.8;" x="175.903252" xlink:href="#m56589323b0" y="224.64"/>
      </g>
     </g>
     <g id="text_2">
      <!-- 10 -->
      <defs>
       <path d="M 12.40625 8.296875 
L 28.515625 8.296875 
L 28.515625 63.921875 
L 10.984375 60.40625 
L 10.984375 69.390625 
L 28.421875 72.90625 
L 38.28125 72.90625 
L 38.28125 8.296875 
L 54.390625 8.296875 
L 54.390625 0 
L 12.40625 0 
z
" id="DejaVuSans-49"/>
      </defs>
      <g transform="translate(169.540752 239.238438)scale(0.1 -0.1)">
       <use xlink:href="#DejaVuSans-49"/>
       <use x="63.623047" xlink:href="#DejaVuSans-48"/>
      </g>
     </g>
    </g>
    <g id="xtick_3">
     <g id="line2d_3">
      <g>
       <use style="stroke:#000000;stroke-width:0.8;" x="269.075794" xlink:href="#m56589323b0" y="224.64"/>
      </g>
     </g>
     <g id="text_3">
      <!-- 20 -->
      <defs>
       <path d="M 19.1875 8.296875 
L 53.609375 8.296875 
L 53.609375 0 
L 7.328125 0 
L 7.328125 8.296875 
Q 12.9375 14.109375 22.625 23.890625 
Q 32.328125 33.6875 34.8125 36.53125 
Q 39.546875 41.84375 41.421875 45.53125 
Q 43.3125 49.21875 43.3125 52.78125 
Q 43.3125 58.59375 39.234375 62.25 
Q 35.15625 65.921875 28.609375 65.921875 
Q 23.96875 65.921875 18.8125 64.3125 
Q 13.671875 62.703125 7.8125 59.421875 
L 7.8125 69.390625 
Q 13.765625 71.78125 18.9375 73 
Q 24.125 74.21875 28.421875 74.21875 
Q 39.75 74.21875 46.484375 68.546875 
Q 53.21875 62.890625 53.21875 53.421875 
Q 53.21875 48.921875 51.53125 44.890625 
Q 49.859375 40.875 45.40625 35.40625 
Q 44.1875 33.984375 37.640625 27.21875 
Q 31.109375 20.453125 19.1875 8.296875 
z
" id="DejaVuSans-50"/>
      </defs>
      <g transform="translate(262.713294 239.238438)scale(0.1 -0.1)">
       <use xlink:href="#DejaVuSans-50"/>
       <use x="63.623047" xlink:href="#DejaVuSans-48"/>
      </g>
     </g>
    </g>
    <g id="xtick_4">
     <g id="line2d_4">
      <g>
       <use style="stroke:#000000;stroke-width:0.8;" x="362.248335" xlink:href="#m56589323b0" y="224.64"/>
      </g>
     </g>
     <g id="text_4">
      <!-- 30 -->
      <defs>
       <path d="M 40.578125 39.3125 
Q 47.65625 37.796875 51.625 33 
Q 55.609375 28.21875 55.609375 21.1875 
Q 55.609375 10.40625 48.1875 4.484375 
Q 40.765625 -1.421875 27.09375 -1.421875 
Q 22.515625 -1.421875 17.65625 -0.515625 
Q 12.796875 0.390625 7.625 2.203125 
L 7.625 11.71875 
Q 11.71875 9.328125 16.59375 8.109375 
Q 21.484375 6.890625 26.8125 6.890625 
Q 36.078125 6.890625 40.9375 10.546875 
Q 45.796875 14.203125 45.796875 21.1875 
Q 45.796875 27.640625 41.28125 31.265625 
Q 36.765625 34.90625 28.71875 34.90625 
L 20.21875 34.90625 
L 20.21875 43.015625 
L 29.109375 43.015625 
Q 36.375 43.015625 40.234375 45.921875 
Q 44.09375 48.828125 44.09375 54.296875 
Q 44.09375 59.90625 40.109375 62.90625 
Q 36.140625 65.921875 28.71875 65.921875 
Q 24.65625 65.921875 20.015625 65.03125 
Q 15.375 64.15625 9.8125 62.3125 
L 9.8125 71.09375 
Q 15.4375 72.65625 20.34375 73.4375 
Q 25.25 74.21875 29.59375 74.21875 
Q 40.828125 74.21875 47.359375 69.109375 
Q 53.90625 64.015625 53.90625 55.328125 
Q 53.90625 49.265625 50.4375 45.09375 
Q 46.96875 40.921875 40.578125 39.3125 
z
" id="DejaVuSans-51"/>
      </defs>
      <g transform="translate(355.885835 239.238438)scale(0.1 -0.1)">
       <use xlink:href="#DejaVuSans-51"/>
       <use x="63.623047" xlink:href="#DejaVuSans-48"/>
      </g>
     </g>
    </g>
    <g id="xtick_5">
     <g id="line2d_5">
      <g>
       <use style="stroke:#000000;stroke-width:0.8;" x="455.420877" xlink:href="#m56589323b0" y="224.64"/>
      </g>
     </g>
     <g id="text_5">
      <!-- 40 -->
      <defs>
       <path d="M 37.796875 64.3125 
L 12.890625 25.390625 
L 37.796875 25.390625 
z
M 35.203125 72.90625 
L 47.609375 72.90625 
L 47.609375 25.390625 
L 58.015625 25.390625 
L 58.015625 17.1875 
L 47.609375 17.1875 
L 47.609375 0 
L 37.796875 0 
L 37.796875 17.1875 
L 4.890625 17.1875 
L 4.890625 26.703125 
z
" id="DejaVuSans-52"/>
      </defs>
      <g transform="translate(449.058377 239.238438)scale(0.1 -0.1)">
       <use xlink:href="#DejaVuSans-52"/>
       <use x="63.623047" xlink:href="#DejaVuSans-48"/>
      </g>
     </g>
    </g>
    <g id="xtick_6">
     <g id="line2d_6">
      <g>
       <use style="stroke:#000000;stroke-width:0.8;" x="548.593419" xlink:href="#m56589323b0" y="224.64"/>
      </g>
     </g>
     <g id="text_6">
      <!-- 50 -->
      <defs>
       <path d="M 10.796875 72.90625 
L 49.515625 72.90625 
L 49.515625 64.59375 
L 19.828125 64.59375 
L 19.828125 46.734375 
Q 21.96875 47.46875 24.109375 47.828125 
Q 26.265625 48.1875 28.421875 48.1875 
Q 40.625 48.1875 47.75 41.5 
Q 54.890625 34.8125 54.890625 23.390625 
Q 54.890625 11.625 47.5625 5.09375 
Q 40.234375 -1.421875 26.90625 -1.421875 
Q 22.3125 -1.421875 17.546875 -0.640625 
Q 12.796875 0.140625 7.71875 1.703125 
L 7.71875 11.625 
Q 12.109375 9.234375 16.796875 8.0625 
Q 21.484375 6.890625 26.703125 6.890625 
Q 35.15625 6.890625 40.078125 11.328125 
Q 45.015625 15.765625 45.015625 23.390625 
Q 45.015625 31 40.078125 35.4375 
Q 35.15625 39.890625 26.703125 39.890625 
Q 22.75 39.890625 18.8125 39.015625 
Q 14.890625 38.140625 10.796875 36.28125 
z
" id="DejaVuSans-53"/>
      </defs>
      <g transform="translate(542.230919 239.238438)scale(0.1 -0.1)">
       <use xlink:href="#DejaVuSans-53"/>
       <use x="63.623047" xlink:href="#DejaVuSans-48"/>
      </g>
     </g>
    </g>
    <g id="text_7">
     <!-- Timestep -->
     <defs>
      <path d="M -0.296875 72.90625 
L 61.375 72.90625 
L 61.375 64.59375 
L 35.5 64.59375 
L 35.5 0 
L 25.59375 0 
L 25.59375 64.59375 
L -0.296875 64.59375 
z
" id="DejaVuSans-84"/>
      <path d="M 9.421875 54.6875 
L 18.40625 54.6875 
L 18.40625 0 
L 9.421875 0 
z
M 9.421875 75.984375 
L 18.40625 75.984375 
L 18.40625 64.59375 
L 9.421875 64.59375 
z
" id="DejaVuSans-105"/>
      <path d="M 52 44.1875 
Q 55.375 50.25 60.0625 53.125 
Q 64.75 56 71.09375 56 
Q 79.640625 56 84.28125 50.015625 
Q 88.921875 44.046875 88.921875 33.015625 
L 88.921875 0 
L 79.890625 0 
L 79.890625 32.71875 
Q 79.890625 40.578125 77.09375 44.375 
Q 74.3125 48.1875 68.609375 48.1875 
Q 61.625 48.1875 57.5625 43.546875 
Q 53.515625 38.921875 53.515625 30.90625 
L 53.515625 0 
L 44.484375 0 
L 44.484375 32.71875 
Q 44.484375 40.625 41.703125 44.40625 
Q 38.921875 48.1875 33.109375 48.1875 
Q 26.21875 48.1875 22.15625 43.53125 
Q 18.109375 38.875 18.109375 30.90625 
L 18.109375 0 
L 9.078125 0 
L 9.078125 54.6875 
L 18.109375 54.6875 
L 18.109375 46.1875 
Q 21.1875 51.21875 25.484375 53.609375 
Q 29.78125 56 35.6875 56 
Q 41.65625 56 45.828125 52.96875 
Q 50 49.953125 52 44.1875 
z
" id="DejaVuSans-109"/>
      <path d="M 56.203125 29.59375 
L 56.203125 25.203125 
L 14.890625 25.203125 
Q 15.484375 15.921875 20.484375 11.0625 
Q 25.484375 6.203125 34.421875 6.203125 
Q 39.59375 6.203125 44.453125 7.46875 
Q 49.3125 8.734375 54.109375 11.28125 
L 54.109375 2.78125 
Q 49.265625 0.734375 44.1875 -0.34375 
Q 39.109375 -1.421875 33.890625 -1.421875 
Q 20.796875 -1.421875 13.15625 6.1875 
Q 5.515625 13.8125 5.515625 26.8125 
Q 5.515625 40.234375 12.765625 48.109375 
Q 20.015625 56 32.328125 56 
Q 43.359375 56 49.78125 48.890625 
Q 56.203125 41.796875 56.203125 29.59375 
z
M 47.21875 32.234375 
Q 47.125 39.59375 43.09375 43.984375 
Q 39.0625 48.390625 32.421875 48.390625 
Q 24.90625 48.390625 20.390625 44.140625 
Q 15.875 39.890625 15.1875 32.171875 
z
" id="DejaVuSans-101"/>
      <path d="M 44.28125 53.078125 
L 44.28125 44.578125 
Q 40.484375 46.53125 36.375 47.5 
Q 32.28125 48.484375 27.875 48.484375 
Q 21.1875 48.484375 17.84375 46.4375 
Q 14.5 44.390625 14.5 40.28125 
Q 14.5 37.15625 16.890625 35.375 
Q 19.28125 33.59375 26.515625 31.984375 
L 29.59375 31.296875 
Q 39.15625 29.25 43.1875 25.515625 
Q 47.21875 21.78125 47.21875 15.09375 
Q 47.21875 7.46875 41.1875 3.015625 
Q 35.15625 -1.421875 24.609375 -1.421875 
Q 20.21875 -1.421875 15.453125 -0.5625 
Q 10.6875 0.296875 5.421875 2 
L 5.421875 11.28125 
Q 10.40625 8.6875 15.234375 7.390625 
Q 20.0625 6.109375 24.8125 6.109375 
Q 31.15625 6.109375 34.5625 8.28125 
Q 37.984375 10.453125 37.984375 14.40625 
Q 37.984375 18.0625 35.515625 20.015625 
Q 33.0625 21.96875 24.703125 23.78125 
L 21.578125 24.515625 
Q 13.234375 26.265625 9.515625 29.90625 
Q 5.8125 33.546875 5.8125 39.890625 
Q 5.8125 47.609375 11.28125 51.796875 
Q 16.75 56 26.8125 56 
Q 31.78125 56 36.171875 55.265625 
Q 40.578125 54.546875 44.28125 53.078125 
z
" id="DejaVuSans-115"/>
      <path d="M 18.3125 70.21875 
L 18.3125 54.6875 
L 36.8125 54.6875 
L 36.8125 47.703125 
L 18.3125 47.703125 
L 18.3125 18.015625 
Q 18.3125 11.328125 20.140625 9.421875 
Q 21.96875 7.515625 27.59375 7.515625 
L 36.8125 7.515625 
L 36.8125 0 
L 27.59375 0 
Q 17.1875 0 13.234375 3.875 
Q 9.28125 7.765625 9.28125 18.015625 
L 9.28125 47.703125 
L 2.6875 47.703125 
L 2.6875 54.6875 
L 9.28125 54.6875 
L 9.28125 70.21875 
z
" id="DejaVuSans-116"/>
      <path d="M 18.109375 8.203125 
L 18.109375 -20.796875 
L 9.078125 -20.796875 
L 9.078125 54.6875 
L 18.109375 54.6875 
L 18.109375 46.390625 
Q 20.953125 51.265625 25.265625 53.625 
Q 29.59375 56 35.59375 56 
Q 45.5625 56 51.78125 48.09375 
Q 58.015625 40.1875 58.015625 27.296875 
Q 58.015625 14.40625 51.78125 6.484375 
Q 45.5625 -1.421875 35.59375 -1.421875 
Q 29.59375 -1.421875 25.265625 0.953125 
Q 20.953125 3.328125 18.109375 8.203125 
z
M 48.6875 27.296875 
Q 48.6875 37.203125 44.609375 42.84375 
Q 40.53125 48.484375 33.40625 48.484375 
Q 26.265625 48.484375 22.1875 42.84375 
Q 18.109375 37.203125 18.109375 27.296875 
Q 18.109375 17.390625 22.1875 11.75 
Q 26.265625 6.109375 33.40625 6.109375 
Q 40.53125 6.109375 44.609375 11.75 
Q 48.6875 17.390625 48.6875 27.296875 
z
" id="DejaVuSans-112"/>
     </defs>
     <g transform="translate(283.344375 254.43625)scale(0.12 -0.12)">
      <use xlink:href="#DejaVuSans-84"/>
      <use x="57.958984" xlink:href="#DejaVuSans-105"/>
      <use x="85.742188" xlink:href="#DejaVuSans-109"/>
      <use x="183.154297" xlink:href="#DejaVuSans-101"/>
      <use x="244.677734" xlink:href="#DejaVuSans-115"/>
      <use x="296.777344" xlink:href="#DejaVuSans-116"/>
      <use x="335.986328" xlink:href="#DejaVuSans-101"/>
      <use x="397.509766" xlink:href="#DejaVuSans-112"/>
     </g>
    </g>
   </g>
   <g id="matplotlib.axis_2">
    <g id="ytick_1">
     <g id="line2d_7">
      <defs>
       <path d="M 0 0 
L -3.5 0 
" id="m44c506759d" style="stroke:#000000;stroke-width:0.8;"/>
      </defs>
      <g>
       <use style="stroke:#000000;stroke-width:0.8;" x="59.903438" xlink:href="#m44c506759d" y="211.231793"/>
      </g>
     </g>
     <g id="text_8">
      <!-- −0.6 -->
      <defs>
       <path d="M 10.59375 35.5 
L 73.1875 35.5 
L 73.1875 27.203125 
L 10.59375 27.203125 
z
" id="DejaVuSans-8722"/>
       <path d="M 10.6875 12.40625 
L 21 12.40625 
L 21 0 
L 10.6875 0 
z
" id="DejaVuSans-46"/>
       <path d="M 33.015625 40.375 
Q 26.375 40.375 22.484375 35.828125 
Q 18.609375 31.296875 18.609375 23.390625 
Q 18.609375 15.53125 22.484375 10.953125 
Q 26.375 6.390625 33.015625 6.390625 
Q 39.65625 6.390625 43.53125 10.953125 
Q 47.40625 15.53125 47.40625 23.390625 
Q 47.40625 31.296875 43.53125 35.828125 
Q 39.65625 40.375 33.015625 40.375 
z
M 52.59375 71.296875 
L 52.59375 62.3125 
Q 48.875 64.0625 45.09375 64.984375 
Q 41.3125 65.921875 37.59375 65.921875 
Q 27.828125 65.921875 22.671875 59.328125 
Q 17.53125 52.734375 16.796875 39.40625 
Q 19.671875 43.65625 24.015625 45.921875 
Q 28.375 48.1875 33.59375 48.1875 
Q 44.578125 48.1875 50.953125 41.515625 
Q 57.328125 34.859375 57.328125 23.390625 
Q 57.328125 12.15625 50.6875 5.359375 
Q 44.046875 -1.421875 33.015625 -1.421875 
Q 20.359375 -1.421875 13.671875 8.265625 
Q 6.984375 17.96875 6.984375 36.375 
Q 6.984375 53.65625 15.1875 63.9375 
Q 23.390625 74.21875 37.203125 74.21875 
Q 40.921875 74.21875 44.703125 73.484375 
Q 48.484375 72.75 52.59375 71.296875 
z
" id="DejaVuSans-54"/>
      </defs>
      <g transform="translate(28.620625 215.031012)scale(0.1 -0.1)">
       <use xlink:href="#DejaVuSans-8722"/>
       <use x="83.789062" xlink:href="#DejaVuSans-48"/>
       <use x="147.412109" xlink:href="#DejaVuSans-46"/>
       <use x="179.199219" xlink:href="#DejaVuSans-54"/>
      </g>
     </g>
    </g>
    <g id="ytick_2">
     <g id="line2d_8">
      <g>
       <use style="stroke:#000000;stroke-width:0.8;" x="59.903438" xlink:href="#m44c506759d" y="181.458294"/>
      </g>
     </g>
     <g id="text_9">
      <!-- −0.4 -->
      <g transform="translate(28.620625 185.257512)scale(0.1 -0.1)">
       <use xlink:href="#DejaVuSans-8722"/>
       <use x="83.789062" xlink:href="#DejaVuSans-48"/>
       <use x="147.412109" xlink:href="#DejaVuSans-46"/>
       <use x="179.199219" xlink:href="#DejaVuSans-52"/>
      </g>
     </g>
    </g>
    <g id="ytick_3">
     <g id="line2d_9">
      <g>
       <use style="stroke:#000000;stroke-width:0.8;" x="59.903438" xlink:href="#m44c506759d" y="151.684795"/>
      </g>
     </g>
     <g id="text_10">
      <!-- −0.2 -->
      <g transform="translate(28.620625 155.484013)scale(0.1 -0.1)">
       <use xlink:href="#DejaVuSans-8722"/>
       <use x="83.789062" xlink:href="#DejaVuSans-48"/>
       <use x="147.412109" xlink:href="#DejaVuSans-46"/>
       <use x="179.199219" xlink:href="#DejaVuSans-50"/>
      </g>
     </g>
    </g>
    <g id="ytick_4">
     <g id="line2d_10">
      <g>
       <use style="stroke:#000000;stroke-width:0.8;" x="59.903438" xlink:href="#m44c506759d" y="121.911295"/>
      </g>
     </g>
     <g id="text_11">
      <!-- 0.0 -->
      <g transform="translate(37.000312 125.710514)scale(0.1 -0.1)">
       <use xlink:href="#DejaVuSans-48"/>
       <use x="63.623047" xlink:href="#DejaVuSans-46"/>
       <use x="95.410156" xlink:href="#DejaVuSans-48"/>
      </g>
     </g>
    </g>
    <g id="ytick_5">
     <g id="line2d_11">
      <g>
       <use style="stroke:#000000;stroke-width:0.8;" x="59.903438" xlink:href="#m44c506759d" y="92.137796"/>
      </g>
     </g>
     <g id="text_12">
      <!-- 0.2 -->
      <g transform="translate(37.000312 95.937015)scale(0.1 -0.1)">
       <use xlink:href="#DejaVuSans-48"/>
       <use x="63.623047" xlink:href="#DejaVuSans-46"/>
       <use x="95.410156" xlink:href="#DejaVuSans-50"/>
      </g>
     </g>
    </g>
    <g id="ytick_6">
     <g id="line2d_12">
      <g>
       <use style="stroke:#000000;stroke-width:0.8;" x="59.903438" xlink:href="#m44c506759d" y="62.364297"/>
      </g>
     </g>
     <g id="text_13">
      <!-- 0.4 -->
      <g transform="translate(37.000312 66.163516)scale(0.1 -0.1)">
       <use xlink:href="#DejaVuSans-48"/>
       <use x="63.623047" xlink:href="#DejaVuSans-46"/>
       <use x="95.410156" xlink:href="#DejaVuSans-52"/>
      </g>
     </g>
    </g>
    <g id="ytick_7">
     <g id="line2d_13">
      <g>
       <use style="stroke:#000000;stroke-width:0.8;" x="59.903438" xlink:href="#m44c506759d" y="32.590798"/>
      </g>
     </g>
     <g id="text_14">
      <!-- 0.6 -->
      <g transform="translate(37.000312 36.390017)scale(0.1 -0.1)">
       <use xlink:href="#DejaVuSans-48"/>
       <use x="63.623047" xlink:href="#DejaVuSans-46"/>
       <use x="95.410156" xlink:href="#DejaVuSans-54"/>
      </g>
     </g>
    </g>
    <g id="text_15">
     <!-- $X(t)$ -->
     <defs>
      <path d="M 13.71875 72.90625 
L 23.6875 72.90625 
L 36.1875 46.578125 
L 58.796875 72.90625 
L 70.3125 72.90625 
L 40.28125 38.09375 
L 58.40625 0 
L 48.484375 0 
L 33.796875 30.71875 
L 7.171875 0 
L -4.296875 0 
L 29.78125 39.203125 
z
" id="DejaVuSans-Oblique-88"/>
      <path d="M 31 75.875 
Q 24.46875 64.65625 21.28125 53.65625 
Q 18.109375 42.671875 18.109375 31.390625 
Q 18.109375 20.125 21.3125 9.0625 
Q 24.515625 -2 31 -13.1875 
L 23.1875 -13.1875 
Q 15.875 -1.703125 12.234375 9.375 
Q 8.59375 20.453125 8.59375 31.390625 
Q 8.59375 42.28125 12.203125 53.3125 
Q 15.828125 64.359375 23.1875 75.875 
z
" id="DejaVuSans-40"/>
      <path d="M 42.28125 54.6875 
L 40.921875 47.703125 
L 23 47.703125 
L 17.1875 18.015625 
Q 16.890625 16.359375 16.75 15.234375 
Q 16.609375 14.109375 16.609375 13.484375 
Q 16.609375 10.359375 18.484375 8.9375 
Q 20.359375 7.515625 24.515625 7.515625 
L 33.59375 7.515625 
L 32.078125 0 
L 23.484375 0 
Q 15.484375 0 11.546875 3.125 
Q 7.625 6.25 7.625 12.59375 
Q 7.625 13.71875 7.765625 15.0625 
Q 7.90625 16.40625 8.203125 18.015625 
L 14.015625 47.703125 
L 6.390625 47.703125 
L 7.8125 54.6875 
L 15.28125 54.6875 
L 18.3125 70.21875 
L 27.296875 70.21875 
L 24.3125 54.6875 
z
" id="DejaVuSans-Oblique-116"/>
      <path d="M 8.015625 75.875 
L 15.828125 75.875 
Q 23.140625 64.359375 26.78125 53.3125 
Q 30.421875 42.28125 30.421875 31.390625 
Q 30.421875 20.453125 26.78125 9.375 
Q 23.140625 -1.703125 15.828125 -13.1875 
L 8.015625 -13.1875 
Q 14.5 -2 17.703125 9.0625 
Q 20.90625 20.125 20.90625 31.390625 
Q 20.90625 42.671875 17.703125 53.65625 
Q 14.5 64.65625 8.015625 75.875 
z
" id="DejaVuSans-41"/>
     </defs>
     <g transform="translate(20.877188 132.66)rotate(-90)scale(0.18 -0.18)">
      <use transform="translate(0 0.125)" xlink:href="#DejaVuSans-Oblique-88"/>
      <use transform="translate(68.505859 0.125)" xlink:href="#DejaVuSans-40"/>
      <use transform="translate(107.519531 0.125)" xlink:href="#DejaVuSans-Oblique-116"/>
      <use transform="translate(146.728516 0.125)" xlink:href="#DejaVuSans-41"/>
     </g>
    </g>
   </g>
   <g id="line2d_14">
    <path clip-path="url(#p70332fd9ce)" d="M 82.73071 160.91905 
L 92.047964 160.91905 
L 101.365219 160.91905 
L 110.682473 160.91905 
L 119.999727 160.91905 
L 129.316981 160.91905 
L 138.634235 160.91905 
L 147.951489 160.91905 
L 157.268744 160.91905 
L 166.585998 50.529578 
L 175.903252 50.529578 
L 185.220506 50.529578 
L 194.53776 50.529578 
L 203.855014 50.529578 
L 213.172269 50.529578 
L 222.489523 50.529578 
L 231.806777 50.529578 
L 241.124031 50.529578 
L 250.441285 50.529578 
L 259.75854 50.529578 
L 269.075794 50.529578 
L 278.393048 50.529578 
L 287.710302 177.347476 
L 297.027556 177.347476 
L 306.34481 177.347476 
L 315.662065 177.347476 
L 324.979319 177.347476 
L 334.296573 177.347476 
L 343.613827 177.347476 
L 352.931081 177.347476 
L 362.248335 177.347476 
L 371.56559 177.347476 
L 380.882844 177.347476 
L 390.200098 177.347476 
L 399.517352 177.347476 
L 408.834606 177.347476 
L 418.151861 177.347476 
L 427.469115 107.908711 
L 436.786369 107.908711 
L 446.103623 107.908711 
L 455.420877 107.908711 
L 464.738131 107.908711 
L 474.055386 107.908711 
L 483.37264 107.908711 
L 492.689894 107.908711 
L 502.007148 121.911295 
L 511.324402 121.911295 
L 520.641656 121.911295 
L 529.958911 121.911295 
L 539.276165 121.911295 
" style="fill:none;stroke:#008000;stroke-linecap:square;stroke-width:1.5;"/>
   </g>
   <g id="line2d_15">
    <path clip-path="url(#p70332fd9ce)" d="M 82.73071 155.883515 
L 92.047964 155.883515 
L 101.365219 155.883515 
L 110.682473 155.884591 
L 119.999727 155.892254 
L 129.316981 155.895307 
L 138.634235 155.899965 
L 147.951489 155.896708 
L 157.268744 155.896819 
L 166.585998 53.857089 
L 175.903252 53.859876 
L 185.220506 53.858816 
L 194.53776 53.857152 
L 203.855014 53.84348 
L 213.172269 53.832791 
L 222.489523 53.830619 
L 231.806777 53.816543 
L 241.124031 53.791835 
L 250.441285 53.750809 
L 259.75854 53.737598 
L 269.075794 53.752779 
L 278.393048 53.771045 
L 287.710302 171.985978 
L 297.027556 172.006735 
L 306.34481 172.04089 
L 315.662065 172.073396 
L 324.979319 172.092417 
L 334.296573 172.130763 
L 343.613827 172.169077 
L 352.931081 172.200461 
L 362.248335 172.254197 
L 371.56559 172.399179 
L 380.882844 172.593592 
L 390.200098 172.729486 
L 399.517352 175.040615 
L 408.834606 176.232462 
L 418.151861 175.84013 
L 427.469115 117.570095 
L 436.786369 117.592666 
L 446.103623 117.572926 
L 455.420877 117.502132 
L 464.738131 117.498649 
L 474.055386 117.533027 
L 483.37264 117.541231 
L 492.689894 117.537998 
L 502.007148 117.537689 
L 511.324402 117.546753 
L 520.641656 117.547466 
L 529.958911 117.575456 
L 539.276165 117.575456 
" style="fill:none;stroke:#ffa500;stroke-linecap:square;stroke-width:1.5;"/>
   </g>
   <g id="line2d_16">
    <defs>
     <path d="M 0 3 
C 0.795609 3 1.55874 2.683901 2.12132 2.12132 
C 2.683901 1.55874 3 0.795609 3 0 
C 3 -0.795609 2.683901 -1.55874 2.12132 -2.12132 
C 1.55874 -2.683901 0.795609 -3 0 -3 
C -0.795609 -3 -1.55874 -2.683901 -2.12132 -2.12132 
C -2.683901 -1.55874 -3 -0.795609 -3 0 
C -3 0.795609 -2.683901 1.55874 -2.12132 2.12132 
C -1.55874 2.683901 -0.795609 3 0 3 
z
" id="mac4a5f95cd" style="stroke:#000000;"/>
    </defs>
    <g clip-path="url(#p70332fd9ce)">
     <use style="stroke:#000000;" x="82.73071" xlink:href="#mac4a5f95cd" y="185.878174"/>
     <use style="stroke:#000000;" x="92.047964" xlink:href="#mac4a5f95cd" y="161.639292"/>
     <use style="stroke:#000000;" x="101.365219" xlink:href="#mac4a5f95cd" y="161.162621"/>
     <use style="stroke:#000000;" x="110.682473" xlink:href="#mac4a5f95cd" y="101.125587"/>
     <use style="stroke:#000000;" x="119.999727" xlink:href="#mac4a5f95cd" y="188.070956"/>
     <use style="stroke:#000000;" x="129.316981" xlink:href="#mac4a5f95cd" y="166.628793"/>
     <use style="stroke:#000000;" x="138.634235" xlink:href="#mac4a5f95cd" y="167.365333"/>
     <use style="stroke:#000000;" x="147.951489" xlink:href="#mac4a5f95cd" y="136.767354"/>
     <use style="stroke:#000000;" x="157.268744" xlink:href="#mac4a5f95cd" y="162.626449"/>
     <use style="stroke:#000000;" x="166.585998" xlink:href="#mac4a5f95cd" y="52.865747"/>
     <use style="stroke:#000000;" x="175.903252" xlink:href="#mac4a5f95cd" y="60.678346"/>
     <use style="stroke:#000000;" x="185.220506" xlink:href="#mac4a5f95cd" y="55.561833"/>
     <use style="stroke:#000000;" x="194.53776" xlink:href="#mac4a5f95cd" y="57.576151"/>
     <use style="stroke:#000000;" x="203.855014" xlink:href="#mac4a5f95cd" y="62.142737"/>
     <use style="stroke:#000000;" x="213.172269" xlink:href="#mac4a5f95cd" y="55.978006"/>
     <use style="stroke:#000000;" x="222.489523" xlink:href="#mac4a5f95cd" y="76.790212"/>
     <use style="stroke:#000000;" x="231.806777" xlink:href="#mac4a5f95cd" y="72.496115"/>
     <use style="stroke:#000000;" x="241.124031" xlink:href="#mac4a5f95cd" y="81.51888"/>
     <use style="stroke:#000000;" x="250.441285" xlink:href="#mac4a5f95cd" y="17.083636"/>
     <use style="stroke:#000000;" x="259.75854" xlink:href="#mac4a5f95cd" y="29.498823"/>
     <use style="stroke:#000000;" x="269.075794" xlink:href="#mac4a5f95cd" y="33.070404"/>
     <use style="stroke:#000000;" x="278.393048" xlink:href="#mac4a5f95cd" y="50.027061"/>
     <use style="stroke:#000000;" x="287.710302" xlink:href="#mac4a5f95cd" y="195.577998"/>
     <use style="stroke:#000000;" x="297.027556" xlink:href="#mac4a5f95cd" y="151.663432"/>
     <use style="stroke:#000000;" x="306.34481" xlink:href="#mac4a5f95cd" y="174.45077"/>
     <use style="stroke:#000000;" x="315.662065" xlink:href="#mac4a5f95cd" y="182.278358"/>
     <use style="stroke:#000000;" x="324.979319" xlink:href="#mac4a5f95cd" y="118.092111"/>
     <use style="stroke:#000000;" x="334.296573" xlink:href="#mac4a5f95cd" y="181.690682"/>
     <use style="stroke:#000000;" x="343.613827" xlink:href="#mac4a5f95cd" y="180.225652"/>
     <use style="stroke:#000000;" x="352.931081" xlink:href="#mac4a5f95cd" y="176.32455"/>
     <use style="stroke:#000000;" x="362.248335" xlink:href="#mac4a5f95cd" y="141.231514"/>
     <use style="stroke:#000000;" x="371.56559" xlink:href="#mac4a5f95cd" y="179.603829"/>
     <use style="stroke:#000000;" x="380.882844" xlink:href="#mac4a5f95cd" y="177.791986"/>
     <use style="stroke:#000000;" x="390.200098" xlink:href="#mac4a5f95cd" y="159.870829"/>
     <use style="stroke:#000000;" x="399.517352" xlink:href="#mac4a5f95cd" y="198.408325"/>
     <use style="stroke:#000000;" x="408.834606" xlink:href="#mac4a5f95cd" y="214.756364"/>
     <use style="stroke:#000000;" x="418.151861" xlink:href="#mac4a5f95cd" y="188.482824"/>
     <use style="stroke:#000000;" x="427.469115" xlink:href="#mac4a5f95cd" y="89.315757"/>
     <use style="stroke:#000000;" x="436.786369" xlink:href="#mac4a5f95cd" y="128.207538"/>
     <use style="stroke:#000000;" x="446.103623" xlink:href="#mac4a5f95cd" y="150.735506"/>
     <use style="stroke:#000000;" x="455.420877" xlink:href="#mac4a5f95cd" y="83.551757"/>
     <use style="stroke:#000000;" x="464.738131" xlink:href="#mac4a5f95cd" y="104.833248"/>
     <use style="stroke:#000000;" x="474.055386" xlink:href="#mac4a5f95cd" y="129.718111"/>
     <use style="stroke:#000000;" x="483.37264" xlink:href="#mac4a5f95cd" y="129.367941"/>
     <use style="stroke:#000000;" x="492.689894" xlink:href="#mac4a5f95cd" y="116.709117"/>
     <use style="stroke:#000000;" x="502.007148" xlink:href="#mac4a5f95cd" y="121.023621"/>
     <use style="stroke:#000000;" x="511.324402" xlink:href="#mac4a5f95cd" y="110.099557"/>
     <use style="stroke:#000000;" x="520.641656" xlink:href="#mac4a5f95cd" y="111.412414"/>
     <use style="stroke:#000000;" x="529.958911" xlink:href="#mac4a5f95cd" y="107.264361"/>
     <use style="stroke:#000000;" x="539.276165" xlink:href="#mac4a5f95cd" y="136.949298"/>
    </g>
   </g>
   <g id="line2d_17">
    <path clip-path="url(#p70332fd9ce)" d="M 166.585998 224.64 
L 166.585998 7.2 
" style="fill:none;stroke:#008000;stroke-dasharray:5.55,2.4;stroke-dashoffset:0;stroke-width:1.5;"/>
   </g>
   <g id="line2d_18">
    <path clip-path="url(#p70332fd9ce)" d="M 287.710302 224.64 
L 287.710302 7.2 
" style="fill:none;stroke:#008000;stroke-dasharray:5.55,2.4;stroke-dashoffset:0;stroke-width:1.5;"/>
   </g>
   <g id="line2d_19">
    <path clip-path="url(#p70332fd9ce)" d="M 427.469115 224.64 
L 427.469115 7.2 
" style="fill:none;stroke:#008000;stroke-dasharray:5.55,2.4;stroke-dashoffset:0;stroke-width:1.5;"/>
   </g>
   <g id="line2d_20">
    <path clip-path="url(#p70332fd9ce)" d="M 502.007148 224.64 
L 502.007148 7.2 
" style="fill:none;stroke:#008000;stroke-dasharray:5.55,2.4;stroke-dashoffset:0;stroke-width:1.5;"/>
   </g>
   <g id="line2d_21">
    <path clip-path="url(#p70332fd9ce)" d="M 278.393048 224.64 
L 278.393048 7.2 
" style="fill:none;stroke:#ffa500;stroke-dasharray:5.55,2.4;stroke-dashoffset:0;stroke-width:1.5;"/>
   </g>
   <g id="line2d_22">
    <path clip-path="url(#p70332fd9ce)" d="M 157.268744 224.64 
L 157.268744 7.2 
" style="fill:none;stroke:#ffa500;stroke-dasharray:5.55,2.4;stroke-dashoffset:0;stroke-width:1.5;"/>
   </g>
   <g id="line2d_23">
    <path clip-path="url(#p70332fd9ce)" d="M 418.151861 224.64 
L 418.151861 7.2 
" style="fill:none;stroke:#ffa500;stroke-dasharray:5.55,2.4;stroke-dashoffset:0;stroke-width:1.5;"/>
   </g>
   <g id="line2d_24">
    <path clip-path="url(#p70332fd9ce)" d="M 390.200098 224.64 
L 390.200098 7.2 
" style="fill:none;stroke:#ffa500;stroke-dasharray:5.55,2.4;stroke-dashoffset:0;stroke-width:1.5;"/>
   </g>
   <g id="line2d_25">
    <path clip-path="url(#p70332fd9ce)" d="M 399.517352 224.64 
L 399.517352 7.2 
" style="fill:none;stroke:#ffa500;stroke-dasharray:5.55,2.4;stroke-dashoffset:0;stroke-width:1.5;"/>
   </g>
   <g id="line2d_26">
    <path clip-path="url(#p70332fd9ce)" d="M 427.469115 224.64 
L 427.469115 7.2 
" style="fill:none;stroke:#ffa500;stroke-dasharray:5.55,2.4;stroke-dashoffset:0;stroke-width:1.5;"/>
   </g>
   <g id="line2d_27">
    <path clip-path="url(#p70332fd9ce)" d="M 408.834606 224.64 
L 408.834606 7.2 
" style="fill:none;stroke:#ffa500;stroke-dasharray:5.55,2.4;stroke-dashoffset:0;stroke-width:1.5;"/>
   </g>
   <g id="line2d_28">
    <path clip-path="url(#p70332fd9ce)" d="M 371.56559 224.64 
L 371.56559 7.2 
" style="fill:none;stroke:#ffa500;stroke-dasharray:5.55,2.4;stroke-dashoffset:0;stroke-width:1.5;"/>
   </g>
   <g id="line2d_29">
    <path clip-path="url(#p70332fd9ce)" d="M 380.882844 224.64 
L 380.882844 7.2 
" style="fill:none;stroke:#ffa500;stroke-dasharray:5.55,2.4;stroke-dashoffset:0;stroke-width:1.5;"/>
   </g>
   <g id="line2d_30">
    <path clip-path="url(#p70332fd9ce)" d="M 287.710302 224.64 
L 287.710302 7.2 
" style="fill:none;stroke:#ffa500;stroke-dasharray:5.55,2.4;stroke-dashoffset:0;stroke-width:1.5;"/>
   </g>
   <g id="patch_3">
    <path d="M 59.903438 224.64 
L 59.903438 7.2 
" style="fill:none;stroke:#000000;stroke-linecap:square;stroke-linejoin:miter;stroke-width:0.8;"/>
   </g>
   <g id="patch_4">
    <path d="M 562.103438 224.64 
L 562.103438 7.2 
" style="fill:none;stroke:#000000;stroke-linecap:square;stroke-linejoin:miter;stroke-width:0.8;"/>
   </g>
   <g id="patch_5">
    <path d="M 59.903438 224.64 
L 562.103437 224.64 
" style="fill:none;stroke:#000000;stroke-linecap:square;stroke-linejoin:miter;stroke-width:0.8;"/>
   </g>
   <g id="patch_6">
    <path d="M 59.903438 7.2 
L 562.103437 7.2 
" style="fill:none;stroke:#000000;stroke-linecap:square;stroke-linejoin:miter;stroke-width:0.8;"/>
   </g>
   <g id="legend_1">
    <g id="patch_7">
     <path d="M 403.156563 88.590625 
L 555.103438 88.590625 
Q 557.103438 88.590625 557.103438 86.590625 
L 557.103438 14.2 
Q 557.103438 12.2 555.103438 12.2 
L 403.156563 12.2 
Q 401.156563 12.2 401.156563 14.2 
L 401.156563 86.590625 
Q 401.156563 88.590625 403.156563 88.590625 
z
" style="fill:#ffffff;opacity:0.8;stroke:#cccccc;stroke-linejoin:miter;"/>
    </g>
    <g id="line2d_31">
     <path d="M 405.156563 20.298438 
L 425.156563 20.298438 
" style="fill:none;stroke:#008000;stroke-linecap:square;stroke-width:1.5;"/>
    </g>
    <g id="line2d_32"/>
    <g id="text_16">
     <!-- True noiseless values -->
     <defs>
      <path d="M 41.109375 46.296875 
Q 39.59375 47.171875 37.8125 47.578125 
Q 36.03125 48 33.890625 48 
Q 26.265625 48 22.1875 43.046875 
Q 18.109375 38.09375 18.109375 28.8125 
L 18.109375 0 
L 9.078125 0 
L 9.078125 54.6875 
L 18.109375 54.6875 
L 18.109375 46.1875 
Q 20.953125 51.171875 25.484375 53.578125 
Q 30.03125 56 36.53125 56 
Q 37.453125 56 38.578125 55.875 
Q 39.703125 55.765625 41.0625 55.515625 
z
" id="DejaVuSans-114"/>
      <path d="M 8.5 21.578125 
L 8.5 54.6875 
L 17.484375 54.6875 
L 17.484375 21.921875 
Q 17.484375 14.15625 20.5 10.265625 
Q 23.53125 6.390625 29.59375 6.390625 
Q 36.859375 6.390625 41.078125 11.03125 
Q 45.3125 15.671875 45.3125 23.6875 
L 45.3125 54.6875 
L 54.296875 54.6875 
L 54.296875 0 
L 45.3125 0 
L 45.3125 8.40625 
Q 42.046875 3.421875 37.71875 1 
Q 33.40625 -1.421875 27.6875 -1.421875 
Q 18.265625 -1.421875 13.375 4.4375 
Q 8.5 10.296875 8.5 21.578125 
z
M 31.109375 56 
z
" id="DejaVuSans-117"/>
      <path id="DejaVuSans-32"/>
      <path d="M 54.890625 33.015625 
L 54.890625 0 
L 45.90625 0 
L 45.90625 32.71875 
Q 45.90625 40.484375 42.875 44.328125 
Q 39.84375 48.1875 33.796875 48.1875 
Q 26.515625 48.1875 22.3125 43.546875 
Q 18.109375 38.921875 18.109375 30.90625 
L 18.109375 0 
L 9.078125 0 
L 9.078125 54.6875 
L 18.109375 54.6875 
L 18.109375 46.1875 
Q 21.34375 51.125 25.703125 53.5625 
Q 30.078125 56 35.796875 56 
Q 45.21875 56 50.046875 50.171875 
Q 54.890625 44.34375 54.890625 33.015625 
z
" id="DejaVuSans-110"/>
      <path d="M 30.609375 48.390625 
Q 23.390625 48.390625 19.1875 42.75 
Q 14.984375 37.109375 14.984375 27.296875 
Q 14.984375 17.484375 19.15625 11.84375 
Q 23.34375 6.203125 30.609375 6.203125 
Q 37.796875 6.203125 41.984375 11.859375 
Q 46.1875 17.53125 46.1875 27.296875 
Q 46.1875 37.015625 41.984375 42.703125 
Q 37.796875 48.390625 30.609375 48.390625 
z
M 30.609375 56 
Q 42.328125 56 49.015625 48.375 
Q 55.71875 40.765625 55.71875 27.296875 
Q 55.71875 13.875 49.015625 6.21875 
Q 42.328125 -1.421875 30.609375 -1.421875 
Q 18.84375 -1.421875 12.171875 6.21875 
Q 5.515625 13.875 5.515625 27.296875 
Q 5.515625 40.765625 12.171875 48.375 
Q 18.84375 56 30.609375 56 
z
" id="DejaVuSans-111"/>
      <path d="M 9.421875 75.984375 
L 18.40625 75.984375 
L 18.40625 0 
L 9.421875 0 
z
" id="DejaVuSans-108"/>
      <path d="M 2.984375 54.6875 
L 12.5 54.6875 
L 29.59375 8.796875 
L 46.6875 54.6875 
L 56.203125 54.6875 
L 35.6875 0 
L 23.484375 0 
z
" id="DejaVuSans-118"/>
      <path d="M 34.28125 27.484375 
Q 23.390625 27.484375 19.1875 25 
Q 14.984375 22.515625 14.984375 16.5 
Q 14.984375 11.71875 18.140625 8.90625 
Q 21.296875 6.109375 26.703125 6.109375 
Q 34.1875 6.109375 38.703125 11.40625 
Q 43.21875 16.703125 43.21875 25.484375 
L 43.21875 27.484375 
z
M 52.203125 31.203125 
L 52.203125 0 
L 43.21875 0 
L 43.21875 8.296875 
Q 40.140625 3.328125 35.546875 0.953125 
Q 30.953125 -1.421875 24.3125 -1.421875 
Q 15.921875 -1.421875 10.953125 3.296875 
Q 6 8.015625 6 15.921875 
Q 6 25.140625 12.171875 29.828125 
Q 18.359375 34.515625 30.609375 34.515625 
L 43.21875 34.515625 
L 43.21875 35.40625 
Q 43.21875 41.609375 39.140625 45 
Q 35.0625 48.390625 27.6875 48.390625 
Q 23 48.390625 18.546875 47.265625 
Q 14.109375 46.140625 10.015625 43.890625 
L 10.015625 52.203125 
Q 14.9375 54.109375 19.578125 55.046875 
Q 24.21875 56 28.609375 56 
Q 40.484375 56 46.34375 49.84375 
Q 52.203125 43.703125 52.203125 31.203125 
z
" id="DejaVuSans-97"/>
     </defs>
     <g transform="translate(433.156563 23.798438)scale(0.1 -0.1)">
      <use xlink:href="#DejaVuSans-84"/>
      <use x="46.333984" xlink:href="#DejaVuSans-114"/>
      <use x="87.447266" xlink:href="#DejaVuSans-117"/>
      <use x="150.826172" xlink:href="#DejaVuSans-101"/>
      <use x="212.349609" xlink:href="#DejaVuSans-32"/>
      <use x="244.136719" xlink:href="#DejaVuSans-110"/>
      <use x="307.515625" xlink:href="#DejaVuSans-111"/>
      <use x="368.697266" xlink:href="#DejaVuSans-105"/>
      <use x="396.480469" xlink:href="#DejaVuSans-115"/>
      <use x="448.580078" xlink:href="#DejaVuSans-101"/>
      <use x="510.103516" xlink:href="#DejaVuSans-108"/>
      <use x="537.886719" xlink:href="#DejaVuSans-101"/>
      <use x="599.410156" xlink:href="#DejaVuSans-115"/>
      <use x="651.509766" xlink:href="#DejaVuSans-115"/>
      <use x="703.609375" xlink:href="#DejaVuSans-32"/>
      <use x="735.396484" xlink:href="#DejaVuSans-118"/>
      <use x="794.576172" xlink:href="#DejaVuSans-97"/>
      <use x="855.855469" xlink:href="#DejaVuSans-108"/>
      <use x="883.638672" xlink:href="#DejaVuSans-117"/>
      <use x="947.017578" xlink:href="#DejaVuSans-101"/>
      <use x="1008.541016" xlink:href="#DejaVuSans-115"/>
     </g>
    </g>
    <g id="line2d_33">
     <path d="M 405.156563 34.976563 
L 425.156563 34.976563 
" style="fill:none;stroke:#ffa500;stroke-linecap:square;stroke-width:1.5;"/>
    </g>
    <g id="line2d_34"/>
    <g id="text_17">
     <!-- Inferred noiseless mean -->
     <defs>
      <path d="M 9.8125 72.90625 
L 19.671875 72.90625 
L 19.671875 0 
L 9.8125 0 
z
" id="DejaVuSans-73"/>
      <path d="M 37.109375 75.984375 
L 37.109375 68.5 
L 28.515625 68.5 
Q 23.6875 68.5 21.796875 66.546875 
Q 19.921875 64.59375 19.921875 59.515625 
L 19.921875 54.6875 
L 34.71875 54.6875 
L 34.71875 47.703125 
L 19.921875 47.703125 
L 19.921875 0 
L 10.890625 0 
L 10.890625 47.703125 
L 2.296875 47.703125 
L 2.296875 54.6875 
L 10.890625 54.6875 
L 10.890625 58.5 
Q 10.890625 67.625 15.140625 71.796875 
Q 19.390625 75.984375 28.609375 75.984375 
z
" id="DejaVuSans-102"/>
      <path d="M 45.40625 46.390625 
L 45.40625 75.984375 
L 54.390625 75.984375 
L 54.390625 0 
L 45.40625 0 
L 45.40625 8.203125 
Q 42.578125 3.328125 38.25 0.953125 
Q 33.9375 -1.421875 27.875 -1.421875 
Q 17.96875 -1.421875 11.734375 6.484375 
Q 5.515625 14.40625 5.515625 27.296875 
Q 5.515625 40.1875 11.734375 48.09375 
Q 17.96875 56 27.875 56 
Q 33.9375 56 38.25 53.625 
Q 42.578125 51.265625 45.40625 46.390625 
z
M 14.796875 27.296875 
Q 14.796875 17.390625 18.875 11.75 
Q 22.953125 6.109375 30.078125 6.109375 
Q 37.203125 6.109375 41.296875 11.75 
Q 45.40625 17.390625 45.40625 27.296875 
Q 45.40625 37.203125 41.296875 42.84375 
Q 37.203125 48.484375 30.078125 48.484375 
Q 22.953125 48.484375 18.875 42.84375 
Q 14.796875 37.203125 14.796875 27.296875 
z
" id="DejaVuSans-100"/>
     </defs>
     <g transform="translate(433.156563 38.476563)scale(0.1 -0.1)">
      <use xlink:href="#DejaVuSans-73"/>
      <use x="29.492188" xlink:href="#DejaVuSans-110"/>
      <use x="92.871094" xlink:href="#DejaVuSans-102"/>
      <use x="128.076172" xlink:href="#DejaVuSans-101"/>
      <use x="189.599609" xlink:href="#DejaVuSans-114"/>
      <use x="228.962891" xlink:href="#DejaVuSans-114"/>
      <use x="267.826172" xlink:href="#DejaVuSans-101"/>
      <use x="329.349609" xlink:href="#DejaVuSans-100"/>
      <use x="392.826172" xlink:href="#DejaVuSans-32"/>
      <use x="424.613281" xlink:href="#DejaVuSans-110"/>
      <use x="487.992188" xlink:href="#DejaVuSans-111"/>
      <use x="549.173828" xlink:href="#DejaVuSans-105"/>
      <use x="576.957031" xlink:href="#DejaVuSans-115"/>
      <use x="629.056641" xlink:href="#DejaVuSans-101"/>
      <use x="690.580078" xlink:href="#DejaVuSans-108"/>
      <use x="718.363281" xlink:href="#DejaVuSans-101"/>
      <use x="779.886719" xlink:href="#DejaVuSans-115"/>
      <use x="831.986328" xlink:href="#DejaVuSans-115"/>
      <use x="884.085938" xlink:href="#DejaVuSans-32"/>
      <use x="915.873047" xlink:href="#DejaVuSans-109"/>
      <use x="1013.285156" xlink:href="#DejaVuSans-101"/>
      <use x="1074.808594" xlink:href="#DejaVuSans-97"/>
      <use x="1136.087891" xlink:href="#DejaVuSans-110"/>
     </g>
    </g>
    <g id="line2d_35"/>
    <g id="line2d_36">
     <g>
      <use style="stroke:#000000;" x="415.156563" xlink:href="#mac4a5f95cd" y="49.654688"/>
     </g>
    </g>
    <g id="text_18">
     <!-- Observed data -->
     <defs>
      <path d="M 39.40625 66.21875 
Q 28.65625 66.21875 22.328125 58.203125 
Q 16.015625 50.203125 16.015625 36.375 
Q 16.015625 22.609375 22.328125 14.59375 
Q 28.65625 6.59375 39.40625 6.59375 
Q 50.140625 6.59375 56.421875 14.59375 
Q 62.703125 22.609375 62.703125 36.375 
Q 62.703125 50.203125 56.421875 58.203125 
Q 50.140625 66.21875 39.40625 66.21875 
z
M 39.40625 74.21875 
Q 54.734375 74.21875 63.90625 63.9375 
Q 73.09375 53.65625 73.09375 36.375 
Q 73.09375 19.140625 63.90625 8.859375 
Q 54.734375 -1.421875 39.40625 -1.421875 
Q 24.03125 -1.421875 14.8125 8.828125 
Q 5.609375 19.09375 5.609375 36.375 
Q 5.609375 53.65625 14.8125 63.9375 
Q 24.03125 74.21875 39.40625 74.21875 
z
" id="DejaVuSans-79"/>
      <path d="M 48.6875 27.296875 
Q 48.6875 37.203125 44.609375 42.84375 
Q 40.53125 48.484375 33.40625 48.484375 
Q 26.265625 48.484375 22.1875 42.84375 
Q 18.109375 37.203125 18.109375 27.296875 
Q 18.109375 17.390625 22.1875 11.75 
Q 26.265625 6.109375 33.40625 6.109375 
Q 40.53125 6.109375 44.609375 11.75 
Q 48.6875 17.390625 48.6875 27.296875 
z
M 18.109375 46.390625 
Q 20.953125 51.265625 25.265625 53.625 
Q 29.59375 56 35.59375 56 
Q 45.5625 56 51.78125 48.09375 
Q 58.015625 40.1875 58.015625 27.296875 
Q 58.015625 14.40625 51.78125 6.484375 
Q 45.5625 -1.421875 35.59375 -1.421875 
Q 29.59375 -1.421875 25.265625 0.953125 
Q 20.953125 3.328125 18.109375 8.203125 
L 18.109375 0 
L 9.078125 0 
L 9.078125 75.984375 
L 18.109375 75.984375 
z
" id="DejaVuSans-98"/>
     </defs>
     <g transform="translate(433.156563 53.154688)scale(0.1 -0.1)">
      <use xlink:href="#DejaVuSans-79"/>
      <use x="78.710938" xlink:href="#DejaVuSans-98"/>
      <use x="142.1875" xlink:href="#DejaVuSans-115"/>
      <use x="194.287109" xlink:href="#DejaVuSans-101"/>
      <use x="255.810547" xlink:href="#DejaVuSans-114"/>
      <use x="296.923828" xlink:href="#DejaVuSans-118"/>
      <use x="356.103516" xlink:href="#DejaVuSans-101"/>
      <use x="417.626953" xlink:href="#DejaVuSans-100"/>
      <use x="481.103516" xlink:href="#DejaVuSans-32"/>
      <use x="512.890625" xlink:href="#DejaVuSans-100"/>
      <use x="576.367188" xlink:href="#DejaVuSans-97"/>
      <use x="637.646484" xlink:href="#DejaVuSans-116"/>
      <use x="676.855469" xlink:href="#DejaVuSans-97"/>
     </g>
    </g>
    <g id="line2d_37">
     <path d="M 405.156563 64.332813 
L 425.156563 64.332813 
" style="fill:none;stroke:#008000;stroke-dasharray:5.55,2.4;stroke-dashoffset:0;stroke-width:1.5;"/>
    </g>
    <g id="line2d_38"/>
    <g id="text_19">
     <!-- True change point -->
     <defs>
      <path d="M 48.78125 52.59375 
L 48.78125 44.1875 
Q 44.96875 46.296875 41.140625 47.34375 
Q 37.3125 48.390625 33.40625 48.390625 
Q 24.65625 48.390625 19.8125 42.84375 
Q 14.984375 37.3125 14.984375 27.296875 
Q 14.984375 17.28125 19.8125 11.734375 
Q 24.65625 6.203125 33.40625 6.203125 
Q 37.3125 6.203125 41.140625 7.25 
Q 44.96875 8.296875 48.78125 10.40625 
L 48.78125 2.09375 
Q 45.015625 0.34375 40.984375 -0.53125 
Q 36.96875 -1.421875 32.421875 -1.421875 
Q 20.0625 -1.421875 12.78125 6.34375 
Q 5.515625 14.109375 5.515625 27.296875 
Q 5.515625 40.671875 12.859375 48.328125 
Q 20.21875 56 33.015625 56 
Q 37.15625 56 41.109375 55.140625 
Q 45.0625 54.296875 48.78125 52.59375 
z
" id="DejaVuSans-99"/>
      <path d="M 54.890625 33.015625 
L 54.890625 0 
L 45.90625 0 
L 45.90625 32.71875 
Q 45.90625 40.484375 42.875 44.328125 
Q 39.84375 48.1875 33.796875 48.1875 
Q 26.515625 48.1875 22.3125 43.546875 
Q 18.109375 38.921875 18.109375 30.90625 
L 18.109375 0 
L 9.078125 0 
L 9.078125 75.984375 
L 18.109375 75.984375 
L 18.109375 46.1875 
Q 21.34375 51.125 25.703125 53.5625 
Q 30.078125 56 35.796875 56 
Q 45.21875 56 50.046875 50.171875 
Q 54.890625 44.34375 54.890625 33.015625 
z
" id="DejaVuSans-104"/>
      <path d="M 45.40625 27.984375 
Q 45.40625 37.75 41.375 43.109375 
Q 37.359375 48.484375 30.078125 48.484375 
Q 22.859375 48.484375 18.828125 43.109375 
Q 14.796875 37.75 14.796875 27.984375 
Q 14.796875 18.265625 18.828125 12.890625 
Q 22.859375 7.515625 30.078125 7.515625 
Q 37.359375 7.515625 41.375 12.890625 
Q 45.40625 18.265625 45.40625 27.984375 
z
M 54.390625 6.78125 
Q 54.390625 -7.171875 48.1875 -13.984375 
Q 42 -20.796875 29.203125 -20.796875 
Q 24.46875 -20.796875 20.265625 -20.09375 
Q 16.0625 -19.390625 12.109375 -17.921875 
L 12.109375 -9.1875 
Q 16.0625 -11.328125 19.921875 -12.34375 
Q 23.78125 -13.375 27.78125 -13.375 
Q 36.625 -13.375 41.015625 -8.765625 
Q 45.40625 -4.15625 45.40625 5.171875 
L 45.40625 9.625 
Q 42.625 4.78125 38.28125 2.390625 
Q 33.9375 0 27.875 0 
Q 17.828125 0 11.671875 7.65625 
Q 5.515625 15.328125 5.515625 27.984375 
Q 5.515625 40.671875 11.671875 48.328125 
Q 17.828125 56 27.875 56 
Q 33.9375 56 38.28125 53.609375 
Q 42.625 51.21875 45.40625 46.390625 
L 45.40625 54.6875 
L 54.390625 54.6875 
z
" id="DejaVuSans-103"/>
     </defs>
     <g transform="translate(433.156563 67.832813)scale(0.1 -0.1)">
      <use xlink:href="#DejaVuSans-84"/>
      <use x="46.333984" xlink:href="#DejaVuSans-114"/>
      <use x="87.447266" xlink:href="#DejaVuSans-117"/>
      <use x="150.826172" xlink:href="#DejaVuSans-101"/>
      <use x="212.349609" xlink:href="#DejaVuSans-32"/>
      <use x="244.136719" xlink:href="#DejaVuSans-99"/>
      <use x="299.117188" xlink:href="#DejaVuSans-104"/>
      <use x="362.496094" xlink:href="#DejaVuSans-97"/>
      <use x="423.775391" xlink:href="#DejaVuSans-110"/>
      <use x="487.154297" xlink:href="#DejaVuSans-103"/>
      <use x="550.630859" xlink:href="#DejaVuSans-101"/>
      <use x="612.154297" xlink:href="#DejaVuSans-32"/>
      <use x="643.941406" xlink:href="#DejaVuSans-112"/>
      <use x="707.417969" xlink:href="#DejaVuSans-111"/>
      <use x="768.599609" xlink:href="#DejaVuSans-105"/>
      <use x="796.382812" xlink:href="#DejaVuSans-110"/>
      <use x="859.761719" xlink:href="#DejaVuSans-116"/>
     </g>
    </g>
    <g id="line2d_39">
     <path d="M 405.156563 79.010938 
L 425.156563 79.010938 
" style="fill:none;stroke:#ffa500;stroke-dasharray:5.55,2.4;stroke-dashoffset:0;stroke-width:1.5;"/>
    </g>
    <g id="line2d_40"/>
    <g id="text_20">
     <!-- Inferred change point -->
     <g transform="translate(433.156563 82.510938)scale(0.1 -0.1)">
      <use xlink:href="#DejaVuSans-73"/>
      <use x="29.492188" xlink:href="#DejaVuSans-110"/>
      <use x="92.871094" xlink:href="#DejaVuSans-102"/>
      <use x="128.076172" xlink:href="#DejaVuSans-101"/>
      <use x="189.599609" xlink:href="#DejaVuSans-114"/>
      <use x="228.962891" xlink:href="#DejaVuSans-114"/>
      <use x="267.826172" xlink:href="#DejaVuSans-101"/>
      <use x="329.349609" xlink:href="#DejaVuSans-100"/>
      <use x="392.826172" xlink:href="#DejaVuSans-32"/>
      <use x="424.613281" xlink:href="#DejaVuSans-99"/>
      <use x="479.59375" xlink:href="#DejaVuSans-104"/>
      <use x="542.972656" xlink:href="#DejaVuSans-97"/>
      <use x="604.251953" xlink:href="#DejaVuSans-110"/>
      <use x="667.630859" xlink:href="#DejaVuSans-103"/>
      <use x="731.107422" xlink:href="#DejaVuSans-101"/>
      <use x="792.630859" xlink:href="#DejaVuSans-32"/>
      <use x="824.417969" xlink:href="#DejaVuSans-112"/>
      <use x="887.894531" xlink:href="#DejaVuSans-111"/>
      <use x="949.076172" xlink:href="#DejaVuSans-105"/>
      <use x="976.859375" xlink:href="#DejaVuSans-110"/>
      <use x="1040.238281" xlink:href="#DejaVuSans-116"/>
     </g>
    </g>
   </g>
  </g>
 </g>
 <defs>
  <clipPath id="p70332fd9ce">
   <rect height="217.44" width="502.2" x="59.903438" y="7.2"/>
  </clipPath>
 </defs>
</svg>
