<svg class="svg-icon" style="width: 1em; height: 1em;vertical-align: middle;fill: currentColor;overflow: hidden;" viewBox="0 0 1024 1024" version="1.1" xmlns="http://www.w3.org/2000/svg"><path d="M956.915116 149.900032c-1.493004-17.58347-14.365172-30.953989-29.7997-30.953989L832.883241 118.946043c-9.245572-26.187429-31.43085-46.065152-59.737546-46.065152L250.782673 72.880891c-28.234041 0-50.424436 19.877723-59.738569 46.065152l-94.15952 0c-15.504112 0-28.376281 13.370519-29.7997 30.953989-3.699252 42.75885-6.470365 121.737622 12.372795 184.287213 14.368242 54.761208 67.206658 122.320906 142.096299 174.484963 17.922185 12.500709 35.55682 25.088398 52.485375 37.035498 9.954723 7.271614 19.9821 14.314007 30.083156 21.053502 23.252587 15.930831 44.802392 29.759791 64.006779 39.682791 21.049409 35.753295 41.957601 68.204381 62.155618 96.347348l1.63422 3.645017c2.990101 5.956665 7.253194 11.131525 12.44545 15.610536 0.357134 0.549515 0.782829 1.067308 1.282203 1.635243l-157.74265 0c-33.637098 0-60.946071 31.150464-60.946071 69.591985l0 0c0 0.38988 0 0.782829 0 1.24127l0 0 0 68.309782 60.946071 0 448.186625 0 60.951187 0 0-68.309782-0.072655 0c0-0.458441 0.072655-0.852414 0.072655-1.24127l0 0c0-38.440497-27.308973-69.591985-60.951187-69.591985L578.352197 723.682144c6.117324-4.853541 11.094686-10.559497 14.437827-17.244756l3.343141-7.377014c19.484773-27.240411 39.682791-58.46046 59.879786-92.793406 19.272949-9.867742 40.753169-23.700795 63.794955-39.503712 10.169617-6.739495 20.198018-13.781888 30.226418-21.053502 16.924461-11.9471 34.420951-24.534789 52.343135-37.035498 74.885548-52.164057 127.796618-119.723755 142.16179-174.484963C963.385481 271.637654 960.614367 192.658881 956.915116 149.900032L956.915116 149.900032zM291.819299 466.645023c-5.975085-3.965312-11.877515-8.127098-17.711384-12.412704-9.954723-6.969739-20.340257-14.419408-30.862915-21.778003-44.095287-30.724769-75.242681-70.51296-83.635839-102.749152-11.094686-36.820604-9.460466-83.260286-7.395434-108.436688 0.925069-10.384511 8.535397-18.260899 17.637706-18.260899l34.278711 0 1.208525 2.792603c9.103332 63.117526 41.531905 159.180396 90.889033 263.812431C294.731628 468.617957 293.239648 467.620233 291.819299 466.645023L291.819299 466.645023zM864.390839 329.704141c-8.393157 32.236192-39.470967 72.02336-83.634816 102.749152-10.527774 7.358595-20.909216 14.809287-30.868031 21.778003-5.829775 4.285606-11.732206 8.447393-17.706267 12.412704-1.209548 0.815575-2.345418 1.579985-3.485381 2.362814 49.925063-105.34528 82.783425-202.223724 92.028996-266.00026l33.423227 0c9.103332 0 16.71366 7.876388 17.638729 18.260899C873.847212 246.443855 875.485525 292.88456 864.390839 329.704141L864.390839 329.704141z"  /></svg>