<?xml version="1.0" encoding="utf-8"?>
<!-- Uploaded to: SVG Repo, www.svgrepo.com, Generator: SVG Repo Mixer Tools -->
<svg fill="#000000" width="800px" height="800px" viewBox="0 0 32 32" version="1.1" xmlns="http://www.w3.org/2000/svg">
<title>download</title>
<path d="M18.313 13.625h-4.031v-6.594c0-0.563-0.469-1.031-1.031-1.031h-4.031c-0.594 0-1.063 0.469-1.063 1.031v6.594h-4.031c-0.531 0-0.719 0.344-0.313 0.75l6.688 6.656c0.188 0.188 0.438 0.281 0.719 0.281s0.563-0.094 0.75-0.281l6.656-6.656c0.375-0.406 0.25-0.75-0.313-0.75zM0 18.344v7.125c0 0.313 0.156 0.5 0.5 0.5h21.375c0.344 0 0.531-0.188 0.531-0.5v-7.125c0-0.313-0.25-0.531-0.531-0.531h-2.031c-0.281 0-0.531 0.25-0.531 0.531v4.531h-16.25v-4.531c0-0.313-0.219-0.531-0.5-0.531h-2.063c-0.281 0-0.5 0.25-0.5 0.531z"></path>
</svg>