<?xml version="1.0" standalone="no"?>
<!DOCTYPE svg PUBLIC "-//W3C//DTD SVG 20010904//EN"
 "http://www.w3.org/TR/2001/REC-SVG-20010904/DTD/svg10.dtd">
<svg version="1.0" xmlns="http://www.w3.org/2000/svg"
 width="2100.000000pt" height="2100.000000pt" viewBox="0 0 2100.000000 2100.000000"
 preserveAspectRatio="xMidYMid meet">
<metadata>
Created by potrace 1.14, written by Peter Selinger 2001-2017
</metadata>
<g transform="translate(0.000000,2100.000000) scale(0.100000,-0.100000)"
fill="#000000" stroke="none">
<path d="M9970 20399 c-198 -11 -414 -28 -505 -39 -44 -6 -150 -19 -235 -30
-85 -10 -183 -24 -217 -29 -35 -6 -90 -15 -123 -21 -33 -5 -87 -14 -120 -20
-33 -5 -86 -14 -117 -19 -112 -19 -199 -37 -212 -46 -8 -4 -57 -16 -110 -26
-53 -10 -114 -22 -136 -28 -96 -24 -124 -31 -185 -46 -36 -9 -78 -21 -95 -26
-16 -6 -46 -15 -65 -19 -19 -4 -48 -13 -65 -18 -16 -6 -50 -16 -75 -22 -25 -6
-58 -16 -75 -21 -16 -6 -50 -16 -75 -24 -25 -7 -61 -18 -80 -25 -19 -7 -57
-20 -85 -29 -27 -10 -72 -25 -100 -35 -27 -10 -66 -21 -86 -26 -20 -5 -69 -25
-110 -45 -40 -19 -82 -35 -92 -35 -10 0 -35 -9 -57 -20 -22 -11 -48 -20 -58
-20 -11 0 -69 -25 -130 -54 -61 -30 -130 -60 -152 -66 -67 -18 -886 -428 -959
-479 -18 -13 -68 -42 -110 -64 -42 -22 -85 -48 -96 -58 -11 -10 -52 -35 -90
-55 -39 -20 -86 -49 -105 -64 -19 -15 -53 -37 -76 -48 -22 -11 -46 -28 -54
-37 -7 -9 -28 -22 -45 -29 -17 -8 -47 -27 -66 -43 -19 -16 -45 -34 -59 -40
-14 -5 -45 -27 -68 -47 -24 -20 -48 -36 -52 -36 -4 0 -28 -16 -52 -36 -23 -20
-54 -42 -68 -48 -14 -6 -53 -34 -88 -63 -35 -29 -67 -53 -72 -53 -5 0 -50 -36
-100 -80 -50 -44 -95 -80 -100 -80 -5 0 -44 -32 -87 -71 -43 -38 -91 -77 -108
-86 -29 -15 -78 -59 -260 -234 -44 -42 -93 -83 -110 -92 -37 -19 -555 -538
-555 -556 0 -6 -37 -51 -83 -99 -179 -188 -237 -251 -237 -261 0 -6 -36 -51
-80 -101 -44 -50 -80 -95 -80 -100 0 -5 -32 -44 -71 -87 -38 -43 -77 -91 -86
-108 -9 -16 -37 -55 -62 -85 -26 -30 -52 -66 -58 -80 -5 -14 -27 -45 -47 -68
-20 -24 -36 -48 -36 -52 0 -4 -16 -28 -36 -52 -20 -23 -42 -54 -47 -68 -6 -14
-24 -40 -40 -59 -16 -19 -35 -49 -43 -66 -7 -17 -20 -38 -29 -45 -9 -8 -26
-32 -37 -54 -11 -23 -30 -52 -43 -66 -12 -14 -41 -61 -64 -105 -23 -43 -50
-88 -60 -100 -10 -11 -36 -54 -58 -96 -22 -42 -51 -92 -64 -110 -52 -74 -461
-892 -479 -961 -7 -23 -27 -73 -46 -110 -19 -37 -34 -76 -34 -86 0 -10 -20
-60 -45 -111 -25 -51 -45 -101 -45 -112 0 -11 -13 -46 -30 -79 -16 -32 -34
-76 -39 -97 -9 -34 -105 -323 -132 -398 -11 -30 -20 -63 -37 -140 -5 -22 -14
-51 -19 -65 -14 -33 -46 -147 -73 -260 -5 -19 -16 -64 -25 -100 -9 -36 -24
-108 -34 -160 -9 -52 -22 -104 -28 -115 -6 -11 -14 -42 -17 -70 -4 -27 -12
-63 -17 -80 -5 -16 -16 -75 -24 -130 -7 -55 -18 -122 -24 -150 -24 -109 -78
-551 -101 -835 -39 -466 -39 -1134 0 -1600 21 -265 54 -550 69 -600 5 -19 15
-82 21 -140 6 -58 16 -121 21 -140 5 -19 16 -73 24 -120 9 -47 25 -128 35
-180 11 -52 25 -126 33 -165 7 -38 18 -79 24 -90 6 -11 14 -45 18 -75 4 -30
12 -64 18 -75 6 -11 16 -49 23 -85 6 -36 17 -78 22 -95 6 -16 16 -50 22 -75 7
-25 19 -70 27 -100 15 -50 24 -79 63 -190 6 -19 15 -51 19 -70 4 -19 15 -49
24 -67 9 -18 17 -41 17 -53 0 -11 9 -38 20 -60 11 -21 24 -55 29 -77 17 -66
58 -175 90 -243 17 -36 31 -73 31 -83 0 -10 15 -48 34 -85 19 -37 39 -88 46
-112 7 -24 34 -87 60 -140 26 -53 53 -115 60 -138 14 -55 245 -516 280 -562
15 -19 31 -46 35 -60 4 -14 11 -30 16 -36 5 -6 22 -36 39 -67 16 -32 43 -82
59 -112 16 -30 39 -68 51 -85 12 -17 38 -61 58 -98 19 -37 47 -83 62 -102 15
-19 37 -53 48 -76 11 -22 28 -46 37 -54 9 -7 22 -28 29 -45 8 -17 27 -47 43
-66 16 -19 34 -46 40 -60 6 -15 25 -42 41 -60 16 -19 37 -50 47 -69 10 -19 31
-50 46 -68 16 -18 29 -37 29 -41 0 -5 27 -42 60 -81 33 -39 60 -76 60 -80 0
-5 24 -37 53 -72 30 -35 61 -76 70 -93 9 -16 48 -65 86 -108 39 -43 71 -82 71
-87 0 -5 45 -59 100 -120 55 -61 100 -115 100 -121 0 -16 140 -160 548 -567
206 -205 389 -380 407 -390 18 -9 83 -64 145 -122 62 -58 124 -111 139 -119
14 -8 57 -40 94 -72 38 -33 73 -59 78 -59 6 0 43 -30 83 -66 40 -36 89 -76
109 -87 79 -48 131 -84 190 -133 34 -28 80 -60 103 -72 22 -11 47 -28 54 -37
8 -9 35 -27 60 -40 25 -13 52 -31 60 -40 7 -9 32 -26 54 -37 23 -11 50 -29 61
-39 11 -10 52 -35 90 -55 39 -20 86 -49 105 -64 19 -15 69 -44 110 -65 41 -20
84 -45 95 -56 28 -25 63 -44 515 -269 217 -109 413 -203 435 -210 22 -7 86
-34 141 -61 56 -26 121 -53 145 -59 24 -7 66 -23 93 -37 51 -26 162 -66 229
-84 22 -5 56 -18 77 -29 22 -11 49 -20 60 -20 11 0 38 -9 60 -20 22 -11 49
-20 60 -20 11 0 38 -9 60 -20 22 -11 48 -20 59 -20 11 0 35 -6 53 -14 18 -7
67 -24 108 -36 41 -13 91 -29 110 -36 19 -7 53 -15 75 -19 22 -3 60 -12 85
-20 48 -15 73 -21 270 -70 36 -9 109 -25 163 -35 53 -11 141 -29 195 -40 53
-10 131 -26 172 -34 41 -8 92 -15 112 -15 20 -1 47 -6 60 -11 13 -6 79 -17
148 -25 69 -8 161 -19 204 -25 43 -6 126 -15 183 -20 56 -6 151 -15 211 -20
616 -59 1509 -34 2165 60 37 6 97 14 135 19 37 6 112 19 167 30 55 11 111 22
125 25 14 2 66 10 115 17 50 6 98 16 108 21 17 9 87 25 227 52 36 7 74 17 85
23 11 6 45 14 75 18 30 4 66 13 80 20 14 7 45 15 70 19 40 5 86 19 195 57 29
11 53 17 140 38 22 5 56 15 75 21 19 7 58 20 85 29 28 10 73 25 100 35 28 10
67 22 88 27 21 5 65 23 97 39 33 17 69 30 80 30 11 0 38 9 58 19 20 10 57 24
82 31 24 7 69 25 100 40 31 15 75 33 100 40 24 7 87 33 140 60 52 26 106 51
120 55 14 4 32 13 40 20 8 7 35 18 58 25 50 13 511 242 558 277 33 24 57 38
231 127 62 32 118 65 125 73 6 8 35 26 62 40 28 14 60 34 71 44 11 10 52 35
90 55 39 20 81 47 95 59 14 13 43 32 66 43 22 11 46 28 54 37 8 9 32 26 54 37
23 11 56 34 75 50 18 16 45 35 60 41 14 6 54 35 89 64 35 29 67 53 72 53 4 0
41 27 80 60 39 33 75 60 80 60 5 0 41 27 80 60 39 33 76 60 81 60 5 0 55 42
112 93 56 52 114 100 129 108 26 14 90 72 260 235 48 46 93 84 100 84 17 0
496 478 515 515 9 17 51 66 93 110 147 152 215 227 229 253 8 15 56 73 108
129 51 57 93 107 93 112 0 5 27 42 60 81 33 39 60 75 60 80 0 5 27 41 60 80
33 39 60 76 60 80 0 5 24 37 53 72 29 35 58 75 64 89 6 15 25 42 41 60 16 19
39 52 50 75 11 22 28 46 37 54 9 8 26 32 37 54 11 23 30 52 43 66 12 14 39 56
59 95 20 38 45 79 55 90 10 11 37 56 60 100 23 43 50 88 60 100 10 11 45 72
77 135 32 63 70 131 85 150 36 48 265 509 279 562 7 24 18 50 25 58 7 8 16 26
20 40 4 14 29 68 55 120 27 53 53 116 60 140 7 25 25 69 40 100 15 31 33 76
40 100 7 25 21 62 31 82 10 20 19 47 19 58 0 11 13 47 30 80 16 32 34 76 39
97 9 34 62 195 92 278 6 17 15 48 20 70 21 87 27 111 38 140 35 100 51 156 60
200 9 48 13 63 41 145 7 19 20 78 30 130 32 164 48 234 59 260 6 14 17 72 25
130 8 58 24 152 36 210 12 58 25 135 31 173 5 37 13 97 19 135 58 405 92 898
92 1352 0 255 -16 653 -32 820 -6 58 -15 150 -20 206 -5 56 -14 137 -20 180
-6 43 -17 135 -25 204 -8 69 -19 135 -25 148 -5 13 -10 40 -11 60 0 20 -7 71
-15 112 -8 41 -24 119 -34 173 -11 53 -29 141 -40 195 -10 53 -26 126 -35 162
-9 36 -20 81 -25 100 -18 75 -32 127 -45 170 -8 25 -17 63 -20 85 -4 22 -12
56 -19 75 -7 19 -23 69 -36 110 -12 41 -29 90 -36 108 -8 18 -14 42 -14 53 0
11 -9 37 -20 59 -11 22 -20 49 -20 60 0 11 -9 38 -20 60 -11 22 -20 48 -20 59
0 10 -11 43 -25 73 -14 29 -25 61 -25 71 0 10 -9 35 -20 57 -11 22 -20 47 -20
57 0 10 -16 51 -35 91 -19 40 -39 91 -46 114 -6 23 -33 85 -59 138 -26 53 -53
116 -60 140 -15 57 -414 857 -444 890 -12 14 -46 72 -76 130 -29 58 -65 121
-80 140 -15 19 -44 66 -64 105 -20 38 -45 79 -55 90 -10 11 -28 38 -39 61 -11
22 -28 47 -37 54 -9 8 -27 35 -40 60 -13 25 -31 52 -40 60 -9 7 -26 32 -37 54
-11 23 -43 66 -69 97 -27 31 -49 61 -49 67 0 5 -17 31 -39 58 -21 27 -45 63
-54 79 -8 17 -45 62 -81 102 -36 39 -66 76 -66 82 0 11 -128 163 -143 169 -4
2 -14 18 -21 35 -7 18 -54 75 -103 127 -50 52 -97 110 -107 127 -9 18 -184
201 -389 406 -408 409 -550 547 -566 547 -6 0 -60 45 -121 100 -61 55 -115
100 -120 100 -5 0 -44 32 -87 71 -43 38 -91 77 -108 86 -16 9 -58 40 -93 70
-35 29 -67 53 -72 53 -4 0 -40 26 -79 58 -38 31 -91 71 -116 87 -93 60 -123
81 -165 113 -24 17 -48 32 -55 32 -7 0 -20 9 -31 21 -10 12 -40 32 -65 44 -25
13 -51 31 -59 40 -7 9 -32 26 -54 37 -23 11 -57 33 -76 48 -19 15 -65 43 -102
62 -37 20 -81 46 -98 58 -17 12 -55 35 -85 51 -30 16 -80 43 -112 59 -31 17
-61 34 -67 39 -6 5 -22 12 -36 16 -14 4 -41 20 -60 35 -40 31 -453 240 -474
240 -7 0 -19 6 -25 14 -6 8 -31 19 -54 25 -23 5 -93 35 -155 66 -62 30 -120
55 -130 55 -10 0 -60 20 -111 45 -51 25 -101 45 -112 45 -11 0 -43 12 -71 26
-52 26 -163 67 -231 85 -22 5 -56 18 -77 29 -22 11 -49 20 -60 20 -11 0 -38 9
-60 20 -22 11 -48 20 -59 20 -11 0 -35 6 -53 14 -50 20 -129 47 -168 56 -19 4
-48 13 -65 18 -16 6 -50 16 -75 22 -25 6 -58 16 -75 22 -16 5 -59 16 -95 22
-36 7 -74 17 -85 23 -11 6 -45 14 -75 18 -30 4 -64 12 -75 18 -11 6 -51 17
-90 24 -38 8 -113 22 -165 33 -52 10 -133 26 -180 35 -47 8 -101 19 -120 24
-19 5 -82 15 -140 21 -58 6 -121 16 -140 21 -79 23 -551 70 -880 88 -184 11
-868 10 -1060 0z m-4115 -6575 c514 -54 943 -197 1295 -432 143 -95 273 -199
268 -213 -2 -4 -208 -231 -458 -504 -250 -274 -463 -507 -472 -518 -16 -21
-17 -21 -100 59 -149 143 -343 239 -602 299 -267 61 -562 46 -802 -40 -366
-130 -537 -389 -469 -710 31 -144 108 -252 241 -337 227 -145 388 -207 1009
-393 447 -134 583 -186 812 -312 169 -94 290 -181 403 -293 325 -320 451 -651
451 -1187 0 -444 -98 -799 -308 -1118 -321 -487 -836 -797 -1518 -916 -446
-78 -956 -68 -1389 26 -334 72 -626 188 -894 354 -129 81 -298 205 -317 235
-7 11 -28 65 -45 118 l-33 97 28 33 c83 99 878 968 886 968 5 0 9 -4 9 -9 0
-5 41 -52 90 -104 291 -307 691 -478 1120 -479 439 -1 795 165 925 430 54 109
66 267 31 400 -48 179 -187 314 -471 455 -165 83 -377 158 -975 348 -245 77
-355 121 -549 217 -342 169 -569 358 -746 623 -156 232 -225 496 -225 861 0
479 139 881 427 1238 484 599 1393 906 2378 804z m7745 -1466 l0 -1322 43 42
c23 23 580 617 1237 1321 l1195 1279 863 1 863 1 15 -36 c14 -34 14 -36 -12
-67 -23 -28 -414 -437 -2331 -2441 -344 -358 -391 -412 -379 -425 7 -9 577
-641 1266 -1406 690 -764 1277 -1416 1306 -1448 42 -47 51 -63 45 -80 -9 -24
-16 -28 -86 -53 -34 -12 -66 -34 -100 -71 -28 -29 -54 -53 -57 -53 -4 0 -2 16
3 36 8 27 7 41 -4 58 -17 25 -23 64 -14 86 4 8 8 31 9 50 2 25 -1 35 -13 38
-26 5 -44 -76 -30 -133 6 -25 9 -50 6 -55 -3 -5 -1 -18 4 -28 14 -27 -18 -55
-43 -36 -10 6 -16 18 -15 26 3 28 -2 38 -22 38 -11 0 -40 16 -64 36 -59 48
-77 35 -30 -21 19 -24 35 -46 35 -48 0 -3 -16 -11 -36 -17 -42 -14 -58 -4 -59
36 0 38 -30 55 -50 29 -34 -43 -35 -52 -15 -78 11 -14 20 -35 20 -48 0 -12 8
-31 17 -41 13 -14 14 -21 5 -30 -18 -18 -14 -46 7 -58 31 -16 71 -12 136 15
38 16 80 25 113 25 57 0 95 15 126 49 11 12 24 21 30 21 17 0 46 -112 46 -175
l0 -55 -717 0 -718 1 -1295 1511 -1295 1512 -3 -1512 -2 -1512 -695 0 -695 0
0 3180 0 3180 695 0 695 0 0 -1322z m-2400 -578 c47 -5 109 -15 138 -21 l52
-10 0 -613 0 -613 -110 28 c-289 75 -644 78 -915 9 -101 -26 -261 -105 -343
-171 -147 -118 -258 -316 -308 -552 -45 -215 -47 -278 -51 -1424 l-4 -1093
-670 0 -669 0 0 2185 0 2185 670 0 670 0 0 -355 c0 -212 4 -355 9 -355 5 0 36
44 68 98 250 420 570 650 978 701 98 12 383 13 485 1z m6637 -3763 c11 4 14 2
9 -5 -11 -18 -36 -14 -35 6 0 9 3 12 5 5 3 -7 12 -9 21 -6z m-377 -358 c0 -5
-4 -9 -10 -9 -5 0 -10 7 -10 16 0 8 5 12 10 9 6 -3 10 -10 10 -16z"/>
</g>
</svg>
