<?xml version="1.0" standalone="no"?>
<!DOCTYPE svg PUBLIC "-//W3C//DTD SVG 20010904//EN"
 "http://www.w3.org/TR/2001/REC-SVG-20010904/DTD/svg10.dtd">
<svg version="1.0" xmlns="http://www.w3.org/2000/svg"
 width="1024.000000pt" height="1024.000000pt" viewBox="0 0 1024.000000 1024.000000"
 preserveAspectRatio="xMidYMid meet">
<metadata>
Created by potrace 1.14, written by Peter Selinger 2001-2017
</metadata>
<g transform="translate(0.000000,1024.000000) scale(0.100000,-0.100000)"
fill="#000000" stroke="none">
<path d="M2545 7849 c-104 -14 -288 -57 -384 -91 -240 -84 -479 -246 -615
-417 -185 -232 -254 -422 -263 -724 -6 -182 5 -300 39 -426 82 -302 318 -571
644 -735 132 -66 260 -115 654 -248 412 -139 475 -163 590 -224 273 -145 434
-341 481 -584 18 -93 15 -300 -4 -382 -37 -153 -115 -289 -236 -409 -208 -207
-477 -310 -811 -310 -277 1 -498 68 -714 219 -99 70 -248 216 -304 299 -23 34
-45 64 -49 66 -6 4 -380 -267 -409 -295 -20 -21 197 -246 346 -358 116 -87
333 -197 483 -246 697 -225 1462 -73 1867 371 251 274 359 602 330 996 -10
148 -21 211 -49 304 -74 238 -243 455 -478 613 -171 116 -318 176 -938 388
-187 64 -385 137 -441 164 -274 129 -441 304 -499 520 -28 107 -31 296 -6 415
61 298 283 529 614 639 232 77 566 77 796 0 186 -62 379 -196 512 -356 l48
-58 191 155 191 154 -59 68 c-175 203 -502 389 -805 457 -186 43 -531 59 -722
35z"/>
<path d="M7120 7845 c-812 -98 -1505 -573 -1865 -1275 -193 -378 -277 -741
-277 -1200 0 -326 38 -579 128 -848 301 -903 1031 -1494 2004 -1624 148 -20
550 -17 690 5 261 41 454 102 685 217 208 104 320 184 486 350 117 117 258
284 248 295 -9 8 -352 227 -363 231 -6 2 -34 -25 -60 -62 -268 -364 -684 -581
-1199 -626 -287 -25 -625 24 -883 128 -354 142 -660 391 -871 709 -345 521
-447 1187 -282 1835 68 262 218 566 378 760 331 404 775 640 1296 691 164 16
421 6 549 -21 216 -46 435 -137 607 -252 101 -67 254 -212 308 -291 l32 -47
32 22 c86 60 344 251 356 263 12 12 6 23 -38 79 -275 346 -810 605 -1373 666
-129 13 -457 11 -588 -5z"/>
</g>
</svg>
