<?xml version="1.0" standalone="no"?>
<!DOCTYPE svg PUBLIC "-//W3C//DTD SVG 20010904//EN"
 "http://www.w3.org/TR/2001/REC-SVG-20010904/DTD/svg10.dtd">
<svg version="1.0" xmlns="http://www.w3.org/2000/svg"
 width="401.000000pt" height="391.000000pt" viewBox="0 0 401.000000 391.000000"
 preserveAspectRatio="xMidYMid meet">

<g transform="translate(0.000000,391.000000) scale(0.100000,-0.100000)"
fill="#000000" stroke="none">
<path d="M390 3530 l0 -310 160 0 160 0 0 310 0 310 -160 0 -160 0 0 -310z"/>
<path d="M2330 3690 l0 -150 -325 0 -325 0 0 -160 0 -160 325 0 325 0 0 -155
0 -155 -165 0 -165 0 0 -160 0 -160 165 0 165 0 0 160 0 160 160 0 160 0 0
-160 0 -160 320 0 320 0 0 160 0 160 -320 0 -320 0 0 155 0 155 320 0 319 0 3
158 3 157 163 3 162 2 0 -160 0 -160 160 0 160 0 0 160 0 160 -160 0 -160 0 0
150 0 150 -165 0 -165 0 0 -150 0 -150 -160 0 -160 0 0 150 0 150 -320 0 -320
0 0 -150z"/>
<path d="M1040 3065 l0 -155 -165 0 -165 0 0 -160 0 -160 325 0 325 0 0 -155
0 -155 160 0 160 0 0 155 0 155 -160 0 -160 0 0 315 0 315 -160 0 -160 0 0
-155z"/>
<path d="M2000 2120 l0 -160 165 0 165 0 0 160 0 160 -165 0 -165 0 0 -160z"/>
<path d="M2650 2120 l0 -160 160 0 160 0 0 160 0 160 -160 0 -160 0 0 -160z"/>
<path d="M3290 2120 l0 -160 165 0 165 0 0 -155 0 -155 160 0 160 0 0 155 0
155 -160 0 -160 0 0 160 0 160 -165 0 -165 0 0 -160z"/>
<path d="M70 1805 l0 -155 160 0 160 0 0 155 0 155 -160 0 -160 0 0 -155z"/>
<path d="M710 1805 l0 -155 165 0 165 0 0 155 0 155 -165 0 -165 0 0 -155z"/>
<path d="M1680 1490 l0 -160 -160 0 -160 0 0 -155 0 -155 -160 0 -160 0 0 155
0 155 -165 0 -165 0 0 -155 0 -155 -160 0 -160 0 0 -155 0 -155 -160 0 -160 0
0 -160 0 -160 160 0 160 0 0 160 0 160 160 0 160 0 0 -160 0 -160 165 0 165 0
0 160 0 160 320 0 320 0 0 310 0 310 160 0 160 0 0 -310 0 -310 165 0 165 0 0
155 0 155 160 0 160 0 0 -155 0 -155 160 0 160 0 0 155 0 155 -160 0 -160 0 0
315 0 315 -160 0 -160 0 0 -160 0 -160 -165 0 -165 0 0 160 0 160 -160 0 -160
0 0 -160z m-640 -625 l0 -155 -165 0 -165 0 0 155 0 155 165 0 165 0 0 -155z"/>
<path d="M2970 1490 l0 -160 160 0 160 0 0 160 0 160 -160 0 -160 0 0 -160z"/>
<path d="M3290 865 l0 -155 325 0 325 0 0 155 0 155 -325 0 -325 0 0 -155z"/>
<path d="M2650 230 l0 -160 160 0 160 0 0 160 0 160 -160 0 -160 0 0 -160z"/>
<path d="M3620 230 l0 -160 160 0 160 0 0 160 0 160 -160 0 -160 0 0 -160z"/>
</g>
</svg>
