<?xml version="1.0" standalone="no"?>
<!DOCTYPE svg PUBLIC "-//W3C//DTD SVG 20010904//EN"
 "http://www.w3.org/TR/2001/REC-SVG-20010904/DTD/svg10.dtd">
<svg version="1.0" xmlns="http://www.w3.org/2000/svg"
 width="300.000000pt" height="381.000000pt" viewBox="0 0 300.000000 381.000000"
 preserveAspectRatio="xMidYMid meet">
<metadata>
Created by potrace 1.10, written by Peter Selinger 2001-2011
</metadata>
<g transform="translate(0.000000,381.000000) scale(0.100000,-0.100000)"
fill="#000000" stroke="none">
<path d="M900 3784 c-36 -2 -157 -8 -270 -14 -204 -11 -511 -35 -582 -46 l-38
-6 0 -1041 c0 -1089 2 -1125 45 -1327 23 -111 89 -301 140 -404 199 -406 559
-707 1025 -860 74 -24 169 -50 211 -57 69 -11 83 -10 175 11 743 171 1230 675
1353 1399 20 120 21 153 21 1201 l0 1078 -37 6 c-41 6 -351 30 -613 47 -155
10 -1289 20 -1430 13z m900 -35 c206 -5 454 -13 550 -19 257 -15 573 -41 582
-46 4 -3 8 -485 8 -1072 0 -1154 2 -1112 -55 -1337 -126 -496 -456 -875 -943
-1085 -157 -68 -373 -130 -452 -130 -89 0 -315 72 -490 156 -186 89 -326 189
-471 333 -236 237 -373 500 -451 866 l-23 110 -2 1070 c-2 589 0 1075 5 1081
4 7 39 14 77 18 39 4 86 9 105 11 31 4 483 34 520 34 36 0 465 14 467 15 6 4
253 2 573 -5z"/>
<path d="M1105 3633 c-11 -2 -69 -18 -129 -34 -97 -27 -122 -30 -225 -28 -64
1 -125 -1 -137 -4 -31 -11 -44 -49 -44 -127 0 -39 -3 -71 -7 -71 -5 -1 -28 -2
-53 -4 -25 -2 -49 -4 -55 -6 -5 -2 -26 9 -47 24 -69 53 -147 40 -195 -32 -27
-40 -29 -80 -6 -128 34 -73 133 -97 192 -47 19 16 35 22 43 17 7 -4 38 -10 68
-13 l55 -5 0 -95 0 -95 -65 -6 c-54 -6 -68 -4 -85 11 -69 61 -158 51 -204 -23
-43 -69 -20 -149 54 -188 48 -26 97 -21 140 13 22 17 30 19 51 9 14 -6 45 -11
69 -11 l45 0 0 -65 c0 -119 26 -142 150 -131 76 6 181 25 340 61 104 23 206
19 302 -12 101 -32 172 -32 264 3 78 29 194 32 306 8 40 -8 91 -17 112 -20 22
-3 43 -7 47 -9 14 -10 212 -35 269 -35 70 0 99 21 101 73 5 114 2 109 73 126
27 7 70 23 97 36 27 14 66 25 87 25 68 0 89 45 51 106 -31 51 -52 58 -162 55
-135 -3 -137 -2 -137 64 0 51 2 55 28 61 52 11 67 17 124 44 32 16 76 31 99
34 23 3 48 11 55 17 35 29 0 99 -64 131 -40 19 -49 20 -98 9 -64 -15 -131 -6
-143 17 -4 10 -9 44 -10 77 -3 96 -14 103 -169 103 -137 0 -223 12 -317 45
-111 38 -309 23 -430 -34 l-41 -20 -45 25 c-77 43 -253 67 -354 49z m222 -43
c23 -5 67 -19 97 -31 l56 -20 0 -450 c0 -247 -2 -449 -5 -449 -3 0 -23 9 -45
20 -55 28 -154 50 -226 50 -34 0 -137 -16 -230 -35 -93 -20 -213 -39 -266 -42
l-98 -6 0 456 0 456 128 -6 c77 -3 143 -1 167 6 22 6 81 22 130 35 97 27 217
33 292 16z m653 -21 c99 -30 115 -32 277 -33 l173 -1 0 -457 c0 -263 -4 -458
-9 -458 -52 0 -251 28 -395 56 -246 46 -346 44 -459 -12 l-47 -23 2 446 3 445
47 19 c142 55 263 61 408 18z m-1595 -212 c17 -14 28 -36 32 -63 4 -36 1 -45
-23 -72 -63 -68 -164 -32 -164 58 0 84 93 131 155 77z m2125 -28 c25 -9 48 -9
99 1 59 11 71 10 99 -4 26 -13 62 -60 62 -80 0 -3 -13 0 -29 5 -26 9 -43 5
-123 -31 -51 -23 -107 -44 -125 -47 l-33 -6 0 87 c0 47 4 86 9 86 4 0 23 -5
41 -11z m-1940 -56 l0 -58 -57 1 -56 2 -1 56 -1 56 58 0 57 0 0 -57z m-176
-314 c36 -43 35 -91 -3 -130 -32 -31 -84 -39 -123 -18 -32 17 -51 74 -38 115
15 44 45 64 96 64 35 0 47 -5 68 -31z m2334 -2 c17 -16 47 -77 38 -77 -2 0
-17 5 -35 11 -27 10 -38 7 -89 -19 -55 -28 -97 -43 -154 -56 l-28 -6 0 82 0
83 124 0 c106 0 127 -3 144 -18z m-2158 -72 l0 -55 -57 0 -58 0 0 55 0 55 58
0 57 0 0 -55z"/>
<path d="M1075 3446 c-51 -51 -42 -116 21 -142 32 -13 38 -13 60 1 22 14 25
14 44 -5 24 -24 60 -26 100 -5 45 23 55 50 30 75 l-21 21 23 18 22 18 -33 17
c-35 19 -56 15 -95 -15 -30 -24 -33 -41 -10 -64 40 -40 -64 -56 -109 -17 -17
15 -16 18 19 53 31 32 35 41 24 54 -18 22 -47 19 -75 -9z m32 -44 l-22 -24 -3
22 c-5 30 16 53 33 37 11 -10 9 -16 -8 -35z m177 15 c16 -12 16 -14 3 -26 -25
-20 -72 11 -50 32 10 11 27 8 47 -6z m26 -93 c0 -19 -36 -27 -60 -14 -20 11
-21 13 -5 30 14 15 21 17 41 8 13 -6 24 -17 24 -24z"/>
<path d="M907 3435 c-21 -15 -22 -25 -2 -25 12 0 15 -14 15 -66 0 -57 2 -65
18 -62 14 3 18 16 20 66 3 62 8 72 30 50 8 -8 15 -8 27 2 14 12 14 15 -1 31
-13 14 -21 16 -35 8 -12 -6 -25 -6 -37 0 -12 6 -23 5 -35 -4z"/>
<path d="M736 3423 c-32 -17 -46 -43 -46 -87 0 -58 54 -94 116 -77 20 6 36 6
40 0 3 -5 10 -9 16 -9 7 0 7 4 1 13 -5 6 -9 48 -8 92 l2 80 -48 1 c-26 0 -59
-6 -73 -13z m84 -23 c29 -29 27 -94 -2 -114 -29 -20 -47 -20 -70 1 -38 35 -11
133 37 133 8 0 24 -9 35 -20z"/>
<path d="M1375 3370 c-3 -4 1 -11 7 -13 10 -4 10 -6 1 -6 -20 -1 -15 -21 5
-21 21 0 27 36 7 44 -8 3 -17 1 -20 -4z"/>
<path d="M994 3233 c-9 -16 -24 -33 -32 -39 -11 -8 -12 -13 -4 -18 7 -4 12
-27 12 -51 0 -24 3 -50 6 -59 7 -19 35 -21 52 -4 15 15 16 31 1 22 -16 -9 -29
15 -29 54 0 27 4 32 24 32 14 0 28 5 31 10 4 6 -5 10 -21 10 -25 0 -26 2 -21
35 7 42 5 43 -19 8z"/>
<path d="M1160 3253 c-56 -9 -70 -14 -80 -32 -16 -30 -3 -47 51 -69 35 -15 49
-26 49 -41 0 -27 -15 -34 -56 -27 -25 5 -35 13 -40 31 -7 28 -25 34 -23 8 2
-27 16 -80 18 -65 1 8 18 12 50 12 58 0 73 15 69 67 -3 36 -5 38 -51 51 -49
14 -55 27 -24 46 13 8 25 7 47 -6 30 -17 30 -17 30 7 0 14 -3 24 -7 24 -5 -1
-19 -3 -33 -6z"/>
<path d="M1354 3247 c-8 -21 1 -47 16 -47 19 0 23 31 7 48 -15 14 -17 14 -23
-1z"/>
<path d="M711 3193 c-24 -21 -34 -39 -38 -69 -5 -36 -2 -43 27 -67 38 -32 56
-34 70 -7 9 17 8 20 -10 20 -29 0 -60 35 -60 69 0 39 20 55 47 36 18 -13 22
-13 33 0 10 12 10 18 0 30 -18 21 -31 19 -69 -12z"/>
<path d="M836 3185 c-28 -26 -30 -33 -17 -54 6 -9 4 -22 -6 -37 -26 -40 16
-86 46 -50 10 12 8 17 -8 26 -28 15 -26 27 5 33 23 4 25 2 22 -18 -3 -13 0
-32 7 -44 l11 -22 24 26 c20 21 21 25 6 25 -15 0 -17 8 -15 48 3 50 -13 92
-35 92 -7 0 -25 -11 -40 -25z m40 -31 c4 -17 2 -29 -7 -35 -17 -10 -39 7 -39
31 0 38 37 42 46 4z"/>
<path d="M1246 3170 c-33 -39 -33 -74 -1 -105 30 -31 39 -31 59 0 21 32 20 33
-7 28 -28 -6 -50 18 -45 49 2 16 11 24 32 28 35 6 41 24 10 28 -14 2 -30 -8
-48 -28z"/>
<path d="M1353 3163 c-25 -17 -31 -35 -10 -30 8 1 13 -14 15 -45 4 -56 20 -74
48 -52 13 11 15 17 7 20 -8 3 -13 24 -13 49 0 45 -8 75 -19 74 -3 0 -16 -7
-28 -16z"/>
<path d="M1151 3016 c-18 -22 14 -43 34 -22 14 14 14 16 -4 25 -14 8 -22 7
-30 -3z"/>
<path d="M1053 2978 c-27 -51 -14 -168 18 -168 12 0 48 40 49 55 0 5 -5 4 -12
-3 -16 -16 -38 3 -38 33 0 15 8 25 23 30 l22 8 -23 4 c-20 4 -22 9 -16 39 8
43 0 43 -23 2z"/>
<path d="M748 2959 c-38 -29 -53 -80 -34 -117 8 -16 26 -36 39 -45 23 -15 25
-14 46 13 26 36 27 44 2 30 -20 -10 -51 -4 -51 11 0 4 18 22 39 39 39 32 39
32 23 61 -20 34 -28 35 -64 8z m31 -31 c12 -19 11 -23 -10 -39 -13 -10 -27
-19 -31 -19 -13 0 -9 55 4 68 16 16 21 15 37 -10z"/>
<path d="M1292 2962 c-16 -12 -23 -27 -21 -43 1 -13 -3 -35 -8 -49 -10 -25 -7
-57 8 -66 5 -2 22 2 40 11 28 15 32 15 48 1 16 -15 19 -14 37 5 14 15 15 20 4
17 -11 -2 -16 9 -18 47 -2 34 -10 57 -24 73 -26 27 -36 27 -66 4z m26 -24 c16
-16 15 -48 -2 -48 -20 0 -37 25 -30 44 7 19 16 20 32 4z m12 -79 c0 -21 -24
-31 -39 -16 -19 19 -12 37 14 35 16 -2 25 -8 25 -19z"/>
<path d="M860 2955 c-10 -12 -10 -19 -2 -27 7 -7 12 -40 12 -75 0 -48 3 -63
15 -63 11 0 15 16 17 68 2 52 6 67 18 67 12 0 16 -15 18 -67 2 -38 6 -68 10
-68 12 1 57 40 46 40 -6 0 -14 27 -18 62 -7 75 -18 89 -47 62 -20 -18 -22 -18
-34 -1 -15 21 -19 21 -35 2z"/>
<path d="M1156 2951 c-17 -18 -16 -20 3 -26 17 -5 21 -15 21 -50 0 -48 13 -64
36 -44 10 8 12 15 4 23 -5 5 -10 28 -10 51 0 37 -13 65 -30 65 -4 0 -15 -9
-24 -19z"/>
<path d="M1893 3504 c-8 -21 13 -42 28 -27 13 13 5 43 -11 43 -6 0 -13 -7 -17
-16z"/>
<path d="M1777 3493 c-4 -3 0 -11 8 -17 14 -10 14 -17 -1 -66 l-16 -55 -22 43
c-20 42 -20 44 -2 57 17 13 15 14 -15 19 -87 13 -109 14 -114 5 -4 -5 5 -9 20
-9 22 0 31 -11 65 -82 22 -45 40 -91 40 -102 0 -35 17 -4 49 89 16 49 37 95
46 101 8 6 15 14 15 18 0 8 -65 8 -73 -1z"/>
<path d="M2027 3447 c-20 -22 -33 -43 -29 -46 5 -3 12 -33 16 -66 4 -33 14
-67 22 -75 13 -13 17 -12 34 10 15 19 16 26 6 28 -15 3 -26 33 -26 73 0 23 5
27 40 33 22 3 40 11 40 17 0 6 -14 7 -37 3 l-36 -7 6 37 c3 20 5 36 4 35 -1 0
-19 -19 -40 -42z"/>
<path d="M1865 3428 l-29 -22 25 -6 c21 -5 24 -12 27 -55 2 -27 8 -55 14 -62
15 -18 39 -16 53 4 11 15 10 19 -8 28 -18 8 -21 18 -19 56 3 34 -1 49 -16 62
-18 16 -20 16 -47 -5z"/>
<path d="M2177 3390 c-18 -14 -26 -30 -26 -53 -1 -17 -1 -44 -2 -60 -1 -15 4
-34 11 -42 10 -12 15 -12 36 2 22 14 26 14 42 0 15 -14 19 -13 34 8 16 21 16
24 1 29 -12 5 -15 17 -11 57 5 47 3 51 -23 64 -35 19 -31 19 -62 -5z m34 -20
c10 -6 19 -20 19 -30 0 -23 -1 -24 -35 -8 -24 11 -32 28 -18 41 8 9 11 9 34
-3z m10 -60 c15 0 10 -47 -5 -53 -19 -7 -36 12 -36 41 0 18 4 23 16 18 9 -3
20 -6 25 -6z"/>
<path d="M1777 3234 c-3 -3 -27 -7 -54 -8 -57 -3 -98 -27 -119 -68 -36 -69 18
-130 112 -127 27 2 56 -1 62 -5 9 -5 12 21 12 103 0 109 -1 117 -13 105z m-11
-55 c24 -27 10 -38 -64 -45 -57 -6 -62 -5 -62 13 0 35 50 65 92 55 9 -2 25
-13 34 -23z m8 -80 c16 -15 -25 -49 -57 -49 -32 0 -77 33 -77 57 0 10 15 11
63 7 34 -4 66 -10 71 -15z"/>
<path d="M1927 3202 c-14 -13 -19 -13 -32 -2 -14 12 -22 11 -51 -5 -19 -10
-34 -22 -34 -27 0 -12 14 -10 29 5 10 10 15 8 27 -7 20 -27 17 -65 -6 -104
-20 -33 -20 -33 0 -22 11 6 25 20 31 31 l11 21 14 -21 c9 -12 21 -21 28 -21
13 0 53 38 45 43 -2 1 -17 9 -34 17 -21 11 -31 24 -33 44 -3 25 -2 27 18 16
20 -11 60 -6 60 8 0 4 -13 14 -29 23 -26 15 -30 15 -44 1z"/>
<path d="M2055 3159 c-42 -37 -47 -81 -14 -123 25 -32 59 -33 87 -3 l22 24
-29 -5 c-49 -7 -87 47 -61 88 7 12 12 12 35 0 37 -20 55 0 26 29 -12 12 -23
21 -26 21 -2 0 -20 -14 -40 -31z"/>
<path d="M2199 3141 c-39 -39 -41 -100 -4 -136 30 -30 33 -30 68 0 49 44 58
105 20 148 -23 25 -50 21 -84 -12z m66 -71 c0 -50 -15 -60 -44 -31 -40 40 -19
116 23 87 16 -10 21 -24 21 -56z"/>
<path d="M1608 2908 c4 -120 18 -148 51 -107 16 19 17 25 5 27 -11 3 -14 24
-14 93 0 86 -1 89 -22 89 -23 0 -23 -2 -20 -102z"/>
<path d="M1900 2978 c-20 -19 -29 -33 -22 -36 7 -2 12 -24 12 -57 0 -29 3 -60
6 -69 9 -22 37 -20 60 5 19 21 19 21 -1 18 -17 -4 -20 2 -23 44 -2 37 0 47 12
47 9 0 16 5 16 10 0 6 -7 10 -16 10 -13 0 -15 7 -10 30 3 17 4 30 3 30 -1 0
-18 -15 -37 -32z"/>
<path d="M1751 2954 c-26 -22 -31 -32 -26 -54 3 -16 1 -31 -4 -35 -12 -7 -15
-68 -5 -78 4 -3 19 3 34 15 22 16 32 18 47 9 16 -8 24 -6 42 13 26 27 26 34 4
32 -14 -1 -19 8 -21 45 -2 30 -10 53 -21 63 -17 16 -21 15 -50 -10z m27 -26
c19 -19 15 -48 -8 -48 -23 0 -35 22 -26 45 7 18 18 19 34 3z m12 -72 c0 -13
-20 -26 -41 -26 -5 0 -9 9 -9 20 0 15 7 20 25 20 15 0 25 -6 25 -14z"/>
<path d="M1996 2931 c-15 -16 -15 -19 -1 -24 11 -5 15 -20 15 -55 0 -63 13
-75 58 -56 31 13 36 13 47 -3 11 -15 15 -15 29 -4 12 11 14 17 5 27 -7 9 -9
30 -5 53 4 30 1 44 -13 62 -19 24 -19 24 -41 4 l-21 -19 20 -8 c16 -5 21 -16
21 -43 0 -40 -17 -53 -50 -35 -17 9 -20 17 -14 44 6 33 -8 76 -25 76 -4 0 -16
-8 -25 -19z"/>
<path d="M2203 2910 c-28 -22 -28 -26 -3 -33 17 -4 20 -14 20 -66 0 -54 2 -61
20 -61 18 0 20 7 20 65 0 68 3 74 29 51 14 -13 19 -12 41 4 15 12 19 20 11 20
-8 0 -22 7 -31 15 -15 14 -18 14 -30 0 -12 -14 -15 -14 -34 4 -20 19 -22 19
-43 1z"/>
<path d="M1439 2547 c-38 -21 -117 -46 -123 -40 -12 12 -70 -43 -88 -84 -10
-24 -26 -43 -34 -43 -26 0 -53 -42 -54 -82 0 -29 7 -42 32 -63 28 -24 38 -26
102 -24 67 2 71 1 74 -20 4 -27 32 -56 61 -66 34 -11 26 -48 -20 -90 l-41 -37
-22 28 c-11 15 -34 39 -51 53 -41 35 -129 118 -176 165 -31 30 -39 46 -39 75
0 95 -53 173 -125 187 -29 5 -59 0 -127 -22 -78 -24 -92 -26 -122 -16 -18 7
-40 10 -49 6 -19 -7 -41 -59 -34 -79 8 -19 -15 -35 -229 -169 -182 -114 -220
-145 -210 -171 9 -23 74 -47 118 -43 21 2 38 0 38 -4 0 -4 -25 -22 -55 -40
-100 -59 -135 -87 -135 -108 0 -28 46 -55 97 -55 23 0 43 -2 43 -5 0 -3 -27
-32 -61 -65 -33 -33 -70 -73 -81 -88 -19 -26 -19 -29 -4 -52 21 -32 75 -34
122 -4 43 26 43 20 3 -76 -42 -101 -63 -241 -41 -284 34 -72 76 -41 133 99 23
58 44 107 46 110 10 12 23 -31 23 -80 0 -83 18 -175 41 -215 14 -23 19 -44 15
-60 -12 -48 45 -194 84 -215 14 -8 26 -8 40 0 29 16 40 43 40 99 0 59 5 61 86
36 27 -8 58 -15 69 -15 11 0 27 -5 35 -10 13 -8 13 -13 -2 -38 -10 -16 -15
-32 -11 -36 3 -3 -3 -6 -14 -6 -30 0 -46 -25 -38 -57 9 -38 129 -152 197 -188
32 -17 58 -32 58 -35 0 -3 -10 -10 -22 -15 -12 -6 -26 -18 -32 -28 -9 -15 -4
-24 29 -54 22 -19 76 -68 120 -107 83 -75 111 -94 148 -102 35 -6 108 23 166
67 l55 42 18 -23 c24 -30 23 -37 -11 -43 -44 -9 -58 -42 -34 -76 23 -31 77
-69 109 -77 29 -8 89 21 109 53 26 39 21 87 -13 140 -17 26 -29 49 -27 51 2 3
26 -8 52 -24 101 -60 163 -70 231 -35 40 21 142 131 142 153 0 8 -14 28 -31
46 l-30 31 38 20 c72 38 163 134 163 173 0 11 -11 23 -25 28 -22 8 -41 2 -119
-36 -60 -29 -103 -44 -121 -42 -26 3 -18 10 71 69 145 96 175 109 305 126 103
13 102 13 105 -35 2 -43 33 -92 58 -92 41 0 113 126 123 213 3 33 15 64 31 85
22 30 23 37 12 60 -16 31 -14 50 7 115 8 27 20 46 26 44 7 -2 18 -26 25 -53
25 -87 65 -107 106 -51 20 27 21 41 21 210 0 166 -2 187 -24 242 -39 102 -39
100 -3 81 41 -21 85 -20 105 2 15 16 14 21 -3 60 -11 24 -36 63 -56 88 -37 45
-37 45 -20 75 17 28 16 30 -3 57 -11 15 -54 61 -96 102 -43 41 -92 98 -111
127 -22 34 -47 57 -73 70 -23 10 -45 29 -51 44 -13 30 -27 38 -130 72 -109 36
-163 42 -213 24 -23 -8 -59 -18 -79 -22 -65 -11 -124 -76 -133 -147 -2 -18
-12 -36 -22 -42 -10 -5 -31 -22 -46 -37 -27 -27 -27 -30 -13 -58 14 -25 14
-30 1 -41 -8 -7 -15 -22 -15 -33 0 -25 -60 -116 -77 -117 -7 0 -13 5 -13 10 0
6 5 10 10 10 6 0 10 10 10 23 0 13 11 38 25 56 19 27 22 38 14 54 -25 45 -28
78 -12 112 15 32 15 35 -6 60 -23 30 -27 60 -10 70 18 12 27 49 17 76 -7 20
-18 28 -41 32 -67 11 -133 28 -170 42 -46 19 -104 19 -138 2z m157 -48 c31
-14 58 -19 80 -16 32 5 45 -5 24 -18 -5 -3 -10 -10 -10 -15 0 -14 51 8 66 28
12 15 13 14 14 -10 0 -30 -40 -68 -74 -68 l-20 0 20 -15 c12 -8 24 -28 27 -44
5 -22 14 -32 32 -37 20 -5 23 -9 14 -20 -8 -10 -16 -11 -29 -4 -27 14 -32 12
-22 -7 5 -10 13 -36 16 -58 4 -22 17 -50 29 -62 28 -31 13 -42 -17 -14 l-24
23 5 -40 c3 -22 0 -56 -7 -77 l-12 -37 -29 34 c-34 39 -36 36 -9 -17 20 -39
28 -115 12 -115 -5 0 -15 12 -22 28 -7 15 -14 22 -17 16 -6 -18 13 -57 52
-104 20 -25 42 -56 47 -70 11 -28 0 -170 -13 -170 -5 0 -17 17 -28 38 -15 28
-20 32 -21 16 0 -11 13 -41 30 -67 32 -51 51 -127 31 -127 -6 0 -17 11 -23 25
-19 43 -29 27 -11 -17 21 -51 23 -159 3 -203 l-13 -30 -16 67 c-9 36 -19 69
-23 73 -3 3 -14 -6 -25 -20 -10 -15 -27 -38 -39 -52 l-21 -26 -6 56 c-8 64
-55 222 -64 213 -6 -6 -15 -29 -74 -191 -31 -86 -38 -186 -19 -255 9 -32 8
-33 -6 -15 -26 35 -44 116 -44 200 0 67 4 87 20 108 21 27 27 72 10 82 -6 3
-10 -4 -10 -17 0 -32 -15 -52 -34 -45 -25 10 -20 72 10 122 19 33 23 49 16 62
-9 16 -12 15 -23 -10 -16 -35 -31 -30 -42 14 -13 49 8 129 49 190 35 53 38 75
6 46 -10 -10 -22 -17 -25 -17 -10 0 -8 65 3 95 14 36 58 75 86 75 28 0 30 8 7
25 -15 11 -11 14 27 20 46 8 100 50 100 79 0 23 -9 20 -32 -9 -11 -14 -30 -25
-44 -25 -27 0 -32 15 -9 24 38 14 -1 60 -42 50 -23 -6 -63 11 -63 26 0 6 10
10 23 10 12 1 33 7 47 15 39 22 69 18 101 -15 23 -23 31 -26 36 -15 8 23 -25
65 -57 72 -17 3 -32 14 -35 24 -7 22 -54 49 -84 49 -11 0 -22 9 -26 19 -12 39
-68 38 -81 -1 -6 -21 -7 -21 -20 -3 -28 38 -10 101 36 125 17 9 22 6 34 -25 8
-19 20 -35 27 -35 7 0 8 7 4 18 -16 38 -17 62 -3 62 8 0 19 -5 26 -12 10 -10
16 -7 28 11 32 45 82 48 170 10z m-623 -49 c33 -26 50 -80 45 -141 -5 -53 4
-69 39 -69 28 0 30 -21 3 -45 -17 -16 -26 -17 -56 -7 -33 10 -37 9 -64 -21
-30 -32 -39 -80 -19 -92 7 -5 8 -25 4 -56 -9 -62 2 -67 91 -45 64 16 67 16 98
-4 43 -26 46 -25 46 9 0 23 -8 34 -36 50 -33 20 -36 25 -31 54 3 18 13 51 22
73 l16 39 18 -41 c13 -28 36 -54 75 -80 79 -55 99 -103 76 -185 -7 -24 -7 -46
-1 -62 8 -19 6 -34 -7 -59 -22 -44 -24 -177 -2 -203 10 -12 14 -35 12 -74 -3
-43 1 -61 15 -76 14 -16 18 -37 18 -98 0 -42 0 -77 -1 -77 -1 0 -18 34 -38 76
-42 85 -92 126 -168 138 -65 10 -67 -3 -14 -78 20 -29 35 -126 19 -126 -19 0
-83 77 -89 108 -6 32 -7 32 -26 15 -33 -30 -52 -75 -58 -138 l-5 -60 -22 59
-22 59 49 62 c57 71 133 201 128 217 -2 6 -46 -46 -98 -116 l-94 -127 -20 43
-21 43 33 44 c47 62 116 201 93 186 -5 -3 -40 -53 -77 -111 l-67 -105 -23 22
-22 21 -7 -56 c-7 -51 -12 -59 -63 -108 l-57 -53 -6 45 c-6 44 -5 47 52 113
60 69 146 204 136 213 -2 3 -47 -49 -98 -115 -52 -66 -97 -120 -100 -120 -3
-1 -14 14 -24 32 l-17 33 46 66 c49 71 102 176 92 185 -3 3 -42 -51 -87 -121
-50 -77 -86 -123 -92 -117 -5 5 -2 43 8 96 9 48 14 90 11 93 -10 10 -35 -65
-43 -129 -7 -58 -10 -64 -33 -67 -38 -5 -44 -18 -20 -40 19 -18 22 -30 20 -79
-4 -91 -2 -114 15 -139 19 -30 19 -34 -4 -34 -11 0 -23 -4 -26 -10 -14 -22
-23 -7 -34 59 -14 88 -14 320 0 411 6 39 9 77 7 86 -2 10 -50 -98 -108 -240
-57 -141 -109 -255 -115 -253 -6 2 -9 31 -8 68 2 110 79 318 163 440 22 32 40
64 40 70 0 7 -42 -28 -93 -78 -63 -61 -108 -95 -139 -107 -99 -38 -87 -17 75
138 87 82 157 152 157 157 0 5 -26 -5 -57 -21 -71 -37 -155 -56 -207 -46 l-38
7 118 67 c116 66 234 161 234 188 0 18 3 19 -74 -17 -68 -32 -161 -47 -211
-35 -24 6 -12 16 132 105 87 53 196 122 243 152 47 30 93 53 102 51 10 -2 25
1 35 7 15 9 11 10 -19 11 -40 0 -72 24 -64 47 3 8 6 19 6 24 0 5 5 9 10 9 6 0
10 -6 10 -14 0 -33 54 -34 146 -2 87 31 133 32 167 6z m1347 -10 c47 -16 95
-30 108 -30 32 0 27 -20 -8 -26 -41 -9 -38 -20 8 -28 44 -7 134 -55 140 -75 3
-9 0 -11 -9 -6 -16 9 64 -75 174 -183 43 -42 73 -78 67 -80 -16 -6 -104 55
-173 118 -99 90 -74 47 43 -77 102 -106 210 -243 210 -264 0 -12 -97 27 -143
57 -24 16 -64 65 -113 139 -42 63 -83 115 -91 115 -13 0 -13 -4 2 -26 9 -14
48 -78 86 -141 148 -244 164 -292 163 -488 -1 -132 -14 -215 -34 -215 -5 0
-31 96 -59 213 -71 291 -104 393 -162 485 -20 32 -32 27 -15 -6 47 -91 115
-332 129 -458 5 -41 4 -42 -34 -53 -21 -6 -51 -23 -67 -36 -17 -14 -31 -25
-33 -25 -2 0 -5 41 -6 90 -3 117 -57 350 -77 330 -2 -3 4 -61 15 -130 10 -69
19 -131 19 -138 0 -7 -36 32 -80 87 -45 55 -85 103 -90 106 -43 26 59 -141
124 -205 43 -41 46 -48 46 -95 0 -91 -8 -88 -140 69 -67 80 -127 146 -132 146
-5 0 8 -33 29 -72 27 -52 64 -98 130 -164 l92 -91 -25 -37 c-15 -22 -30 -34
-37 -29 -36 21 -87 68 -87 80 0 8 -5 23 -10 34 -8 14 -15 17 -27 10 -14 -7
-30 5 -79 57 -34 37 -65 64 -69 60 -8 -7 37 -82 72 -119 24 -26 24 -26 6 -65
-9 -21 -19 -41 -20 -43 -2 -3 -28 19 -58 49 -30 30 -57 51 -61 47 -11 -11 35
-74 76 -102 l39 -27 -14 -37 c-14 -34 -82 -104 -148 -153 l-29 -21 21 40 c27
54 67 101 102 119 56 28 20 71 -49 59 l-37 -6 -13 92 c-7 51 -15 95 -17 97 -2
3 -20 -7 -38 -21 -26 -20 -36 -36 -41 -69 -6 -45 -56 -158 -68 -158 -5 0 -8
25 -8 55 0 42 -6 64 -25 93 -31 48 -47 124 -30 149 8 13 11 71 11 194 l-1 175
-31 40 c-25 32 -30 46 -27 76 5 35 6 36 37 31 31 -5 34 -2 49 35 9 23 26 46
37 52 25 13 35 52 20 79 -12 24 -10 25 25 9 30 -14 42 -50 26 -84 -19 -42 -14
-54 22 -54 53 0 80 21 100 75 10 28 27 59 38 71 25 26 24 51 -2 65 -14 7 -19
17 -16 30 7 25 4 24 -31 -11 -32 -32 -60 -37 -94 -19 -15 8 -27 8 -44 0 -20
-9 -24 -8 -24 5 0 8 17 22 38 31 61 25 74 42 67 84 -6 33 -2 41 34 79 30 32
46 41 68 39 15 -1 44 5 63 14 51 23 94 20 190 -13z m-1110 -98 c0 -34 21 -42
111 -42 79 0 91 -3 116 -24 l28 -25 -43 6 c-23 3 -77 0 -118 -7 -71 -12 -77
-12 -102 7 -30 23 -38 52 -22 82 13 26 30 27 30 3z m830 -177 c0 -3 -7 -17
-17 -31 -9 -14 -23 -39 -32 -57 -22 -43 -36 -43 -38 -1 -1 20 -9 44 -17 53
-24 26 -20 33 14 26 16 -3 37 -2 47 4 19 11 43 14 43 6z m-979 -80 c-1 -33 -4
-61 -6 -63 -1 -2 -22 -4 -46 -5 -37 -2 -44 1 -45 18 -1 11 -4 34 -8 51 -10 44
13 64 67 61 l41 -2 -3 -60z m468 -670 c9 -34 10 -87 5 -169 -5 -88 -4 -117 5
-112 6 4 11 17 11 29 1 44 65 157 90 157 13 0 42 -145 34 -175 -3 -17 -23 -61
-44 -100 -23 -44 -40 -91 -44 -125 -8 -63 4 -58 23 10 7 25 28 69 47 98 23 35
41 79 50 124 14 69 26 99 47 126 8 10 13 6 24 -19 21 -50 16 -92 -21 -165 -19
-38 -33 -70 -31 -72 10 -11 49 25 65 59 13 30 19 36 24 24 13 -35 5 -59 -34
-101 -30 -33 -40 -52 -40 -76 l1 -33 34 40 c45 51 75 113 75 152 0 16 16 60
35 97 19 37 35 80 35 95 0 14 8 38 18 51 l17 25 11 -70 c10 -66 7 -92 -12
-139 -7 -19 -5 -18 24 3 35 25 110 42 98 23 -4 -7 -13 -12 -21 -12 -30 0 -74
-52 -101 -120 -20 -51 -41 -84 -78 -120 -102 -101 -4 -67 112 38 155 141 169
156 186 207 25 71 57 135 69 135 16 0 1 -143 -21 -192 -10 -24 -32 -55 -47
-71 -15 -15 -26 -29 -24 -32 9 -8 166 85 213 126 26 23 63 67 83 98 19 31 45
66 56 79 26 28 126 87 134 78 3 -3 -6 -19 -21 -36 -14 -17 -26 -44 -26 -58 0
-15 -11 -51 -25 -79 -18 -40 -21 -53 -10 -53 8 0 17 5 20 10 3 6 15 10 26 10
29 0 -99 -126 -153 -150 -25 -11 -92 -27 -149 -36 -135 -21 -192 -43 -300
-116 -48 -33 -114 -70 -146 -83 -32 -13 -59 -27 -60 -32 -5 -14 81 -43 127
-43 35 0 68 13 149 55 57 30 107 55 110 55 3 0 -28 -34 -69 -75 -103 -104
-141 -118 -324 -122 -112 -2 -143 -6 -165 -20 l-26 -18 42 -5 c24 -4 53 -16
65 -27 57 -52 100 -55 153 -13 46 37 95 39 145 8 l35 -21 -25 -9 c-14 -5 -38
-27 -55 -49 -66 -90 -132 -95 -261 -21 -49 29 -95 52 -101 52 -18 0 -34 -36
-26 -57 4 -10 24 -40 45 -66 44 -57 48 -88 13 -122 -39 -40 -77 -33 -133 21
l-47 45 35 -6 c39 -8 38 -8 63 -6 24 1 22 33 -8 89 -14 26 -25 57 -25 69 0 30
-11 29 -41 -3 -42 -47 -139 -113 -174 -120 -51 -9 -70 1 -168 93 -50 46 -108
93 -129 104 -21 11 -38 22 -38 26 0 11 161 -7 198 -23 20 -8 57 -37 82 -64 62
-67 79 -66 152 10 32 32 58 63 58 68 0 5 -26 17 -59 27 -59 18 -161 18 -206 0
-13 -5 -6 7 19 33 53 56 112 78 161 62 20 -7 52 -27 70 -46 42 -42 47 -42 34
-4 -24 66 -122 118 -200 106 -21 -3 -75 -24 -120 -46 -46 -22 -92 -40 -103
-40 -55 1 -173 81 -241 164 -37 46 -42 75 -7 43 10 -9 44 -29 77 -44 76 -35
160 -37 220 -4 55 29 139 28 230 -5 39 -13 79 -27 90 -31 28 -8 -51 54 -100
80 -55 28 -180 34 -255 12 -92 -27 -98 -28 -127 -12 -101 54 -103 55 -90 65
49 39 119 52 171 32 16 -6 26 -6 26 0 0 18 -58 40 -132 50 -160 22 -377 77
-403 101 -18 18 19 30 76 26 l57 -5 -41 37 c-54 49 -68 85 -58 151 9 56 5 86
-13 109 -9 12 -6 13 19 7 53 -13 65 -34 80 -141 11 -78 18 -103 37 -122 l24
-23 -4 37 c-3 41 15 80 25 55 11 -28 64 -80 94 -92 45 -19 52 -3 28 59 -15 41
-19 72 -17 135 l3 81 22 -40 c12 -23 28 -67 36 -98 16 -61 49 -123 92 -172
l26 -30 -6 90 c-5 80 -3 94 16 124 20 32 22 33 31 15 6 -10 26 -33 44 -51 32
-30 34 -35 34 -102 0 -69 0 -69 43 -106 23 -20 80 -58 127 -83 46 -26 107 -68
134 -94 27 -27 52 -48 54 -48 8 0 -11 46 -27 64 -9 10 -50 41 -91 69 -88 59
-146 110 -168 152 -11 22 -16 62 -18 143 -2 109 -3 115 -30 143 -15 16 -26 31
-23 33 2 3 23 -3 45 -13 71 -32 144 -139 184 -272 15 -49 65 -122 131 -193 4
-5 -1 19 -11 52 -27 85 -35 196 -21 277 14 77 60 200 71 188 4 -4 13 -30 19
-58z m-744 -132 c0 -21 4 -54 9 -73 l8 -35 -31 29 c-43 41 -48 63 -20 92 30
32 34 31 34 -13z m1574 -87 c9 -11 7 -18 -15 -35 -46 -36 -76 -2 -58 66 l6 23
28 -20 c15 -10 32 -26 39 -34z m-71 -64 c9 -7 8 -13 -8 -27 -24 -22 -31 -17
-23 13 6 24 11 26 31 14z m-1705 -96 c4 -6 6 -40 5 -76 -2 -48 -7 -65 -17 -65
-13 0 -61 105 -76 167 l-7 26 44 -21 c23 -11 46 -26 51 -31z m1968 -9 c-24
-69 -72 -159 -87 -164 -17 -6 -25 38 -17 92 5 39 11 50 42 70 20 12 45 32 55
44 28 31 30 21 7 -42z m-1371 -362 c0 -4 -6 -18 -14 -33 -13 -25 -19 -27 -55
-24 -23 2 -41 7 -41 11 0 3 22 16 48 28 50 23 62 26 62 18z m640 -85 c0 -16
-47 -16 -64 1 -6 5 4 9 27 9 20 0 37 -4 37 -10z m-449 -26 c12 -14 9 -20 -20
-45 -19 -16 -40 -25 -49 -22 -17 7 -71 64 -72 76 0 4 29 7 64 7 46 0 67 -4 77
-16z"/>
<path d="M1473 2460 c-28 -12 -31 -34 -3 -27 16 4 20 0 20 -19 0 -18 -4 -22
-17 -18 -15 5 -15 3 1 -10 27 -22 38 -20 103 10 l56 27 -54 23 c-59 25 -73 27
-106 14z m97 -30 c13 -9 13 -11 0 -20 -22 -15 -29 -12 -27 10 1 22 6 24 27 10z"/>
</g>
</svg>
