<?xml version="1.0" standalone="no"?>
<!DOCTYPE svg PUBLIC "-//W3C//DTD SVG 20010904//EN"
 "http://www.w3.org/TR/2001/REC-SVG-20010904/DTD/svg10.dtd">
<svg version="1.0" xmlns="http://www.w3.org/2000/svg"
 width="700.000000pt" height="700.000000pt" viewBox="0 0 700.000000 700.000000"
 preserveAspectRatio="xMidYMid meet">
<metadata>
Created by potrace 1.14, written by Peter Selinger 2001-2017
</metadata>
<g transform="translate(0.000000,700.000000) scale(0.100000,-0.100000)"
fill="#000000" stroke="none">
<path d="M388 6559 c-168 -18 -318 -144 -369 -311 -18 -61 -19 -128 -18 -2433
0 -1376 4 -2395 9 -2430 11 -68 13 -80 30 -150 7 -27 17 -54 21 -60 5 -5 9
-15 9 -22 0 -25 62 -148 115 -228 147 -220 383 -388 640 -454 56 -14 89 -20
170 -27 98 -10 5523 -11 5615 -1 298 30 475 353 344 624 -57 116 -193 220
-314 238 -24 4 -1288 7 -2808 7 -1734 0 -2778 4 -2802 10 -48 13 -114 72 -136
123 -17 38 -18 185 -19 2390 -1 1812 -4 2360 -14 2395 -57 213 -256 351 -473
329z"/>
<path d="M6007 5669 c-32 -9 -82 -32 -111 -49 -35 -21 -306 -286 -787 -766
l-734 -734 -410 409 c-225 225 -428 420 -450 433 -97 60 -227 82 -331 57 -127
-30 -115 -20 -979 -884 -601 -601 -817 -823 -837 -861 -56 -104 -69 -242 -33
-348 95 -279 445 -390 675 -214 14 10 305 299 647 640 343 342 625 620 627
617 3 -2 191 -189 418 -415 365 -363 421 -414 478 -442 147 -72 304 -62 436
28 59 40 1814 1789 1868 1862 68 91 93 240 61 362 -60 231 -312 373 -538 305z"/>
</g>
</svg>
