<?xml version="1.0" standalone="no"?>
<!DOCTYPE svg PUBLIC "-//W3C//DTD SVG 20010904//EN"
 "http://www.w3.org/TR/2001/REC-SVG-20010904/DTD/svg10.dtd">
<svg version="1.0" xmlns="http://www.w3.org/2000/svg"
 width="512.000000pt" height="512.000000pt" viewBox="0 0 512.000000 512.000000"
 preserveAspectRatio="xMidYMid meet">
<metadata>
Created by potrace 1.14, written by Peter Selinger 2001-2017
</metadata>
<g transform="translate(0.000000,512.000000) scale(0.100000,-0.100000)"
fill="#000000" stroke="none">
<path d="M0 3478 c0 -903 2 -1639 4 -1637 3 2 217 479 476 1059 l472 1055 69
68 c38 38 77 79 85 93 9 13 22 24 29 24 15 0 -56 169 630 -1485 317 -765 587
-1406 599 -1425 54 -82 133 -144 236 -186 36 -14 55 -28 55 -39 0 -15 -18 -17
-180 -16 -104 1 -245 -5 -333 -14 -164 -18 -189 -16 -177 13 51 123 26 209
-269 947 l-204 510 -522 0 -522 0 -224 -520 -224 -519 0 -149 0 -148 57 -26
c32 -14 97 -35 145 -47 71 -17 88 -25 88 -40 0 -17 -7 -18 -145 -11 l-145 7 0
-496 0 -496 2560 0 2560 0 0 516 c0 488 -1 516 -17 509 -205 -84 -316 -105
-590 -112 -242 -6 -323 1 -487 44 -251 65 -454 182 -642 368 -306 305 -464
719 -464 1221 0 325 53 571 174 813 58 114 82 153 162 256 248 320 615 522
1053 580 127 17 342 19 466 4 80 -10 281 -55 328 -74 16 -7 17 21 17 494 l0
501 -2560 0 -2560 0 0 -1642z"/>
<path d="M4315 4054 c-479 -52 -783 -305 -933 -775 -105 -328 -130 -789 -61
-1134 116 -580 502 -992 1014 -1082 70 -12 133 -14 280 -10 210 6 293 20 420
70 l80 32 3 1371 2 1372 -86 36 c-108 45 -224 80 -334 101 -85 16 -310 27
-385 19z"/>
<path d="M747 3131 c-131 -302 -237 -551 -237 -555 0 -3 209 -6 464 -6 l464 0
-221 555 c-122 305 -225 555 -228 555 -3 0 -112 -247 -242 -549z"/>
</g>
</svg>
