<?xml version="1.0" encoding="UTF-8"?>
<svg width="710px" height="708px" viewBox="0 0 710 708" version="1.1" xmlns="http://www.w3.org/2000/svg" xmlns:xlink="http://www.w3.org/1999/xlink">
    <!-- Generator: Sketch 49 (51002) - http://www.bohemiancoding.com/sketch -->
    <title>Artboard Copy 14</title>
    <desc>Created with Sketch.</desc>
    <defs>
        <polygon id="path-1" points="0 0.126221017 334.421966 0.126221017 334.421966 682.483455 0 682.483455"></polygon>
        <polygon id="path-3" points="0.748383771 0.827932203 41.4656483 0.827932203 41.4656483 57.0158427 0.748383771 57.0158427"></polygon>
    </defs>
    <g id="Artboard-Copy-14" stroke="none" stroke-width="1" fill="none" fill-rule="evenodd">
        <g id="Group" transform="translate(26.000000, 12.000000)">
            <g id="Group-46">
                <g id="Group-48">
                    <g id="Page-1">
                        <g id="Group-3" transform="translate(0.000000, 1.338169)">
                            <mask id="mask-2" fill="white">
                                <use xlink:href="#path-1"></use>
                            </mask>
                            <g id="Clip-2"></g>
                            <path d="M270.505037,682.483455 C268.918772,682.483455 267.336005,682.470628 265.756738,682.44614 C237.906115,682.003021 208.630186,679.171726 181.260108,672.917923 C157.411306,667.468729 135.011138,659.421462 116.260547,648.09395 C97.6207609,636.834072 89.8842175,618.09715 74.8065308,603.060268 C20.0722069,548.472716 -9.06842319,471.623116 2.86355912,391.545746 C4.99102106,377.265665 14.8200352,372.400689 2.09725292,348.525923 C-4.13467097,313.184879 3.63103168,276.922614 23.9235662,246.596974 L30.1951467,237.223848 C38.5941892,224.673096 44.9707432,211.008716 48.9422388,196.658668 C70.441968,118.976472 124.294515,57.1369329 192.286986,24.8009329 C225.736193,8.89297356 248.619239,0.126221017 286.74443,0.126221017 L296.368163,0.126221017 C320.902791,0.126221017 341.511412,0.126221017 332.094127,58.2727159 L322.933444,112.477787 C319.921872,130.295821 320.135318,148.464852 323.564451,166.216418 L326.939931,183.690452 C331.855021,209.134791 330.142787,235.318438 321.949026,260.004811 C315.831407,278.43738 313.309711,297.755021 314.505242,317.030682 L314.298795,318.601421 C312.887485,329.358709 309.637973,339.796485 305.117117,349.767821 C301.534023,357.672824 302.659572,362.030546 306.731375,376.280309 L308.201003,381.42515 C314.754846,404.363536 319.330522,427.734546 322.760821,451.265313 C322.924113,452.391767 323.102568,453.514723 323.293853,454.637679 L327.268848,477.896743 C330.455375,496.549706 329.806872,515.604974 325.355998,534.027048 C321.006598,552.036323 313.853241,552.908567 317.470159,569.328445 C319.825064,580.022763 329.832533,604.284675 331.040894,615.146913 L331.401302,618.381679 C332.992233,632.679252 329.255179,647.194885 320.211133,658.789435 C309.004633,673.154641 290.914209,682.483455 270.505037,682.483455" id="Fill-1" fill="#EB9075" mask="url(#mask-2)"></path>
                        </g>
                        <path d="M239.801469,641.864702 C238.957016,641.864702 238.103232,641.636146 237.334593,641.155713 C213.583766,626.329896 199.070603,599.408106 200.361777,572.570275 C200.485412,569.997855 202.66886,568.015482 205.246541,568.135591 C207.819557,568.259197 209.805888,570.445638 209.682253,573.019224 C208.550872,596.537163 221.344803,620.176377 242.27651,633.242546 C244.46229,634.606885 245.128288,637.483658 243.763633,639.668933 C242.878357,641.085746 241.357409,641.864702 239.801469,641.864702" id="Fill-4" fill="#9E1032"></path>
                        <path d="M245.285632,572.719653 C245.081517,572.719653 244.876235,572.706826 244.668621,572.680005 C242.114267,572.341836 240.316888,569.997972 240.655136,567.444209 C241.492591,561.111111 246.383188,555.396046 254.073076,551.763639 C256.866536,550.444778 259.729979,549.473416 262.498945,548.533538 C265.236419,547.605321 267.822265,546.727246 270.203996,545.575138 C273.78709,543.841144 277.745756,540.695002 278.113163,537.059097 C278.478237,533.443016 275.56814,529.865416 272.199658,525.722256 C268.394954,521.04269 264.081712,515.73926 264.00823,508.893077 C263.916087,500.241768 270.571404,493.832873 277.09492,488.702026 C282.575701,484.39328 287.147878,480.454188 287.593432,475.884236 C288.064646,471.037917 283.406158,466.506446 278.559883,464.535734 C272.476088,462.061266 264.990315,462.1289 258.385152,462.188372 C249.239632,462.268833 238.875253,462.360955 230.332747,465.953714 C218.705188,470.843178 210.984973,481.547992 202.802876,494.001958 C201.388067,496.153416 198.495465,496.755124 196.341177,495.339477 C194.188055,493.924995 193.589706,491.033063 195.004515,488.880439 C202.363154,477.681199 211.521504,463.743951 226.714662,457.353714 C236.953073,453.049633 248.294871,452.948182 258.301173,452.859558 C265.782281,452.788426 274.260637,452.716127 282.076494,455.893755 C289.877188,459.066717 297.836508,466.958894 296.880083,476.787965 C296.013469,485.694649 288.412225,491.672087 282.862628,496.035639 C278.125993,499.761334 273.290216,504.189022 273.339204,508.792792 C273.377694,512.382053 276.321616,516.002799 279.439327,519.836941 C283.521628,524.857009 288.148625,530.547585 287.396315,537.995477 C286.746646,544.427694 281.962189,550.251205 274.267635,553.972236 C271.368035,555.375056 268.384457,556.388399 265.498853,557.367924 C262.861687,558.26349 260.370317,559.107748 258.058568,560.200385 C253.361589,562.418311 250.312694,565.583111 249.904464,568.666283 C249.594209,571.01248 247.590382,572.719653 245.285632,572.719653" id="Fill-6" fill="#9E1032"></path>
                        <path d="M307.139022,575.319477 C300.707648,575.319477 294.235452,573.271802 289.22122,569.487802 C281.880077,563.947653 276.898503,548.542283 277.122447,540.860005 C277.197095,538.284087 279.345551,536.263233 281.9209,536.333199 C284.497415,536.408995 286.523402,538.556955 286.448755,541.131707 C286.281964,546.892249 290.674519,558.8961 294.843132,562.042243 C299.444468,565.514894 305.877008,566.833755 311.630719,565.482243 C314.139585,564.901524 316.650783,566.450107 317.238634,568.958392 C317.827652,571.465511 316.271712,573.977294 313.762847,574.566175 C311.602726,575.072263 309.372624,575.319477 307.139022,575.319477" id="Fill-8" fill="#9E1032"></path>
                        <path d="M216.305844,466.177372 C214.298519,466.177372 212.445154,464.872504 211.838641,462.850484 C207.548726,448.54125 203.341623,431.580301 204.67362,414.283515 C206.11059,395.624721 214.309016,379.109223 227.168264,368.969969 C238.477404,360.050457 251.779873,357.279799 264.643786,354.600098 C269.881961,353.509793 275.298591,352.382172 280.453954,350.852247 C282.924329,350.124599 285.520673,351.528586 286.254321,353.996057 C286.986802,356.46586 285.578991,359.062769 283.108616,359.795081 C277.582347,361.435786 271.972099,362.60422 266.547305,363.733006 C254.196595,366.306593 242.531712,368.735582 232.946469,376.294254 C222.128372,384.824287 215.214121,398.931786 213.977767,414.998335 C212.763574,430.771026 216.732736,446.684816 220.776547,460.173115 C221.516027,462.640586 220.115214,465.239826 217.647172,465.980301 C217.200452,466.113237 216.749066,466.177372 216.305844,466.177372" id="Fill-10" fill="#9E1032"></path>
                        <path d="M88.7302094,351.179805 C82.1180483,351.179805 74.9541935,350.840469 68.2778819,348.124618 C60.4771881,344.953988 52.5167014,337.062978 53.4731262,327.230408 C54.3409067,318.323723 61.9409846,312.346286 67.4905811,307.982734 C72.2272165,304.258205 77.0641598,299.829351 77.0140058,295.226747 C76.9755156,291.637486 74.0315935,288.015574 70.9138819,284.181432 C66.8315811,279.161364 62.2045846,273.470788 62.9568943,266.025228 C63.6065634,259.590679 68.3921864,253.767167 76.085574,250.046137 C78.985174,248.643317 81.9675864,247.63114 84.8508572,246.652781 C87.4903563,245.757215 89.9828926,244.910625 92.2946412,243.819154 C96.9927864,241.601228 100.040516,238.436428 100.448746,235.353256 C100.785827,232.799493 103.132567,231.009527 105.685755,231.339534 C108.240108,231.678869 110.036321,234.022734 109.699239,236.576496 C108.860618,242.909595 103.970022,248.624659 96.2789669,252.254734 C93.4866731,253.573595 90.6220642,254.546123 87.8519315,255.486001 C85.1144572,256.415384 82.5297775,257.292293 80.1492129,258.444401 C76.5661191,260.177228 72.6074536,263.323371 72.2412129,266.960442 C71.8761386,270.576523 74.7850696,274.154123 78.153551,278.297283 C81.9594218,282.976849 86.2714979,288.281445 86.3449793,295.126462 C86.4371227,303.777771 79.7818058,310.186666 73.258289,315.316347 C67.7775085,319.625093 63.2053315,323.564184 62.7609439,328.134137 C62.2885634,332.982788 66.9470519,337.513093 71.7921598,339.483805 C77.8759545,341.95594 85.0398094,341.897635 91.9692235,341.831167 C101.112411,341.750706 111.475624,341.658584 120.021629,338.064659 C131.649188,333.176361 139.368236,322.470381 147.550333,310.017581 C148.965142,307.864957 151.857744,307.264415 154.012032,308.681228 C156.165155,310.09571 156.76467,312.986476 155.349861,315.140266 C147.991222,326.33834 138.832871,340.274422 123.638547,346.664659 C113.397804,350.969906 102.057172,351.071357 92.0520359,351.159981 C90.9649775,351.16931 89.8545917,351.179805 88.7302094,351.179805" id="Fill-12" fill="#9E1032"></path>
                        <path d="M68.5705246,267.688439 C68.5250361,267.688439 68.4783812,267.687273 68.4317264,267.686107 C65.8563777,267.611477 63.8292237,265.463517 63.9050379,262.888765 C64.071829,257.127056 59.6792733,245.123205 55.5106609,241.977063 C50.9093246,238.505578 44.4767848,237.190216 38.7230733,238.535897 C36.2142078,239.124778 33.7041759,237.570365 33.1139919,235.06208 C32.5249742,232.553795 34.080914,230.044344 36.5897795,229.455463 C44.9724927,227.485917 54.3769476,229.430975 61.1325724,234.531504 C68.4725494,240.070487 73.4552892,255.477022 73.2313458,263.1593 C73.1578644,265.688575 71.0840556,267.688439 68.5705246,267.688439" id="Fill-14" fill="#9E1032"></path>
                        <path d="M52.5136688,462.17123 C50.8504228,462.17123 49.2419963,461.280328 48.3998759,459.714254 C47.1798512,457.44502 48.0313025,454.616057 50.3010618,453.397481 C60.0402653,448.16285 70.9050175,445.272084 81.41286,442.474606 C94.8342989,438.902837 107.511593,435.528138 117.40709,427.725752 C128.225187,419.194552 135.138272,405.087054 136.375793,389.021671 C137.589986,373.246647 133.620823,357.334023 129.577012,343.846891 C128.837533,341.37942 130.238345,338.780179 132.706387,338.039704 C135.17443,337.300396 137.775439,338.700884 138.514918,341.168355 C142.804833,355.477589 147.01077,372.437372 145.678773,389.736491 C144.24297,408.394118 136.044543,424.909616 123.185295,435.050037 C111.775848,444.047677 97.5601096,447.830511 83.8132529,451.489738 C73.8244458,454.14845 63.4962246,456.898118 54.7181113,461.613833 C54.0159556,461.99165 53.2589804,462.17123 52.5136688,462.17123" id="Fill-16" fill="#9E1032"></path>
                        <path d="M146.877104,193.546527 C143.38382,193.546527 139.639767,192.757077 135.864222,191.177009 C132.882976,189.928114 130.173495,188.3737 127.552658,186.870595 C125.161596,185.49926 122.902334,184.202555 120.552095,183.192711 C106.314196,177.075341 89.9068451,187.072331 84.5147088,190.358405 C82.3149319,191.700588 79.4444912,191.004426 78.1031637,188.803992 C76.7618363,186.603558 77.4581602,183.733782 79.6579372,182.393931 C96.8537549,171.911843 111.852128,169.297443 124.236663,174.621863 C127.080277,175.843938 129.681286,177.336548 132.19715,178.779016 C134.679188,180.203992 137.023596,181.548507 139.469477,182.572344 C144.36124,184.620019 149.031392,184.763449 151.962484,182.951327 C155.316969,180.880331 156.469344,176.496955 157.803673,171.42208 C159.30596,165.707016 161.008863,159.229321 166.566624,154.95206 C173.483208,149.629972 182.811849,150.492887 191.025438,152.042636 C196.826971,153.136439 204.049144,154.496114 208.673808,151.617009 C213.045369,148.896494 213.950473,142.737144 212.584652,138.059911 C210.868919,132.181592 206.373723,127.016927 202.025489,122.02368 C195.976686,115.07488 189.722601,107.889361 181.429698,103.893131 C169.116312,97.9588393 153.378459,99.7849546 140.733824,101.254243 C138.174804,101.544602 135.85839,99.7184868 135.560965,97.1600597 C135.263541,94.6004664 137.097077,92.2845885 139.657263,91.9872325 C153.500928,90.3791783 170.729404,88.3793139 185.481673,95.4890359 C195.501973,100.319029 202.707817,108.596019 209.064542,115.899314 C213.839668,121.384656 219.251633,127.601144 221.542387,135.445511 C224.327682,144.987721 221.064174,154.894921 213.605227,159.536005 C205.894344,164.33568 196.302104,162.530555 189.296875,161.210527 C183.113939,160.045592 176.255673,159.267802 172.257351,162.345144 C169.224785,164.67968 168.060746,169.107368 166.827891,173.795097 C165.218298,179.917131 163.394093,186.856602 156.867077,190.888982 C154.000135,192.657958 150.580334,193.546527 146.877104,193.546527" id="Fill-18" fill="#9E1032"></path>
                        <path d="M140.037267,237.491653 C138.146578,237.491653 136.367861,236.33488 135.666872,234.459788 L135.501247,234.019002 C132.993548,227.317416 130.625814,220.990148 130.629313,213.430311 C130.633978,204.579599 141.438079,189.414446 148.22053,184.582121 C150.318833,183.086012 153.23243,183.574609 154.727718,185.672426 C156.224173,187.770243 155.735463,190.681999 153.637161,192.178107 C148.687079,195.705565 139.962619,208.576995 139.960286,213.434975 C139.957953,219.302799 141.941952,224.607395 144.24087,230.750419 L144.406495,231.192372 C145.309267,233.605036 144.084576,236.2929 141.670187,237.195463 C141.13249,237.396033 140.57963,237.491653 140.037267,237.491653" id="Fill-20" fill="#9E1032"></path>
                        <path d="M175.926173,95.3127214 C174.942922,95.3127214 173.951506,95.0025383 173.107053,94.3635146 C171.055405,92.8044366 170.65534,89.8786875 172.214779,87.8263485 C181.387126,75.7548637 192.802405,62.0916502 207.927913,52.285901 C224.169639,41.7548366 242.846749,37.4670807 259.167788,40.521101 C273.747434,43.2474468 285.786722,51.3005451 297.430611,59.0889383 C306.271708,65.0034061 314.621763,70.5890332 324.029717,74.0698468 C326.445273,74.9642468 327.679294,77.6474468 326.784687,80.0636095 C325.89008,82.4797722 323.206258,83.71584 320.789536,82.8179417 C310.349343,78.9546468 301.144338,72.7964637 292.242589,66.8423485 C280.880963,59.2428637 270.149177,52.0643417 257.452055,49.6901586 C243.459094,47.0734264 227.258191,50.8714197 213.003963,60.1127756 C199.084483,69.1372366 188.32937,82.0389858 179.644566,93.4702807 C178.726632,94.6771959 177.33515,95.3127214 175.926173,95.3127214" id="Fill-22" fill="#9E1032"></path>
                        <path d="M176.694346,323.758107 C176.358431,323.758107 176.019017,323.721958 175.67727,323.644995 C151.63485,318.301917 135.331307,305.65088 121.161057,281.341158 C119.862886,279.116236 120.616362,276.260453 122.841799,274.962582 C125.068402,273.665877 127.924847,274.418012 129.221852,276.645266 C141.952799,298.482853 156.451965,309.816195 177.702091,314.540073 C180.217955,315.098636 181.803054,317.590595 181.244362,320.104711 C180.760318,322.278324 178.832305,323.758107 176.694346,323.758107" id="Fill-24" fill="#9E1032"></path>
                        <path d="M194.320671,384.003702 C192.291185,384.003702 190.42499,382.669681 189.838305,380.623173 C185.835317,366.659105 187.196473,351.622224 193.669836,338.284353 C194.873532,335.802888 196.241685,333.393722 197.564351,331.063851 C200.227178,326.371458 202.741875,321.939105 203.73679,317.388976 C205.723121,308.308542 192.901197,297.941898 179.314133,291.69859 C176.972059,290.622278 175.946818,287.852786 177.023379,285.511254 C178.09994,283.170888 180.870073,282.149383 183.210981,283.221031 C199.705809,290.801858 216.153983,304.281993 212.853151,319.381844 C211.556146,325.313803 208.569068,330.577586 205.679965,335.66762 C204.372462,337.969505 203.138441,340.145451 202.065379,342.35638 C196.596262,353.62442 195.439222,366.302278 198.807703,378.053085 C199.518024,380.529885 198.085719,383.111634 195.608346,383.82179 C195.179121,383.945397 194.746397,384.003702 194.320671,384.003702" id="Fill-26" fill="#9E1032"></path>
                        <path d="M312.702615,290.216824 C312.553319,290.216824 312.402857,290.209828 312.251229,290.194668 C294.062829,288.446682 278.169848,275.532106 273.602337,258.789218 C271.773466,252.085299 271.778132,245.338235 271.781631,238.812729 C271.782797,235.807685 271.78513,232.968228 271.618339,230.135767 C270.759889,215.509353 265.107652,201.00538 255.703197,189.296553 C254.090105,187.28736 254.410857,184.352282 256.419349,182.738397 C258.429008,181.125679 261.364765,181.448689 262.979024,183.454384 C273.586008,196.661652 279.962562,213.04538 280.932983,229.588865 C281.116103,232.698858 281.113771,235.810018 281.112604,238.81856 C281.109105,245.000065 281.105606,250.83757 282.604394,256.333407 C286.117505,269.210668 298.96159,279.546994 313.143503,280.910167 C315.708355,281.155048 317.587379,283.434777 317.341275,285.999035 C317.109167,288.410533 315.078514,290.216824 312.702615,290.216824" id="Fill-28" fill="#9E1032"></path>
                        <path d="M175.221568,160.625727 C166.429459,160.625727 153.136321,154.714758 148.97354,150.096995 C146.658292,147.526907 144.870244,144.750419 143.140515,142.064887 C141.624232,139.709361 140.190761,137.484439 138.501855,135.544046 C134.302917,130.721049 128.39991,127.846609 122.702184,127.846609 L122.648531,127.846609 C116.808508,127.8641 111.236751,131.311097 109.685476,135.862392 C108.985653,137.919395 109.272581,140.433511 110.452949,142.584968 C111.595993,144.667626 113.436528,146.152073 115.503338,146.656995 C118.007538,147.266866 119.541317,149.790311 118.930138,152.292765 C118.320126,154.796385 115.796098,156.334473 113.291898,155.718772 C108.687062,154.595816 104.670078,151.443843 102.272018,147.072127 C99.8168055,142.596629 99.3001028,137.415639 100.85371,132.856182 C103.67283,124.579192 112.826515,118.548114 122.618205,118.517795 L122.701018,118.517795 C131.06157,118.517795 139.593579,122.588656 145.540908,129.41968 C147.671869,131.86966 149.357276,134.485226 150.986698,137.0145 C152.584627,139.497131 154.095078,141.843327 155.906453,143.851355 C159.139636,147.438283 172.908653,152.383721 176.370444,151.203626 C178.808161,150.369863 181.46049,151.671233 182.29328,154.108385 C183.127236,156.546704 181.825565,159.197253 179.387848,160.031016 C178.189984,160.440317 176.776342,160.624561 175.221568,160.625727" id="Fill-30" fill="#9E1032"></path>
                        <path d="M69.5410994,425.670728 C63.5692764,425.670728 57.4679862,423.452802 52.7220198,419.388938 C47.2913933,414.742023 43.7386251,407.950646 42.7168835,400.26487 C42.3774694,397.709941 44.1725154,395.366077 46.7268694,395.026741 C49.2823897,394.675745 51.6267968,396.482036 51.9662109,399.034633 C52.6846959,404.44068 55.1084163,409.151731 58.7894853,412.303704 C62.6979968,415.648084 68.1881083,417.089385 72.7766145,415.962931 C77.2449844,414.870294 80.8642357,411.016328 81.015864,407.185684 C81.1325012,404.258768 79.6022216,400.937711 76.2010817,396.737413 C62.0588251,379.269209 37.895103,369.650036 14.638818,372.26327 C12.0786322,372.541968 9.77038263,370.707691 9.4834552,368.145765 C9.19769414,365.586172 11.0405614,363.278457 13.6019136,362.991596 C39.9397525,360.050687 67.358818,370.987555 83.4547472,390.867257 C86.5432994,394.682741 90.6174357,400.563392 90.3398393,407.555338 C90.0214198,415.582782 83.5667189,422.929223 74.9927207,425.024707 C73.217503,425.458497 71.3851331,425.670728 69.5410994,425.670728" id="Fill-32" fill="#9E1032"></path>
                        <path d="M302.847357,350.658207 C300.437633,350.658207 298.39415,348.804106 298.201699,346.359957 C297.691995,339.900919 296.7484,331.486329 293.958439,323.678113 C291.246625,316.086791 286.996366,309.788675 281.66838,305.467102 C275.744379,300.661597 268.110476,298.203455 261.244046,298.905448 C254.005543,299.638926 247.605662,303.979157 245.319573,309.705882 C243.059145,315.364974 245.418715,322.337096 250.578743,325.246519 C252.822842,326.512906 253.617141,329.357028 252.350462,331.600607 C251.084948,333.845353 248.239002,334.63597 245.994902,333.373082 C236.761904,328.166438 232.658609,316.250045 236.653432,306.246058 C240.194536,297.379021 249.698133,290.698424 260.30395,289.624445 C269.706072,288.668241 279.635395,291.803889 287.546894,298.222113 C294.203377,303.621163 299.457881,311.338424 302.745883,320.540133 C305.905584,329.382682 306.94832,338.591387 307.503513,345.627645 C307.706462,348.195401 305.78778,350.440146 303.21943,350.643048 C303.094628,350.653543 302.970993,350.658207 302.847357,350.658207" id="Fill-34" fill="#9E1032"></path>
                        <path d="M247.500922,425.572195 C247.156842,425.572195 246.80693,425.533714 246.457019,425.453253 C243.944654,424.879531 242.374718,422.378243 242.948573,419.86646 C248.463178,395.761972 267.645327,391.938324 291.932684,387.100168 C296.354399,386.218595 300.927743,385.30787 305.76352,384.223395 C308.278217,383.665999 310.773086,385.240236 311.336444,387.754351 C311.899801,390.268466 310.318201,392.762758 307.80467,393.327151 C302.860421,394.434948 298.232258,395.357334 293.75689,396.249402 C268.399969,401.300955 256.035263,404.504236 252.045106,421.946785 C251.550564,424.107572 249.628384,425.572195 247.500922,425.572195" id="Fill-36" fill="#9E1032"></path>
                        <path d="M139.750106,601.158191 C137.574823,601.158191 135.629315,599.629432 135.181428,597.417337 C132.221177,582.773432 139.211242,566.392035 152.576695,556.652754 C164.401372,548.035262 179.131479,547.497689 193.37521,546.976442 L196.43577,546.860998 C216.190607,546.078544 220.961067,551.836754 231.412924,564.452808 L233.11466,566.503981 C234.762743,568.484022 234.493311,571.426096 232.512812,573.073798 C230.531147,574.719167 227.589557,574.449798 225.942641,572.470923 L224.226908,570.404591 C214.063145,558.133703 211.947347,555.585771 196.80551,556.183981 L193.716957,556.299425 C180.872872,556.769364 167.592564,557.254462 158.072639,564.191601 C147.599787,571.823737 142.075851,584.431628 144.328115,595.5679 C144.838986,598.093676 143.204899,600.554151 140.679704,601.064903 C140.367117,601.127873 140.056862,601.158191 139.750106,601.158191" id="Fill-38" fill="#9E1032"></path>
                        <path d="M235.247487,681.824086 C235.21133,681.824086 235.175172,681.824086 235.139015,681.82292 C232.563666,681.763449 230.522516,679.628317 230.580834,677.053564 C230.895755,663.217767 231.221172,648.910866 235.418944,635.033089 C240.261719,619.020181 249.827133,606.426283 262.353965,599.570771 C264.613227,598.330039 267.448677,599.161469 268.686197,601.42254 C269.923717,603.681279 269.094427,606.517239 266.833999,607.753306 C256.466121,613.428723 248.48114,624.075232 244.349852,637.732615 C240.520654,650.394147 240.210399,664.055028 239.909475,677.265795 C239.852323,679.805564 237.775015,681.824086 235.247487,681.824086" id="Fill-40" fill="#9E1032"></path>
                        <path d="M272.685919,658.301839 C271.128813,658.301839 269.607864,657.522883 268.722588,656.104903 C267.359099,653.918462 268.026264,651.041689 270.212044,649.678517 C288.117016,638.513093 299.717749,618.294056 299.764404,598.169473 C299.770236,595.598218 301.858041,593.515561 304.42989,593.515561 L304.441554,593.515561 C307.018069,593.521391 309.101209,595.61571 309.095377,598.191628 C309.039391,621.809852 296.033181,644.572157 275.150462,657.594015 C274.38299,658.073283 273.529205,658.301839 272.685919,658.301839" id="Fill-42" fill="#9E1032"></path>
                        <path d="M193.133538,677.537143 C192.665823,677.537143 192.19111,677.466011 191.722228,677.317916 C189.26585,676.540126 187.90586,673.917564 188.684997,671.461754 C190.492873,665.760682 192.362567,659.867204 192.013821,654.421509 C191.647581,648.720438 188.819129,643.962743 183.606614,640.280194 C177.087763,635.672926 166.421294,633.114499 157.063494,633.905116 C153.481567,634.209469 150.00228,634.952276 146.318878,635.739394 C140.796108,636.918323 135.086719,638.143896 128.866459,637.82555 C119.730269,637.366106 112.674887,633.873632 105.656828,630.02433 C103.397567,628.784764 102.570609,625.949971 103.810462,623.691232 C105.049149,621.433659 107.885765,620.608059 110.14386,621.845293 C116.402611,625.278296 122.165653,628.148072 129.33534,628.508398 C134.333243,628.760276 139.208676,627.720113 144.369871,626.616981 C148.173409,625.804208 152.107581,624.963448 156.275027,624.61012 C167.838436,623.622432 180.682521,626.788398 188.992919,632.662052 C198.494182,639.375299 200.943563,647.875015 201.324967,653.824465 C201.78685,661.016981 199.647724,667.759381 197.579747,674.281387 C196.949906,676.268425 195.112871,677.537143 193.133538,677.537143" id="Fill-44" fill="#9E1032"></path>
                        <path d="M72.3168123,599.833147 C70.0330565,599.833147 68.0373946,598.155126 67.7038123,595.828754 C64.7622229,575.28554 70.3853008,556.666394 83.5373079,543.400821 C98.920584,527.887004 124.837363,521.591221 145.163722,528.433906 C147.606104,529.257174 148.918272,531.901893 148.09598,534.343709 C147.274855,536.785526 144.628357,538.098557 142.185975,537.276455 C125.330738,531.603371 102.965561,537.05956 90.1646318,549.969472 C75.2619008,564.999357 75.482345,584.323994 76.941476,594.506394 C77.3065503,597.056659 75.5348318,599.420347 72.9839769,599.785337 C72.7600335,599.816821 72.5372565,599.833147 72.3168123,599.833147" id="Fill-46" fill="#9E1032"></path>
                        <path d="M202.10107,533.563007 C189.801681,533.563007 179.29967,525.674329 172.397083,518.666058 C170.161148,516.394492 168.027854,514.01098 165.964543,511.706763 C160.719369,505.848268 155.765789,500.31395 149.375238,496.657055 C141.149985,491.94717 130.759946,490.800892 121.5841,493.59254 C112.473571,496.360865 104.833837,502.931848 101.146936,511.171523 C100.093702,513.521218 97.3352331,514.57654 94.9826614,513.52355 C92.6300897,512.471726 91.5768561,509.712729 92.6289234,507.360702 C97.4028827,496.693204 107.212068,488.208648 118.869953,484.666031 C130.457856,481.144404 143.595867,482.599699 154.011566,488.559645 C161.711952,492.967509 167.408511,499.332092 172.917284,505.485611 C174.908281,507.708201 176.965761,510.007753 179.046568,512.119563 C184.068964,517.220092 194.092762,525.539062 204.796555,524.045285 C213.813775,522.775401 220.754853,514.889055 225.793578,508.161814 C227.339021,506.09898 230.263115,505.68035 232.32526,507.223102 C234.387405,508.767021 234.807299,511.691604 233.263022,513.753272 C227.140738,521.926479 218.520084,531.532824 206.098226,533.283143 C204.747568,533.473218 203.413238,533.563007 202.10107,533.563007" id="Fill-48" fill="#9E1032"></path>
                        <path d="M29.6055828,538.433581 C27.9318394,538.433581 26.3140819,537.531018 25.4777934,535.948618 C24.2729315,533.672388 25.1418784,530.849256 27.4198023,529.644673 C35.0210465,525.62512 42.8812253,521.466801 48.5462925,515.499859 C52.9994996,510.808632 57.0351456,503.254625 55.0079917,496.123913 C52.8735315,488.620049 44.8990483,483.927656 38.1469226,482.037405 C29.6767315,479.669052 20.3585881,480.112171 11.3472005,480.541296 C8.76718635,480.708049 6.58840405,478.679032 6.46476865,476.105445 C6.34229962,473.533025 8.32979697,471.346584 10.9028129,471.224144 C20.2011279,470.781025 30.7381297,470.280767 40.66162,473.053757 C52.3801563,476.332835 61.3168961,484.195859 63.9832217,493.572483 C66.6157226,502.832496 63.3755421,513.430028 55.3147474,521.921581 C48.5976129,528.997486 39.6643722,533.72253 31.7831987,537.891344 C31.0880412,538.259832 30.3415633,538.433581 29.6055828,538.433581" id="Fill-50" fill="#9E1032"></path>
                        <path d="M188.576874,267.689605 C187.781408,267.689605 186.975446,267.485538 186.237132,267.057578 C184.009362,265.763205 183.252387,262.907422 184.54706,260.680168 C190.54221,250.364833 195.969338,240.176602 196.514033,228.971531 C197.159037,215.70246 189.67443,205.759111 182.305293,203.140046 C179.878074,202.277131 178.609062,199.610256 179.472177,197.182433 C180.335292,194.754609 183.001617,193.481226 185.43117,194.349972 C196.230605,198.187612 206.706955,211.468344 205.833343,229.425144 C205.187173,242.715205 198.949417,254.468344 192.614853,265.367897 C191.749405,266.857009 190.185301,267.689605 188.576874,267.689605" id="Fill-52" fill="#9E1032"></path>
                        <path d="M247.920932,247.32947 C246.382488,247.32947 244.876702,246.569172 243.985594,245.176846 C234.910056,230.987721 228.153265,215.642988 223.904173,199.567111 C220.873939,188.104331 219.525613,172.486731 230.305221,163.184738 C238.605121,156.023707 254.00356,150.8089 266.192144,155.252914 C290.238063,164.015002 304.699905,190.005077 307.961081,210.444507 C308.365812,212.988941 306.632583,215.380616 304.088727,215.785253 C301.54487,216.196887 299.151475,214.459395 298.745578,211.913795 C295.810987,193.517375 282.588998,171.157375 262.996286,164.017334 C254.470109,160.91667 242.779566,164.744982 236.401845,170.246649 C229.270649,176.401334 230.574652,188.292073 232.924891,197.184765 C236.926713,212.321931 243.292769,226.778094 251.846939,240.150948 C253.234921,242.321063 252.600415,245.205999 250.429798,246.59366 C249.651828,247.091585 248.781714,247.32947 247.920932,247.32947" id="Fill-54" fill="#9E1032"></path>
                        <path d="M318.823384,131.681567 C317.416739,131.681567 316.026424,131.048374 315.10849,129.843791 C301.561083,112.065405 276.935477,102.182693 253.831987,105.247208 C251.276467,105.600537 248.93206,103.790747 248.592645,101.238151 C248.254398,98.6843878 250.049444,96.3381912 252.603798,96.0000217 C278.919476,92.506381 307.020868,103.836225 322.531279,124.19053 C324.093051,126.239371 323.696484,129.166286 321.647169,130.727696 C320.802716,131.370218 319.808968,131.681567 318.823384,131.681567" id="Fill-56" fill="#9E1032"></path>
                        <g id="Group-60" transform="translate(291.592920, 0.338169)">
                            <mask id="mask-4" fill="white">
                                <use xlink:href="#path-3"></use>
                            </mask>
                            <g id="Clip-59"></g>
                            <path d="M36.7952942,57.0158427 C35.9205154,57.0158427 35.0364057,56.7709614 34.2491048,56.2578766 C25.8640588,50.7841953 16.3592959,44.5817003 9.5523508,36.0703241 C1.49972071,26.0010359 -1.24358549,14.0030156 2.21470655,3.97454102 C3.05449416,1.53972068 5.70915611,0.24068339 8.14570655,1.08494102 C10.582257,1.92453424 11.8757632,4.57858169 11.0359756,7.01456814 C8.62625168,14.0030156 10.795703,22.688141 16.8398411,30.24448 C22.7125225,37.5874224 31.1710499,43.1065817 39.3496481,48.4449953 C41.5074358,49.8536461 42.1151154,52.7444122 40.7061384,54.9017003 C39.8115313,56.2707037 38.3185756,57.0158427 36.7952942,57.0158427" id="Fill-58" fill="#9E1032" mask="url(#mask-4)"></path>
                        </g>
                        <path d="M136.668552,468.843314 C134.895667,468.843314 133.200929,467.827639 132.418294,466.107639 C131.35223,463.763775 132.389134,460.997782 134.734708,459.930799 C157.284172,449.680765 174.362186,429.023273 179.306435,406.019585 C179.847632,403.500805 182.327338,401.897416 184.847867,402.438487 C187.36723,402.980724 188.970991,405.461022 188.429795,407.978636 C182.876699,433.813619 163.782028,456.974731 138.596564,468.424683 C137.970223,468.709212 137.314722,468.843314 136.668552,468.843314" id="Fill-61" fill="#9E1032"></path>
                        <path d="M275.721573,30.2956719 C275.213035,30.2956719 274.695166,30.2128786 274.187794,30.0344651 C257.303398,24.1619769 238.713766,21.6140447 220.425058,22.6588719 C217.856708,22.8279566 215.6476,20.8420854 215.500637,18.2696651 C215.352508,15.6972447 217.31901,13.4933125 219.89086,13.3463837 C239.389095,12.2245939 259.225578,14.9521058 277.254186,21.2257329 C279.688403,22.0711566 280.974911,24.7310346 280.128125,27.1623566 C279.457462,29.0887566 277.651918,30.2956719 275.721573,30.2956719" id="Fill-63" fill="#9E1032"></path>
                        <path d="M400.35428,687.171951 C401.844903,687.171951 403.333194,687.159124 404.817985,687.134636 C430.994864,686.692683 458.510739,683.860222 484.235066,677.606419 C506.650397,672.157226 527.704572,664.111124 545.328448,652.782446 C562.847351,641.522568 570.119679,622.786812 584.291095,607.749931 C635.73625,553.162378 663.12499,476.311612 651.910326,396.235409 C649.909999,381.954161 640.672335,377.090351 652.629978,353.214419 C658.48633,317.874541 663.649857,270.185646 644.576181,239.860005 L638.681339,230.48688 C630.787335,217.936127 624.794518,204.270582 621.060962,189.9217 C600.853572,112.238338 537.776192,61.8254292 473.871854,29.4905953 C442.432305,13.5814698 420.924411,4.81471729 385.091141,4.81471729 L376.045928,4.81471729 C352.985594,4.81471729 333.615659,4.81471729 342.467254,62.9612122 L351.076243,117.166283 C353.907027,134.985483 353.706411,153.154514 350.483726,170.90608 L347.311195,188.380114 C342.691197,213.823287 344.301956,240.006934 352.002342,264.693307 C357.752555,283.125877 360.122622,302.444683 358.99824,321.719178 L359.191857,323.289917 C360.519188,334.047205 363.573916,344.484982 367.821841,354.457483 C371.190323,362.362487 370.132424,366.720209 366.305558,380.968805 L364.923408,386.113646 C358.763799,409.052033 354.463387,432.423043 351.239535,455.953809 C351.085574,457.080263 350.917617,458.204385 350.737995,459.327341 L347.002107,482.586405 C344.006864,501.239368 344.616877,520.29347 348.799486,538.716711 C352.888785,556.725985 359.610585,557.598229 356.211778,574.016941 C353.998004,584.71126 344.592383,608.974338 343.456337,619.836575 L343.118089,623.071341 C341.622801,637.368914 345.135912,651.883382 353.636429,663.477931 C364.168765,677.844304 381.172132,687.171951 400.35428,687.171951" id="Fill-65" fill="#0B0146"></path>
                        <path d="M611.740719,488.278731 C611.018735,488.278731 610.288586,488.099151 609.614423,487.720168 L576.315678,468.963422 C574.227873,467.786826 573.488393,465.140941 574.665262,463.053619 C575.840965,460.966297 578.487462,460.225822 580.575268,461.403585 L613.874013,480.160331 C615.962984,481.336927 616.701298,483.981646 615.525595,486.068968 C614.727797,487.483449 613.255836,488.278731 611.740719,488.278731" id="Fill-67" fill="#9E1032"></path>
                        <path d="M620.376535,483.940016 C620.376535,488.70704 616.512345,492.570335 611.744218,492.570335 C606.977257,492.570335 603.113068,488.70704 603.113068,483.940016 C603.113068,479.174159 606.977257,475.310864 611.744218,475.310864 C616.512345,475.310864 620.376535,479.174159 620.376535,483.940016" id="Fill-69" fill="#FF9A70"></path>
                        <path d="M578.449089,246.616632 C576.933972,246.616632 575.462011,245.821351 574.664213,244.406869 C573.48851,242.319547 574.226823,239.674828 576.315795,238.498232 L609.61454,219.741486 C611.702345,218.567222 614.348843,219.305364 615.524545,221.39152 C616.701414,223.478842 615.961935,226.124727 613.874129,227.301323 L580.575384,246.058069 C579.901221,246.437052 579.169906,246.616632 578.449089,246.616632" id="Fill-71" fill="#9E1032"></path>
                        <path d="M620.376535,223.521288 C620.376535,218.754264 616.512345,214.890969 611.744218,214.890969 C606.977257,214.890969 603.113068,218.754264 603.113068,223.521288 C603.113068,228.287146 606.977257,232.150441 611.744218,232.150441 C616.512345,232.150441 620.376535,228.287146 620.376535,223.521288" id="Fill-73" fill="#FF9A70"></path>
                        <path d="M435.893742,410.353752 L408.842084,390.232667 C406.919903,388.804193 406.521004,386.084843 407.950976,384.163108 C409.380947,382.242538 412.09976,381.843732 414.02194,383.272206 L433.847926,398.018728 L447.801231,377.735555 L430.824691,359.021955 C429.215098,357.247148 429.349231,354.503311 431.124448,352.894091 C432.899666,351.286037 435.642972,351.418972 437.253732,353.192613 L458.843271,376.993915 L435.893742,410.353752 Z" id="Fill-75" fill="#9E1032"></path>
                        <path d="M415.934557,654.40496 L375.523277,654.40496 C373.126383,654.40496 371.183208,652.463401 371.183208,650.067062 C371.183208,647.671889 373.126383,645.730329 375.523277,645.730329 L411.688964,645.730329 L440.405035,608.797557 L458.801049,608.797557 C461.197942,608.797557 463.139951,610.739116 463.139951,613.134289 C463.139951,615.530628 461.197942,617.472187 458.801049,617.472187 L444.651794,617.472187 L415.934557,654.40496 Z" id="Fill-77" fill="#9E1032"></path>
                        <path d="M374.684772,654.40496 C373.67936,654.40496 372.670448,654.058628 371.850489,653.350804 C370.036781,651.783563 369.836165,649.044391 371.403769,647.232268 L432.885553,576.086072 L472.354404,576.086072 L488.627622,560.258574 L516.108505,560.258574 L555.0105,513.287997 C556.538447,511.443224 559.274755,511.18435 561.119955,512.714275 C562.965155,514.243035 563.222923,516.976377 561.694976,518.822316 L520.18964,568.933204 L492.152397,568.933204 L475.879179,584.760702 L436.855882,584.760702 L377.970441,652.903021 C377.111992,653.895374 375.901298,654.40496 374.684772,654.40496" id="Fill-79" fill="#9E1032"></path>
                        <path d="M407.114921,617.47347 C405.760763,617.47347 404.426434,616.841443 403.579648,615.654351 L377.877482,579.653294 C376.486,577.704738 376.938552,574.994717 378.888726,573.602392 C380.840066,572.213565 383.549547,572.661348 384.941028,574.613402 L410.643195,610.61446 C412.034676,612.564182 411.582124,615.273036 409.631951,616.666527 C408.867977,617.209931 407.987367,617.47347 407.114921,617.47347" id="Fill-81" fill="#9E1032"></path>
                        <path d="M381.41497,581.472296 C381.220186,581.472296 381.023069,581.458302 380.824786,581.432648 C378.450053,581.108472 376.786807,578.922031 377.109892,576.547848 L383.220514,531.656431 L424.492576,531.656431 L440.765793,515.828933 L468.247843,515.828933 L507.149838,468.859523 C508.677784,467.01475 511.412926,466.754709 513.258126,468.285801 C515.104492,469.813394 515.361094,472.547902 513.833147,474.393841 L472.328977,524.503563 L444.290568,524.503563 L428.018517,540.332228 L390.79843,540.332228 L385.709551,577.718614 C385.413292,579.893394 383.551763,581.472296 381.41497,581.472296" id="Fill-83" fill="#9E1032"></path>
                        <path d="M433.672737,469.20877 L407.501689,469.20877 C405.104796,469.20877 403.162787,467.267211 403.162787,464.870872 C403.162787,462.475699 405.104796,460.53414 407.501689,460.53414 L429.591603,460.53414 L450.057927,435.822113 C451.585873,433.97734 454.321015,433.717299 456.167381,435.248391 C458.012581,436.77715 458.27035,439.510492 456.741236,441.356431 L433.672737,469.20877 Z" id="Fill-85" fill="#9E1032"></path>
                        <path d="M451.156065,640.181668 L424.870713,640.181668 C422.474986,640.181668 420.531811,638.240108 420.531811,635.843769 C420.531811,633.448597 422.474986,631.507037 424.870713,631.507037 L451.156065,631.507037 C453.552959,631.507037 455.494968,633.448597 455.494968,635.843769 C455.494968,638.240108 453.552959,640.181668 451.156065,640.181668" id="Fill-87" fill="#9E1032"></path>
                        <path d="M434.870601,584.761052 C432.473707,584.761052 430.531698,582.819493 430.531698,580.423154 L430.531698,564.595656 C430.531698,562.199317 432.473707,560.257757 434.870601,560.257757 C437.267495,560.257757 439.209504,562.199317 439.209504,564.595656 L439.209504,580.423154 C439.209504,582.819493 437.267495,584.761052 434.870601,584.761052" id="Fill-89" fill="#9E1032"></path>
                        <path d="M568.329881,554.710028 C566.981556,554.710028 565.654225,554.083832 564.806272,552.907235 L558.458878,544.098503 L538.718037,544.098503 C536.321143,544.098503 534.377968,542.156944 534.377968,539.761771 C534.377968,537.365432 536.321143,535.423873 538.718037,535.423873 L562.902754,535.423873 L571.846492,547.834693 C573.247304,549.778584 572.806416,552.490937 570.862074,553.891425 C570.095768,554.442991 569.208159,554.710028 568.329881,554.710028" id="Fill-91" fill="#9E1032"></path>
                        <path d="M442.526081,524.504146 C441.554494,524.504146 440.577074,524.181136 439.768779,523.514126 C437.92008,521.991197 437.65648,519.256689 439.179761,517.408418 L471.952473,477.640852 C473.47692,475.79258 476.212062,475.527875 478.060761,477.05197 C479.910627,478.574899 480.174227,481.309407 478.650945,483.157679 L445.877067,522.925245 C445.019784,523.965407 443.777598,524.504146 442.526081,524.504146" id="Fill-93" fill="#9E1032"></path>
                        <path d="M396.897738,480.863024 C395.892325,480.863024 394.882248,480.515525 394.062288,479.807702 C392.24858,478.240461 392.050297,475.500122 393.616734,473.689166 L428.231147,433.656895 C429.79875,431.842441 432.538557,431.646536 434.351099,433.211444 C436.164807,434.777519 436.364256,437.517858 434.796653,439.32998 L400.182241,479.362251 C399.323791,480.354603 398.114264,480.863024 396.897738,480.863024" id="Fill-95" fill="#9E1032"></path>
                        <path d="M387.012038,540.331878 C385.748858,540.331878 384.497341,539.78381 383.640058,538.727322 L371.183208,523.376759 L371.183208,488.455512 L385.001213,472.187227 L398.870539,472.187227 L410.395458,485.539092 C411.961895,487.35238 411.760112,490.091553 409.946404,491.657627 C408.132696,493.222536 405.391723,493.021966 403.826452,491.207512 L394.896711,480.863024 L389.017031,480.863024 L379.86218,491.641302 L379.86218,520.299417 L390.379353,533.261803 C391.888638,535.121736 391.604043,537.853912 389.742514,539.362847 C388.938884,540.015864 387.971962,540.331878 387.012038,540.331878" id="Fill-97" fill="#9E1032"></path>
                        <path d="M466.075476,460.827414 L439.841444,460.827414 C437.445716,460.827414 435.502541,458.885855 435.502541,456.489516 C435.502541,454.094343 437.445716,452.152784 439.841444,452.152784 L461.869539,452.152784 L474.479184,436.179523 C475.963975,434.298601 478.692118,433.977923 480.573476,435.46237 C482.454833,436.946818 482.775585,439.674329 481.290794,441.555252 L466.075476,460.827414 Z" id="Fill-99" fill="#9E1032"></path>
                        <path d="M522.533347,496.040537 L493.862765,496.040537 C491.467037,496.040537 489.523862,494.098978 489.523862,491.702639 C489.523862,489.307466 491.467037,487.365906 493.862765,487.365906 L518.598009,487.365906 L541.657177,461.048157 L541.657177,411.372225 L576.776628,411.372225 C579.172356,411.372225 581.115531,413.313784 581.115531,415.708957 C581.115531,418.105296 579.172356,420.046856 576.776628,420.046856 L550.334982,420.046856 L550.334982,464.312076 L522.533347,496.040537 Z" id="Fill-101" fill="#9E1032"></path>
                        <path d="M478.239682,441.871498 C475.904606,441.871498 473.97776,440.016231 473.905445,437.667702 L472.180382,381.701817 L453.322484,381.701817 C450.92559,381.701817 448.983582,379.760258 448.983582,377.365085 C448.983582,374.968746 450.92559,373.027186 453.322484,373.027186 L480.594587,373.027186 L482.578585,437.400664 C482.653233,439.795837 480.770709,441.796868 478.376148,441.870332 C478.330659,441.871498 478.285171,441.871498 478.239682,441.871498" id="Fill-103" fill="#9E1032"></path>
                        <path d="M415.262843,611.834202 C415.262843,616.60006 411.398654,620.463355 406.630526,620.463355 C401.863565,620.463355 397.999376,616.60006 397.999376,611.834202 C397.999376,607.068344 401.863565,603.205049 406.630526,603.205049 C411.398654,603.205049 415.262843,607.068344 415.262843,611.834202" id="Fill-105" fill="#FF9A70"></path>
                        <path d="M467.749569,613.000304 C467.749569,617.766161 463.885379,621.629456 459.117252,621.629456 C454.350291,621.629456 450.486102,617.766161 450.486102,613.000304 C450.486102,608.234446 454.350291,604.371151 459.117252,604.371151 C463.885379,604.371151 467.749569,608.234446 467.749569,613.000304" id="Fill-107" fill="#FF9A70"></path>
                        <path d="M567.659684,514.382734 C567.659684,519.148591 563.795495,523.011886 559.027367,523.011886 C554.260406,523.011886 550.396217,519.148591 550.396217,514.382734 C550.396217,509.61571 554.260406,505.752415 559.027367,505.752415 C563.795495,505.752415 567.659684,509.61571 567.659684,514.382734" id="Fill-109" fill="#FF9A70"></path>
                        <path d="M518.400192,471.480686 C518.400192,476.246544 514.536003,480.109839 509.767875,480.109839 C505.000914,480.109839 501.136725,476.246544 501.136725,471.480686 C501.136725,466.713662 505.000914,462.851534 509.767875,462.851534 C514.536003,462.851534 518.400192,466.713662 518.400192,471.480686" id="Fill-111" fill="#FF9A70"></path>
                        <path d="M462.659989,637.420106 C462.659989,642.185963 458.7958,646.049258 454.027673,646.049258 C449.260712,646.049258 445.396522,642.185963 445.396522,637.420106 C445.396522,632.653082 449.260712,628.789787 454.027673,628.789787 C458.7958,628.789787 462.659989,632.653082 462.659989,637.420106" id="Fill-113" fill="#FF9A70"></path>
                        <path d="M383.318605,649.652862 C383.318605,654.41872 379.454416,658.282015 374.686289,658.282015 C369.919328,658.282015 366.053972,654.41872 366.053972,649.652862 C366.053972,644.885839 369.919328,641.022544 374.686289,641.022544 C379.454416,641.022544 383.318605,644.885839 383.318605,649.652862" id="Fill-115" fill="#FF9A70"></path>
                        <path d="M443.106118,560.859466 C443.106118,565.625323 439.241929,569.488618 434.473801,569.488618 C429.70684,569.488618 425.842651,565.625323 425.842651,560.859466 C425.842651,556.092442 429.70684,552.229147 434.473801,552.229147 C439.241929,552.229147 443.106118,556.092442 443.106118,560.859466" id="Fill-117" fill="#FF9A70"></path>
                        <path d="M579.611495,554.931005 C579.611495,559.696862 575.747305,563.560157 570.979178,563.560157 C566.212217,563.560157 562.348027,559.696862 562.348027,554.931005 C562.348027,550.165147 566.212217,546.301852 570.979178,546.301852 C575.747305,546.301852 579.611495,550.165147 579.611495,554.931005" id="Fill-119" fill="#FF9A70"></path>
                        <path d="M483.148474,480.110305 C483.148474,484.877329 479.284285,488.740624 474.516158,488.740624 C469.749196,488.740624 465.883841,484.877329 465.883841,480.110305 C465.883841,475.344447 469.749196,471.481153 474.516158,471.481153 C479.284285,471.481153 483.148474,475.344447 483.148474,480.110305" id="Fill-121" fill="#FF9A70"></path>
                        <path d="M439.316227,437.014568 C439.316227,441.781592 435.452037,445.644887 430.68391,445.644887 C425.916949,445.644887 422.052759,441.781592 422.052759,437.014568 C422.052759,432.248711 425.916949,428.385416 430.68391,428.385416 C435.452037,428.385416 439.316227,432.248711 439.316227,437.014568" id="Fill-123" fill="#FF9A70"></path>
                        <path d="M461.477288,437.014568 C461.477288,441.781592 457.613099,445.644887 452.844972,445.644887 C448.078011,445.644887 444.213821,441.781592 444.213821,437.014568 C444.213821,432.248711 448.078011,428.385416 452.844972,428.385416 C457.613099,428.385416 461.477288,432.248711 461.477288,437.014568" id="Fill-125" fill="#FF9A70"></path>
                        <path d="M487.137465,437.014568 C487.137465,441.781592 483.273276,445.644887 478.505149,445.644887 C473.738188,445.644887 469.873998,441.781592 469.873998,437.014568 C469.873998,432.248711 473.738188,428.385416 478.505149,428.385416 C483.273276,428.385416 487.137465,432.248711 487.137465,437.014568" id="Fill-127" fill="#FF9A70"></path>
                        <path d="M445.438861,404.278362 C445.438861,409.04422 441.574672,412.907515 436.806545,412.907515 C432.039584,412.907515 428.175394,409.04422 428.175394,404.278362 C428.175394,399.511338 432.039584,395.648043 436.806545,395.648043 C441.574672,395.648043 445.438861,399.511338 445.438861,404.278362" id="Fill-129" fill="#FF9A70"></path>
                        <path d="M443.106118,355.638045 C443.106118,360.405068 439.241929,364.267197 434.473801,364.267197 C429.70684,364.267197 425.842651,360.405068 425.842651,355.638045 C425.842651,350.872187 429.70684,347.008892 434.473801,347.008892 C439.241929,347.008892 443.106118,350.872187 443.106118,355.638045" id="Fill-131" fill="#FF9A70"></path>
                        <path d="M555.744731,417.00986 C555.744731,421.776884 551.880541,425.640179 547.112414,425.640179 C542.345453,425.640179 538.481264,421.776884 538.481264,417.00986 C538.481264,412.244003 542.345453,408.380708 547.112414,408.380708 C551.880541,408.380708 555.744731,412.244003 555.744731,417.00986" id="Fill-133" fill="#FF9A70"></path>
                        <path d="M389.742864,577.302083 C389.742864,572.535059 385.878675,568.671764 381.110547,568.671764 C376.343586,568.671764 372.479397,572.535059 372.479397,577.302083 C372.479397,582.06794 376.343586,585.931235 381.110547,585.931235 C385.878675,585.931235 389.742864,582.06794 389.742864,577.302083" id="Fill-135" fill="#FF9A70"></path>
                        <path d="M476.719434,380.361966 C475.766508,380.363132 474.80775,380.049451 474.006453,379.408095 C472.137926,377.908488 471.838168,375.178644 473.338122,373.309383 L493.168773,348.59619 L545.284593,348.59619 C547.68032,348.59619 549.623496,350.537749 549.623496,352.934088 C549.623496,355.329261 547.68032,357.27082 545.284593,357.27082 L497.331554,357.27082 L480.106577,378.738753 C479.249294,379.806902 477.989612,380.361966 476.719434,380.361966" id="Fill-137" fill="#9E1032"></path>
                        <path d="M515.423028,385.525115 C514.068871,385.525115 512.734542,384.893087 511.887756,383.705996 L489.919145,352.933738 L511.887756,322.160315 C513.279237,320.209426 515.989885,319.760477 517.940059,321.149304 C519.890232,322.54163 520.342784,325.25165 518.951303,327.200206 L500.580949,352.933738 L518.951303,378.666104 C520.342784,380.615826 519.890232,383.324681 517.940059,384.718172 C517.176085,385.261576 516.295475,385.525115 515.423028,385.525115" id="Fill-139" fill="#9E1032"></path>
                        <path d="M554.578359,352.522338 C554.578359,347.75648 550.71417,343.893185 545.946042,343.893185 C541.179081,343.893185 537.314892,347.75648 537.314892,352.522338 C537.314892,357.289361 541.179081,361.152656 545.946042,361.152656 C550.71417,361.152656 554.578359,357.289361 554.578359,352.522338" id="Fill-141" fill="#FF9A70"></path>
                        <path d="M524.720527,324.623588 C524.720527,319.856564 520.856338,315.993269 516.08821,315.993269 C511.321249,315.993269 507.455893,319.856564 507.455893,324.623588 C507.455893,329.389445 511.321249,333.25274 516.08821,333.25274 C520.856338,333.25274 524.720527,329.389445 524.720527,324.623588" id="Fill-143" fill="#FF9A70"></path>
                        <path d="M524.720527,381.762571 C524.720527,376.995547 520.856338,373.132252 516.08821,373.132252 C511.321249,373.132252 507.455893,376.995547 507.455893,381.762571 C507.455893,386.528428 511.321249,390.391723 516.08821,390.391723 C520.856338,390.391723 524.720527,386.528428 524.720527,381.762571" id="Fill-145" fill="#FF9A70"></path>
                        <path d="M576.781527,420.60262 C576.586743,420.60262 576.390793,420.588626 576.193676,420.562972 C573.818943,420.239962 572.154531,418.054687 572.476449,415.680504 L581.224237,351.151935 C581.546155,348.777752 583.73077,347.114891 586.106669,347.436735 C588.481401,347.758579 590.145814,349.943854 589.823895,352.318037 L581.076108,416.846606 C580.781016,419.023718 578.919486,420.60262 576.781527,420.60262" id="Fill-147" fill="#9E1032"></path>
                        <path d="M611.772678,422.934823 C611.577893,422.934823 611.381943,422.92083 611.184826,422.895176 C608.810093,422.572165 607.145681,420.386891 607.4676,418.012708 L616.215387,353.484138 C616.537306,351.109955 618.72192,349.452925 621.097819,349.768938 C623.472552,350.090782 625.136964,352.276057 624.815046,354.65024 L616.067258,419.178809 C615.772166,421.355921 613.910637,422.934823 611.772678,422.934823" id="Fill-149" fill="#9E1032"></path>
                        <path d="M620.509851,355.147233 C618.438375,355.147233 616.638664,353.611477 616.364566,351.501999 L608.78315,293.196914 C608.484559,290.904358 610.10115,288.804209 612.394237,288.508019 C614.686157,288.209497 616.786793,289.824548 617.084218,292.117104 L624.665633,350.422188 C624.964225,352.714744 623.347633,354.814894 621.054547,355.112249 C620.871426,355.135572 620.689472,355.147233 620.509851,355.147233" id="Fill-151" fill="#9E1032"></path>
                        <path d="M577.878733,464.006907 C575.481839,464.006907 573.53983,462.065348 573.53983,459.669009 L573.53983,409.209456 C573.53983,406.813117 575.481839,404.871558 577.878733,404.871558 C580.275627,404.871558 582.217636,406.813117 582.217636,409.209456 L582.217636,459.669009 C582.217636,462.065348 580.275627,464.006907 577.878733,464.006907" id="Fill-153" fill="#9E1032"></path>
                        <path d="M586.551756,415.695664 C586.551756,420.461521 582.687567,424.324816 577.919439,424.324816 C573.152478,424.324816 569.288289,420.461521 569.288289,415.695664 C569.288289,410.929806 573.152478,407.066511 577.919439,407.066511 C582.687567,407.066511 586.551756,410.929806 586.551756,415.695664" id="Fill-155" fill="#FF9A70"></path>
                        <path d="M620.376535,415.695664 C620.376535,420.461521 616.512345,424.324816 611.744218,424.324816 C606.977257,424.324816 603.113068,420.461521 603.113068,415.695664 C603.113068,410.929806 606.977257,407.066511 611.744218,407.066511 C616.512345,407.066511 620.376535,410.929806 620.376535,415.695664" id="Fill-157" fill="#FF9A70"></path>
                        <path d="M587.07709,465.183271 C587.07709,460.416247 583.212901,456.552952 578.444773,456.552952 C573.677812,456.552952 569.812456,460.416247 569.812456,465.183271 C569.812456,469.949128 573.677812,473.812423 578.444773,473.812423 C583.212901,473.812423 587.07709,469.949128 587.07709,465.183271" id="Fill-159" fill="#FF9A70"></path>
                        <path d="M554.418683,465.183271 C554.418683,460.416247 550.554493,456.552952 545.786366,456.552952 C541.019405,456.552952 537.154049,460.416247 537.154049,465.183271 C537.154049,469.949128 541.019405,473.812423 545.786366,473.812423 C550.554493,473.812423 554.418683,469.949128 554.418683,465.183271" id="Fill-161" fill="#FF9A70"></path>
                        <path d="M378.178989,437.814047 C377.305376,437.814047 376.423599,437.550508 375.658459,437.003607 C373.709452,435.608949 373.259233,432.900095 374.654213,430.951539 L408.088258,384.229342 C409.482072,382.280786 412.19272,381.829505 414.141727,383.225329 C416.090734,384.61882 416.539787,387.327675 415.145973,389.276231 L381.711928,435.998427 C380.863976,437.183186 379.53198,437.814047 378.178989,437.814047" id="Fill-163" fill="#9E1032"></path>
                        <path d="M420.141426,389.350161 C420.141426,384.584304 416.277237,380.721009 411.509109,380.721009 C406.742148,380.721009 402.877959,384.584304 402.877959,389.350161 C402.877959,394.116019 406.742148,397.979314 411.509109,397.979314 C416.277237,397.979314 420.141426,394.116019 420.141426,389.350161" id="Fill-165" fill="#FF9A70"></path>
                        <path d="M420.141426,493.133212 C420.141426,488.367355 416.277237,484.50406 411.509109,484.50406 C406.742148,484.50406 402.877959,488.367355 402.877959,493.133212 C402.877959,497.89907 406.742148,501.762365 411.509109,501.762365 C416.277237,501.762365 420.141426,497.89907 420.141426,493.133212" id="Fill-167" fill="#FF9A70"></path>
                        <path d="M518.149189,615.825652 C515.752295,615.825652 513.810286,613.884092 513.810286,611.487753 L513.810286,564.595306 C513.810286,562.200133 515.752295,560.258574 518.149189,560.258574 C520.546083,560.258574 522.488092,562.200133 522.488092,564.595306 L522.488092,611.487753 C522.488092,613.884092 520.546083,615.825652 518.149189,615.825652" id="Fill-169" fill="#9E1032"></path>
                        <path d="M527.234525,613.000304 C527.234525,617.766161 523.370335,621.629456 518.602208,621.629456 C513.835247,621.629456 509.971057,617.766161 509.971057,613.000304 C509.971057,608.234446 513.835247,604.371151 518.602208,604.371151 C523.370335,604.371151 527.234525,608.234446 527.234525,613.000304" id="Fill-171" fill="#FF9A70"></path>
                        <path d="M453.3261,330.064618 C451.945116,330.064618 450.588626,329.408103 449.747672,328.184862 L433.847693,305.071561 L414.021707,319.819249 C412.099527,321.248889 409.380714,320.851249 407.950742,318.928347 C406.520771,317.006612 406.91967,314.289595 408.84185,312.858788 L435.893509,292.736537 L456.89753,323.267412 C458.255187,325.241622 457.75598,327.942313 455.781312,329.300822 C455.030169,329.816239 454.174052,330.064618 453.3261,330.064618" id="Fill-173" fill="#9E1032"></path>
                        <path d="M458.801282,94.2934319 L440.405268,94.2934319 L411.689197,57.360659 L375.522344,57.360659 C373.126616,57.360659 371.183441,55.4190997 371.183441,53.0227607 C371.183441,50.6275878 373.126616,48.6860285 375.522344,48.6860285 L415.93479,48.6860285 L444.650861,85.6188014 L458.801282,85.6188014 C461.198176,85.6188014 463.140185,87.5603607 463.140185,89.9555336 C463.140185,92.3518725 461.198176,94.2934319 458.801282,94.2934319" id="Fill-175" fill="#9E1032"></path>
                        <path d="M558.354954,191.372564 C557.106936,191.37373 555.86825,190.837323 555.010966,189.801825 L516.108972,142.833581 L488.626922,142.833581 L472.353704,127.004917 L432.884853,127.004917 L371.403069,55.85872 C369.836632,54.0454319 370.036081,51.3074251 371.849789,49.7401844 C373.663497,48.1741098 376.403304,48.3746793 377.969742,50.1879675 L436.856349,118.32912 L475.879646,118.32912 L492.151697,134.158951 L520.190106,134.158951 L561.694276,184.267506 C563.223389,186.113445 562.965621,188.847954 561.120421,190.376713 C560.310959,191.046056 559.330041,191.372564 558.354954,191.372564" id="Fill-177" fill="#9E1032"></path>
                        <path d="M381.406922,130.295772 C380.453997,130.295772 379.495239,129.982091 378.693942,129.340735 C376.825414,127.842294 376.525657,125.111284 378.025611,123.242023 L404.267807,90.538701 C405.767761,88.66944 408.498237,88.370918 410.367931,89.8705247 C412.236459,91.3689654 412.536216,94.0999756 411.036262,95.9692366 L384.794066,128.671393 C383.936782,129.739542 382.677101,130.295772 381.406922,130.295772" id="Fill-179" fill="#9E1032"></path>
                        <path d="M510.493708,235.801738 C509.245691,235.802904 508.007004,235.266498 507.149721,234.230999 L468.247726,187.261589 L440.765677,187.261589 L424.493625,171.434091 L383.220397,171.434091 L377.109776,126.542674 C376.786691,124.168491 378.449937,121.98205 380.82467,121.657874 C383.199402,121.345359 385.386349,122.998891 385.709434,125.371908 L390.798314,162.758294 L428.018401,162.758294 L444.290452,178.586959 L472.328861,178.586959 L513.833031,228.696681 C515.362144,230.54262 515.104376,233.277128 513.258009,234.805887 C512.449714,235.47523 511.468795,235.801738 510.493708,235.801738" id="Fill-181" fill="#9E1032"></path>
                        <path d="M453.402031,268.838682 C452.154013,268.839848 450.915326,268.303441 450.058043,267.267943 L429.591719,242.557082 L407.501806,242.557082 C405.104912,242.557082 403.162903,240.615523 403.162903,238.219184 C403.162903,235.824011 405.104912,233.881285 407.501806,233.881285 L433.672854,233.881285 L456.741353,261.733624 C458.270466,263.579563 458.012698,266.314072 456.166332,267.842831 C455.358036,268.512174 454.377118,268.838682 453.402031,268.838682" id="Fill-183" fill="#9E1032"></path>
                        <path d="M451.156065,71.5852339 L424.870713,71.5852339 C422.474986,71.5852339 420.531811,69.6436746 420.531811,67.2473356 C420.531811,64.8521627 422.474986,62.9106034 424.870713,62.9106034 L451.156065,62.9106034 C453.552959,62.9106034 455.494968,64.8521627 455.494968,67.2473356 C455.494968,69.6436746 453.552959,71.5852339 451.156065,71.5852339" id="Fill-185" fill="#9E1032"></path>
                        <path d="M434.870601,142.833581 C432.473707,142.833581 430.531698,140.892022 430.531698,138.495683 L430.531698,122.667018 C430.531698,120.270679 432.473707,118.32912 434.870601,118.32912 C437.267495,118.32912 439.209504,120.270679 439.209504,122.667018 L439.209504,138.495683 C439.209504,140.892022 437.267495,142.833581 434.870601,142.833581" id="Fill-187" fill="#9E1032"></path>
                        <path d="M562.90287,167.666766 L538.718154,167.666766 C536.32126,167.666766 534.378085,165.725207 534.378085,163.328868 C534.378085,160.933695 536.32126,158.992136 538.718154,158.992136 L558.458994,158.992136 L564.806389,150.184569 C566.207201,148.240678 568.919016,147.801058 570.862191,149.20038 C572.806532,150.600868 573.247421,153.312054 571.846608,155.255946 L562.90287,167.666766 Z" id="Fill-189" fill="#9E1032"></path>
                        <path d="M478.243648,227.333858 C477.049284,227.333858 475.859584,226.844095 475.002301,225.882061 L439.289167,185.810142 C437.694737,184.020176 437.852197,181.278671 439.641411,179.685776 C441.431792,178.091715 444.173931,178.249139 445.768361,180.037939 L481.481496,220.111024 C483.075926,221.899824 482.917299,224.641329 481.129252,226.23539 C480.301128,226.9712 479.270055,227.333858 478.243648,227.333858" id="Fill-191" fill="#9E1032"></path>
                        <path d="M431.515883,270.9351 C430.299357,270.9351 429.08983,270.426679 428.23138,269.434327 L393.616968,229.402056 C392.049364,227.589934 392.248814,224.849595 394.062522,223.28352 C395.875063,221.718612 398.61487,221.915683 400.182474,223.728971 L434.796886,263.761242 C436.363323,265.572198 436.16504,268.312537 434.351332,269.879778 C433.531373,270.587601 432.521295,270.9351 431.515883,270.9351" id="Fill-193" fill="#9E1032"></path>
                        <path d="M398.869956,230.902712 L385.001796,230.902712 L371.183791,214.635593 L371.183791,179.714346 L383.639474,164.362617 C385.149926,162.501519 387.882735,162.21699 389.743097,163.728258 C391.604627,165.236027 391.889221,167.968203 390.37877,169.829302 L379.861596,182.790522 L379.861596,211.448637 L389.017614,222.228081 L394.897294,222.228081 L403.827035,211.883593 C405.392306,210.070305 408.132113,209.869736 409.945821,211.434644 C411.760696,212.999553 411.961312,215.738725 410.396041,217.55318 L398.869956,230.902712 Z" id="Fill-195" fill="#9E1032"></path>
                        <path d="M477.888021,268.561966 C476.606179,268.561966 475.336,267.996407 474.479883,266.910766 L461.869073,250.939837 L439.842144,250.939837 C437.44525,250.939837 435.503241,248.998278 435.503241,246.601939 C435.503241,244.2056 437.44525,242.264041 439.842144,242.264041 L466.075009,242.264041 L481.291494,261.536203 C482.776285,263.415959 482.454367,266.144637 480.573009,267.627919 C479.777544,268.256447 478.829283,268.561966 477.888021,268.561966" id="Fill-197" fill="#9E1032"></path>
                        <path d="M577.878733,298.218964 L541.65706,298.218964 L541.65706,242.043181 L518.599059,215.726598 L493.863814,215.726598 C491.466921,215.726598 489.523745,213.785039 489.523745,211.3887 C489.523745,208.992361 491.466921,207.050801 493.863814,207.050801 L522.53323,207.050801 L550.334866,238.779262 L550.334866,289.544334 L577.878733,289.544334 C580.275627,289.544334 582.217636,291.485893 582.217636,293.881066 C582.217636,296.277405 580.275627,298.218964 577.878733,298.218964" id="Fill-199" fill="#9E1032"></path>
                        <path d="M480.595053,330.063569 L453.321784,330.063569 C450.926057,330.063569 448.982882,328.122009 448.982882,325.725671 C448.982882,323.330498 450.926057,321.388938 453.321784,321.388938 L472.180848,321.388938 L473.904745,265.423054 C473.979393,263.029047 475.97039,261.183108 478.375448,261.220423 C480.771176,261.293887 482.652533,263.294918 482.579052,265.690091 L480.595053,330.063569 Z" id="Fill-201" fill="#9E1032"></path>
                        <path d="M422.261073,52.7841763 C422.261073,48.0171525 418.396884,44.1538576 413.628756,44.1538576 C408.861795,44.1538576 404.997606,48.0171525 404.997606,52.7841763 C404.997606,57.5500339 408.861795,61.4133288 413.628756,61.4133288 C418.396884,61.4133288 422.261073,57.5500339 422.261073,52.7841763" id="Fill-203" fill="#FF9A70"></path>
                        <path d="M567.659684,189.883102 C567.659684,185.117245 563.795495,181.25395 559.027367,181.25395 C554.260406,181.25395 550.396217,185.117245 550.396217,189.883102 C550.396217,194.64896 554.260406,198.512255 559.027367,198.512255 C563.795495,198.512255 567.659684,194.64896 567.659684,189.883102" id="Fill-205" fill="#FF9A70"></path>
                        <path d="M470.977736,90.0994305 C470.977736,85.3324068 467.113546,81.4691119 462.345419,81.4691119 C457.578458,81.4691119 453.714268,85.3324068 453.714268,90.0994305 C453.714268,94.8652881 457.578458,98.7285831 462.345419,98.7285831 C467.113546,98.7285831 470.977736,94.8652881 470.977736,90.0994305" id="Fill-207" fill="#FF9A70"></path>
                        <path d="M464.992733,66.8457302 C464.992733,62.0798725 461.128543,58.2165776 456.360416,58.2165776 C451.593455,58.2165776 447.729265,62.0798725 447.729265,66.8457302 C447.729265,71.6115878 451.593455,75.4748827 456.360416,75.4748827 C461.128543,75.4748827 464.992733,71.6115878 464.992733,66.8457302" id="Fill-209" fill="#FF9A70"></path>
                        <path d="M385.651349,54.6129736 C385.651349,49.8459498 381.787159,45.983821 377.019032,45.983821 C372.252071,45.983821 368.386715,49.8459498 368.386715,54.6129736 C368.386715,59.3788312 372.252071,63.2421261 377.019032,63.2421261 C381.787159,63.2421261 385.651349,59.3788312 385.651349,54.6129736" id="Fill-211" fill="#FF9A70"></path>
                        <path d="M443.106118,143.40637 C443.106118,138.640513 439.241929,134.777218 434.473801,134.777218 C429.70684,134.777218 425.842651,138.640513 425.842651,143.40637 C425.842651,148.172228 429.70684,152.035523 434.473801,152.035523 C439.241929,152.035523 443.106118,148.172228 443.106118,143.40637" id="Fill-213" fill="#FF9A70"></path>
                        <path d="M577.278751,151.667035 C577.278751,146.900011 573.414562,143.036716 568.646435,143.036716 C563.879473,143.036716 560.015284,146.900011 560.015284,151.667035 C560.015284,156.432892 563.879473,160.296187 568.646435,160.296187 C573.414562,160.296187 577.278751,156.432892 577.278751,151.667035" id="Fill-215" fill="#FF9A70"></path>
                        <path d="M488.980333,226.486568 C488.980333,221.720711 485.116143,217.857416 480.348016,217.857416 C475.581055,217.857416 471.715699,221.720711 471.715699,226.486568 C471.715699,231.253592 475.581055,235.116887 480.348016,235.116887 C485.116143,235.116887 488.980333,231.253592 488.980333,226.486568" id="Fill-217" fill="#FF9A70"></path>
                        <path d="M418.309289,210.945814 C418.309289,206.179957 414.4451,202.316662 409.676973,202.316662 C404.910012,202.316662 401.045822,206.179957 401.045822,210.945814 C401.045822,215.711672 404.910012,219.574967 409.676973,219.574967 C414.4451,219.574967 418.309289,215.711672 418.309289,210.945814" id="Fill-219" fill="#FF9A70"></path>
                        <path d="M441.64897,267.250102 C441.64897,262.484244 437.784781,258.620949 433.016653,258.620949 C428.249692,258.620949 424.385503,262.484244 424.385503,267.250102 C424.385503,272.017125 428.249692,275.879254 433.016653,275.879254 C437.784781,275.879254 441.64897,272.017125 441.64897,267.250102" id="Fill-221" fill="#FF9A70"></path>
                        <path d="M441.64897,299.900949 C441.64897,295.135092 437.784781,291.271797 433.016653,291.271797 C428.249692,291.271797 424.385503,295.135092 424.385503,299.900949 C424.385503,304.667973 428.249692,308.530102 433.016653,308.530102 C437.784781,308.530102 441.64897,304.667973 441.64897,299.900949" id="Fill-223" fill="#FF9A70"></path>
                        <path d="M463.810032,267.250102 C463.810032,262.484244 459.945842,258.620949 455.177715,258.620949 C450.410754,258.620949 446.546565,262.484244 446.546565,267.250102 C446.546565,272.017125 450.410754,275.879254 455.177715,275.879254 C459.945842,275.879254 463.810032,272.017125 463.810032,267.250102" id="Fill-225" fill="#FF9A70"></path>
                        <path d="M487.137465,267.250102 C487.137465,262.484244 483.273276,258.620949 478.505149,258.620949 C473.738188,258.620949 469.873998,262.484244 469.873998,267.250102 C469.873998,272.017125 473.738188,275.879254 478.505149,275.879254 C483.273276,275.879254 487.137465,272.017125 487.137465,267.250102" id="Fill-227" fill="#FF9A70"></path>
                        <path d="M520.06857,233.763393 C520.06857,228.996369 516.204381,225.133074 511.436253,225.133074 C506.669292,225.133074 502.805103,228.996369 502.805103,233.763393 C502.805103,238.52925 506.669292,242.392545 511.436253,242.392545 C516.204381,242.392545 520.06857,238.52925 520.06857,233.763393" id="Fill-229" fill="#FF9A70"></path>
                        <path d="M555.744731,293.085318 C555.744731,288.31946 551.880541,284.456165 547.112414,284.456165 C542.345453,284.456165 538.481264,288.31946 538.481264,293.085318 C538.481264,297.852342 542.345453,301.715637 547.112414,301.715637 C551.880541,301.715637 555.744731,297.852342 555.744731,293.085318" id="Fill-231" fill="#FF9A70"></path>
                        <path d="M389.742864,125.797535 C389.742864,130.563393 385.878675,134.426687 381.110547,134.426687 C376.343586,134.426687 372.479397,130.563393 372.479397,125.797535 C372.479397,121.030511 376.343586,117.168382 381.110547,117.168382 C385.878675,117.168382 389.742864,121.030511 389.742864,125.797535" id="Fill-233" fill="#FF9A70"></path>
                        <path d="M585.518467,355.693901 C583.375843,355.693901 581.513147,354.108003 581.222721,351.927393 L573.577154,294.452572 C573.261067,292.078389 574.931312,289.896613 577.307211,289.581765 C579.681944,289.255257 581.864225,290.934443 582.180312,293.309793 L589.824712,350.783447 C590.140798,353.15763 588.471721,355.339406 586.095821,355.65542 C585.902204,355.681074 585.708586,355.693901 585.518467,355.693901" id="Fill-235" fill="#9E1032"></path>
                        <path d="M622.847843,357.049028 L585.523949,357.049028 C583.127056,357.049028 581.185047,355.107468 581.185047,352.711129 C581.185047,350.315957 583.127056,348.374397 585.523949,348.374397 L622.847843,348.374397 C625.244737,348.374397 627.186746,350.315957 627.186746,352.711129 C627.186746,355.107468 625.244737,357.049028 622.847843,357.049028" id="Fill-237" fill="#9E1032"></path>
                        <path d="M594.234996,352.522338 C594.234996,347.75648 590.370807,343.893185 585.602679,343.893185 C580.835718,343.893185 576.971529,347.75648 576.971529,352.522338 C576.971529,357.289361 580.835718,361.152656 585.602679,361.152656 C590.370807,361.152656 594.234996,357.289361 594.234996,352.522338" id="Fill-239" fill="#FF9A70"></path>
                        <path d="M629.226147,352.522338 C629.226147,347.75648 625.361957,343.893185 620.59383,343.893185 C615.826869,343.893185 611.962679,347.75648 611.962679,352.522338 C611.962679,357.289361 615.826869,361.152656 620.59383,361.152656 C625.361957,361.152656 629.226147,357.289361 629.226147,352.522338" id="Fill-241" fill="#FF9A70"></path>
                        <path d="M577.878733,298.218964 C575.481839,298.218964 573.53983,296.277405 573.53983,293.881066 L573.53983,243.421513 C573.53983,241.025174 575.481839,239.083615 577.878733,239.083615 C580.275627,239.083615 582.217636,241.025174 582.217636,243.421513 L582.217636,293.881066 C582.217636,296.277405 580.275627,298.218964 577.878733,298.218964" id="Fill-243" fill="#9E1032"></path>
                        <path d="M586.070395,293.085318 C586.070395,288.31946 582.206205,284.456165 577.438078,284.456165 C572.671117,284.456165 568.806927,288.31946 568.806927,293.085318 C568.806927,297.852342 572.671117,301.715637 577.438078,301.715637 C582.206205,301.715637 586.070395,297.852342 586.070395,293.085318" id="Fill-245" fill="#FF9A70"></path>
                        <path d="M621.061545,293.085318 C621.061545,288.31946 617.197356,284.456165 612.429228,284.456165 C607.662267,284.456165 603.798078,288.31946 603.798078,293.085318 C603.798078,297.852342 607.662267,301.715637 612.429228,301.715637 C617.197356,301.715637 621.061545,297.852342 621.061545,293.085318" id="Fill-247" fill="#FF9A70"></path>
                        <path d="M586.04975,240.947862 C586.04975,236.180838 582.18556,232.317543 577.417433,232.317543 C572.650472,232.317543 568.786282,236.180838 568.786282,240.947862 C568.786282,245.713719 572.650472,249.577014 577.417433,249.577014 C582.18556,249.577014 586.04975,245.713719 586.04975,240.947862" id="Fill-249" fill="#FF9A70"></path>
                        <path d="M553.391343,240.947862 C553.391343,236.180838 549.527153,232.317543 544.759026,232.317543 C539.992065,232.317543 536.127875,236.180838 536.127875,240.947862 C536.127875,245.713719 539.992065,249.577014 544.759026,249.577014 C549.527153,249.577014 553.391343,245.713719 553.391343,240.947862" id="Fill-251" fill="#FF9A70"></path>
                        <path d="M411.620614,320.677733 C410.267623,320.677733 408.935627,320.046872 408.087675,318.862113 L374.65363,272.13875 C373.259816,270.190194 373.708869,267.48134 375.657876,266.087848 C377.60805,264.692024 380.317531,265.143306 381.711345,267.091862 L415.14539,313.815224 C416.54037,315.76378 416.090151,318.472635 414.141144,319.867292 C413.376004,320.414194 412.494227,320.677733 411.620614,320.677733" id="Fill-253" fill="#9E1032"></path>
                        <path d="M386.030653,267.447056 C386.030653,262.681199 382.166464,258.817904 377.398336,258.817904 C372.631375,258.817904 368.767186,262.681199 368.767186,267.447056 C368.767186,272.21408 372.631375,276.076209 377.398336,276.076209 C382.166464,276.076209 386.030653,272.21408 386.030653,267.447056" id="Fill-255" fill="#FF9A70"></path>
                        <path d="M386.030653,433.033497 C386.030653,428.267639 382.166464,424.404344 377.398336,424.404344 C372.631375,424.404344 368.767186,428.267639 368.767186,433.033497 C368.767186,437.800521 372.631375,441.662649 377.398336,441.662649 C382.166464,441.662649 386.030653,437.800521 386.030653,433.033497" id="Fill-257" fill="#FF9A70"></path>
                        <path d="M518.149189,142.833581 C515.752295,142.833581 513.810286,140.892022 513.810286,138.495683 L513.810286,91.6020692 C513.810286,89.2068963 515.752295,87.2653369 518.149189,87.2653369 C520.546083,87.2653369 522.488092,89.2068963 522.488092,91.6020692 L522.488092,138.495683 C522.488092,140.892022 520.546083,142.833581 518.149189,142.833581" id="Fill-259" fill="#9E1032"></path>
                        <path d="M526.636293,90.0994305 C526.636293,85.3324068 522.772103,81.4691119 518.003976,81.4691119 C513.237015,81.4691119 509.371659,85.3324068 509.371659,90.0994305 C509.371659,94.8652881 513.237015,98.7285831 518.003976,98.7285831 C522.772103,98.7285831 526.636293,94.8652881 526.636293,90.0994305" id="Fill-261" fill="#FF9A70"></path>
                        <path d="M476.388301,381.702283 L476.360308,381.702283 C473.963414,381.687124 472.033069,379.733904 472.049398,377.337565 L472.38298,324.65309 C472.398143,322.256751 474.350649,320.295368 476.749876,320.343178 C479.145603,320.358338 481.075948,322.311558 481.060786,324.707897 L480.726037,377.392372 C480.712041,379.779382 478.771198,381.702283 476.388301,381.702283" id="Fill-263" fill="#9E1032"></path>
                        <path d="M498.524169,308.298164 C498.524169,303.53114 494.65998,299.667845 489.891852,299.667845 C485.124891,299.667845 481.260702,303.53114 481.260702,308.298164 C481.260702,313.064022 485.124891,316.927317 489.891852,316.927317 C494.65998,316.927317 498.524169,313.064022 498.524169,308.298164" id="Fill-265" fill="#FF9A70"></path>
                    </g>
                </g>
            </g>
        </g>
    </g>
</svg>