<?xml version="1.0" standalone="no"?>
<!DOCTYPE svg PUBLIC "-//W3C//DTD SVG 20010904//EN"
 "http://www.w3.org/TR/2001/REC-SVG-20010904/DTD/svg10.dtd">
<svg version="1.0" xmlns="http://www.w3.org/2000/svg"
 width="2829.000000pt" height="2829.000000pt" viewBox="0 0 2829.000000 2829.000000"
 preserveAspectRatio="xMidYMid meet">
<metadata>
Created by potrace 1.11, written by Peter Selinger 2001-2013
</metadata>
<g transform="translate(0.000000,2829.000000) scale(0.100000,-0.100000)"
fill="#000000" stroke="none">
<path d="M0 14145 l0 -14145 9978 3 c5487 1 10015 6 10062 10 47 4 110 9 140
12 30 3 78 7 105 10 117 11 171 16 195 20 14 2 52 6 85 10 32 4 67 8 76 10 9
2 40 6 70 10 89 12 103 13 134 19 17 3 73 12 125 21 338 57 720 148 1074 255
154 47 456 149 501 169 11 5 47 19 80 31 33 12 96 38 141 56 45 19 84 34 87
34 3 0 34 13 69 29 35 16 83 38 108 48 135 59 215 97 405 193 273 139 354 184
670 373 42 25 400 261 405 267 3 3 66 49 140 103 132 95 215 157 294 220 85
68 293 242 336 281 25 23 86 77 135 121 98 87 434 421 530 526 84 91 186 207
210 237 11 14 29 34 40 46 21 22 250 306 295 366 14 18 41 54 60 79 20 25 43
57 52 71 9 14 32 46 50 71 97 137 132 188 226 331 56 86 102 159 102 162 0 3
13 24 29 48 16 24 37 59 48 78 10 19 31 54 46 77 15 24 27 45 27 48 0 3 10 22
23 43 53 84 219 404 291 561 30 64 71 152 91 196 20 44 46 103 57 130 11 28
26 64 33 80 8 17 27 64 43 105 16 41 33 84 37 95 5 11 9 22 10 25 1 3 4 12 8
20 27 66 166 470 173 505 2 6 19 64 39 130 83 278 182 698 220 935 3 19 12 71
20 115 8 44 17 103 20 130 4 28 8 57 10 65 2 8 7 41 10 73 4 32 8 68 11 80 2
12 6 49 9 82 3 33 7 78 10 100 9 79 15 131 20 210 4 44 9 105 12 135 4 30 8
4549 10 10043 l3 9987 -14145 0 -14145 0 0 -14145z m22300 9895 c0 -4 -9 -45
-21 -91 -11 -46 -22 -91 -24 -99 -2 -8 -9 -37 -15 -65 -6 -27 -13 -57 -15 -65
-22 -93 -78 -327 -90 -370 -8 -30 -16 -66 -19 -80 -6 -32 -8 -40 -45 -194 -17
-71 -34 -143 -37 -159 -3 -17 -7 -33 -9 -37 -2 -3 -6 -17 -9 -31 -2 -13 -18
-80 -35 -149 -16 -69 -32 -136 -35 -150 -2 -14 -16 -70 -29 -125 -48 -196
-109 -450 -114 -475 -2 -14 -13 -59 -24 -100 -11 -41 -22 -88 -25 -105 -3 -16
-10 -48 -15 -70 -6 -22 -12 -47 -14 -56 -2 -8 -17 -71 -33 -140 -17 -68 -47
-195 -68 -281 -27 -110 -43 -159 -54 -163 -8 -2 -37 -7 -65 -10 -27 -3 -60 -8
-71 -10 -12 -3 -73 -12 -135 -20 -63 -8 -127 -17 -144 -20 -16 -2 -82 -11
-145 -20 -126 -18 -163 -23 -200 -30 -14 -2 -47 -7 -75 -10 -27 -3 -90 -12
-140 -20 -49 -7 -112 -16 -140 -20 -27 -3 -61 -8 -75 -10 -44 -7 -94 -14 -145
-21 -27 -3 -58 -8 -69 -10 -10 -2 -44 -6 -75 -10 -31 -3 -65 -8 -76 -10 -10
-2 -37 -6 -60 -9 -22 -4 -52 -8 -66 -11 -15 -2 -47 -6 -70 -9 -80 -10 -111
-14 -279 -40 -14 -2 -47 -6 -75 -9 -27 -4 -61 -8 -75 -11 -26 -4 -35 -6 -176
-25 -44 -6 -89 -12 -100 -14 -10 -2 -41 -7 -69 -10 -115 -16 -185 -26 -215
-31 -8 -2 -40 -6 -70 -9 -30 -4 -66 -8 -80 -11 -14 -2 -61 -9 -105 -15 -100
-14 -133 -19 -165 -25 -14 -2 -47 -7 -75 -10 -88 -11 -119 -15 -180 -25 -33
-5 -80 -12 -105 -15 -25 -3 -56 -8 -70 -10 -14 -2 -63 -9 -110 -15 -47 -7 -94
-13 -105 -15 -11 -2 -42 -6 -70 -10 -27 -3 -63 -8 -80 -11 -45 -7 -86 -13
-127 -19 -21 -3 -53 -7 -70 -10 -18 -2 -69 -9 -113 -15 -44 -6 -91 -13 -105
-15 -40 -6 -183 -26 -210 -30 -96 -13 -124 -17 -139 -20 -10 -2 -42 -6 -72
-10 -89 -11 -103 -13 -134 -19 -16 -3 -50 -7 -75 -11 -25 -3 -63 -8 -85 -11
-22 -3 -51 -7 -65 -9 -14 -2 -45 -6 -70 -10 -76 -11 -93 -14 -140 -20 -25 -3
-72 -10 -106 -15 -33 -6 -85 -13 -115 -16 -30 -3 -57 -7 -60 -9 -3 -2 -37 -7
-75 -10 -38 -4 -71 -8 -74 -10 -3 -2 -30 -6 -60 -9 -30 -4 -66 -9 -80 -11 -46
-8 -85 -14 -129 -20 -24 -3 -123 -16 -220 -30 -97 -14 -192 -28 -211 -30 -20
-3 -45 -7 -55 -9 -11 -2 -45 -7 -76 -10 -31 -4 -67 -9 -80 -11 -12 -3 -59 -9
-103 -15 -45 -6 -92 -13 -106 -15 -14 -2 -47 -7 -75 -10 -27 -3 -75 -10 -105
-15 -59 -10 -82 -13 -205 -30 -44 -5 -91 -12 -105 -15 -14 -2 -61 -9 -105 -15
-44 -6 -96 -13 -115 -16 -19 -3 -53 -7 -75 -9 -22 -3 -51 -7 -65 -10 -14 -2
-45 -7 -70 -10 -51 -6 -116 -16 -145 -21 -11 -2 -47 -7 -80 -10 -33 -4 -62 -8
-65 -9 -3 -2 -33 -7 -65 -10 -33 -4 -91 -13 -129 -19 -74 -12 -74 -12 -90 -91
-2 -11 -16 -67 -30 -125 -56 -234 -108 -452 -137 -575 -17 -71 -32 -137 -34
-145 -2 -8 -22 -89 -44 -180 -22 -91 -42 -176 -45 -190 -2 -14 -30 -131 -61
-260 -31 -129 -59 -246 -61 -260 -3 -14 -7 -31 -9 -38 -4 -10 -45 -183 -71
-294 -2 -10 -6 -26 -8 -35 -21 -87 -48 -201 -51 -213 -1 -8 -8 -33 -13 -55 -6
-22 -13 -51 -16 -65 -3 -14 -15 -63 -26 -110 -21 -82 -25 -101 -34 -145 -3
-11 -16 -67 -30 -125 -14 -58 -26 -109 -26 -113 0 -4 17 -6 38 -3 20 3 57 8
82 11 25 3 54 7 65 9 11 2 45 7 75 11 30 4 63 9 74 11 10 2 44 6 75 10 31 3
63 8 73 9 9 2 38 6 65 10 82 11 107 15 133 20 26 4 35 6 176 25 44 6 91 13
105 15 13 3 47 7 74 10 28 3 59 7 70 9 11 2 43 7 70 10 28 4 61 9 75 11 39 6
89 13 176 25 44 6 90 12 101 14 11 3 44 7 74 11 60 7 101 13 139 20 14 2 50 7
80 10 30 3 62 7 70 10 8 2 38 6 65 10 28 3 61 8 75 10 44 7 94 14 145 21 28 3
57 8 66 9 9 2 40 6 69 10 29 4 61 8 70 10 9 2 41 6 71 10 30 3 79 10 109 15
30 5 76 12 102 14 26 3 76 10 110 15 62 10 98 16 168 25 72 9 136 19 155 22
11 2 47 7 80 10 33 4 63 8 67 11 4 2 29 6 55 8 26 3 80 10 118 16 101 15 115
17 170 24 28 4 61 8 75 10 14 3 88 13 165 24 227 33 250 36 326 46 l47 6 -13
-53 c-29 -124 -107 -454 -110 -468 -2 -8 -4 -15 -5 -15 -1 0 -3 -7 -5 -16 -13
-66 -48 -219 -56 -239 -4 -14 -10 -36 -13 -50 -2 -14 -12 -56 -21 -95 -9 -38
-18 -77 -20 -85 -4 -22 -54 -230 -62 -260 -9 -38 -11 -43 -16 -70 -3 -14 -18
-74 -32 -135 -15 -60 -29 -121 -32 -134 -2 -14 -6 -28 -8 -32 -3 -4 -12 -40
-21 -80 -8 -41 -17 -81 -19 -89 -41 -170 -70 -291 -86 -358 -11 -45 -22 -95
-25 -110 -3 -15 -7 -33 -9 -40 -3 -8 -30 -120 -61 -250 -78 -328 -84 -353 -90
-387 -7 -38 -28 -55 -71 -56 -18 -1 -36 -2 -40 -3 -5 -1 -35 -6 -68 -10 -32
-4 -66 -9 -75 -11 -8 -1 -37 -6 -65 -9 -27 -4 -79 -11 -115 -17 -35 -6 -85
-12 -110 -14 -25 -3 -56 -7 -70 -10 -34 -6 -71 -12 -165 -25 -44 -6 -91 -12
-105 -14 -14 -2 -47 -7 -73 -11 -27 -4 -56 -8 -65 -10 -10 -1 -42 -6 -72 -9
-30 -4 -66 -8 -80 -11 -14 -2 -43 -6 -65 -9 -22 -4 -51 -8 -65 -11 -14 -2 -47
-7 -75 -10 -65 -8 -108 -14 -175 -25 -30 -5 -76 -12 -102 -15 -50 -5 -105 -13
-153 -20 -16 -3 -46 -7 -65 -9 -94 -13 -263 -38 -278 -40 -9 -2 -42 -7 -72
-11 -30 -4 -62 -9 -70 -10 -8 -2 -40 -6 -71 -9 -31 -4 -65 -8 -75 -10 -11 -2
-41 -7 -69 -10 -27 -4 -66 -10 -85 -13 -47 -7 -75 -11 -140 -18 -30 -4 -57 -8
-60 -10 -3 -2 -33 -6 -65 -10 -52 -6 -107 -13 -215 -30 -14 -2 -47 -6 -75 -10
-27 -3 -108 -15 -180 -25 -71 -11 -152 -22 -180 -25 -27 -4 -57 -8 -65 -10 -8
-2 -39 -7 -69 -10 -30 -4 -61 -8 -70 -10 -9 -1 -41 -6 -71 -10 -30 -4 -62 -9
-71 -10 -9 -2 -40 -6 -69 -10 -29 -4 -61 -8 -70 -10 -9 -2 -39 -6 -66 -10 -27
-3 -71 -9 -99 -13 -48 -8 -53 -6 -110 33 -51 35 -262 181 -360 249 -16 12 -32
23 -35 26 -3 3 -12 10 -21 15 -10 6 -39 25 -65 44 -27 18 -121 83 -209 144
-88 61 -162 113 -165 117 -3 3 -32 23 -65 46 -158 106 -220 149 -225 155 -3 3
-48 34 -100 70 -87 60 -533 369 -1055 732 -251 175 -196 136 -455 317 -118 82
-220 152 -225 157 -6 4 -39 28 -75 52 -92 62 -154 105 -160 111 -3 3 -43 31
-90 63 -47 32 -93 63 -102 71 -16 12 -15 21 13 137 61 259 112 476 124 530 7
31 17 72 23 90 6 19 14 52 18 74 4 22 8 45 10 50 20 78 77 315 79 330 2 11 19
85 39 165 55 230 97 404 101 421 2 8 17 71 33 140 17 68 49 205 72 304 23 99
56 234 72 300 16 66 32 131 34 145 3 14 21 89 40 168 19 79 36 151 37 160 2 9
9 35 15 57 6 22 13 51 16 65 2 14 16 75 31 135 14 61 28 117 30 125 2 8 11 47
20 85 9 39 18 77 20 86 2 8 10 44 19 80 9 35 18 73 20 84 2 11 9 40 16 65 7
25 13 52 15 60 2 8 33 141 70 295 79 334 86 361 100 425 3 12 53 223 69 290
46 188 157 659 160 674 3 12 19 80 36 151 18 72 33 137 35 145 16 77 48 201
53 204 4 2 30 7 57 10 28 4 61 8 75 11 30 5 78 12 145 20 28 4 57 8 65 10 8 2
40 7 70 10 30 3 80 10 110 15 62 10 91 14 210 30 47 6 96 13 110 15 30 5 98
14 137 20 76 10 130 18 148 21 10 2 35 6 55 8 62 8 145 20 150 21 3 1 34 5 70
10 36 5 67 9 70 10 3 1 32 5 65 9 32 4 67 9 76 11 9 2 40 6 70 10 30 3 61 8
69 10 8 2 40 7 70 10 30 3 66 8 80 10 14 2 45 7 70 10 25 3 52 8 60 10 8 2 40
6 71 10 31 3 65 7 75 9 19 3 86 13 154 22 19 3 46 7 60 9 14 2 43 7 65 9 38 5
231 32 285 41 14 2 48 6 75 10 28 3 61 8 75 10 112 17 237 35 290 41 25 3 52
7 60 9 8 2 40 7 70 10 30 3 62 8 70 10 8 2 40 7 70 10 30 3 67 8 82 11 15 3
40 7 57 9 73 9 189 26 210 30 13 2 49 7 80 11 31 3 63 7 71 9 25 4 93 14 140
20 25 4 56 8 70 10 14 2 45 6 70 10 25 3 56 8 70 10 14 3 106 16 205 30 176
24 234 32 285 40 14 3 50 7 80 10 30 4 62 8 70 10 8 2 38 7 65 10 28 3 75 10
105 15 30 5 78 12 105 15 28 3 61 7 75 9 14 3 61 10 105 16 44 6 91 13 105 15
14 2 45 7 70 10 25 3 56 8 70 10 14 2 61 9 105 15 44 6 92 13 106 16 14 2 41
6 60 8 19 3 115 16 214 30 99 14 198 28 220 30 50 7 105 15 175 26 30 5 79 12
109 15 30 4 62 8 71 10 9 2 41 6 70 10 29 4 60 8 69 10 9 2 44 7 76 11 33 4
62 8 65 9 3 1 34 5 70 9 36 5 74 10 84 12 11 2 56 8 100 14 45 6 92 13 106 15
14 2 45 6 70 10 25 3 56 8 70 10 14 2 45 7 70 10 25 4 57 8 71 11 15 2 47 6
70 9 24 3 55 8 69 10 14 2 43 7 65 9 50 6 181 25 215 31 14 2 75 11 135 19
122 17 125 17 315 45 74 11 159 23 189 26 30 4 61 8 70 10 9 1 41 6 71 10 30
4 62 9 71 10 9 2 40 6 70 10 30 3 61 8 69 10 8 2 38 6 65 10 28 3 57 8 65 10
8 2 40 6 71 10 31 3 65 7 76 9 10 2 46 7 78 11 33 4 67 9 76 10 9 2 40 6 70
10 30 4 56 8 59 10 3 2 34 6 70 10 36 4 74 9 85 11 11 2 41 6 66 9 25 3 54 7
65 9 10 2 42 7 69 10 28 4 64 9 80 11 17 2 95 13 175 25 80 11 161 23 180 25
20 3 45 7 56 9 12 2 45 7 75 11 133 17 200 26 218 30 27 5 93 14 141 20 25 3
56 8 70 10 31 5 80 12 145 20 28 4 57 8 65 10 8 2 40 7 70 10 30 3 69 9 85 11
17 3 44 7 60 10 86 11 263 35 285 39 14 2 76 11 138 20 62 9 121 18 130 20 9
1 42 6 73 9 31 4 66 8 76 10 11 3 44 7 74 11 30 3 95 13 144 20 50 8 115 17
145 20 30 4 73 10 95 14 51 9 65 9 65 1z m-10554 -10247 c-3 -10 -19 -76 -36
-148 -18 -71 -33 -134 -34 -140 -2 -5 -6 -28 -10 -50 -4 -22 -12 -54 -17 -71
-5 -17 -11 -40 -13 -50 -3 -10 -27 -113 -55 -229 -27 -115 -52 -221 -55 -235
-2 -14 -25 -108 -50 -210 -24 -102 -47 -198 -50 -213 -3 -16 -10 -43 -15 -60
-6 -18 -12 -43 -15 -57 -2 -14 -15 -72 -29 -130 -14 -58 -40 -166 -58 -240
-17 -74 -40 -171 -51 -215 -10 -44 -21 -91 -24 -105 -3 -14 -12 -52 -21 -85
-8 -33 -16 -67 -18 -75 -2 -8 -22 -94 -45 -190 -23 -96 -43 -182 -45 -190 -2
-8 -35 -150 -75 -315 -39 -165 -74 -311 -76 -324 -3 -13 -16 -69 -30 -125 -15
-55 -28 -110 -30 -121 -2 -11 -8 -38 -14 -60 -5 -22 -19 -78 -29 -125 -11 -47
-38 -160 -60 -251 -22 -91 -42 -176 -45 -190 -2 -13 -25 -107 -49 -209 -41
-166 -104 -431 -112 -470 -2 -8 -18 -73 -35 -145 -48 -197 -89 -371 -94 -397
-2 -13 -23 -97 -45 -188 -62 -257 -91 -381 -91 -391 0 -9 35 -7 110 6 14 2 45
7 70 10 25 4 56 8 70 10 14 2 45 7 70 10 25 3 56 8 70 10 14 2 63 9 110 15 47
6 99 13 115 16 51 9 113 18 205 29 30 3 62 8 70 10 8 2 35 7 60 10 25 3 62 8
82 11 21 3 50 7 65 9 70 9 264 36 280 39 19 4 95 14 153 22 19 3 53 7 75 11
46 7 47 7 135 18 36 4 68 9 71 11 4 2 31 6 60 9 30 3 65 7 79 10 31 6 69 11
140 20 30 4 62 9 70 10 8 1 40 6 70 10 30 4 62 9 70 10 8 1 40 6 70 10 30 4
62 9 71 10 9 2 40 6 70 10 30 3 61 8 69 10 8 2 39 7 69 10 30 4 63 8 74 11 10
2 45 6 76 9 31 4 63 8 71 10 8 2 35 7 60 10 47 6 108 14 150 20 61 9 319 46
355 51 22 2 51 7 65 9 14 2 45 7 70 10 25 4 56 8 70 10 14 2 45 7 70 10 25 3
56 8 70 10 14 2 50 7 80 10 30 4 64 9 75 11 10 2 37 6 60 9 22 4 51 8 65 10
14 2 50 7 80 10 30 3 62 8 70 10 17 4 76 14 135 21 81 9 121 15 148 20 15 3
45 7 66 9 21 2 52 5 67 9 16 3 49 8 74 11 25 4 56 8 70 10 14 2 45 7 70 10 25
3 56 8 70 10 14 2 63 9 110 15 47 6 96 13 110 15 111 18 162 25 205 30 28 3
60 7 72 9 11 3 43 7 70 11 26 4 59 9 73 11 14 2 50 6 80 9 30 4 62 8 70 10 8
2 38 7 65 11 28 3 59 8 70 10 11 2 43 6 70 9 52 6 92 12 135 20 14 2 50 7 80
10 30 3 62 7 70 10 8 2 38 6 65 10 48 5 72 9 140 20 17 2 66 9 110 15 44 6 91
13 105 15 14 2 45 7 70 10 25 3 56 8 70 10 14 2 45 6 70 10 25 3 61 8 80 11
19 2 49 6 65 9 29 3 79 11 140 20 53 8 89 13 138 20 27 4 56 8 65 9 10 2 43 7
76 11 32 3 68 8 80 10 11 2 57 9 102 15 44 6 89 12 100 14 10 2 42 7 69 10 51
6 117 16 146 21 9 2 40 6 70 10 30 3 65 8 79 10 14 3 45 7 70 10 25 3 54 7 65
9 11 2 56 9 100 15 147 21 135 22 125 -3 -4 -13 -10 -36 -13 -52 -3 -16 -15
-69 -27 -119 -12 -49 -24 -100 -26 -113 -3 -12 -25 -106 -49 -207 -39 -160
-50 -208 -70 -295 -2 -8 -28 -118 -59 -245 -30 -126 -64 -270 -76 -320 -12
-49 -36 -153 -55 -230 -18 -77 -47 -198 -64 -270 -17 -71 -51 -213 -75 -315
-25 -102 -57 -237 -72 -300 -29 -127 -62 -267 -68 -290 -5 -16 -26 -106 -31
-130 -2 -8 -9 -36 -15 -62 l-12 -46 -61 -7 c-34 -4 -69 -9 -78 -10 -9 -2 -40
-6 -70 -10 -30 -3 -65 -8 -79 -10 -14 -3 -38 -7 -55 -9 -16 -2 -50 -7 -75 -11
-75 -11 -93 -14 -140 -20 -25 -3 -56 -8 -70 -10 -14 -2 -45 -6 -70 -10 -47 -6
-115 -16 -140 -20 -8 -2 -42 -6 -75 -10 -32 -3 -62 -8 -65 -10 -3 -1 -36 -6
-75 -10 -38 -4 -72 -8 -75 -10 -3 -2 -33 -7 -65 -10 -33 -4 -67 -9 -76 -10 -9
-2 -40 -6 -70 -10 -30 -3 -79 -10 -109 -15 -65 -11 -108 -17 -175 -25 -27 -4
-61 -8 -75 -10 -47 -8 -380 -55 -422 -60 -24 -3 -54 -8 -68 -10 -14 -2 -45 -7
-70 -10 -25 -3 -70 -10 -100 -15 -30 -5 -79 -12 -109 -15 -30 -4 -62 -8 -71
-10 -9 -2 -41 -6 -70 -10 -29 -4 -62 -9 -74 -11 -12 -2 -46 -7 -76 -10 -30 -3
-62 -7 -70 -9 -15 -4 -51 -9 -135 -20 -22 -2 -49 -6 -60 -9 -11 -2 -46 -7 -79
-11 -32 -3 -68 -8 -80 -10 -42 -7 -103 -16 -211 -31 -60 -8 -121 -17 -135 -19
-14 -2 -47 -6 -73 -10 -27 -4 -57 -8 -66 -10 -10 -2 -42 -6 -71 -10 -29 -4
-62 -9 -74 -11 -12 -2 -41 -6 -66 -9 -39 -5 -185 -25 -290 -41 -161 -23 -233
-34 -279 -39 -30 -4 -62 -8 -72 -10 -9 -2 -39 -6 -66 -10 -26 -4 -59 -8 -73
-10 -14 -2 -47 -7 -75 -11 -27 -3 -57 -8 -66 -9 -9 -2 -40 -6 -70 -10 -30 -3
-65 -8 -79 -10 -14 -3 -38 -7 -55 -9 -32 -5 -103 -15 -145 -21 -14 -2 -74 -11
-135 -19 -60 -8 -126 -18 -145 -20 -186 -27 -270 -39 -295 -42 -16 -2 -43 -6
-60 -8 -16 -3 -52 -8 -80 -12 -27 -3 -58 -8 -69 -10 -10 -2 -44 -6 -75 -9 -31
-4 -63 -8 -71 -10 -8 -2 -37 -7 -65 -10 -27 -3 -61 -8 -75 -10 -14 -3 -43 -7
-65 -10 -22 -3 -53 -7 -70 -10 -16 -3 -48 -7 -70 -10 -22 -3 -69 -10 -105 -15
-36 -5 -83 -12 -105 -15 -130 -18 -175 -25 -220 -31 -27 -3 -57 -8 -66 -9 -9
-2 -40 -6 -69 -10 -29 -4 -61 -8 -70 -10 -9 -2 -41 -6 -71 -10 -30 -3 -65 -8
-79 -10 -43 -8 -81 -13 -200 -30 -63 -8 -126 -17 -140 -19 -31 -5 -115 -17
-155 -22 -32 -4 -161 -22 -207 -30 -50 -7 -82 -12 -133 -19 -27 -3 -61 -8 -75
-10 -27 -4 -46 -7 -186 -26 l-92 -13 -73 51 c-104 70 -658 455 -754 523 -44
31 -109 76 -145 101 -36 24 -69 48 -75 52 -10 9 -138 97 -340 236 -60 41 -114
79 -120 84 -14 11 -434 304 -470 327 -16 11 -37 24 -45 30 -203 142 -450 314
-665 463 -148 103 -279 194 -290 201 -24 17 -293 205 -418 291 -77 53 -87 63
-82 85 11 50 14 66 35 150 12 47 23 92 25 100 7 33 68 291 91 390 14 58 27
112 29 120 2 8 8 33 13 55 6 22 13 51 15 65 3 14 10 45 17 70 7 25 14 52 15
60 6 26 51 218 85 360 18 74 36 151 40 170 5 19 10 44 13 55 5 22 96 400 102
425 33 140 137 579 140 590 2 8 9 38 15 65 6 28 13 57 15 65 2 8 21 90 44 181
22 91 42 176 45 190 2 13 43 186 91 384 98 408 90 374 104 440 6 28 15 66 21
85 11 38 106 439 114 480 2 14 23 102 45 195 56 229 72 297 76 315 8 35 80
334 107 445 16 66 32 131 34 145 4 19 67 282 78 325 2 6 6 26 10 46 8 36 9 37
64 44 31 4 63 8 72 10 18 3 100 15 150 21 19 2 49 6 65 9 17 3 48 7 70 10 22
3 51 8 65 10 14 3 45 7 70 10 25 3 74 9 110 15 78 11 121 18 220 31 41 6 86
12 100 14 14 2 45 6 70 10 25 3 56 8 70 10 14 2 45 7 70 10 25 4 56 8 70 10
14 2 45 7 70 10 25 3 56 8 70 10 14 2 43 6 65 9 22 3 121 17 220 31 220 31
255 36 280 40 11 1 57 8 102 14 46 7 97 14 114 16 17 2 42 6 57 9 15 3 50 8
77 11 28 3 61 8 75 10 52 8 97 14 145 20 28 4 57 8 65 10 8 2 40 7 70 10 30 3
62 8 70 10 8 2 39 7 69 10 30 4 62 8 71 10 9 2 39 6 66 9 47 6 79 11 144 21
17 2 50 7 73 10 52 7 114 15 147 20 14 2 48 7 75 11 28 3 57 8 66 9 9 2 40 6
70 10 30 3 65 8 79 10 41 7 145 23 205 31 83 10 330 46 332 48 1 1 16 3 33 4
26 2 31 -1 26 -15z"/>
</g>
</svg>
