<svg id="svg" version="1.1" xmlns="http://www.w3.org/2000/svg" xmlns:xlink="http://www.w3.org/1999/xlink" width="400" height="390.02493765586036" viewBox="0, 0, 400,390.02493765586036"><g id="svgg"><path id="path0" d="M38.894 29.366 C 38.482 64.289,38.521 68.556,39.251 68.836 C 39.591 68.967,46.791 69.073,55.251 69.073 L 70.634 69.073 70.634 38.244 L 70.634 7.415 54.893 7.415 L 39.152 7.415 38.894 29.366 M232.492 22.146 L 232.390 36.878 200.098 36.736 L 167.805 36.594 167.805 52.638 L 167.805 68.683 200.195 68.683 L 232.585 68.683 232.585 84.098 L 232.585 99.512 248.386 99.512 L 264.186 99.512 264.288 84.195 L 264.390 68.878 296.098 68.778 L 327.805 68.678 327.805 53.529 L 327.805 38.380 328.708 37.531 C 329.604 36.689,329.729 36.683,345.293 36.683 L 360.976 36.683 360.976 22.049 L 360.976 7.415 344.785 7.415 L 328.595 7.415 328.492 22.146 L 328.390 36.878 312.390 36.878 L 296.390 36.878 296.288 22.146 L 296.186 7.415 264.390 7.415 L 232.595 7.415 232.492 22.146 M361.366 52.878 L 361.366 68.683 376.976 68.683 L 392.585 68.683 392.585 52.878 L 392.585 37.073 376.976 37.073 L 361.366 37.073 361.366 52.878 M104.065 69.333 C 103.922 69.476,103.805 76.411,103.805 84.744 L 103.805 99.894 87.317 99.996 L 70.829 100.098 70.829 115.902 L 70.829 131.707 103.024 131.570 C 120.732 131.494,135.244 131.407,135.273 131.375 C 135.303 131.343,135.456 117.312,135.613 100.195 L 135.899 69.073 120.112 69.073 C 111.429 69.073,104.208 69.190,104.065 69.333 M264.846 100.163 C 264.378 100.630,264.540 131.438,265.011 131.729 C 265.245 131.874,279.470 131.862,296.621 131.702 L 327.805 131.412 327.805 115.657 L 327.805 99.902 296.455 99.902 C 279.213 99.902,264.989 100.020,264.846 100.163 M199.805 115.907 L 199.805 131.521 215.902 131.419 L 232.000 131.317 232.102 115.805 L 232.204 100.293 216.004 100.293 L 199.805 100.293 199.805 115.907 M135.898 147.220 L 136.000 162.537 151.610 162.537 L 167.220 162.537 167.322 147.220 L 167.424 131.902 151.610 131.902 L 135.796 131.902 135.898 147.220 M264.846 162.602 C 264.702 162.745,264.585 169.945,264.585 178.602 L 264.585 194.341 280.390 194.341 L 296.195 194.341 296.195 178.959 C 296.195 170.498,296.089 163.298,295.958 162.959 C 295.711 162.315,265.479 161.968,264.846 162.602 M328.373 163.220 C 328.270 163.489,328.232 170.558,328.288 178.928 L 328.390 194.146 344.683 194.248 L 360.976 194.350 360.976 178.541 L 360.976 162.732 344.768 162.732 C 332.146 162.732,328.519 162.840,328.373 163.220 M199.805 178.732 L 199.805 194.341 216.000 194.341 L 232.195 194.341 232.195 178.732 L 232.195 163.122 216.000 163.122 L 199.805 163.122 199.805 178.732 M7.289 194.988 C 6.961 195.316,6.934 224.482,7.261 225.334 C 7.472 225.883,9.229 225.951,23.059 225.951 L 38.619 225.951 38.833 225.073 C 38.950 224.590,38.998 217.610,38.938 209.561 L 38.829 194.927 23.191 194.825 C 14.591 194.769,7.434 194.842,7.289 194.988 M71.024 210.146 L 71.024 225.561 87.220 225.561 L 103.415 225.561 103.415 210.146 L 103.415 194.732 87.220 194.732 L 71.024 194.732 71.024 210.146 M361.626 194.992 C 361.483 195.135,361.366 201.984,361.366 210.211 L 361.366 225.171 376.976 225.171 L 392.585 225.171 392.585 209.951 L 392.585 194.732 377.236 194.732 C 368.793 194.732,361.769 194.849,361.626 194.992 M167.415 241.561 L 167.415 257.171 183.415 257.171 L 199.415 257.171 199.415 241.561 L 199.415 225.951 183.415 225.951 L 167.415 225.951 167.415 241.561 M232.492 241.854 L 232.390 257.756 216.098 257.858 L 199.805 257.960 199.805 288.395 L 199.805 318.829 215.995 318.829 L 232.186 318.829 232.288 303.707 L 232.390 288.585 248.357 288.483 L 264.323 288.381 264.064 264.907 C 263.921 251.996,263.805 237.949,263.805 233.692 L 263.805 225.951 248.199 225.951 L 232.594 225.951 232.492 241.854 M296.585 241.756 L 296.585 257.561 312.195 257.561 L 327.805 257.561 327.805 241.756 L 327.805 225.951 312.195 225.951 L 296.585 225.951 296.585 241.756 M71.285 257.431 C 71.141 257.574,71.024 264.598,71.024 273.041 L 71.024 288.390 87.220 288.390 L 103.415 288.390 103.415 272.780 L 103.415 257.171 87.480 257.171 C 78.715 257.171,71.428 257.288,71.285 257.431 M136.195 272.698 C 136.195 283.958,136.075 287.964,135.727 288.312 C 135.378 288.661,131.243 288.780,119.532 288.780 L 103.805 288.780 103.805 304.000 L 103.805 319.220 87.220 319.220 L 70.634 319.220 70.634 304.000 L 70.634 288.780 54.829 288.780 L 39.024 288.780 39.024 304.195 L 39.024 319.610 54.825 319.610 L 70.625 319.610 70.727 335.512 L 70.829 351.415 87.220 351.415 L 103.610 351.415 103.805 335.610 L 104.000 319.805 135.610 319.415 L 167.220 319.024 167.220 288.390 L 167.220 257.756 151.707 257.654 L 136.195 257.552 136.195 272.698 M264.683 288.649 C 264.168 288.856,263.930 317.684,264.432 318.992 C 264.742 319.801,295.314 319.945,296.117 319.141 C 296.920 318.339,296.776 288.937,295.968 288.627 C 295.231 288.344,265.386 288.365,264.683 288.649 M328.065 288.650 C 327.461 289.254,327.776 318.709,328.391 319.220 C 328.855 319.605,335.612 319.646,360.781 319.416 L 392.585 319.125 392.585 303.758 L 392.585 288.390 360.455 288.390 C 342.784 288.390,328.208 288.507,328.065 288.650 M7.415 335.215 L 7.415 350.829 23.224 350.829 L 39.033 350.829 38.931 335.317 L 38.829 319.805 23.122 319.703 L 7.415 319.601 7.415 335.215 M264.455 351.480 C 264.312 351.623,264.195 358.735,264.195 367.285 L 264.195 382.829 280.195 382.829 L 296.195 382.829 296.195 367.024 L 296.195 351.220 280.455 351.220 C 271.798 351.220,264.598 351.337,264.455 351.480 M361.236 351.480 C 361.093 351.623,360.976 358.735,360.976 367.285 L 360.976 382.829 376.976 382.829 L 392.976 382.829 392.976 367.642 C 392.976 359.288,392.869 352.176,392.739 351.837 C 392.492 351.193,361.869 350.846,361.236 351.480 " stroke="none" fill="#2c944c" fill-rule="evenodd"></path><path id="path1" d="M0.000 195.122 L 0.000 390.244 200.000 390.244 L 400.000 390.244 400.000 195.122 L 400.000 0.000 200.000 0.000 L 0.000 0.000 0.000 195.122 M392.878 7.128 C 393.576 7.675,393.595 99.127,392.898 99.824 C 392.549 100.173,388.414 100.293,376.702 100.293 L 360.976 100.293 360.976 115.660 C 360.976 128.018,361.078 131.111,361.498 131.460 C 361.856 131.757,366.840 131.925,377.400 131.995 L 392.780 132.098 392.994 170.341 C 393.112 191.376,393.200 247.905,393.189 295.962 L 393.171 383.338 236.878 383.460 C 150.917 383.527,71.278 383.456,59.902 383.303 L 39.220 383.024 39.118 367.321 L 39.016 351.618 22.922 351.517 L 6.829 351.415 6.829 272.976 L 6.829 194.537 38.732 194.437 L 70.634 194.337 70.634 178.779 L 70.634 163.221 38.927 162.879 L 7.220 162.537 6.879 132.023 C 6.691 115.241,6.651 101.060,6.789 100.511 L 7.039 99.512 22.837 99.512 L 38.634 99.512 38.634 84.297 L 38.634 69.082 22.732 68.980 L 6.829 68.878 6.729 38.287 C 6.660 17.061,6.757 7.542,7.045 7.194 C 7.572 6.560,392.069 6.494,392.878 7.128 M103.512 37.366 L 71.415 37.468 71.414 45.368 C 71.414 49.713,71.297 63.673,71.155 76.390 L 70.896 99.512 87.151 99.512 L 103.406 99.512 103.508 84.000 L 103.610 68.488 135.317 68.629 L 167.024 68.770 167.024 52.922 L 167.024 37.073 151.317 37.168 C 142.678 37.221,121.166 37.310,103.512 37.366 M328.585 84.488 L 328.585 99.902 344.585 99.902 L 360.585 99.902 360.585 84.488 L 360.585 69.073 344.585 69.073 L 328.585 69.073 328.585 84.488 M232.912 115.805 C 232.876 124.337,232.818 152.434,232.782 178.244 L 232.717 225.171 248.520 225.171 L 264.323 225.171 264.064 202.277 C 263.921 189.686,263.805 161.588,263.805 139.838 L 263.805 100.293 248.390 100.293 L 232.976 100.293 232.912 115.805 M168.069 132.158 C 167.924 132.304,167.805 139.154,167.805 147.382 L 167.805 162.341 183.614 162.341 L 199.424 162.341 199.322 147.220 L 199.220 132.098 183.777 131.996 C 175.283 131.939,168.215 132.013,168.069 132.158 M296.585 178.537 L 296.585 194.341 312.195 194.341 L 327.805 194.341 327.805 178.537 L 327.805 162.732 312.195 162.732 L 296.585 162.732 296.585 178.537 M104.195 225.561 L 104.195 288.000 119.805 288.000 L 135.415 288.000 135.415 272.098 C 135.415 263.351,135.532 235.254,135.674 209.659 L 135.934 163.122 120.064 163.122 L 104.195 163.122 104.195 225.561 M167.679 194.988 C 167.534 195.133,167.415 201.984,167.415 210.211 L 167.415 225.171 183.419 225.171 L 199.424 225.171 199.322 210.049 L 199.220 194.927 183.582 194.825 C 174.981 194.769,167.825 194.842,167.679 194.988 M328.585 210.341 L 328.585 225.561 344.585 225.561 L 360.585 225.561 360.585 210.341 L 360.585 195.122 344.585 195.122 L 328.585 195.122 328.585 210.341 M264.679 241.463 L 264.780 257.366 280.293 257.468 L 295.805 257.570 295.805 241.565 L 295.805 225.561 280.191 225.561 L 264.577 225.561 264.679 241.463 M39.415 272.780 L 39.415 288.000 54.829 288.000 L 70.244 288.000 70.244 272.780 L 70.244 257.561 54.829 257.561 L 39.415 257.561 39.415 272.780 M199.805 335.215 L 199.805 350.829 216.200 350.829 L 232.594 350.829 232.492 335.317 L 232.390 319.805 216.098 319.703 L 199.805 319.601 199.805 335.215 " stroke="none" fill="#e4f4dc" fill-rule="evenodd"></path><path id="path2" d="M7.102 7.102 C 6.571 7.634,6.398 68.491,6.927 68.818 C 7.088 68.917,7.220 55.098,7.220 38.109 L 7.220 7.220 71.415 7.023 L 135.610 6.826 71.590 6.730 C 22.211 6.656,7.464 6.741,7.102 7.102 M175.733 6.926 C 180.201 6.989,187.401 6.989,191.733 6.926 C 196.065 6.864,192.410 6.812,183.610 6.812 C 174.810 6.812,171.265 6.864,175.733 6.926 M216.000 7.018 C 206.985 7.129,228.498 7.220,263.805 7.220 C 299.112 7.220,320.010 7.112,310.244 6.981 C 289.708 6.705,239.827 6.725,216.000 7.018 M360.390 7.021 L 392.780 7.220 392.780 53.463 L 392.780 99.707 376.976 99.707 L 361.171 99.707 361.069 84.195 L 360.967 68.683 344.799 68.683 C 333.541 68.683,328.552 68.812,328.368 69.109 C 328.224 69.343,328.236 83.567,328.395 100.719 L 328.686 131.902 344.826 131.902 L 360.967 131.902 361.069 147.220 L 361.171 162.537 376.829 162.639 L 392.487 162.740 392.778 193.987 C 392.957 213.192,392.929 225.373,392.706 225.597 C 392.490 225.813,386.016 225.919,376.756 225.858 L 361.171 225.756 360.976 210.341 L 360.780 194.927 337.561 194.639 C 324.790 194.480,310.302 194.396,305.366 194.451 C 300.170 194.509,303.005 194.590,312.098 194.642 L 327.805 194.732 327.805 209.928 C 327.805 219.638,327.946 225.212,328.195 225.366 C 328.445 225.520,328.585 231.287,328.585 241.384 L 328.585 257.162 360.720 257.264 L 392.854 257.366 393.074 231.220 C 393.195 216.839,393.178 188.654,393.037 168.585 L 392.780 132.098 377.400 131.995 C 366.840 131.925,361.856 131.757,361.498 131.460 C 361.078 131.111,360.976 128.018,360.976 115.660 L 360.976 100.293 376.702 100.293 C 388.414 100.293,392.549 100.173,392.898 99.824 C 393.578 99.144,393.578 7.782,392.898 7.102 C 392.539 6.744,384.856 6.656,360.215 6.728 L 328.000 6.822 360.390 7.021 M143.733 7.317 C 148.201 7.379,155.401 7.379,159.733 7.317 C 164.065 7.254,160.410 7.203,151.610 7.203 C 142.810 7.203,139.265 7.254,143.733 7.317 M151.313 36.973 L 167.016 37.082 167.124 52.980 L 167.233 68.878 167.226 52.878 L 167.220 36.878 151.415 36.871 L 135.610 36.864 151.313 36.973 M71.117 52.976 L 71.210 68.878 71.317 53.173 L 71.423 37.468 103.517 37.366 L 135.610 37.264 103.317 37.168 L 71.024 37.073 71.117 52.976 M103.670 68.585 C 103.505 68.852,115.968 68.846,130.341 68.573 C 133.454 68.514,128.766 68.426,119.925 68.379 C 111.084 68.332,103.769 68.424,103.670 68.585 M199.679 69.329 C 199.534 69.475,199.415 76.325,199.415 84.553 L 199.415 99.512 215.809 99.512 L 232.204 99.512 232.102 84.390 L 232.000 69.268 215.972 69.166 C 207.156 69.110,199.825 69.184,199.679 69.329 M360.585 84.488 L 360.585 99.902 344.585 99.902 L 328.585 99.902 328.585 84.488 L 328.585 69.073 344.585 69.073 L 360.585 69.073 360.585 84.488 M38.727 84.386 L 38.634 99.503 22.732 99.610 L 6.829 99.716 22.744 99.809 C 35.206 99.882,38.699 99.796,38.846 99.413 C 38.950 99.144,38.986 92.252,38.927 84.096 L 38.820 69.268 38.727 84.386 M232.492 115.805 L 232.390 131.707 200.098 131.567 C 182.201 131.488,167.805 131.575,167.805 131.762 C 167.805 131.946,174.873 132.098,183.512 132.098 L 199.220 132.098 199.322 147.215 L 199.424 162.333 183.712 162.460 C 175.070 162.530,182.488 162.576,200.195 162.562 L 232.390 162.537 232.623 178.341 C 232.793 189.827,232.820 187.708,232.722 170.586 C 232.648 157.628,232.704 136.511,232.846 123.659 L 233.104 100.293 248.454 100.293 L 263.805 100.293 263.805 139.838 C 263.805 161.588,263.921 189.686,264.064 202.277 L 264.323 225.171 248.454 225.171 L 232.585 225.171 232.585 210.049 L 232.585 194.927 216.098 194.836 C 207.029 194.785,192.366 194.650,183.512 194.534 L 167.415 194.324 167.415 178.723 L 167.415 163.122 151.688 163.122 C 141.603 163.122,135.819 162.980,135.566 162.727 C 135.310 162.471,129.712 162.368,119.586 162.434 L 104.000 162.537 104.000 225.366 L 104.000 288.195 119.610 288.202 L 135.220 288.209 119.707 288.100 L 104.195 287.991 104.195 225.556 L 104.195 163.122 120.064 163.122 L 135.934 163.122 135.764 210.049 C 135.671 235.859,135.686 249.863,135.798 241.171 L 136.000 225.366 151.703 225.264 L 167.405 225.162 167.508 210.044 L 167.610 194.927 183.415 194.927 L 199.220 194.927 199.220 210.244 C 199.220 218.668,199.351 225.561,199.512 225.561 C 199.673 225.561,199.805 232.673,199.805 241.366 L 199.805 257.171 216.000 257.171 L 232.195 257.171 232.195 241.368 L 232.195 225.566 264.000 225.566 L 295.805 225.566 295.805 241.572 L 295.805 257.578 280.195 257.472 L 264.585 257.366 264.585 272.683 L 264.585 288.000 280.390 288.000 L 296.195 288.000 296.195 241.565 L 296.195 195.131 280.293 195.029 L 264.390 194.927 264.291 147.415 L 264.192 99.902 248.393 99.902 L 232.594 99.902 232.492 115.805 M6.934 131.317 C 7.026 148.273,7.215 162.261,7.355 162.400 C 7.838 162.883,70.767 163.262,70.469 162.781 C 70.275 162.467,65.741 162.341,54.616 162.341 L 39.034 162.341 38.931 147.220 L 38.829 132.098 23.024 131.902 L 7.220 131.707 6.994 116.098 C 6.870 107.512,6.843 114.361,6.934 131.317 M296.585 147.313 L 296.585 162.732 312.395 162.732 L 328.204 162.732 328.102 147.415 L 328.000 132.098 312.293 131.996 L 296.585 131.894 296.585 147.313 M6.814 194.829 C 6.712 195.098,6.674 216.215,6.729 241.756 L 6.829 288.195 7.024 241.268 C 7.132 215.459,7.170 194.341,7.110 194.341 C 7.049 194.341,6.916 194.561,6.814 194.829 M46.901 194.634 C 51.126 194.697,58.150 194.697,62.511 194.634 C 66.871 194.571,63.415 194.519,54.829 194.519 C 46.244 194.519,42.676 194.571,46.901 194.634 M360.585 210.341 L 360.585 225.561 344.585 225.561 L 328.585 225.561 328.585 210.341 L 328.585 195.122 344.585 195.122 L 360.585 195.122 360.585 210.341 M39.120 257.073 L 39.220 288.195 54.829 288.195 L 70.439 288.195 70.539 257.073 L 70.639 225.951 54.829 225.951 L 39.020 225.951 39.120 257.073 M70.244 272.780 L 70.244 288.000 54.829 288.000 L 39.415 288.000 39.415 272.780 L 39.415 257.561 54.829 257.561 L 70.244 257.561 70.244 272.780 M167.805 288.585 L 167.805 319.220 183.415 319.220 L 199.024 319.220 199.024 288.585 L 199.024 257.951 183.415 257.951 L 167.805 257.951 167.805 288.585 M393.070 280.814 C 393.018 293.495,392.902 314.481,392.811 327.448 L 392.647 351.024 392.999 328.976 C 393.193 316.849,393.310 295.863,393.258 282.341 L 393.165 257.756 393.070 280.814 M7.024 303.907 L 7.024 319.228 22.732 319.126 L 38.439 319.024 38.541 303.911 L 38.643 288.798 22.834 288.692 L 7.024 288.585 7.024 303.907 M232.780 319.443 C 232.527 319.551,232.427 325.082,232.497 335.219 L 232.603 350.829 216.208 350.829 L 199.814 350.829 199.705 335.122 L 199.596 319.415 199.603 335.220 L 199.610 351.024 231.805 351.024 L 264.000 351.024 264.000 335.220 L 264.000 319.415 248.585 319.346 C 240.107 319.308,232.995 319.351,232.780 319.443 M6.720 335.294 C 6.673 344.028,6.766 351.255,6.927 351.355 C 7.193 351.520,7.187 339.472,6.914 325.073 C 6.855 321.961,6.768 326.560,6.720 335.294 M296.585 335.415 L 296.585 351.220 312.195 351.220 L 327.805 351.220 327.805 335.415 L 327.805 319.610 312.195 319.610 L 296.585 319.610 296.585 335.415 M393.069 367.118 L 392.976 383.211 376.878 383.317 L 360.780 383.424 376.890 383.517 C 389.496 383.590,393.041 383.504,393.187 383.121 C 393.291 382.853,393.327 375.521,393.268 366.829 L 393.162 351.024 393.069 367.118 M39.118 367.317 L 39.220 383.024 57.171 383.262 C 67.044 383.393,110.507 383.482,153.756 383.459 L 232.390 383.417 151.610 383.221 L 70.829 383.024 70.727 367.317 L 70.625 351.610 54.820 351.610 L 39.016 351.610 39.118 367.317 M240.293 383.121 C 244.639 383.184,251.751 383.184,256.098 383.121 C 260.444 383.059,256.888 383.007,248.195 383.007 C 239.502 383.007,235.946 383.059,240.293 383.121 M280.585 383.220 C 271.678 383.334,285.990 383.357,312.390 383.270 C 338.790 383.182,360.463 383.048,360.553 382.970 C 360.777 382.776,300.457 382.964,280.585 383.220 " stroke="none" fill="#bce4b4" fill-rule="evenodd"></path><path id="path3" d="M7.204 7.512 C 7.102 7.780,7.063 21.698,7.119 38.439 L 7.220 68.878 23.085 69.073 C 31.811 69.180,38.869 69.137,38.769 68.976 C 38.670 68.815,31.574 68.683,23.001 68.683 L 7.415 68.683 7.415 38.053 L 7.415 7.423 23.317 7.317 L 39.220 7.211 23.305 7.117 C 10.863 7.045,7.350 7.131,7.204 7.512 M103.322 7.310 L 135.814 7.419 135.712 21.953 L 135.610 36.488 103.415 36.717 C 74.075 36.925,75.486 36.943,119.317 36.912 L 167.414 36.878 167.414 22.146 L 167.415 7.415 183.410 7.415 L 199.405 7.415 199.507 21.951 L 199.610 36.488 215.893 36.590 L 232.177 36.691 232.284 21.955 L 232.390 7.220 151.610 7.210 C 107.180 7.205,85.451 7.250,103.322 7.310 M296.497 21.951 L 296.604 36.683 312.204 36.683 L 327.805 36.683 327.805 22.081 C 327.805 12.679,327.944 7.433,328.196 7.350 C 328.411 7.278,321.342 7.220,312.488 7.220 L 296.390 7.220 296.497 21.951 M376.873 7.315 L 392.576 7.423 392.685 22.151 L 392.794 36.878 392.787 22.049 L 392.780 7.220 376.976 7.213 L 361.171 7.206 376.873 7.315 M329.043 37.947 C 328.419 39.147,328.133 60.674,328.209 100.878 C 328.243 118.478,328.142 146.795,327.987 163.805 L 327.703 194.732 312.147 194.732 L 296.590 194.732 296.488 163.220 L 296.386 131.707 296.290 163.228 L 296.195 194.749 280.232 194.643 C 271.453 194.584,264.351 194.668,264.450 194.829 C 264.550 194.990,271.733 195.122,280.413 195.122 L 296.195 195.122 296.226 210.634 C 296.243 219.166,296.345 225.927,296.454 225.659 C 296.786 224.834,327.641 224.961,327.958 225.788 C 328.089 226.128,328.195 233.415,328.195 241.983 L 328.195 257.561 360.386 257.561 L 392.576 257.561 392.685 273.073 L 392.794 288.585 392.787 272.976 L 392.780 257.366 360.683 257.266 L 328.585 257.166 328.585 241.387 C 328.585 231.288,328.445 225.520,328.195 225.366 C 327.736 225.082,327.639 194.732,328.098 194.732 C 328.259 194.732,328.390 187.488,328.390 178.634 L 328.390 162.537 344.780 162.537 L 361.171 162.537 361.273 178.439 L 361.375 194.341 376.947 194.341 C 385.513 194.341,392.594 194.473,392.684 194.634 C 392.774 194.795,392.789 194.693,392.717 194.407 C 392.644 194.121,392.585 186.879,392.585 178.314 L 392.585 162.741 376.878 162.639 L 361.171 162.537 361.069 147.220 L 360.967 131.902 344.826 131.902 L 328.686 131.902 328.395 100.719 C 328.236 83.567,328.224 69.343,328.368 69.109 C 328.552 68.812,333.541 68.683,344.799 68.683 L 360.967 68.683 361.069 84.195 L 361.171 99.707 376.976 99.707 L 392.780 99.707 392.787 84.098 L 392.794 68.488 392.685 84.000 L 392.576 99.512 377.020 99.512 L 361.464 99.512 361.122 68.390 L 360.780 37.268 345.141 37.166 L 329.502 37.064 329.043 37.947 M70.826 68.585 L 70.829 99.707 87.220 99.707 L 103.610 99.707 103.805 84.232 C 103.912 75.721,103.868 68.838,103.707 68.938 C 103.546 69.038,103.415 75.958,103.415 84.316 L 103.415 99.512 87.222 99.512 L 71.029 99.512 70.926 68.488 L 70.822 37.463 70.826 68.585 M151.317 68.980 L 167.415 69.082 167.415 84.492 L 167.415 99.902 151.610 99.902 L 135.805 99.902 135.805 115.707 L 135.805 131.512 151.610 131.512 L 167.415 131.512 167.415 147.126 L 167.415 162.740 151.512 162.639 L 135.610 162.537 135.508 147.220 L 135.406 131.902 119.669 131.902 L 103.933 131.902 103.674 154.796 C 103.531 167.387,103.456 181.656,103.506 186.503 C 103.570 192.737,103.656 190.519,103.798 178.927 L 104.000 162.537 119.586 162.434 C 129.712 162.368,135.310 162.471,135.566 162.727 C 135.819 162.980,141.603 163.122,151.688 163.122 L 167.415 163.122 167.415 178.723 L 167.415 194.324 183.512 194.528 C 192.366 194.640,206.898 194.781,215.805 194.840 L 232.000 194.948 215.805 194.743 L 199.610 194.537 199.508 178.634 L 199.406 162.732 215.796 162.732 L 232.186 162.732 232.295 178.732 L 232.403 194.732 232.397 178.634 L 232.390 162.537 200.098 162.677 L 167.805 162.818 167.805 147.157 L 167.805 131.495 183.707 131.601 L 199.610 131.707 199.504 115.805 L 199.398 99.902 215.805 99.902 L 232.212 99.902 232.106 115.865 C 232.048 124.645,232.132 131.747,232.293 131.647 C 232.454 131.548,232.585 124.364,232.585 115.684 L 232.585 99.902 248.388 99.902 L 264.191 99.902 264.294 131.220 L 264.397 162.537 264.394 131.122 L 264.390 99.707 248.488 99.605 L 232.585 99.503 232.585 84.506 C 232.585 72.937,232.474 69.437,232.098 69.194 C 231.829 69.020,209.922 68.878,183.415 68.878 C 156.907 68.878,142.463 68.924,151.317 68.980 M232.102 84.390 L 232.204 99.512 215.809 99.512 L 199.415 99.512 199.415 84.553 C 199.415 76.325,199.534 69.475,199.679 69.329 C 199.825 69.184,207.156 69.110,215.972 69.166 L 232.000 69.268 232.102 84.390 M264.585 84.293 L 264.585 99.512 280.390 99.512 L 296.195 99.512 296.195 84.293 L 296.195 69.073 280.390 69.073 L 264.585 69.073 264.585 84.293 M22.922 99.805 L 7.016 99.911 7.118 115.809 L 7.220 131.707 23.024 131.902 L 38.829 132.098 38.931 147.215 L 39.034 162.333 54.736 162.435 L 70.439 162.537 70.439 178.537 L 70.439 194.537 38.829 194.485 L 7.220 194.433 38.133 194.823 C 55.136 195.038,69.493 195.101,70.038 194.964 L 71.029 194.716 70.929 163.407 L 70.829 132.098 39.122 131.754 L 7.415 131.411 7.415 115.852 L 7.415 100.293 23.001 100.293 C 32.972 100.293,38.675 100.152,38.829 99.902 C 38.962 99.688,39.016 99.554,38.950 99.605 C 38.884 99.656,31.671 99.746,22.922 99.805 M360.976 210.281 L 361.171 225.756 376.756 225.858 C 385.329 225.914,392.476 225.827,392.640 225.663 C 392.803 225.500,385.834 225.414,377.151 225.472 L 361.366 225.578 361.366 210.373 C 361.366 202.010,361.234 195.086,361.073 194.987 C 360.912 194.887,360.868 201.770,360.976 210.281 M39.075 225.696 C 38.764 226.070,38.610 235.104,38.539 257.208 L 38.439 288.195 22.929 288.297 L 7.419 288.399 7.316 257.175 L 7.213 225.951 7.216 257.268 L 7.220 288.585 23.131 288.585 L 39.043 288.585 39.029 257.268 L 39.015 225.951 54.820 225.951 L 70.625 225.951 70.732 242.049 L 70.838 258.146 70.931 241.895 C 71.014 227.382,70.958 225.619,70.407 225.408 C 69.023 224.877,39.529 225.148,39.075 225.696 M103.593 241.366 C 103.593 250.380,103.644 254.013,103.707 249.437 C 103.769 244.862,103.769 237.486,103.707 233.047 C 103.644 228.608,103.593 232.351,103.593 241.366 M136.000 225.561 C 135.730 225.997,151.487 226.004,181.073 225.582 C 198.500 225.333,197.971 225.319,167.730 225.247 C 147.076 225.197,136.158 225.305,136.000 225.561 M199.603 241.561 L 199.610 257.366 216.000 257.366 L 232.390 257.366 232.397 241.561 L 232.403 225.756 232.295 241.463 L 232.186 257.171 216.000 257.171 L 199.814 257.171 199.705 241.463 L 199.597 225.756 199.603 241.561 M264.195 241.678 L 264.390 257.756 264.492 241.975 C 264.548 233.296,264.461 226.061,264.297 225.897 C 264.134 225.733,264.088 232.835,264.195 241.678 M135.414 272.664 C 135.307 281.292,135.353 288.218,135.517 288.054 C 135.680 287.891,135.768 280.831,135.712 272.366 L 135.609 256.976 135.414 272.664 M296.288 272.483 L 296.195 287.991 280.293 288.098 L 264.390 288.204 280.305 288.297 C 292.762 288.370,296.260 288.284,296.407 287.902 C 296.510 287.633,296.547 280.564,296.488 272.194 L 296.381 256.976 296.288 272.483 M167.675 257.821 C 167.532 257.964,167.415 271.925,167.415 288.846 L 167.415 319.610 151.610 319.610 L 135.805 319.610 135.805 335.415 L 135.805 351.220 151.610 351.220 L 167.415 351.220 167.415 335.415 L 167.415 319.610 183.220 319.610 L 199.024 319.610 199.030 335.122 C 199.034 343.654,199.175 350.852,199.343 351.118 C 199.578 351.487,203.520 351.625,216.020 351.703 L 232.390 351.805 232.492 367.317 L 232.594 382.829 151.814 382.829 L 71.033 382.829 70.931 367.122 L 70.829 351.415 38.964 351.220 C 21.438 351.112,7.180 351.156,7.280 351.317 C 7.379 351.478,21.673 351.610,39.043 351.610 L 70.625 351.610 70.727 367.317 L 70.829 383.024 167.610 383.024 L 264.390 383.024 264.390 351.415 C 264.390 334.029,264.346 312.824,264.293 304.293 L 264.195 288.780 248.390 288.780 L 232.585 288.780 232.585 304.000 L 232.585 319.220 216.000 319.220 L 199.415 319.220 199.415 288.390 L 199.415 257.561 183.675 257.561 C 175.018 257.561,167.818 257.678,167.675 257.821 M199.024 288.585 L 199.024 319.220 183.415 319.220 L 167.805 319.220 167.805 288.585 L 167.805 257.951 183.415 257.951 L 199.024 257.951 199.024 288.585 M71.117 303.902 L 71.220 319.024 87.317 319.126 L 103.415 319.228 103.415 304.004 L 103.415 288.780 87.215 288.780 L 71.015 288.780 71.117 303.902 M264.000 335.220 L 264.000 351.024 231.805 351.024 L 199.610 351.024 199.508 335.321 L 199.406 319.618 216.288 319.510 C 225.574 319.450,240.107 319.405,248.585 319.408 L 264.000 319.415 264.000 335.220 M296.371 319.641 C 296.227 319.873,296.173 334.229,296.250 351.544 L 296.390 383.024 328.687 383.024 L 360.984 383.024 360.882 367.220 L 360.780 351.415 344.683 351.313 L 328.585 351.211 328.585 335.683 C 328.585 324.127,328.466 320.036,328.117 319.688 C 327.484 319.055,296.761 319.010,296.371 319.641 M376.976 319.603 L 361.171 319.805 361.069 335.309 L 360.967 350.812 376.874 350.918 L 392.780 351.024 392.780 335.122 C 392.780 326.376,392.780 319.260,392.780 319.310 C 392.780 319.360,385.668 319.492,376.976 319.603 M327.805 335.415 L 327.805 351.220 312.195 351.220 L 296.585 351.220 296.585 335.415 L 296.585 319.610 312.195 319.610 L 327.805 319.610 327.805 335.415 " stroke="none" fill="#8cd48c" fill-rule="evenodd"></path><path id="path4" d="M23.317 7.285 L 7.415 7.423 7.415 38.049 L 7.415 68.674 23.122 68.776 L 38.829 68.878 38.829 84.488 L 38.829 100.098 23.122 100.200 L 7.415 100.302 7.415 115.856 L 7.415 131.411 39.122 131.754 L 70.829 132.098 70.929 163.407 L 71.029 194.716 70.149 194.934 C 69.664 195.055,62.420 195.102,54.049 195.040 L 38.829 194.927 38.940 209.561 C 39.001 217.610,38.954 224.590,38.835 225.073 L 38.619 225.951 23.049 225.951 C 14.486 225.951,7.406 225.820,7.316 225.659 C 7.226 225.498,7.211 225.600,7.283 225.886 C 7.356 226.171,7.415 240.354,7.415 257.402 L 7.415 288.399 22.927 288.297 L 38.439 288.195 38.539 257.208 C 38.610 235.104,38.764 226.070,39.075 225.696 C 39.529 225.148,69.023 224.877,70.407 225.408 C 70.956 225.618,71.024 227.402,71.024 241.505 L 71.024 257.366 87.219 257.260 L 103.415 257.154 103.415 241.357 L 103.415 225.561 87.220 225.561 L 71.024 225.561 71.024 210.146 L 71.024 194.732 87.220 194.732 L 103.415 194.732 103.415 186.211 C 103.415 181.524,103.531 167.387,103.674 154.796 L 103.933 131.902 119.674 131.902 L 135.415 131.902 135.415 147.099 C 135.415 155.457,135.546 162.377,135.707 162.476 C 135.868 162.576,135.952 155.740,135.894 147.284 L 135.787 131.911 151.699 131.805 L 167.610 131.698 151.707 131.605 L 135.805 131.512 135.805 115.707 L 135.805 99.902 151.610 99.902 L 167.415 99.902 167.415 84.488 L 167.415 69.073 183.707 68.980 L 200.000 68.887 183.902 68.781 L 167.805 68.674 167.805 52.634 L 167.805 36.594 200.098 36.736 L 232.390 36.878 232.492 22.146 L 232.595 7.415 264.390 7.415 L 296.186 7.415 296.288 22.146 L 296.390 36.878 312.390 36.878 L 328.390 36.878 328.492 22.146 L 328.595 7.415 344.785 7.415 L 360.976 7.415 360.976 22.049 L 360.976 36.683 345.239 36.683 L 329.502 36.683 328.653 37.586 C 327.812 38.481,327.805 38.623,327.805 53.584 L 327.805 68.678 296.098 68.778 L 264.390 68.878 264.390 84.399 L 264.390 99.921 296.098 99.907 L 327.805 99.894 327.805 115.653 L 327.805 131.412 296.621 131.702 C 279.470 131.862,265.267 131.887,265.059 131.759 C 264.552 131.445,263.958 193.871,264.464 194.376 C 264.681 194.594,271.187 194.698,280.609 194.634 L 296.390 194.527 280.483 194.434 L 264.577 194.341 264.679 178.439 L 264.780 162.537 280.169 162.434 C 292.221 162.354,295.626 162.439,295.871 162.825 C 296.043 163.095,296.186 156.251,296.189 147.614 L 296.195 131.911 312.098 131.809 L 328.000 131.707 328.071 100.293 C 328.168 57.904,328.461 39.064,329.043 37.947 L 329.502 37.064 345.141 37.166 L 360.780 37.268 361.122 68.390 L 361.464 99.512 376.961 99.512 L 392.458 99.512 392.720 76.047 C 392.864 63.141,392.864 42.440,392.720 30.045 L 392.459 7.509 360.978 7.220 C 343.664 7.060,329.117 7.051,328.651 7.199 L 327.805 7.467 327.805 22.075 L 327.805 36.683 312.200 36.683 L 296.595 36.683 296.492 21.951 L 296.390 7.220 264.390 7.220 L 232.390 7.220 232.288 21.955 L 232.186 36.691 215.898 36.590 L 199.610 36.488 199.507 21.951 L 199.405 7.415 183.410 7.415 L 167.415 7.415 167.415 38.244 L 167.415 69.073 151.656 69.073 L 135.898 69.073 135.608 100.246 L 135.317 131.419 103.578 131.709 C 86.122 131.868,71.563 131.893,71.225 131.763 C 70.679 131.554,70.613 129.750,70.634 115.617 C 70.648 106.867,70.653 92.815,70.646 84.390 L 70.634 69.073 55.251 69.073 C 46.791 69.073,39.591 68.967,39.251 68.836 C 38.521 68.556,38.482 64.289,38.894 29.366 L 39.152 7.415 54.893 7.415 L 70.634 7.415 70.640 22.537 C 70.643 30.854,70.785 37.440,70.954 37.173 C 71.195 36.794,78.292 36.666,103.436 36.588 L 135.610 36.488 135.712 21.951 L 135.814 7.415 111.127 7.414 C 97.548 7.414,75.815 7.354,62.829 7.281 C 49.844 7.208,32.063 7.210,23.317 7.285 M392.585 52.878 L 392.585 68.683 376.976 68.683 L 361.366 68.683 361.366 52.878 L 361.366 37.073 376.976 37.073 L 392.585 37.073 392.585 52.878 M104.060 68.976 C 103.895 69.242,115.525 69.236,129.951 68.963 C 133.063 68.904,128.552 68.817,119.925 68.769 C 111.299 68.722,104.160 68.815,104.060 68.976 M296.195 84.293 L 296.195 99.512 280.390 99.512 L 264.585 99.512 264.585 84.293 L 264.585 69.073 280.390 69.073 L 296.195 69.073 296.195 84.293 M199.508 115.805 L 199.610 131.707 215.586 131.809 C 224.373 131.865,231.696 131.778,231.859 131.614 C 232.023 131.451,224.877 131.365,215.981 131.423 L 199.805 131.529 199.805 115.915 L 199.805 100.301 216.098 100.195 L 232.390 100.089 215.898 99.996 L 199.406 99.902 199.508 115.805 M328.453 162.630 C 328.352 162.793,335.628 162.879,344.622 162.821 L 360.976 162.715 360.976 178.537 L 360.976 194.358 344.605 194.252 C 335.601 194.194,328.367 194.280,328.530 194.442 C 328.854 194.766,392.194 194.863,392.517 194.540 C 392.626 194.431,385.664 194.341,377.045 194.341 L 361.375 194.341 361.273 178.439 L 361.171 162.537 344.904 162.435 C 335.957 162.379,328.554 162.467,328.453 162.630 M199.508 178.634 L 199.610 194.537 215.805 194.543 L 232.000 194.549 215.902 194.441 L 199.805 194.333 199.805 178.732 L 199.805 163.131 216.098 163.024 L 232.390 162.918 215.898 162.825 L 199.406 162.732 199.508 178.634 M103.592 210.146 C 103.592 218.517,103.644 221.886,103.707 217.633 C 103.770 213.379,103.770 206.531,103.707 202.413 C 103.644 198.296,103.592 201.776,103.592 210.146 M392.678 210.044 L 392.585 225.162 376.878 225.268 L 361.171 225.375 376.890 225.468 C 389.196 225.541,392.651 225.455,392.798 225.072 C 392.901 224.803,392.937 217.910,392.878 209.755 L 392.771 194.927 392.678 210.044 M296.387 226.049 C 296.269 226.532,296.224 233.776,296.286 242.146 L 296.400 257.366 296.493 241.659 L 296.585 225.951 312.195 225.951 L 327.805 225.951 327.805 241.756 L 327.805 257.561 312.195 257.561 L 296.585 257.561 296.585 272.702 C 296.585 283.959,296.465 287.964,296.117 288.312 C 295.753 288.676,295.753 288.780,296.117 288.780 C 296.793 288.780,296.793 318.466,296.117 319.141 C 295.511 319.747,264.721 319.823,264.520 319.219 C 264.449 319.004,264.390 326.160,264.390 335.121 L 264.390 351.415 280.288 351.309 L 296.186 351.202 296.288 335.309 L 296.390 319.415 311.955 319.313 C 323.119 319.239,327.670 319.336,328.052 319.653 C 328.487 320.014,328.585 322.977,328.585 335.658 L 328.585 351.220 344.683 351.232 C 353.537 351.239,367.920 351.233,376.646 351.220 C 387.415 351.203,392.577 351.328,392.715 351.608 C 392.826 351.834,392.872 351.796,392.816 351.522 C 392.737 351.131,389.329 351.003,376.841 350.922 L 360.967 350.821 361.069 335.313 L 361.171 319.805 376.766 319.703 C 385.461 319.646,392.517 319.444,392.715 319.245 C 392.928 319.033,392.954 306.557,392.780 288.226 L 392.488 257.561 360.342 257.561 L 328.195 257.561 328.195 241.983 C 328.195 233.415,328.089 226.128,327.958 225.788 C 327.748 225.239,325.990 225.171,312.161 225.171 L 296.600 225.171 296.387 226.049 M151.515 225.854 L 135.810 225.960 135.710 257.078 L 135.610 288.195 119.712 288.297 L 103.814 288.399 103.707 272.882 L 103.601 257.366 103.508 272.878 L 103.415 288.390 87.224 288.390 L 71.033 288.390 70.927 273.073 L 70.820 257.756 70.727 273.069 L 70.634 288.381 54.732 288.483 L 38.829 288.585 38.727 303.898 L 38.625 319.211 22.922 319.313 L 7.220 319.415 7.220 335.220 L 7.220 351.024 39.024 351.220 L 70.829 351.415 70.931 367.122 L 71.033 382.829 151.814 382.829 L 232.594 382.829 232.492 367.317 L 232.390 351.805 216.020 351.703 C 203.520 351.625,199.578 351.487,199.343 351.118 C 199.175 350.852,199.034 343.654,199.030 335.122 L 199.024 319.610 183.220 319.610 C 174.527 319.610,167.415 319.478,167.415 319.317 C 167.415 319.156,153.147 319.200,135.708 319.415 L 104.000 319.805 103.805 335.610 L 103.610 351.415 87.220 351.415 L 70.829 351.415 70.727 335.512 L 70.625 319.610 54.825 319.610 L 39.024 319.610 39.024 304.195 L 39.024 288.780 54.829 288.780 L 70.634 288.780 70.634 304.000 C 70.634 312.371,70.766 319.220,70.927 319.220 C 71.088 319.220,71.172 312.371,71.113 304.000 L 71.007 288.780 87.206 288.780 L 103.406 288.780 103.512 304.098 L 103.619 319.415 103.712 304.098 L 103.805 288.780 119.532 288.780 C 131.243 288.780,135.378 288.661,135.727 288.312 C 136.075 287.964,136.195 283.960,136.195 272.706 L 136.195 257.568 167.805 257.568 L 199.415 257.568 199.415 288.394 L 199.415 319.220 216.000 319.220 L 232.585 319.220 232.585 304.000 L 232.585 288.780 248.683 288.781 L 264.780 288.781 264.586 273.073 L 264.391 257.366 264.288 272.874 L 264.186 288.381 248.288 288.483 L 232.390 288.585 232.288 303.707 L 232.186 318.829 215.995 318.829 L 199.805 318.829 199.805 288.390 L 199.805 257.951 215.977 257.951 C 227.780 257.951,232.224 257.830,232.428 257.501 C 232.608 257.209,232.534 257.157,232.217 257.353 C 231.948 257.519,217.257 257.524,199.571 257.364 L 167.415 257.074 167.415 241.517 L 167.415 225.960 183.512 225.854 L 199.610 225.747 183.415 225.747 C 174.507 225.747,160.152 225.795,151.515 225.854 M248.093 225.851 L 263.796 225.960 263.905 241.468 L 264.013 256.976 264.007 241.366 L 264.000 225.756 248.195 225.749 L 232.390 225.742 248.093 225.851 M392.585 303.758 L 392.585 319.125 360.781 319.416 C 335.612 319.646,328.855 319.605,328.391 319.220 C 327.776 318.709,327.461 289.254,328.065 288.650 C 328.208 288.507,342.784 288.390,360.455 288.390 L 392.585 288.390 392.585 303.758 M38.931 335.317 L 39.033 350.829 23.224 350.829 L 7.415 350.829 7.415 335.215 L 7.415 319.601 23.122 319.703 L 38.829 319.805 38.931 335.317 M167.415 335.415 L 167.415 351.220 151.610 351.220 L 135.805 351.220 135.805 335.415 L 135.805 319.610 151.610 319.610 L 167.415 319.610 167.415 335.415 M296.288 367.118 L 296.195 382.821 280.293 382.927 L 264.390 383.033 280.305 383.126 C 292.760 383.199,296.260 383.113,296.407 382.731 C 296.510 382.462,296.547 375.306,296.488 366.828 L 296.381 351.415 296.288 367.118 M368.904 383.122 C 373.372 383.184,380.572 383.184,384.904 383.121 C 389.236 383.059,385.580 383.007,376.780 383.007 C 367.980 383.008,364.436 383.059,368.904 383.122 " stroke="none" fill="#54b464" fill-rule="evenodd"></path></g></svg>