<?xml version="1.0" standalone="no"?>
<!DOCTYPE svg PUBLIC "-//W3C//DTD SVG 20010904//EN"
 "http://www.w3.org/TR/2001/REC-SVG-20010904/DTD/svg10.dtd">
<svg version="1.0" xmlns="http://www.w3.org/2000/svg"
 width="754.000000pt" height="754.000000pt" viewBox="0 0 754.000000 754.000000"
 preserveAspectRatio="xMidYMid meet">
<metadata>
Created by potrace 1.14, written by Peter Selinger 2001-2017
</metadata>
<g transform="translate(0.000000,754.000000) scale(0.100000,-0.100000)"
fill="#000000" stroke="none">
<path d="M3548 7535 c-2 -1 -45 -6 -96 -9 -51 -4 -101 -9 -110 -11 -9 -1 -42
-6 -73 -9 -31 -4 -67 -9 -80 -11 -13 -3 -51 -10 -84 -15 -33 -5 -71 -12 -85
-15 -14 -4 -36 -8 -50 -11 -14 -3 -41 -9 -60 -14 -19 -5 -46 -11 -60 -14 -94
-19 -290 -83 -470 -153 -426 -166 -877 -455 -1205 -772 -271 -263 -474 -518
-654 -826 -29 -49 -56 -97 -61 -105 -32 -54 -141 -286 -185 -395 -71 -174
-164 -475 -191 -620 -16 -85 -45 -269 -50 -310 -3 -27 -7 -61 -10 -75 -4 -27
-17 -228 -18 -295 l-1 -40 628 0 627 0 1 45 c5 143 31 345 62 465 78 306 154
490 312 753 164 274 458 576 746 769 351 234 748 372 1179 410 146 12 437 6
531 -12 9 -2 39 -7 66 -10 263 -37 598 -154 843 -296 30 -18 64 -37 75 -43
117 -66 297 -208 437 -345 l97 -94 -282 -282 c-155 -156 -291 -292 -301 -304
l-19 -21 995 0 995 0 0 996 0 996 -54 -54 c-30 -29 -141 -140 -246 -245 -106
-106 -196 -193 -201 -193 -4 0 -49 40 -100 90 -98 96 -110 107 -231 209 -111
93 -222 176 -340 253 -90 58 -122 78 -230 140 -67 39 -316 159 -400 193 -177
72 -414 151 -505 169 -14 2 -63 14 -110 25 -111 27 -255 51 -395 66 -33 4 -71
9 -85 12 -26 5 -547 13 -552 8z"/>
<path d="M3224 4756 c-18 -8 -38 -29 -50 -52 -18 -37 -19 -75 -22 -924 -2
-622 0 -896 8 -923 25 -84 94 -85 253 -2 140 72 171 89 177 95 5 6 184 105
310 173 41 22 80 43 85 47 6 4 30 19 55 33 25 13 225 125 445 247 220 122 420
234 445 247 81 46 103 98 58 140 -13 11 -176 106 -363 210 -187 105 -419 234
-515 288 -96 53 -193 107 -215 119 -22 12 -148 82 -279 155 -219 123 -303 162
-345 161 -9 -1 -30 -7 -47 -14z"/>
<path d="M6281 3720 c-5 -3 -11 -52 -15 -110 -7 -116 -8 -125 -36 -286 -100
-574 -435 -1130 -905 -1504 -304 -242 -673 -414 -1060 -496 -240 -51 -565 -62
-822 -29 -451 58 -895 248 -1250 537 -96 78 -263 237 -263 250 0 5 133 141
295 303 162 162 295 297 295 300 0 3 -447 5 -993 5 l-993 0 -1 -995 0 -996 30
28 c16 15 128 126 248 246 120 121 223 217 228 215 5 -1 56 -48 113 -103 141
-136 271 -248 368 -318 14 -9 41 -29 60 -43 189 -140 487 -306 732 -409 263
-111 617 -212 873 -250 22 -3 54 -8 70 -10 176 -28 593 -40 812 -22 575 45
1179 242 1658 541 750 467 1309 1159 1590 1966 64 183 128 426 149 564 4 21 8
41 10 45 2 3 7 33 10 66 4 33 9 69 11 80 9 44 16 125 30 353 2 39 1 73 -3 73
-23 4 -1235 3 -1241 -1z"/>
</g>
</svg>
