<?xml version="1.0" standalone="no"?>
<!DOCTYPE svg PUBLIC "-//W3C//DTD SVG 20010904//EN"
 "http://www.w3.org/TR/2001/REC-SVG-20010904/DTD/svg10.dtd">
<svg version="1.0" xmlns="http://www.w3.org/2000/svg"
 width="710.000000pt" height="710.000000pt" viewBox="0 0 710.000000 710.000000"
 preserveAspectRatio="xMidYMid meet">
<metadata>
Created by potrace 1.14, written by Peter Selinger 2001-2017
</metadata>
<g transform="translate(0.000000,710.000000) scale(0.100000,-0.100000)"
fill="#000000" stroke="none">
<path d="M3067 6954 c-1 -1 -47 -4 -102 -7 -55 -3 -110 -8 -121 -11 -12 -2
-39 -7 -60 -10 -93 -15 -300 -79 -389 -120 -27 -13 -72 -34 -100 -46 -69 -31
-230 -111 -290 -144 -49 -28 -245 -155 -255 -166 -3 -3 -25 -21 -50 -40 -156
-118 -374 -337 -475 -475 -16 -22 -32 -42 -35 -45 -13 -10 -130 -189 -178
-271 -55 -95 -130 -250 -157 -324 -10 -27 -22 -54 -25 -60 -6 -8 -53 -153
-102 -315 -18 -60 -89 -213 -114 -247 -13 -17 -24 -35 -24 -39 0 -3 -29 -50
-64 -103 -134 -203 -207 -376 -242 -568 -2 -13 -7 -35 -10 -50 -10 -51 -13
-307 -3 -373 5 -36 18 -84 29 -108 29 -61 48 -142 44 -182 -2 -19 -15 -71 -29
-115 -14 -44 -32 -131 -39 -194 -13 -117 -14 -416 -2 -506 31 -220 65 -369
118 -523 42 -123 49 -141 105 -262 51 -111 213 -385 242 -410 3 -3 26 -32 51
-65 53 -70 85 -107 200 -230 47 -49 99 -108 115 -130 17 -22 35 -45 40 -52 6
-7 26 -33 45 -60 134 -180 284 -281 575 -385 119 -43 395 -117 460 -123 22 -3
58 -7 80 -11 44 -8 53 -9 140 -19 33 -4 67 -9 76 -10 81 -16 465 -24 554 -13
125 16 266 93 361 198 37 41 103 152 113 190 46 186 37 272 -59 555 -51 148
-70 242 -60 292 4 21 19 67 35 103 41 97 66 194 80 310 6 57 7 244 0 290 -3
19 -7 60 -11 90 -3 30 -7 57 -9 61 -2 3 -7 28 -11 55 -3 27 -8 51 -9 54 -2 3
-7 33 -10 65 -4 33 -9 63 -11 66 -2 4 -6 27 -9 50 -3 24 -7 55 -10 69 -3 14
-7 41 -10 60 -3 19 -8 42 -10 50 -2 8 -7 31 -10 50 -3 19 -20 95 -36 169 -17
73 -29 142 -26 152 3 10 -3 29 -12 41 -27 35 -66 186 -66 253 0 40 7 75 22
105 25 54 69 197 78 259 4 25 9 108 10 186 2 85 8 151 15 164 6 12 13 48 15
79 1 31 21 120 43 197 49 170 57 207 69 310 12 108 5 398 -12 424 -2 4 -6 22
-9 41 -12 72 -17 96 -26 140 -16 72 -20 107 -27 246 -5 109 -3 136 10 154 11
17 13 28 4 55 -7 25 -5 63 12 162 13 70 24 141 26 156 12 85 17 115 25 147 4
19 11 58 15 85 3 28 8 59 10 70 16 81 20 139 20 270 0 145 -1 152 -28 208 -32
64 -74 98 -144 116 -31 9 -347 21 -356 15z"/>
<path d="M3955 6919 c-129 -7 -177 -22 -222 -71 -25 -26 -53 -87 -61 -133 -12
-66 -4 -318 12 -366 3 -8 7 -34 10 -59 2 -25 11 -85 20 -135 9 -49 18 -108 21
-130 8 -52 14 -87 21 -127 39 -229 41 -473 5 -658 -11 -58 -23 -123 -26 -145
-4 -22 -10 -62 -15 -90 -5 -27 -8 -120 -8 -205 0 -170 19 -304 64 -461 14 -50
27 -96 28 -103 2 -6 8 -36 14 -66 24 -114 28 -153 36 -385 4 -108 29 -229 60
-298 53 -117 54 -152 12 -317 -51 -194 -84 -338 -101 -435 -3 -16 -7 -43 -10
-60 -10 -55 -24 -138 -40 -240 -1 -11 -6 -42 -9 -70 -4 -27 -9 -61 -12 -75 -3
-14 -8 -43 -10 -64 -3 -22 -7 -42 -9 -46 -9 -15 -20 -158 -20 -270 0 -217 13
-285 102 -525 21 -56 12 -149 -27 -270 -88 -278 -92 -294 -94 -415 -2 -162 12
-221 78 -329 68 -109 172 -193 300 -240 67 -24 82 -26 251 -26 157 0 328 9
384 20 9 2 44 6 76 10 33 4 69 9 80 11 11 2 45 8 75 14 30 6 66 13 80 16 14 3
36 7 50 10 180 36 447 139 601 232 105 63 173 132 290 292 50 69 121 158 157
199 258 286 446 605 558 947 36 110 79 281 89 354 3 25 8 52 10 60 2 8 7 44
10 80 4 36 9 74 12 85 5 26 5 368 -1 420 -2 22 -7 68 -11 103 -3 35 -19 105
-34 155 -34 115 -29 193 18 286 10 20 22 61 26 91 3 30 9 69 11 85 3 17 7 48
10 70 2 22 8 72 13 110 13 104 6 417 -12 505 -34 170 -58 229 -144 364 -76
118 -138 248 -178 373 -83 263 -109 333 -165 448 -103 212 -248 411 -434 598
-89 89 -261 238 -332 287 -446 309 -880 523 -1148 566 -21 3 -47 7 -58 9 -25
5 -169 16 -233 18 -27 1 -104 -1 -170 -4z"/>
</g>
</svg>
