<?xml version="1.0" standalone="no"?>
<!DOCTYPE svg PUBLIC "-//W3C//DTD SVG 20010904//EN"
 "http://www.w3.org/TR/2001/REC-SVG-20010904/DTD/svg10.dtd">
<svg version="1.0" xmlns="http://www.w3.org/2000/svg"
 width="957.000000pt" height="957.000000pt" viewBox="0 0 957.000000 957.000000"
 preserveAspectRatio="xMidYMid meet">
<metadata>
Created by potrace 1.11, written by Peter Selinger 2001-2013
</metadata>
<g transform="translate(0.000000,957.000000) scale(0.100000,-0.100000)"
fill="#000000" stroke="none">
<path d="M1013 5844 c3 -3067 4 -3285 21 -3364 65 -320 191 -523 451 -725 186
-145 379 -252 701 -389 211 -90 2541 -976 2584 -983 27 -4 2293 849 2600 980
407 173 660 327 856 522 177 176 283 404 313 678 8 67 11 1090 11 3327 0 3073
-1 3231 -17 3226 -10 -3 -135 -28 -278 -55 -1114 -212 -2170 -336 -3160 -372
-965 -34 -2469 114 -3805 376 -129 25 -245 49 -258 52 l-23 5 4 -3278z m559
2821 c1254 -245 2655 -382 3533 -346 965 40 2030 171 2984 366 68 14 128 25
132 25 5 0 9 -360 9 -803 l0 -803 -92 -18 c-966 -188 -1668 -284 -2588 -353
-334 -25 -1205 -25 -1540 0 -847 64 -1604 164 -2422 321 -130 25 -242 46 -247
46 -8 0 -11 246 -11 805 0 443 3 805 8 805 4 0 109 -20 234 -45z m3099 -2451
l110 -97 22 20 c12 11 62 54 111 96 l88 77 564 0 564 0 0 -965 0 -965 -563 0
-562 0 -96 -83 c-52 -45 -103 -88 -112 -96 -15 -12 -30 -2 -127 83 l-111 96
-564 0 -565 0 0 965 0 965 566 0 566 0 109 -96z m-1531 -1104 l0 -1020 688 0
689 0 132 -115 133 -114 132 114 131 115 688 0 687 0 0 1021 c0 856 2 1020 14
1016 7 -3 72 -49 145 -102 l131 -97 0 -1064 0 -1064 -806 0 -806 0 -154 -132
c-85 -73 -158 -133 -163 -133 -5 0 -77 60 -162 133 l-153 132 -808 0 -808 0 0
1063 0 1063 138 101 c75 56 140 102 145 103 4 0 7 -459 7 -1020z m-1617 775
c293 -58 598 -111 990 -171 l37 -6 0 -654 0 -655 -32 6 c-18 3 -121 19 -228
35 -209 33 -678 117 -850 153 l-105 22 -3 653 c-1 358 1 652 5 652 4 0 87 -16
186 -35z m6707 -618 l0 -654 -212 -41 c-315 -61 -961 -172 -1003 -172 -3 0 -5
294 -5 654 l0 653 143 22 c236 36 650 109 852 150 105 21 198 39 208 40 16 1
17 -36 17 -652z m-6670 -1777 c905 -178 1862 -297 2730 -341 290 -14 970 -6
1265 15 857 63 1732 180 2499 336 82 16 156 30 163 30 22 0 12 -812 -11 -920
-67 -313 -215 -514 -531 -724 -261 -174 -416 -239 -1792 -760 l-1102 -417
-1094 415 c-602 228 -1166 444 -1253 481 -469 198 -767 401 -922 628 -73 106
-128 246 -157 397 -23 121 -35 900 -14 900 8 0 106 -18 219 -40z"/>
<path d="M2542 8303 c-5 -10 -42 -116 -81 -235 l-73 -218 -242 0 c-134 0 -246
-3 -249 -7 -4 -3 83 -73 193 -154 l199 -148 -14 -43 c-53 -161 -135 -431 -132
-434 2 -2 94 62 206 142 l203 145 201 -144 c111 -80 203 -141 205 -137 2 4
-29 108 -68 231 -38 123 -70 229 -70 234 0 6 88 75 195 154 107 79 192 148
189 153 -3 4 -114 8 -247 8 l-242 0 -78 235 c-43 129 -80 235 -82 235 -3 0 -8
-8 -13 -17z"/>
<path d="M6927 8085 l-79 -235 -242 0 c-134 0 -246 -3 -249 -7 -4 -3 83 -73
193 -154 l199 -148 -14 -43 c-53 -161 -135 -431 -132 -434 2 -2 94 62 206 142
l202 144 202 -143 c111 -80 203 -141 205 -137 2 4 -29 108 -68 231 -38 123
-70 229 -70 234 0 6 88 76 195 155 107 79 192 147 189 152 -3 4 -114 8 -247 8
l-242 0 -79 235 c-43 129 -82 235 -85 235 -4 0 -41 -106 -84 -235z"/>
<path d="M4778 8135 c-3 -6 -40 -115 -82 -242 l-78 -233 -251 -2 -252 -3 200
-149 c110 -82 201 -150 202 -150 1 -1 -32 -109 -73 -240 -41 -131 -74 -239
-72 -241 2 -1 93 62 203 141 110 78 205 141 211 140 5 -2 89 -60 185 -128 95
-68 186 -132 200 -142 26 -16 25 -11 -47 216 -41 128 -74 238 -74 244 0 7 90
79 201 160 l201 149 -254 3 -253 2 -81 242 c-44 133 -83 238 -86 233z"/>
<path d="M2492 3117 l-62 -63 0 -176 c0 -172 1 -179 30 -258 29 -77 30 -89 30
-236 l0 -154 60 0 60 0 0 150 c0 145 1 151 35 246 35 96 35 98 35 263 l0 167
-63 62 -63 62 -62 -63z"/>
<path d="M6947 3122 l-57 -58 0 -181 c0 -177 1 -184 30 -263 29 -77 30 -89 30
-236 l0 -154 60 0 60 0 0 150 c0 145 1 151 35 246 35 96 35 98 35 263 l0 167
-63 62 c-34 34 -65 62 -68 62 -2 0 -30 -26 -62 -58z"/>
<path d="M4687 2912 l-87 -87 0 -237 0 -237 45 -127 45 -126 0 -219 0 -219 90
0 90 0 0 214 0 215 45 127 45 126 0 242 0 241 -87 87 c-48 49 -90 88 -93 88
-3 0 -45 -39 -93 -88z"/>
<path d="M1910 2622 l0 -78 48 -47 c26 -26 51 -47 55 -47 4 0 38 20 76 46 l68
45 61 -63 62 -63 0 -92 0 -93 60 0 60 0 0 156 0 155 -72 80 -73 79 -172 0
-173 0 0 -78z"/>
<path d="M2772 2617 l-72 -82 2 -150 3 -150 58 -3 57 -3 0 89 0 90 63 66 62
66 73 -46 74 -47 49 49 49 48 0 78 0 78 -172 -1 -173 -1 -73 -81z"/>
<path d="M6370 2622 l0 -78 48 -47 c26 -26 51 -47 55 -47 4 0 38 20 76 46 l68
45 61 -63 62 -63 0 -92 0 -93 60 0 60 0 0 155 0 154 -72 81 -73 80 -172 0
-173 0 0 -78z"/>
<path d="M7232 2617 l-72 -82 2 -150 3 -150 58 -3 57 -3 0 89 0 90 63 66 62
66 73 -46 73 -47 50 49 49 48 0 78 0 78 -172 -1 -173 -1 -73 -81z"/>
<path d="M3870 2212 l0 -118 69 -68 70 -69 95 62 c52 33 101 64 109 67 9 3 44
-28 95 -84 l82 -90 0 -126 0 -126 90 0 90 0 0 213 0 212 -111 123 -111 122
-239 0 -239 0 0 -118z"/>
<path d="M5108 2213 l-107 -118 -1 -217 0 -218 85 0 85 0 0 126 0 126 83 89
c45 49 85 89 89 89 4 0 53 -30 109 -66 l101 -66 69 68 69 68 0 118 0 118 -238
0 -238 0 -106 -117z"/>
<path d="M2180 2083 l0 -58 60 -48 c33 -26 66 -50 74 -53 8 -3 29 13 50 37 34
40 36 47 36 111 l0 68 -110 0 -110 0 0 -57z"/>
<path d="M2490 2053 c0 -78 -3 -93 -32 -149 l-32 -61 64 -78 c62 -75 64 -77
79 -57 9 11 37 47 63 79 l46 59 -34 59 c-31 56 -34 67 -34 148 l0 87 -60 0
-60 0 0 -87z"/>
<path d="M2700 2073 c0 -65 2 -70 41 -110 22 -24 42 -43 45 -43 2 0 34 23 69
52 l65 52 0 58 0 58 -110 0 -110 0 0 -67z"/>
<path d="M6640 2083 l0 -58 60 -48 c33 -26 66 -50 74 -53 8 -3 29 13 50 37 34
40 36 47 36 111 l0 68 -110 0 -110 0 0 -57z"/>
<path d="M6950 2053 c0 -78 -3 -93 -32 -149 l-32 -61 63 -77 63 -77 63 78 63
78 -34 61 c-31 56 -34 68 -34 147 l0 87 -60 0 -60 0 0 -87z"/>
<path d="M7160 2074 c0 -63 2 -69 37 -108 20 -22 40 -42 44 -44 5 -2 38 20 74
49 l65 53 0 58 0 58 -110 0 -110 0 0 -66z"/>
<path d="M4250 1446 l0 -85 99 -80 99 -80 61 64 62 64 -3 98 -3 98 -157 3
-158 3 0 -85z"/>
<path d="M4697 1523 c-4 -3 -7 -64 -7 -135 l0 -129 -40 -73 c-22 -40 -40 -78
-40 -85 0 -11 151 -204 168 -215 4 -2 47 45 96 104 l87 109 -45 84 -46 84 0
132 0 131 -83 0 c-46 0 -87 -3 -90 -7z"/>
<path d="M5000 1426 l0 -103 58 -62 57 -61 97 78 97 77 1 88 0 87 -155 0 -155
0 0 -104z"/>
</g>
</svg>
