<?xml version="1.0" standalone="no"?>
<!DOCTYPE svg PUBLIC "-//W3C//DTD SVG 20010904//EN"
 "http://www.w3.org/TR/2001/REC-SVG-20010904/DTD/svg10.dtd">
<svg version="1.0" xmlns="http://www.w3.org/2000/svg"
 width="300.000000pt" height="300.000000pt" viewBox="0 0 300.000000 300.000000"
 preserveAspectRatio="xMidYMid meet">
<metadata>
Created by potrace 1.11, written by Peter Selinger 2001-2013
</metadata>
<g transform="translate(0.000000,300.000000) scale(0.100000,-0.100000)"
fill="#000000" stroke="none">
<path d="M983 2941 c-30 -8 -102 -47 -133 -73 -22 -18 -82 -97 -102 -134 -15
-27 -26 -63 -44 -149 -6 -30 -6 -126 1 -160 25 -130 135 -296 305 -460 227
-220 260 -257 260 -298 0 -9 -11 -22 -24 -28 -59 -27 -151 67 -341 347 -94
140 -121 171 -174 209 -71 49 -157 72 -257 71 -86 -2 -194 -22 -194 -37 0 -4
-11 -10 -25 -13 -42 -11 -133 -109 -165 -179 -34 -72 -61 -185 -54 -225 3 -15
7 -36 9 -47 2 -11 13 -56 25 -100 25 -90 23 -176 -5 -255 -17 -46 -42 -136
-51 -180 -10 -47 -11 -153 -2 -204 37 -204 238 -369 448 -367 200 1 367 74
493 216 211 236 297 289 385 235 46 -28 72 -92 77 -187 10 -175 -51 -299 -307
-622 -97 -122 -121 -189 -83 -231 42 -47 116 -35 225 36 36 23 81 45 100 49
68 12 75 13 87 14 26 2 82 64 116 129 40 75 83 212 92 294 3 29 8 67 10 83 7
53 7 197 0 301 -6 86 -4 108 10 138 42 89 147 80 250 -21 17 -16 66 -74 109
-128 145 -183 246 -260 366 -281 255 -43 587 180 603 406 6 80 -8 135 -64 250
-28 58 -54 116 -57 130 -11 49 -3 122 28 229 37 132 44 189 29 261 -24 123
-115 232 -246 297 -119 59 -242 55 -369 -11 -101 -52 -179 -144 -285 -334
-104 -185 -186 -265 -255 -248 -26 7 -40 42 -29 76 4 12 85 99 180 193 194
193 267 291 310 422 63 187 35 337 -85 455 -68 66 -76 73 -126 98 -108 54
-210 52 -368 -7 -181 -68 -202 -68 -397 -6 -148 48 -221 60 -276 46z"/>
</g>
</svg>
