<?xml version="1.0" encoding="UTF-8"?>
<!-- Generator: Adobe Illustrator 19.2.1, SVG Export Plug-In . SVG Version: 6.00 Build 0)  -->
<svg version="1.1" id="logo_-_color" xmlns="http://www.w3.org/2000/svg" xmlns:xlink="http://www.w3.org/1999/xlink" x="0px" y="0px" viewBox="0 0 1024 896" style="enable-background:new 0 0 1024 896;" xml:space="preserve">
<style type="text/css">
	.st0{fill:#DF283F;}
	.st1{fill:#1C4A87;}
	.st2{fill:#128669;}
	.st3{fill:#1D8DCD;}
</style>
<g>
	<g>
		<path class="st0" d="M256,448c0,70.7-57.3,128-128,128S0,518.7,0,448s57.3-128,128-128S256,377.3,256,448z"/>
		<path class="st1" d="M1024,448c0,70.7-57.3,128-128,128s-128-57.3-128-128s57.3-128,128-128S1024,377.3,1024,448z"/>
		<path class="st2" d="M832,128c0,70.7-57.3,128-128,128s-128-57.3-128-128S633.3,0,704,0S832,57.3,832,128z"/>
		<path class="st1" d="M448,128c0,70.7-57.3,128-128,128s-128-57.3-128-128S249.3,0,320,0S448,57.3,448,128z"/>
		<path class="st3" d="M832,768c0,70.7-57.3,128-128,128s-128-57.3-128-128s57.3-128,128-128S832,697.3,832,768z"/>
		<path class="st1" d="M448,768c0,70.7-57.3,128-128,128s-128-57.3-128-128s57.3-128,128-128S448,697.3,448,768z"/>
	</g>
</g>
</svg>