<svg width="16" height="16" viewBox="0 0 16 16" fill="none" xmlns="http://www.w3.org/2000/svg">
<path fill-rule="evenodd" clip-rule="evenodd" d="M14.7725 3.48501L13.9937 3.30124L11.885 5.39688L10.6906 4.18062L12.7469 2.02372L12.5675 1.23187C12.1328 1.08662 11.6782 1.00986 11.22 1.00436C10.7203 0.996443 10.2243 1.09177 9.76314 1.28437C9.31788 1.48601 8.91537 1.77113 8.57748 2.12433C8.20131 2.48057 7.90333 2.91115 7.70248 3.38872C7.31581 4.33966 7.31581 5.40403 7.70248 6.35498C5.91311 8.10498 2.95999 11.0931 1.52936 12.5894C1.31962 12.8644 1.21845 13.207 1.24503 13.5518C1.25433 13.7356 1.30042 13.9156 1.38063 14.0812C1.46028 14.2472 1.57177 14.3958 1.70875 14.5187C1.83285 14.6544 1.98123 14.7657 2.14625 14.8469C2.31632 14.9218 2.49873 14.9648 2.68437 14.9737C3 14.9677 3.30292 14.8481 3.53753 14.6369C5.08628 13.18 8.05249 10.1875 9.73687 8.4331C10.1935 8.62691 10.6846 8.72663 11.1806 8.72625C11.68 8.72589 12.1742 8.62543 12.6341 8.43081C13.094 8.23618 13.5102 7.9513 13.8581 7.59308C14.5728 6.86438 14.972 5.88373 14.9694 4.86309C14.9807 4.39597 14.9141 3.93029 14.7725 3.48501ZM2.93377 13.9281C2.89509 13.9624 2.84845 13.9864 2.79812 13.9981C2.7489 14.0066 2.69861 14.0066 2.64939 13.9981C2.59757 13.9903 2.54817 13.9709 2.50498 13.9412C2.45894 13.9143 2.42 13.8768 2.39128 13.8318C2.25128 13.6875 2.12 13.4162 2.25125 13.2631C3.62062 11.8062 6.44249 8.95809 8.20562 7.21684C8.30665 7.3493 8.41626 7.47498 8.53374 7.59308C8.6522 7.71588 8.77941 7.82994 8.91436 7.93435C7.20811 9.68435 4.42565 12.4975 2.93377 13.9281ZM14.0506 4.86309C14.0531 5.62826 13.7546 6.36373 13.2194 6.91061C12.6845 7.4354 11.965 7.72938 11.2156 7.72938C10.4663 7.72938 9.74682 7.4354 9.21189 6.91061C8.82005 6.50142 8.55242 5.98941 8.44012 5.4341C8.32782 4.8788 8.37544 4.30301 8.57748 3.77372C8.712 3.41382 8.92053 3.08613 9.18956 2.81183C9.45859 2.53752 9.78217 2.32269 10.1394 2.18121C10.4787 2.03857 10.8432 1.96567 11.2112 1.96684H11.465L9.64939 3.83935V4.53496L11.5437 6.42061H12.2044L14.0506 4.60498V4.86309ZM3.23998 6.68751H4.77123L5.4756 7.40501L6.15375 6.73125L5.48874 6.05315V6.00936L5.54562 4.36003L5.32687 3.92253L2.4656 2.04126L1.87498 2.1069L1.04372 2.95562L0.978088 3.55499L2.81562 6.47314L3.23998 6.68751ZM2.29497 3.05624L4.60936 4.57878L4.57 5.70313H3.49371L2.00188 3.34062L2.29497 3.05624ZM9.39997 10.0169L10.0737 9.34314L13.18 12.5282C13.4416 12.8031 13.5875 13.1681 13.5875 13.5476C13.5875 13.9271 13.4416 14.292 13.18 14.5669C12.9833 14.7688 12.7304 14.9068 12.4541 14.963C12.1779 15.0192 11.8912 14.9909 11.6313 14.8819C11.4652 14.8083 11.3162 14.7011 11.1938 14.5669L8.05249 11.3644L8.73064 10.6863L11.8631 13.88C11.9053 13.9265 11.9577 13.9625 12.0163 13.9851C12.1313 14.0318 12.26 14.0318 12.375 13.9851C12.4335 13.9625 12.4859 13.9265 12.5281 13.88C12.5721 13.8366 12.6064 13.7845 12.6287 13.7269C12.6513 13.6682 12.6632 13.606 12.6638 13.5432C12.6627 13.4804 12.6509 13.4182 12.6287 13.3594C12.6064 13.3018 12.5721 13.2497 12.5281 13.2063L9.39997 10.0169Z" fill="#C5C5C5"/>
</svg>
