<svg xmlns="http://www.w3.org/2000/svg" xmlns:xlink="http://www.w3.org/1999/xlink" width="300" height="300" viewBox="-13839225.61507471 3629815.6069995174 6157093.315206349 2216021.894104615" preserveAspectRatio="xMinYMin meet"><g transform="matrix(1,0,0,-1,0,9475653.10810365)"><polyline fill="none" stroke="#66cc99" stroke-width="41047.28876804232" points="-7910172.7930241525,5215097.349501189 -8367165.462810878,4859074.592843575 -8575669.841297083,4706627.088546229 -8914203.477956813,4523897.05115632 -9284308.916885138,4250406.639849869 -9284308.916885138,4250406.639849869 -9659676.80100772,4322966.9368059635 -9659676.80100772,4322966.9368059635 -10090443.522715323,4109968.896312949 -10024501.429725043,4184151.0567220654 -10273630.698653549,4129482.0596809043 -10381149.742031138,4256194.989216006 -10358862.344327979,4096657.6488459567 -10401847.374954334,4105943.950094169 -11104193.078243127,4254858.165010078 -11238801.41914264,4236983.415113703 -11499977.260350727,4380497.146026426 -11756703.810082374,4549969.397997713 -12002544.409396462,4156190.3903415087 -12001406.682932144,4159841.91356311 -12002544.409396462,4156190.3903415087 -12429024.071368761,4190923.6840274297 -12429024.071368761,4190923.6840274297 -12500388.006543554,4343064.814040366 -12500388.006543554,4343064.814040366 -12500388.006543554,4343064.814040366 -12500388.006543554,4343064.814040366 -12433690.551026968,4409418.450695537 -12526425.531131033,4445823.527329497 -12644127.658512326,4453634.332619206 -12579642.090503473,4483913.362447112 -12655477.875440398,4501590.08509704 -12495562.090989104,4539767.485251266 -12655477.875440398,4501590.08509704 -12495562.090989104,4539767.485251266 -12412290.097971506,4510269.2282095635 -12412290.097971506,4510269.2282095635 -12373746.524584014,4588899.031038803 -12324137.282724123,4659806.567281088 -12243364.767838743,4602995.003017833 -12181668.999901392,4647672.21105141 -12194628.82760267,4660806.023097087 -12136244.915053984,4746961.5292913625 -11684686.763721399,4827484.161838096 -11684686.763721399,4827484.161838096 -11780169.943754422,4902660.328200807 -11780169.943754422,4902660.328200807 -11780169.943754422,4902660.328200807 -11780169.943754422,4902660.328200807 -11684686.763721399,4827484.161838096 -11684686.763721399,4827484.161838096 -11684686.763721399,4827484.161838096 -11561526.756972939,4984113.371903019 -11695983.621494386,4946316.571438691 -11521233.709327985,5264781.238533687 -11394848.190299159,5392550.003025259 -11394848.190299159,5392550.003025259 -11394848.190299159,5392550.003025259 -11619071.515888037,5528550.696508569 -11656834.137319162,5557239.331812466 -12046109.524459824,5410832.610672054 -12140102.05858748,5547254.533737482 -12322859.997701157,5578623.254914684 -12322376.31711365,5617797.007948342 -12337336.1623951,5536977.291110558 -12274602.55316431,5442979.738070958 -12317367.491481012,5436173.597769474 -12472245.978739575,5387395.564273935 -12955343.425339691,5349012.473756505 -12975358.803367713,5399712.0931353085 -13161897.330499912,5211771.288208543 -13298271.663327863,5148395.190881668 -13298271.663327863,5148395.190881668 -13298271.663327863,5148395.190881668 -13431031.223993627,4926621.252933241 -13298271.663327863,5148395.190881668 -13431031.223993627,4926621.252933241 -13431031.223993627,4926621.252933241 -13611185.12191892,4551838.671472873 -13611185.12191892,4551838.671472873 -13610123.946609037,4509724.011537472 -13280848.23827665,4140611.274565408 -13042500.052176716,3857856.100155308" opacity="0.8" /></g></svg>