<svg width="16" height="16" viewBox="0 0 16 16" fill="none" xmlns="http://www.w3.org/2000/svg">
<path d="M12 12.23V3.77L13.13 3H14V2H13L12.69 2.09L11.5 2.9L10.28 2.08L10 2H9V3H9.85L11 3.77V12.23L9.87 13H9V14H10L10.31 13.91L11.5 13.1L12.72 13.92L13 14H14V13H13.15L12 12.23Z" fill="#C5C5C5"/>
<path d="M1 10.5V5.5L1.5 5H10V6H2V10H10V11H1.5L1 10.5Z" fill="#C5C5C5"/>
<path d="M13 5H14.5L15 5.5V10.5L14.5 11H13V10H14V6H13V5Z" fill="#C5C5C5"/>
<path d="M3 7.5V8.5L3.5 9H7.5L8 8.5V7.5L7.5 7H3.5L3 7.5Z" fill="#C5C5C5"/>
</svg>