<svg width="16" height="16" viewBox="0 0 16 16" fill="none" xmlns="http://www.w3.org/2000/svg">
<path fill-rule="evenodd" clip-rule="evenodd" d="M8.00003 1C9.61951 1.00012 11.1888 1.56176 12.4407 2.58924C13.6925 3.61671 14.5493 5.04644 14.8651 6.63483C15.1809 8.22321 14.9363 9.87197 14.1728 11.3002C13.4092 12.7284 12.1742 13.8477 10.6779 14.4673C9.18166 15.087 7.51685 15.1687 5.96713 14.6985C4.41742 14.2283 3.07868 13.2353 2.17902 11.8887C1.27936 10.5421 0.874443 8.92518 1.03327 7.31351C1.19209 5.70183 1.90482 4.19509 3.05003 3.05C3.70009 2.40001 4.47181 1.88442 5.32114 1.53268C6.17046 1.18094 7.08075 0.999934 8.00003 1V1ZM2.00003 8C2.00145 9.41722 2.5045 10.7882 3.42003 11.87L11.87 3.42C10.9982 2.68012 9.933 2.20479 8.80003 2.05C7.95187 1.93589 7.08911 2.00455 6.26966 2.25136C5.45022 2.49817 4.69306 2.91742 4.049 3.48097C3.40494 4.04452 2.88889 4.73933 2.53549 5.51876C2.18209 6.29818 1.99952 7.1442 2.00003 8V8ZM14 8C13.9986 6.58278 13.4956 5.21181 12.58 4.13L4.13003 12.58C4.996 13.338 6.06169 13.8309 7.20003 14C8.05239 14.1147 8.91944 14.0448 9.74243 13.7951C10.5654 13.5454 11.3251 13.1217 11.97 12.5526C12.6149 11.9836 13.1299 11.2826 13.4802 10.4971C13.8304 9.71162 14.0077 8.86001 14 8V8Z" fill="#424242"/>
</svg>