<svg width="16" height="16" viewBox="0 0 16 16" fill="none" xmlns="http://www.w3.org/2000/svg">
<path fill-rule="evenodd" clip-rule="evenodd" d="M2.24998 6.93C2.23585 6.31838 2.39202 5.71488 2.70105 5.18688C3.01007 4.65889 3.45979 4.22719 3.99998 3.94L3.45998 3C2.69254 3.41672 2.05607 4.0386 1.62166 4.79617C1.18725 5.55374 0.972005 6.41717 0.999976 7.29C0.999976 8.69 1.52998 9.46 2.46998 9.46C2.6408 9.46386 2.81047 9.43119 2.96765 9.36419C3.12482 9.29719 3.26588 9.19739 3.38138 9.07148C3.49688 8.94556 3.58416 8.79644 3.63738 8.63407C3.6906 8.47171 3.70853 8.29985 3.68998 8.13C3.69548 7.96784 3.66777 7.80626 3.60854 7.6552C3.54931 7.50414 3.45981 7.36679 3.34555 7.25159C3.23128 7.13639 3.09467 7.04577 2.9441 6.98531C2.79352 6.92485 2.63218 6.89582 2.46998 6.9V6.9C2.39539 6.89574 2.32069 6.90593 2.24998 6.93ZM5.68998 6.93C5.67352 6.31419 5.83081 5.7062 6.14384 5.17563C6.45687 4.64506 6.913 4.21338 7.45998 3.93V3.93L6.89998 3C6.13254 3.41672 5.49606 4.0386 5.06166 4.79617C4.62725 5.55374 4.412 6.41717 4.43998 7.29C4.43998 8.69 4.96998 9.46 5.89998 9.46C6.07117 9.46368 6.24119 9.43098 6.39881 9.36407C6.55643 9.29715 6.69805 9.19754 6.81431 9.07183C6.93057 8.94612 7.01883 8.79716 7.07325 8.6348C7.12766 8.47244 7.147 8.30039 7.12998 8.13C7.1341 7.96735 7.1051 7.80556 7.04474 7.65447C6.98439 7.50338 6.89394 7.36613 6.77889 7.25109C6.66384 7.13604 6.5266 7.04559 6.37551 6.98523C6.22441 6.92488 6.06263 6.89588 5.89998 6.9V6.9C5.82865 6.89517 5.7571 6.90539 5.68998 6.93V6.93ZM13.75 8.77C13.7664 9.38581 13.6091 9.9938 13.2961 10.5244C12.9831 11.0549 12.527 11.4866 11.98 11.77L12.54 12.71C13.3113 12.2926 13.9505 11.6678 14.3852 10.9061C14.8199 10.1445 15.0329 9.27638 15 8.4C15 7.01 14.47 6.23 13.53 6.23C13.3592 6.22614 13.1895 6.25881 13.0323 6.32581C12.8751 6.39281 12.7341 6.49261 12.6186 6.61852C12.5031 6.74444 12.4158 6.89356 12.3626 7.05593C12.3094 7.21829 12.2914 7.39015 12.31 7.56C12.3045 7.72216 12.3322 7.88374 12.3914 8.0348C12.4506 8.18586 12.5401 8.32321 12.6544 8.43841C12.7687 8.55361 12.9053 8.64423 13.0559 8.70469C13.2064 8.76515 13.3678 8.79418 13.53 8.79C13.6039 8.79282 13.6778 8.7861 13.75 8.77ZM10.31 8.77C10.3288 9.38625 10.1725 9.99521 9.85924 10.5262C9.54594 11.0572 9.0885 11.4885 8.53998 11.77L9.09998 12.71C9.8713 12.2926 10.5105 11.6678 10.9452 10.9061C11.3799 10.1445 11.5929 9.27638 11.56 8.4C11.56 7 11 6.23 10.1 6.23C9.92878 6.22632 9.75876 6.25902 9.60114 6.32593C9.44352 6.39285 9.3019 6.49246 9.18564 6.61817C9.06938 6.74388 8.98112 6.89284 8.92671 7.0552C8.87229 7.21756 8.85295 7.38961 8.86998 7.56C8.86586 7.72265 8.89486 7.88444 8.95521 8.03553C9.01557 8.18662 9.10602 8.32387 9.22106 8.43891C9.33611 8.55396 9.47335 8.64441 9.62444 8.70477C9.77554 8.76512 9.93733 8.79412 10.1 8.79C10.1706 8.79326 10.2413 8.78653 10.31 8.77Z" fill="#424242"/>
</svg>