<svg width="16" height="16" viewBox="0 0 16 16" fill="none" xmlns="http://www.w3.org/2000/svg">
<path fill-rule="evenodd" clip-rule="evenodd" d="M3.89002 2.10001C4.64425 1.60008 5.49455 1.26313 6.3865 1.11073C7.27845 0.958334 8.19239 0.993849 9.06983 1.215C9.94726 1.43616 10.7689 1.83808 11.482 2.39503C12.1952 2.95199 12.7842 3.65172 13.2114 4.44942C13.6385 5.24712 13.8944 6.12523 13.9627 7.02752C14.031 7.92982 13.9101 8.83643 13.6078 9.68932C13.3055 10.5422 12.8285 11.3226 12.2072 11.9805C11.586 12.6384 10.8342 13.1594 10 13.51C8.50787 14.1372 6.8354 14.1852 5.30978 13.6445C3.78416 13.1037 2.51517 12.0132 1.75107 10.5863C0.986971 9.15944 0.78274 7.49879 1.17833 5.92927C1.57392 4.35974 2.54088 2.99428 3.89002 2.10001V2.10001ZM4.44002 12.1C5.07948 12.5048 5.79559 12.7732 6.54356 12.8886C7.29153 13.0039 8.05525 12.9636 8.78693 12.7703C9.51862 12.5769 10.2025 12.2346 10.7959 11.7648C11.3892 11.2951 11.8792 10.7079 12.2352 10.04C12.5912 9.37217 12.8056 8.63804 12.8648 7.88355C12.9241 7.12907 12.827 6.37048 12.5797 5.65523C12.3323 4.93999 11.94 4.28349 11.4273 3.72681C10.9146 3.17013 10.2925 2.72525 9.60002 2.42001C8.59886 1.99909 7.49375 1.89102 6.43002 2.11001C5.36188 2.31864 4.38026 2.84114 3.6107 3.6107C2.84114 4.38026 2.31864 5.36188 2.11002 6.43001C1.8982 7.49512 2.00644 8.5991 2.42108 9.60279C2.83573 10.6065 3.53822 11.465 4.44002 12.07V12.1ZM8.41002 4.00001C8.14031 3.88903 7.85166 3.8313 7.56002 3.83001C7.26792 3.82666 6.97836 3.88457 6.71002 4.00001C6.45004 4.11281 6.21283 4.27208 6.01002 4.47001C5.81316 4.66782 5.65689 4.90222 5.55002 5.16001C5.43111 5.42373 5.37301 5.71081 5.38002 6.00001H6.25002C6.24803 5.74166 6.32307 5.48858 6.46556 5.27306C6.60805 5.05755 6.81153 4.88938 7.05002 4.79001C7.21084 4.71926 7.38433 4.68184 7.56002 4.68001C7.73893 4.68186 7.91568 4.71925 8.08002 4.79001C8.39473 4.92458 8.64545 5.1753 8.78002 5.49001C8.84379 5.6526 8.87767 5.82538 8.88002 6.00001C8.87715 6.18102 8.83266 6.35895 8.75002 6.52001C8.65704 6.67565 8.5463 6.81995 8.42002 6.95001L8.00002 7.32001C7.84984 7.46018 7.70951 7.61054 7.58002 7.77001C7.44654 7.93638 7.33868 8.12176 7.26002 8.32001C7.16662 8.53418 7.12221 8.7665 7.13002 9.00001V9.44001H8.00002V9.00001C7.99809 8.81841 8.04285 8.63935 8.13002 8.48001C8.22221 8.32385 8.33302 8.17946 8.46002 8.05001C8.59278 7.90928 8.73298 7.77576 8.88002 7.65001C9.03019 7.50984 9.17052 7.35949 9.30002 7.20001C9.4335 7.03365 9.54135 6.84827 9.62002 6.65001C9.70509 6.44383 9.74924 6.22306 9.75002 6.00001C9.74873 5.70837 9.691 5.41972 9.58002 5.15001C9.34464 4.63589 8.92812 4.2265 8.41002 4.00001ZM8.00002 11.22V10.34H7.13002V11.22H8.00002Z" fill="#424242"/>
</svg>