<svg width="16" height="16" viewBox="0 0 16 16" fill="none" xmlns="http://www.w3.org/2000/svg">
<path fill-rule="evenodd" clip-rule="evenodd" d="M2.25001 6.93C2.23588 6.31838 2.39205 5.71488 2.70108 5.18688C3.0101 4.65889 3.45982 4.22719 4.00001 3.94L3.46001 3C2.69257 3.41672 2.0561 4.0386 1.62169 4.79617C1.18728 5.55374 0.972035 6.41717 1.00001 7.29C1.00001 8.69 1.53001 9.46 2.47001 9.46C2.64083 9.46386 2.8105 9.43119 2.96768 9.36419C3.12486 9.29719 3.26591 9.19739 3.38141 9.07148C3.49691 8.94556 3.58419 8.79644 3.63741 8.63407C3.69063 8.47171 3.70856 8.29985 3.69001 8.13C3.69551 7.96784 3.6678 7.80626 3.60857 7.6552C3.54934 7.50414 3.45984 7.36679 3.34558 7.25159C3.23131 7.13639 3.0947 7.04577 2.94413 6.98531C2.79355 6.92485 2.63221 6.89582 2.47001 6.9V6.9C2.39543 6.89574 2.32072 6.90593 2.25001 6.93ZM5.69001 6.93C5.67355 6.31419 5.83084 5.7062 6.14387 5.17563C6.45691 4.64506 6.91303 4.21338 7.46001 3.93V3.93L6.90001 3C6.13257 3.41672 5.4961 4.0386 5.06169 4.79617C4.62728 5.55374 4.41204 6.41717 4.44001 7.29C4.44001 8.69 4.97001 9.46 5.90001 9.46C6.0712 9.46368 6.24123 9.43098 6.39884 9.36407C6.55646 9.29715 6.69808 9.19754 6.81434 9.07183C6.9306 8.94612 7.01886 8.79716 7.07328 8.6348C7.12769 8.47244 7.14703 8.30039 7.13001 8.13C7.13413 7.96735 7.10513 7.80556 7.04477 7.65447C6.98442 7.50338 6.89397 7.36613 6.77892 7.25109C6.66387 7.13604 6.52663 7.04559 6.37554 6.98523C6.22444 6.92488 6.06266 6.89588 5.90001 6.9V6.9C5.82868 6.89517 5.75713 6.90539 5.69001 6.93V6.93ZM13.75 8.77C13.7665 9.38581 13.6092 9.9938 13.2961 10.5244C12.9831 11.0549 12.527 11.4866 11.98 11.77L12.54 12.71C13.3113 12.2926 13.9505 11.6678 14.3852 10.9061C14.82 10.1445 15.0329 9.27638 15 8.4C15 7.01 14.47 6.23 13.53 6.23C13.3592 6.22614 13.1895 6.25881 13.0323 6.32581C12.8752 6.39281 12.7341 6.49261 12.6186 6.61852C12.5031 6.74444 12.4158 6.89356 12.3626 7.05593C12.3094 7.21829 12.2915 7.39015 12.31 7.56C12.3045 7.72216 12.3322 7.88374 12.3914 8.0348C12.4507 8.18586 12.5402 8.32321 12.6544 8.43841C12.7687 8.55361 12.9053 8.64423 13.0559 8.70469C13.2065 8.76515 13.3678 8.79418 13.53 8.79C13.6039 8.79282 13.6778 8.7861 13.75 8.77ZM10.31 8.77C10.3289 9.38625 10.1726 9.99521 9.85927 10.5262C9.54598 11.0572 9.08853 11.4885 8.54001 11.77L9.10001 12.71C9.87133 12.2926 10.5105 11.6678 10.9452 10.9061C11.38 10.1445 11.5929 9.27638 11.56 8.4C11.56 7 11 6.23 10.1 6.23C9.92881 6.22632 9.75879 6.25902 9.60117 6.32593C9.44355 6.39285 9.30193 6.49246 9.18567 6.61817C9.06941 6.74388 8.98115 6.89284 8.92674 7.0552C8.87232 7.21756 8.85298 7.38961 8.87001 7.56C8.86589 7.72265 8.89489 7.88444 8.95524 8.03553C9.0156 8.18662 9.10605 8.32387 9.22109 8.43891C9.33614 8.55396 9.47338 8.64441 9.62448 8.70477C9.77557 8.76512 9.93736 8.79412 10.1 8.79C10.1706 8.79326 10.2413 8.78653 10.31 8.77Z" fill="#C5C5C5"/>
</svg>