<svg width="16" height="16" viewBox="0 0 16 16" fill="none" xmlns="http://www.w3.org/2000/svg">
<path fill-rule="evenodd" clip-rule="evenodd" d="M3.88999 2.10001C4.64422 1.60008 5.49452 1.26313 6.38647 1.11073C7.27842 0.958334 8.19236 0.993849 9.0698 1.215C9.94723 1.43616 10.7688 1.83808 11.482 2.39503C12.1951 2.95199 12.7842 3.65172 13.2113 4.44942C13.6385 5.24712 13.8944 6.12523 13.9627 7.02752C14.0309 7.92982 13.91 8.83643 13.6078 9.68932C13.3055 10.5422 12.8284 11.3226 12.2072 11.9805C11.5859 12.6384 10.8342 13.1594 9.99999 13.51C8.50784 14.1372 6.83537 14.1852 5.30975 13.6445C3.78413 13.1037 2.51514 12.0132 1.75104 10.5863C0.98694 9.15944 0.782709 7.49879 1.1783 5.92927C1.57389 4.35974 2.54084 2.99428 3.88999 2.10001V2.10001ZM4.43999 12.1C5.07945 12.5048 5.79556 12.7732 6.54353 12.8886C7.29149 13.0039 8.05522 12.9636 8.7869 12.7703C9.51859 12.5769 10.2025 12.2346 10.7958 11.7648C11.3892 11.2951 11.8792 10.7079 12.2352 10.04C12.5912 9.37217 12.8055 8.63804 12.8648 7.88355C12.9241 7.12907 12.827 6.37048 12.5796 5.65523C12.3323 4.93999 11.94 4.28349 11.4273 3.72681C10.9146 3.17013 10.2925 2.72525 9.59999 2.42001C8.59883 1.99909 7.49372 1.89102 6.42999 2.11001C5.36185 2.31864 4.38023 2.84114 3.61067 3.6107C2.84111 4.38026 2.31861 5.36188 2.10999 6.43001C1.89817 7.49512 2.00641 8.5991 2.42105 9.60279C2.8357 10.6065 3.53819 11.465 4.43999 12.07V12.1ZM8.40999 4.00001C8.14028 3.88903 7.85163 3.8313 7.55999 3.83001C7.26789 3.82666 6.97833 3.88457 6.70999 4.00001C6.45001 4.11281 6.2128 4.27208 6.00999 4.47001C5.81313 4.66782 5.65686 4.90222 5.54999 5.16001C5.43108 5.42373 5.37298 5.71081 5.37999 6.00001H6.24999C6.248 5.74166 6.32304 5.48858 6.46553 5.27306C6.60802 5.05755 6.8115 4.88938 7.04999 4.79001C7.21081 4.71926 7.3843 4.68184 7.55999 4.68001C7.7389 4.68186 7.91565 4.71925 8.07999 4.79001C8.3947 4.92458 8.64542 5.1753 8.77999 5.49001C8.84376 5.6526 8.87764 5.82538 8.87999 6.00001C8.87711 6.18102 8.83263 6.35895 8.74999 6.52001C8.65701 6.67565 8.54627 6.81995 8.41999 6.95001L7.99999 7.32001C7.84981 7.46018 7.70948 7.61054 7.57999 7.77001C7.44651 7.93638 7.33865 8.12176 7.25999 8.32001C7.16659 8.53418 7.12218 8.7665 7.12999 9.00001V9.44001H7.99999V9.00001C7.99806 8.81841 8.04282 8.63935 8.12999 8.48001C8.22217 8.32385 8.33299 8.17946 8.45999 8.05001C8.59275 7.90928 8.73295 7.77576 8.87999 7.65001C9.03016 7.50984 9.17049 7.35949 9.29999 7.20001C9.43347 7.03365 9.54132 6.84827 9.61999 6.65001C9.70505 6.44383 9.74921 6.22306 9.74999 6.00001C9.7487 5.70837 9.69097 5.41972 9.57999 5.15001C9.3446 4.63589 8.92809 4.2265 8.40999 4.00001ZM7.99999 11.22V10.34H7.12999V11.22H7.99999Z" fill="#C5C5C5"/>
</svg>