<svg width="16" height="16" viewBox="0 0 16 16" fill="none" xmlns="http://www.w3.org/2000/svg">
<path fill-rule="evenodd" clip-rule="evenodd" d="M8 1C9.61948 1.00012 11.1888 1.56176 12.4406 2.58924C13.6924 3.61671 14.5492 5.04644 14.8651 6.63483C15.1809 8.22321 14.9362 9.87197 14.1727 11.3002C13.4092 12.7284 12.1741 13.8477 10.6779 14.4673C9.18163 15.087 7.51682 15.1687 5.9671 14.6985C4.41739 14.2283 3.07865 13.2353 2.17899 11.8887C1.27933 10.5421 0.874413 8.92518 1.03324 7.31351C1.19206 5.70183 1.90479 4.19509 3.05 3.05C3.70006 2.40001 4.47178 1.88442 5.32111 1.53268C6.17043 1.18094 7.08072 0.999934 8 1V1ZM2 8C2.00142 9.41722 2.50446 10.7882 3.42 11.87L11.87 3.42C10.9981 2.68012 9.93297 2.20479 8.8 2.05C7.95183 1.93589 7.08907 2.00455 6.26963 2.25136C5.45019 2.49817 4.69303 2.91742 4.04897 3.48097C3.40491 4.04452 2.88886 4.73933 2.53546 5.51876C2.18206 6.29818 1.99949 7.1442 2 8V8ZM14 8C13.9986 6.58278 13.4955 5.21181 12.58 4.13L4.13 12.58C4.99597 13.338 6.06166 13.8309 7.2 14C8.05235 14.1147 8.91941 14.0448 9.7424 13.7951C10.5654 13.5454 11.3251 13.1217 11.97 12.5526C12.6149 11.9836 13.1299 11.2826 13.4801 10.4971C13.8304 9.71162 14.0077 8.86001 14 8V8Z" fill="#C5C5C5"/>
</svg>